<svg width="54" height="43" viewBox="0 0 54 43" fill="none" xmlns="http://www.w3.org/2000/svg">
<path d="M53.9753 36.541C53.9332 36.4012 53.8412 36.2878 53.7215 36.2285L32.379 25.6623L34.4714 24.2957C36.5164 22.9608 38.316 21.2435 39.8253 19.1908L49.3486 19.4744C49.3527 19.4745 49.3568 19.4745 49.3608 19.4745C49.4491 19.4745 49.5357 19.446 49.6103 19.3923L51.4471 18.0697C51.6061 17.9552 51.6883 17.7432 51.6551 17.5331C51.6218 17.323 51.4796 17.1567 51.2952 17.1117L42.3491 14.9365L43.8627 12.0409C44.1698 11.4536 44.2426 10.7751 44.0679 10.1305C43.9352 9.64103 43.6706 9.21571 43.3189 8.91252L46.1208 0.71553C46.1914 0.508981 46.1402 0.274559 45.9925 0.129147C45.8449 -0.0161342 45.6328 -0.0412455 45.4616 0.0660387L40.2018 3.37266C40.1439 3.40894 40.0937 3.45877 40.0543 3.51886L35.6523 10.2264L33.217 6.0921C33.0771 5.85453 32.7955 5.78655 32.5822 5.9392L30.9954 7.07291C30.8465 7.17941 30.7635 7.37189 30.7812 7.57029L31.3508 13.9688C28.8634 15.5894 25.858 17.5489 22.7556 19.5753L11.9316 8.72951C11.8 8.59777 11.6139 8.56122 11.451 8.63498C10.0449 9.27145 9.35473 11.029 9.87989 12.6364L11.894 18.8012L8.63833 21.2509C8.22842 21.5334 7.98025 22.0705 7.95806 22.7334C7.93807 23.3303 8.09632 23.9908 8.40375 24.5934C8.71118 25.1959 9.13758 25.6813 9.60441 25.9602C9.88721 26.1292 10.1752 26.2141 10.447 26.2141C10.6835 26.2141 10.9078 26.1497 11.1055 26.0204C11.1168 26.0131 13.6091 24.052 13.6091 24.052L14.0153 25.2955C10.6305 27.5167 7.65632 29.4782 5.75947 30.7486C3.6565 32.1569 1.99353 34.1664 0.950293 36.5595C0.592673 37.3799 0.305112 38.2437 0.0955124 39.1269C-0.162188 40.2153 0.108874 41.3351 0.820513 42.122C1.33917 42.6955 2.0084 43 2.70331 43C2.96101 43 3.22231 42.9581 3.48059 42.8725C5.2041 42.2995 6.91087 41.6053 8.55316 40.8094C10.1971 40.013 11.819 39.0944 13.3741 38.0787L21.8575 32.5352L29.3602 34.145L27.9017 35.2153C27.489 35.4969 27.2392 36.036 27.2169 36.7015C27.197 37.2984 27.3552 37.9588 27.6626 38.5614C28.1809 39.5773 28.9865 40.1833 29.7074 40.1833C29.9393 40.1833 30.1624 40.1206 30.3644 39.9887C30.3758 39.9812 35.9874 35.567 35.9874 35.567L50.6575 38.7147C50.8516 38.7564 51.0457 38.7766 51.2378 38.7766C52.3496 38.7766 53.3908 38.0978 53.9419 36.9637C54.0054 36.8343 54.0174 36.6809 53.9753 36.541ZM49.992 17.8708L49.2311 18.4186L37.7403 18.0765C38.53 17.388 39.8849 16.4698 41.1601 15.7232L49.992 17.8708ZM40.7407 4.23698L44.7906 1.69108L41.8932 10.1672L33.5902 15.1325L40.7407 4.23698ZM32.695 7.10236L35.0636 11.1234L34.5735 11.8702C33.8838 12.3192 33.0972 12.8313 32.2339 13.3937L31.7348 7.78867L32.695 7.10236ZM10.699 25.061L10.63 25.1153C10.4874 25.2003 10.2732 25.1703 10.0385 25.0301C9.72908 24.8454 9.42665 24.4945 9.20892 24.0676C8.99107 23.6407 8.87372 23.169 8.88696 22.7732C8.89719 22.4658 8.98479 22.2362 9.12724 22.1431C9.18219 22.1073 9.24853 22.0894 9.32336 22.0894C9.44222 22.0894 9.58211 22.1345 9.72978 22.2227C10.0392 22.4075 10.3416 22.7584 10.5593 23.1853C10.9645 23.9793 10.9618 24.7893 10.699 25.061ZM11.8032 24.1921C11.7694 23.7009 11.6252 23.1706 11.3644 22.6594C11.0684 22.0792 10.6616 21.6095 10.2151 21.3263L12.2251 19.8148L13.2765 23.033L11.8032 24.1921ZM10.7515 12.2716C10.435 11.3028 10.7824 10.252 11.5467 9.74884L21.9067 20.1298C19.5194 21.6896 17.0982 23.2736 14.8316 24.7602L10.7515 12.2716ZM1.65914 41.5521C1.5935 41.4968 1.53041 41.4362 1.47046 41.37C1.00327 40.8534 0.824929 40.1186 0.992701 39.4039C1.14607 39.2857 1.32534 39.2207 1.50903 39.2207C2.04198 39.2207 2.4757 39.747 2.4757 40.394C2.47558 40.9751 2.11971 41.4637 1.65914 41.5521ZM12.9097 37.1679C11.3866 38.1626 9.79786 39.0624 8.18752 39.8425C6.57893 40.6223 4.90724 41.3023 3.21929 41.8633C3.10264 41.9018 2.98518 41.9268 2.86818 41.9387C3.19977 41.5368 3.40507 40.9909 3.40507 40.3939C3.40507 39.167 2.55447 38.1688 1.50892 38.1688C1.45291 38.1688 1.39726 38.1718 1.34184 38.1775C1.4729 37.7853 1.62045 37.4001 1.78416 37.0247C1.81088 36.9634 1.8397 36.9035 1.86723 36.8427C2.3716 37.5244 3.35395 37.8677 4.79559 37.8677C5.16355 37.8677 5.56137 37.8454 5.98882 37.8007C6.24443 37.7738 6.43242 37.5177 6.40872 37.2283C6.38501 36.939 6.1581 36.7293 5.90307 36.7532C3.59283 36.9959 2.83599 36.4989 2.59038 36.1818C2.45223 36.0035 2.43585 35.8259 2.43945 35.7286C3.38799 34.0865 4.67987 32.6936 6.23293 31.6535C11.6133 28.0501 25.6685 18.8825 33.1826 13.9888L31.6217 16.3673C31.4922 16.5645 31.5006 16.837 31.642 17.0234C31.7327 17.143 31.8628 17.2069 31.995 17.2069C32.0688 17.2069 32.1431 17.1871 32.2119 17.1459L42.4812 11.005C42.5803 10.9458 42.6571 10.8481 42.6975 10.7298L42.9569 9.97077C43.0554 10.1074 43.1321 10.2654 43.1791 10.4387C43.2762 10.797 43.2347 11.1756 43.0625 11.5052L41.3909 14.7032L41.1929 14.6551C41.0883 14.6299 40.9792 14.6461 40.8838 14.701C40.2058 15.0927 36.7964 17.1091 36.2546 18.3354C36.1835 18.4963 36.19 18.6871 36.2717 18.8412C36.3535 18.9954 36.4992 19.0916 36.658 19.0964L38.6241 19.1549C37.29 20.8321 35.7408 22.2525 34.0066 23.3846L31.3212 25.1386L31.0122 24.9856C30.9093 24.9347 30.7937 24.9277 30.6866 24.9657C30.3888 25.0716 23.3577 27.5992 20.1403 31.336C20.0208 31.4747 19.9784 31.6764 20.0299 31.8611C20.0814 32.0458 20.2185 32.1835 20.3866 32.2196L20.4585 32.235L12.9097 37.1679ZM29.9566 39.0313L29.8921 39.082C29.5701 39.2786 28.8978 38.878 28.468 38.0357C28.2502 37.6088 28.133 37.1371 28.1462 36.7415C28.1564 36.434 28.2441 36.2043 28.3865 36.1112C28.4422 36.0749 28.5089 36.057 28.5835 36.057C28.9354 36.057 29.4611 36.4529 29.8185 37.1534C30.2247 37.9492 30.2212 38.7612 29.9566 39.0313ZM31.0625 38.1613C31.0289 37.6698 30.8846 37.1392 30.6235 36.6275C30.3196 36.0317 29.9166 35.5778 29.49 35.3034L30.6901 34.4304L34.7085 35.2926L31.0625 38.1613ZM50.8311 37.6815L21.4614 31.3798C24.4583 28.4909 29.8002 26.4046 30.8017 26.0296L52.8263 36.9334C52.3289 37.5477 51.58 37.8425 50.8311 37.6815Z" fill="#F0F8F7"/>
</svg>
