<svg width="54" height="54" viewBox="0 0 54 54" fill="none" xmlns="http://www.w3.org/2000/svg">
<path d="M13.4801 39.3759H19.6623C20.1001 39.3759 20.4549 39.0211 20.4549 38.5833C20.4549 38.1455 20.1001 37.7907 19.6623 37.7907H14.2726V9.20409H24.0727V18.6781C24.0877 19.1693 24.5544 19.619 25.1337 19.4238L29.4419 17.8732L33.7515 19.4238C34.1904 19.5974 34.8237 19.2472 34.8124 18.6781V9.20409H38.7296C39.1674 9.20409 39.5222 8.84929 39.5222 8.41149C39.5222 7.97369 39.1674 7.6189 38.7296 7.6189H13.4801C13.0423 7.6189 12.6875 7.97369 12.6875 8.41149V38.5833C12.6875 39.0211 13.0423 39.3759 13.4801 39.3759ZM33.2273 17.5506L29.7103 16.2851C29.5369 16.2226 29.3472 16.2226 29.1736 16.2851L25.6579 17.5504V9.20409H33.2273V17.5506Z" fill="#F0F8F7"/>
<path d="M22.8336 39.3759H45.4061C45.8439 39.3759 46.1987 39.0211 46.1987 38.5833V8.41149C46.1987 7.97369 45.8439 7.6189 45.4061 7.6189H41.9008C41.463 7.6189 41.1083 7.97369 41.1083 8.41149C41.1083 8.84929 41.463 9.20409 41.9008 9.20409H44.6135V37.7908H22.8336C22.3958 37.7908 22.041 38.1456 22.041 38.5834C22.041 39.0212 22.3958 39.3759 22.8336 39.3759Z" fill="#F0F8F7"/>
<path d="M19.2828 30.2651H26.3912C26.829 30.2651 27.1838 29.9103 27.1838 29.4725C27.1838 29.0347 26.829 28.6799 26.3912 28.6799H19.2828C18.845 28.6799 18.4902 29.0347 18.4902 29.4725C18.4902 29.9103 18.845 30.2651 19.2828 30.2651Z" fill="#E98C00"/>
<path d="M19.2828 34.228H33.4485C33.8863 34.228 34.2411 33.8732 34.2411 33.4354C34.2411 32.9976 33.8863 32.6428 33.4485 32.6428H19.2828C18.845 32.6428 18.4902 32.9976 18.4902 33.4354C18.4902 33.8732 18.845 34.228 19.2828 34.228Z" fill="#E98C00"/>
<path d="M13.4801 5.00701C13.9179 5.00701 14.2727 4.65222 14.2727 4.21442V3.2961H44.6125V4.21442C44.6125 4.65222 44.9673 5.00701 45.4051 5.00701C45.8429 5.00701 46.1977 4.65222 46.1977 4.21442V0.792596C46.1977 0.354796 45.8429 0 45.4051 0C44.9673 0 44.6125 0.354796 44.6125 0.792596V1.71091H14.2727V0.792596C14.2727 0.354796 13.9179 0 13.4801 0C13.0423 0 12.6875 0.354796 12.6875 0.792596V4.21442C12.6875 4.65222 13.0423 5.00701 13.4801 5.00701Z" fill="#E98C00"/>
<path d="M5.8883 38.7232C5.4505 38.7232 5.0957 39.078 5.0957 39.5158C5.0957 39.9536 5.4505 40.3083 5.8883 40.3083H9.29831C9.73611 40.3083 10.0909 39.9536 10.0909 39.5158C10.0909 39.078 9.73611 38.7232 9.29831 38.7232H8.38579V8.27196H9.29831C9.73611 8.27196 10.0909 7.91716 10.0909 7.47936C10.0909 7.04156 9.73611 6.68677 9.29831 6.68677H5.8883C5.4505 6.68677 5.0957 7.04156 5.0957 7.47936C5.0957 7.91716 5.4505 8.27196 5.8883 8.27196H6.80071V38.7232H5.8883Z" fill="#E98C00"/>
<path d="M53.2073 42.856H39.2283C38.7905 42.856 38.4357 43.2108 38.4357 43.6486C38.4357 44.0864 38.7905 44.4411 39.2283 44.4411H52.4147V52.415H46.9502V48.8417C46.9502 48.4039 46.5954 48.0491 46.1576 48.0491C45.7198 48.0491 45.365 48.4039 45.365 48.8417V52.415H42.6928V50.3685C42.6928 49.9307 42.338 49.5759 41.9002 49.5759C41.4624 49.5759 41.1076 49.9307 41.1076 50.3685V52.415H38.4355V48.8417C38.4355 48.4039 38.0807 48.0491 37.6429 48.0491C37.2051 48.0491 36.8503 48.4039 36.8503 48.8417V52.415H34.178V50.3685C34.178 49.9307 33.8232 49.5759 33.3854 49.5759C32.9476 49.5759 32.5928 49.9307 32.5928 50.3685V52.415H29.9207V48.8417C29.9207 48.4039 29.5659 48.0491 29.1281 48.0491C28.6903 48.0491 28.3355 48.4039 28.3355 48.8417V52.415H25.6632V50.3685C25.6632 49.9307 25.3084 49.5759 24.8706 49.5759C24.4328 49.5759 24.078 49.9307 24.078 50.3685V52.415H21.4059V48.8417C21.4059 48.4039 21.0511 48.0491 20.6133 48.0491C20.1755 48.0491 19.8207 48.4039 19.8207 48.8417V52.415H17.1484V50.3685C17.1484 49.9307 16.7937 49.5759 16.3559 49.5759C15.9181 49.5759 15.5633 49.9307 15.5633 50.3685V52.415H12.8911V48.8417C12.8911 48.4039 12.5363 48.0491 12.0985 48.0491C11.6607 48.0491 11.3059 48.4039 11.3059 48.8417V52.415H8.63482V50.3685C8.63482 49.9307 8.28002 49.5759 7.84222 49.5759C7.40442 49.5759 7.04962 49.9307 7.04962 50.3685V52.415H1.58509V44.4411H36.058C36.4958 44.4411 36.8506 44.0864 36.8506 43.6486C36.8506 43.2108 36.4958 42.856 36.058 42.856H0.792596C0.354796 42.856 0 43.2108 0 43.6486V53.2075C0 53.6452 0.354796 54 0.792596 54H53.2074C53.6452 54 54 53.6452 54 53.2074V43.6484C53.9999 43.2108 53.6451 42.856 53.2073 42.856Z" fill="#F0F8F7"/>
</svg>
