<svg width="58" height="42" viewBox="0 0 58 42" fill="none" xmlns="http://www.w3.org/2000/svg">
<path d="M36.9996 26.2197C36.9924 26.1611 36.9572 26.1086 36.9061 26.0786L31.7129 23.0255C31.6551 22.9915 31.5839 22.9915 31.5261 23.0255L16.0935 32.087C16.0357 32.1209 16 32.2518 16 32.2518V38.7571C16 38.8251 16.0357 38.888 16.0934 38.9219L17.6582 39.8418L17.3678 40.0109C17.0864 39.6483 16.6865 39.4981 16.3951 39.6694C16.2235 39.7703 16.1198 39.9691 16.1107 40.2149C16.1026 40.4319 16.1666 40.6721 16.2908 40.8911C16.415 41.1102 16.5873 41.2868 16.7759 41.3881C16.8902 41.4495 17.0065 41.4804 17.1162 41.4804C17.2117 41.4804 17.3021 41.457 17.3819 41.41C17.5535 41.3092 17.6571 41.1104 17.6662 40.8646C17.6726 40.696 17.6349 40.5134 17.5596 40.3376L18.0329 40.0621L21.2861 41.9745C21.315 41.9915 21.3473 42 21.3796 42C21.4117 42 21.444 41.9915 21.4729 41.9745L23.1374 40.9973C23.1429 41.3652 23.2849 41.6622 23.5409 41.8126C23.6555 41.88 23.7823 41.912 23.9147 41.912C24.3435 41.912 24.8306 41.5759 25.148 41.0165C25.2774 40.7883 25.3624 40.5477 25.4008 40.3166C25.4657 40.4216 25.5509 40.5076 25.6552 40.5689C25.7682 40.6353 25.8943 40.6684 26.0281 40.6684C26.1857 40.6684 26.354 40.6225 26.5239 40.5311C26.8101 40.3773 27.0723 40.1077 27.2622 39.7723C27.3498 39.618 27.4165 39.458 27.4629 39.299L31.9298 36.673C31.973 36.7164 32.0206 36.7548 32.0738 36.786C32.1868 36.8524 32.313 36.8856 32.4468 36.8856C32.6043 36.8856 32.7725 36.8397 32.9423 36.7485C33.2283 36.5948 33.4906 36.3253 33.6809 35.9899C33.8101 35.7622 33.895 35.5212 33.9334 35.2895C33.9984 35.395 34.0838 35.4811 34.1882 35.5423C34.3011 35.6087 34.4272 35.6418 34.561 35.6418C34.7186 35.6418 34.8869 35.596 35.0569 35.5046C35.343 35.3508 35.6054 35.0813 35.7957 34.7457C36.0475 34.3011 36.1312 33.8057 36.0281 33.429L36.9061 32.9135C36.9639 32.8796 36.9996 32.8167 36.9996 32.7487C36.9996 32.7486 37.0005 26.2275 36.9996 26.2197ZM17.1951 41.0805C17.1372 41.1145 17.048 41.104 16.9505 41.0515C16.8252 40.9842 16.7027 40.8563 16.6146 40.7008C16.5264 40.5453 16.4789 40.3734 16.4843 40.2293C16.4885 40.1171 16.5241 40.0331 16.582 39.9991C16.6046 39.9858 16.6318 39.9793 16.6621 39.9793C16.8048 39.9793 17.0178 40.1234 17.1626 40.3787C17.2507 40.5343 17.2982 40.7061 17.2928 40.8503C17.2886 40.9625 17.253 41.0464 17.1951 41.0805ZM36.6258 27.0504L34.7128 28.1735V27.6959L36.6258 26.5728V27.0504ZM32.0229 35.3412V30.1921L34.339 28.8323V33.9813L32.0229 35.3412ZM26.643 38.4998V33.3508L28.9591 31.9909V37.14L26.643 38.4998ZM23.9525 40.0794V34.9304L26.2692 33.5703V38.7193L23.9525 40.0794ZM21.5665 41.4803V36.3313L23.5787 35.1498V40.2988L21.5665 41.4803ZM16.3738 33.0589V32.5815L21.1927 35.4143V35.8917L16.3738 33.0589ZM26.2692 32.6533V33.1309L23.9525 34.491V34.0135L26.2692 32.6533ZM26.643 32.4339L28.9591 31.074V31.5515L26.643 32.9114V32.4339ZM29.3329 30.8546L31.6491 29.4947V29.9723L29.3329 31.3321V30.8546ZM31.8335 28.9471L27.0143 26.114L29.3167 24.7621L34.1361 27.5952L31.8335 28.9471ZM31.4595 29.1667L29.1435 30.5264L24.3243 27.6935L26.6402 26.3336L31.4595 29.1667ZM28.7694 30.746L26.4332 32.1177L21.6142 29.2847L23.9503 27.9131L28.7694 30.746ZM26.0592 32.3373L23.7489 33.6937L18.93 30.8608L21.2402 29.5043L26.0592 32.3373ZM23.5787 34.7105L21.5665 35.8919V35.4144L23.5787 34.2329V34.7105ZM21.1927 36.3312V41.4801L20.434 41.0341V35.8852L21.1927 36.3312ZM29.3329 31.7714L31.6491 30.4116V35.5606L29.3329 36.9205V31.7714ZM32.0229 29.7528V29.2753L34.339 27.9154V28.393L32.0229 29.7528ZM31.6194 23.41L36.4387 26.2433L34.51 27.3757L29.6907 24.5425L31.6194 23.41ZM18.556 31.0805L23.3748 33.9133L21.3796 35.0847L16.5608 32.2519L18.556 31.0805ZM16.3738 33.4984L17.0393 33.8896V39.0385L16.3738 38.6473V33.4984ZM18.703 39.4529C18.6518 39.3618 18.5376 39.33 18.448 39.3822L18.0339 39.6231L17.4132 39.2582V34.1093L20.0602 35.6654V40.8143L18.4087 39.8435L18.6335 39.7126C18.7231 39.6605 18.7542 39.5442 18.703 39.4529ZM24.8242 40.8261C24.5241 41.3552 24.0219 41.6559 23.7278 41.483C23.5493 41.3781 23.4745 41.1021 23.5288 40.7675L25.0386 39.8811C25.0839 40.1495 25.0076 40.5029 24.8242 40.8261ZM26.9385 39.582C26.7832 39.8562 26.574 40.0737 26.3493 40.1945C26.2356 40.2557 26.0184 40.343 25.8421 40.2393C25.6643 40.1347 25.5893 39.8598 25.6424 39.5266L27.1538 38.6392C27.1981 38.9072 27.1215 39.2596 26.9385 39.582ZM27.4913 38.4411L31.671 35.9871C31.6746 36.1182 31.6961 36.2397 31.7336 36.3489L27.5383 38.8153C27.5399 38.6824 27.5246 38.5561 27.4913 38.4411ZM33.3572 35.7995C33.2017 36.0737 32.9924 36.2912 32.7679 36.4118C32.6541 36.4729 32.437 36.5599 32.2607 36.4564C32.0863 36.3539 32.0105 36.0851 32.0589 35.7594L33.5737 34.87C33.6133 35.1369 33.5362 35.4839 33.3572 35.7995ZM35.4719 34.5554C35.3164 34.8296 35.107 35.0471 34.8823 35.1679C34.7685 35.2291 34.5512 35.3163 34.3749 35.2126C34.2012 35.1106 34.1253 34.8428 34.1729 34.5182L35.6887 33.6282C35.7273 33.8946 35.6502 34.2407 35.4719 34.5554ZM34.7128 33.7619V28.6128L36.6257 27.4897V32.6387L34.7128 33.7619Z" fill="#0B327D"/>
<path d="M16.9516 19.2719C16.8713 18.6985 16.554 18.2046 16.0639 17.8908L16.1188 17.8695C16.1713 17.8492 16.2074 17.8006 16.2118 17.7445C16.2161 17.6885 16.1879 17.6349 16.1391 17.6068L13.6194 16.1521V14.5903C13.6194 14.2538 13.1957 14 12.634 14C12.0722 14 11.6486 14.2538 11.6486 14.5903V15.0145L10.6377 14.4311C10.5993 14.4089 10.553 14.4054 10.5118 14.4214L6.65649 15.9153C6.60402 15.9357 6.56788 15.9842 6.56357 16.0403C6.55926 16.0964 6.58751 16.15 6.63621 16.1781L7.97506 16.9509V18.9172L0.991992 22.9472C0.367312 23.3076 -0.00221175 23.9519 0.00177105 24.6706C-0.00235791 24.8371 0.00202683 25.4484 0.00202683 25.4715C0.00202683 26.1874 0.372135 26.8285 0.992101 27.1867C1.05996 27.2259 2.17467 27.9534 2.17467 27.9534C3.13726 28.5975 4.25797 28.9582 5.41565 28.9966C5.48442 28.9989 5.55289 29 5.62151 29C6.70827 29 7.77508 28.7148 8.7186 28.1702L14.4861 24.8413C15.6603 24.1637 16.4714 23.0099 16.7117 21.676C16.7117 21.676 16.8302 21.1048 16.8424 21.0725C16.9433 20.8058 17.0065 20.224 16.9995 19.7833C16.997 19.6286 16.9571 19.3112 16.9516 19.2719ZM12.1377 19.3539C12.1601 19.3668 12.1854 19.3734 12.2108 19.3734C12.2286 19.3734 12.2465 19.3702 12.2636 19.3635L12.2659 19.3626V20.9774L10.4389 19.9227V18.3732L12.1377 19.3539ZM15.3536 18.1661V20.6856L14.6775 21.0758V18.4281L15.3536 18.1661ZM14.3852 21.2445L13.4717 21.7717V18.8954L14.3852 18.5414V21.2445ZM13.1794 21.9404L12.5582 22.2989V19.2494L13.1794 19.0086V21.9404ZM12.2659 21.3148V22.2989L8.26737 19.9908V19.0067L12.2659 21.3148ZM8.04817 20.2016L12.339 22.6785C12.3616 22.6915 12.3869 22.6981 12.4121 22.6981C12.4373 22.6981 12.4625 22.6915 12.4852 22.6785L15.5729 20.8965C15.6181 20.8704 15.6459 20.8221 15.6459 20.7699V18.7078C15.7067 18.74 15.7668 18.7731 15.8256 18.8071C16.2553 19.0551 16.5422 19.4553 16.6368 19.9358C16.5342 20.3854 16.2507 20.777 15.8351 21.0168L6.98564 26.1245C6.08388 26.645 5.0732 26.9051 4.06219 26.9051C3.05118 26.905 2.03987 26.6447 1.13822 26.1241C1.13625 26.123 1.13424 26.1219 1.13219 26.1208C0.84883 25.9558 0.626926 25.7204 0.482887 25.4429C0.338702 25.1651 0.340858 24.8375 0.490633 24.5627C0.635987 24.2961 0.853434 24.0733 1.12872 23.9145L7.97513 19.9633V20.0752C7.97509 20.1273 8.00294 20.1755 8.04817 20.2016ZM15.8351 18.093C16.2517 18.3333 16.5344 18.7195 16.6366 19.1752C16.4707 18.9243 16.2463 18.7124 15.9718 18.554C15.8662 18.493 15.7569 18.4345 15.6459 18.3791V18.0528L15.7156 18.0258C15.7574 18.0486 15.797 18.0708 15.8351 18.093ZM11.9409 15.7787C12.1163 15.8807 12.3584 15.9418 12.634 15.9418C12.9096 15.9418 13.1517 15.8807 13.3271 15.7787V17.5093C13.3271 17.6309 13.0571 17.8074 12.634 17.8074C12.2109 17.8074 11.9409 17.6309 11.9409 17.5093V15.7787ZM12.634 15.6496C12.2109 15.6496 11.9409 15.4731 11.9409 15.3516V15.0175C12.1163 15.1194 12.3584 15.1806 12.634 15.1806C12.9096 15.1806 13.1517 15.1194 13.3271 15.0175V15.3516C13.3271 15.4731 13.0571 15.6496 12.634 15.6496ZM12.634 14.2922C13.0571 14.2922 13.3271 14.4687 13.3271 14.5903C13.3271 14.7118 13.0571 14.8883 12.634 14.8883C12.2109 14.8883 11.9409 14.7118 11.9409 14.5903C11.9409 14.4687 12.2109 14.2922 12.634 14.2922ZM10.5522 14.7191L11.6486 15.3519V17.5093C11.6486 17.8458 12.0722 18.0996 12.634 18.0996C13.1958 18.0996 13.6194 17.8458 13.6194 17.5093V16.4895L15.7288 17.7073L12.2232 19.0658L7.04662 16.0776L10.5522 14.7191ZM10.1466 18.2045V19.7541L8.26737 18.6693V17.1197L10.1466 18.2045ZM1.13815 23.2003L7.97506 19.2546V19.6258L0.982528 23.6613C0.723682 23.8107 0.50872 24.0087 0.345462 24.2426C0.454605 23.8073 0.733402 23.4338 1.13815 23.2003ZM0.315499 25.7369C0.482668 25.9956 0.711734 26.2156 0.991626 26.3771C0.993709 26.3783 0.995792 26.3795 0.997948 26.3806C1.9433 26.9249 3.00265 27.1971 4.06211 27.1971C5.12355 27.1971 6.18499 26.9239 7.13173 26.3775L15.9812 21.2698C16.2549 21.1119 16.4798 20.8977 16.6458 20.6471C16.6244 20.778 16.5985 20.8912 16.569 20.9691C16.4317 21.3317 16.1779 21.6281 15.8348 21.8261L6.98579 26.9336C6.08396 27.4542 5.07313 27.7144 4.06201 27.7144C3.0511 27.7143 2.03987 27.4541 1.13826 26.9337C0.687946 26.6735 0.393036 26.2378 0.315499 25.7369ZM6.9271 27.3059C6.9271 27.634 6.79472 27.8517 6.70714 27.8517C6.64155 27.8517 6.54293 27.7208 6.50383 27.5015C6.64681 27.4397 6.78803 27.3726 6.92692 27.2994C6.92696 27.3015 6.9271 27.3037 6.9271 27.3059ZM14.34 24.5883L8.57244 27.9171C7.61668 28.4688 6.52857 28.7409 5.42533 28.7045C4.37661 28.6698 3.36008 28.3569 2.47422 27.7988C2.99374 27.9372 3.5278 28.0065 4.06201 28.0065C4.79678 28.0065 5.5317 27.8753 6.22854 27.6134C6.30122 27.9332 6.48406 28.1439 6.70714 28.1439C6.99916 28.1439 7.21942 27.7837 7.21942 27.306C7.21942 27.2501 7.21591 27.1954 7.20974 27.1419L15.981 22.0793C16.1356 21.99 16.2746 21.8835 16.3966 21.7621C16.1421 22.9525 15.3988 23.9772 14.34 24.5883Z" fill="#0B327D"/>
<path d="M58 14.9684C58 14.9152 57.9711 14.866 57.9241 14.8394L54.7122 13.02C54.6652 12.9933 54.6074 12.9934 54.5605 13.0199L42.4403 19.8756C42.3933 19.9022 42.3644 19.9513 42.3643 20.0046V20.9831L40.4322 22.0634C40.3921 22.0858 40.3652 22.1247 40.3578 22.1685L40.0074 24.2392C40.0027 24.2536 40 24.2687 40 24.2842V26.032C40 26.0852 40.029 26.1343 40.0759 26.1609L43.2876 27.98C43.3111 27.9933 43.3373 28 43.3635 28C43.3897 28 43.4159 27.9933 43.4394 27.98L44.8463 27.1959C44.8723 27.3852 44.9619 27.5417 45.1138 27.6277C45.1924 27.6723 45.2793 27.6935 45.3699 27.6935C45.658 27.6935 45.9829 27.4792 46.1933 27.1215C46.3189 26.9081 46.3836 26.6747 46.3755 26.4644C46.3738 26.4209 46.3682 26.3799 46.3605 26.3402L48.9403 24.879C48.9705 25.0575 49.0593 25.2041 49.2047 25.2864C49.2833 25.331 49.3702 25.3521 49.4608 25.3521C49.7489 25.3521 50.0738 25.1378 50.2843 24.7802C50.3702 24.6342 50.4268 24.479 50.4519 24.3281C50.4963 24.3987 50.5548 24.4576 50.6285 24.4994C50.7071 24.544 50.794 24.5652 50.8846 24.5652C51.1727 24.5652 51.4976 24.3509 51.708 23.9932C51.8337 23.7798 51.8984 23.5464 51.8903 23.3361C51.8886 23.2943 51.8832 23.2548 51.8761 23.2165L52.0423 23.1225C52.0893 23.0958 52.1182 23.0467 52.1182 22.9935V22.019L53.0541 21.4896C53.0541 21.4896 53.9261 21.9808 53.929 21.9824C53.9524 21.9956 53.9785 22.0021 54.0045 22.0021C54.031 22.0021 54.0575 21.9953 54.0812 21.9817L54.3717 21.8146C54.4027 21.998 54.4935 22.1402 54.6351 22.2204C54.7129 22.2646 54.7995 22.2865 54.8912 22.2865C54.9979 22.2865 55.1114 22.2568 55.2256 22.1976C55.4153 22.0993 55.589 21.9276 55.7146 21.7142C55.8027 21.5644 55.8583 21.4103 55.883 21.2636C55.9278 21.3343 55.9863 21.3924 56.0588 21.4334C56.1367 21.4775 56.2233 21.4995 56.315 21.4995C56.4217 21.4995 56.5351 21.4698 56.6494 21.4106C56.8391 21.3123 57.0128 21.1406 57.1384 20.9272C57.2959 20.6594 57.3501 20.3776 57.3071 20.15L57.4726 20.0564C57.5195 20.0297 57.5485 19.9806 57.5485 19.9274V18.9475L57.924 18.7351C57.971 18.7085 57.9999 18.6593 57.9999 18.6061L58 14.9684ZM54.6363 13.3208L57.5446 14.9683L45.7278 21.6518L42.8198 20.0047L54.6363 13.3208ZM42.6679 20.2625L45.576 21.9098V22.6319L42.6679 20.9844V20.2625ZM42.515 21.2417L45.4221 22.8886L43.7195 23.8403L40.8124 22.1937L42.515 21.2417ZM42.4063 27.137L41.109 26.4022V25.8456L42.4063 26.5804V27.137ZM42.6339 26.3654L41.0331 25.4587C40.9861 25.4321 40.9283 25.4321 40.8813 25.4587C40.8344 25.4853 40.8054 25.5345 40.8054 25.5877V25.5938L40.3036 25.2977V24.5421L43.2117 26.1895L43.2117 26.9761L42.7098 26.6799V26.4944C42.7098 26.4412 42.6809 26.392 42.6339 26.3654ZM43.4941 24.4495L40.5606 22.7878L40.6212 22.4292L43.5526 24.0897L43.4941 24.4495ZM43.4428 24.7643L43.2622 25.8742L40.3204 24.2078L40.5075 23.1017L43.4428 24.7643ZM43.8574 24.106L44.2677 23.8767V25.4203L43.58 25.8099L43.8574 24.106ZM40.3036 25.6452L40.8054 25.9414V26.2303L40.3036 25.946V25.6452ZM42.7098 27.309V27.0275L43.2117 27.3236V27.5932L42.7098 27.309ZM45.0209 26.4574C44.9458 26.585 44.8949 26.7157 44.866 26.8424L43.5153 27.5951V26.1904L44.4954 25.6352C44.5424 25.6086 44.5713 25.5595 44.5713 25.5063V23.707L45.576 23.1454V25.9433C45.554 25.9525 45.5319 25.9626 45.5098 25.974C45.3201 26.0723 45.1465 26.244 45.0209 26.4574ZM45.9304 26.9726C45.7291 27.3146 45.4184 27.4565 45.2656 27.3699C45.1126 27.2832 45.0825 26.9483 45.2837 26.6063C45.3797 26.4432 45.5138 26.3087 45.6515 26.2374C45.7193 26.2023 45.8479 26.1521 45.9486 26.2091C46.0494 26.2661 46.0693 26.4006 46.0722 26.4757C46.078 26.6284 46.0264 26.8095 45.9304 26.9726ZM46.1004 25.9512C46.0326 25.9128 45.9581 25.8915 45.8795 25.8865V25.5476L47.4926 24.6353V25.3551L46.2366 26.0665C46.1982 26.0205 46.1532 25.9811 46.1004 25.9512ZM50.0213 24.6313C49.82 24.9733 49.5093 25.1151 49.3564 25.0285C49.2035 24.9419 49.1733 24.607 49.3746 24.2649C49.4706 24.1018 49.6046 23.9674 49.7424 23.896C49.788 23.8724 49.8612 23.8419 49.9349 23.8419C49.9706 23.8419 50.0065 23.8491 50.0394 23.8677C50.1402 23.9248 50.1601 24.0592 50.163 24.1343C50.1689 24.2871 50.1173 24.4682 50.0213 24.6313ZM51.4451 23.8443C51.2438 24.1863 50.9331 24.3281 50.7802 24.2415C50.6273 24.1549 50.5971 23.82 50.7984 23.478C50.8944 23.3149 51.0284 23.1804 51.1662 23.1091C51.2118 23.0854 51.285 23.0549 51.3587 23.0549C51.3944 23.0549 51.4303 23.0621 51.4632 23.0807C51.564 23.1378 51.5839 23.2723 51.5868 23.3473C51.5927 23.5001 51.5411 23.6812 51.4451 23.8443ZM51.8146 22.9074L51.7542 22.9416C51.7153 22.8941 51.6693 22.8535 51.6151 22.8228C51.4468 22.7274 51.237 22.7355 51.0245 22.8456C50.8348 22.9439 50.6612 23.1156 50.5355 23.329C50.4592 23.4587 50.4079 23.5916 50.3793 23.7202L50.3413 23.7417C50.3004 23.6882 50.2505 23.6433 50.1913 23.6098C50.023 23.5144 49.8132 23.5225 49.6007 23.6326C49.411 23.7309 49.2374 23.9026 49.1118 24.116C49.0311 24.2531 48.9782 24.3938 48.9508 24.5291L47.7962 25.1831V24.4635L51.8146 22.1906L51.8146 22.9074ZM53.3578 21.3178L53.8526 21.0379V21.5981L53.3578 21.3178ZM55.4517 21.5653C55.3557 21.7284 55.2217 21.8629 55.0839 21.9342C55.0162 21.9693 54.8876 22.0195 54.7868 21.9625C54.6861 21.9054 54.6662 21.771 54.6633 21.6959C54.6574 21.5432 54.709 21.3621 54.805 21.199C55.0063 20.857 55.3169 20.7151 55.4699 20.8017C55.6228 20.8884 55.6529 21.2233 55.4517 21.5653ZM56.8755 20.7783C56.7795 20.9414 56.6455 21.0758 56.5077 21.1472C56.44 21.1822 56.3114 21.2325 56.2106 21.1755C56.1099 21.1184 56.09 20.984 56.0871 20.9089C56.0812 20.7562 56.1328 20.575 56.2288 20.4119C56.4301 20.07 56.7407 19.928 56.8937 20.0147C57.0466 20.1014 57.0767 20.4363 56.8755 20.7783ZM57.245 19.8414L57.1845 19.8757C57.1459 19.8284 57.1 19.7877 57.0455 19.7568C56.7167 19.5706 56.2426 19.793 55.9659 20.263C55.8916 20.3894 55.8392 20.5227 55.81 20.6541L55.7718 20.6757C55.7313 20.6225 55.6814 20.5776 55.6217 20.5438C55.293 20.3576 54.8188 20.58 54.5422 21.05C54.4635 21.1838 54.4087 21.3254 54.3808 21.4642L54.1563 21.5933V20.8662L57.245 19.1192L57.245 19.8414ZM45.8795 25.2038V21.9098L57.6964 15.2261V18.52L45.8795 25.2038Z" fill="#0B327D"/>
<path d="M39.9904 14.4464C39.974 14.3912 39.9382 14.3463 39.8917 14.3229L31.5918 10.1456L32.4055 9.60528C33.2008 9.07754 33.9007 8.3986 34.4876 7.58705L38.1911 7.69917C38.1927 7.69922 38.1943 7.69922 38.1959 7.69922C38.2302 7.69922 38.2639 7.68794 38.2929 7.66673L39.0072 7.14383C39.0691 7.09855 39.101 7.01476 39.0881 6.9317C39.0752 6.84864 39.0198 6.78289 38.9481 6.76511L35.4691 5.90512L36.0577 4.76034C36.1771 4.52815 36.2055 4.25994 36.1375 4.00509C36.0859 3.81157 35.983 3.64342 35.8463 3.52356L36.9359 0.282884C36.9633 0.201225 36.9434 0.108547 36.886 0.0510579C36.8286 -0.00637865 36.7461 -0.0163064 36.6795 0.0261083L34.634 1.33338C34.6115 1.34772 34.592 1.36742 34.5767 1.39118L32.8648 4.04298L31.9177 2.40851C31.8633 2.31458 31.7538 2.28771 31.6708 2.34805L31.0538 2.79627C30.9959 2.83837 30.9636 2.91447 30.9705 2.9929L31.192 5.52256C30.2247 6.16325 29.0559 6.93794 27.8494 7.73909L23.6401 3.4512C23.5889 3.39912 23.5165 3.38467 23.4532 3.41383C22.9063 3.66546 22.6379 4.36031 22.8422 4.9958L23.6254 7.43304L22.3593 8.40151C22.1999 8.51321 22.1034 8.72554 22.0948 8.98762C22.087 9.2236 22.1486 9.48475 22.2681 9.72296C22.3877 9.96118 22.5535 10.1531 22.735 10.2633C22.845 10.3301 22.957 10.3637 23.0627 10.3637C23.1547 10.3637 23.2419 10.3382 23.3188 10.2871C23.3232 10.2842 24.2924 9.50892 24.2924 9.50892L24.4504 10.0005C23.1341 10.8787 21.9775 11.6542 21.2398 12.1564C20.422 12.7132 19.7753 13.5076 19.3696 14.4538C19.2305 14.7781 19.1187 15.1196 19.0371 15.4688C18.9369 15.8991 19.0423 16.3418 19.3191 16.6529C19.5208 16.8796 19.781 17 20.0513 17C20.1515 17 20.2531 16.9834 20.3536 16.9496C21.0238 16.7231 21.6876 16.4486 22.3262 16.1339C22.9655 15.8191 23.5963 15.4559 24.201 15.0544L27.5001 12.8627L30.4179 13.4992L29.8507 13.9223C29.6902 14.0337 29.593 14.2468 29.5844 14.5099C29.5766 14.7459 29.6381 15.007 29.7577 15.2452C29.9593 15.6468 30.2725 15.8864 30.5529 15.8864C30.6431 15.8864 30.7298 15.8616 30.8084 15.8095C30.8128 15.8065 32.9951 14.0614 32.9951 14.0614L38.7001 15.3058C38.7756 15.3223 38.8511 15.3303 38.9258 15.3303C39.3582 15.3303 39.7631 15.0619 39.9774 14.6135C40.0021 14.5624 40.0067 14.5017 39.9904 14.4464ZM38.4413 7.06518L38.1454 7.28178L33.6768 7.14653C33.9839 6.87432 34.5108 6.5113 35.0067 6.21616L38.4413 7.06518ZM34.8436 1.67508L36.4185 0.668567L35.2918 4.01959L32.0629 5.98262L34.8436 1.67508ZM31.7147 2.80791L32.6358 4.39763L32.4452 4.69287C32.177 4.87038 31.8711 5.07284 31.5354 5.2952L31.3413 3.07924L31.7147 2.80791ZM23.1607 9.90785L23.1339 9.92932C23.0784 9.9629 22.9951 9.95105 22.9039 9.89564C22.7835 9.82261 22.6659 9.68388 22.5812 9.5151C22.4965 9.34633 22.4509 9.15983 22.456 9.00337C22.46 8.88184 22.4941 8.79104 22.5495 8.75424C22.5709 8.7401 22.5967 8.73303 22.6258 8.73303C22.672 8.73303 22.7264 8.75086 22.7838 8.78573C22.9041 8.85876 23.0217 8.9975 23.1064 9.16627C23.264 9.48017 23.2629 9.80041 23.1607 9.90785ZM23.5901 9.56432C23.577 9.37013 23.5209 9.16045 23.4195 8.95836C23.3044 8.72897 23.1462 8.54331 22.9725 8.43134L23.7542 7.83374L24.1631 9.10608L23.5901 9.56432ZM23.1811 4.85156C23.0581 4.46853 23.1932 4.05312 23.4904 3.85419L27.5193 7.95828C26.5909 8.57496 25.6493 9.2012 24.7679 9.78893L23.1811 4.85156ZM19.6452 16.4276C19.6197 16.4057 19.5952 16.3818 19.5718 16.3556C19.3902 16.1513 19.3208 15.8608 19.3861 15.5783C19.4457 15.5315 19.5154 15.5059 19.5868 15.5059C19.7941 15.5059 19.9628 15.7139 19.9628 15.9697C19.9627 16.1995 19.8243 16.3926 19.6452 16.4276ZM24.0204 14.6943C23.4281 15.0875 22.8103 15.4433 22.184 15.7517C21.5585 16.06 20.9084 16.3288 20.2519 16.5506C20.2066 16.5658 20.1609 16.5757 20.1154 16.5804C20.2444 16.4215 20.3242 16.2057 20.3242 15.9697C20.3242 15.4846 19.9934 15.09 19.5868 15.09C19.565 15.09 19.5434 15.0912 19.5218 15.0934C19.5728 14.9384 19.6302 14.7861 19.6938 14.6377C19.7042 14.6134 19.7154 14.5897 19.7261 14.5657C19.9223 14.8352 20.3043 14.971 20.865 14.971C21.008 14.971 21.1628 14.9621 21.329 14.9444C21.4284 14.9338 21.5015 14.8326 21.4923 14.7182C21.4831 14.6038 21.3948 14.5209 21.2956 14.5303C20.3972 14.6263 20.1029 14.4298 20.0074 14.3044C19.9536 14.2339 19.9473 14.1637 19.9487 14.1253C20.3176 13.476 20.8199 12.9254 21.4239 12.5142C23.5163 11.0896 28.9822 7.46516 31.9044 5.53046L31.2973 6.47081C31.247 6.54877 31.2502 6.65647 31.3052 6.73018C31.3405 6.77748 31.3911 6.80274 31.4425 6.80274C31.4712 6.80274 31.5001 6.79489 31.5268 6.77862L35.5205 4.3508C35.559 4.32741 35.5889 4.28879 35.6046 4.24201L35.7055 3.94193C35.7438 3.99594 35.7736 4.05842 35.7919 4.12693C35.8296 4.26857 35.8135 4.41827 35.7465 4.54858L35.0965 5.81291L35.0194 5.79389C34.9788 5.78391 34.9363 5.7903 34.8993 5.81203C34.6356 5.96687 33.3097 6.76407 33.099 7.24888C33.0714 7.3125 33.0739 7.38792 33.1056 7.44884C33.1375 7.50981 33.1941 7.54786 33.2559 7.54973L34.0205 7.57286C33.5017 8.23596 32.8992 8.79748 32.2248 9.24507L31.1805 9.93852L31.0603 9.87802C31.0203 9.8579 30.9753 9.85515 30.9337 9.87017C30.8179 9.91201 28.0836 10.9113 26.8323 12.3886C26.7859 12.4435 26.7694 12.5232 26.7894 12.5962C26.8094 12.6693 26.8627 12.7237 26.9281 12.738L26.9561 12.7441L24.0204 14.6943ZM30.6498 15.431L30.6247 15.451C30.4995 15.5287 30.238 15.3704 30.0709 15.0374C29.9862 14.8686 29.9406 14.6821 29.9457 14.5257C29.9497 14.4041 29.9838 14.3133 30.0392 14.2765C30.0609 14.2622 30.0868 14.2551 30.1158 14.2551C30.2527 14.2551 30.4571 14.4116 30.5961 14.6886C30.754 15.0032 30.7527 15.3242 30.6498 15.431ZM31.0798 15.087C31.0668 14.8927 31.0107 14.6829 30.9091 14.4806C30.7909 14.2451 30.6342 14.0656 30.4683 13.9572L30.935 13.612L32.4978 13.9529L31.0798 15.087ZM38.7676 14.8974L27.3461 12.406C28.5116 11.2638 30.589 10.439 30.9785 10.2908L39.5436 14.6016C39.3501 14.8444 39.0589 14.961 38.7676 14.8974Z" fill="#0B327D"/>
</svg>
