<svg width="71" height="56" viewBox="0 0 71 56" fill="none" xmlns="http://www.w3.org/2000/svg">
<path d="M3.85846 32.9507C3.68051 32.9507 3.50985 33.0247 3.38402 33.1566C3.25819 33.2884 3.1875 33.4672 3.1875 33.6536V34.3918C3.1875 34.5782 3.25819 34.757 3.38402 34.8888C3.50985 35.0207 3.68051 35.0947 3.85846 35.0947C4.03641 35.0947 4.20707 35.0207 4.3329 34.8888C4.45873 34.757 4.52942 34.5782 4.52942 34.3918V33.6536C4.52942 33.4672 4.45873 33.2884 4.3329 33.1566C4.20707 33.0247 4.03641 32.9507 3.85846 32.9507Z" fill="#E98C00"/>
<path d="M3.85846 35.9146C3.68051 35.9146 3.50985 35.9886 3.38402 36.1205C3.25819 36.2524 3.1875 36.4313 3.1875 36.6178V44.353C3.1875 44.5395 3.25819 44.7183 3.38402 44.8502C3.50985 44.9821 3.68051 45.0562 3.85846 45.0562C4.03641 45.0562 4.20707 44.9821 4.3329 44.8502C4.45873 44.7183 4.52942 44.5395 4.52942 44.353V36.6178C4.52942 36.4313 4.45873 36.2524 4.3329 36.1205C4.20707 35.9886 4.03641 35.9146 3.85846 35.9146Z" fill="#E98C00"/>
<path d="M54.3103 25.1263H49.9342V1.99204C49.9392 1.90516 49.9265 1.81817 49.8972 1.73674C49.8679 1.65531 49.8225 1.58127 49.7641 1.51944C49.7056 1.45761 49.6354 1.40938 49.558 1.3779C49.4805 1.34641 49.3976 1.33238 49.3147 1.33672H24.8903C24.8024 1.33231 24.7145 1.34665 24.6319 1.37888C24.5494 1.41111 24.474 1.46056 24.4102 1.52422L19.8251 6.42852C19.7637 6.49092 19.7146 6.56541 19.6807 6.64772C19.6468 6.73003 19.6287 6.81854 19.6275 6.90818V25.1263H5.37994C5.29228 25.1249 5.20523 25.1418 5.1238 25.1758C5.04238 25.2099 4.9682 25.2605 4.90555 25.3248L0.345217 30.1198C0.28574 30.1855 0.239452 30.263 0.209099 30.3477C0.178746 30.4325 0.164947 30.5228 0.168521 30.6132V54.3545C0.164947 54.4421 0.178881 54.5296 0.20943 54.6112C0.239978 54.6928 0.286466 54.7669 0.345914 54.8286C0.405361 54.8903 0.476456 54.9383 0.554641 54.9695C0.632826 55.0007 0.716375 55.0145 0.799931 55.0099H49.7553C49.842 55.0142 49.9286 55.0003 50.0101 54.9691C50.0915 54.9378 50.1662 54.8898 50.2297 54.8278L54.79 50.041C54.8494 49.977 54.8957 49.9009 54.9261 49.8175C54.9565 49.7341 54.9703 49.6451 54.9667 49.5558V25.8143C54.9667 25.6318 54.8976 25.4568 54.7745 25.3278C54.6513 25.1988 54.4844 25.1263 54.3103 25.1263ZM47.6948 2.743L44.4571 6.14152H34.1426L37.3802 2.743H47.6948ZM48.5922 3.68955V25.4421L45.4609 28.8348V7.08221L48.5922 3.68955ZM35.2841 7.5478V10.4776H29.8043V7.5478H35.2841ZM25.1727 2.743H35.4825L32.2448 6.14152H22.0121L25.1727 2.743ZM20.9695 7.5478H28.4623V11.2203C28.4589 11.3085 28.4729 11.3964 28.5036 11.4786C28.5342 11.5608 28.5808 11.6354 28.6404 11.6977C28.6999 11.7601 28.7712 11.8088 28.8496 11.8409C28.9281 11.8729 29.012 11.8875 29.0962 11.8838H35.9768C36.0617 11.8878 36.1465 11.8735 36.2259 11.8418C36.3054 11.8101 36.3778 11.7617 36.4386 11.6995C36.4995 11.6373 36.5475 11.5627 36.5798 11.4803C36.612 11.3978 36.6278 11.3094 36.6261 11.2203V7.5478H44.1189V29.9312H36.4024V24.0827C36.4046 23.9428 36.3663 23.8055 36.2925 23.6889C36.2187 23.5723 36.113 23.4819 35.9893 23.4295C35.8655 23.3771 35.7295 23.3652 35.5991 23.3954C35.4688 23.4255 35.3502 23.4964 35.2591 23.5985L34.6887 24.2314L34.0898 23.5851C34.0279 23.5175 33.9537 23.4635 33.8716 23.4263C33.7895 23.3891 33.7012 23.3695 33.6118 23.3685H33.61C33.5201 23.3696 33.4314 23.3896 33.349 23.4272C33.2666 23.4648 33.1922 23.5193 33.1302 23.5874L32.5365 24.2312L31.9429 23.586C31.8808 23.518 31.8064 23.4638 31.724 23.4264C31.6416 23.3891 31.5529 23.3694 31.4631 23.3685H31.4613C31.3718 23.3695 31.2833 23.3892 31.2011 23.4263C31.1188 23.4634 31.0444 23.5173 30.9822 23.5848L30.3822 24.2284L29.8092 23.5971C29.7203 23.4955 29.6038 23.4248 29.4753 23.3948C29.3469 23.3647 29.2128 23.3766 29.091 23.429C28.9683 23.4822 28.8639 23.5732 28.7916 23.6899C28.7193 23.8066 28.6825 23.9435 28.686 24.0827V29.9312H20.9695V7.5478ZM34.8368 31.3374H40.3166V34.3844H34.8368V31.3374ZM30.028 29.9312V25.8226C30.1321 25.9017 30.2572 25.9451 30.3858 25.9467C30.4745 25.9461 30.5622 25.9271 30.6438 25.8909C30.7255 25.8547 30.7995 25.802 30.8617 25.7357L31.4627 25.0892L32.0568 25.7337C32.1192 25.8013 32.194 25.855 32.2766 25.8917C32.3592 25.9284 32.448 25.9473 32.5377 25.9473C32.6274 25.9473 32.7162 25.9284 32.7989 25.8917C32.8815 25.855 32.9562 25.8013 33.0186 25.7337L33.6146 25.0892L34.2197 25.7357C34.2815 25.8022 34.3554 25.855 34.4369 25.8912C34.5185 25.9274 34.6061 25.9463 34.6946 25.9467C34.8258 25.9452 34.9533 25.9019 35.0604 25.8226V29.9312H30.028ZM19.6275 26.5326V29.9312H14.6321L17.8697 26.5326H19.6275ZM15.8252 31.3374V34.3844H10.2335V31.3374H15.8252ZM5.65751 26.5326H15.972L12.7343 29.9312H2.41983L5.65751 26.5326ZM15.6015 53.6036H10.4572V49.6449C10.5725 49.7246 10.7073 49.7678 10.8454 49.7691C11.0292 49.7693 11.2056 49.6935 11.3364 49.5582L11.945 48.9116L12.5429 49.5562C12.6055 49.6237 12.6805 49.6774 12.7633 49.7141C12.8461 49.7507 12.9351 49.7696 13.025 49.7696C13.1149 49.7696 13.2038 49.7507 13.2866 49.7141C13.3695 49.6774 13.4444 49.6237 13.5071 49.5562L14.1036 48.9116L14.7089 49.5582C14.8427 49.6952 15.0228 49.7711 15.2098 49.7691C15.349 49.7677 15.4848 49.7246 15.6013 49.6449L15.6015 53.6036ZM40.0929 53.6036H35.0604V49.6449C35.1625 49.7241 35.2857 49.7676 35.4127 49.7691C35.501 49.769 35.5884 49.7503 35.6697 49.7141C35.7509 49.6778 35.8244 49.6248 35.8857 49.5582L36.4852 48.9116L37.0785 49.5562C37.1408 49.6237 37.2155 49.6774 37.298 49.714C37.3806 49.7507 37.4693 49.7696 37.559 49.7696C37.6486 49.7696 37.7373 49.7507 37.8199 49.714C37.9024 49.6774 37.9771 49.6237 38.0395 49.5562L38.6353 48.9116L39.2404 49.5582C39.3026 49.6259 39.3773 49.6796 39.46 49.7159C39.5427 49.7521 39.6317 49.7703 39.7213 49.7691C39.8543 49.7677 39.9837 49.7244 40.0929 49.6449V53.6036ZM49.0396 53.6036H41.4349V47.9049C41.4356 47.7646 41.3961 47.6274 41.3214 47.511C41.2467 47.3947 41.1403 47.3045 41.0161 47.2523C40.8919 47.2001 40.7556 47.1882 40.6248 47.2183C40.4941 47.2483 40.375 47.3189 40.283 47.4207L39.7108 48.0536L39.1113 47.3909C38.9873 47.2499 38.8151 47.1662 38.6324 47.1581H38.6306C38.5398 47.1623 38.4507 47.1853 38.3683 47.2256C38.286 47.266 38.2121 47.323 38.1508 47.3933L37.5571 48.0454L36.9635 47.3879C36.902 47.3183 36.8279 47.2622 36.7456 47.2227C36.6632 47.1833 36.5742 47.1613 36.4837 47.1581H36.4819C36.2992 47.1663 36.127 47.25 36.0029 47.3907L35.403 48.0426L34.8298 47.4154C34.742 47.314 34.6264 47.2437 34.4989 47.2139C34.3713 47.1842 34.2382 47.1965 34.1176 47.2492C33.9954 47.3032 33.8918 47.395 33.8205 47.5122C33.7492 47.6294 33.7136 47.7666 33.7184 47.9055V53.6036H26.002V40.1267C26.002 39.9402 25.9313 39.7614 25.8054 39.6295C25.6796 39.4976 25.5089 39.4236 25.331 39.4236C25.153 39.4236 24.9823 39.4976 24.8565 39.6295C24.7307 39.7614 24.66 39.9402 24.66 40.1267V53.6036H16.9435V47.9049C16.9398 47.763 16.8963 47.6254 16.8184 47.5093C16.7405 47.3933 16.6317 47.3038 16.5056 47.2521C16.3795 47.2005 16.2416 47.1889 16.1093 47.2189C15.9769 47.2489 15.8559 47.3191 15.7614 47.4207L15.1842 48.0536L14.5822 47.3909C14.4575 47.25 14.2846 47.1664 14.1014 47.1582H14.0996C14.0088 47.1624 13.9196 47.1854 13.8373 47.2257C13.755 47.2661 13.6811 47.3231 13.6198 47.3934L13.0261 48.0455L12.4325 47.3881C12.371 47.3184 12.2969 47.2623 12.2145 47.2228C12.1322 47.1834 12.0432 47.1614 11.9527 47.1582H11.9509C11.7682 47.1665 11.5959 47.2501 11.4718 47.3909L10.872 48.0427L10.2988 47.4155C10.2038 47.3138 10.0823 47.2437 9.94943 47.214C9.8166 47.1843 9.67836 47.1964 9.55202 47.2486C9.42568 47.3008 9.31685 47.391 9.23915 47.5077C9.16144 47.6244 9.11832 47.7626 9.11517 47.9049V53.6036H1.51052V31.3374H8.8915V35.0425C8.89512 35.2362 8.96884 35.4213 9.09774 35.5602C9.22663 35.6991 9.40108 35.7815 9.58576 35.7907H16.4663C16.6517 35.7817 16.8269 35.6996 16.9569 35.5608C17.0869 35.4221 17.162 35.2369 17.1671 35.0425V31.3374H24.66V35.4391C24.66 35.6256 24.7307 35.8044 24.8565 35.9363C24.9823 36.0682 25.153 36.1422 25.331 36.1422C25.5089 36.1422 25.6796 36.0682 25.8054 35.9363C25.9313 35.8044 26.002 35.6256 26.002 35.4391V31.3374H33.4948V35.0425C33.4948 35.4309 33.7463 35.7907 34.1169 35.7907H40.9974C41.368 35.7907 41.6586 35.4309 41.6586 35.0425V31.3374H49.0396V53.6036ZM49.4777 29.9312L46.1376 29.9273L49.4636 26.5326H52.701L49.4777 29.9312ZM53.6247 49.2644L50.3816 52.6106V30.9045L53.6247 27.5529V49.2644Z" fill="#E98C00"/>
<circle cx="54.7385" cy="16.8889" r="15.8889" fill="#F0F8F7"/>
<path d="M62.8398 3.09714C56.6555 -0.791095 48.7375 0.228518 43.6368 5.57C38.5362 10.9115 37.5625 19.2034 41.2754 25.6797L62.8398 3.09714Z" fill="#E98C00"/>
<path d="M46.6367 31.294C52.821 35.1822 60.7391 34.1626 65.8397 28.8212C70.9404 23.4798 71.914 15.1881 68.2011 8.71191L46.6367 31.294Z" fill="#E98C00"/>
</svg>
