<svg width="51" height="57" viewBox="0 0 51 57" fill="none" xmlns="http://www.w3.org/2000/svg">
<path d="M26.1729 31.1081C26.0658 31.0853 25.9559 31.0811 25.8474 31.0971C24.7602 30.9725 23.9401 30.0667 23.9382 28.9893C23.9382 28.473 23.513 28.0544 22.9887 28.0544C22.4643 28.0544 22.0392 28.473 22.0392 28.9893C22.0419 30.7885 23.2641 32.3644 25.0259 32.8406V33.7756C25.0259 34.2919 25.451 34.7105 25.9754 34.7105C26.4998 34.7105 26.9249 34.2919 26.9249 33.7756V32.8972C28.9584 32.4781 30.3405 30.6132 30.1268 28.5785C29.9126 26.5437 28.1716 24.9975 26.0941 24.997C24.9035 24.997 23.9382 24.0465 23.9382 22.8742C23.9382 21.7018 24.9035 20.7513 26.0941 20.7513C27.2847 20.7513 28.25 21.7018 28.25 22.8742C28.25 23.3905 28.6751 23.8091 29.1995 23.8091C29.7239 23.8091 30.149 23.3905 30.149 22.8742C30.1462 20.9851 28.8022 19.3557 26.9249 18.9659V18.1149C26.9249 17.5986 26.4998 17.1799 25.9754 17.1799C25.451 17.1799 25.0259 17.5986 25.0259 18.1149V19.0229C23.0666 19.5498 21.8055 21.4229 22.0753 23.4051C22.3452 25.3874 24.0629 26.867 26.0941 26.8665C27.2689 26.8665 28.2273 27.7928 28.2486 28.9492C28.2704 30.1056 27.3468 31.0661 26.1729 31.1081Z" fill="#E98C00"/>
<path d="M12.3242 26.0037C12.3242 33.4917 18.4887 39.5616 26.0932 39.5616C33.6977 39.5616 39.8621 33.4917 39.8621 26.0037C39.8621 18.5158 33.6977 12.4458 26.0932 12.4458C18.4924 12.454 12.333 18.5194 12.3242 26.0037ZM26.0932 14.3157C32.6489 14.3157 37.9631 19.5484 37.9631 26.0037C37.9631 32.459 32.6489 37.6917 26.0932 37.6917C19.5374 37.6917 14.2233 32.459 14.2233 26.0037C14.2307 19.5516 19.5407 14.323 26.0932 14.3157Z" fill="#E98C00"/>
<path d="M44.5429 41.8668L37.1049 45.3272C36.0779 43.4463 34.1079 42.2493 31.94 42.1891L25.0736 42.0033C23.9864 41.9727 22.9196 41.7015 21.9529 41.2098L21.2542 40.8533C17.6768 39.0171 13.4128 39.0217 9.83911 40.8651L9.88269 39.3066C9.89706 38.7902 9.48396 38.3602 8.95959 38.346L1.43021 38.142C0.905838 38.1278 0.46956 38.5346 0.455187 39.0509L0.000363945 55.3206C-0.0140086 55.8369 0.399088 56.267 0.923456 56.2811L8.45284 56.4852H8.47881C8.99344 56.4852 9.41442 56.0821 9.42833 55.5758L9.45012 54.7974L11.4062 53.7661C12.174 53.3593 13.0716 53.2626 13.9103 53.4963L25.591 56.7244C25.6114 56.7303 25.6318 56.7349 25.6527 56.7395C26.497 56.9134 27.3575 57.0006 28.2198 57.0001C30.0465 57.0011 31.8519 56.6135 33.5122 55.8629C33.553 55.8447 33.5924 55.8232 33.6299 55.799L50.566 45.0122C50.9879 44.7433 51.1242 44.1978 50.8771 43.7668C49.6197 41.57 46.8309 40.7332 44.5429 41.8668ZM1.9249 54.4377L2.32733 40.037L7.95815 40.1895L7.55572 54.5906L1.9249 54.4377ZM32.6568 54.193C30.5941 55.1097 28.2903 55.3626 26.0732 54.9166L14.424 51.6967C13.1128 51.3319 11.7094 51.483 10.51 52.1181L9.51039 52.6453L9.77791 43.0706C12.9454 40.9962 17.0078 40.783 20.3812 42.5137L21.0799 42.8702C22.3011 43.4911 23.6479 43.8335 25.0217 43.8727L31.8885 44.0585C33.8172 44.1133 35.4553 45.4656 35.8466 47.3264L25.6184 47.0483C25.094 47.0342 24.6577 47.4414 24.6429 47.9573C24.6285 48.4736 25.0421 48.9037 25.566 48.9178L36.8536 49.2237H36.88C37.3942 49.2232 37.8147 48.8201 37.8286 48.3143C37.8402 47.908 37.8096 47.5012 37.7368 47.1013L45.3659 43.5518C45.3733 43.5486 45.3807 43.5449 45.3881 43.5413C46.4702 43.0021 47.7786 43.1825 48.6688 43.9937L32.6568 54.193Z" fill="#F0F8F7"/>
<path d="M27.0436 9.81714V0.934965C27.0436 0.418634 26.6184 0 26.0941 0C25.5697 0 25.1445 0.418634 25.1445 0.934965V9.81714C25.1445 10.3335 25.5697 10.7521 26.0941 10.7521C26.6184 10.7521 27.0436 10.3335 27.0436 9.81714Z" fill="#F0F8F7"/>
<path d="M34.1608 9.81711V5.60977C34.1608 5.09344 33.7356 4.6748 33.2112 4.6748C32.6869 4.6748 32.2617 5.09344 32.2617 5.60977V9.81711C32.2617 10.3334 32.6869 10.7521 33.2112 10.7521C33.7356 10.7521 34.1608 10.3334 34.1608 9.81711Z" fill="#F0F8F7"/>
<path d="M19.9186 9.81711V5.60977C19.9186 5.09344 19.4934 4.6748 18.9691 4.6748C18.4447 4.6748 18.0195 5.09344 18.0195 5.60977V9.81711C18.0195 10.3334 18.4447 10.7521 18.9691 10.7521C19.4934 10.7521 19.9186 10.3334 19.9186 9.81711Z" fill="#F0F8F7"/>
</svg>
