<svg width="54" height="60" viewBox="0 0 54 60" fill="none" xmlns="http://www.w3.org/2000/svg">
<path d="M43.2781 26.7889C43.0589 26.5698 42.7548 26.4456 42.4447 26.4456C42.1346 26.4456 41.8304 26.5698 41.6111 26.7889C41.3918 27.0069 41.2656 27.3092 41.2656 27.6174C41.2656 27.9256 41.3917 28.2268 41.6111 28.4459C41.8304 28.6639 42.1346 28.7893 42.4447 28.7893C42.7548 28.7893 43.0589 28.6639 43.2781 28.4459C43.4974 28.228 43.6237 27.9256 43.6237 27.6174C43.6237 27.3081 43.4975 27.0069 43.2781 26.7889Z" fill="#F0F8F7"/>
<path d="M26.0557 36.3286H18.0462C17.3952 36.3286 16.8672 36.8533 16.8672 37.5005C16.8672 38.1477 17.3952 38.6724 18.0462 38.6724H26.0557C26.7067 38.6724 27.2347 38.1477 27.2347 37.5005C27.2347 36.8533 26.7067 36.3286 26.0557 36.3286Z" fill="#E88C01"/>
<path d="M26.8837 27.5304C26.6644 27.3124 26.3602 27.187 26.0501 27.187C25.74 27.187 25.4359 27.3124 25.2166 27.5304C24.9974 27.7483 24.8711 28.0507 24.8711 28.3589C24.8711 28.6671 24.9973 28.9694 25.2166 29.1874C25.4359 29.4054 25.74 29.5308 26.0501 29.5308C26.3613 29.5308 26.6644 29.4054 26.8837 29.1874C27.1029 28.9694 27.2292 28.6671 27.2292 28.3589C27.2292 28.0507 27.103 27.7483 26.8837 27.5304Z" fill="#F0F8F7"/>
<path d="M20.511 27.1873H8.15951C7.50844 27.1873 6.98047 27.7119 6.98047 28.3591C6.98047 29.0064 7.50844 29.531 8.15951 29.531H20.511C21.1621 29.531 21.69 29.0064 21.69 28.3591C21.69 27.7119 21.1621 27.1873 20.511 27.1873Z" fill="#E88C01"/>
<path d="M35.4554 21.0938H8.15951C7.50844 21.0938 6.98047 21.6184 6.98047 22.2656C6.98047 22.9129 7.50844 23.4375 8.15951 23.4375H35.4554C36.1065 23.4375 36.6345 22.9129 36.6345 22.2656C36.6345 21.6184 36.1065 21.0938 35.4554 21.0938Z" fill="#E88C01"/>
<path d="M35.4564 14.9998H8.15951C7.50844 14.9998 6.98047 15.5244 6.98047 16.1716C6.98047 16.8189 7.50844 17.3435 8.15951 17.3435H35.4564C36.1075 17.3435 36.6354 16.8189 36.6354 16.1716C36.6354 15.5244 36.1075 14.9998 35.4564 14.9998Z" fill="#E88C01"/>
<path d="M35.4554 8.90625H8.15951C7.50844 8.90625 6.98047 9.4309 6.98047 10.0781C6.98047 10.7254 7.50844 11.25 8.15951 11.25H35.4554C36.1065 11.25 36.6345 10.7254 36.6345 10.0781C36.6345 9.4309 36.1065 8.90625 35.4554 8.90625Z" fill="#E88C01"/>
<path d="M50.4629 6.32812H43.6245V3.51562C43.6245 1.57711 42.0377 0 40.0873 0H3.53712C1.58675 0 0 1.57711 0 3.51562V50.1562C0 52.0948 1.58675 53.6719 3.53712 53.6719H10.3755V56.4844C10.3755 58.4229 11.9623 60 13.9127 60H50.4629C52.4132 60 54 58.4229 54 56.4844V9.84375C54 7.90523 52.4132 6.32812 50.4629 6.32812ZM51.6419 56.4844C51.6419 57.1305 51.113 57.6562 50.4629 57.6562H13.9127C13.2625 57.6562 12.7336 57.1305 12.7336 56.4844V53.6719H33.9549C33.9549 53.6719 33.9557 53.6719 33.9561 53.6719C34.263 53.6719 34.5645 53.5527 34.79 53.3286L43.2791 44.8911C43.5045 44.6671 43.6214 44.3674 43.6216 44.0626C43.6216 44.0626 43.6235 44.0625 43.6245 44.0625V32.7735C43.6245 32.1262 43.0965 31.6016 42.4454 31.6016C41.7943 31.6016 41.2664 32.1262 41.2664 32.7735V42.8906H35.5888C34.0385 42.8906 32.7773 44.1442 32.7773 45.6851V51.3281H3.53712C2.887 51.3281 2.35808 50.8024 2.35808 50.1562V3.51562C2.35808 2.86945 2.887 2.34375 3.53712 2.34375H40.0873C40.7375 2.34375 41.2664 2.86945 41.2664 3.51562V22.2656C41.2664 22.9129 41.7943 23.4375 42.4454 23.4375C43.0965 23.4375 43.6245 22.9129 43.6245 22.2656V8.67188H50.4629C51.113 8.67188 51.6419 9.19758 51.6419 9.84375V56.4844ZM35.1354 49.6709V45.6851C35.1354 45.4365 35.3389 45.2344 35.5888 45.2344H39.599L35.1354 49.6709Z" fill="#F0F8F7"/>
<path d="M10.6117 33.2812C8.27122 33.2812 6.36719 35.1737 6.36719 37.5C6.36719 39.8263 8.27122 41.7187 10.6117 41.7187C12.9522 41.7187 14.8563 39.8263 14.8563 37.5C14.8563 35.1737 12.9522 33.2812 10.6117 33.2812ZM10.6117 39.375C9.57158 39.375 8.72527 38.5338 8.72527 37.5C8.72527 36.4662 9.57158 35.625 10.6117 35.625C11.6519 35.625 12.4982 36.4662 12.4982 37.5C12.4982 38.5338 11.6519 39.375 10.6117 39.375Z" fill="#E88C01"/>
</svg>
