<svg width="54" height="60" viewBox="0 0 54 60" fill="none" xmlns="http://www.w3.org/2000/svg">
<path d="M36.3792 16.1489H7.25028C6.75607 16.1489 6.35547 16.5441 6.35547 17.0316C6.35547 17.5191 6.75607 17.9142 7.25028 17.9142H36.3793C36.8735 17.9142 37.2741 17.5191 37.2741 17.0316C37.2741 16.5441 36.8734 16.1489 36.3792 16.1489Z" fill="#E88C01"/>
<path d="M7.25028 11.7914H21.8147C22.3089 11.7914 22.7095 11.3963 22.7095 10.9088C22.7095 10.4213 22.3089 10.0261 21.8147 10.0261H7.25028C6.75607 10.0261 6.35547 10.4213 6.35547 10.9088C6.35547 11.3964 6.75607 11.7914 7.25028 11.7914Z" fill="#E88C01"/>
<path d="M36.3792 21.5737H7.25028C6.75607 21.5737 6.35547 21.9689 6.35547 22.4564C6.35547 22.9439 6.75607 23.339 7.25028 23.339H36.3793C36.8735 23.339 37.2741 22.9439 37.2741 22.4564C37.274 21.9689 36.8734 21.5737 36.3792 21.5737Z" fill="#E88C01"/>
<path d="M13.8865 53.8675H4.56448C3.03444 53.8675 1.78951 52.6396 1.78951 51.1303V4.50247C1.78951 2.99321 3.03444 1.7652 4.56448 1.7652H31.4203C31.5071 1.7652 31.5925 1.77305 31.677 1.7843V7.28908C31.677 9.77182 33.7246 11.7915 36.2414 11.7915H41.8219C41.8334 11.875 41.8413 11.9592 41.8413 12.0448V27.0754C41.8413 27.5629 42.2419 27.9581 42.7361 27.9581C43.2303 27.9581 43.6309 27.5629 43.6309 27.0754V12.0449C43.6309 11.0767 43.2486 10.1664 42.5546 9.48166L34.0187 1.06172C33.3246 0.37711 32.4019 0 31.4203 0H4.56448C2.04755 0 0 2.01985 0 4.50247V51.1303C0 53.6129 2.04767 55.6327 4.56448 55.6327H13.8865C14.3807 55.6327 14.7813 55.2375 14.7813 54.75C14.7813 54.2625 14.3807 53.8675 13.8865 53.8675ZM40.5759 10.0264H36.2416C34.7115 10.0264 33.4666 8.79834 33.4666 7.28908V3.0136L40.5759 10.0264Z" fill="#F0F8F7"/>
<path d="M53.7248 43.2105L46.1431 30.587C45.5906 29.6666 44.3881 29.3624 43.4545 29.9079L41.6104 30.9857C40.1789 31.8222 39.5738 33.5149 40.0653 35.0151C39.444 35.2371 38.7628 35.2336 38.1355 34.9944C36.6795 34.5426 35.5725 33.6335 33.7442 34.0896C30.64 34.8693 30.7343 34.8303 30.4534 34.9252C28.6358 33.9044 27.5432 33.6006 25.6136 34.3369L23.8936 34.9928C23.0972 35.2963 22.2198 35.2244 21.4839 34.7943L21.0145 34.5214C21.2436 33.1676 20.6349 31.739 19.3462 30.9859C19.3462 30.9859 19.3462 30.9859 19.3461 30.9858L17.502 29.9081C16.5711 29.3643 15.365 29.6687 14.8135 30.587L7.23161 43.2106C6.67906 44.1307 6.98652 45.3173 7.91983 45.8625L9.76387 46.9402C10.3219 47.2663 10.9351 47.4214 11.541 47.4214C12.2166 47.4214 12.8828 47.2283 13.4523 46.8645L13.8366 47.0882L13.0252 48.203C12.0583 49.5317 12.3655 51.3793 13.7127 52.3332C14.3357 52.7743 15.1184 52.9757 15.9278 52.8503C16.0562 53.5908 16.4675 54.2839 17.1335 54.7557C17.759 55.1987 18.5381 55.4003 19.3489 55.2744C19.4777 56.0143 19.8888 56.7068 20.5544 57.1782C21.449 57.8116 22.5612 57.8848 23.488 57.4944C23.6908 58.014 24.0432 58.4832 24.535 58.8315C25.819 59.7405 27.5877 59.5034 28.5854 58.3257L30.7417 59.5857C32.1676 60.4193 34.0075 59.956 34.853 58.5478C35.0692 58.1878 35.2034 57.7954 35.2524 57.3922L35.2573 57.3951C36.6811 58.2269 38.5252 57.7612 39.3687 56.3571C39.6129 55.9503 39.7468 55.5091 39.7794 55.0669C41.0344 55.3782 42.4022 54.8582 43.0948 53.7051C43.322 53.3268 43.4538 52.9182 43.4972 52.507C44.8422 53.0276 46.4143 52.5244 47.174 51.2597C47.5825 50.5795 47.6981 49.7831 47.4994 49.017C47.3857 48.5787 47.1766 48.1809 46.8895 47.8449L48.078 47.1599C49.0835 47.567 50.2308 47.5019 51.1924 46.9401L53.0362 45.8624C53.9695 45.3175 54.2778 44.1312 53.7248 43.2105ZM10.676 45.4216L8.83199 44.3438C8.75001 44.2959 8.72281 44.1911 8.77128 44.1102L16.3532 31.4864C16.402 31.4052 16.5086 31.3788 16.5901 31.4267L18.434 32.5042C19.2534 32.9831 19.5098 34.0198 19.0331 34.8133L13.0169 44.8305C12.5367 45.6302 11.4867 45.8951 10.676 45.4216ZM14.7563 50.8992C14.2129 50.5143 14.0886 49.7688 14.479 49.2325L15.6716 47.5938C16.0516 47.0717 16.8087 46.9288 17.3612 47.3201C17.9036 47.7042 18.028 48.4517 17.6388 48.9867L16.446 50.6254C16.0567 51.1606 15.2984 51.2829 14.7563 50.8992ZM18.1772 53.3218C17.6348 52.9376 17.5105 52.1899 17.8998 51.655L19.0924 50.0164C19.0924 50.0164 19.0924 50.0164 19.0924 50.0163C19.0924 50.0163 19.0924 50.0161 19.0925 50.0161L20.4087 48.2077C20.5974 47.9486 20.8769 47.7773 21.196 47.7257C21.2623 47.7149 21.3287 47.7097 21.3947 47.7097C21.6458 47.7097 21.8902 47.7868 22.0983 47.9341C22.3609 48.1202 22.5346 48.3958 22.5869 48.7106C22.6393 49.0254 22.5643 49.3415 22.3756 49.6006L19.8667 53.048C19.4767 53.5842 18.7208 53.7069 18.1772 53.3218ZM21.5981 55.7442C21.056 55.3603 20.9315 54.6131 21.3201 54.0782C21.3202 54.078 21.3204 54.0778 21.3205 54.0775L23.8295 50.6302C24.2186 50.0954 24.977 49.9726 25.5191 50.3565C26.0615 50.7405 26.1858 51.4881 25.7965 52.0231L24.6818 53.5549C24.6818 53.5549 24.6818 53.5549 24.6817 53.555L23.2876 55.4705C22.8982 56.0055 22.1405 56.1284 21.5981 55.7442ZM25.5786 57.3975C25.0367 57.0135 24.912 56.2667 25.3004 55.7318L26.1355 54.5845C26.5247 54.0494 27.283 53.9271 27.8251 54.3108C28.3673 54.6948 28.4918 55.4425 28.1025 55.9775L27.2681 57.1237C26.8789 57.6588 26.1207 57.7816 25.5786 57.3975ZM45.6346 50.3601C45.2942 50.9269 44.55 51.1149 43.9752 50.7792C43.002 50.2104 36.724 46.5417 36.0547 46.1505C35.6294 45.902 35.0807 46.0404 34.8288 46.4599C34.5769 46.8793 34.7172 47.4207 35.1424 47.6691L41.1304 51.1685L41.1305 51.1686C41.7054 51.5044 41.8971 52.2363 41.5553 52.8056C41.2147 53.3726 40.4702 53.5603 39.8957 53.2248C37.681 51.9305 35.8827 50.8796 33.9045 49.7235C33.4791 49.4751 32.9305 49.6135 32.6786 50.0329C32.4267 50.4523 32.567 50.9937 32.9922 51.2422L37.4043 53.8205L37.4052 53.8211C37.9805 54.158 38.1703 54.8895 37.8292 55.4576C37.4886 56.0247 36.7443 56.2126 36.1695 55.8767L33.8016 54.4931C33.8014 54.493 33.801 54.4928 33.8008 54.4926C33.8006 54.4925 33.8003 54.4924 33.8001 54.4923L32.0721 53.4823C31.6468 53.2338 31.0981 53.3722 30.8462 53.7917C30.5943 54.2111 30.7346 54.7525 31.1598 55.001L32.8882 56.011C32.8884 56.0111 32.8886 56.0114 32.8889 56.0115C33.4638 56.3473 33.6555 57.0791 33.3137 57.6484C32.9731 58.2154 32.2288 58.4033 31.6539 58.0674L29.6377 56.8893C30.502 55.5738 30.1733 53.801 28.8687 52.8773C28.4856 52.6061 28.059 52.4373 27.6226 52.3647C28.0855 51.144 27.6864 49.7187 26.5627 48.923C25.8974 48.4517 25.1008 48.2889 24.349 48.4052C24.2153 47.6335 23.7875 46.9576 23.142 46.5006C21.9281 45.6413 20.2784 45.8064 19.2595 46.8233C19.0524 46.4645 18.7665 46.1427 18.4049 45.8867C17.3962 45.1725 16.0865 45.1659 15.0879 45.7674L14.6779 45.5287L20.3055 36.1585L20.5734 36.3143C21.7567 37.0057 23.2006 37.1499 24.5388 36.6394L26.2588 35.9835C27.2431 35.6083 27.7859 35.5838 28.7594 36.0369C28.1224 36.7429 27.7443 37.6697 27.7443 38.6686V42.5821C27.7443 43.6216 28.601 44.4678 29.6539 44.4685H29.6565C30.7127 44.4685 31.7058 44.0629 32.453 43.3264C32.8885 42.897 33.21 42.3851 33.4027 41.8264C34.558 42.5013 44.1034 48.0769 45.21 48.7237C45.4884 48.8863 45.6858 49.1462 45.766 49.4553C45.8462 49.7641 45.7995 50.0855 45.6346 50.3601ZM52.1245 44.3438L50.2804 45.4216C49.4697 45.895 48.4197 45.6298 47.9398 44.8306L45.1199 40.1355C44.8679 39.7161 44.3188 39.5776 43.894 39.8259C43.4688 40.0743 43.3283 40.6157 43.5801 41.0351L46.4 45.7304C46.4531 45.8187 46.5107 45.9027 46.5703 45.9847L45.7864 46.4364C45.6279 46.529 45.4754 46.6309 45.3297 46.7417L33.1735 39.6407C32.578 39.293 31.8229 39.7169 31.8229 40.4001C31.8135 40.4528 31.9153 41.3601 31.1879 42.0774C30.7787 42.4806 30.2348 42.7028 29.6564 42.7028C29.6559 42.7028 29.6554 42.7028 29.655 42.7028C29.5881 42.7028 29.5337 42.6484 29.5337 42.5816V38.6682C29.5337 37.6458 30.2467 36.7833 31.211 36.5425L34.183 35.8006C35.2613 35.5317 35.8709 36.0998 37.4856 36.6388C38.6064 37.0666 39.8252 37.0402 40.907 36.5844L41.4471 37.4837C41.6991 37.9034 42.248 38.0417 42.673 37.7933C43.0982 37.5449 43.2386 37.0035 42.9869 36.5841L41.9232 34.813C41.4419 34.0117 41.71 32.979 42.5223 32.5041L44.3663 31.4265C44.4469 31.3793 44.5534 31.4035 44.6033 31.4864L52.185 44.11C52.234 44.1915 52.207 44.2956 52.1245 44.3438Z" fill="#F0F8F7"/>
</svg>
