<svg width="14" height="14" viewBox="0 0 14 14" fill="none" xmlns="http://www.w3.org/2000/svg">
<path d="M13.9966 3.86264C13.9966 3.86088 13.9968 3.85913 13.9968 3.85737C13.9968 1.72698 12.5051 0 10.6649 0C8.8247 0 7.33301 1.72695 7.33301 3.85737C7.33301 5.9878 8.82486 7.71475 10.6649 7.71475C11.0431 7.71475 11.4051 7.63842 11.7438 7.50395C10.9942 12.4825 7.64075 15.6932 10.7494 13.0507C14.1964 10.1206 14.0005 3.97507 13.9966 3.86264Z" fill="#0B327D"/>
<path d="M3.33189 7.71563C3.71008 7.71563 4.07209 7.63931 4.41099 7.50483C3.66118 12.4834 0.307711 15.6941 3.41636 13.0517C6.86339 10.1215 6.66748 3.97595 6.66359 3.86352C6.66359 3.86177 6.66376 3.86001 6.66376 3.85826C6.66376 1.72785 5.17207 0.000854492 3.33189 0.000854492C1.49169 0.000854492 0 1.72782 0 3.85826C0 5.9887 1.49186 7.71563 3.33189 7.71563Z" fill="#0B327D"/>
</svg>
