<svg width="60" height="61" viewBox="0 0 60 61" fill="none" xmlns="http://www.w3.org/2000/svg">
<path d="M3.28906 22.9709L4.70316 21.5557L6.70283 23.557L5.28873 24.9722L3.28906 22.9709Z" fill="#E98C00"/>
<path d="M0 29.2705H3.00001V31.2721H0V29.2705Z" fill="#E98C00"/>
<path d="M10.9961 39.2786H12.9961V42.281H10.9961V39.2786Z" fill="#E98C00"/>
<path d="M3.28906 37.5667L5.28873 35.5654L6.70283 36.9806L4.70316 38.9819L3.28906 37.5667Z" fill="#E98C00"/>
<path d="M38.0001 43.2815C37.9156 43.2815 37.8312 43.2851 37.747 43.2904C37.3837 44.7 36.6407 45.9828 35.5988 46.9987L34.1992 45.5691C34.9058 44.8762 35.4303 44.0192 35.7259 43.0743C36.0216 42.1295 36.0792 41.1261 35.8936 40.1536C35.708 39.1811 35.2851 38.2696 34.6624 37.5003C34.0396 36.7309 33.2365 36.1276 32.3245 35.744C31.4124 35.3605 30.4197 35.2086 29.4348 35.3019C28.4499 35.3951 27.5034 35.7307 26.6794 36.2786C25.8554 36.8266 25.1796 37.57 24.7121 38.4425C24.2447 39.3151 24 40.2898 24 41.2799C24 41.3959 24.0043 41.5121 24.0109 41.6279C25.1772 42.0446 26.1863 42.8117 26.9004 43.8242C27.6144 44.8368 27.9985 46.0454 28 47.2847H26C26 46.493 25.7654 45.719 25.3259 45.0607C24.8864 44.4023 24.2617 43.8892 23.5308 43.5863C22.7999 43.2833 21.9956 43.204 21.2197 43.3584C20.4437 43.5129 19.731 43.8942 19.1716 44.454C18.6122 45.0139 18.2312 45.7272 18.0769 46.5037C17.9225 47.2803 18.0017 48.0852 18.3045 48.8167C18.6072 49.5482 19.1199 50.1734 19.7777 50.6132C20.4355 51.0531 21.2089 51.2879 22 51.2879H38.0001C39.061 51.2879 40.0784 50.8661 40.8285 50.1154C41.5787 49.3647 42.0001 48.3464 42.0001 47.2847C42.0001 46.223 41.5787 45.2048 40.8285 44.454C40.0784 43.7033 39.061 43.2815 38.0001 43.2815Z" fill="#E98C00"/>
<path d="M32.2812 59.5847L37.2806 54.5814L38.6947 55.9967L33.6953 60.9999L32.2812 59.5847Z" fill="#E98C00"/>
<path d="M25.2812 59.584L30.2806 54.5807L31.6947 55.9959L26.6953 60.9992L25.2812 59.584Z" fill="#E98C00"/>
<path d="M18.2852 59.5833L23.2845 54.58L24.6986 55.9952L19.6993 60.9985L18.2852 59.5833Z" fill="#E98C00"/>
<path d="M16.3778 16.7572L17.776 18.1885L21.7923 14.2586H28.2121L24.9272 19.6096L19.4159 20.9549L19.8898 22.8996L23.4395 22.033L21.9392 24.4772L23.6433 25.525L25.1789 23.0232L26.0694 26.5156L28.0074 26.0207L26.6374 20.6473L30.0001 15.1697L33.3627 20.6473L31.9927 26.0207L33.9307 26.5156L34.8212 23.0232L36.3568 25.525L38.061 24.4772L36.5606 22.033L40.1104 22.8996L40.5842 20.9549L35.073 19.6096L31.7881 14.2586H38.2078L42.2241 18.1885L43.6224 16.7572L41.0687 14.2586H44.0001V12.257H41.0687L43.6224 9.7584L42.2241 8.32713L38.2078 12.257H31.7881L35.073 6.906L40.5842 5.56068L40.1104 3.616L36.5606 4.48257L38.061 2.03837L36.3568 0.990664L34.8212 3.49241L33.9307 0L31.9927 0.494894L33.3627 5.8683L30.0001 11.3459L26.6374 5.8683L28.0074 0.494894L26.0694 0L25.1789 3.49241L23.6433 0.990664L21.9392 2.03837L23.4395 4.48257L19.8898 3.616L19.4159 5.56068L24.9272 6.906L28.2121 12.257H21.7923L17.776 8.32713L16.3778 9.7584L18.9314 12.257H16V14.2586H18.9314L16.3778 16.7572Z" fill="#E98C00"/>
<path d="M56.0001 22.2649H54.0001V24.2665H56.0001C56.5305 24.2665 57.0392 24.4774 57.4143 24.8527C57.7894 25.2281 58.0001 25.7372 58.0001 26.2681C58.0001 26.7989 57.7894 27.308 57.4143 27.6834C57.0392 28.0588 56.5305 28.2697 56.0001 28.2697H38V30.2713H56.0001C57.0609 30.2713 58.0784 29.8495 58.8285 29.0988C59.5787 28.348 60.0001 27.3298 60.0001 26.2681C60.0001 25.2064 59.5787 24.1881 58.8285 23.4374C58.0784 22.6867 57.0609 22.2649 56.0001 22.2649Z" fill="#E98C00"/>
<path d="M52 32.2729H41V34.2745H52C52.5305 34.2745 53.0392 34.4854 53.4143 34.8608C53.7893 35.2362 54.0001 35.7453 54.0001 36.2761C54.0001 36.807 53.7893 37.3161 53.4143 37.6915C53.0392 38.0669 52.5305 38.2777 52 38.2777H49V40.2793H52C53.0609 40.2793 54.0783 39.8576 54.8285 39.1068C55.5786 38.3561 56.0001 37.3378 56.0001 36.2761C56.0001 35.2144 55.5786 34.1962 54.8285 33.4455C54.0783 32.6947 53.0609 32.2729 52 32.2729Z" fill="#E98C00"/>
<path d="M33 28.2698H36V30.2714H33V28.2698Z" fill="#E98C00"/>
<path d="M12 35.2753C14.7615 35.2753 17 33.0349 17 30.2713C17 27.5077 14.7615 25.2673 12 25.2673C9.23859 25.2673 7 27.5077 7 30.2713C7 33.0349 9.23859 35.2753 12 35.2753Z" fill="#E98C00"/>
<path d="M21 29.2705H24V31.2721H21V29.2705Z" fill="#E98C00"/>
<path d="M10.9961 18.2617H12.9961V21.2641H10.9961V18.2617Z" fill="#E98C00"/>
<path d="M17.2852 36.9819L18.6993 35.5667L20.6989 37.568L19.2848 38.9832L17.2852 36.9819Z" fill="#E98C00"/>
</svg>
