<svg width="56" height="46" viewBox="0 0 56 46" fill="none" xmlns="http://www.w3.org/2000/svg">
<path d="M30.0103 27.9286C30.7814 26.3481 31.1719 24.6943 31.1719 23C31.1719 16.6586 26.0203 11.5 19.6875 11.5C13.3547 11.5 8.20312 16.6586 8.20312 23C8.20312 24.6943 8.59359 26.3481 9.36469 27.9286H30.0103ZM13.8884 17.1941C14.5294 16.5523 15.5684 16.5523 16.2094 17.1941L20.848 21.838C21.4878 22.4798 21.4878 23.5202 20.848 24.162C20.207 24.8039 19.168 24.8039 18.527 24.162L13.8884 19.5171C13.2486 18.8752 13.2486 17.8347 13.8884 17.1941Z" fill="#E98C00"/>
<path d="M29.5304 36.1428C34.9587 36.1428 39.3742 31.7213 39.3742 26.2856V22.9999C39.3742 12.1297 30.5422 3.28564 19.6867 3.28564C9.65043 3.28564 1.57309 10.8921 0.222307 20.0023C-0.648319 25.8684 1.10934 31.752 5.04246 36.1428H29.5304ZM19.6867 8.21422C27.8286 8.21422 34.4523 14.847 34.4523 22.9999C34.4523 25.577 33.7643 28.0654 32.4092 30.3983C32.115 30.9032 31.5757 31.2142 30.9917 31.2142H8.38168C7.79762 31.2142 7.2584 30.9032 6.96418 30.3983C5.60903 28.0654 4.92106 25.5759 4.92106 22.9999C4.92106 14.847 11.5448 8.21422 19.6867 8.21422Z" fill="#E98C00"/>
<path d="M49.6493 6.78522C50.2625 4.76242 52.1417 3.28571 54.3594 3.28571C55.2654 3.28571 56 2.55015 56 1.64286C56 0.735562 55.2654 0 54.3594 0C50.3501 0 47.0058 2.89581 46.2969 6.7079C43.359 7.24128 40.8892 9.30416 39.8727 12.0311C41.6467 15.2927 42.6562 19.0309 42.6562 23V26.2857C42.6562 33.5443 36.78 39.4286 29.5312 39.4286H5.02217C4.10288 39.4286 3.22689 39.0371 2.61297 38.352C1.00625 39.8512 0 41.9891 0 44.3571C0 45.2651 0.735 46 1.64062 46H41.2344C45.7648 46 49.4375 42.3223 49.4375 37.7857V21.3571C49.4375 18.6399 51.6458 16.4286 54.3594 16.4286C55.265 16.4286 56 15.6937 56 14.7857C56 10.8947 53.2831 7.62866 49.6493 6.78522Z" fill="#E98C00"/>
</svg>
