<svg width="44" height="39" viewBox="0 0 44 39" fill="none" xmlns="http://www.w3.org/2000/svg">
<path d="M43.8747 13.7069C43.667 12.2162 42.8456 10.9321 41.5771 10.1162L41.7193 10.0608C41.8551 10.0079 41.9487 9.88159 41.9598 9.7358C41.971 9.59002 41.898 9.45069 41.7718 9.37766L35.2502 5.59554V1.53467C35.2502 0.659779 34.1537 0 32.6996 0C31.2457 0 30.1492 0.659779 30.1492 1.53467V2.63779L27.5328 1.12078C27.4335 1.06323 27.3137 1.05401 27.207 1.09552L17.2286 4.97983C17.0928 5.03273 16.9992 5.15904 16.9881 5.30482C16.9769 5.45061 17.05 5.58993 17.1761 5.66297L20.6413 7.67241V12.7848L2.56751 23.2627C0.950691 24.1998 -0.00572454 25.875 0.0045839 27.7437C-0.00610283 28.1765 0.00524591 29.7658 0.00524591 29.8258C0.00524591 31.6872 0.963174 33.3542 2.56779 34.2854C2.74341 34.3873 5.62855 36.2789 5.62855 36.2789C8.11997 37.9536 11.0206 38.8913 14.017 38.9911C14.195 38.9971 14.3722 39 14.5498 39C17.3626 39 20.1237 38.2584 22.5658 36.8425L37.4935 28.1875C40.5325 26.4255 42.632 23.4258 43.2537 19.9576C43.2537 19.9576 43.5605 18.4725 43.5921 18.3885C43.8533 17.6951 44.0167 16.1824 43.9986 15.0366C43.9923 14.6342 43.8889 13.8092 43.8747 13.7069ZM31.4152 13.92C31.4733 13.9538 31.5388 13.9709 31.6043 13.9709C31.6505 13.9709 31.6969 13.9624 31.741 13.9452L31.747 13.9428V18.1412L27.0184 15.3991V11.3703L31.4152 13.92ZM39.7387 10.8319V17.3826L37.9888 18.3971V11.5131L39.7387 10.8319ZM37.2322 18.8357L34.8679 20.2064V12.728L37.2322 11.8076V18.8357ZM34.1113 20.645L32.5036 21.5771V13.6483L34.1113 13.0224V20.645ZM31.747 19.0186V21.5771L21.3979 15.576V13.0174L31.747 19.0186ZM20.8306 16.1243L31.9363 22.5641C31.9948 22.598 32.0601 22.615 32.1254 22.615C32.1907 22.615 32.256 22.598 32.3145 22.5641L40.3062 17.9309C40.4232 17.863 40.4954 17.7376 40.4954 17.6019V12.2402C40.6527 12.3241 40.8082 12.4102 40.9604 12.4984C42.0726 13.1432 42.8152 14.1837 43.0599 15.4331C42.7944 16.6021 42.0607 17.6201 40.985 18.2436L18.0805 31.5237C15.7465 32.8769 13.1306 33.5534 10.5139 33.5532C7.89716 33.5531 5.27967 32.8762 2.94599 31.5228C2.94088 31.5198 2.93568 31.5169 2.93038 31.5141C2.19697 31.0851 1.62263 30.4729 1.24982 29.7515C0.87664 29.0293 0.88222 28.1776 1.26987 27.4631C1.64608 26.7699 2.20889 26.1906 2.9214 25.7776L20.6415 15.5047V15.7955C20.6414 15.931 20.7135 16.0564 20.8306 16.1243ZM40.985 10.6418C42.0633 11.2665 42.795 12.2708 43.0595 13.4554C42.63 12.8031 42.0492 12.2523 41.3387 11.8404C41.0655 11.6819 40.7826 11.5297 40.4953 11.3856V10.5374L40.6756 10.4672C40.7839 10.5264 40.8862 10.584 40.985 10.6418ZM30.9059 4.62472C31.3598 4.8897 31.9866 5.04878 32.6997 5.04878C33.413 5.04878 34.0397 4.88979 34.4937 4.62472V9.12427C34.4937 9.44024 33.7948 9.89915 32.6997 9.89915C31.6047 9.89915 30.9059 9.44024 30.9059 9.12427V4.62472ZM32.6997 4.28899C31.6047 4.28899 30.9059 3.83008 30.9059 3.5141V2.64548C31.3598 2.91055 31.9866 3.06953 32.6997 3.06953C33.413 3.06953 34.0397 2.91055 34.4937 2.64548V3.5141C34.4936 3.83008 33.7948 4.28899 32.6997 4.28899ZM32.6997 0.759786C33.7948 0.759786 34.4937 1.2187 34.4937 1.53467C34.4937 1.85065 33.7948 2.30965 32.6997 2.30965C31.6047 2.30965 30.9059 1.85065 30.9059 1.53467C30.9059 1.2187 31.6046 0.759786 32.6997 0.759786ZM27.3115 1.86964L30.1493 3.51496V9.12417C30.1493 9.99907 31.2458 10.6588 32.6997 10.6588C34.1538 10.6588 35.2503 9.99907 35.2503 9.12417V6.47281L40.7098 9.63902L31.6366 13.1711L18.2383 5.4017L27.3115 1.86964ZM26.2618 10.9317V14.9606L21.3979 12.1401V8.11128L26.2618 10.9317ZM2.9458 23.9207L20.6413 13.6621V14.6272L2.54301 25.1195C1.87306 25.5078 1.31669 26.0227 0.894136 26.6307C1.17663 25.4989 1.89822 24.528 2.9458 23.9207ZM0.816586 30.516C1.24926 31.1884 1.84213 31.7605 2.56656 32.1805C2.57195 32.1837 2.57734 32.1866 2.58292 32.1895C5.02971 33.6049 7.77157 34.3125 10.5137 34.3125C13.261 34.3125 16.0082 33.6022 18.4586 32.1815L41.363 18.9015C42.0716 18.4908 42.6536 17.9341 43.0833 17.2824C43.0279 17.6229 42.9607 17.9171 42.8844 18.1197C42.5292 19.0625 41.8722 19.833 40.9842 20.3479L18.0809 33.6275C15.7467 34.9809 13.1304 35.6575 10.5134 35.6573C7.89697 35.6572 5.27967 34.9805 2.94608 33.6275C1.78057 32.9511 1.01727 31.8182 0.816586 30.516ZM17.929 34.5954C17.929 35.4484 17.5863 36.0143 17.3596 36.0143C17.1899 36.0143 16.9346 35.674 16.8334 35.104C17.2035 34.9432 17.569 34.7688 17.9285 34.5783C17.9286 34.584 17.929 34.5896 17.929 34.5954ZM37.1153 27.5295L22.1875 36.1845C19.7138 37.6188 16.8975 38.3264 14.042 38.2318C11.3277 38.1414 8.69668 37.3279 6.40386 35.877C7.74849 36.2367 9.13077 36.417 10.5134 36.4169C12.4152 36.4168 14.3173 36.0757 16.1209 35.3948C16.309 36.2264 16.7823 36.7742 17.3596 36.7742C18.1155 36.7742 18.6856 35.8376 18.6856 34.5955C18.6856 34.4503 18.6765 34.3079 18.6605 34.1689L41.3626 21.0061C41.7628 20.7741 42.1226 20.497 42.4383 20.1813C41.7797 23.2766 39.8557 25.9406 37.1153 27.5295Z" fill="#0B327D"/>
</svg>
