<svg width="50" height="49" viewBox="0 0 50 49" fill="none" xmlns="http://www.w3.org/2000/svg">
<path d="M24.4977 0.000216981C23.1633 0.00136485 21.8313 0.112534 20.5153 0.332595C20.2147 0.116573 19.854 0.000317953 19.4839 0.000216981H1.74802C1.03048 -0.0111122 0.380559 0.422106 0.114884 1.08882C-0.133251 1.71077 0.0352817 2.42156 0.536234 2.86586L5.45035 7.35011H1.74476C1.02748 7.33721 0.377127 7.76974 0.111617 8.43626C-0.135221 9.05955 0.0360185 9.77072 0.5395 10.2133L3.11088 12.5636C-2.27493 22.2185 -0.527812 34.2847 7.37529 42.015C15.2784 49.7453 27.3791 51.2243 36.911 45.6249C46.443 40.0254 51.0441 28.7352 48.1416 18.0673C45.2392 7.39941 35.5523 -0.00262552 24.4977 0.000216981ZM1.6337 1.68171C1.6337 1.68171 1.65004 1.63353 1.74802 1.63353H19.4839C19.5169 1.63204 19.5497 1.63878 19.5795 1.65313C19.5795 1.65313 19.5868 1.65966 19.5893 1.66374L15.7514 5.17536C15.723 5.19535 15.6957 5.21689 15.6697 5.23987L13.3686 7.35011H7.86005L1.6337 1.68171ZM24.4977 9.80007C24.9487 9.80007 25.3142 9.43445 25.3142 8.98342V4.92056C28.2073 5.03825 31.0377 5.7999 33.5992 7.15003C33.5692 7.17915 33.5419 7.21085 33.5175 7.24476L32.7744 8.53181C32.6262 8.78462 32.6248 9.09747 32.7708 9.35158C32.9167 9.6057 33.1876 9.76213 33.4807 9.76148C33.7737 9.76084 34.0439 9.60322 34.1887 9.34846L34.9318 8.06142C34.948 8.0239 34.9611 7.98512 34.971 7.94545C37.4134 9.49671 39.4849 11.5659 41.0389 14.0067L39.6508 14.8094C39.396 14.9543 39.2384 15.2245 39.2378 15.5176C39.2371 15.8106 39.3936 16.0816 39.6476 16.2275C39.9017 16.3735 40.2146 16.3721 40.4673 16.2239L41.8604 15.4195C43.2024 17.9756 43.9589 20.7984 44.0749 23.6832H40.0125C39.5615 23.6832 39.1959 24.0488 39.1959 24.4999C39.1959 24.9509 39.5615 25.3165 40.0125 25.3165H44.0749C43.958 28.2016 43.2004 31.0244 41.8571 33.5802L40.4641 32.7758C40.2113 32.6276 39.8985 32.6262 39.6444 32.7722C39.3903 32.9182 39.2339 33.1891 39.2345 33.4822C39.2352 33.7752 39.3928 34.0454 39.6475 34.1903L41.0357 34.9931C37.446 40.6653 31.2005 44.1024 24.4884 44.0998C17.7762 44.0971 11.5335 40.6551 7.94824 34.98C7.98643 34.9674 8.02356 34.9519 8.0593 34.9334L9.34621 34.1903C9.60094 34.0454 9.75854 33.7752 9.75918 33.4822C9.75983 33.1891 9.60342 32.9182 9.34933 32.7722C9.09524 32.6262 8.78243 32.6276 8.52964 32.7758L7.24273 33.519C7.20915 33.5438 7.17749 33.5711 7.148 33.6007C5.79871 31.0393 5.0377 28.2092 4.9204 25.3165H8.98284C9.43382 25.3165 9.79941 24.9509 9.79941 24.4999C9.79941 24.0488 9.43382 23.6832 8.98284 23.6832H4.92612C5.03417 21.0119 5.68982 18.3912 6.85241 15.9838L9.41072 18.3227C10.0965 18.9386 11.1362 18.9386 11.8221 18.3227L20.6933 10.2141C21.1968 9.77154 21.368 9.06036 21.1212 8.43708C20.8556 7.77056 20.2053 7.33803 19.488 7.35093H15.7857L16.6766 6.53427C18.8905 5.56467 21.2661 5.01764 23.6811 4.92138V8.98342C23.6811 9.43445 24.0467 9.80007 24.4977 9.80007ZM1.74476 8.98342H19.4872C19.5229 8.9808 19.5585 8.98998 19.5885 9.00955L10.7205 17.1157C10.6586 17.1613 10.5742 17.1613 10.5123 17.1157L1.6337 9.02752C1.6337 9.02752 1.65004 8.98342 1.74476 8.98342ZM24.4977 47.3662C16.4571 47.368 9.00684 43.1448 4.8778 36.2447C0.748761 29.3446 0.548194 20.7823 4.34962 13.6963L5.60305 14.8397C4.06895 17.8287 3.26815 21.14 3.26684 24.4999C3.26684 36.2265 12.7722 45.7329 24.4977 45.7329C36.2231 45.7329 45.7285 36.2265 45.7285 24.4999C45.734 18.0114 42.77 11.8773 37.6834 7.84982C32.5967 3.82236 25.9468 2.34452 19.6334 3.83849L20.7006 2.85851C20.9804 2.60161 21.1615 2.25493 21.2126 1.87852C29.6958 0.626659 38.1662 4.22723 43.152 11.2045C48.1379 18.1818 48.8009 27.3625 44.8694 34.9839C40.9378 42.6053 33.0727 47.3859 24.4977 47.3662Z" fill="#E98C00"/>
<path d="M21.233 24.4999C21.2359 25.0812 21.3959 25.6509 21.696 26.1487L19.8392 28.0058C19.6269 28.2109 19.5417 28.5145 19.6165 28.8C19.6912 29.0855 19.9142 29.3085 20.1997 29.3833C20.4852 29.458 20.7888 29.3729 20.9938 29.1606L22.8507 27.3035C23.3484 27.6037 23.9181 27.7637 24.4993 27.7665C26.3032 27.7665 27.7656 26.304 27.7656 24.4999C27.7628 23.9186 27.6028 23.3489 27.3026 22.8511L36.9169 13.2358C37.2264 12.9154 37.2219 12.406 36.907 12.091C36.592 11.776 36.0827 11.7716 35.7623 12.0811L26.148 21.6963C25.6502 21.3961 25.0806 21.2361 24.4993 21.2333C22.6954 21.2333 21.233 22.6958 21.233 24.4999ZM24.4993 22.8666C24.9318 22.8664 25.3467 23.0383 25.6523 23.3444C26.2557 23.9874 26.2397 24.9934 25.6162 25.6169C24.9927 26.2405 23.9869 26.2565 23.3439 25.653C22.878 25.1857 22.7391 24.4838 22.9919 23.8742C23.2447 23.2646 23.8395 22.8671 24.4993 22.8666Z" fill="#E98C00"/>
<path d="M31.847 34.3H17.1488C16.2468 34.3 15.5156 35.0312 15.5156 35.9332V38.3829C15.5156 39.2849 16.2468 40.016 17.1488 40.016H31.847C32.749 40.016 33.4802 39.2849 33.4802 38.3829V35.9332C33.4802 35.0312 32.749 34.3 31.847 34.3ZM23.6813 35.9332H25.3145V38.3829H23.6813V35.9332ZM22.0482 38.3829H20.415V35.9332H22.0482V38.3829ZM26.9476 35.9332H28.5807V38.3829H26.9476V35.9332ZM17.1488 35.9332H18.7819V38.3829H17.1488V35.9332ZM30.2139 38.3829V35.9332H31.847V38.3829H30.2139Z" fill="#E98C00"/>
</svg>
