<svg width="52" height="60" viewBox="0 0 52 60" fill="none" xmlns="http://www.w3.org/2000/svg">
<path d="M31.7782 11C31.7782 9.81333 31.4394 8.65329 30.8045 7.66659C30.1696 6.67989 29.2672 5.91085 28.2115 5.45673C27.1557 5.0026 25.994 4.88378 24.8732 5.11529C23.7525 5.3468 22.723 5.91825 21.9149 6.75737C21.1069 7.59648 20.5566 8.66559 20.3337 9.82947C20.1107 10.9934 20.2252 12.1998 20.6625 13.2961C21.0998 14.3925 21.8403 15.3296 22.7905 15.9889C23.7406 16.6481 24.8577 17 26.0004 17C27.5323 16.9982 29.0009 16.3655 30.084 15.2407C31.1672 14.1159 31.7765 12.5908 31.7782 11ZM22.1486 11C22.1486 10.2089 22.3745 9.43553 22.7977 8.77773C23.221 8.11993 23.8226 7.60724 24.5264 7.30449C25.2302 7.00174 26.0047 6.92253 26.7519 7.07687C27.4991 7.23121 28.1854 7.61217 28.7241 8.17158C29.2628 8.731 29.6297 9.44373 29.7783 10.2197C29.9269 10.9956 29.8506 11.7999 29.5591 12.5308C29.2675 13.2617 28.7738 13.8864 28.1404 14.3259C27.507 14.7654 26.7623 15 26.0004 15C24.9792 14.9988 24.0001 14.577 23.278 13.8271C22.5559 13.0772 22.1497 12.0605 22.1486 11Z" fill="#E98C00"/>
<path d="M25.4466 27.8193C25.6084 27.937 25.8013 28.0001 25.9988 28.0001C26.1964 28.0001 26.3892 27.937 26.5511 27.8193C28.3799 26.4202 30.0533 24.8143 31.5403 23.0312C34.8447 19.0849 36.5914 14.925 36.5914 11C36.5914 8.08264 35.4754 5.28474 33.4889 3.22183C31.5024 1.15893 28.8082 0 25.9988 0C23.1895 0 20.4952 1.15893 18.5087 3.22183C16.5223 5.28474 15.4062 8.08264 15.4062 11C15.4062 14.925 17.1529 19.0849 20.4574 23.0312C21.9444 24.8143 23.6178 26.4202 25.4466 27.8193ZM25.9988 2.00001C28.2966 2.00269 30.4995 2.95176 32.1242 4.63901C33.749 6.32626 34.6629 8.6139 34.6655 11C34.6655 18.1552 27.987 24.1283 25.9988 25.7479C24.0077 24.1303 17.3322 18.1689 17.3322 11C17.3348 8.6139 18.2487 6.32626 19.8734 4.63901C21.4982 2.95176 23.7011 2.00269 25.9988 2.00001Z" fill="#E98C00"/>
<path d="M13.2109 51.948L13.7772 50.036L15.7035 50.6512L15.1373 52.5632L13.2109 51.948Z" fill="#F0F8F7"/>
<path d="M17.0586 53.1746L17.6249 51.2624L19.5512 51.8776L18.9849 53.7898L17.0586 53.1746Z" fill="#F0F8F7"/>
<path d="M20.9102 54.4084L21.4764 52.4964L23.4027 53.1116L22.8365 55.0236L20.9102 54.4084Z" fill="#F0F8F7"/>
<path d="M51.3203 23.0443L36.8758 18.429L36.3094 20.3406L47.763 24.0001L26 30.9539L4.23704 24.0001L15.6903 20.3406L15.1238 18.429L0.679371 23.0443C0.482621 23.1073 0.310483 23.2341 0.188213 23.4061C0.0659436 23.5781 -2.02784e-05 23.7863 4.67621e-09 24.0001V51.0002C3.49746e-06 51.214 0.0660196 51.4222 0.188358 51.5942C0.310697 51.7663 0.482915 51.893 0.679731 51.9559L25.7168 59.9559C25.9013 60.0149 26.0987 60.0149 26.2832 59.9559L51.3203 51.9559C51.5171 51.893 51.6893 51.7663 51.8116 51.5942C51.934 51.4222 52 51.214 52 51.0002V24.0001C52 23.7862 51.934 23.578 51.8116 23.406C51.6893 23.234 51.5171 23.1072 51.3203 23.0443ZM1.92593 25.3541L25.037 32.7387V57.6462L1.92593 50.2617V25.3541ZM26.963 57.6462V32.7387L50.0741 25.3541V50.2617L26.963 57.6462Z" fill="#F0F8F7"/>
<path d="M38.2383 50.0579L40.1646 49.4427L40.7308 51.3547L38.8045 51.9699L38.2383 50.0579Z" fill="#F0F8F7"/>
<path d="M42.0938 48.8311L44.0201 48.2159L44.5863 50.128L42.66 50.7432L42.0938 48.8311Z" fill="#F0F8F7"/>
<path d="M45.9453 47.5964L47.8717 46.9812L48.4379 48.8932L46.5115 49.5084L45.9453 47.5964Z" fill="#F0F8F7"/>
<path d="M18.2957 40.3846C18.5511 40.3846 18.796 40.2793 18.9766 40.0917C19.1572 39.9042 19.2587 39.6498 19.2587 39.3846V34.3846C19.2587 34.1708 19.1927 33.9626 19.0703 33.7905C18.948 33.6185 18.7758 33.4918 18.5789 33.4289L8.94932 30.3519C8.80528 30.3058 8.65285 30.2955 8.50429 30.3218C8.35573 30.3481 8.21519 30.4103 8.09396 30.5032C7.97274 30.5962 7.87423 30.7175 7.80635 30.8572C7.73846 30.9969 7.70311 31.1512 7.70313 31.3077V36.3077C7.70313 36.5216 7.76915 36.7298 7.89148 36.9018C8.01382 37.0738 8.18604 37.2006 8.38286 37.2635L18.0125 40.3405C18.1043 40.3698 18.1997 40.3846 18.2957 40.3846ZM17.3328 38.0306L9.62905 35.5692V32.6617L17.3328 35.1231V38.0306Z" fill="#F0F8F7"/>
<path d="M44.2977 36.3077V31.3077C44.2978 31.1512 44.2624 30.9969 44.1945 30.8572C44.1266 30.7175 44.0281 30.5962 43.9069 30.5032C43.7857 30.4103 43.6451 30.3481 43.4966 30.3218C43.348 30.2955 43.1956 30.3058 43.0515 30.3519L33.4219 33.4289C33.2251 33.4918 33.0529 33.6185 32.9305 33.7905C32.8082 33.9626 32.7422 34.1708 32.7422 34.3846V39.3846C32.7422 39.5411 32.7775 39.6954 32.8454 39.8352C32.9133 39.9749 33.0118 40.0961 33.133 40.1891C33.2542 40.2821 33.3948 40.3442 33.5434 40.3705C33.6919 40.3968 33.8443 40.3865 33.9884 40.3405L43.618 37.2635C43.8148 37.2006 43.987 37.0738 44.1094 36.9018C44.2317 36.7298 44.2977 36.5216 44.2977 36.3077ZM42.3718 35.5692L34.6681 38.0306V35.1231L42.3718 32.6617V35.5692Z" fill="#F0F8F7"/>
</svg>
