<svg width="62" height="59" viewBox="0 0 62 59" fill="none" xmlns="http://www.w3.org/2000/svg">
<path d="M3.50098 13.9312L3.88393 13.0258L4.86969 13.4856L4.48674 14.391L3.50098 13.9312Z" fill="#E98C00"/>
<path d="M26.8153 24.769C26.7493 24.7692 26.6841 24.7547 26.6238 24.7264L5.83887 15.0247L6.22236 14.1191L26.8153 23.7317L47.3163 14.1622L47.6998 15.0678L27.0068 24.7279C26.9465 24.7556 26.8812 24.7696 26.8153 24.769Z" fill="#E98C00"/>
<path d="M48.8477 13.4602L49.7546 13.0371L50.1375 13.9426L49.2306 14.3657L48.8477 13.4602Z" fill="#E98C00"/>
<path d="M15.4943 29.7231C15.4284 29.7233 15.3631 29.7087 15.3028 29.6805L11.0575 27.699C10.9741 27.6601 10.9033 27.5966 10.8535 27.5162C10.8038 27.4359 10.7773 27.3421 10.7773 27.2462V16.8431C10.7773 16.7472 10.8038 16.6534 10.8535 16.5731C10.9033 16.4927 10.9741 16.4292 11.0575 16.3903L36.5293 4.50098L36.9124 5.40654L11.7207 17.1651V26.9242L15.0226 28.4649V18.8246C15.0226 18.7288 15.0491 18.635 15.0988 18.5546C15.1486 18.4742 15.2194 18.4107 15.3028 18.3718L40.7746 6.48253L41.1577 7.3881L15.966 19.1466V29.2278C15.966 29.2928 15.9538 29.3572 15.9301 29.4173C15.9064 29.4774 15.8717 29.532 15.8279 29.578C15.7841 29.6241 15.7321 29.6605 15.6749 29.6854C15.6176 29.7103 15.5563 29.7231 15.4943 29.7231Z" fill="#F0F8F7"/>
<path d="M26.3447 24.2739H27.2881V48.5269H26.3447V24.2739Z" fill="#E98C00"/>
<path d="M26.3447 50.0337H27.2881V51.5195H26.3447V50.0337Z" fill="#E98C00"/>
<path d="M49.4556 50.0347C49.3937 50.0348 49.3323 50.0221 49.2751 49.9972C49.2178 49.9723 49.1658 49.9357 49.1222 49.8895L47.2354 47.9079L47.9023 47.2074L49.4556 48.8388L55.726 42.2534L56.3929 42.9539L49.7891 49.8895C49.7455 49.9357 49.6935 49.9723 49.6362 49.9972C49.579 50.0221 49.5176 50.0348 49.4556 50.0347Z" fill="#F0F8F7"/>
<path d="M60.3057 42.1084H61.249V43.5938H60.3057V42.1084Z" fill="#E98C00"/>
<path d="M51.8158 58.4551C51.7509 58.4552 51.6866 58.4412 51.6271 58.414C49.4693 57.4468 47.501 56.0678 45.8219 54.3469C42.421 50.7766 42.3818 48.1615 42.3818 48.052V38.1444C42.3818 38.013 42.4315 37.887 42.52 37.7941C42.6085 37.7012 42.7284 37.649 42.8535 37.649C42.8658 37.649 44.2488 37.6292 46.9498 36.684C48.6321 36.0723 50.1755 35.1009 51.4823 33.8311C51.5708 33.7382 51.6907 33.686 51.8158 33.686C51.9409 33.686 52.0608 33.7382 52.1493 33.8311C53.4569 35.0999 55 36.0713 56.6818 36.6845C59.3828 37.6292 60.7658 37.649 60.7781 37.649C60.9032 37.649 61.0231 37.7012 61.1116 37.7941C61.2001 37.887 61.2498 38.013 61.2498 38.1444V41.1167H60.3064V38.6061C58.9693 38.4255 57.6544 38.096 56.3837 37.6232C54.7063 37.0162 53.1555 36.0762 51.8158 34.8545C50.4761 36.0762 48.9253 37.0162 47.2479 37.6232C45.9772 38.096 44.6623 38.4255 43.3252 38.6061V48.052C43.3252 48.0709 43.3979 50.4002 46.4889 53.6464C48.0341 55.2297 49.8387 56.5073 51.8158 57.4177C53.7929 56.5073 55.5975 55.2297 57.1427 53.6464C60.27 50.3615 60.3064 48.0748 60.3064 48.052V44.6052H61.2498V48.052C61.2498 48.1615 61.2106 50.7766 57.8097 54.3469C56.1306 56.0678 54.1623 57.4468 52.0045 58.414C51.9449 58.4412 51.8807 58.4552 51.8158 58.4551Z" fill="#E98C00"/>
<path d="M26.8145 54.4922C26.7486 54.4924 26.6833 54.4779 26.623 54.4496L1.15128 42.5604C1.06788 42.5215 0.997013 42.458 0.94728 42.3776C0.897547 42.2973 0.871082 42.2035 0.871094 42.1076V12.3846C0.871082 12.2888 0.897547 12.195 0.94728 12.1146C0.997013 12.0343 1.06788 11.9708 1.15128 11.9319L26.623 0.0426657C26.6833 0.0145349 26.7486 0 26.8145 0C26.8805 0 26.9458 0.0145349 27.0061 0.0426657L52.4778 11.9319C52.5612 11.9708 52.6321 12.0343 52.6818 12.1146C52.7315 12.195 52.758 12.2888 52.758 12.3846V32.2H51.8146V12.7066L26.8145 1.04037L1.81449 12.7066V41.7856L26.8145 53.4544L40.299 47.1605L40.6825 48.0666L27.0061 54.4496C26.9458 54.4778 26.8805 54.4923 26.8145 54.4922Z" fill="#E98C00"/>
</svg>
