<svg width="41" height="56" viewBox="0 0 41 56" fill="none" xmlns="http://www.w3.org/2000/svg">
<path d="M33.8447 0C29.9003 0 26.6914 3.21823 26.6914 7.17397C26.6914 8.80266 27.2246 10.3398 28.2347 11.6204L33.3454 18.0647C33.4663 18.2174 33.6502 18.3063 33.8447 18.3063C34.0391 18.3063 34.2229 18.2174 34.3439 18.0647L39.4573 11.6175C40.4651 10.3389 40.9979 8.80233 40.9979 7.17386C40.9977 3.21823 37.7889 0 33.8447 0ZM38.4575 10.8226L33.8448 16.6388L29.2344 10.8253C28.4056 9.77434 27.9674 8.51162 27.9674 7.17408C27.9673 3.92391 30.6038 1.27979 33.8446 1.27979C37.0853 1.27979 39.7218 3.92402 39.7218 7.17408C39.7219 8.51151 39.2843 9.77368 38.4575 10.8226Z" fill="#E98C00"/>
<path d="M33.8487 3.63989C31.9032 3.63989 30.3203 5.22735 30.3203 7.17859C30.3203 9.12983 31.9031 10.7171 33.8487 10.7171C35.7942 10.7171 37.3771 9.12972 37.3771 7.17848C37.3771 5.22724 35.7942 3.63989 33.8487 3.63989ZM33.8487 9.4375C32.6067 9.4375 31.5963 8.42414 31.5963 7.17859C31.5963 5.93303 32.6067 4.91968 33.8487 4.91968C35.0906 4.91968 36.1011 5.93303 36.1011 7.17859C36.1011 8.42414 35.0906 9.4375 33.8487 9.4375Z" fill="#E98C00"/>
<path d="M7.15326 16.8193C3.20894 16.8193 0 20.0375 0 23.9933C0 25.622 0.533187 27.1591 1.54307 28.4398L6.65399 34.8841C6.77494 35.0368 6.95881 35.1257 7.15326 35.1257C7.34771 35.1257 7.53148 35.0368 7.65253 34.8841L12.7659 28.437C13.7737 27.1585 14.3065 25.6218 14.3065 23.9933C14.3065 20.0377 11.0975 16.8193 7.15326 16.8193ZM11.7662 27.6419L7.15337 33.4581L2.54303 27.6447C1.71418 26.5936 1.2762 25.331 1.2762 23.9934C1.27609 20.7432 3.9127 18.099 7.15337 18.099C10.3942 18.099 13.0306 20.7432 13.0306 23.9933C13.0306 25.331 12.593 26.593 11.7662 27.6419Z" fill="#E98C00"/>
<path d="M7.15337 20.4595C5.20788 20.4595 3.625 22.0468 3.625 23.9981C3.625 25.9492 5.20777 27.5366 7.15337 27.5366C9.09898 27.5366 10.6817 25.9493 10.6817 23.9981C10.6816 22.0468 9.09887 20.4595 7.15337 20.4595ZM7.15337 26.257C5.91141 26.257 4.90099 25.2436 4.90099 23.9981C4.90099 22.7525 5.91141 21.7392 7.15337 21.7392C8.39533 21.7392 9.40576 22.7525 9.40576 23.9981C9.40576 25.2436 8.39533 26.257 7.15337 26.257Z" fill="#E98C00"/>
<path d="M33.8447 37.6936C29.9003 37.6936 26.6914 40.9118 26.6914 44.8676C26.6914 46.4963 27.2246 48.0334 28.2347 49.3141L33.3454 55.7584C33.4663 55.9111 33.6502 56 33.8447 56C34.0391 56 34.2229 55.9111 34.3439 55.7584L39.4573 49.3112C40.4651 48.0326 40.9979 46.496 40.9979 44.8676C40.9977 40.9118 37.7889 37.6936 33.8447 37.6936ZM38.4574 48.5162L33.8447 54.3324L29.2343 48.5189C28.4055 47.4679 27.9673 46.2052 27.9673 44.8677C27.9673 41.6175 30.6039 38.9734 33.8446 38.9734C37.0852 38.9734 39.7218 41.6176 39.7218 44.8677C39.7218 46.2051 39.2842 47.4673 38.4574 48.5162Z" fill="#DB8808"/>
<path d="M33.8487 41.3337C31.9032 41.3337 30.3203 42.9211 30.3203 44.8723C30.3203 46.8236 31.9031 48.4109 33.8487 48.4109C35.7942 48.4109 37.3771 46.8236 37.3771 44.8723C37.3771 42.9211 35.7942 41.3337 33.8487 41.3337ZM33.8487 47.131C32.6067 47.131 31.5963 46.1177 31.5963 44.8721C31.5963 43.6266 32.6067 42.6132 33.8487 42.6132C35.0906 42.6132 36.1011 43.6266 36.1011 44.8721C36.1011 46.1177 35.0906 47.131 33.8487 47.131Z" fill="#E98C00"/>
<path d="M30.5188 54.7198H10.1942C5.36498 54.7198 1.43603 50.7796 1.43603 45.9362C1.43603 41.093 5.36487 37.1527 10.1942 37.1527H25.6067C29.2952 37.1527 32.2959 34.1431 32.2959 30.4441C32.2959 26.745 29.2952 23.7355 25.6067 23.7355H19.7355C18.2429 23.7355 17.0287 22.5177 17.0287 21.0207C17.0287 19.5237 18.2429 18.306 19.7355 18.306H30.0169C30.3692 18.306 30.6549 18.0195 30.6549 17.6662C30.6549 17.3129 30.3692 17.0264 30.0169 17.0264H19.7355C17.5394 17.0264 15.7527 18.8182 15.7527 21.0207C15.7527 23.2232 17.5394 25.0151 19.7355 25.0151H25.6067C28.5916 25.0151 31.0199 27.4505 31.0199 30.444C31.0199 33.4375 28.5915 35.8729 25.6067 35.8729H10.1942C4.66133 35.8729 0.160156 40.3872 0.160156 45.936C0.160156 51.4847 4.66144 55.9995 10.1942 55.9995H30.5188C30.8711 55.9995 31.1568 55.7129 31.1568 55.3596C31.1568 55.0064 30.8711 54.7198 30.5188 54.7198Z" fill="#F0F8F7"/>
</svg>
