<svg width="15" height="13" viewBox="0 0 15 13" fill="none" xmlns="http://www.w3.org/2000/svg">
<path d="M13.6816 0H1.31836C0.592324 0 0 0.6732 0 1.5V11.5C0 12.324 0.589688 13 1.31836 13H13.6816C14.4059 13 15 12.3291 15 11.5V1.5C15 0.676 14.4103 0 13.6816 0ZM13.4996 1L7.52795 7.79443L1.50466 1H13.4996ZM0.878906 11.2929V1.7023L5.11169 6.47697L0.878906 11.2929ZM1.50038 12L5.73583 7.181L7.21992 8.85507C7.39172 9.04887 7.66895 9.04823 7.84005 8.85353L9.28711 7.2071L13.4996 12H1.50038ZM14.1211 11.2929L9.90858 6.5L14.1211 1.70707V11.2929Z" fill="#0B327D"/>
</svg>
