<svg width="54" height="52" viewBox="0 0 54 52" fill="none" xmlns="http://www.w3.org/2000/svg">
<path d="M30.8956 3.33308C27.6181 1.15252 23.7868 0 19.8158 0C8.88943 0 0 8.75386 0 19.5139C0 30.2739 8.88943 39.0277 19.8158 39.0277C20.2514 39.0277 20.6045 38.68 20.6045 38.2511C20.6045 37.8221 20.2515 37.4744 19.8158 37.4744C9.75906 37.4744 1.57727 29.4173 1.57727 19.5138C1.57727 9.61024 9.75917 1.55334 19.8158 1.55334C23.4708 1.55334 26.9967 2.6138 30.0127 4.62036C30.3736 4.86053 30.8638 4.76695 31.1077 4.41159C31.3514 4.05603 31.2566 3.57325 30.8956 3.33308Z" fill="#F0F8F7"/>
<path d="M31.0778 34.6387C30.8345 34.2828 30.3445 34.1883 29.9832 34.4278C27.9755 35.7576 25.7583 36.6666 23.3929 37.1295C22.9657 37.2131 22.6881 37.6218 22.7731 38.0426C22.8476 38.4123 23.1771 38.6681 23.5459 38.6681C23.5968 38.6681 23.6484 38.6632 23.7004 38.6531C26.2719 38.1499 28.6818 37.162 30.8636 35.7167C31.225 35.4774 31.3208 34.9947 31.0778 34.6387Z" fill="#F0F8F7"/>
<path d="M31.0234 29.795C30.7202 29.487 30.221 29.479 29.9083 29.7777C27.1872 32.3739 23.6088 33.7997 19.8205 33.7997C19.7836 33.7997 19.7464 33.7996 19.7095 33.7993C15.8761 33.7712 12.2717 32.2852 9.56046 29.6153C6.8206 26.9172 5.31175 23.3297 5.31175 19.5139C5.31175 15.6979 6.8207 12.1105 9.56046 9.4125C12.2717 6.74304 15.876 5.25739 19.7095 5.22925C23.5426 5.20275 27.1609 6.62917 29.9083 9.25032C30.2212 9.54879 30.7204 9.54084 31.0233 9.23278C31.3264 8.92473 31.3186 8.43308 31.0056 8.1346C27.9592 5.22823 23.9448 3.64737 19.6976 3.67592C15.4474 3.70711 11.4512 5.35433 8.44507 8.31401C5.4073 11.3055 3.73438 15.283 3.73438 19.5139C3.73438 23.7447 5.4073 27.7223 8.44507 30.7137C11.4511 33.6738 15.4473 35.3214 19.6976 35.3526C19.7388 35.3529 19.7794 35.353 19.8207 35.353C24.0206 35.353 27.9888 33.7718 31.0058 30.8931C31.3187 30.5947 31.3265 30.103 31.0234 29.795Z" fill="#F0F8F7"/>
<path d="M20.6021 18.788V13.0676C22.239 13.3514 23.4674 14.4991 23.4674 15.8685C23.4674 16.2975 23.8205 16.6452 24.2561 16.6452C24.6917 16.6452 25.0448 16.2975 25.0448 15.8685C25.0448 13.6566 23.1138 11.8189 20.6021 11.4964V10.7645C20.6021 10.3355 20.249 9.98779 19.8134 9.98779C19.3778 9.98779 19.0247 10.3355 19.0247 10.7645V11.4964C16.513 11.8188 14.582 13.6566 14.582 15.8685C14.582 18.0805 16.513 19.9182 19.0247 20.2408V25.9612C17.3879 25.6773 16.1594 24.5296 16.1594 23.1602C16.1594 22.7312 15.8063 22.3835 15.3707 22.3835C14.9351 22.3835 14.582 22.7312 14.582 23.1602C14.582 25.3721 16.513 27.2098 19.0247 27.5323V28.2642C19.0247 28.6932 19.3778 29.0409 19.8134 29.0409C20.249 29.0409 20.6021 28.6932 20.6021 28.2642V27.5323C23.1138 27.2099 25.0448 25.3721 25.0448 23.1602C25.0448 20.9482 23.1138 19.1105 20.6021 18.788ZM19.0249 18.6696C17.388 18.3857 16.1596 17.238 16.1596 15.8685C16.1596 14.4991 17.388 13.3514 19.0249 13.0675V18.6696ZM20.6021 25.961V20.3589C22.239 20.6429 23.4674 21.7905 23.4674 23.16C23.4674 24.5294 22.239 25.6771 20.6021 25.961Z" fill="#E98C00"/>
<path d="M52.948 39.2825C52.829 38.986 52.5383 38.7912 52.2145 38.7912H47.2423V26.448C47.2423 26.0191 46.8893 25.6714 46.4536 25.6714C46.0179 25.6714 45.6649 26.0191 45.6649 26.448V39.5678C45.6649 39.9968 46.0179 40.3445 46.4536 40.3445H50.2188L39.5779 50.1592L28.9368 40.3445H32.702C33.1377 40.3445 33.4907 39.9968 33.4907 39.5678V1.55334H45.665V23.3412C45.665 23.7702 46.018 24.1179 46.4537 24.1179C46.8894 24.1179 47.2424 23.7702 47.2424 23.3412V0.776669C47.2424 0.347712 46.8894 0 46.4537 0H32.7019C32.2662 0 31.9132 0.347712 31.9132 0.776669V38.7912H26.9411C26.6174 38.7912 26.3265 38.986 26.2075 39.2825C26.0886 39.5789 26.1657 39.9168 26.4018 40.1347L39.0386 51.7902C39.1903 51.9301 39.384 52 39.5778 52C39.7715 52 39.9652 51.9301 40.1169 51.7902L52.7536 40.1346C52.99 39.9168 53.067 39.5788 52.948 39.2825Z" fill="#E98C00"/>
</svg>
