<svg width="50" height="50" viewBox="0 0 50 50" fill="none" xmlns="http://www.w3.org/2000/svg">
<path d="M50 0H0V50H50V0Z" fill="#61A8DE"/>
<path d="M39.3704 11.0372L5.93479 24.0667C4.85181 24.4888 4.91742 26.0429 6.03222 26.372L14.5286 28.881L17.6994 38.9424C18.0306 39.9934 19.3625 40.312 20.1334 39.5248L24.5262 35.0394L33.1454 41.3661C34.2002 42.1403 35.7024 41.5651 35.9702 40.2844L41.6787 12.992C41.9582 11.6551 40.643 10.5413 39.3704 11.0372ZM35.1785 17.0941L19.6478 30.8279C19.493 30.9648 19.3945 31.1543 19.3715 31.3596L18.7735 36.6751C18.754 36.8484 18.5114 36.8713 18.4596 36.7048L15.9995 28.7776C15.8868 28.4147 16.0337 28.0215 16.3566 27.8213L34.6967 16.4466C35.1185 16.1848 35.5503 16.7654 35.1785 17.0941Z" fill="white"/>
</svg>
