<svg width="68" height="57" viewBox="0 0 68 57" fill="none" xmlns="http://www.w3.org/2000/svg">
<path d="M67.1506 28.4947H61.9058C58.6994 19.5059 50.8534 0 43.1878 0C39.0577 0 34.4287 5.50441 29.4386 16.3315C26.7313 11.244 23.5567 7.09694 20.3822 7.09694C15.5514 7.09694 10.6782 16.7484 7.38686 25.021C6.83477 25.1279 6.30391 25.2455 5.81553 25.3844C5.58195 25.4485 5.33776 25.3737 5.16788 25.1813C4.36098 24.2408 2.9489 24.1339 2.0146 24.9462L1.05906 25.7692C0.124751 26.5815 0.01858 28.003 0.825481 28.9436L0.952886 29.0932C1.09091 29.2535 1.14399 29.4673 1.09091 29.6704C-0.363636 34.9182 -0.363636 46.4615 1.09091 51.7201C1.14399 51.9231 1.09091 52.1369 0.952886 52.2972L0.836098 52.4362C0.443265 52.8958 0.252157 53.4729 0.294625 54.0714C0.337094 54.67 0.613139 55.2151 1.06967 55.6105L2.02522 56.4335C2.95952 57.2458 4.3716 57.139 5.1785 56.1984C5.33776 56.006 5.58195 55.9312 5.81553 55.9953C8.215 56.658 11.4426 56.9893 14.6702 56.9893C17.8978 56.9893 21.1254 56.658 23.5143 55.9953C23.7478 55.9312 23.992 56.006 24.1619 56.1984C24.9688 57.139 26.3809 57.2458 27.3152 56.4335L28.2707 55.6105C28.7273 55.2151 28.9927 54.67 29.0458 54.0714C29.0883 53.4729 28.8971 52.8958 28.5043 52.4362L28.3875 52.2972C28.2495 52.1369 28.1964 51.9231 28.2495 51.7201C29.704 46.4615 29.704 34.9182 28.2495 29.6704C28.1964 29.478 28.2495 29.2535 28.3875 29.0932L28.5149 28.9436C29.3218 28.003 29.2157 26.5815 28.2814 25.7692L27.3258 24.9462C26.3915 24.1339 24.9794 24.2408 24.1725 25.1813C24.0133 25.3737 23.7691 25.4485 23.5355 25.3844C19.7452 24.337 13.9058 24.1232 9.24486 24.7324C13.3962 14.5359 17.4413 8.71086 20.4035 8.71086C24.3318 8.71086 29.4174 18.7364 33.0166 28.5053H32.3902C32.1778 28.5053 31.9761 28.5909 31.8275 28.7405C31.6788 28.8901 31.5939 29.0932 31.5939 29.307V55.2792C31.5939 56.2305 32.3583 57 33.3032 57H37.8049C38.7498 57 39.5143 56.2305 39.5143 55.2792V54.0928C39.5143 54.0287 39.5674 53.9753 39.6311 53.9753H45.7147C45.7784 53.9753 45.8315 54.0287 45.8315 54.0928V55.2792C45.8315 56.2305 46.5959 57 47.5408 57H52.0531C52.998 57 53.7624 56.2305 53.7624 55.2792V54.0928C53.7624 54.0287 53.8155 53.9753 53.8792 53.9753H59.9522C60.0159 53.9753 60.069 54.0287 60.069 54.0928V55.2792C60.069 56.2305 60.8334 57 61.7784 57H66.2906C67.2356 57 68 56.2305 68 55.2792V29.307C67.9469 28.8474 67.5859 28.4947 67.1506 28.4947ZM23.0896 26.9235C23.9071 27.1479 24.7989 26.8701 25.3616 26.2181C25.5952 25.9509 25.9987 25.9188 26.2641 26.154L27.2196 26.9769C27.4851 27.2121 27.5169 27.6182 27.2833 27.8854L27.1559 28.0351C26.6676 28.6015 26.4977 29.3711 26.6994 30.0872C28.069 35.0358 28.069 46.3225 26.6994 51.2712C26.4977 51.9873 26.6782 52.7568 27.1666 53.3233L27.2833 53.4622C27.4001 53.5905 27.4532 53.7615 27.4426 53.9325C27.432 54.1035 27.347 54.2638 27.2196 54.3707L26.2641 55.1937C25.9987 55.4288 25.5952 55.3968 25.3616 55.1296C24.7989 54.4776 23.9177 54.1997 23.0896 54.4242C18.5985 55.664 10.7206 55.664 6.2296 54.4242C6.03849 54.3707 5.84738 54.3493 5.65627 54.3493C5.01924 54.3493 4.39283 54.6272 3.96815 55.1296C3.85136 55.2578 3.70272 55.3433 3.53285 55.354C3.36297 55.3968 3.18248 55.3326 3.05508 55.2151L2.09954 54.3921C1.97213 54.2745 1.88719 54.1249 1.87658 53.9539C1.86596 53.7829 1.91904 53.6119 2.03583 53.4836L2.15262 53.3447C2.65163 52.7675 2.8215 52.0086 2.63039 51.2818C1.26078 46.3225 1.26078 35.0358 2.63039 30.0979C2.83212 29.3818 2.65163 28.6122 2.17386 28.0458L2.04645 27.8961C1.81287 27.6289 1.84472 27.2228 2.11015 26.9876L3.06569 26.1646C3.1931 26.0578 3.36297 25.9936 3.53285 26.015C3.70272 26.0257 3.86198 26.1112 3.96815 26.2395C4.53086 26.8914 5.41208 27.1693 6.24021 26.9449C10.7206 25.6837 18.5985 25.6837 23.0896 26.9235ZM43.1666 30.0979V34.9182H33.1652V30.0979H43.1666ZM44.7591 30.0979H54.7605V34.9182H44.7591V30.0979ZM66.3543 36.5215V41.3418H62.15V36.5215H66.3543ZM60.5574 41.3418H50.5561V36.5215H60.5574V41.3418ZM38.9622 36.5215H48.9635V41.3418H38.9622V36.5215ZM43.1666 42.9451V47.7654H33.1652V42.9451H43.1666ZM54.7605 47.7654H44.7591V42.9451H54.7605V47.7654ZM37.3696 36.5215V41.3418H33.1652V36.5215H37.3696ZM56.353 47.7654V42.9451H66.3543V47.7654H56.353ZM66.3543 34.9182H56.353V30.0979H66.3543V34.9182ZM30.3623 18.1378C35.1506 7.47103 39.6948 1.60323 43.1878 1.60323C48.5919 1.60323 55.4506 15.2948 60.207 28.4947H55.5567H43.9628H34.6941C33.5793 25.4165 32.0823 21.6542 30.3623 18.1378ZM66.2376 55.3861H61.7253C61.6616 55.3861 61.6085 55.3326 61.6085 55.2685V54.0821C61.6085 53.1309 60.8441 52.3613 59.8991 52.3613H53.8261C52.8812 52.3613 52.1168 53.1309 52.1168 54.0821V55.2685C52.1168 55.3326 52.0637 55.3861 52 55.3861H47.4877C47.424 55.3861 47.3709 55.3326 47.3709 55.2685V54.0821C47.3709 53.1309 46.6065 52.3613 45.6616 52.3613H39.5992C38.6543 52.3613 37.8898 53.1309 37.8898 54.0821V55.2685C37.8898 55.322 37.8474 55.3861 37.7731 55.3861H33.2714C33.2077 55.3861 33.1546 55.3326 33.1546 55.2685V49.3687H66.3543V55.2685C66.3543 55.3326 66.3013 55.3861 66.2376 55.3861Z" fill="#F0F8F7"/>
<path d="M7.72793 38.5202C7.95089 39.4287 9.09754 44.014 10.3716 45.2859C11.1466 46.0661 12.1553 46.4829 13.1533 46.4829C13.6523 46.4829 14.1407 46.3761 14.5866 46.173C14.9476 46.2905 15.3298 46.3547 15.712 46.3547C16.7737 46.3547 17.8779 45.9271 18.7167 45.0828C20.1287 43.6613 21.4559 38.2744 21.6045 37.6652C21.6894 37.3339 21.5408 36.9812 21.2648 36.7995C20.9781 36.6178 20.6065 36.6391 20.3411 36.8422C18.8441 38.0393 17.708 38.1462 16.6038 38.253C15.6589 38.3385 14.6928 38.4347 13.7372 39.1829C13.2701 39.0547 12.8135 39.0012 12.357 38.9585C11.359 38.8623 10.3397 38.7661 8.99137 37.6973C8.72594 37.4835 8.35434 37.4621 8.06768 37.6545C7.78102 37.8469 7.643 38.1889 7.72793 38.5202ZM16.7419 39.8563C17.5382 39.7815 18.4618 39.6959 19.5342 39.215C18.9715 41.1709 18.1964 43.3406 17.5806 43.9498C16.8162 44.7194 15.7332 44.9438 14.8733 44.5911L16.795 42.6566C17.1028 42.3466 17.1028 41.8336 16.795 41.5236C16.4871 41.2137 15.9774 41.2137 15.6695 41.5236L13.7585 43.4582C13.4081 42.5924 13.6311 41.5022 14.3955 40.7327C15.0962 40.0059 15.7545 39.9418 16.7419 39.8563ZM12.1977 40.5617C12.3145 40.5724 12.4207 40.5938 12.5375 40.6044C11.7943 41.9725 11.8368 43.6078 12.7074 44.8263C12.2721 44.7301 11.8368 44.5163 11.4864 44.1636C10.9768 43.6506 10.2973 41.8015 9.77704 40.038C10.7007 40.4227 11.5076 40.4976 12.1977 40.5617Z" fill="#E98C00"/>
<path d="M14.6584 51.7737C20.7314 51.7737 25.679 46.8037 25.679 40.69C25.679 34.5764 20.7314 29.5957 14.6584 29.5957C8.5854 29.5957 3.64844 34.5764 3.64844 40.69C3.64844 46.8037 8.5854 51.7737 14.6584 51.7737ZM14.6584 31.1989C19.8608 31.1989 24.0864 35.4528 24.0864 40.69C24.0864 45.9165 19.8608 50.1704 14.6584 50.1704C9.46662 50.1704 5.24101 45.9165 5.24101 40.69C5.24101 35.4635 9.46662 31.1989 14.6584 31.1989Z" fill="#F0F8F7"/>
<path d="M20.65 10.9021C20.4695 10.838 20.2784 10.838 20.1085 10.9021C17.9108 11.7144 14.9911 17.1867 13.4516 20.3718C13.2605 20.7673 13.4197 21.2482 13.8232 21.4406C13.94 21.4941 14.0567 21.5261 14.1735 21.5261C14.4708 21.5261 14.7469 21.3551 14.8849 21.0772C17.3056 16.0538 19.3228 13.2749 20.3739 12.5588C20.788 12.8367 21.5843 13.5955 22.8796 15.6049C23.1238 15.979 23.6122 16.0859 23.9838 15.84C24.3554 15.6049 24.4615 15.1026 24.2173 14.7285C22.7946 12.516 21.6268 11.2655 20.65 10.9021Z" fill="#E98C00"/>
<path d="M51.7537 17.7531C51.8917 18.0416 52.1784 18.202 52.4756 18.202C52.5924 18.202 52.7092 18.1806 52.826 18.1272C53.2188 17.9348 53.3887 17.4538 53.1976 17.0583C52.603 15.8185 51.9766 14.5894 51.3502 13.4244C51.1379 13.0396 50.6601 12.89 50.2673 13.1037C49.8851 13.3175 49.7364 13.7984 49.9488 14.1939C50.5539 15.3269 51.1697 16.5346 51.7537 17.7531Z" fill="#E98C00"/>
<path d="M47.4979 9.99349C47.7421 10.3676 48.2305 10.4745 48.6021 10.2286C48.9737 9.9828 49.0799 9.49115 48.8357 9.11706C45.3639 3.73023 43.7182 3.73022 43.1874 3.73022C42.9432 3.73022 40.7136 3.91192 36.7534 10.3569C36.5198 10.731 36.6366 11.2226 37.0082 11.4578C37.1356 11.5433 37.2843 11.5753 37.4223 11.5753C37.6877 11.5753 37.9531 11.4364 38.1018 11.1906C41.117 6.27401 42.922 5.44033 43.2405 5.32276C43.5696 5.40827 44.8543 5.88924 47.4979 9.99349Z" fill="#E98C00"/>
</svg>
