<svg width="44" height="41" viewBox="0 0 44 41" fill="none" xmlns="http://www.w3.org/2000/svg">
<path d="M43.9991 7.27842C43.984 7.15491 43.9103 7.04443 43.8033 6.98123L32.9223 0.553688C32.8012 0.482171 32.652 0.482071 32.5309 0.553588L0.195995 19.6305C0.0747951 19.702 0 19.9775 0 19.9775V33.6729C0 33.816 0.0746972 33.9484 0.195799 34.0199L3.47435 35.9565L2.86591 36.3123C2.27636 35.549 1.43834 35.2329 0.827739 35.5936C0.468253 35.8058 0.251112 36.2244 0.231924 36.7418C0.214987 37.1987 0.349011 37.7043 0.609326 38.1656C0.869542 38.6268 1.2306 38.9984 1.62572 39.2119C1.86508 39.3411 2.10875 39.406 2.33862 39.406C2.53873 39.406 2.72826 39.3568 2.89547 39.258C3.25486 39.0457 3.4721 38.6272 3.49119 38.1098C3.50441 37.7547 3.4254 37.3704 3.26778 37.0002L4.2595 36.4202L11.0757 40.4463C11.1363 40.4821 11.2039 40.5 11.2715 40.5C11.3389 40.5 11.4066 40.4821 11.4671 40.4464L14.9546 38.389C14.9662 39.1635 15.2637 39.7888 15.8 40.1055C16.04 40.2473 16.3057 40.3148 16.5832 40.3148C17.4817 40.3147 18.5021 39.6071 19.1671 38.4295C19.4383 37.9491 19.6164 37.4426 19.6969 36.9561C19.833 37.1772 20.0114 37.3581 20.23 37.4872C20.4667 37.627 20.7309 37.6966 21.0112 37.6966C21.3414 37.6966 21.694 37.5999 22.0501 37.4075C22.6497 37.0837 23.1991 36.5163 23.5971 35.8101C23.7805 35.4852 23.9203 35.1483 24.0175 34.8138L33.3767 29.2853C33.4672 29.3767 33.5671 29.4574 33.6785 29.5232C33.9152 29.663 34.1795 29.7327 34.46 29.7327C34.7899 29.7327 35.1424 29.6363 35.4981 29.4442C36.0975 29.1206 36.6471 28.5533 37.0456 27.8472C37.3163 27.3678 37.4942 26.8603 37.5747 26.3725C37.7108 26.5947 37.8899 26.776 38.1085 26.9049C38.3451 27.0447 38.6094 27.1143 38.8898 27.1143C39.22 27.1143 39.5726 27.0178 39.9287 26.8254C40.5282 26.5016 41.0779 25.9342 41.4766 25.2278C42.0043 24.2918 42.1798 23.2489 41.9637 22.4558L43.8032 21.3706C43.9244 21.2991 43.9992 21.1668 43.9992 21.0236C43.9991 21.0235 44.0011 7.29474 43.9991 7.27842ZM2.50397 38.5641C2.38277 38.6357 2.19588 38.6137 1.99147 38.5032C1.7289 38.3615 1.47241 38.0923 1.28767 37.7649C1.10293 37.4375 1.00347 37.0757 1.01463 36.7722C1.02344 36.5359 1.09804 36.3592 1.21943 36.2875C1.26682 36.2595 1.3237 36.2458 1.38723 36.2458C1.68632 36.2458 2.13254 36.5493 2.43584 37.0868C2.62057 37.4142 2.72004 37.776 2.70878 38.0795C2.69997 38.3158 2.62527 38.4925 2.50397 38.5641ZM43.2159 9.02709L39.2078 11.3916V10.3861L43.2159 8.02164V9.02709ZM33.5718 26.4814V15.6413L38.4245 12.7785V23.6186L33.5718 26.4814ZM22.2995 33.1311V22.2911L27.1524 19.4282V30.2683L22.2995 33.1311ZM16.6625 36.4566V25.6166L21.5163 22.7532V33.5933L16.6625 36.4566ZM11.6631 39.4059V28.5658L15.8793 26.0785V36.9186L11.6631 39.4059ZM0.783195 21.6766V20.6715L10.88 26.6355V27.6405L0.783195 21.6766ZM21.5163 20.8228V21.8282L16.6625 24.6916V23.6862L21.5163 20.8228ZM22.2995 20.3608L27.1524 17.4979V18.5032L22.2995 21.3661V20.3608ZM27.9357 17.0359L32.7886 14.173V15.1785L27.9357 18.0414V17.0359ZM33.175 13.0201L23.0775 7.05585L27.9017 4.20968L37.9994 10.1742L33.175 13.0201ZM32.3913 13.4825L27.5387 16.3451L17.4415 10.381L22.2938 7.51821L32.3913 13.4825ZM26.755 16.8074L21.8601 19.6951L11.7631 13.731L16.6577 10.8433L26.755 16.8074ZM21.0764 20.1574L16.2357 23.013L6.13908 17.0491L10.9795 14.1934L21.0764 20.1574ZM15.8793 25.1536L11.6631 27.6409V26.6356L15.8793 24.1483V25.1536ZM10.88 28.5657V39.4055L9.29036 38.4666V27.6268L10.88 28.5657ZM27.9357 18.9662L32.7886 16.1033V26.9434L27.9357 29.8063V18.9662ZM33.5718 14.7164V13.7111L38.4245 10.8483V11.8537L33.5718 14.7164ZM32.7264 1.36322L42.8239 7.328L38.7829 9.71191L28.6853 3.74743L32.7264 1.36322ZM5.35539 17.5115L15.452 23.4754L11.2716 25.9415L1.17509 19.9777L5.35539 17.5115ZM0.783195 22.6018L2.17767 23.4255V34.2653L0.783195 33.4416V22.6018ZM5.66348 35.1377C5.55618 34.9458 5.31692 34.8789 5.12915 34.9888L4.26156 35.4961L2.96097 34.7278V23.8881L8.50716 27.164V38.0038L5.04671 35.96L5.51781 35.6845C5.70558 35.5747 5.77078 35.3298 5.66348 35.1377ZM18.4889 38.0286C17.86 39.1426 16.8079 39.7755 16.1915 39.4115C15.8175 39.1907 15.6608 38.6096 15.7746 37.9053L18.938 36.0392C19.0329 36.6042 18.873 37.3482 18.4889 38.0286ZM22.9187 35.4096C22.5934 35.9868 22.155 36.4446 21.6843 36.699C21.4459 36.8279 20.991 37.0115 20.6216 36.7932C20.249 36.5731 20.0918 35.9942 20.2032 35.2928L23.3698 33.4247C23.4627 33.9888 23.3021 34.7308 22.9187 35.4096ZM24.077 33.0076L32.8345 27.8413C32.842 28.1173 32.8871 28.3731 32.9657 28.603L24.1755 33.7953C24.1789 33.5156 24.1468 33.2497 24.077 33.0076ZM36.3674 27.4463C36.0417 28.0235 35.6031 28.4814 35.1327 28.7354C34.8943 28.864 34.4393 29.0471 34.0701 28.8293C33.7047 28.6134 33.5457 28.0476 33.6471 27.3619L36.8211 25.4894C36.904 26.0513 36.7425 26.7819 36.3674 27.4463ZM40.7982 24.8271C40.4724 25.4044 40.0337 25.8624 39.5629 26.1167C39.3244 26.2455 38.8691 26.4291 38.4998 26.2107C38.1358 25.996 37.9767 25.4323 38.0765 24.7488L41.2525 22.8752C41.3334 23.436 41.1718 24.1646 40.7982 24.8271ZM39.2077 23.1566V12.3165L43.2158 9.952V20.7921L39.2077 23.1566Z" fill="#0B327D"/>
</svg>
