<svg width="32" height="33" viewBox="0 0 32 33" fill="none" xmlns="http://www.w3.org/2000/svg">
<g clip-path="url(#clip0_903:5402)">
<path fill-rule="evenodd" clip-rule="evenodd" d="M0 0.275635V32.1757H32V0.275635H0ZM24.8089 11.7217C24.8175 11.9161 24.8219 12.1116 24.8219 12.3079C24.8219 18.2955 20.2504 25.1994 11.8902 25.1994C9.32346 25.1994 6.93437 24.4494 4.92301 23.1636C5.27859 23.2058 5.6403 23.2272 6.00728 23.2272C8.13672 23.2272 10.0965 22.5029 11.6521 21.2874C9.66316 21.251 7.98453 19.941 7.40607 18.1409C7.68373 18.1939 7.96849 18.2224 8.26135 18.2224C8.67587 18.2224 9.07745 18.1667 9.45885 18.0634C7.37969 17.647 5.81289 15.8159 5.81289 13.6207C5.81289 13.6015 5.81289 13.5825 5.81331 13.5636C6.42602 13.9029 7.12679 14.1068 7.87193 14.1304C6.65227 13.3179 5.85009 11.9309 5.85009 10.3591C5.85009 9.52869 6.07423 8.75047 6.46555 8.08113C8.70716 10.8225 12.0563 12.6262 15.8337 12.8154C15.7561 12.4836 15.7157 12.1378 15.7157 11.7827C15.7157 9.28064 17.7509 7.25201 20.2609 7.25201C21.5682 7.25201 22.7495 7.80216 23.5785 8.68267C24.6137 8.4797 25.5865 8.10244 26.4647 7.58328C26.1254 8.64138 25.4048 9.52911 24.4663 10.09C25.3858 9.98041 26.2617 9.73678 27.0768 9.37641C26.4676 10.285 25.6971 11.083 24.8089 11.7217Z" fill="#F0F8F7"/>
</g>
<defs>
<clipPath id="clip0_903:5402">
<rect width="32" height="31.9001" fill="white" transform="translate(0 0.275635)"/>
</clipPath>
</defs>
</svg>
