<svg width="33" height="32" viewBox="0 0 33 32" fill="none" xmlns="http://www.w3.org/2000/svg">
<path d="M32.5996 0H0.599609V32H32.5996V0Z" fill="#7D3DAF"/>
<path d="M26.7196 10.315L26.7132 10.2897C26.2021 8.22325 23.8975 6.00581 21.7812 5.54448L21.7573 5.53957C18.3343 4.88655 14.8634 4.88655 11.4411 5.53957L11.4165 5.54448C9.30086 6.00581 6.99635 8.22325 6.48446 10.2897L6.47885 10.315C5.84689 13.2009 5.84689 16.1276 6.47885 19.0135L6.48446 19.0387C6.97451 21.017 9.10742 23.1326 11.1448 23.7144V26.0212C11.1448 26.8561 12.1622 27.2661 12.7408 26.6637L15.078 24.2342C15.5849 24.2626 16.092 24.2784 16.5992 24.2784C18.3223 24.2784 20.0462 24.1155 21.7573 23.789L21.7812 23.7841C23.8975 23.3227 26.2021 21.1053 26.7132 19.0388L26.7196 19.0135C27.3515 16.1276 27.3515 13.2009 26.7196 10.315ZM24.8701 18.595C24.5288 19.9431 22.779 21.6192 21.3887 21.9289C19.5686 22.275 17.7341 22.4229 15.9015 22.3722C15.865 22.3712 15.83 22.3853 15.8046 22.4114C15.5445 22.6784 14.0981 24.1632 14.0981 24.1632L12.283 26.026C12.1503 26.1644 11.9171 26.0703 11.9171 25.8793V22.0579C11.9171 21.9948 11.8721 21.9412 11.8101 21.929C11.8097 21.9289 11.8094 21.9289 11.809 21.9288C10.4187 21.6191 8.66961 19.9431 8.32766 18.5949C7.7589 15.9864 7.7589 13.342 8.32766 10.7334C8.66961 9.38527 10.4187 7.7092 11.809 7.39954C14.9877 6.79497 18.2107 6.79497 21.3887 7.39954C22.7797 7.7092 24.5288 9.38527 24.8701 10.7334C25.4394 13.3421 25.4394 15.9864 24.8701 18.595Z" fill="white"/>
<path d="M19.6232 20.359C19.4094 20.2942 19.2057 20.2506 19.0166 20.1721C17.0564 19.3588 15.2524 18.3096 13.8234 16.7013C13.0108 15.7867 12.3747 14.7542 11.8371 13.6615C11.5821 13.1433 11.3673 12.6048 11.1483 12.0698C10.9486 11.5819 11.2427 11.0779 11.5524 10.7103C11.8431 10.3654 12.217 10.1013 12.622 9.90678C12.9382 9.7549 13.25 9.84246 13.4809 10.1104C13.98 10.6897 14.4384 11.2986 14.8096 11.9701C15.0379 12.3831 14.9753 12.888 14.5616 13.1691C14.461 13.2374 14.3694 13.3176 14.2757 13.3947C14.1936 13.4623 14.1163 13.5307 14.0599 13.6222C13.957 13.7898 13.9521 13.9874 14.0184 14.1695C14.5286 15.5716 15.3885 16.6618 16.7997 17.2491C17.0256 17.343 17.2524 17.4524 17.5125 17.4221C17.9482 17.3712 18.0893 16.8933 18.3946 16.6436C18.693 16.3996 19.0743 16.3964 19.3958 16.5998C19.7173 16.8033 20.029 17.0217 20.3388 17.2425C20.6429 17.4592 20.9457 17.6711 21.2262 17.9182C21.4959 18.1557 21.5888 18.4673 21.4369 18.7897C21.1589 19.3801 20.7543 19.8713 20.1706 20.1848C20.0058 20.2732 19.809 20.3018 19.6232 20.359C19.4094 20.2941 19.809 20.3018 19.6232 20.359Z" fill="white"/>
<path d="M16.6048 9.23154C19.1688 9.30337 21.2747 11.0049 21.726 13.5398C21.8029 13.9717 21.8302 14.4133 21.8644 14.8516C21.8788 15.036 21.7744 15.2112 21.5754 15.2136C21.3699 15.216 21.2774 15.0441 21.2641 14.8598C21.2377 14.4949 21.2194 14.1285 21.1691 13.7666C20.9037 11.8567 19.3807 10.2765 17.4795 9.93743C17.1935 9.88638 16.9007 9.87297 16.6109 9.84256C16.4277 9.82332 16.1877 9.81223 16.1472 9.58452C16.1131 9.3936 16.2743 9.24158 16.456 9.23182C16.5055 9.22908 16.5552 9.23132 16.6048 9.23154C19.1688 9.30337 16.5552 9.23132 16.6048 9.23154Z" fill="white"/>
<path d="M20.5011 14.2824C20.4969 14.3145 20.4946 14.3897 20.4759 14.4607C20.4078 14.7181 20.0176 14.7503 19.9277 14.4905C19.9011 14.4134 19.8971 14.3257 19.8969 14.2427C19.896 13.6997 19.778 13.1572 19.5041 12.6847C19.2226 12.199 18.7926 11.7908 18.2881 11.5438C17.9831 11.3944 17.6532 11.3016 17.3189 11.2463C17.1728 11.2221 17.0251 11.2074 16.8783 11.187C16.7004 11.1623 16.6054 11.0489 16.6138 10.8736C16.6217 10.7093 16.7417 10.5911 16.9208 10.6012C17.5092 10.6346 18.0775 10.7618 18.6007 11.0388C19.6644 11.6021 20.2721 12.4914 20.4495 13.6787C20.4575 13.7325 20.4704 13.7858 20.4745 13.8398C20.4845 13.9731 20.4908 14.1066 20.5011 14.2824C20.4969 14.3145 20.4908 14.1066 20.5011 14.2824Z" fill="white"/>
<path d="M18.9065 14.2205C18.6919 14.2244 18.5771 14.1057 18.555 13.909C18.5396 13.7718 18.5275 13.6329 18.4948 13.4995C18.4303 13.2367 18.2907 12.9932 18.0696 12.8322C17.9653 12.7562 17.847 12.7008 17.7232 12.665C17.5658 12.6196 17.4024 12.6321 17.2454 12.5936C17.0749 12.5518 16.9806 12.4138 17.0074 12.2538C17.0318 12.1083 17.1734 11.9947 17.3325 12.0062C18.3265 12.0779 19.037 12.5919 19.1384 13.7621C19.1455 13.8447 19.154 13.9319 19.1356 14.0109C19.1043 14.1462 19.0041 14.2139 18.9065 14.2205C18.6919 14.2244 19.0041 14.2139 18.9065 14.2205Z" fill="white"/>
</svg>
