<svg width="33" height="32" viewBox="0 0 33 32" fill="none" xmlns="http://www.w3.org/2000/svg">
<path d="M32.7998 0H0.799805V32H32.7998V0Z" fill="#1BD741"/>
<path d="M5.60938 27.2028L7.17683 21.6357C6.16886 19.9233 5.63816 17.975 5.63816 15.9736C5.63816 9.81099 10.6518 4.79736 16.8144 4.79736C22.977 4.79736 27.9905 9.81099 27.9905 15.9736C27.9905 22.1362 22.977 27.1498 16.8144 27.1498C14.8942 27.1498 13.0139 26.6583 11.3505 25.7249L5.60938 27.2028ZM11.644 23.6917L11.9861 23.9006C13.4364 24.7859 15.106 25.2539 16.8144 25.2539C21.9316 25.2539 26.0947 21.0908 26.0947 15.9736C26.0947 10.8564 21.9316 6.69322 16.8144 6.69322C11.6972 6.69322 7.53402 10.8564 7.53402 15.9736C7.53402 17.7566 8.04078 19.4881 8.99938 20.9808L9.22976 21.3396L8.32712 24.5455L11.644 23.6917Z" fill="white"/>
<path d="M13.6751 10.7718L12.9499 10.7323C12.7221 10.7198 12.4987 10.796 12.3265 10.9455C11.9749 11.2508 11.4128 11.8411 11.2401 12.6102C10.9826 13.7571 11.3805 15.1614 12.4104 16.5657C13.4403 17.9701 15.3595 20.217 18.7533 21.1767C19.8469 21.4859 20.7072 21.2774 21.371 20.8528C21.8967 20.5166 22.2591 19.9768 22.3897 19.3666L22.5055 18.8258C22.5423 18.6539 22.455 18.4795 22.2953 18.4059L19.8444 17.2762C19.6853 17.2029 19.4966 17.2492 19.3896 17.3879L18.4274 18.6352C18.3548 18.7295 18.2303 18.7668 18.118 18.7274C17.4591 18.4958 15.2519 17.5714 14.0408 15.2385C13.9883 15.1373 14.0013 15.0145 14.0758 14.9282L14.9954 13.8644C15.0893 13.7558 15.1131 13.6031 15.0566 13.4711L14.0001 10.9994C13.9439 10.8678 13.8178 10.7796 13.6751 10.7718Z" fill="white"/>
</svg>
