<svg width="29" height="29" viewBox="0 0 29 29" fill="none" xmlns="http://www.w3.org/2000/svg">
<path d="M6.79688 1.24268H0V19.1819H6.79688V1.24268Z" fill="#F96B30"/>
<path d="M27.8056 13.4105C28.1674 12.9291 28.3821 12.3313 28.3821 11.6842C28.3821 10.7254 27.9106 9.87518 27.1877 9.35165C27.5495 8.87032 27.7643 8.27248 27.7643 7.6253C27.7643 6.66654 27.2933 5.81586 26.5705 5.29233C26.9319 4.81111 27.1464 4.21338 27.1464 3.56649C27.1464 1.97902 25.8549 0.6875 24.2673 0.6875H15.2038C13.7109 0.6875 12.2453 0.953258 10.8477 1.47735L8.49609 2.35925V17.2269C11.2519 20.1922 13.7742 23.0225 14.2285 23.7495V27.0913C14.2285 27.7648 14.7763 28.3127 15.4499 28.3127C18.2275 28.3127 20.4873 26.0529 20.4873 23.2753V21.768L19.5765 18.622H26.121C27.7084 18.622 29 17.3305 29 15.743C29 14.7842 28.5285 13.934 27.8056 13.4105Z" fill="#F96B30"/>
</svg>
