<svg width="12" height="12" viewBox="0 0 12 12" fill="none" xmlns="http://www.w3.org/2000/svg">
<g clip-path="url(#clip0_3_34241)">
<path d="M7.97664 6.05614C7.94572 6.0252 7.94572 5.97483 7.97664 5.94388L11.7544 2.1643C12.0774 1.84116 12.0774 1.31532 11.7544 0.992146L11.0055 0.242865C10.8489 0.0862339 10.6408 0 10.4194 0C10.198 0 9.98989 0.0862339 9.83335 0.242842L6.05562 4.02247C6.03651 4.04158 6.0147 4.04561 5.9998 4.04561C5.9849 4.04561 5.96309 4.04161 5.94397 4.02247L2.16622 0.242842C2.00968 0.0862339 1.80156 0 1.58015 0C1.35875 0 1.15065 0.0862339 0.99411 0.242842L0.245203 0.992146C-0.0778282 1.31532 -0.0778282 1.84116 0.245203 2.1643L4.02293 5.94388C4.05386 5.97483 4.05386 6.0252 4.02293 6.05614L0.245203 9.83572C-0.0778048 10.1589 -0.0778048 10.6847 0.245203 11.0079L0.99411 11.7572C1.15065 11.9138 1.35877 12 1.58015 12C1.80154 12 2.00968 11.9138 2.16622 11.7572L5.94395 7.97758C5.96307 7.95844 5.98485 7.95444 5.99978 7.95444C6.0147 7.95444 6.03646 7.95844 6.0556 7.9776L9.83333 11.7572C9.98987 11.9138 10.198 12 10.4194 12C10.6408 12 10.8489 11.9138 11.0054 11.7572L11.7543 11.0079C12.0774 10.6848 12.0774 10.1589 11.7543 9.83574L7.97664 6.05614Z" fill="#095F71"/>
</g>
<defs>
<clipPath id="clip0_3_34241">
<rect width="12" height="12" fill="white"/>
</clipPath>
</defs>
</svg>
