<svg width="21" height="21" viewBox="0 0 21 21" fill="none" xmlns="http://www.w3.org/2000/svg">
<g clip-path="url(#clip0_22_7816)">
<path d="M20.4615 17.0371L4.0038 0.579341C3.28603 -0.138426 2.12235 -0.138426 1.4057 0.579341L0.538325 1.44537C-0.179442 2.16336 -0.179442 3.32704 0.538325 4.04369L16.9961 20.5014C17.714 21.2192 18.8777 21.2192 19.5944 20.5014L20.4604 19.6354C21.1795 18.9187 21.1795 17.7548 20.4615 17.0371Z" fill="#F0F8F7"/>
<path d="M16.9961 0.579173L0.538326 17.0369C-0.179442 17.7547 -0.179442 18.9186 0.538326 19.6352L1.40436 20.5012C2.12235 21.219 3.28603 21.219 4.00268 20.5012L20.4615 4.04464C21.1795 3.32687 21.1795 2.16319 20.4615 1.44655L19.5955 0.580518C18.8777 -0.138594 17.7141 -0.138594 16.9961 0.579173Z" fill="#F0F8F7"/>
</g>
<defs>
<clipPath id="clip0_22_7816">
<rect width="21" height="21" fill="white"/>
</clipPath>
</defs>
</svg>
