<svg width="786" height="587" viewBox="0 0 786 587" fill="none" xmlns="http://www.w3.org/2000/svg">
<path d="M643 470L648.773 460L637.226 460L643 470ZM642 342L642 461L644 461L644 342L642 342Z" fill="#0A7991"/>
<path d="M498 292L488 286.226V297.774L498 292ZM281 293H489V291H281V293Z" fill="#0A7991"/>
<path d="M498 497L493.503 486.365L486.541 495.577L498 497ZM280.397 333.798L490.217 492.371L491.423 490.776L281.603 332.202L280.397 333.798Z" fill="#0A7991"/>
<path d="M272 355L276.48 365.642L283.457 356.441L272 355ZM278.568 361.234L515.396 540.797L516.604 539.203L279.776 359.641L278.568 361.234Z" fill="#0A7991"/>
<path d="M83 232L88.7735 222L77.2265 222L83 232ZM82 102L82 223L84 223L84 102L82 102Z" fill="#F96B30"/>
<path d="M83 468L88.7735 458L77.2265 458L83 468ZM82 338L82 459L84 459L84 338L82 338Z" fill="#F96B30"/>
<g filter="url(#filter0_d_371_6686)">
<rect x="3" y="1" width="280" height="109" rx="10" fill="#0A7991"/>
<rect x="3.5" y="1.5" width="279" height="108" rx="9.5" stroke="#0A7991"/>
</g>
<g filter="url(#filter1_d_371_6686)">
<rect x="3" y="237" width="280" height="109" rx="10" fill="#0A7991"/>
<rect x="3.5" y="237.5" width="279" height="108" rx="9.5" stroke="#0A7991"/>
</g>
<g filter="url(#filter2_d_371_6686)">
<rect x="503" y="237" width="280" height="109" rx="10" fill="#0A7991"/>
<rect x="503.5" y="237.5" width="279" height="108" rx="9.5" stroke="#0A7991"/>
</g>
<g filter="url(#filter3_d_371_6686)">
<rect x="503" y="473" width="280" height="109" rx="10" fill="#0A7991"/>
<rect x="503.5" y="473.5" width="279" height="108" rx="9.5" stroke="#0A7991"/>
</g>
<g filter="url(#filter4_d_371_6686)">
<rect x="3" y="473" width="280" height="109" rx="10" fill="#0A7991"/>
<rect x="3.5" y="473.5" width="279" height="108" rx="9.5" stroke="#0A7991"/>
</g>
<path d="M28.7808 43.43C29.5128 43.682 30.0828 44.078 30.4908 44.618C30.9108 45.146 31.1208 45.764 31.1208 46.472C31.1208 47.24 30.8688 47.906 30.3648 48.47C29.8608 49.034 29.1768 49.466 28.3128 49.766C27.4608 50.066 26.5248 50.216 25.5048 50.216C24.6408 50.216 23.7768 50.108 22.9128 49.892C22.0608 49.676 21.2508 49.346 20.4828 48.902L21.3828 46.814C21.9348 47.15 22.5408 47.408 23.2008 47.588C23.8728 47.756 24.5268 47.84 25.1628 47.84C26.0268 47.84 26.7408 47.684 27.3048 47.372C27.8808 47.06 28.1688 46.622 28.1688 46.058C28.1688 45.59 27.9708 45.236 27.5748 44.996C27.1908 44.756 26.6628 44.636 25.9908 44.636H22.9128V42.44H25.7748C26.3628 42.44 26.8188 42.32 27.1428 42.08C27.4788 41.84 27.6468 41.51 27.6468 41.09C27.6468 40.598 27.4068 40.214 26.9268 39.938C26.4588 39.662 25.8528 39.524 25.1088 39.524C24.5568 39.524 23.9868 39.602 23.3988 39.758C22.8108 39.902 22.2528 40.124 21.7248 40.424L20.8428 38.156C22.1748 37.472 23.6148 37.13 25.1628 37.13C26.1468 37.13 27.0528 37.274 27.8808 37.562C28.7088 37.85 29.3688 38.27 29.8608 38.822C30.3528 39.374 30.5988 40.016 30.5988 40.748C30.5988 41.348 30.4368 41.882 30.1128 42.35C29.7888 42.818 29.3448 43.178 28.7808 43.43ZM36.9753 40.172C38.4753 40.172 39.6273 40.532 40.4313 41.252C41.2353 41.96 41.6373 43.034 41.6373 44.474V50H39.0093V48.794C38.4813 49.694 37.4973 50.144 36.0573 50.144C35.3133 50.144 34.6653 50.018 34.1133 49.766C33.5733 49.514 33.1593 49.166 32.8713 48.722C32.5833 48.278 32.4393 47.774 32.4393 47.21C32.4393 46.31 32.7753 45.602 33.4473 45.086C34.1313 44.57 35.1813 44.312 36.5973 44.312H38.8293C38.8293 43.7 38.6433 43.232 38.2713 42.908C37.8993 42.572 37.3413 42.404 36.5973 42.404C36.0813 42.404 35.5713 42.488 35.0673 42.656C34.5753 42.812 34.1553 43.028 33.8073 43.304L32.7993 41.342C33.3273 40.97 33.9573 40.682 34.6893 40.478C35.4333 40.274 36.1953 40.172 36.9753 40.172ZM36.7593 48.254C37.2393 48.254 37.6653 48.146 38.0373 47.93C38.4093 47.702 38.6733 47.372 38.8293 46.94V45.95H36.9033C35.7513 45.95 35.1753 46.328 35.1753 47.084C35.1753 47.444 35.3133 47.732 35.5893 47.948C35.8773 48.152 36.2673 48.254 36.7593 48.254ZM49.7826 40.172C50.6826 40.172 51.4986 40.382 52.2306 40.802C52.9746 41.21 53.5566 41.792 53.9766 42.548C54.3966 43.292 54.6066 44.162 54.6066 45.158C54.6066 46.154 54.3966 47.03 53.9766 47.786C53.5566 48.53 52.9746 49.112 52.2306 49.532C51.4986 49.94 50.6826 50.144 49.7826 50.144C48.5466 50.144 47.5746 49.754 46.8666 48.974V53.492H44.0586V40.316H46.7406V41.432C47.4366 40.592 48.4506 40.172 49.7826 40.172ZM49.2966 47.84C50.0166 47.84 50.6046 47.6 51.0606 47.12C51.5286 46.628 51.7626 45.974 51.7626 45.158C51.7626 44.342 51.5286 43.694 51.0606 43.214C50.6046 42.722 50.0166 42.476 49.2966 42.476C48.5766 42.476 47.9826 42.722 47.5146 43.214C47.0586 43.694 46.8306 44.342 46.8306 45.158C46.8306 45.974 47.0586 46.628 47.5146 47.12C47.9826 47.6 48.5766 47.84 49.2966 47.84ZM66.0129 40.316L61.6389 50.594C61.1949 51.71 60.6429 52.496 59.9829 52.952C59.3349 53.408 58.5489 53.636 57.6249 53.636C57.1209 53.636 56.6229 53.558 56.1309 53.402C55.6389 53.246 55.2369 53.03 54.9249 52.754L55.9509 50.756C56.1669 50.948 56.4129 51.098 56.6889 51.206C56.9769 51.314 57.2589 51.368 57.5349 51.368C57.9189 51.368 58.2309 51.272 58.4709 51.08C58.7109 50.9 58.9269 50.594 59.1189 50.162L59.1549 50.072L54.9609 40.316H57.8589L60.5769 46.886L63.3129 40.316H66.0129ZM72.8953 40.982C73.8193 40.982 74.6293 41.174 75.3253 41.558C76.0213 41.93 76.5553 42.458 76.9273 43.142C77.3113 43.826 77.5033 44.618 77.5033 45.518C77.5033 46.442 77.2753 47.264 76.8193 47.984C76.3753 48.692 75.7513 49.244 74.9473 49.64C74.1433 50.024 73.2313 50.216 72.2113 50.216C70.5193 50.216 69.1873 49.676 68.2153 48.596C67.2553 47.504 66.7753 45.908 66.7753 43.808C66.7753 41.864 67.1953 40.316 68.0353 39.164C68.8873 38 70.1893 37.238 71.9413 36.878L76.5493 35.96L76.9273 38.372L72.8593 39.182C71.7553 39.398 70.9333 39.758 70.3933 40.262C69.8653 40.766 69.5533 41.48 69.4573 42.404C69.8773 41.948 70.3813 41.6 70.9693 41.36C71.5573 41.108 72.1993 40.982 72.8953 40.982ZM72.2293 48.038C72.9493 48.038 73.5253 47.804 73.9573 47.336C74.4013 46.868 74.6233 46.274 74.6233 45.554C74.6233 44.822 74.4013 44.24 73.9573 43.808C73.5253 43.376 72.9493 43.16 72.2293 43.16C71.4973 43.16 70.9093 43.376 70.4653 43.808C70.0213 44.24 69.7993 44.822 69.7993 45.554C69.7993 46.286 70.0273 46.886 70.4833 47.354C70.9393 47.81 71.5213 48.038 72.2293 48.038ZM88.8226 45.194C88.8226 45.23 88.8046 45.482 88.7686 45.95H81.4426C81.5746 46.55 81.8866 47.024 82.3786 47.372C82.8706 47.72 83.4826 47.894 84.2146 47.894C84.7186 47.894 85.1626 47.822 85.5466 47.678C85.9426 47.522 86.3086 47.282 86.6446 46.958L88.1386 48.578C87.2266 49.622 85.8946 50.144 84.1426 50.144C83.0506 50.144 82.0846 49.934 81.2446 49.514C80.4046 49.082 79.7566 48.488 79.3006 47.732C78.8446 46.976 78.6166 46.118 78.6166 45.158C78.6166 44.21 78.8386 43.358 79.2826 42.602C79.7386 41.834 80.3566 41.24 81.1366 40.82C81.9286 40.388 82.8106 40.172 83.7826 40.172C84.7306 40.172 85.5886 40.376 86.3566 40.784C87.1246 41.192 87.7246 41.78 88.1566 42.548C88.6006 43.304 88.8226 44.186 88.8226 45.194ZM83.8006 42.296C83.1646 42.296 82.6306 42.476 82.1986 42.836C81.7666 43.196 81.5026 43.688 81.4066 44.312H86.1766C86.0806 43.7 85.8166 43.214 85.3846 42.854C84.9526 42.482 84.4246 42.296 83.8006 42.296ZM100.305 46.328H98.9553V50H96.1833V46.328H94.8333L92.7813 50H89.4693L92.5113 44.996L89.6853 40.316H92.6553L94.7973 44.078H96.1833V40.316H98.9553V44.078H100.323L102.483 40.316H105.453L102.627 44.996L105.687 50H102.357L100.305 46.328ZM107.147 40.316H109.937V44.096H114.149V40.316H116.957V50H114.149V46.382H109.937V50H107.147V40.316ZM124.739 43.412C125.999 43.424 126.953 43.706 127.601 44.258C128.249 44.81 128.573 45.602 128.573 46.634C128.573 47.714 128.207 48.548 127.475 49.136C126.743 49.724 125.705 50.018 124.361 50.018L119.645 50V40.316H122.435V43.412H124.739ZM129.617 40.316H132.407V50H129.617V40.316ZM124.109 48.02C124.649 48.032 125.063 47.918 125.351 47.678C125.639 47.438 125.783 47.078 125.783 46.598C125.783 46.13 125.639 45.788 125.351 45.572C125.075 45.356 124.661 45.242 124.109 45.23L122.435 45.212V48.02H124.109ZM135.114 40.316H137.904V46.076L142.62 40.316H145.194V50H142.404V44.24L137.706 50H135.114V40.316ZM139.974 39.272C137.862 39.272 136.8 38.342 136.788 36.482H138.624C138.636 36.902 138.75 37.232 138.966 37.472C139.194 37.7 139.524 37.814 139.956 37.814C140.388 37.814 140.718 37.7 140.946 37.472C141.186 37.232 141.306 36.902 141.306 36.482H143.178C143.166 38.342 142.098 39.272 139.974 39.272ZM162.621 40.316V50H159.813V42.62H155.781V50H152.991V40.316H162.621ZM169.849 50.144C168.829 50.144 167.911 49.934 167.095 49.514C166.291 49.082 165.661 48.488 165.205 47.732C164.749 46.976 164.521 46.118 164.521 45.158C164.521 44.198 164.749 43.34 165.205 42.584C165.661 41.828 166.291 41.24 167.095 40.82C167.911 40.388 168.829 40.172 169.849 40.172C170.869 40.172 171.781 40.388 172.585 40.82C173.389 41.24 174.019 41.828 174.475 42.584C174.931 43.34 175.159 44.198 175.159 45.158C175.159 46.118 174.931 46.976 174.475 47.732C174.019 48.488 173.389 49.082 172.585 49.514C171.781 49.934 170.869 50.144 169.849 50.144ZM169.849 47.84C170.569 47.84 171.157 47.6 171.613 47.12C172.081 46.628 172.315 45.974 172.315 45.158C172.315 44.342 172.081 43.694 171.613 43.214C171.157 42.722 170.569 42.476 169.849 42.476C169.129 42.476 168.535 42.722 168.067 43.214C167.599 43.694 167.365 44.342 167.365 45.158C167.365 45.974 167.599 46.628 168.067 47.12C168.535 47.6 169.129 47.84 169.849 47.84ZM181.698 50.144C180.666 50.144 179.736 49.934 178.908 49.514C178.092 49.082 177.45 48.488 176.982 47.732C176.526 46.976 176.298 46.118 176.298 45.158C176.298 44.198 176.526 43.34 176.982 42.584C177.45 41.828 178.092 41.24 178.908 40.82C179.736 40.388 180.666 40.172 181.698 40.172C182.718 40.172 183.606 40.388 184.362 40.82C185.13 41.24 185.688 41.846 186.036 42.638L183.858 43.808C183.354 42.92 182.628 42.476 181.68 42.476C180.948 42.476 180.342 42.716 179.862 43.196C179.382 43.676 179.142 44.33 179.142 45.158C179.142 45.986 179.382 46.64 179.862 47.12C180.342 47.6 180.948 47.84 181.68 47.84C182.64 47.84 183.366 47.396 183.858 46.508L186.036 47.696C185.688 48.464 185.13 49.064 184.362 49.496C183.606 49.928 182.718 50.144 181.698 50.144ZM195.843 42.62H192.567V50H189.777V42.62H186.501V40.316H195.843V42.62ZM201.102 40.172C202.602 40.172 203.754 40.532 204.558 41.252C205.362 41.96 205.764 43.034 205.764 44.474V50H203.136V48.794C202.608 49.694 201.624 50.144 200.184 50.144C199.44 50.144 198.792 50.018 198.24 49.766C197.7 49.514 197.286 49.166 196.998 48.722C196.71 48.278 196.566 47.774 196.566 47.21C196.566 46.31 196.902 45.602 197.574 45.086C198.258 44.57 199.308 44.312 200.724 44.312H202.956C202.956 43.7 202.77 43.232 202.398 42.908C202.026 42.572 201.468 42.404 200.724 42.404C200.208 42.404 199.698 42.488 199.194 42.656C198.702 42.812 198.282 43.028 197.934 43.304L196.926 41.342C197.454 40.97 198.084 40.682 198.816 40.478C199.56 40.274 200.322 40.172 201.102 40.172ZM200.886 48.254C201.366 48.254 201.792 48.146 202.164 47.93C202.536 47.702 202.8 47.372 202.956 46.94V45.95H201.03C199.878 45.95 199.302 46.328 199.302 47.084C199.302 47.444 199.44 47.732 199.716 47.948C200.004 48.152 200.394 48.254 200.886 48.254ZM215.602 44.942C216.742 45.326 217.312 46.094 217.312 47.246C217.312 48.122 216.982 48.8 216.322 49.28C215.662 49.76 214.678 50 213.37 50H208.204V40.316H213.154C214.366 40.316 215.314 40.538 215.998 40.982C216.682 41.414 217.024 42.026 217.024 42.818C217.024 43.298 216.898 43.724 216.646 44.096C216.406 44.456 216.058 44.738 215.602 44.942ZM210.778 44.294H212.902C213.886 44.294 214.378 43.946 214.378 43.25C214.378 42.566 213.886 42.224 212.902 42.224H210.778V44.294ZM213.136 48.092C214.168 48.092 214.684 47.738 214.684 47.03C214.684 46.658 214.564 46.388 214.324 46.22C214.084 46.04 213.706 45.95 213.19 45.95H210.778V48.092H213.136ZM234.179 40.316V50H219.401V40.316H222.191V47.696H225.413V40.316H228.203V47.696H231.389V40.316H234.179ZM235.529 47.696V51.926H232.919V50H231.317V47.696H235.529ZM236.873 40.316H239.663V46.076L244.379 40.316H246.953V50H244.163V44.24L239.465 50H236.873V40.316ZM253.919 46.328H252.461V50H249.653V40.316H252.461V44.078H253.973L256.601 40.316H259.589L256.205 44.96L259.823 50H256.511L253.919 46.328ZM56.2486 78.492C55.5286 77.4 54.9706 76.134 54.5746 74.694C54.1906 73.254 53.9986 71.712 53.9986 70.068C53.9986 68.424 54.1906 66.882 54.5746 65.442C54.9706 63.99 55.5286 62.724 56.2486 61.644H58.9306C58.1746 62.976 57.6226 64.332 57.2746 65.712C56.9266 67.08 56.7526 68.532 56.7526 70.068C56.7526 71.604 56.9266 73.062 57.2746 74.442C57.6226 75.81 58.1746 77.16 58.9306 78.492H56.2486ZM70.0982 65.316V75H67.2902V67.62H63.2582V75H60.4682V65.316H70.0982ZM78.4964 65.172C79.3964 65.172 80.2124 65.382 80.9444 65.802C81.6884 66.21 82.2704 66.792 82.6904 67.548C83.1104 68.292 83.3204 69.162 83.3204 70.158C83.3204 71.154 83.1104 72.03 82.6904 72.786C82.2704 73.53 81.6884 74.112 80.9444 74.532C80.2124 74.94 79.3964 75.144 78.4964 75.144C77.2604 75.144 76.2884 74.754 75.5804 73.974V78.492H72.7724V65.316H75.4544V66.432C76.1504 65.592 77.1644 65.172 78.4964 65.172ZM78.0104 72.84C78.7304 72.84 79.3184 72.6 79.7744 72.12C80.2424 71.628 80.4764 70.974 80.4764 70.158C80.4764 69.342 80.2424 68.694 79.7744 68.214C79.3184 67.722 78.7304 67.476 78.0104 67.476C77.2904 67.476 76.6964 67.722 76.2284 68.214C75.7724 68.694 75.5444 69.342 75.5444 70.158C75.5444 70.974 75.7724 71.628 76.2284 72.12C76.6964 72.6 77.2904 72.84 78.0104 72.84ZM89.8245 75.144C88.8045 75.144 87.8865 74.934 87.0705 74.514C86.2665 74.082 85.6365 73.488 85.1805 72.732C84.7245 71.976 84.4965 71.118 84.4965 70.158C84.4965 69.198 84.7245 68.34 85.1805 67.584C85.6365 66.828 86.2665 66.24 87.0705 65.82C87.8865 65.388 88.8045 65.172 89.8245 65.172C90.8445 65.172 91.7565 65.388 92.5605 65.82C93.3645 66.24 93.9945 66.828 94.4505 67.584C94.9065 68.34 95.1345 69.198 95.1345 70.158C95.1345 71.118 94.9065 71.976 94.4505 72.732C93.9945 73.488 93.3645 74.082 92.5605 74.514C91.7565 74.934 90.8445 75.144 89.8245 75.144ZM89.8245 72.84C90.5445 72.84 91.1325 72.6 91.5885 72.12C92.0565 71.628 92.2905 70.974 92.2905 70.158C92.2905 69.342 92.0565 68.694 91.5885 68.214C91.1325 67.722 90.5445 67.476 89.8245 67.476C89.1045 67.476 88.5105 67.722 88.0425 68.214C87.5745 68.694 87.3405 69.342 87.3405 70.158C87.3405 70.974 87.5745 71.628 88.0425 72.12C88.5105 72.6 89.1045 72.84 89.8245 72.84ZM107.779 72.696V77.088H105.169V75H98.3652V77.088H95.7552V72.696H96.1512C96.7512 72.684 97.1652 72.33 97.3932 71.634C97.6212 70.938 97.7652 69.948 97.8252 68.664L97.9512 65.316H106.393V72.696H107.779ZM100.363 68.862C100.327 69.846 100.249 70.65 100.129 71.274C100.021 71.898 99.8112 72.372 99.4992 72.696H103.585V67.62H100.417L100.363 68.862ZM113.308 65.172C114.808 65.172 115.96 65.532 116.764 66.252C117.568 66.96 117.97 68.034 117.97 69.474V75H115.342V73.794C114.814 74.694 113.83 75.144 112.39 75.144C111.646 75.144 110.998 75.018 110.446 74.766C109.906 74.514 109.492 74.166 109.204 73.722C108.916 73.278 108.772 72.774 108.772 72.21C108.772 71.31 109.108 70.602 109.78 70.086C110.464 69.57 111.514 69.312 112.93 69.312H115.162C115.162 68.7 114.976 68.232 114.604 67.908C114.232 67.572 113.674 67.404 112.93 67.404C112.414 67.404 111.904 67.488 111.4 67.656C110.908 67.812 110.488 68.028 110.14 68.304L109.132 66.342C109.66 65.97 110.29 65.682 111.022 65.478C111.766 65.274 112.528 65.172 113.308 65.172ZM113.092 73.254C113.572 73.254 113.998 73.146 114.37 72.93C114.742 72.702 115.006 72.372 115.162 71.94V70.95H113.236C112.084 70.95 111.508 71.328 111.508 72.084C111.508 72.444 111.646 72.732 111.922 72.948C112.21 73.152 112.6 73.254 113.092 73.254ZM127.808 69.942C128.948 70.326 129.518 71.094 129.518 72.246C129.518 73.122 129.188 73.8 128.528 74.28C127.868 74.76 126.884 75 125.576 75H120.41V65.316H125.36C126.572 65.316 127.52 65.538 128.204 65.982C128.888 66.414 129.23 67.026 129.23 67.818C129.23 68.298 129.104 68.724 128.852 69.096C128.612 69.456 128.264 69.738 127.808 69.942ZM122.984 69.294H125.108C126.092 69.294 126.584 68.946 126.584 68.25C126.584 67.566 126.092 67.224 125.108 67.224H122.984V69.294ZM125.342 73.092C126.374 73.092 126.89 72.738 126.89 72.03C126.89 71.658 126.77 71.388 126.53 71.22C126.29 71.04 125.912 70.95 125.396 70.95H122.984V73.092H125.342ZM141.021 70.194C141.021 70.23 141.003 70.482 140.967 70.95H133.641C133.773 71.55 134.085 72.024 134.577 72.372C135.069 72.72 135.681 72.894 136.413 72.894C136.917 72.894 137.361 72.822 137.745 72.678C138.141 72.522 138.507 72.282 138.843 71.958L140.337 73.578C139.425 74.622 138.093 75.144 136.341 75.144C135.249 75.144 134.283 74.934 133.443 74.514C132.603 74.082 131.955 73.488 131.499 72.732C131.043 71.976 130.815 71.118 130.815 70.158C130.815 69.21 131.037 68.358 131.481 67.602C131.937 66.834 132.555 66.24 133.335 65.82C134.127 65.388 135.009 65.172 135.981 65.172C136.929 65.172 137.787 65.376 138.555 65.784C139.323 66.192 139.923 66.78 140.355 67.548C140.799 68.304 141.021 69.186 141.021 70.194ZM135.999 67.296C135.363 67.296 134.829 67.476 134.397 67.836C133.965 68.196 133.701 68.688 133.605 69.312H138.375C138.279 68.7 138.015 68.214 137.583 67.854C137.151 67.482 136.623 67.296 135.999 67.296ZM154.081 72.696V77.124H151.471V75H143.173V65.316H145.963V72.696H149.869V65.316H152.677V72.696H154.081ZM169.081 67.62H165.805V75H163.015V67.62H159.739V65.316H169.081V67.62ZM174.709 75.144C173.689 75.144 172.771 74.934 171.955 74.514C171.151 74.082 170.521 73.488 170.065 72.732C169.609 71.976 169.381 71.118 169.381 70.158C169.381 69.198 169.609 68.34 170.065 67.584C170.521 66.828 171.151 66.24 171.955 65.82C172.771 65.388 173.689 65.172 174.709 65.172C175.729 65.172 176.641 65.388 177.445 65.82C178.249 66.24 178.879 66.828 179.335 67.584C179.791 68.34 180.019 69.198 180.019 70.158C180.019 71.118 179.791 71.976 179.335 72.732C178.879 73.488 178.249 74.082 177.445 74.514C176.641 74.934 175.729 75.144 174.709 75.144ZM174.709 72.84C175.429 72.84 176.017 72.6 176.473 72.12C176.941 71.628 177.175 70.974 177.175 70.158C177.175 69.342 176.941 68.694 176.473 68.214C176.017 67.722 175.429 67.476 174.709 67.476C173.989 67.476 173.395 67.722 172.927 68.214C172.459 68.694 172.225 69.342 172.225 70.158C172.225 70.974 172.459 71.628 172.927 72.12C173.395 72.6 173.989 72.84 174.709 72.84ZM189.349 69.942C190.489 70.326 191.059 71.094 191.059 72.246C191.059 73.122 190.729 73.8 190.069 74.28C189.409 74.76 188.425 75 187.117 75H181.951V65.316H186.901C188.113 65.316 189.061 65.538 189.745 65.982C190.429 66.414 190.771 67.026 190.771 67.818C190.771 68.298 190.645 68.724 190.393 69.096C190.153 69.456 189.805 69.738 189.349 69.942ZM184.525 69.294H186.649C187.633 69.294 188.125 68.946 188.125 68.25C188.125 67.566 187.633 67.224 186.649 67.224H184.525V69.294ZM186.883 73.092C187.915 73.092 188.431 72.738 188.431 72.03C188.431 71.658 188.311 71.388 188.071 71.22C187.831 71.04 187.453 70.95 186.937 70.95H184.525V73.092H186.883ZM196.91 65.172C198.41 65.172 199.562 65.532 200.366 66.252C201.17 66.96 201.572 68.034 201.572 69.474V75H198.944V73.794C198.416 74.694 197.432 75.144 195.992 75.144C195.248 75.144 194.6 75.018 194.048 74.766C193.508 74.514 193.094 74.166 192.806 73.722C192.518 73.278 192.374 72.774 192.374 72.21C192.374 71.31 192.71 70.602 193.382 70.086C194.066 69.57 195.116 69.312 196.532 69.312H198.764C198.764 68.7 198.578 68.232 198.206 67.908C197.834 67.572 197.276 67.404 196.532 67.404C196.016 67.404 195.506 67.488 195.002 67.656C194.51 67.812 194.09 68.028 193.742 68.304L192.734 66.342C193.262 65.97 193.892 65.682 194.624 65.478C195.368 65.274 196.13 65.172 196.91 65.172ZM196.694 73.254C197.174 73.254 197.6 73.146 197.972 72.93C198.344 72.702 198.608 72.372 198.764 71.94V70.95H196.838C195.686 70.95 195.11 71.328 195.11 72.084C195.11 72.444 195.248 72.732 195.524 72.948C195.812 73.152 196.202 73.254 196.694 73.254ZM209.717 65.172C210.617 65.172 211.433 65.382 212.165 65.802C212.909 66.21 213.491 66.792 213.911 67.548C214.331 68.292 214.541 69.162 214.541 70.158C214.541 71.154 214.331 72.03 213.911 72.786C213.491 73.53 212.909 74.112 212.165 74.532C211.433 74.94 210.617 75.144 209.717 75.144C208.481 75.144 207.509 74.754 206.801 73.974V78.492H203.993V65.316H206.675V66.432C207.371 65.592 208.385 65.172 209.717 65.172ZM209.231 72.84C209.951 72.84 210.539 72.6 210.995 72.12C211.463 71.628 211.697 70.974 211.697 70.158C211.697 69.342 211.463 68.694 210.995 68.214C210.539 67.722 209.951 67.476 209.231 67.476C208.511 67.476 207.917 67.722 207.449 68.214C206.993 68.694 206.765 69.342 206.765 70.158C206.765 70.974 206.993 71.628 207.449 72.12C207.917 72.6 208.511 72.84 209.231 72.84ZM220.113 65.172C221.613 65.172 222.765 65.532 223.569 66.252C224.373 66.96 224.775 68.034 224.775 69.474V75H222.147V73.794C221.619 74.694 220.635 75.144 219.195 75.144C218.451 75.144 217.803 75.018 217.251 74.766C216.711 74.514 216.297 74.166 216.009 73.722C215.721 73.278 215.577 72.774 215.577 72.21C215.577 71.31 215.913 70.602 216.585 70.086C217.269 69.57 218.319 69.312 219.735 69.312H221.967C221.967 68.7 221.781 68.232 221.409 67.908C221.037 67.572 220.479 67.404 219.735 67.404C219.219 67.404 218.709 67.488 218.205 67.656C217.713 67.812 217.293 68.028 216.945 68.304L215.937 66.342C216.465 65.97 217.095 65.682 217.827 65.478C218.571 65.274 219.333 65.172 220.113 65.172ZM219.897 73.254C220.377 73.254 220.803 73.146 221.175 72.93C221.547 72.702 221.811 72.372 221.967 71.94V70.95H220.041C218.889 70.95 218.313 71.328 218.313 72.084C218.313 72.444 218.451 72.732 218.727 72.948C219.015 73.152 219.405 73.254 219.897 73.254ZM226.044 78.492C226.8 77.16 227.352 75.81 227.7 74.442C228.06 73.062 228.24 71.604 228.24 70.068C228.24 68.532 228.06 67.08 227.7 65.712C227.352 64.332 226.8 62.976 226.044 61.644H228.726C229.458 62.712 230.016 63.972 230.4 65.424C230.796 66.864 230.994 68.412 230.994 70.068C230.994 71.724 230.802 73.272 230.418 74.712C230.034 76.14 229.47 77.4 228.726 78.492H226.044Z" fill="white"/>
<path d="M94.566 285.4H97.464V293.608L103.476 285.4H106.212V298H103.332V289.81L97.32 298H94.566V285.4ZM118.583 298V292.204L115.685 297.064H114.497L111.671 292.186V298H109.133V288.316H112.067L115.163 293.914L118.457 288.316H121.085L121.121 298H118.583ZM133.441 288.316V298H130.633V290.62H126.601V298H123.811V288.316H133.441ZM140.669 298.144C139.649 298.144 138.731 297.934 137.915 297.514C137.111 297.082 136.481 296.488 136.025 295.732C135.569 294.976 135.341 294.118 135.341 293.158C135.341 292.198 135.569 291.34 136.025 290.584C136.481 289.828 137.111 289.24 137.915 288.82C138.731 288.388 139.649 288.172 140.669 288.172C141.689 288.172 142.601 288.388 143.405 288.82C144.209 289.24 144.839 289.828 145.295 290.584C145.751 291.34 145.979 292.198 145.979 293.158C145.979 294.118 145.751 294.976 145.295 295.732C144.839 296.488 144.209 297.082 143.405 297.514C142.601 297.934 141.689 298.144 140.669 298.144ZM140.669 295.84C141.389 295.84 141.977 295.6 142.433 295.12C142.901 294.628 143.135 293.974 143.135 293.158C143.135 292.342 142.901 291.694 142.433 291.214C141.977 290.722 141.389 290.476 140.669 290.476C139.949 290.476 139.355 290.722 138.887 291.214C138.419 291.694 138.185 292.342 138.185 293.158C138.185 293.974 138.419 294.628 138.887 295.12C139.355 295.6 139.949 295.84 140.669 295.84ZM153.617 288.172C154.517 288.172 155.333 288.382 156.065 288.802C156.809 289.21 157.391 289.792 157.811 290.548C158.231 291.292 158.441 292.162 158.441 293.158C158.441 294.154 158.231 295.03 157.811 295.786C157.391 296.53 156.809 297.112 156.065 297.532C155.333 297.94 154.517 298.144 153.617 298.144C152.381 298.144 151.409 297.754 150.701 296.974V301.492H147.893V288.316H150.575V289.432C151.271 288.592 152.285 288.172 153.617 288.172ZM153.131 295.84C153.851 295.84 154.439 295.6 154.895 295.12C155.363 294.628 155.597 293.974 155.597 293.158C155.597 292.342 155.363 291.694 154.895 291.214C154.439 290.722 153.851 290.476 153.131 290.476C152.411 290.476 151.817 290.722 151.349 291.214C150.893 291.694 150.665 292.342 150.665 293.158C150.665 293.974 150.893 294.628 151.349 295.12C151.817 295.6 152.411 295.84 153.131 295.84ZM168.193 290.62H164.917V298H162.127V290.62H158.851V288.316H168.193V290.62ZM178.7 293.194C178.7 293.23 178.682 293.482 178.646 293.95H171.32C171.452 294.55 171.764 295.024 172.256 295.372C172.748 295.72 173.36 295.894 174.092 295.894C174.596 295.894 175.04 295.822 175.424 295.678C175.82 295.522 176.186 295.282 176.522 294.958L178.016 296.578C177.104 297.622 175.772 298.144 174.02 298.144C172.928 298.144 171.962 297.934 171.122 297.514C170.282 297.082 169.634 296.488 169.178 295.732C168.722 294.976 168.494 294.118 168.494 293.158C168.494 292.21 168.716 291.358 169.16 290.602C169.616 289.834 170.234 289.24 171.014 288.82C171.806 288.388 172.688 288.172 173.66 288.172C174.608 288.172 175.466 288.376 176.234 288.784C177.002 289.192 177.602 289.78 178.034 290.548C178.478 291.304 178.7 292.186 178.7 293.194ZM173.678 290.296C173.042 290.296 172.508 290.476 172.076 290.836C171.644 291.196 171.38 291.688 171.284 292.312H176.054C175.958 291.7 175.694 291.214 175.262 290.854C174.83 290.482 174.302 290.296 173.678 290.296ZM186.558 288.172C187.458 288.172 188.274 288.382 189.006 288.802C189.75 289.21 190.332 289.792 190.752 290.548C191.172 291.292 191.382 292.162 191.382 293.158C191.382 294.154 191.172 295.03 190.752 295.786C190.332 296.53 189.75 297.112 189.006 297.532C188.274 297.94 187.458 298.144 186.558 298.144C185.322 298.144 184.35 297.754 183.642 296.974V301.492H180.834V288.316H183.516V289.432C184.212 288.592 185.226 288.172 186.558 288.172ZM186.072 295.84C186.792 295.84 187.38 295.6 187.836 295.12C188.304 294.628 188.538 293.974 188.538 293.158C188.538 292.342 188.304 291.694 187.836 291.214C187.38 290.722 186.792 290.476 186.072 290.476C185.352 290.476 184.758 290.722 184.29 291.214C183.834 291.694 183.606 292.342 183.606 293.158C183.606 293.974 183.834 294.628 184.29 295.12C184.758 295.6 185.352 295.84 186.072 295.84Z" fill="white"/>
<path d="M609.584 287.776H605.552V298H602.672V287.776H598.658V285.4H609.584V287.776ZM614.468 288.172C615.968 288.172 617.12 288.532 617.924 289.252C618.728 289.96 619.13 291.034 619.13 292.474V298H616.502V296.794C615.974 297.694 614.99 298.144 613.55 298.144C612.806 298.144 612.158 298.018 611.606 297.766C611.066 297.514 610.652 297.166 610.364 296.722C610.076 296.278 609.932 295.774 609.932 295.21C609.932 294.31 610.268 293.602 610.94 293.086C611.624 292.57 612.674 292.312 614.09 292.312H616.322C616.322 291.7 616.136 291.232 615.764 290.908C615.392 290.572 614.834 290.404 614.09 290.404C613.574 290.404 613.064 290.488 612.56 290.656C612.068 290.812 611.648 291.028 611.3 291.304L610.292 289.342C610.82 288.97 611.45 288.682 612.182 288.478C612.926 288.274 613.688 288.172 614.468 288.172ZM614.252 296.254C614.732 296.254 615.158 296.146 615.53 295.93C615.902 295.702 616.166 295.372 616.322 294.94V293.95H614.396C613.244 293.95 612.668 294.328 612.668 295.084C612.668 295.444 612.806 295.732 613.082 295.948C613.37 296.152 613.76 296.254 614.252 296.254ZM631.02 298V292.204L628.122 297.064H626.934L624.108 292.186V298H621.57V288.316H624.504L627.6 293.914L630.894 288.316H633.522L633.558 298H631.02ZM640.783 298.144C639.763 298.144 638.845 297.934 638.029 297.514C637.225 297.082 636.595 296.488 636.139 295.732C635.683 294.976 635.455 294.118 635.455 293.158C635.455 292.198 635.683 291.34 636.139 290.584C636.595 289.828 637.225 289.24 638.029 288.82C638.845 288.388 639.763 288.172 640.783 288.172C641.803 288.172 642.715 288.388 643.519 288.82C644.323 289.24 644.953 289.828 645.409 290.584C645.865 291.34 646.093 292.198 646.093 293.158C646.093 294.118 645.865 294.976 645.409 295.732C644.953 296.488 644.323 297.082 643.519 297.514C642.715 297.934 641.803 298.144 640.783 298.144ZM640.783 295.84C641.503 295.84 642.091 295.6 642.547 295.12C643.015 294.628 643.249 293.974 643.249 293.158C643.249 292.342 643.015 291.694 642.547 291.214C642.091 290.722 641.503 290.476 640.783 290.476C640.063 290.476 639.469 290.722 639.001 291.214C638.533 291.694 638.299 292.342 638.299 293.158C638.299 293.974 638.533 294.628 639.001 295.12C639.469 295.6 640.063 295.84 640.783 295.84ZM657.32 294.328H655.97V298H653.198V294.328H651.848L649.796 298H646.484L649.526 292.996L646.7 288.316H649.67L651.812 292.078H653.198V288.316H655.97V292.078H657.338L659.498 288.316H662.468L659.642 292.996L662.702 298H659.372L657.32 294.328ZM664.162 288.316H666.952V292.096H671.164V288.316H673.972V298H671.164V294.382H666.952V298H664.162V288.316ZM685.264 288.316V298H682.762V295.228H680.692L678.856 298H675.868L678.082 294.832C677.41 294.568 676.894 294.19 676.534 293.698C676.186 293.194 676.012 292.588 676.012 291.88C676.012 290.74 676.42 289.864 677.236 289.252C678.064 288.628 679.198 288.316 680.638 288.316H685.264ZM680.692 290.602C680.092 290.602 679.636 290.71 679.324 290.926C679.024 291.142 678.874 291.49 678.874 291.97C678.874 292.45 679.018 292.804 679.306 293.032C679.606 293.248 680.056 293.356 680.656 293.356H682.762V290.602H680.692Z" fill="white"/>
<path d="M598.773 523.776H592.779L592.797 534H589.899V521.4H598.791L598.773 523.776ZM602.375 534.144C601.355 534.144 600.437 533.934 599.621 533.514C598.817 533.082 598.187 532.488 597.731 531.732C597.275 530.976 597.047 530.118 597.047 529.158C597.047 528.198 597.275 527.34 597.731 526.584C598.187 525.828 598.817 525.24 599.621 524.82C600.437 524.388 601.355 524.172 602.375 524.172C603.395 524.172 604.307 524.388 605.111 524.82C605.915 525.24 606.545 525.828 607.001 526.584C607.457 527.34 607.685 528.198 607.685 529.158C607.685 530.118 607.457 530.976 607.001 531.732C606.545 532.488 605.915 533.082 605.111 533.514C604.307 533.934 603.395 534.144 602.375 534.144ZM602.375 531.84C603.095 531.84 603.683 531.6 604.139 531.12C604.607 530.628 604.841 529.974 604.841 529.158C604.841 528.342 604.607 527.694 604.139 527.214C603.683 526.722 603.095 526.476 602.375 526.476C601.655 526.476 601.061 526.722 600.593 527.214C600.125 527.694 599.891 528.342 599.891 529.158C599.891 529.974 600.125 530.628 600.593 531.12C601.061 531.6 601.655 531.84 602.375 531.84ZM614.225 534.144C613.193 534.144 612.263 533.934 611.435 533.514C610.619 533.082 609.977 532.488 609.509 531.732C609.053 530.976 608.825 530.118 608.825 529.158C608.825 528.198 609.053 527.34 609.509 526.584C609.977 525.828 610.619 525.24 611.435 524.82C612.263 524.388 613.193 524.172 614.225 524.172C615.245 524.172 616.133 524.388 616.889 524.82C617.657 525.24 618.215 525.846 618.563 526.638L616.385 527.808C615.881 526.92 615.155 526.476 614.207 526.476C613.475 526.476 612.869 526.716 612.389 527.196C611.909 527.676 611.669 528.33 611.669 529.158C611.669 529.986 611.909 530.64 612.389 531.12C612.869 531.6 613.475 531.84 614.207 531.84C615.167 531.84 615.893 531.396 616.385 530.508L618.563 531.696C618.215 532.464 617.657 533.064 616.889 533.496C616.133 533.928 615.245 534.144 614.225 534.144ZM625.761 524.982C626.685 524.982 627.495 525.174 628.191 525.558C628.887 525.93 629.421 526.458 629.793 527.142C630.177 527.826 630.369 528.618 630.369 529.518C630.369 530.442 630.141 531.264 629.685 531.984C629.241 532.692 628.617 533.244 627.813 533.64C627.009 534.024 626.097 534.216 625.077 534.216C623.385 534.216 622.053 533.676 621.081 532.596C620.121 531.504 619.641 529.908 619.641 527.808C619.641 525.864 620.061 524.316 620.901 523.164C621.753 522 623.055 521.238 624.807 520.878L629.415 519.96L629.793 522.372L625.725 523.182C624.621 523.398 623.799 523.758 623.259 524.262C622.731 524.766 622.419 525.48 622.323 526.404C622.743 525.948 623.247 525.6 623.835 525.36C624.423 525.108 625.065 524.982 625.761 524.982ZM625.095 532.038C625.815 532.038 626.391 531.804 626.823 531.336C627.267 530.868 627.489 530.274 627.489 529.554C627.489 528.822 627.267 528.24 626.823 527.808C626.391 527.376 625.815 527.16 625.095 527.16C624.363 527.16 623.775 527.376 623.331 527.808C622.887 528.24 622.665 528.822 622.665 529.554C622.665 530.286 622.893 530.886 623.349 531.354C623.805 531.81 624.387 532.038 625.095 532.038ZM641.437 524.172C642.421 524.172 643.303 524.388 644.083 524.82C644.863 525.24 645.475 525.828 645.919 526.584C646.363 527.34 646.585 528.198 646.585 529.158C646.585 530.118 646.363 530.976 645.919 531.732C645.475 532.488 644.863 533.082 644.083 533.514C643.303 533.934 642.421 534.144 641.437 534.144C640.585 534.144 639.805 533.988 639.097 533.676C638.389 533.352 637.801 532.902 637.333 532.326C636.865 531.738 636.553 531.066 636.397 530.31H635.065V534H632.275V524.316H635.065V527.88H636.415C636.691 526.752 637.279 525.852 638.179 525.18C639.079 524.508 640.165 524.172 641.437 524.172ZM641.437 531.84C642.121 531.84 642.685 531.6 643.129 531.12C643.585 530.628 643.813 529.974 643.813 529.158C643.813 528.33 643.585 527.676 643.129 527.196C642.685 526.716 642.121 526.476 641.437 526.476C640.741 526.476 640.165 526.716 639.709 527.196C639.265 527.676 639.043 528.33 639.043 529.158C639.043 529.974 639.265 530.628 639.709 531.12C640.165 531.6 640.741 531.84 641.437 531.84ZM659.248 531.696V536.088H656.638V534H649.834V536.088H647.224V531.696H647.62C648.22 531.684 648.634 531.33 648.862 530.634C649.09 529.938 649.234 528.948 649.294 527.664L649.42 524.316H657.862V531.696H659.248ZM651.832 527.862C651.796 528.846 651.718 529.65 651.598 530.274C651.49 530.898 651.28 531.372 650.968 531.696H655.054V526.62H651.886L651.832 527.862ZM670.609 530.328H669.259V534H666.487V530.328H665.137L663.085 534H659.773L662.815 528.996L659.989 524.316H662.959L665.101 528.078H666.487V524.316H669.259V528.078H670.627L672.787 524.316H675.757L672.931 528.996L675.991 534H672.661L670.609 530.328ZM686.566 529.194C686.566 529.23 686.548 529.482 686.512 529.95H679.186C679.318 530.55 679.63 531.024 680.122 531.372C680.614 531.72 681.226 531.894 681.958 531.894C682.462 531.894 682.906 531.822 683.29 531.678C683.686 531.522 684.052 531.282 684.388 530.958L685.882 532.578C684.97 533.622 683.638 534.144 681.886 534.144C680.794 534.144 679.828 533.934 678.988 533.514C678.148 533.082 677.5 532.488 677.044 531.732C676.588 530.976 676.36 530.118 676.36 529.158C676.36 528.21 676.582 527.358 677.026 526.602C677.482 525.834 678.1 525.24 678.88 524.82C679.672 524.388 680.554 524.172 681.526 524.172C682.474 524.172 683.332 524.376 684.1 524.784C684.868 525.192 685.468 525.78 685.9 526.548C686.344 527.304 686.566 528.186 686.566 529.194ZM681.544 526.296C680.908 526.296 680.374 526.476 679.942 526.836C679.51 527.196 679.246 527.688 679.15 528.312H683.92C683.824 527.7 683.56 527.214 683.128 526.854C682.696 526.482 682.168 526.296 681.544 526.296ZM696.52 526.62H693.244V534H690.454V526.62H687.178V524.316H696.52V526.62Z" fill="white"/>
<path d="M97.4377 521.4V534H94.5397V523.776H88.8517V534H85.9537V521.4H97.4377ZM104.881 534.144C103.861 534.144 102.943 533.934 102.127 533.514C101.323 533.082 100.693 532.488 100.237 531.732C99.7811 530.976 99.5531 530.118 99.5531 529.158C99.5531 528.198 99.7811 527.34 100.237 526.584C100.693 525.828 101.323 525.24 102.127 524.82C102.943 524.388 103.861 524.172 104.881 524.172C105.901 524.172 106.813 524.388 107.617 524.82C108.421 525.24 109.051 525.828 109.507 526.584C109.963 527.34 110.191 528.198 110.191 529.158C110.191 530.118 109.963 530.976 109.507 531.732C109.051 532.488 108.421 533.082 107.617 533.514C106.813 533.934 105.901 534.144 104.881 534.144ZM104.881 531.84C105.601 531.84 106.189 531.6 106.645 531.12C107.113 530.628 107.347 529.974 107.347 529.158C107.347 528.342 107.113 527.694 106.645 527.214C106.189 526.722 105.601 526.476 104.881 526.476C104.161 526.476 103.567 526.722 103.099 527.214C102.631 527.694 102.397 528.342 102.397 529.158C102.397 529.974 102.631 530.628 103.099 531.12C103.567 531.6 104.161 531.84 104.881 531.84ZM116.388 530.328H114.93V534H112.122V524.316H114.93V528.078H116.442L119.07 524.316H122.058L118.674 528.96L122.292 534H118.98L116.388 530.328ZM132.828 524.316L128.454 534.594C128.01 535.71 127.458 536.496 126.798 536.952C126.15 537.408 125.364 537.636 124.44 537.636C123.936 537.636 123.438 537.558 122.946 537.402C122.454 537.246 122.052 537.03 121.74 536.754L122.766 534.756C122.982 534.948 123.228 535.098 123.504 535.206C123.792 535.314 124.074 535.368 124.35 535.368C124.734 535.368 125.046 535.272 125.286 535.08C125.526 534.9 125.742 534.594 125.934 534.162L125.97 534.072L121.776 524.316H124.674L127.392 530.886L130.128 524.316H132.828ZM143.813 524.316V534H141.005V526.62H136.973V534H134.183V524.316H143.813ZM150.267 524.172C151.767 524.172 152.919 524.532 153.723 525.252C154.527 525.96 154.929 527.034 154.929 528.474V534H152.301V532.794C151.773 533.694 150.789 534.144 149.349 534.144C148.605 534.144 147.957 534.018 147.405 533.766C146.865 533.514 146.451 533.166 146.163 532.722C145.875 532.278 145.731 531.774 145.731 531.21C145.731 530.31 146.067 529.602 146.739 529.086C147.423 528.57 148.473 528.312 149.889 528.312H152.121C152.121 527.7 151.935 527.232 151.563 526.908C151.191 526.572 150.633 526.404 149.889 526.404C149.373 526.404 148.863 526.488 148.359 526.656C147.867 526.812 147.447 527.028 147.099 527.304L146.091 525.342C146.619 524.97 147.249 524.682 147.981 524.478C148.725 524.274 149.487 524.172 150.267 524.172ZM150.051 532.254C150.531 532.254 150.957 532.146 151.329 531.93C151.701 531.702 151.965 531.372 152.121 530.94V529.95H150.195C149.043 529.95 148.467 530.328 148.467 531.084C148.467 531.444 148.605 531.732 148.881 531.948C149.169 532.152 149.559 532.254 150.051 532.254ZM165.505 526.62H162.229V534H159.439V526.62H156.163V524.316H165.505V526.62ZM176.011 529.194C176.011 529.23 175.993 529.482 175.957 529.95H168.631C168.763 530.55 169.075 531.024 169.567 531.372C170.059 531.72 170.671 531.894 171.403 531.894C171.907 531.894 172.351 531.822 172.735 531.678C173.131 531.522 173.497 531.282 173.833 530.958L175.327 532.578C174.415 533.622 173.083 534.144 171.331 534.144C170.239 534.144 169.273 533.934 168.433 533.514C167.593 533.082 166.945 532.488 166.489 531.732C166.033 530.976 165.805 530.118 165.805 529.158C165.805 528.21 166.027 527.358 166.471 526.602C166.927 525.834 167.545 525.24 168.325 524.82C169.117 524.388 169.999 524.172 170.971 524.172C171.919 524.172 172.777 524.376 173.545 524.784C174.313 525.192 174.913 525.78 175.345 526.548C175.789 527.304 176.011 528.186 176.011 529.194ZM170.989 526.296C170.353 526.296 169.819 526.476 169.387 526.836C168.955 527.196 168.691 527.688 168.595 528.312H173.365C173.269 527.7 173.005 527.214 172.573 526.854C172.141 526.482 171.613 526.296 170.989 526.296ZM187.364 524.316V534H184.556V526.62H181.496L181.406 528.33C181.358 529.602 181.238 530.658 181.046 531.498C180.854 532.338 180.542 532.998 180.11 533.478C179.678 533.958 179.078 534.198 178.31 534.198C177.902 534.198 177.416 534.126 176.852 533.982L176.996 531.678C177.188 531.702 177.326 531.714 177.41 531.714C177.83 531.714 178.142 531.564 178.346 531.264C178.562 530.952 178.706 530.562 178.778 530.094C178.85 529.614 178.904 528.984 178.94 528.204L179.084 524.316H187.364ZM195.302 527.412C196.562 527.424 197.528 527.712 198.2 528.276C198.872 528.828 199.208 529.614 199.208 530.634C199.208 531.702 198.83 532.536 198.074 533.136C197.33 533.724 196.28 534.018 194.924 534.018L190.064 534V524.316H192.854V527.412H195.302ZM194.672 532.02C195.212 532.032 195.626 531.918 195.914 531.678C196.202 531.438 196.346 531.078 196.346 530.598C196.346 530.13 196.202 529.788 195.914 529.572C195.638 529.356 195.224 529.242 194.672 529.23L192.854 529.212V532.02H194.672Z" fill="white"/>
<line x1="3.5" y1="191.5" x2="782.5" y2="191.5" stroke="#454040" stroke-linecap="round" stroke-dasharray="4 4"/>
<path d="M584.196 160.776H580.164V171H577.284V160.776H573.27V158.4H584.196V160.776ZM589.081 161.172C590.581 161.172 591.733 161.532 592.537 162.252C593.341 162.96 593.743 164.034 593.743 165.474V171H591.115V169.794C590.587 170.694 589.603 171.144 588.163 171.144C587.419 171.144 586.771 171.018 586.219 170.766C585.679 170.514 585.265 170.166 584.977 169.722C584.689 169.278 584.545 168.774 584.545 168.21C584.545 167.31 584.881 166.602 585.553 166.086C586.237 165.57 587.287 165.312 588.703 165.312H590.935C590.935 164.7 590.749 164.232 590.377 163.908C590.005 163.572 589.447 163.404 588.703 163.404C588.187 163.404 587.677 163.488 587.173 163.656C586.681 163.812 586.261 164.028 585.913 164.304L584.905 162.342C585.433 161.97 586.063 161.682 586.795 161.478C587.539 161.274 588.301 161.172 589.081 161.172ZM588.865 169.254C589.345 169.254 589.771 169.146 590.143 168.93C590.515 168.702 590.779 168.372 590.935 167.94V166.95H589.009C587.857 166.95 587.281 167.328 587.281 168.084C587.281 168.444 587.419 168.732 587.695 168.948C587.983 169.152 588.373 169.254 588.865 169.254ZM605.632 171V165.204L602.734 170.064H601.546L598.72 165.186V171H596.182V161.316H599.116L602.212 166.914L605.506 161.316H608.134L608.17 171H605.632ZM615.396 171.144C614.376 171.144 613.458 170.934 612.642 170.514C611.838 170.082 611.208 169.488 610.752 168.732C610.296 167.976 610.068 167.118 610.068 166.158C610.068 165.198 610.296 164.34 610.752 163.584C611.208 162.828 611.838 162.24 612.642 161.82C613.458 161.388 614.376 161.172 615.396 161.172C616.416 161.172 617.328 161.388 618.132 161.82C618.936 162.24 619.566 162.828 620.022 163.584C620.478 164.34 620.706 165.198 620.706 166.158C620.706 167.118 620.478 167.976 620.022 168.732C619.566 169.488 618.936 170.082 618.132 170.514C617.328 170.934 616.416 171.144 615.396 171.144ZM615.396 168.84C616.116 168.84 616.704 168.6 617.16 168.12C617.628 167.628 617.862 166.974 617.862 166.158C617.862 165.342 617.628 164.694 617.16 164.214C616.704 163.722 616.116 163.476 615.396 163.476C614.676 163.476 614.082 163.722 613.614 164.214C613.146 164.694 612.912 165.342 612.912 166.158C612.912 166.974 613.146 167.628 613.614 168.12C614.082 168.6 614.676 168.84 615.396 168.84ZM631.932 167.328H630.582V171H627.81V167.328H626.46L624.408 171H621.096L624.138 165.996L621.312 161.316H624.282L626.424 165.078H627.81V161.316H630.582V165.078H631.95L634.11 161.316H637.08L634.254 165.996L637.314 171H633.984L631.932 167.328ZM647.889 166.194C647.889 166.23 647.871 166.482 647.835 166.95H640.509C640.641 167.55 640.953 168.024 641.445 168.372C641.937 168.72 642.549 168.894 643.281 168.894C643.785 168.894 644.229 168.822 644.613 168.678C645.009 168.522 645.375 168.282 645.711 167.958L647.205 169.578C646.293 170.622 644.961 171.144 643.209 171.144C642.117 171.144 641.151 170.934 640.311 170.514C639.471 170.082 638.823 169.488 638.367 168.732C637.911 167.976 637.683 167.118 637.683 166.158C637.683 165.21 637.905 164.358 638.349 163.602C638.805 162.834 639.423 162.24 640.203 161.82C640.995 161.388 641.877 161.172 642.849 161.172C643.797 161.172 644.655 161.376 645.423 161.784C646.191 162.192 646.791 162.78 647.223 163.548C647.667 164.304 647.889 165.186 647.889 166.194ZM642.867 163.296C642.231 163.296 641.697 163.476 641.265 163.836C640.833 164.196 640.569 164.688 640.473 165.312H645.243C645.147 164.7 644.883 164.214 644.451 163.854C644.019 163.482 643.491 163.296 642.867 163.296ZM650.041 161.316H652.831V165.096H657.043V161.316H659.851V171H657.043V167.382H652.831V171H650.041V161.316ZM662.539 161.316H665.329V165.096H669.541V161.316H672.349V171H669.541V167.382H665.329V171H662.539V161.316ZM678.8 161.172C680.3 161.172 681.452 161.532 682.256 162.252C683.06 162.96 683.462 164.034 683.462 165.474V171H680.834V169.794C680.306 170.694 679.322 171.144 677.882 171.144C677.138 171.144 676.49 171.018 675.938 170.766C675.398 170.514 674.984 170.166 674.696 169.722C674.408 169.278 674.264 168.774 674.264 168.21C674.264 167.31 674.6 166.602 675.272 166.086C675.956 165.57 677.006 165.312 678.422 165.312H680.654C680.654 164.7 680.468 164.232 680.096 163.908C679.724 163.572 679.166 163.404 678.422 163.404C677.906 163.404 677.396 163.488 676.892 163.656C676.4 163.812 675.98 164.028 675.632 164.304L674.624 162.342C675.152 161.97 675.782 161.682 676.514 161.478C677.258 161.274 678.02 161.172 678.8 161.172ZM678.584 169.254C679.064 169.254 679.49 169.146 679.862 168.93C680.234 168.702 680.498 168.372 680.654 167.94V166.95H678.728C677.576 166.95 677 167.328 677 168.084C677 168.444 677.138 168.732 677.414 168.948C677.702 169.152 678.092 169.254 678.584 169.254ZM694.505 161.316V171H692.003V168.228H689.933L688.097 171H685.109L687.323 167.832C686.651 167.568 686.135 167.19 685.775 166.698C685.427 166.194 685.253 165.588 685.253 164.88C685.253 163.74 685.661 162.864 686.477 162.252C687.305 161.628 688.439 161.316 689.879 161.316H694.505ZM689.933 163.602C689.333 163.602 688.877 163.71 688.565 163.926C688.265 164.142 688.115 164.49 688.115 164.97C688.115 165.45 688.259 165.804 688.547 166.032C688.847 166.248 689.297 166.356 689.897 166.356H692.003V163.602H689.933ZM710.059 163.62H705.091V171H702.301V161.316H710.059V163.62ZM717.253 161.172C718.153 161.172 718.969 161.382 719.701 161.802C720.445 162.21 721.027 162.792 721.447 163.548C721.867 164.292 722.077 165.162 722.077 166.158C722.077 167.154 721.867 168.03 721.447 168.786C721.027 169.53 720.445 170.112 719.701 170.532C718.969 170.94 718.153 171.144 717.253 171.144C716.017 171.144 715.045 170.754 714.337 169.974V174.492H711.529V161.316H714.211V162.432C714.907 161.592 715.921 161.172 717.253 161.172ZM716.767 168.84C717.487 168.84 718.075 168.6 718.531 168.12C718.999 167.628 719.233 166.974 719.233 166.158C719.233 165.342 718.999 164.694 718.531 164.214C718.075 163.722 717.487 163.476 716.767 163.476C716.047 163.476 715.453 163.722 714.985 164.214C714.529 164.694 714.301 165.342 714.301 166.158C714.301 166.974 714.529 167.628 714.985 168.12C715.453 168.6 716.047 168.84 716.767 168.84ZM727.649 161.172C729.149 161.172 730.301 161.532 731.105 162.252C731.909 162.96 732.311 164.034 732.311 165.474V171H729.683V169.794C729.155 170.694 728.171 171.144 726.731 171.144C725.987 171.144 725.339 171.018 724.787 170.766C724.247 170.514 723.833 170.166 723.545 169.722C723.257 169.278 723.113 168.774 723.113 168.21C723.113 167.31 723.449 166.602 724.121 166.086C724.805 165.57 725.855 165.312 727.271 165.312H729.503C729.503 164.7 729.317 164.232 728.945 163.908C728.573 163.572 728.015 163.404 727.271 163.404C726.755 163.404 726.245 163.488 725.741 163.656C725.249 163.812 724.829 164.028 724.481 164.304L723.473 162.342C724.001 161.97 724.631 161.682 725.363 161.478C726.107 161.274 726.869 161.172 727.649 161.172ZM727.433 169.254C727.913 169.254 728.339 169.146 728.711 168.93C729.083 168.702 729.347 168.372 729.503 167.94V166.95H727.577C726.425 166.95 725.849 167.328 725.849 168.084C725.849 168.444 725.987 168.732 726.263 168.948C726.551 169.152 726.941 169.254 727.433 169.254ZM734.75 161.316H737.54V165.096H741.752V161.316H744.56V171H741.752V167.382H737.54V171H734.75V161.316ZM747.248 161.316H750.038V167.076L754.754 161.316H757.328V171H754.538V165.24L749.84 171H747.248V161.316ZM770.936 168.696V173.124H768.326V171H760.028V161.316H762.818V168.696H766.724V161.316H769.532V168.696H770.936ZM776.464 161.172C777.964 161.172 779.116 161.532 779.92 162.252C780.724 162.96 781.126 164.034 781.126 165.474V171H778.498V169.794C777.97 170.694 776.986 171.144 775.546 171.144C774.802 171.144 774.154 171.018 773.602 170.766C773.062 170.514 772.648 170.166 772.36 169.722C772.072 169.278 771.928 168.774 771.928 168.21C771.928 167.31 772.264 166.602 772.936 166.086C773.62 165.57 774.67 165.312 776.086 165.312H778.318C778.318 164.7 778.132 164.232 777.76 163.908C777.388 163.572 776.83 163.404 776.086 163.404C775.57 163.404 775.06 163.488 774.556 163.656C774.064 163.812 773.644 164.028 773.296 164.304L772.288 162.342C772.816 161.97 773.446 161.682 774.178 161.478C774.922 161.274 775.684 161.172 776.464 161.172ZM776.248 169.254C776.728 169.254 777.154 169.146 777.526 168.93C777.898 168.702 778.162 168.372 778.318 167.94V166.95H776.392C775.24 166.95 774.664 167.328 774.664 168.084C774.664 168.444 774.802 168.732 775.078 168.948C775.366 169.152 775.756 169.254 776.248 169.254Z" fill="#095F71"/>
<path d="M183 118L177.226 128L188.773 128L183 118ZM184 240L184 127L182 127L182 240L184 240Z" fill="#0A7991"/>
<path d="M183 355L177.226 365L188.773 365L183 355ZM184 477L184 364L182 364L182 477L184 477Z" fill="#0A7991"/>
<rect x="88" y="404" width="194" height="34" rx="9" fill="#F0F8F7" stroke="#0A7991" stroke-width="2"/>
<rect x="304" y="404" width="178" height="34" rx="9" fill="#F0F8F7" stroke="#0A7991" stroke-width="2"/>
<rect x="593" y="405" width="98" height="34" rx="9" fill="#F0F8F7" stroke="#0A7991" stroke-width="2"/>
<path d="M112.752 427.128C111.632 427.128 110.619 426.883 109.712 426.392C108.816 425.891 108.112 425.208 107.6 424.344C107.088 423.469 106.832 422.488 106.832 421.4C106.832 420.312 107.088 419.336 107.6 418.472C108.112 417.597 108.821 416.915 109.728 416.424C110.635 415.923 111.648 415.672 112.768 415.672C113.643 415.672 114.443 415.821 115.168 416.12C115.893 416.408 116.512 416.84 117.024 417.416L115.984 418.424C115.141 417.539 114.091 417.096 112.832 417.096C112 417.096 111.248 417.283 110.576 417.656C109.904 418.029 109.376 418.547 108.992 419.208C108.619 419.859 108.432 420.589 108.432 421.4C108.432 422.211 108.619 422.947 108.992 423.608C109.376 424.259 109.904 424.771 110.576 425.144C111.248 425.517 112 425.704 112.832 425.704C114.08 425.704 115.131 425.256 115.984 424.36L117.024 425.368C116.512 425.944 115.888 426.381 115.152 426.68C114.427 426.979 113.627 427.128 112.752 427.128ZM125.058 419.864H121.954V427H120.418V419.864H117.314V418.52H125.058V419.864ZM129.886 427.096C129.043 427.096 128.286 426.909 127.614 426.536C126.942 426.163 126.414 425.651 126.03 425C125.656 424.339 125.47 423.592 125.47 422.76C125.47 421.928 125.656 421.187 126.03 420.536C126.414 419.875 126.942 419.363 127.614 419C128.286 418.627 129.043 418.44 129.886 418.44C130.728 418.44 131.48 418.627 132.142 419C132.814 419.363 133.336 419.875 133.71 420.536C134.094 421.187 134.286 421.928 134.286 422.76C134.286 423.592 134.094 424.339 133.71 425C133.336 425.651 132.814 426.163 132.142 426.536C131.48 426.909 130.728 427.096 129.886 427.096ZM129.886 425.752C130.43 425.752 130.915 425.629 131.342 425.384C131.779 425.128 132.12 424.776 132.366 424.328C132.611 423.869 132.734 423.347 132.734 422.76C132.734 422.173 132.611 421.656 132.366 421.208C132.12 420.749 131.779 420.397 131.342 420.152C130.915 419.907 130.43 419.784 129.886 419.784C129.342 419.784 128.851 419.907 128.414 420.152C127.987 420.397 127.646 420.749 127.39 421.208C127.144 421.656 127.022 422.173 127.022 422.76C127.022 423.347 127.144 423.869 127.39 424.328C127.646 424.776 127.987 425.128 128.414 425.384C128.851 425.629 129.342 425.752 129.886 425.752ZM136.504 418.52H138.04V424.696L143.24 418.52H144.632V427H143.096V420.824L137.912 427H136.504V418.52ZM157.389 418.52V427H155.997V420.808L152.829 426.04H152.157L149.021 420.792V427H147.613V418.52H149.197L152.525 424.248L155.949 418.52H157.389ZM164.011 427.096C163.168 427.096 162.411 426.909 161.739 426.536C161.067 426.163 160.539 425.651 160.155 425C159.781 424.339 159.595 423.592 159.595 422.76C159.595 421.928 159.781 421.187 160.155 420.536C160.539 419.875 161.067 419.363 161.739 419C162.411 418.627 163.168 418.44 164.011 418.44C164.853 418.44 165.605 418.627 166.267 419C166.939 419.363 167.461 419.875 167.835 420.536C168.219 421.187 168.411 421.928 168.411 422.76C168.411 423.592 168.219 424.339 167.835 425C167.461 425.651 166.939 426.163 166.267 426.536C165.605 426.909 164.853 427.096 164.011 427.096ZM164.011 425.752C164.555 425.752 165.04 425.629 165.467 425.384C165.904 425.128 166.245 424.776 166.491 424.328C166.736 423.869 166.859 423.347 166.859 422.76C166.859 422.173 166.736 421.656 166.491 421.208C166.245 420.749 165.904 420.397 165.467 420.152C165.04 419.907 164.555 419.784 164.011 419.784C163.467 419.784 162.976 419.907 162.539 420.152C162.112 420.397 161.771 420.749 161.515 421.208C161.269 421.656 161.147 422.173 161.147 422.76C161.147 423.347 161.269 423.869 161.515 424.328C161.771 424.776 162.112 425.128 162.539 425.384C162.976 425.629 163.467 425.752 164.011 425.752ZM174.325 427.096C173.461 427.096 172.687 426.909 172.005 426.536C171.333 426.163 170.805 425.651 170.421 425C170.037 424.339 169.845 423.592 169.845 422.76C169.845 421.928 170.037 421.187 170.421 420.536C170.805 419.875 171.333 419.363 172.005 419C172.687 418.627 173.461 418.44 174.325 418.44C175.093 418.44 175.775 418.595 176.373 418.904C176.981 419.213 177.45 419.661 177.781 420.248L176.613 421C176.346 420.595 176.015 420.291 175.621 420.088C175.226 419.885 174.789 419.784 174.309 419.784C173.754 419.784 173.253 419.907 172.805 420.152C172.367 420.397 172.021 420.749 171.765 421.208C171.519 421.656 171.397 422.173 171.397 422.76C171.397 423.357 171.519 423.885 171.765 424.344C172.021 424.792 172.367 425.139 172.805 425.384C173.253 425.629 173.754 425.752 174.309 425.752C174.789 425.752 175.226 425.651 175.621 425.448C176.015 425.245 176.346 424.941 176.613 424.536L177.781 425.272C177.45 425.859 176.981 426.312 176.373 426.632C175.775 426.941 175.093 427.096 174.325 427.096ZM185.98 419.864H182.876V427H181.34V419.864H178.236V418.52H185.98V419.864ZM191.471 421.4C192.548 421.411 193.369 421.656 193.935 422.136C194.5 422.616 194.783 423.293 194.783 424.168C194.783 425.085 194.473 425.795 193.855 426.296C193.247 426.787 192.372 427.027 191.231 427.016L187.551 427V418.52H189.087V421.384L191.471 421.4ZM191.103 425.848C191.796 425.859 192.319 425.72 192.671 425.432C193.033 425.144 193.215 424.717 193.215 424.152C193.215 423.597 193.039 423.192 192.687 422.936C192.345 422.68 191.817 422.547 191.103 422.536L189.087 422.504V425.832L191.103 425.848ZM207.803 422.04H204.891V424.904H203.547V422.04H200.635V420.776H203.547V417.896H204.891V420.776H207.803V422.04ZM224.548 415.8V427H222.948V422.008H216.516V427H214.916V415.8H216.516V420.616H222.948V415.8H224.548ZM238.572 425.608V429.448H237.084V427H227.868L227.852 429.448H226.364L226.38 425.608H226.924C227.628 425.565 228.124 425.011 228.412 423.944C228.7 422.867 228.876 421.352 228.94 419.4L229.052 415.8H236.924V425.608H238.572ZM230.348 419.544C230.295 421.123 230.167 422.429 229.964 423.464C229.772 424.499 229.458 425.213 229.02 425.608H235.34V417.192H230.428L230.348 419.544ZM245.768 427.128C244.648 427.128 243.634 426.883 242.728 426.392C241.832 425.891 241.128 425.208 240.616 424.344C240.104 423.469 239.848 422.488 239.848 421.4C239.848 420.312 240.104 419.336 240.616 418.472C241.128 417.597 241.837 416.915 242.744 416.424C243.65 415.923 244.664 415.672 245.784 415.672C246.658 415.672 247.458 415.821 248.184 416.12C248.909 416.408 249.528 416.84 250.04 417.416L249 418.424C248.157 417.539 247.106 417.096 245.848 417.096C245.016 417.096 244.264 417.283 243.592 417.656C242.92 418.029 242.392 418.547 242.008 419.208C241.634 419.859 241.448 420.589 241.448 421.4C241.448 422.211 241.634 422.947 242.008 423.608C242.392 424.259 242.92 424.771 243.592 425.144C244.264 425.517 245.016 425.704 245.848 425.704C247.096 425.704 248.146 425.256 249 424.36L250.04 425.368C249.528 425.944 248.904 426.381 248.168 426.68C247.442 426.979 246.642 427.128 245.768 427.128ZM263.437 425.608V427H255.389V425.912L259.949 421.512C260.504 420.979 260.877 420.52 261.069 420.136C261.261 419.741 261.357 419.347 261.357 418.952C261.357 418.365 261.149 417.912 260.733 417.592C260.328 417.261 259.741 417.096 258.973 417.096C257.736 417.096 256.781 417.501 256.109 418.312L255.021 417.368C255.458 416.835 256.029 416.419 256.733 416.12C257.448 415.821 258.242 415.672 259.117 415.672C260.29 415.672 261.224 415.955 261.917 416.52C262.61 417.075 262.957 417.832 262.957 418.792C262.957 419.389 262.829 419.955 262.573 420.488C262.317 421.021 261.832 421.629 261.117 422.312L257.693 425.608H263.437Z" fill="#454040"/>
<path d="M347.376 415.8V427H345.776V422.008H339.344V427H337.744V415.8H339.344V420.616H345.776V415.8H347.376ZM361.4 425.608V429.448H359.912V427H350.696L350.68 429.448H349.192L349.208 425.608H349.752C350.456 425.565 350.952 425.011 351.24 423.944C351.528 422.867 351.704 421.352 351.768 419.4L351.88 415.8H359.752V425.608H361.4ZM353.176 419.544C353.123 421.123 352.995 422.429 352.792 423.464C352.6 424.499 352.286 425.213 351.848 425.608H358.168V417.192H353.256L353.176 419.544ZM368.596 427.128C367.476 427.128 366.462 426.883 365.556 426.392C364.66 425.891 363.956 425.208 363.444 424.344C362.932 423.469 362.676 422.488 362.676 421.4C362.676 420.312 362.932 419.336 363.444 418.472C363.956 417.597 364.665 416.915 365.572 416.424C366.478 415.923 367.492 415.672 368.612 415.672C369.486 415.672 370.286 415.821 371.012 416.12C371.737 416.408 372.356 416.84 372.868 417.416L371.828 418.424C370.985 417.539 369.934 417.096 368.676 417.096C367.844 417.096 367.092 417.283 366.42 417.656C365.748 418.029 365.22 418.547 364.836 419.208C364.462 419.859 364.276 420.589 364.276 421.4C364.276 422.211 364.462 422.947 364.836 423.608C365.22 424.259 365.748 424.771 366.42 425.144C367.092 425.517 367.844 425.704 368.676 425.704C369.924 425.704 370.974 425.256 371.828 424.36L372.868 425.368C372.356 425.944 371.732 426.381 370.996 426.68C370.27 426.979 369.47 427.128 368.596 427.128ZM386.265 425.608V427H378.217V425.912L382.777 421.512C383.332 420.979 383.705 420.52 383.897 420.136C384.089 419.741 384.185 419.347 384.185 418.952C384.185 418.365 383.977 417.912 383.561 417.592C383.156 417.261 382.569 417.096 381.801 417.096C380.564 417.096 379.609 417.501 378.937 418.312L377.849 417.368C378.286 416.835 378.857 416.419 379.561 416.12C380.276 415.821 381.07 415.672 381.945 415.672C383.118 415.672 384.052 415.955 384.745 416.52C385.438 417.075 385.785 417.832 385.785 418.792C385.785 419.389 385.657 419.955 385.401 420.488C385.145 421.021 384.66 421.629 383.945 422.312L380.521 425.608H386.265ZM392.021 421.944H396.325V423.272H392.021V421.944ZM412.907 415.8V427H411.307V422.008H404.875V427H403.275V415.8H404.875V420.616H411.307V415.8H412.907ZM426.932 425.608V429.448H425.444V427H416.228L416.212 429.448H414.724L414.74 425.608H415.284C415.988 425.565 416.484 425.011 416.772 423.944C417.06 422.867 417.236 421.352 417.3 419.4L417.412 415.8H425.284V425.608H426.932ZM418.708 419.544C418.654 421.123 418.526 422.429 418.324 423.464C418.132 424.499 417.817 425.213 417.38 425.608H423.7V417.192H418.788L418.708 419.544ZM434.127 427.128C433.007 427.128 431.994 426.883 431.087 426.392C430.191 425.891 429.487 425.208 428.975 424.344C428.463 423.469 428.207 422.488 428.207 421.4C428.207 420.312 428.463 419.336 428.975 418.472C429.487 417.597 430.196 416.915 431.103 416.424C432.01 415.923 433.023 415.672 434.143 415.672C435.018 415.672 435.818 415.821 436.543 416.12C437.268 416.408 437.887 416.84 438.399 417.416L437.359 418.424C436.516 417.539 435.466 417.096 434.207 417.096C433.375 417.096 432.623 417.283 431.951 417.656C431.279 418.029 430.751 418.547 430.367 419.208C429.994 419.859 429.807 420.589 429.807 421.4C429.807 422.211 429.994 422.947 430.367 423.608C430.751 424.259 431.279 424.771 431.951 425.144C432.623 425.517 433.375 425.704 434.207 425.704C435.455 425.704 436.506 425.256 437.359 424.36L438.399 425.368C437.887 425.944 437.263 426.381 436.527 426.68C435.802 426.979 435.002 427.128 434.127 427.128ZM447.396 415.8V427H445.812V417.192H443.284V415.8H447.396Z" fill="#454040"/>
<path d="M629.376 416.8V428H627.776V423.008H621.344V428H619.744V416.8H621.344V421.616H627.776V416.8H629.376ZM643.4 426.608V430.448H641.912V428H632.696L632.68 430.448H631.192L631.208 426.608H631.752C632.456 426.565 632.952 426.011 633.24 424.944C633.528 423.867 633.704 422.352 633.768 420.4L633.88 416.8H641.752V426.608H643.4ZM635.176 420.544C635.123 422.123 634.995 423.429 634.792 424.464C634.6 425.499 634.286 426.213 633.848 426.608H640.168V418.192H635.256L635.176 420.544ZM650.596 428.128C649.476 428.128 648.462 427.883 647.556 427.392C646.66 426.891 645.956 426.208 645.444 425.344C644.932 424.469 644.676 423.488 644.676 422.4C644.676 421.312 644.932 420.336 645.444 419.472C645.956 418.597 646.665 417.915 647.572 417.424C648.478 416.923 649.492 416.672 650.612 416.672C651.486 416.672 652.286 416.821 653.012 417.12C653.737 417.408 654.356 417.84 654.868 418.416L653.828 419.424C652.985 418.539 651.934 418.096 650.676 418.096C649.844 418.096 649.092 418.283 648.42 418.656C647.748 419.029 647.22 419.547 646.836 420.208C646.462 420.859 646.276 421.589 646.276 422.4C646.276 423.211 646.462 423.947 646.836 424.608C647.22 425.259 647.748 425.771 648.42 426.144C649.092 426.517 649.844 426.704 650.676 426.704C651.924 426.704 652.974 426.256 653.828 425.36L654.868 426.368C654.356 426.944 653.732 427.381 652.996 427.68C652.27 427.979 651.47 428.128 650.596 428.128ZM663.865 416.8V428H662.281V418.192H659.753V416.8H663.865Z" fill="#454040"/>
<path d="M783 49L773 43.2265V54.7735L783 49ZM603 50H774V48H603V50Z" fill="#F96B30"/>
<path d="M783 109.5L773 103.726V115.274L783 109.5ZM603 110.5H774V108.5H603V110.5Z" fill="#0A7991"/>
<path d="M612.44 24.192H608.6V34H607.032V24.192H603.208V22.8H612.44V24.192ZM616.886 34.096C616.043 34.096 615.286 33.9093 614.614 33.536C613.942 33.1627 613.414 32.6507 613.03 32C612.656 31.3387 612.47 30.592 612.47 29.76C612.47 28.928 612.656 28.1867 613.03 27.536C613.414 26.8747 613.942 26.3627 614.614 26C615.286 25.6267 616.043 25.44 616.886 25.44C617.728 25.44 618.48 25.6267 619.142 26C619.814 26.3627 620.336 26.8747 620.71 27.536C621.094 28.1867 621.286 28.928 621.286 29.76C621.286 30.592 621.094 31.3387 620.71 32C620.336 32.6507 619.814 33.1627 619.142 33.536C618.48 33.9093 617.728 34.096 616.886 34.096ZM616.886 32.752C617.43 32.752 617.915 32.6293 618.342 32.384C618.779 32.128 619.12 31.776 619.366 31.328C619.611 30.8693 619.734 30.3467 619.734 29.76C619.734 29.1733 619.611 28.656 619.366 28.208C619.12 27.7493 618.779 27.3973 618.342 27.152C617.915 26.9067 617.43 26.784 616.886 26.784C616.342 26.784 615.851 26.9067 615.414 27.152C614.987 27.3973 614.646 27.7493 614.39 28.208C614.144 28.656 614.022 29.1733 614.022 29.76C614.022 30.3467 614.144 30.8693 614.39 31.328C614.646 31.776 614.987 32.128 615.414 32.384C615.851 32.6293 616.342 32.752 616.886 32.752ZM629.28 29.6C630.378 29.8773 630.928 30.5653 630.928 31.664C630.928 32.4107 630.645 32.9867 630.08 33.392C629.525 33.7973 628.693 34 627.584 34H623.504V25.52H627.44C628.442 25.52 629.226 25.712 629.792 26.096C630.357 26.4693 630.64 27.0027 630.64 27.696C630.64 28.144 630.517 28.5333 630.272 28.864C630.037 29.184 629.706 29.4293 629.28 29.6ZM625.008 29.168H627.312C627.898 29.168 628.341 29.0613 628.64 28.848C628.949 28.6347 629.104 28.3253 629.104 27.92C629.104 27.1093 628.506 26.704 627.312 26.704H625.008V29.168ZM627.472 32.816C628.112 32.816 628.592 32.7147 628.912 32.512C629.232 32.3093 629.392 31.9947 629.392 31.568C629.392 31.1307 629.242 30.8053 628.944 30.592C628.656 30.3787 628.197 30.272 627.568 30.272H625.008V32.816H627.472ZM636.356 25.44C637.529 25.44 638.425 25.728 639.044 26.304C639.673 26.88 639.988 27.7387 639.988 28.88V34H638.532V32.88C638.276 33.2747 637.908 33.5787 637.428 33.792C636.958 33.9947 636.398 34.096 635.748 34.096C634.798 34.096 634.036 33.8667 633.46 33.408C632.894 32.9493 632.612 32.3467 632.612 31.6C632.612 30.8533 632.884 30.256 633.428 29.808C633.972 29.3493 634.836 29.12 636.02 29.12H638.452V28.816C638.452 28.1547 638.26 27.648 637.876 27.296C637.492 26.944 636.926 26.768 636.18 26.768C635.678 26.768 635.188 26.8533 634.708 27.024C634.228 27.184 633.822 27.4027 633.492 27.68L632.852 26.528C633.289 26.176 633.812 25.9093 634.42 25.728C635.028 25.536 635.673 25.44 636.356 25.44ZM636.004 32.912C636.59 32.912 637.097 32.784 637.524 32.528C637.95 32.2613 638.26 31.888 638.452 31.408V30.224H636.084C634.782 30.224 634.132 30.6613 634.132 31.536C634.132 31.9627 634.297 32.2987 634.628 32.544C634.958 32.7893 635.417 32.912 636.004 32.912ZM647.25 25.44C648.071 25.44 648.807 25.6213 649.458 25.984C650.108 26.3467 650.615 26.8533 650.978 27.504C651.351 28.1547 651.538 28.9067 651.538 29.76C651.538 30.6133 651.351 31.3707 650.978 32.032C650.615 32.6827 650.108 33.1893 649.458 33.552C648.807 33.9147 648.071 34.096 647.25 34.096C646.642 34.096 646.082 33.9787 645.57 33.744C645.068 33.5093 644.642 33.168 644.29 32.72V37.104H642.754V25.52H644.226V26.864C644.567 26.3947 644.999 26.0427 645.522 25.808C646.044 25.5627 646.62 25.44 647.25 25.44ZM647.122 32.752C647.666 32.752 648.151 32.6293 648.578 32.384C649.015 32.128 649.356 31.776 649.602 31.328C649.858 30.8693 649.986 30.3467 649.986 29.76C649.986 29.1733 649.858 28.656 649.602 28.208C649.356 27.7493 649.015 27.3973 648.578 27.152C648.151 26.9067 647.666 26.784 647.122 26.784C646.588 26.784 646.103 26.912 645.666 27.168C645.239 27.4133 644.898 27.76 644.642 28.208C644.396 28.656 644.274 29.1733 644.274 29.76C644.274 30.3467 644.396 30.8693 644.642 31.328C644.887 31.776 645.228 32.128 645.666 32.384C646.103 32.6293 646.588 32.752 647.122 32.752Z" fill="#095F71"/>
<path d="M615.416 92.608V96.448H613.928V94H604.712L604.696 96.448H603.208L603.224 92.608H603.768C604.472 92.5653 604.968 92.0107 605.256 90.944C605.544 89.8667 605.72 88.352 605.784 86.4L605.896 82.8H613.768V92.608H615.416ZM607.192 86.544C607.139 88.1227 607.011 89.4293 606.808 90.464C606.616 91.4987 606.301 92.2133 605.864 92.608H612.184V84.192H607.272L607.192 86.544ZM624.824 89.808C624.824 89.9253 624.813 90.08 624.792 90.272H617.912C618.008 91.0187 618.333 91.6213 618.888 92.08C619.453 92.528 620.152 92.752 620.984 92.752C621.997 92.752 622.813 92.4107 623.432 91.728L624.28 92.72C623.896 93.168 623.416 93.5093 622.84 93.744C622.275 93.9787 621.64 94.096 620.936 94.096C620.04 94.096 619.245 93.9147 618.552 93.552C617.859 93.1787 617.32 92.6613 616.936 92C616.563 91.3387 616.376 90.592 616.376 89.76C616.376 88.9387 616.557 88.1973 616.92 87.536C617.293 86.8747 617.8 86.3627 618.44 86C619.091 85.6267 619.821 85.44 620.632 85.44C621.443 85.44 622.163 85.6267 622.792 86C623.432 86.3627 623.928 86.8747 624.28 87.536C624.643 88.1973 624.824 88.9547 624.824 89.808ZM620.632 86.736C619.896 86.736 619.277 86.96 618.776 87.408C618.285 87.856 617.997 88.4427 617.912 89.168H623.352C623.267 88.4533 622.973 87.872 622.472 87.424C621.981 86.9653 621.368 86.736 620.632 86.736ZM627.207 85.52H628.743V89.12H633.575V85.52H635.111V94H633.575V90.448H628.743V94H627.207V85.52ZM642.017 88.4C643.095 88.4107 643.916 88.656 644.481 89.136C645.047 89.616 645.329 90.2933 645.329 91.168C645.329 92.0853 645.02 92.7947 644.401 93.296C643.793 93.7867 642.919 94.0267 641.777 94.016L638.097 94V85.52H639.633V88.384L642.017 88.4ZM641.649 92.848C642.343 92.8587 642.865 92.72 643.217 92.432C643.58 92.144 643.761 91.7173 643.761 91.152C643.761 90.5973 643.585 90.192 643.233 89.936C642.892 89.68 642.364 89.5467 641.649 89.536L639.633 89.504V92.832L641.649 92.848ZM653.541 86.864H648.837V94H647.301V85.52H653.541V86.864ZM655.113 85.52H656.649V91.696L661.849 85.52H663.241V94H661.705V87.824L656.521 94H655.113V85.52Z" fill="#095F71"/>
<defs>
<filter id="filter0_d_371_6686" x="0" y="0" width="286" height="115" filterUnits="userSpaceOnUse" color-interpolation-filters="sRGB">
<feFlood flood-opacity="0" result="BackgroundImageFix"/>
<feColorMatrix in="SourceAlpha" type="matrix" values="0 0 0 0 0 0 0 0 0 0 0 0 0 0 0 0 0 0 127 0" result="hardAlpha"/>
<feOffset dy="2"/>
<feGaussianBlur stdDeviation="1.5"/>
<feComposite in2="hardAlpha" operator="out"/>
<feColorMatrix type="matrix" values="0 0 0 0 0 0 0 0 0 0 0 0 0 0 0 0 0 0 0.8 0"/>
<feBlend mode="normal" in2="BackgroundImageFix" result="effect1_dropShadow_371_6686"/>
<feBlend mode="normal" in="SourceGraphic" in2="effect1_dropShadow_371_6686" result="shape"/>
</filter>
<filter id="filter1_d_371_6686" x="0" y="236" width="286" height="115" filterUnits="userSpaceOnUse" color-interpolation-filters="sRGB">
<feFlood flood-opacity="0" result="BackgroundImageFix"/>
<feColorMatrix in="SourceAlpha" type="matrix" values="0 0 0 0 0 0 0 0 0 0 0 0 0 0 0 0 0 0 127 0" result="hardAlpha"/>
<feOffset dy="2"/>
<feGaussianBlur stdDeviation="1.5"/>
<feComposite in2="hardAlpha" operator="out"/>
<feColorMatrix type="matrix" values="0 0 0 0 0 0 0 0 0 0 0 0 0 0 0 0 0 0 0.8 0"/>
<feBlend mode="normal" in2="BackgroundImageFix" result="effect1_dropShadow_371_6686"/>
<feBlend mode="normal" in="SourceGraphic" in2="effect1_dropShadow_371_6686" result="shape"/>
</filter>
<filter id="filter2_d_371_6686" x="500" y="236" width="286" height="115" filterUnits="userSpaceOnUse" color-interpolation-filters="sRGB">
<feFlood flood-opacity="0" result="BackgroundImageFix"/>
<feColorMatrix in="SourceAlpha" type="matrix" values="0 0 0 0 0 0 0 0 0 0 0 0 0 0 0 0 0 0 127 0" result="hardAlpha"/>
<feOffset dy="2"/>
<feGaussianBlur stdDeviation="1.5"/>
<feComposite in2="hardAlpha" operator="out"/>
<feColorMatrix type="matrix" values="0 0 0 0 0 0 0 0 0 0 0 0 0 0 0 0 0 0 0.8 0"/>
<feBlend mode="normal" in2="BackgroundImageFix" result="effect1_dropShadow_371_6686"/>
<feBlend mode="normal" in="SourceGraphic" in2="effect1_dropShadow_371_6686" result="shape"/>
</filter>
<filter id="filter3_d_371_6686" x="500" y="472" width="286" height="115" filterUnits="userSpaceOnUse" color-interpolation-filters="sRGB">
<feFlood flood-opacity="0" result="BackgroundImageFix"/>
<feColorMatrix in="SourceAlpha" type="matrix" values="0 0 0 0 0 0 0 0 0 0 0 0 0 0 0 0 0 0 127 0" result="hardAlpha"/>
<feOffset dy="2"/>
<feGaussianBlur stdDeviation="1.5"/>
<feComposite in2="hardAlpha" operator="out"/>
<feColorMatrix type="matrix" values="0 0 0 0 0 0 0 0 0 0 0 0 0 0 0 0 0 0 0.8 0"/>
<feBlend mode="normal" in2="BackgroundImageFix" result="effect1_dropShadow_371_6686"/>
<feBlend mode="normal" in="SourceGraphic" in2="effect1_dropShadow_371_6686" result="shape"/>
</filter>
<filter id="filter4_d_371_6686" x="0" y="472" width="286" height="115" filterUnits="userSpaceOnUse" color-interpolation-filters="sRGB">
<feFlood flood-opacity="0" result="BackgroundImageFix"/>
<feColorMatrix in="SourceAlpha" type="matrix" values="0 0 0 0 0 0 0 0 0 0 0 0 0 0 0 0 0 0 127 0" result="hardAlpha"/>
<feOffset dy="2"/>
<feGaussianBlur stdDeviation="1.5"/>
<feComposite in2="hardAlpha" operator="out"/>
<feColorMatrix type="matrix" values="0 0 0 0 0 0 0 0 0 0 0 0 0 0 0 0 0 0 0.8 0"/>
<feBlend mode="normal" in2="BackgroundImageFix" result="effect1_dropShadow_371_6686"/>
<feBlend mode="normal" in="SourceGraphic" in2="effect1_dropShadow_371_6686" result="shape"/>
</filter>
</defs>
</svg>
