<svg width="272" height="272" viewBox="0 0 272 272" fill="none" xmlns="http://www.w3.org/2000/svg">
<g opacity="0.3">
<path d="M52.5462 247.08H21.6356C9.70512 247.08 0 237.375 0 225.443C0 220.956 1.38548 216.591 3.89382 213.166L57.3433 135.808L3.74667 58.2368C1.38548 55.0222 0 50.6575 0 46.1705C0 34.24 9.70512 24.5349 21.6356 24.5349H52.5462C59.7543 24.5349 66.4666 28.1571 70.5212 34.2265L132.254 123.753C134.615 126.954 136.001 131.318 136.001 135.808C136.001 140.295 134.615 144.659 132.105 148.085L70.4351 237.498C66.4666 243.456 59.7543 247.08 52.5462 247.08ZM21.6356 43.0804C19.9558 43.0804 18.5455 44.4885 18.5455 46.1705C18.5455 46.8384 18.756 47.3568 18.8556 47.4813L76.2464 130.528C78.4356 133.693 78.4356 137.897 76.2464 141.073L19.0028 223.91C18.756 224.256 18.5455 224.775 18.5455 225.443C18.5455 227.125 19.9558 228.535 21.6356 228.535H52.5462C53.9294 228.535 54.7331 227.632 55.093 227.088L116.998 137.34C117.245 136.994 117.455 136.475 117.455 135.808C117.455 135.14 117.245 134.619 117.145 134.497L55.1791 44.6379C54.7331 43.9814 53.9294 43.0804 52.5462 43.0804H21.6356Z" fill="#F96B30"/>
<path d="M188.545 247.08H157.636C145.706 247.08 136.001 237.375 136.001 225.443C136.001 220.956 137.384 216.591 139.895 213.166L193.342 135.808L139.745 58.2368C137.384 55.0222 136.001 50.6575 136.001 46.1705C136.001 34.24 145.706 24.5349 157.636 24.5349H188.545C195.753 24.5349 202.467 28.1571 206.522 34.2265L268.255 123.753C270.616 126.954 271.999 131.318 271.999 135.808C271.999 140.295 270.616 144.659 268.105 148.085L206.436 237.498C202.467 243.456 195.753 247.08 188.545 247.08ZM157.636 43.0804C155.954 43.0804 154.546 44.4885 154.546 46.1705C154.546 46.8384 154.757 47.3568 154.854 47.4813L212.247 130.528C214.434 133.693 214.434 137.897 212.247 141.073L155.003 223.91C154.757 224.256 154.546 224.775 154.546 225.443C154.546 227.125 155.954 228.535 157.636 228.535H188.545C189.93 228.535 190.734 227.632 191.091 227.088L252.996 137.34C253.243 136.994 253.454 136.475 253.454 135.808C253.454 135.14 253.243 134.619 253.146 134.497L191.18 44.6379C190.734 43.9814 189.93 43.0804 188.545 43.0804H157.636Z" fill="#F96B30"/>
</g>
</svg>
