<svg width="70" height="70" viewBox="0 0 70 70" fill="none" xmlns="http://www.w3.org/2000/svg">
<g clip-path="url(#clip0_2_602)">
<path d="M28.1389 27.7139H31.8403C32.4066 27.7139 32.8657 27.2548 32.8657 26.6885C32.8657 26.1222 32.4066 25.6631 31.8403 25.6631H28.1389C27.5726 25.6631 27.1135 26.1222 27.1135 26.6885C27.1135 27.2548 27.5726 27.7139 28.1389 27.7139Z" fill="#095F71"/>
<path d="M28.1389 31.3198H31.8403C32.4066 31.3198 32.8657 30.8607 32.8657 30.2944C32.8657 29.7281 32.4066 29.269 31.8403 29.269H28.1389C27.5726 29.269 27.1135 29.7281 27.1135 30.2944C27.1135 30.8607 27.5726 31.3198 28.1389 31.3198Z" fill="#095F71"/>
<path d="M68.9746 34.1457C68.4083 34.1457 67.9492 34.6048 67.9492 35.1711V42.7285H64.2279V29.4821C64.2279 28.9785 64.0317 28.5051 63.6757 28.1491L61.7416 26.215C61.3856 25.859 60.9122 25.6628 60.4086 25.6628H55.2565V22.197C55.2565 20.5955 53.9536 19.2926 52.3519 19.2926H25.2875V17.0237C25.2875 15.9286 24.3965 15.0376 23.3014 15.0376H6.8827C5.78758 15.0376 4.89658 15.9286 4.89658 17.0237V19.2926H1.74193C0.781484 19.2927 0 20.0742 0 21.0346V28.4252C0 28.9915 0.459102 29.4506 1.02539 29.4506C1.59168 29.4506 2.05078 28.9915 2.05078 28.4252V26.6442H22.5546C23.309 26.6442 24.0182 26.3504 24.5514 25.817L25.6304 24.7381C25.7765 24.592 25.9707 24.5115 26.1771 24.5115H30.0419C31.599 24.5115 32.8658 23.2447 32.8658 21.6876V21.3435H38.8087V24.8077C38.8087 26.4101 40.1123 27.7137 41.7148 27.7137H60.34L62.1771 29.5508V30.4387H58.6067C57.5924 30.4387 56.767 31.2639 56.767 32.2782V36.7145C56.767 37.7288 57.5922 38.5542 58.6067 38.5542H62.1771V42.7287H50.5456L45.4614 35.9694C44.9657 35.3101 44.177 34.9164 43.352 34.9164H2.05078V33.2104C2.05078 32.6441 1.59168 32.185 1.02539 32.185C0.459102 32.185 0 32.6441 0 33.2104V51.9068C0 52.8673 0.781484 53.6488 1.74193 53.6488H6.43303C7.03035 53.6488 7.579 53.3482 7.9007 52.845L9.55883 50.2509C9.55418 50.3344 9.55117 50.4182 9.55117 50.5024C9.55117 52.9616 11.5525 54.9622 14.0123 54.9622C16.4713 54.9622 18.4721 52.9616 18.4721 50.5024C18.4721 50.0427 18.4013 49.5927 18.267 49.1646H18.7961C18.6618 49.5927 18.591 50.0428 18.591 50.5024C18.591 52.9616 20.5916 54.9622 23.0508 54.9622C25.5099 54.9622 27.5105 52.9616 27.5105 50.5024C27.5105 50.4178 27.5074 50.3337 27.5028 50.2498L28.9503 52.5143C29.4044 53.2245 30.1787 53.6486 31.0218 53.6486H33.1305C33.6968 53.6486 34.1559 53.1895 34.1559 52.6232C34.1559 52.0569 33.6968 51.5978 33.1305 51.5978H31.0218C30.882 51.5978 30.7535 51.5274 30.6782 51.4098L28.446 47.9176C28.1243 47.4144 27.5755 47.114 26.9783 47.114H10.084C9.48664 47.114 8.93812 47.4145 8.61629 47.9178L6.26377 51.598H2.05078V44.7793H67.9492V51.598H64.7393L62.3868 47.9179C62.0651 47.4145 61.5165 47.114 60.919 47.114H44.0249C43.4275 47.114 42.8788 47.4145 42.5573 47.9178L40.3251 51.4098C40.2497 51.5276 40.1212 51.598 39.9815 51.598H37.9158C37.3495 51.598 36.8904 52.0571 36.8904 52.6234C36.8904 53.1896 37.3495 53.6488 37.9158 53.6488H39.9815C40.8245 53.6488 41.5989 53.2246 42.0529 52.5144L43.4606 50.3123C43.458 50.3756 43.4561 50.439 43.4561 50.5026C43.4561 52.9617 45.4567 54.9623 47.9158 54.9623C50.3757 54.9623 52.377 52.9617 52.377 50.5026C52.377 50.0428 52.3061 49.5928 52.1719 49.1648H52.6996C52.5653 49.5928 52.4945 50.0429 52.4945 50.5026C52.4945 52.9617 54.4958 54.9623 56.9557 54.9623C59.4148 54.9623 61.4154 52.9617 61.4154 50.5026C61.4154 50.3966 61.4105 50.2913 61.4031 50.1865L63.1024 52.8448C63.4241 53.3482 63.9728 53.6488 64.5702 53.6488H68.2581C69.2185 53.6488 70 52.8673 70 51.9068V35.1711C70 34.6048 69.5409 34.1457 68.9746 34.1457ZM53.2057 22.1971V25.663H48.058V21.3435H52.3519C52.8228 21.3435 53.2057 21.7264 53.2057 22.1971ZM6.94736 17.0885H23.2367V19.2927H6.94736V17.0885ZM30.815 21.6876C30.815 22.1139 30.4682 22.4607 30.0419 22.4607H26.1771C25.423 22.4607 24.7138 22.7544 24.1804 23.2879L23.1012 24.367C22.9552 24.513 22.7612 24.5934 22.5546 24.5934H2.05078V21.3435H30.815V21.6876ZM40.8595 24.8077V21.3435H46.0072V25.663H41.7148C41.2431 25.663 40.8595 25.2792 40.8595 24.8077ZM58.8179 36.5033V32.4893H62.1771V36.5033H58.8179ZM16.4213 50.5026C16.4213 51.8309 15.3407 52.9116 14.0123 52.9116C12.6833 52.9116 11.602 51.8309 11.602 50.5026C11.602 50.02 11.7455 49.5577 12.0092 49.1648H16.0141C16.2777 49.5577 16.4213 50.02 16.4213 50.5026ZM23.0508 52.9116C21.7224 52.9116 20.6418 51.8309 20.6418 50.5026C20.6418 50.02 20.7854 49.5577 21.0491 49.1648H25.0526C25.3163 49.5577 25.4599 50.02 25.4599 50.5026C25.4598 51.8309 24.3791 52.9116 23.0508 52.9116ZM43.8225 37.2019L47.9794 42.7286H36.5565V36.967H43.352C43.536 36.967 43.7119 37.0548 43.8225 37.2019ZM19.3037 36.967H25.8794V42.7286H19.3037V36.967ZM17.2529 42.7286H10.6772V36.967H17.2529V42.7286ZM27.9301 36.967H34.5059V42.7286H27.9301V36.967ZM8.62641 36.967V42.7286H2.05078V36.967H8.62641ZM50.3262 50.5026C50.3262 51.8309 49.2449 52.9116 47.9158 52.9116C46.5875 52.9116 45.5068 51.8309 45.5068 50.5026C45.5068 50.02 45.6504 49.5577 45.9141 49.1648H49.919C50.1826 49.5577 50.3262 50.02 50.3262 50.5026ZM56.9557 52.9116C55.6266 52.9116 54.5453 51.8309 54.5453 50.5026C54.5453 50.02 54.6889 49.5577 54.9526 49.1648H58.9575C59.2211 49.5577 59.3648 50.02 59.3648 50.5026C59.3646 51.8309 58.284 52.9116 56.9557 52.9116Z" fill="#095F71"/>
</g>
<defs>
<clipPath id="clip0_2_602">
<rect width="70" height="70" fill="white"/>
</clipPath>
</defs>
</svg>
