<svg width="70" height="70" viewBox="0 0 70 70" fill="none" xmlns="http://www.w3.org/2000/svg">
<g clip-path="url(#clip0_2_607)">
<path d="M69.7012 35.7518C69.349 35.1973 68.7464 34.8662 68.0894 34.8662H59.4215C57.8763 34.8662 56.619 36.1233 56.619 37.6685C56.619 37.6991 56.6165 37.7292 56.613 37.7589V31.1506C56.613 30.2011 55.8404 29.4285 54.891 29.4285H47.3862V21.7515C47.3862 21.0202 46.7912 20.4252 46.0599 20.4252H28.2048C27.4735 20.4252 26.8784 21.0202 26.8784 21.7515V38.4166H23.7022V32.3544C24.4474 32.3526 25.053 31.7461 25.053 31.0006V28.4914C25.053 27.7448 24.4456 27.1373 23.699 27.1373H20.6449V19.5878C20.6449 18.7424 19.9571 18.0545 19.1115 18.0545H14.7048V13.0101C14.7048 12.4369 14.2401 11.9722 13.6668 11.9722C13.0935 11.9722 12.6288 12.4369 12.6288 13.0101V18.0547H8.22209C7.37662 18.0547 6.68879 18.7425 6.68879 19.588V27.1375H3.63448C2.88786 27.1375 2.28042 27.7449 2.28042 28.4915V31.0007C2.28042 31.7462 2.88608 32.3529 3.6312 32.3545V38.4168H1.77798C1.2393 38.4168 0.735766 38.6567 0.396703 39.0751C0.0580496 39.4926 -0.0723803 40.0336 0.0387723 40.5593C0.784848 44.0903 2.59159 47.5342 5.26376 50.5183C5.40595 50.6772 5.49482 50.8685 5.53242 51.0692C5.54267 51.1238 5.54855 51.1787 5.55087 51.2332C5.55115 51.2392 5.55197 51.2454 5.5521 51.2514C5.55361 51.3031 5.55033 51.3544 5.54499 51.4054C5.5439 51.4151 5.54404 51.4249 5.54267 51.4346C5.53638 51.4819 5.52558 51.5283 5.51341 51.5745C5.51013 51.5868 5.50863 51.5992 5.50494 51.6114C5.48785 51.6685 5.46665 51.7246 5.44054 51.7791L3.76437 55.2883C3.47944 55.885 3.51978 56.5752 3.87251 57.1346C4.22525 57.6939 4.8305 58.0277 5.49181 58.0277H59.0025C59.7392 58.0277 60.4176 57.5969 60.7307 56.9302L69.8176 37.5872C70.097 36.9927 70.0534 36.3064 69.7012 35.7518ZM47.3861 31.4827H54.5589V38.4168H47.3861V31.4827ZM38.1592 22.4793H45.332V29.4285H38.1592V22.4793ZM38.1592 31.4827H45.332V38.4168H38.1592V31.4827ZM28.9324 22.4793H36.1053V29.4285H28.9324V22.4793ZM28.9324 31.4827H36.1053V38.4168H28.9324V31.4827ZM8.74285 20.1087H18.5909V27.1375H8.74285V20.1087ZM4.33462 29.1915H22.9988V30.3006H11.383C10.8158 30.3006 10.356 30.7604 10.356 31.3276C10.356 31.8949 10.8158 32.3547 11.383 32.3547H21.6482V38.4168H5.68541V32.3547H6.55343C7.12068 32.3547 7.58047 31.8949 7.58047 31.3276C7.58047 30.7604 7.12068 30.3006 6.55343 30.3006H4.33462V29.1915ZM61.7922 49.8405H51.611C51.0437 49.8405 50.5839 50.3003 50.5839 50.8675C50.5839 51.4347 51.0437 51.8945 51.611 51.8945H60.8272L58.9108 55.9738H5.71343L7.29404 52.6645C7.32672 52.5962 7.35625 52.527 7.38373 52.4571C7.39234 52.4353 7.39972 52.4131 7.40793 52.3912C7.4257 52.3431 7.44293 52.295 7.45824 52.2463C7.46685 52.2192 7.47451 52.192 7.48244 52.1648C7.49488 52.1218 7.5065 52.0786 7.51703 52.0352C7.52469 52.0035 7.53193 51.9719 7.53863 51.9402C7.54178 51.925 7.54601 51.9098 7.54902 51.8947H46.7812C47.3485 51.8947 47.8083 51.4349 47.8083 50.8676C47.8083 50.3004 47.3485 49.8406 46.7812 49.8406H7.26478C7.14023 49.5944 6.98437 49.3607 6.79406 49.1483C4.41228 46.4884 2.84206 43.5708 2.12278 40.4708L55.5858 40.486C55.6436 40.486 55.8155 40.4801 55.8706 40.4708C57.4158 40.4708 58.6729 39.2137 58.6729 37.6685C58.6729 37.2559 59.0086 36.9202 59.4213 36.9202H67.8617L61.7922 49.8405Z" fill="#095F71"/>
</g>
<defs>
<clipPath id="clip0_2_607">
<rect width="70" height="70" fill="white"/>
</clipPath>
</defs>
</svg>
