<svg width="190" height="135" viewBox="0 0 190 135" fill="none" xmlns="http://www.w3.org/2000/svg">
<g clip-path="url(#clip0_229_11063)">
<path d="M137.3 62.5L109.7 46.6C109.1 46.3 108.1 46.3 107.5 46.6L106.5 47.2L107.6 47.9L108.6 47.3L136.1 63.2L135.1 63.8L136.2 64.5L137.2 63.9C137.5 63.7 137.7 63.5 137.7 63.3C137.8 62.9 137.6 62.6 137.3 62.5Z" fill="#524D4D"/>
<path d="M106.6 47.1001V48.9001L107.7 49.6001V47.8001L106.6 47.1001Z" fill="#3D3838"/>
<path d="M108.7 47.2L107.7 47.8V49.6L108.7 49L135.2 64.3V63.6L136.2 63.1L108.7 47.2Z" fill="#1A1717"/>
<path d="M135.2 63.6001V65.5001L136.3 66.1001V64.3001L135.2 63.6001Z" fill="#3D3838"/>
<path d="M137.3 63.7001L136.3 64.3001V66.1001L137.3 65.5001C137.6 65.3001 137.8 65.1001 137.8 64.9001C137.8 64.7001 137.8 63.1001 137.8 63.1001C137.8 63.3001 137.6 63.5001 137.3 63.7001Z" fill="#1A1717"/>
<path d="M55.1001 82.8V87L67.9001 94.4V90.2L55.1001 82.8Z" fill="#292626"/>
<path d="M55.1001 82.8L115 48.2L127.8 55.6L67.9001 90.2L55.1001 82.8Z" fill="#3D3838"/>
<path d="M67.9001 90.1999L127.8 55.5999V59.7999L67.9001 94.3998V90.1999Z" fill="#1A1717"/>
<path d="M126.5 62.8L125.9 63.1L126.6 65L132.9 68.6L131.2 63.9C130.5 62 128.6 61.6 126.5 62.8Z" fill="black"/>
<path d="M113.5 66.8C114.6 64.9 116.1 63.4 117.5 62.6C118.4 62.1 119.3 61.8 120.1 61.8C120.4 61.8 120.7 61.8 121 61.8C121.5 61.8 122 61.9 122.5 62.2L125.3 63.8C124.1 63.1 122.6 63.3 121.1 64.2C119.6 65.1 118 66.6 116.9 68.7C114.6 72.7 114.6 77.1 116.9 78.4L114.1 76.8C113.1 76.2 112.6 75.1 112.5 75C111.4 73.2 111.7 69.9 113.5 66.8Z" fill="#1A1A1A"/>
<path d="M116.8 68.7001C118 66.7001 119.5 65.1001 121 64.2001C122.5 63.3001 124.1 63.1001 125.2 63.8001C126 64.3001 126.6 65.4001 126.9 66.5001C127.1 67.2001 119.3 78.6001 119.3 78.6001C118.4 78.8001 117.2 78.6001 116.7 78.4001C114.4 77.1001 114.4 72.7001 116.8 68.7001Z" fill="black"/>
<path d="M117.4 78.3C119.6 79.6 123.2 77.5 125.4 73.7C127.6 69.9 127.6 65.7 125.4 64.4C123.2 63.1 119.6 65.2 117.4 69C115.2 72.9 115.2 77 117.4 78.3Z" fill="black"/>
<path d="M117.4 69.1001C118.5 67.2001 120 65.7001 121.4 64.9001C122.3 64.4001 123.2 64.1001 124 64.1001C124.3 64.1001 124.6 64.1001 124.9 64.1001C125.4 64.1001 125.9 64.2001 126.4 64.5001L129.2 66.1001C128 65.4001 126.5 65.6001 125 66.5001C123.5 67.4001 121.9 68.9001 120.8 71.0001C118.5 75.0001 118.5 79.4001 120.8 80.7001L118 79.1001C117 78.5001 116.5 77.4001 116.4 77.3001C115.3 75.4001 115.6 72.2001 117.4 69.1001Z" fill="#1A1A1A"/>
<path d="M120.7 71.0001C121.9 69.0001 123.4 67.4001 124.9 66.5001C126.4 65.6001 128 65.4001 129.1 66.1001C129.9 66.6001 130.5 67.7001 130.8 68.8001C131 69.5001 123.2 80.9001 123.2 80.9001C122.3 81.1001 121.1 80.9001 120.6 80.7001C118.4 79.3001 118.4 75.0001 120.7 71.0001Z" fill="#292929"/>
<path d="M121.4 80.6001C123.6 81.9001 127.2 79.8001 129.4 76.0001C131.6 72.2001 131.6 68.0001 129.4 66.7001C127.2 65.4001 123.6 67.5001 121.4 71.3001C119.2 75.1001 119.2 79.3001 121.4 80.6001Z" fill="#1A1A1A"/>
<path d="M122.9 78.0002C124.3 78.8002 126.5 77.5002 127.9 75.1002C129.3 72.7002 129.3 70.1002 127.9 69.3002C126.5 68.5002 124.3 69.8002 122.9 72.2002C121.5 74.6002 121.5 77.2002 122.9 78.0002Z" fill="black"/>
<path d="M122.7 78.3002C124.2 79.2002 126.6 77.8002 128.1 75.2002C129.6 72.6002 129.6 69.8002 128.1 68.9002C126.6 68.0002 124.2 69.4002 122.7 72.0002C121.2 74.7002 121.2 77.5002 122.7 78.3002ZM122.9 72.2002C123.4 71.4002 123.9 70.7002 124.5 70.2002V72.2002C124.4 72.4002 124.2 72.5002 124.1 72.7002L122.4 73.0002C122.5 72.8002 122.7 72.5002 122.9 72.2002ZM128.4 69.7002L126.7 71.3002C126.6 71.2002 126.5 71.2002 126.3 71.2002V69.2002C126.9 69.0002 127.4 69.1002 127.9 69.3002C128.1 69.4002 128.2 69.5002 128.4 69.7002ZM128.2 74.6002L127.2 73.6002C127.3 73.4002 127.3 73.2002 127.3 73.0002L129 71.4002C129 72.4002 128.7 73.5002 128.2 74.6002ZM124.1 78.2002L125.1 76.0002C125.3 75.9002 125.4 75.8002 125.6 75.7002L126.6 76.7002C125.8 77.6002 124.9 78.1002 124.1 78.2002ZM121.8 75.5002L123.5 75.2002C123.5 75.4002 123.6 75.5002 123.6 75.6002L122.6 77.8002C122.1 77.3002 121.8 76.5002 121.8 75.5002Z" fill="#D1CEBA"/>
<path d="M124 72.0003V70.8003C124.2 70.6003 124.3 70.5003 124.5 70.3003V72.3003C124.4 72.5003 124.2 72.6003 124.1 72.8003L122.4 73.1003C122.5 73.0003 122.5 72.8003 122.6 72.7003L123.6 72.5003C123.7 72.3003 123.8 72.1003 124 72.0003Z" fill="#ADAA99"/>
<path d="M123.1 75.2001L123.5 75.1001C123.5 75.3001 123.6 75.4001 123.6 75.5001L122.6 77.7001C122.4 77.6001 122.3 77.4001 122.2 77.2001L123.1 75.2001C123.1 75.3001 123.1 75.3001 123.1 75.2001Z" fill="#ADAA99"/>
<path d="M128.9 71.4001C128.9 72.3001 128.7 73.5001 128.1 74.6001L127.7 74.2001C128.1 73.4001 128.3 72.6001 128.4 71.9001L128.9 71.4001Z" fill="#ADAA99"/>
<path d="M126.1 76.5002L125.4 75.8002L125.5 75.7002L126.5 76.7002C125.7 77.5002 124.8 78.0002 124 78.1002L124.2 77.6002C125 77.5002 125.6 77.1002 126.1 76.5002Z" fill="#ADAA99"/>
<path d="M127.6 69.2002C127.7 69.2002 127.8 69.3002 127.9 69.3002C128.1 69.4002 128.2 69.5002 128.4 69.7002L126.7 71.3002C126.6 71.2002 126.5 71.2002 126.3 71.2002V70.9002L127.8 69.4002C127.8 69.3002 127.7 69.2002 127.6 69.2002Z" fill="#ADAA99"/>
<path d="M125 74.2004C125.2 74.3004 125.5 74.1004 125.7 73.8004C125.9 73.5004 125.9 73.1004 125.7 73.0004C125.5 72.9004 125.2 73.1004 125 73.4004C124.9 73.8004 124.9 74.1004 125 74.2004Z" fill="#222222"/>
<path d="M125.2 72.6003C125.3 72.7003 125.5 72.6003 125.6 72.4003C125.7 72.2003 125.7 72.0003 125.6 71.9003C125.5 71.8003 125.3 71.9003 125.2 72.1003C125.1 72.3003 125.1 72.5003 125.2 72.6003Z" fill="#222222"/>
<path d="M126.2 74.0002C126 74.1002 125.9 74.3002 125.9 74.4002C125.9 74.6002 126 74.7002 126.1 74.6002C126.3 74.5002 126.4 74.3002 126.4 74.2002C126.4 74.1002 126.3 74.0002 126.2 74.0002Z" fill="#222222"/>
<path d="M124.9 75.0004C124.9 74.8004 124.7 74.8004 124.6 74.9004C124.4 75.0004 124.3 75.2004 124.4 75.4004C124.4 75.6004 124.6 75.6004 124.7 75.5004C124.9 75.4004 125 75.2004 124.9 75.0004Z" fill="#222222"/>
<path d="M124.3 74.1004C124.4 73.9004 124.5 73.7004 124.4 73.6004C124.3 73.5004 124.2 73.5004 124 73.7004C123.9 73.9004 123.8 74.1004 123.9 74.2004C124 74.3004 124.2 74.3004 124.3 74.1004Z" fill="#222222"/>
<path d="M126.3 72.5003C126.2 72.7003 126.3 72.9003 126.4 72.9003C126.5 72.9003 126.7 72.7003 126.8 72.5003C126.9 72.3003 126.8 72.1003 126.7 72.1003C126.5 72.2003 126.4 72.3003 126.3 72.5003Z" fill="#222222"/>
<path d="M123.1 63.8001L126.5 61.8001C128.1 60.9001 129.6 60.8001 130.6 61.4001C130.6 61.4001 124.9 58.1001 124.3 57.8001C123.2 57.2001 121.8 57.3001 120.2 58.2001L116.8 60.2001C114.3 61.6001 112.1 64.8001 111.3 68.0001L109.9 73.8001C109.7 74.5001 110 75.3001 110.7 75.7001L114.9 78.1001C115.4 78.4001 116 78.1001 116.1 77.6001L117.6 71.7001C118.4 68.3001 120.6 65.2001 123.1 63.8001Z" fill="#474747"/>
<path d="M132 63.2002C131.7 62.4002 131.2 61.8002 130.6 61.4002C129.5 60.8002 128.1 60.9002 126.5 61.8002L123.1 63.8002C120.6 65.2002 118.4 68.4002 117.6 71.6002L116.1 77.5002C116 78.0002 115.4 78.3002 114.9 78.0002C116 78.6002 116.7 78.2002 116.8 77.7002L118.4 71.4002C119.1 68.7002 121 66.0002 123.1 64.8002L126.5 62.8002C128.6 61.6002 130.5 62.0002 131.2 64.0002L132.9 68.7002L133.8 68.2002L132 63.2002Z" fill="#292929"/>
<path d="M112.5 72.2V67.7L111.7 68.1V77.2L112.5 76.8V73.1L114.3 74.1V73.2L112.5 72.2Z" fill="#474747"/>
<path d="M112.5 76.8L111.7 77.2L113.5 78.3L114.3 77.8L112.5 76.8Z" fill="#292929"/>
<path d="M113.5 74.6V73.7L111.7 72.7V68.2L110.8 68.7V77C110.8 77.4 111 77.8 111.4 78L113.6 79.2V78.3L111.8 77.3V73.6L113.5 74.6Z" fill="black"/>
<path d="M99.6001 79.5999V75.0999L98.8 75.5999V84.6999L99.6001 84.2999V80.5999L101.4 81.5999V80.6999L99.6001 79.5999Z" fill="#474747"/>
<path d="M99.6001 84.2998L98.8 84.6998L100.6 85.6998L101.4 85.2998L99.6001 84.2998Z" fill="#292929"/>
<path d="M100.6 81.9999V81.0999L98.8 80.0999V75.5999L97.9 76.0999V84.3999C97.9 84.7999 98.1 85.1999 98.5 85.3999L100.7 86.5999V85.6999L98.9 84.6999V80.9999L100.6 81.9999Z" fill="black"/>
<path d="M95.2001 87.1001L114.2 76.1001L114.9 76.5001L95.9001 87.5001V90.0001L95.2001 89.6001V87.1001Z" fill="#B31212"/>
<path d="M115.6 70.5L95.2001 82.3V84.8L95.9001 85.2V82.7L116.4 70.9L115.6 70.5Z" fill="#B31212"/>
<path d="M95.9 87.5L114.9 76.5L114.2 79.5L95.9 90V87.5Z" fill="#E01217"/>
<path d="M116.4 70.8999L95.9 82.6999V85.1999L115.6 73.7999L116.4 70.8999Z" fill="#E01217"/>
<path d="M77.5001 95.6998L81.4001 97.8998C81.6001 97.9998 81.8001 97.9998 82.0001 97.9998C82.2001 97.8998 82.2001 97.6998 82.2001 97.4998V91.9998C82.2001 91.4998 81.8001 90.7998 81.4001 90.5998L77.5001 88.3998C77.3001 88.2998 77.1001 88.2998 76.9001 88.2998C76.8001 88.3998 76.7001 88.5998 76.7001 88.7998V94.1998C76.7001 94.7998 77.1001 95.3998 77.5001 95.6998Z" fill="#B5B1A5"/>
<path d="M92.3 84.3999L88.4 82.1999C88.2 82.0999 88 82.0999 87.8 82.0999C87.7 82.1999 76.9 88.3998 76.9 88.3998C77 88.2998 77.3 88.2999 77.5 88.4999L81.4 90.6999C81.9 90.9999 82.2 91.5999 82.2 92.0999V97.4999C82.2 97.7999 82.1 97.8999 82 97.9999C82 97.9999 92.7 91.7999 92.9 91.6999C93 91.5999 93.1 91.3999 93.1 91.1999V85.7999C93.1 85.2999 92.7 84.5999 92.3 84.3999Z" fill="url(#paint0_linear_229_11063)"/>
<path d="M87.1001 91.3999C86.5001 91.1999 86.1001 90.4999 86.2001 89.8999C86.3001 89.5999 86.4001 89.4 86.6001 89.2L86.1001 89.5C85.9001 89.6 85.7001 89.9 85.7001 90.2C85.6001 90.8 86.0001 91.5 86.6001 91.7C86.9001 91.8 87.2001 91.8 87.4001 91.7L87.9001 91.3999C87.7001 91.3999 87.4001 91.4999 87.1001 91.3999Z" fill="#1B1818"/>
<path d="M85.7001 90.1V90C85.6001 90.1 85.5001 90.1 85.3001 90.2C85.0001 90.3 84.7001 90.6 84.5001 91C84.1001 91.7 84.1001 92.4 84.5001 92.7C84.7001 92.8 85.0001 92.8 85.3001 92.6C85.7001 92.3 86.4001 91.9 86.7001 91.7C86.6001 91.7 86.6001 91.7 86.5001 91.6C86.0001 91.4 85.6001 90.8 85.7001 90.1Z" fill="#BFBBAE"/>
<path d="M87.5001 89.0999C87.2001 88.9999 86.9001 88.9999 86.7001 89.0999C86.5001 89.1999 86.3001 89.4999 86.3001 89.7999C86.2001 90.3999 86.6001 91.0999 87.2001 91.2999C87.5001 91.3999 87.8001 91.3999 88.0001 91.2999C88.2001 91.1999 88.4001 90.8999 88.4001 90.5999C88.5001 89.9999 88.1001 89.2999 87.5001 89.0999Z" fill="#332F2F"/>
<path d="M112.8 21.8999L49.8 58.2999V71.0999L112.8 34.6999V21.8999Z" fill="#F5A10C"/>
<path d="M144.7 39.0999L112.8 20.7L111.7 21.2999L143.6 39.6999L144.7 39.0999Z" fill="#FFD21F"/>
<path d="M143.6 39.6999V52.4999L144.7 51.8999V39.0999L143.6 39.6999Z" fill="#F5A10C"/>
<path d="M112.8 21.8999V34.6999L143.6 52.4999V39.6999L112.8 21.8999Z" fill="#E08500"/>
<path d="M112.8 33.5L60.9 63.4L80.7 74.9V87.6L143.6 51.3L112.8 33.5Z" fill="#FFC329"/>
<path d="M100.8 69.2001L102.4 68.3001L83.4 57.4001L81.8 58.3001L100.8 69.2001Z" fill="#CC9545"/>
<path d="M83.1001 79.4001L84.7001 78.5001L65.7001 67.6001L64.1001 68.5001L83.1001 79.4001Z" fill="#CC9545"/>
<path d="M91.9001 74.3002L93.5001 73.4002L74.6001 62.5002L73.0001 63.4002L91.9001 74.3002Z" fill="#CC9545"/>
<path d="M100.8 71.2V69.2L81.8 58.3V60.3L100.8 71.2Z" fill="#A36A01"/>
<path d="M83.1001 81.4L84.7001 80.5V78.5L83.1001 79.4V81.4Z" fill="#B8883B"/>
<path d="M83.1001 81.4V79.4L64.1001 68.5V70.5L83.1001 81.4Z" fill="#975E0D"/>
<path d="M91.9001 76.3001V74.3001L73.0001 63.4001V65.4001L91.9001 76.3001Z" fill="#A36A01"/>
<path d="M80.3 77.2001L83.1 78.8001L102.4 67.7001L99.5 66.1001L80.3 77.2001Z" fill="#DFAA5C"/>
<path d="M102.4 67.7002V68.3002L83.1001 79.4002V78.8002L102.4 67.7002Z" fill="#B8883B"/>
<path d="M83.1 78.8002V79.4002L80.3 77.8002V77.2002L83.1 78.8002Z" fill="#975E0D"/>
<path d="M76.2001 74.9L79.0001 76.5L98.3001 65.4L95.5001 63.7L76.2001 74.9Z" fill="#DFAA5C"/>
<path d="M98.3001 65.3999V65.9999L79.0001 77.0999V76.4999L98.3001 65.3999Z" fill="#BF7E00"/>
<path d="M79.0001 76.4999V77.0999L76.2001 75.4999V74.8999L79.0001 76.4999Z" fill="#C1954E"/>
<path d="M72.2001 72.5001L75.0001 74.2001L94.3001 63.0001L91.5001 61.4001L72.2001 72.5001Z" fill="#DFAA5C"/>
<path d="M94.3001 63.0002V63.6002L75.0001 74.8002V74.2002L94.3001 63.0002Z" fill="#BF7E00"/>
<path d="M75.0001 74.2002V74.8002L72.2001 73.2002V72.5002L75.0001 74.2002Z" fill="#C1954E"/>
<path d="M68.2001 70.2001L71.0001 71.8001L90.3001 60.7001L87.5001 59.1001L68.2001 70.2001Z" fill="#DFAA5C"/>
<path d="M90.3001 60.7002V61.3002L71.0001 72.5002V71.8002L90.3001 60.7002Z" fill="#BF7E00"/>
<path d="M71.0001 71.8002V72.5002L68.2001 70.8002V70.2002L71.0001 71.8002Z" fill="#C1954E"/>
<path d="M64.1001 67.9L66.9001 69.5L86.2001 58.4L83.4001 56.8L64.1001 67.9Z" fill="#DFAA5C"/>
<path d="M86.2001 58.4001V59.0001L66.9001 70.1001V69.5001L86.2001 58.4001Z" fill="#BF7E00"/>
<path d="M66.9001 69.5001V70.1001L64.1001 68.5001V67.9001L66.9001 69.5001Z" fill="#C1954E"/>
<path d="M102.4 68.3V70.3L100.8 71.2V69.2L102.4 68.3Z" fill="#B8883B"/>
<path d="M93.5001 73.4001V75.4001L91.9001 76.3001V74.3001L93.5001 73.4001Z" fill="#B8883B"/>
<path d="M91.8001 62.3L83.1001 67.3V57.3L91.8001 52.2V62.3Z" fill="#BF9D74"/>
<path d="M91.8001 52.2L83.1001 57.3L74.4001 52.2L83.1001 47.2L91.8001 52.2Z" fill="#F9D9A9"/>
<path d="M83.1001 67.3L74.4001 62.3V52.2L83.1001 57.3V67.3Z" fill="#BF9D74"/>
<path d="M79.6001 57.9L77.9001 56.9V54.3L79.6001 55.3V57.9Z" fill="#E13D02"/>
<path d="M77.9001 54.3L79.6001 55.3L88.3001 50.2L86.6001 49.2L77.9001 54.3Z" fill="#FF5102"/>
<g opacity="0.4">
<g opacity="0.4">
<path opacity="0.4" d="M80.5001 62L80.7001 62.1V65.1L80.5001 65V62Z" fill="black"/>
<path opacity="0.4" d="M80.1002 61.7L80.3002 61.8V64.4L80.1002 64.3V61.7Z" fill="black"/>
<path opacity="0.4" d="M79.7002 61.5L79.9002 61.6V64.2L79.7002 64V61.5Z" fill="black"/>
<path opacity="0.4" d="M79.3002 61.2L79.5002 61.4V63.9L79.3002 63.8V61.2Z" fill="black"/>
<path opacity="0.4" d="M78.9001 61L79.1001 61.1V63.7L78.9001 63.6V61Z" fill="black"/>
<path opacity="0.4" d="M78.4001 60.8L78.6001 60.9V63.4L78.4001 63.3V60.8Z" fill="black"/>
<path opacity="0.4" d="M78.0001 60.5L78.2001 60.6V63.2L78.0001 63.1V60.5Z" fill="black"/>
<path opacity="0.4" d="M77.6002 60.3L77.8002 60.4V63L77.6002 62.8V60.3Z" fill="black"/>
<path opacity="0.4" d="M77.2002 60L77.4002 60.2V62.7L77.2002 62.6V60Z" fill="black"/>
<path opacity="0.4" d="M76.8002 59.8L77.0002 59.9V62.9L76.8002 62.8V59.8Z" fill="black"/>
</g>
<path opacity="0.4" d="M77.7002 63.5L77.3002 63.3V62.8L77.7002 63.1V63.5Z" fill="black"/>
<path opacity="0.4" d="M78.5002 64L78.1002 63.8V63.3L78.5002 63.5V64Z" fill="black"/>
<path opacity="0.4" d="M79.4001 64.5L79.0001 64.3V63.8L79.4001 64V64.5Z" fill="black"/>
<path opacity="0.4" d="M80.2002 65L79.8002 64.7V64.3L80.2002 64.5V65Z" fill="black"/>
</g>
<path d="M82.6 67.6001L73.9 72.7001V62.6001L82.6 57.6001V67.6001Z" fill="#BF9D74"/>
<path d="M82.6001 57.6L73.9001 62.6L65.2001 57.6L73.9001 52.5L82.6001 57.6Z" fill="#F9D9A9"/>
<path d="M73.9001 72.7001L65.2001 67.6001V57.6001L73.9001 62.6001V72.7001Z" fill="#F5CC95"/>
<path d="M70.4001 63.3001L68.6001 62.3001V59.6001L70.4001 60.6001V63.3001Z" fill="#E13D02"/>
<path d="M68.6001 59.6001L70.4001 60.6001L79.1001 55.6001L77.4001 54.6001L68.6001 59.6001Z" fill="#FF5102"/>
<g opacity="0.4">
<g opacity="0.4">
<path opacity="0.4" d="M71.3002 67.3L71.5002 67.4V70.4L71.3002 70.3V67.3Z" fill="black"/>
<path opacity="0.4" d="M70.9001 67L71.1001 67.2V69.7L70.9001 69.6V67Z" fill="black"/>
<path opacity="0.4" d="M70.5001 66.8L70.7001 66.9V69.5L70.5001 69.4V66.8Z" fill="black"/>
<path opacity="0.4" d="M70.0001 66.6001L70.3001 66.7001V69.3001L70.0001 69.1001V66.6001Z" fill="black"/>
<path opacity="0.4" d="M69.6001 66.3L69.8001 66.4V69L69.6001 68.9V66.3Z" fill="black"/>
<path opacity="0.4" d="M69.2001 66.1001L69.4001 66.2001V68.8001L69.2001 68.7001V66.1001Z" fill="black"/>
<path opacity="0.4" d="M68.8002 65.8L69.0002 66V68.5L68.8002 68.4V65.8Z" fill="black"/>
<path opacity="0.4" d="M68.4001 65.6001L68.6001 65.7001V68.3001L68.4001 68.2001V65.6001Z" fill="black"/>
<path opacity="0.4" d="M68.0001 65.4001L68.2001 65.5001V68.1001L68.0001 67.9001V65.4001Z" fill="black"/>
<path opacity="0.4" d="M67.5001 65.1001L67.8001 65.2001V68.3001L67.5001 68.2001V65.1001Z" fill="black"/>
</g>
<path opacity="0.4" d="M68.5001 68.9002L68.1001 68.6002V68.2002L68.5001 68.4002V68.9002Z" fill="black"/>
<path opacity="0.4" d="M69.3001 69.4001L68.9001 69.1001V68.6001L69.3001 68.9001V69.4001Z" fill="black"/>
<path opacity="0.4" d="M70.1001 69.8001L69.7001 69.6001V69.1001L70.1001 69.4001V69.8001Z" fill="black"/>
<path opacity="0.4" d="M71.0001 70.3001L70.6001 70.1001V69.6001L71.0001 69.8001V70.3001Z" fill="black"/>
</g>
<path d="M101.1 67.6999L92.4 72.6999V62.5999L101.1 57.5999V67.6999Z" fill="#D3AE80"/>
<path d="M101.1 57.5999L92.4001 62.5999L83.7001 57.5999L92.4001 52.5999L101.1 57.5999Z" fill="#F9D9A9"/>
<path d="M92.4001 72.6999L83.7001 67.6999V57.5999L92.4001 62.5999V72.6999Z" fill="#BF9D74"/>
<path d="M88.9001 63.2999L87.1001 62.2999V59.5999L88.9001 60.5999V63.2999Z" fill="#E13D02"/>
<path d="M87.1001 59.5999L88.9001 60.5999L97.6001 55.5999L95.8001 54.5999L87.1001 59.5999Z" fill="#FF5102"/>
<g opacity="0.4">
<g opacity="0.4">
<path opacity="0.4" d="M89.8002 67.2998L90.0002 67.3998V70.4998L89.8002 70.2998V67.2998Z" fill="black"/>
<path opacity="0.4" d="M89.4001 67.0999L89.6001 67.1999V69.7999L89.4001 69.5999V67.0999Z" fill="black"/>
<path opacity="0.4" d="M88.9001 66.7998L89.2001 66.8998V69.4998L88.9001 69.3998V66.7998Z" fill="black"/>
<path opacity="0.4" d="M88.5001 66.5999L88.7001 66.6999V69.2999L88.5001 69.1999V66.5999Z" fill="black"/>
<path opacity="0.4" d="M88.1001 66.2998L88.3001 66.4998V68.9998L88.1001 68.8998V66.2998Z" fill="black"/>
<path opacity="0.4" d="M87.7001 66.0999L87.9001 66.1999V68.7999L87.7001 68.6999V66.0999Z" fill="black"/>
<path opacity="0.4" d="M87.3002 65.8999L87.5002 65.9999V68.5999L87.3002 68.3999V65.8999Z" fill="black"/>
<path opacity="0.4" d="M86.9001 65.5999L87.1001 65.6999V68.2999L86.9001 68.1999V65.5999Z" fill="black"/>
<path opacity="0.4" d="M86.5001 65.3999L86.7001 65.4999V68.0999L86.5001 67.9999V65.3999Z" fill="black"/>
<path opacity="0.4" d="M86.0001 65.0999L86.2001 65.2999V68.2999L86.0001 68.1999V65.0999Z" fill="black"/>
</g>
<path opacity="0.4" d="M87.0001 68.9L86.6001 68.7V68.2L87.0001 68.4V68.9Z" fill="black"/>
<path opacity="0.4" d="M87.8001 69.4L87.4001 69.1V68.7L87.8001 68.9V69.4Z" fill="black"/>
<path opacity="0.4" d="M88.6001 69.8999L88.2001 69.5999V69.0999L88.6001 69.3999V69.8999Z" fill="black"/>
<path opacity="0.4" d="M89.5001 70.2999L89.1001 70.0999V69.5999L89.5001 69.8999V70.2999Z" fill="black"/>
</g>
<path d="M91.9001 72.9999L83.1001 77.9999V67.9999L91.9001 62.8999V72.9999Z" fill="#D3AE80"/>
<path d="M91.9001 62.8999L83.1001 67.9999L74.4001 62.8999L83.1001 57.8999L91.9001 62.8999Z" fill="#F9D9A9"/>
<path d="M83.1001 77.9999L74.4001 72.9999V62.8999L83.1001 67.9999V77.9999Z" fill="#F5CC95"/>
<path d="M79.7001 68.5999L77.9001 67.5999V64.8999L79.7001 65.8999V68.5999Z" fill="#E13D02"/>
<path d="M77.9001 64.8999L79.7001 65.8999L88.4001 60.8999L86.6001 59.8999L77.9001 64.8999Z" fill="#FF5102"/>
<g opacity="0.4">
<g opacity="0.4">
<path opacity="0.4" d="M80.6002 72.6001L80.8002 72.7001V75.8001L80.6002 75.7001V72.6001Z" fill="black"/>
<path opacity="0.4" d="M80.1002 72.3999L80.3002 72.4999V75.0999L80.1002 74.9999V72.3999Z" fill="black"/>
<path opacity="0.4" d="M79.7002 72.1001L79.9002 72.3001V74.8001L79.7002 74.7001V72.1001Z" fill="black"/>
<path opacity="0.4" d="M79.3002 71.8999L79.5002 71.9999V74.5999L79.3002 74.4999V71.8999Z" fill="black"/>
<path opacity="0.4" d="M78.9001 71.7L79.1001 71.8V74.4L78.9001 74.2V71.7Z" fill="black"/>
<path opacity="0.4" d="M78.5001 71.3999L78.7001 71.4999V74.0999L78.5001 73.9999V71.3999Z" fill="black"/>
<path opacity="0.4" d="M78.1002 71.2L78.3002 71.3V73.9L78.1002 73.8V71.2Z" fill="black"/>
<path opacity="0.4" d="M77.6002 70.8999L77.8002 71.0999V73.5999L77.6002 73.4999V70.8999Z" fill="black"/>
<path opacity="0.4" d="M77.2002 70.7L77.4002 70.8V73.4L77.2002 73.3V70.7Z" fill="black"/>
<path opacity="0.4" d="M76.8002 70.5L77.0002 70.6V73.6L76.8002 73.5V70.5Z" fill="black"/>
</g>
<path opacity="0.4" d="M77.7002 74.2L77.3002 74V73.5L77.7002 73.7V74.2Z" fill="black"/>
<path opacity="0.4" d="M78.6002 74.7L78.2002 74.5V74L78.6002 74.2V74.7Z" fill="black"/>
<path opacity="0.4" d="M79.4001 75.2L79.0001 74.9V74.5L79.4001 74.7V75.2Z" fill="black"/>
<path opacity="0.4" d="M80.2002 75.6999L79.8002 75.3999V74.8999L80.2002 75.1999V75.6999Z" fill="black"/>
</g>
<path d="M49.8 58.3L48.8 57.6999L112.8 20.7L113.8 21.2999L49.8 58.3Z" fill="#FFD21F"/>
<path d="M48.8 57.7V70.5L80.7 88.8999V76.1L48.8 57.7Z" fill="#F6B000"/>
<path opacity="0.4" d="M48.8 57.7V70.5L77.9 87.3V74.5L48.8 57.7Z" fill="black"/>
<path d="M81.8 75.5L49.8 57L48.8 57.7L80.7 76.1L81.8 75.5Z" fill="#FFD21F"/>
<path d="M57.3002 55.7L57.9002 56V61.4L57.3002 61.7V55.7Z" fill="#C9C6BA"/>
<path d="M65.1001 60.2L65.6001 60.5V65.9L65.1001 66.2V60.2Z" fill="#C9C6BA"/>
<path d="M79.9001 67.3V67.9L49.5001 50.3L50.1001 50L79.9001 67.3Z" fill="#C9C6BA"/>
<path d="M79.9001 67.3V67.9L49.5001 50.3L50.1001 50L79.9001 67.3Z" fill="#D5D2C6"/>
<path d="M72.9 64.7L73.4 65V70.4L72.9 70.7V64.7Z" fill="#C9C6BA"/>
<path d="M77.0001 60.7L52.4001 46.5C51.4001 45.9 50.5001 45.9 49.8001 46.2C49.1001 46.6 48.7001 47.4 48.7001 48.6V57.6L80.6001 76V67C80.7001 64.7 79.0001 61.9 77.0001 60.7ZM49.5001 51.2L56.5001 55.3V61.3L49.5001 57.2V51.2ZM72.1001 70.3L65.1001 66.2V60.2L72.1001 64.3V70.3ZM64.3001 65.8L57.3001 61.7V55.7L64.3001 59.8V65.8ZM79.9001 74.8L72.9001 70.7V64.7L79.9001 68.8V74.8ZM79.9001 67.9L49.5001 50.3V49C49.5001 47.2 50.8001 46.4 52.4001 47.3L77.0001 61.5C78.6001 62.4 79.9001 64.7 79.9001 66.5V67.9Z" fill="#F0ECE3"/>
<path d="M72.1001 69.5999L65.6001 65.8999L65.1001 66.1999L72.1001 70.2999V69.5999Z" fill="#D5D2C6"/>
<path d="M50.1001 56.8999L49.5001 57.1999L56.6001 61.2999V60.5999L50.1001 56.8999Z" fill="#D5D2C6"/>
<path d="M49.5001 51.2V57.2L50.1001 56.9V51.5L49.5001 51.2Z" fill="#C9C6BA"/>
<path d="M64.3 65.0999L57.9 61.3999L57.3 61.6999L64.3 65.7999V65.0999Z" fill="#D5D2C6"/>
<path d="M49.5001 50.3L50.0001 50V48.7C50.0001 47.9 50.2001 47.4 50.6001 47C49.9001 47.2 49.5001 47.9 49.5001 49V50.3Z" fill="#C9C6BA"/>
<path d="M79.9 74.0999L73.4 70.3999L72.9 70.6999L79.9 74.7999V74.0999Z" fill="#D5D2C6"/>
<path d="M77.6 60.3999L53 46.1999C52 45.5999 51.1 45.5999 50.4 45.8999C50.2 45.9999 49.9 46.1999 49.9 46.1999C50.6 45.7999 51.5 45.8999 52.5 46.4999L77.1 60.6999C79.1 61.8999 80.8 64.6999 80.8 66.9999V75.9999L81.3 75.6999V66.6999C81.2 64.3999 79.6 61.5999 77.6 60.3999Z" fill="#D5D2C6"/>
<path d="M80.7001 76.1V88.9L81.8001 88.3V75.5L80.7001 76.1Z" fill="#F5A10C"/>
<path d="M143.6 51.3V52.5L81.8 88.3V87L143.6 51.3Z" fill="#F5A10C"/>
<path d="M143.6 52.5L81.8 88.3L82.8 88.9L144.7 53.2L143.6 52.5Z" fill="#FFD21F"/>
<path d="M144.7 53.2L82.8 88.8999V101.7L144.7 66V53.2Z" fill="#F5A10C"/>
<path d="M85 88.8999L142.5 55.7V66L141.8 65.5V56.6L85 89.3999V88.8999Z" fill="#E67E0C"/>
<path d="M82.8 88.9V101.7L81.8 101.1V88.3L82.8 88.9Z" fill="#F5A10C"/>
<path d="M141.8 65.5L85 98.3V99.1L142.5 66L141.8 65.5Z" fill="#FFD21F"/>
<path d="M82.8 88.8999V101.7L144.7 66V53.2L82.8 88.8999ZM85 88.8999L142.5 55.7V66L85 99.1V88.8999Z" fill="#F6B000"/>
<path d="M139.7 54.1001C139.9 54.0001 140.1 54.2001 140.3 54.4001C140.5 54.7001 140.5 55.0001 140.3 55.0001C140.1 55.1001 137.2 56.7001 137.2 56.7001L136.6 55.8001C136.7 55.9001 139.6 54.2001 139.7 54.1001Z" fill="#474747"/>
<path d="M136.7 55.9001C136.9 55.8001 137.1 56.0001 137.3 56.2001C137.5 56.5001 137.5 56.8001 137.3 56.8001C137.1 56.9001 136.9 56.7001 136.7 56.5001C136.5 56.3001 136.5 56.0001 136.7 55.9001Z" fill="black"/>
<path d="M114.6 68.7002C114.8 68.6002 115 68.8002 115.2 69.0002C115.4 69.3002 115.4 69.6002 115.2 69.6002C115 69.7002 112.1 71.3002 112.1 71.3002L111.5 70.4002C111.5 70.4002 114.4 68.8002 114.6 68.7002Z" fill="#474747"/>
<path d="M111.5 70.4001C111.7 70.3001 111.9 70.5001 112.1 70.7001C112.3 71.0001 112.3 71.3001 112.1 71.3001C111.9 71.4001 111.7 71.2001 111.5 71.0001C111.4 70.8001 111.4 70.5001 111.5 70.4001Z" fill="black"/>
<path d="M89.4 83.2002C89.6 83.1002 89.8 83.3002 90 83.5002C90.2 83.8002 90.2 84.1002 90 84.1002C89.8 84.1002 86.9 85.8002 86.9 85.8002L86.3 84.9002C86.4 85.0002 89.3 83.3002 89.4 83.2002Z" fill="#474747"/>
<path d="M86.4 85.0002C86.6 84.9002 86.8 85.1002 87 85.3002C87.2 85.6002 87.2 85.9002 87 85.9002C86.8 86.0002 86.6 85.8002 86.4 85.6002C86.2 85.3002 86.2 85.1002 86.4 85.0002Z" fill="black"/>
<path d="M68.9 70.2C68.9 69.9 68.6 69.8 68.4 69.9C65.7 71.5 61 74.2 58.3 75.7C58.2 75.8 58 75.9 58 76.1C57 80.5 55.9 85 54.8 89.5C54.5 90.6 54.4 91.6001 54.4 92.6001C54.4 93.8001 54.4 95.1 54.4 96.3001C54.4 96.6 54.6 96.8001 54.9 96.6001C55.8 96.1001 56.8 95.5 57.7 95C58 94.9 58.2 94.6 58.4 94.2C59.1 92.7 59.7 91.1 60.4 89.5C60.6 89 61 88.5 61.5 88.2C63.4 87.1 67.2 84.9001 69.1 83.8001C69.3 83.7001 69.4 83.5 69.4 83.2C69.1 78.9 69 74.5 68.9 70.2Z" fill="#1A1717"/>
<path d="M26.9 82.5001H26.8L24.6 81.2001C24 80.8001 23.5 80.0001 23.5 79.3001V77.8001C23.5 77.7001 23.6 77.6001 23.7 77.6001C23.8 77.6001 23.9 77.7001 23.9 77.8001V79.3001C23.9 79.9001 24.3 80.6001 24.8 80.9001L27 82.2001C27.1 82.3001 27.1 82.4001 27.1 82.5001C27.1 82.4001 27 82.5001 26.9 82.5001Z" fill="#292929"/>
<path d="M23.6 79.1001L22.4001 78.4001C22.1001 78.2001 21.8 77.7001 21.8 77.2001V72.9001C21.8 72.4001 22.1001 72.2001 22.4001 72.4001L24.5 73.6001C24.8 73.8001 25.1 74.3001 25.1 74.8001V77.9001C25.1 79.0001 24.5 79.5001 23.6 79.1001Z" fill="#C9C8C4"/>
<path d="M25.1 77.9001V74.8001C25.1 74.3001 24.8 73.8001 24.5 73.6001L22.4001 72.4001C22.1001 72.2001 21.8 72.4001 21.8 72.8001C21.8 72.1001 22.5 71.6001 23 71.6001C23.1 71.6001 23.2 71.6001 23.3 71.7001L25.4001 72.9001C25.7001 73.1001 26 73.6001 26 74.1001V77.5001C26 77.7001 26.0001 77.9001 25.9001 78.1001C25.6001 79.0001 24.7 79.4001 24.1 79.3001C24.7 79.3001 25.1 78.8001 25.1 77.9001Z" fill="#918D89"/>
<path d="M29.6 75.3001L33 62.3001L31.8 61.6001L27.5 78.3001L29.1 79.3001V78.4001C29.2 77.5001 29.3 76.4001 29.6 75.3001Z" fill="black"/>
<path d="M55.6 75.4L42.3 67.8L42.1 70.3C42.1 70.5 42 70.8 41.8 70.9L36.1 74.2C35.7 74.5 35.3 74.9 35 75.5L33 80.1C32.9 80.4 32.6 80.7 32.4 80.9L32.1 81.1L51.3 92.2L55.6 75.4Z" fill="black"/>
<path d="M36.8 75.9001C37 75.6001 37.3 75.4001 37.4 75.6001L38.6 76.3002C38.8 76.4002 39.2 76.4001 39.5 76.2001L43.1 74.1001C43.3 74.0001 43.4 74.0001 43.5 74.1001C43.6 74.2001 43.7 74.3001 43.7 74.5001C43.7 74.8001 43.5 75.3001 43.2 75.4001L39.6 77.5001C39.1 77.8001 38.7 77.8001 38.4 77.6001L36.9 76.7001C36.6 76.5001 36.6 76.2001 36.8 75.9001Z" fill="#0F0E0E"/>
<path d="M37.7999 75.8002C37.9999 75.9002 38.3999 75.9001 38.6999 75.7001L42.2999 73.6001C42.4999 73.5001 42.5999 73.5001 42.6999 73.6001C42.7999 73.7001 43.4999 74.0001 43.4999 74.0001C43.3999 73.9001 43.2999 73.9001 43.0999 74.0001L39.4999 76.1001C39.0999 76.3001 38.7999 76.3001 38.5999 76.2001L37.7999 75.8002Z" fill="#1F1C1C"/>
<path d="M36 75.4C36.2 75.1 36.5 74.9 36.6 75.1L37.4 75.5C37.2 75.4 36.9 75.5 36.8 75.8C36.6 76.1 36.6 76.5 36.8 76.6L36 76.2C35.8 76.1 35.8 75.8 36 75.4Z" fill="#1F1C1C"/>
<path d="M60.7 89.2002C58.1 90.7002 55.9 94.4002 55.9 97.4002V98.4002L65.3 93.0002V86.5002L60.7 89.2002Z" fill="#292424"/>
<path d="M60.7 89.2001L65.3 86.5001L45.2 74.9001L40.6 77.6001C38 79.1001 35.8 82.8001 35.8 85.8001V86.8001L55.9 98.4001V97.4001C55.9 94.4001 58 90.7001 60.7 89.2001Z" fill="#4D4848"/>
<path d="M50.8 80.2002L44.6 83.8002C44.4 83.9002 44.3 83.9002 44.2 83.8002C44.1 83.7002 44 83.6002 44 83.4002V82.8002C44 82.2002 44.4 81.4002 44.9 81.0002C46 80.1002 46.9 79.5002 48 79.1002C49.1 78.6002 50.5 78.2002 51.6 77.5002L50.8 80.2002Z" fill="#4D4545"/>
<path d="M43.9 83.4001V82.8001C43.9 82.2001 44.3 81.4001 44.8 81.0001C45.9 80.1001 46.8 79.5001 47.9 79.1001C49 78.6001 50.4 78.2001 51.5 77.5001L46.1 74.4001C45 75.0001 43.6 75.5001 42.5 76.0001C41.4 76.4001 40.4 77.0001 39.4 77.9001C38.9 78.3001 38.5 79.1001 38.5 79.7001V80.3001C38.5 80.5001 38.6 80.6001 38.7 80.7001C38.8 80.8001 44.1 83.8001 44.1 83.8001C44 83.7001 43.9 83.6001 43.9 83.4001Z" fill="#393333"/>
<path d="M44.1 83.8001C44.1 83.8001 40.5 81.7001 39.1 80.9001C39.1 81.3001 39.2 81.5001 39.4 81.6001L44.8 84.7001L44.5 83.7001C44.4 83.9001 44.2 83.9001 44.1 83.8001Z" fill="#1F1C1C"/>
<path d="M52.7 68.9001C52.3 69.0001 51.9 69.5001 51.6 70.0001C51.3 70.7001 51 71.4001 50.8 72.3001C50.4 73.5001 50.3 74.5001 50.2 75.4001C50.1 76.0001 50 76.6001 49.9 77.2001L49.6 78.5001C50.3 78.2001 50.9 77.9001 51.5 77.6001L53.4 70.1001C53.5 69.6001 53.4 69.2001 53.2 69.0001C53.1 68.9001 52.9 68.8001 52.7 68.9001Z" fill="#4D4545"/>
<path d="M50.2 75.4001C50.3 74.6001 50.5 73.5001 50.8 72.3001C51 71.5001 51.3 70.7001 51.6 70.0001C51.8 69.5001 52.2 69.0001 52.7 68.9001C52.9 68.8001 53.1 68.8001 53.2 68.9001C53.2 68.9001 48 65.9001 47.8 65.8001C47.7 65.7001 47.5 65.7001 47.3 65.8001C46.9 65.9001 46.5 66.4001 46.2 66.9001C45.9 67.6001 45.6 68.3001 45.4 69.2001C45 70.4001 44.9 71.4001 44.8 72.3001C44.7 72.9001 44.6 73.5001 44.5 74.1001L44.2 75.4001L49.6 78.5001L49.9 77.2001C50.1 76.5001 50.2 75.9001 50.2 75.4001Z" fill="#2E2929"/>
<path d="M44.6 83.8C44.6 84.3 44.7 84.7 44.9 84.8C45.7 83.5 46.8 82.5 47.9 81.8L44.6 83.8Z" fill="#292424"/>
<path d="M61.7 86.4L55.5 90C55.3 90.1 55.2 90.1 55.1 90C55 89.9 54.9 89.8 54.9 89.6V89C54.9 88.4 55.3 87.6 55.8 87.2C56.9 86.3 57.8 85.7 58.9 85.3C60 84.8 61.4 84.4 62.5 83.7L61.7 86.4Z" fill="#4D4545"/>
<path d="M54.8 89.7V89.1C54.8 88.5 55.2 87.7 55.7 87.3C56.8 86.4 57.7 85.8 58.8 85.4C59.9 84.9 61.3 84.5 62.4 83.8L57 80.7C55.9 81.3 54.5 81.8 53.4 82.3C52.3 82.7 51.3 83.3 50.3 84.2C49.8 84.6 49.4 85.4 49.4 86V86.6C49.4 86.8 49.5 86.9 49.6 87C49.7 87.1 55 90.1 55 90.1C54.9 90 54.8 89.9 54.8 89.7Z" fill="#393333"/>
<path d="M55 90.1C55 90.1 51.4 88 50 87.2C50 87.6 50.1 87.7999 50.3 87.8999L55.7 91L55.4 90C55.3 90.1 55.1 90.2 55 90.1Z" fill="#1F1C1C"/>
<path d="M63.6 75.2C63.2 75.3 62.8 75.8 62.5 76.3C62.2 77 61.9 77.7 61.7 78.6C61.3 79.8 61.2 80.8 61.1 81.7C61 82.3 60.9 82.9 60.8 83.5L60.5 84.8C61.2 84.5 61.8 84.2 62.4 83.9L64.3 76.4C64.4 75.9 64.3 75.5 64.1 75.3C64 75.1 63.8 75.1 63.6 75.2Z" fill="#4D4545"/>
<path d="M61.1 81.6C61.2 80.8 61.4 79.7 61.7 78.5C61.9 77.7 62.2 76.9 62.5 76.2C62.7 75.7 63.1 75.2 63.6 75.1C63.8 75 64 75 64.1 75.1C64.1 75.1 58.9 72.1 58.7 72C58.6 71.9 58.4 71.9 58.2 72C57.8 72.1 57.4 72.6 57.1 73.1C56.8 73.8 56.5 74.5001 56.3 75.4001C55.9 76.6001 55.8 77.6 55.7 78.5C55.6 79.1 55.5 79.7001 55.4 80.3001L55.1 81.6L60.5 84.7L60.8 83.4001C60.9 82.8 61 82.2 61.1 81.6Z" fill="#2E2929"/>
<path d="M55.4 90C55.4 90.5 55.5 90.9 55.7 91C56.5 89.7 57.6 88.7 58.7 88L55.4 90Z" fill="#292424"/>
<path d="M45.8 86L45.4 86.7L46.9 87.5L47.3 86.9L49.3 87.9L47.8 87L45.8 86Z" fill="#292424"/>
<path d="M47.3 86.8999L46.9 87.4999L48.7 88.8999L49.3 87.8999L47.3 86.8999Z" fill="#1F1C1C"/>
<path d="M46.9 94.1L48.8 93.6C49.9 90.5 49 88.8 47.7 88C47 87.6 46.1 88 45.9 88.9C45.3 90.9 44.8 92.9 44.8 92.9L46.9 94.1Z" fill="#262425"/>
<path d="M47.7 88C47.7 88 45 86.4 43.7 85.7C43 85.3 42.1 85.7 41.9 86.6C41.3 88.6 40.8 90.6 40.8 90.6L44.8 92.9C44.8 92.9 45.3 90.9 45.9 88.9C46.1 88 46.9 87.6 47.7 88Z" fill="#383434"/>
<path d="M47.8001 84.6001L46.7001 86.5001C46.7001 86.5001 46.8001 86.6001 47.0001 86.7001C47.3001 86.9001 47.8001 87.1001 48.0001 87.2001C48.1001 87.2001 48.1001 87.3001 48.1001 87.3001L49.2001 85.4001L47.8001 84.6001Z" fill="#665C5C"/>
<path d="M46.4 82.9001L46.6 82.6001C47.6 83.1001 49.5 84.1001 50.9 84.9001C51.7 85.4001 52.2 85.7001 52.1 85.7001L52 85.9001L46.4 82.9001Z" fill="#4E4646"/>
<path d="M50.7 85.1001L50.6 85.3001L46 82.7001L46.1 82.4001L50.7 85.1001Z" fill="#615858"/>
<path d="M49.6001 84.3001C50.0001 84.5001 50.1001 84.6001 49.9001 84.5001L51.5001 85.4001C51.5001 85.4001 51.5001 85.4001 51.4001 85.4001C51.2001 85.3001 51.0001 85.2001 50.8001 85.1001L46.2001 82.4001C46.3001 82.4001 46.4001 82.5001 46.6001 82.6001H46.7001L48.3001 83.5001C48.7001 83.8001 49.2001 84.1001 49.6001 84.3001Z" fill="#342E2E"/>
<path d="M53 86.2L52.6 87C52.6 87 52.3 86.9 51.8 86.7C50.5 86.1 48 84.8 46.2 83.7C45.1 83.1 44.5 82.7 44.6 82.6L45 81.8C45 81.9 45.5 82.2 46.6 82.9C48.4 83.9 50.9 85.3 52.2 85.9C52.8 86.1 53 86.2 53 86.2Z" fill="#5E5555"/>
<path d="M46.8 84.1C47.7 84.6 48.7 85.2 49.6 85.6L50 84.8C49.1 84.3 48.1 83.8 47.2 83.3L46.8 84.1Z" fill="#979090"/>
<path d="M51.4 85.1C53.2 86.1 53.6 86.5 52.2 85.9C50.9 85.3 48.4 84 46.6 82.9C44.8 81.9 44.4 81.5 45.8 82.1C47.1 82.8 49.6 84.1 51.4 85.1ZM51.5 85.4C52.5 85.9 52.2 85.6 50.9 84.8C49.5 84 47.6 83 46.6 82.5C45.7 82.1 46 82.3 47.3 83.1C48.5 83.9 50.4 84.9 51.5 85.4C51.4 85.4 51.4 85.4 51.5 85.4C51.4 85.4 51.4 85.4 51.5 85.4Z" fill="#342E2E"/>
<path d="M74.1 65.9C74.1 65.9 74.8 74.2 74.8 90.9L66.8 95.5C63.9 97.2 61 100.6 60.1 104.2L58.9 109.3L51.8 113.4V93.5C51.8 92.6 51.9 91.7 52.2 90.8L56.3 74.8C56.5 74 57 73.3 57.6 72.9L72 64.6C72.5 64.3 73 64.4 73.4 64.6C73.8 64.9 74.1 65.3 74.1 65.9ZM68.9 70.2C68.9 69.9 68.6 69.8 68.4 69.9C65.7 71.5 61 74.2 58.3 75.7C58.2 75.8 58 75.9 58 76.1C57 80.5 55.9 85 54.8 89.5C54.5 90.6 54.4 91.6 54.4 92.6C54.4 93.8 54.4 95.1 54.4 96.3C54.4 96.6 54.6 96.8 54.9 96.6C55.8 96.1 56.8 95.5 57.7 95C58 94.9 58.2 94.6 58.4 94.2C59.1 92.7 59.7 91.1 60.4 89.5C60.6 89 61 88.5 61.5 88.2C63.4 87.1 67.2 84.9 69.1 83.8C69.3 83.7 69.4 83.5 69.4 83.2C69.1 78.9 69 74.5 68.9 70.2Z" fill="#0F6EA1"/>
<path d="M69.1 70C69.1 69.7 68.9 69.5 68.6 69.5L68.3 69.6C65.5 71.2 60.8 73.9 58 75.6C57.8 75.7 57.7 75.9 57.6 76.2C56.6 80.6 55.5 85.1 54.4 89.5C54.1 90.6 54 91.7 54 92.7C54 94 54 95.3 54 96.6C54 96.9 54.2 97.1 54.4 97.1L54.7 97C55.7 96.4 56.7 95.9 57.7 95.3C58 95.1 58.3 94.8 58.5 94.4C59.2 92.9 59.8 91.3 60.5 89.7C60.7 89.2 61.1 88.8 61.5 88.5C63.4 87.4 67.1 85.3 69 84.2C69.3 84 69.6 83.6 69.6 83.2C69.4 78.8 69.3 74.3 69.1 70ZM68.8 83.9C66.9 85 63.1 87.2 61.2 88.3C60.8 88.6 60.4 89 60.1 89.6C59.4 91.2 58.8 92.7 58.1 94.3C57.9 94.6 57.7 94.9 57.4 95.1C56.5 95.6 55.5 96.2 54.6 96.7C54.3 96.9 54.1 96.7 54.1 96.4C54.1 95.2 54.1 93.9 54.1 92.7C54.1 91.7 54.2 90.6 54.5 89.6C55.6 85.1 56.7 80.7 57.7 76.2C57.7 76 57.9 75.9 58 75.8C60.8 74.2 65.4 71.5 68.1 70C68.4 69.8 68.6 70 68.6 70.3C68.8 74.6 68.9 79 68.9 83.5C69.1 83.6 69 83.8 68.8 83.9Z" fill="#292929"/>
<path opacity="0.5" d="M68.9 70.2C68.9 69.9 68.6 69.8 68.4 69.9C65.7 71.5 61 74.2 58.3 75.7C58.2 75.8 58 75.9 58 76.1C57 80.5 55.9 85 54.8 89.5C54.5 90.6 54.4 91.6001 54.4 92.6001C54.4 93.8001 54.4 95.1 54.4 96.3001C54.4 96.6 54.6 96.8001 54.9 96.6001C55.8 96.1001 56.8 95.5 57.7 95C58 94.9 58.2 94.6 58.4 94.2C59.1 92.7 59.7 91.1 60.4 89.5C60.6 89 61 88.5 61.5 88.2C63.4 87.1 67.2 84.9001 69.1 83.8001C69.3 83.7001 69.4 83.5 69.4 83.2C69.1 78.9 69 74.5 68.9 70.2Z" fill="#56B1DE"/>
<path opacity="0.3" d="M70 68.6C70 68 69.6 67.8 69.1 68.1C65.9 69.9 60.9 72.8 57.7 74.7C57.3 74.9 57 75.4 56.9 75.9C55.8 80.6 54.7 85.4 53.5 90.2C53.2 91.2 53.1 92.2 53.1 93.1C53.1 97.4 53 101.7 52.9 106.1C52.9 106.7 53.3 106.9 53.8 106.6C55.7 105.5 57.1 104.7 58.9 103.6C59.3 103.4 59.6 102.9 59.8 102.4C60.5 100.5 61.7 98.5 62.9 96.8C64.2 95 65.7 93.5 67.3 92.6C67.4 92.5 69.4 91.4 69.5 91.3C70.2 90.9 70.4 90.4 70.4 89.7C70.3 82.7 70.3 75.6 70 68.6ZM70 90C70 90.4 69.7 90.9 69.3 91.1C69.2 91.2 67.2 92.3 67.1 92.4C65.5 93.3 63.9 94.8 62.6 96.7C61.4 98.4 60.2 100.3 59.4 102.5C59.3 102.8 59.1 103.2 58.8 103.3C56.9 104.4 55.5 105.2 53.7 106.3C53.4 106.5 53.1 106.3 53.1 105.9C53.3 101.5 53.3 97.2 53.3 92.9C53.3 92 53.4 91.1 53.7 90.1C54.9 85.3 56.1 80.6 57.1 75.8C57.2 75.4 57.4 75.1 57.7 75L69.1 68.4C69.4 68.2 69.8 68.4 69.8 68.8C70.1 75.7 70.1 82.8 70 90Z" fill="black"/>
<path d="M48.7001 50.4C48.3001 50.1 47.8001 50.1 47.3001 50.4L32.9001 58.7C32.3001 59 31.8001 59.8 31.6001 60.6L27.5001 76.6C27.3001 77.6 27.1001 78.5001 27.1001 79.3001V97.8C27.1001 98.6 27.6001 99.4 28.3001 99.9L51.9001 113.5V93.6001C51.9001 92.7001 52.0001 91.8 52.3001 90.9L56.4001 74.9C56.6001 74.1 57.1001 73.4 57.7001 73L72.1001 64.7C72.6001 64.4 73.1001 64.5 73.5001 64.7L48.7001 50.4ZM51.4001 92.1001L27.6001 78.3001L31.9001 61.6C35.6001 64 39.5001 66.4001 43.7001 68.8001C47.8001 71.2001 51.8001 73.3001 55.7001 75.3001L51.4001 92.1001Z" fill="#0F6EA1"/>
<path d="M28.5001 78.5001L27.6001 78.4001C30.8001 80.7001 34.4001 83.1001 38.5001 85.5001C43.1001 88.2001 47.4001 90.4001 51.5001 92.2001L51.7001 91.6002C47.8001 89.6002 43.8001 87.5001 39.6001 85.0001C36.2001 83.0001 33.0001 81.0001 29.9001 79.0001C29.4001 78.8001 28.9001 78.6001 28.5001 78.5001Z" fill="#0F0F0F"/>
<path d="M42.2001 64.3001C41.6001 64.3001 41.2001 64.0001 41.2001 63.7001C41.2001 63.4001 41.6001 63.1001 42.2001 63.1001C42.8001 63.1001 43.2001 63.4001 43.2001 63.7001C43.2001 64.0001 42.7001 64.3001 42.2001 64.3001Z" fill="#707D85"/>
<path d="M42.2001 64.3002C41.6001 64.3002 41.2001 64.0002 41.2001 63.7002V63.9002C41.2001 64.2002 41.6001 64.5002 42.2001 64.5002C42.8001 64.5002 43.2001 64.2002 43.2001 63.9002C43.2001 63.8002 43.2001 63.7002 43.2001 63.7002C43.2001 64.0002 42.7001 64.3002 42.2001 64.3002Z" fill="#464B51"/>
<path d="M42.2 63.1C41.9 63.1 41.6 63 41.6 62.8C41.6 62.6 41.9 62.5 42.2 62.5C42.5 62.5 42.8 62.6 42.8 62.8C42.8 62.9 42.5 63.1 42.2 63.1Z" fill="#FFD21F"/>
<path d="M42.2 63.1C41.9 63.1 41.6 63 41.6 62.8C41.6 62.8 41.4 63.6 41.4 63.7C41.4 63.9 41.7 64.1 42.1 64.1C42.5 64.1 42.8 63.9 42.8 63.7C42.8 63.6 42.6 62.8 42.6 62.8C42.8 62.9 42.5 63.1 42.2 63.1Z" fill="#FAA400"/>
<path d="M49.3 68.3001C48.7 68.3001 48.3 68.0001 48.3 67.7001C48.3 67.4001 48.7 67.1001 49.3 67.1001C49.9 67.1001 50.3 67.4001 50.3 67.7001C50.3 68.0001 49.8 68.3001 49.3 68.3001Z" fill="#707D85"/>
<path d="M49.3 68.3002C48.7 68.3002 48.3 68.0002 48.3 67.7002V67.9002C48.3 68.2002 48.7 68.5002 49.3 68.5002C49.9 68.5002 50.3 68.2002 50.3 67.9002C50.3 67.8002 50.3 67.7002 50.3 67.7002C50.3 68.1002 49.8 68.3002 49.3 68.3002Z" fill="#464B51"/>
<path d="M49.3 67.2001C49 67.2001 48.7 67.1001 48.7 66.9001C48.7 66.7001 49 66.6001 49.3 66.6001C49.6 66.6001 49.9 66.7001 49.9 66.9001C49.8 67.0001 49.6 67.2001 49.3 67.2001Z" fill="#FFD21F"/>
<path d="M49.3 67.2001C49 67.2001 48.7 67.1001 48.7 66.9001C48.7 66.9001 48.5 67.7001 48.5 67.8001C48.5 68.0001 48.8 68.2001 49.2 68.2001C49.6 68.2001 49.9 68.0001 49.9 67.8001C49.9 67.7001 49.7 66.9001 49.7 66.9001C49.8 67.0001 49.6 67.2001 49.3 67.2001Z" fill="#FAA400"/>
<path d="M45.7001 66.3001C45.1001 66.3001 44.7001 66.0001 44.7001 65.7001C44.7001 65.4001 45.1001 65.1001 45.7001 65.1001C46.3001 65.1001 46.7001 65.4001 46.7001 65.7001C46.7001 66.0001 46.3001 66.3001 45.7001 66.3001Z" fill="#707D85"/>
<path d="M45.7001 66.3002C45.1001 66.3002 44.7001 66.0002 44.7001 65.7002V65.9002C44.7001 66.2002 45.1001 66.5002 45.7001 66.5002C46.3001 66.5002 46.7001 66.2002 46.7001 65.9002C46.7001 65.8002 46.7001 65.7002 46.7001 65.7002C46.7001 66.0002 46.3001 66.3002 45.7001 66.3002Z" fill="#464B51"/>
<path d="M45.7 65.1C45.4 65.1 45.1 65 45.1 64.8C45.1 64.6 45.4 64.5 45.7 64.5C46 64.5 46.3 64.6 46.3 64.8C46.3 65 46 65.1 45.7 65.1Z" fill="#FFD21F"/>
<path d="M45.7 65.1C45.4 65.1 45.1 65 45.1 64.8C45.1 64.8 44.9 65.6 44.9 65.7C44.9 65.9 45.2 66.1 45.6 66.1C46 66.1 46.3 65.9 46.3 65.7C46.3 65.6 46.1 64.8 46.1 64.8C46.3 65 46 65.1 45.7 65.1Z" fill="#FAA400"/>
<path d="M26.4001 82.5C26.7001 82.7 27.3001 82.7 27.7001 82.4L28.5001 81.9L27.3001 81.2L26.5001 81.7C26.3001 81.8 26.2001 82 26.2001 82.1C26.2001 82.3 26.3001 82.4 26.4001 82.5Z" fill="#3D3838"/>
<path d="M27.7001 82.5C27.3001 82.7 26.7001 82.7 26.4001 82.6C26.2001 82.5 26.2001 82.4 26.2001 82.3C26.2001 82.3 26.2001 83.1 26.2001 83.3C26.2001 83.4 26.3001 83.5 26.4001 83.6C26.7001 83.8 27.3001 83.8 27.7001 83.5L28.5001 83V82L27.7001 82.5Z" fill="#1A1717"/>
<path d="M49.5 95.8999C49.3 95.7999 49.3 95.7 49.3 95.6C49.3 95.5 49.4 95.3 49.6 95.2L50.4 94.7L51.6 95.3999L50.8 95.8999C50.4 95.9999 49.9 95.9999 49.5 95.8999Z" fill="#3D3838"/>
<path d="M50.8 95.8C50.4 96 49.8 96 49.5 95.9C49.3 95.8 49.3 95.7001 49.3 95.6001C49.3 95.6001 49.3 96.4001 49.3 96.6001C49.3 96.7001 49.4 96.8 49.5 96.9C49.8 97.1 50.4 97.1 50.8 96.8L51.6 96.3V95.3L50.8 95.8Z" fill="#1A1717"/>
<path d="M53 97.3999C52.8 97.3999 52.6 97.3 52.4 97.2L50.9 96.3C50.8 96.2 50.8 96.1 50.8 96C50.9 95.9 51 95.8999 51.1 95.8999L52.6 96.8C52.8 96.9 53 96.8999 53.1 96.8999C53.2 96.7999 53.3 96.6999 53.3 96.3999V94.8999C53.3 94.7999 53.4 94.7 53.5 94.7C53.6 94.7 53.7 94.7999 53.7 94.8999V96.3999C53.7 96.7999 53.6 97.1 53.3 97.2C53.3 97.4 53.1 97.3999 53 97.3999Z" fill="#292929"/>
<path d="M56.6001 69.3L67.2001 63.2C67.4001 63.1 67.6001 63.1 67.8001 63.2L68.7001 63.7C68.8001 63.7 68.8001 63.8 68.8001 63.9C68.8001 64 68.8001 64 68.7001 64.1L58.1001 70.2C57.9001 70.3 57.7001 70.3 57.5001 70.2L56.6001 69.7C56.5001 69.7 56.5001 69.6 56.5001 69.5C56.5001 69.4 56.6001 69.3 56.6001 69.3Z" fill="#0F6EA1"/>
<path opacity="0.6" d="M56.6001 69.6L57.5001 70.1C57.7001 70.2 57.9001 70.2 58.1001 70.1L68.7001 64C68.8001 64 68.8001 63.9 68.8001 63.8V64C68.8001 64.1 68.8001 64.1 68.7001 64.2L58.1001 70.3C57.9001 70.4 57.7001 70.4 57.5001 70.3L56.6001 69.8C56.5001 69.8 56.5001 69.7 56.5001 69.6V69.4C56.5001 69.5 56.6001 69.6 56.6001 69.6Z" fill="black"/>
<path d="M37.2001 57.9999L47.8001 51.9C48.0001 51.8 48.2001 51.8 48.4001 51.9L49.3001 52.4C49.4001 52.4 49.4001 52.4999 49.4001 52.5999C49.4001 52.6999 49.4001 52.7 49.3001 52.8L38.7001 58.9C38.5001 59 38.3001 59 38.1001 58.9L37.2001 58.4C37.1001 58.4 37.1001 58.2999 37.1001 58.1999C37.1001 58.0999 37.1001 58.0999 37.2001 57.9999Z" fill="#0F6EA1"/>
<path opacity="0.6" d="M37.2001 58.3999L38.1001 58.8999C38.3001 58.9999 38.5001 58.9999 38.7001 58.8999L49.3001 52.7999C49.4001 52.7999 49.4001 52.6999 49.4001 52.5999V52.7999C49.4001 52.8999 49.4001 52.8999 49.3001 52.9999L38.7001 59.0999C38.5001 59.1999 38.3001 59.1999 38.1001 59.0999L37.2001 58.5999C37.1001 58.5999 37.1001 58.4999 37.1001 58.3999V58.1999C37.1001 58.2999 37.1001 58.2999 37.2001 58.3999Z" fill="black"/>
<path d="M41.1001 60.3L51.7001 54.2C51.9001 54.1 52.1001 54.1 52.3001 54.2L53.2001 54.7C53.3001 54.7 53.3001 54.8 53.3001 54.9C53.3001 55 53.3001 55 53.2001 55.1L42.6001 61.2C42.4001 61.3 42.2001 61.3 42.0001 61.2L41.1001 60.7C41.0001 60.7 41.0001 60.6 41.0001 60.5C41.0001 60.4 41.0001 60.3 41.1001 60.3Z" fill="#0F6EA1"/>
<path opacity="0.6" d="M41.1001 60.6L42.0001 61.1C42.2001 61.2 42.4001 61.2 42.6001 61.1L53.2001 55C53.3001 55 53.3001 54.9 53.3001 54.8V55C53.3001 55.1 53.3001 55.1 53.2001 55.2L42.6001 61.3C42.4001 61.4 42.2001 61.4 42.0001 61.3L41.1001 60.8C41.0001 60.8 41.0001 60.7 41.0001 60.6V60.4C41.0001 60.5 41.0001 60.6 41.1001 60.6Z" fill="black"/>
<path d="M45.0001 62.4999L55.6001 56.4C55.8001 56.3 56.0001 56.3 56.2001 56.4L57.1001 56.9C57.2001 56.9 57.2001 56.9999 57.2001 57.0999C57.2001 57.1999 57.2001 57.2 57.1001 57.3L46.5001 63.4C46.3001 63.5 46.1001 63.5 45.9001 63.4L45.0001 62.9C44.9001 62.9 44.9001 62.7999 44.9001 62.6999C44.9001 62.5999 44.9001 62.5999 45.0001 62.4999Z" fill="#0F6EA1"/>
<path opacity="0.6" d="M45.0001 62.8999L45.9001 63.3999C46.1001 63.4999 46.3001 63.4999 46.5001 63.3999L57.1001 57.2999C57.2001 57.2999 57.2001 57.1999 57.2001 57.0999V57.2999C57.2001 57.3999 57.2001 57.3999 57.1001 57.4999L46.5001 63.5999C46.3001 63.6999 46.1001 63.6999 45.9001 63.5999L45.0001 63.0999C44.9001 63.0999 44.9001 62.9999 44.9001 62.8999V62.6999C44.9001 62.7999 44.9001 62.7999 45.0001 62.8999Z" fill="black"/>
<path d="M48.9001 64.8L59.5001 58.7C59.7001 58.6 59.9001 58.6 60.1001 58.7L61.0001 59.2C61.1001 59.2 61.1001 59.3 61.1001 59.4C61.1001 59.5 61.1001 59.5 61.0001 59.6L50.4001 65.7C50.2001 65.8 50.0001 65.8 49.8001 65.7L48.9001 65.2C48.8001 65.2 48.8001 65.1 48.8001 65C48.7001 64.9 48.8001 64.8 48.9001 64.8Z" fill="#0F6EA1"/>
<path opacity="0.6" d="M48.9001 65.1L49.8001 65.6C50.0001 65.7 50.2001 65.7 50.4001 65.6L61.0001 59.5C61.1001 59.5 61.1001 59.4 61.1001 59.3V59.5C61.1001 59.6 61.1001 59.6 61.0001 59.7L50.4001 65.8C50.2001 65.9 50.0001 65.9 49.8001 65.8L48.9001 65.3C48.8001 65.3 48.8001 65.2 48.8001 65.1V64.9C48.7001 65 48.8001 65.1 48.9001 65.1Z" fill="black"/>
<path d="M52.8001 66.9999L63.4001 60.9C63.6001 60.8 63.8001 60.8 64.0001 60.9L64.9001 61.4C65.0001 61.4 65.0001 61.4999 65.0001 61.5999C65.0001 61.6999 65.0001 61.7 64.9001 61.8L54.3001 67.9C54.1001 68 53.9001 68 53.7001 67.9L52.8001 67.4C52.7001 67.4 52.7001 67.2999 52.7001 67.1999C52.6001 67.0999 52.7001 67.0999 52.8001 66.9999Z" fill="#0F6EA1"/>
<path opacity="0.6" d="M52.8001 67.3999L53.7001 67.8999C53.9001 67.9999 54.1001 67.9999 54.3001 67.8999L64.9001 61.7999C65.0001 61.7999 65.0001 61.6999 65.0001 61.5999V61.7999C65.0001 61.8999 65.0001 61.8999 64.9001 61.9999L54.3001 68.0999C54.1001 68.1999 53.9001 68.1999 53.7001 68.0999L52.8001 67.5999C52.7001 67.5999 52.7001 67.4999 52.7001 67.3999V67.1999C52.6001 67.2999 52.7001 67.2999 52.8001 67.3999Z" fill="black"/>
<path d="M77.6 100.6V100.2C77.8 95.6999 74.4 93.2999 70.4 95.2999C70.4 95.4999 70.4 95.7999 70.4 96.0999V96.4999C70.4 96.6999 70.5 96.7999 70.7 96.8999L77.8 101C77.7 101 77.6 100.8 77.6 100.6Z" fill="black"/>
<path d="M62.4 100.9C63.5 98.9999 65 97.4999 66.4 96.6999C67.3 96.1999 68.2 95.8999 69 95.8999C69.3 95.8999 69.6 95.8999 69.9 95.8999C70.4 95.8999 70.9 95.9999 71.4 96.2999L74.2 97.8999C73 97.1999 71.5 97.3999 70 98.2999C68.5 99.1999 66.9 100.7 65.8 102.8C63.5 106.8 63.5 111.2 65.8 112.5L63 110.9C62 110.3 61.5 109.2 61.4 109.1C60.2 107.2 60.6 103.9 62.4 100.9Z" fill="#1A1A1A"/>
<path d="M65.7 102.8C66.9 100.8 68.4 99.1999 69.9 98.2999C71.4 97.3999 73 97.1999 74.1 97.8999C74.9 98.3999 75.5 99.4999 75.8 100.6C76 101.3 68.2 112.7 68.2 112.7C67.3 112.9 66.1 112.7 65.6 112.5C63.3 111.1 63.3 106.8 65.7 102.8Z" fill="#292929"/>
<path d="M66.3 112.4C68.5 113.7 72.1 111.6 74.3 107.8C76.5 104 76.5 99.7999 74.3 98.4999C72.1 97.1999 68.5 99.2999 66.3 103.1C64.1 107 64.1 111.1 66.3 112.4Z" fill="#1A1A1A"/>
<path d="M67.8001 109.8C69.2001 110.6 71.4001 109.3 72.8001 106.9C74.2001 104.5 74.2001 101.9 72.8001 101.1C71.4001 100.3 69.2001 101.6 67.8001 104C66.4001 106.4 66.4001 109 67.8001 109.8Z" fill="black"/>
<path d="M67.6001 110.1C69.1001 111 71.5001 109.6 73.0001 107C74.5001 104.4 74.5001 101.6 73.0001 100.7C71.5001 99.8 69.1001 101.2 67.6001 103.8C66.1001 106.5 66.1001 109.3 67.6001 110.1ZM67.8001 104C68.3001 103.2 68.8001 102.5 69.4001 102V104C69.3001 104.2 69.1001 104.3 69.0001 104.5L67.3001 104.8C67.5001 104.6 67.6001 104.3 67.8001 104ZM73.3001 101.5L71.6001 103.1C71.5001 103 71.4001 103 71.2001 103V101C71.8001 100.8 72.3001 100.9 72.8001 101.1C73.0001 101.2 73.2001 101.3 73.3001 101.5ZM73.1001 106.4L72.1001 105.4C72.2001 105.2 72.2001 105 72.2001 104.8L73.9001 103.2C73.9001 104.2 73.6001 105.3 73.1001 106.4ZM69.1001 110L70.1001 107.8C70.3001 107.7 70.4001 107.6 70.6001 107.5L71.6001 108.5C70.8001 109.4 69.9001 109.9 69.1001 110ZM66.8001 107.3L68.5001 107C68.5001 107.2 68.6001 107.3 68.6001 107.4L67.6001 109.6C67.0001 109.1 66.7001 108.3 66.8001 107.3Z" fill="#D1CEBA"/>
<path d="M68.9 103.8V102.6C69.1 102.4 69.2 102.3 69.4 102.1V104.1C69.3 104.3 69.1 104.4 69 104.6L67.3 104.9C67.4 104.8 67.4 104.6 67.5 104.5L68.5 104.3C68.6 104.1 68.8 103.9 68.9 103.8Z" fill="#ADAA99"/>
<path d="M68.0001 107L68.4001 106.9C68.4001 107.1 68.5001 107.2 68.5001 107.3L67.5001 109.5C67.3001 109.4 67.2001 109.2 67.1001 109L68.0001 107C68.1001 107.1 68.1001 107.1 68.0001 107Z" fill="#ADAA99"/>
<path d="M73.9001 103.2C73.9001 104.1 73.7001 105.3 73.1001 106.4L72.7001 106C73.1001 105.2 73.3001 104.4 73.4001 103.7L73.9001 103.2Z" fill="#ADAA99"/>
<path d="M71.1001 108.3L70.4001 107.6L70.5001 107.5L71.5001 108.5C70.7001 109.3 69.8001 109.8 69.0001 109.9L69.2001 109.4C69.9001 109.3 70.5001 108.9 71.1001 108.3Z" fill="#ADAA99"/>
<path d="M72.6 101C72.7 101 72.8 101.1 72.9 101.1C73.1 101.2 73.2 101.3 73.4 101.5L71.7 103.1C71.6 103 71.5 103 71.3 103V102.7L72.8 101.2C72.7 101.1 72.6 101 72.6 101Z" fill="#ADAA99"/>
<path d="M70.0001 106C70.2001 106.1 70.5001 105.9 70.7001 105.6C70.9001 105.3 70.9001 104.9 70.7001 104.8C70.5001 104.7 70.2001 104.9 70.0001 105.2C69.8001 105.5 69.8001 105.9 70.0001 106Z" fill="#222222"/>
<path d="M70.1 104.4C70.2 104.5 70.4 104.4 70.5 104.2C70.6 104 70.6 103.8 70.5 103.7C70.4 103.6 70.2 103.7 70.1 103.9C70 104.1 70 104.3 70.1 104.4Z" fill="#222222"/>
<path d="M71.1 105.8C70.9 105.9 70.8 106.1 70.8 106.2C70.8 106.4 70.9 106.5 71 106.4C71.2 106.3 71.3 106.1 71.3 106C71.3 105.9 71.2 105.8 71.1 105.8Z" fill="#222222"/>
<path d="M69.9001 106.8C69.9001 106.6 69.7001 106.6 69.6001 106.7C69.4001 106.8 69.3001 107 69.4001 107.2C69.4001 107.4 69.6001 107.4 69.7001 107.3C69.8001 107.2 69.9001 107 69.9001 106.8Z" fill="#222222"/>
<path d="M69.3001 105.9C69.4001 105.7 69.5001 105.5 69.4001 105.4C69.3001 105.3 69.2001 105.3 69.0001 105.5C68.9001 105.7 68.8001 105.9 68.9001 106C69.0001 106.1 69.1001 106.1 69.3001 105.9Z" fill="#222222"/>
<path d="M71.2001 104.3C71.1001 104.5 71.2001 104.7 71.3001 104.7C71.4001 104.7 71.6001 104.5 71.7001 104.3C71.8001 104.1 71.7001 103.9 71.6001 103.9C71.5001 104 71.3001 104.1 71.2001 104.3Z" fill="#222222"/>
<path d="M60.5001 110.3V109.5C60.5001 107.1 61.2001 104.5 62.3001 102.1C64.0001 98.6 66.6001 95.4999 69.6001 93.7999L70.2001 93.3999C73.2001 91.6999 75.8001 91.7999 77.5001 93.3999C78.6001 94.3999 79.3001 96.1999 79.3001 98.3999C79.3001 95.0999 78.2001 93.2 76.9001 92.1C75.0001 90.4 72.2001 90.4 69.1001 92.1L68.5001 92.4999C65.4001 94.2999 62.6001 97.4999 60.7001 101.4C59.4001 104.1 58.7001 106.9 58.7001 109.3C58.7001 111.7 60.4001 111.4 61.3001 110.9C60.9001 111.1 60.5001 110.9 60.5001 110.3Z" fill="#474747"/>
<path d="M77.5 93.4001C75.8 91.8001 73.2 91.7001 70.2 93.4001L69.6 93.8001C66.6 95.5001 64 98.7002 62.3 102.1C61.1 104.5 60.5 107.1 60.5 109.5V110.3C60.5 111 60.9 111.2 61.4 110.8C61.6 110.7 61.7 110.5 61.9 110.2C62 110 62.1 109.7 62.1 109.5V109.1C62.1 104.3 65.6 98.1001 69.8 95.6001C74 93.2001 77.5 95.4001 77.5 100.2V100.6C77.5 100.8 77.6 100.9 77.7 101C77.8 101.1 78 101.1 78.2 101C78.8 100.7 79.1 100 79.1 99.4001V98.6001C79.3 96.2001 78.6 94.4001 77.5 93.4001Z" fill="#292929"/>
<path d="M26.7 94C26.6 94.1 26.6 94.2 26.7 94.3L26.8 94.3999C26.9 94.4999 27 94.6 27.1 94.7V93.7C27.1 93.7 26.8 93.8 26.7 94Z" fill="black"/>
<path d="M51 112.4V110.9C51 110.2 51.4 109.3 52 109L61.8 103.3C61.8 103.3 60.8 103.5 60 103.2L52.9 107.3C52.4 107.6 51.8 107.7 51.2 107.7C50.8 107.7 50.5 107.7 50.1 107.6C46.6 106.8 42.9 104.8 38.1 102.1C33.4 99.4 29.2 96.8 26.9 94.3L26.8 94.2C26.7 94.1 26.7 94 26.8 93.9C26.9 93.8 27.2 93.6 27.2 93.6V92.5L26 93.2C25.1 93.7 24.4 94.9 24.4 95.9V97.6C24.4 98.6 24.7 99.3 25.1 99.8C27.8 102.9 32.3 105.7 37.9 109C43.6 112.3 48.3 114.2 52.5 115.1C52.4 115.1 52.2 115 52.1 114.9C51.3 114.5 51 113.7 51 112.4Z" fill="#383838"/>
<path d="M62.8 102.7L52 109C51.4 109.4 50.9 110.2 50.9 110.9V112.4C50.9 113.6 51.3 114.5 52.1 114.9C52.7 115.3 53.5 115.2 54.5 114.8C54.7 114.7 61.5 110.7 61.5 110.7L62.8 102.7Z" fill="#292929"/>
<path opacity="0.08" d="M26.1 95.7001C26.1 95.7001 26.2 95.7001 26.2 95.8001C29.9 98.7001 33.6 101.2 37.3 103.4C41 105.6 44.8 107.3 48.4 108.7C48.4 108.7 48.5 108.7 48.5 108.8C48.8 109 49 109.3 49 109.7C49 110.1 48.7 110.3 48.4 110.2C44.7 108.8 41 107.1 37.3 104.9C33.6 102.7 29.8 100.2 26.2 97.3001C25.9 97.0001 25.6 96.5001 25.6 96.1001C25.6 95.6001 25.9 95.5001 26.1 95.7001Z" fill="white"/>
<path d="M39 109L39.2 108.9V106.6L31.6 102.2L31.4 102.3L39 106.7V109Z" fill="#292929"/>
<path d="M31.4 104.6L39 109V106.7L31.4 102.3V104.6Z" fill="#474747"/>
<path d="M38.8 106.8L31.6 102.7V104.5L38.8 108.6V106.8Z" fill="white"/>
<path d="M44.9 101.8C42.7 100.8 40.6 99.7 38.4 98.4C36.2 97.1 34 95.8 31.9 94.3C32 94.7 32 95.2001 32.1 95.6001C32.2 96.6001 32.8 97.6001 33.5 98.1001C35.1 99.2001 36.8 100.2 38.4 101.1C40 102 41.7 102.9 43.3 103.7C44 104 44.6 103.7 44.7 102.9C44.8 102.5 44.8 102.2 44.9 101.8Z" fill="#292626"/>
<path d="M45.4 98.8C43.1 97.7 40.7 96.5 38.4 95.2C36.1 93.8 33.7 92.3 31.4 90.7C31.5 91.3 31.6 91.7999 31.6 92.3999C33.9 93.9999 36.1 95.4 38.4 96.7C40.7 98 42.9 99.2 45.2 100.2C45.2 100.2 45.3 99.2 45.4 98.8Z" fill="#292626"/>
<path d="M45.2 100.2C42.9 99.1999 40.7 97.9999 38.4 96.6999C36.1 95.3999 33.9 93.8999 31.6 92.3999L31.9 94.3999C34.1 95.8999 36.2 97.2999 38.4 98.4999C40.6 99.7999 42.8 100.9 44.9 101.9L45.2 100.2Z" fill="#07527E"/>
<path d="M68.3001 88.2002L65.5001 89.8002C65.2001 90.0002 65.0001 89.8002 65.0001 89.4002V89.2002C65.0001 88.8002 65.2001 88.4002 65.5001 88.2002L68.3001 86.6002C68.6001 86.4002 68.8001 86.6002 68.8001 87.0002V87.2002C68.8001 87.6002 68.6001 88.0002 68.3001 88.2002Z" fill="#292929"/>
<path d="M64.9001 89.4001V89.2001C64.9001 88.8001 65.1001 88.4001 65.4001 88.2001L68.2001 86.6001C68.4001 86.5001 68.5001 86.5001 68.6001 86.6001C68.5001 86.5001 68.3001 86.4001 68.2001 86.4001C68.1001 86.4001 68.1001 86.4001 68.0001 86.5001C67.1001 87.0001 66.1001 87.6002 65.2001 88.1002C64.9001 88.3002 64.7001 88.7002 64.7001 89.1002V89.3001C64.7001 89.5001 64.7001 89.6001 64.8001 89.7001C64.9001 89.8001 65.0001 89.9001 65.2001 89.9001C65.1001 89.9001 64.9001 89.7001 64.9001 89.4001Z" fill="#474747"/>
<path d="M67.6 87.8002L66.2 88.6002C66 88.7002 65.9 89.0002 65.9 89.2002V89.6002L68 88.4002V88.0002C67.9 87.8002 67.8 87.7002 67.6 87.8002Z" fill="#141414"/>
<path d="M60.1001 109.9L54.7001 113C54.4001 113.2 54.2001 113 54.3001 112.6C54.6001 111 55.9001 109.1 57.4001 108.2C59.0001 107.3 60.2001 107.7 60.5001 109C60.6001 109.3 60.4001 109.7 60.1001 109.9Z" fill="black"/>
<path d="M59.5001 109.2C58.7001 108.8 57.8001 108.8 57.0001 109.3C55.7001 110.2 54.4001 111.4 54.2001 112.7C54.1001 113 54.3001 113.2 54.6001 113.1L60.0001 110C60.1001 110 60.2001 109.9 60.2001 109.8L59.5001 109.2Z" fill="#474747"/>
<path opacity="0.5" d="M54.7001 75.5999C54.6001 75.5999 54.6001 75.5999 54.7001 75.5999C50.9001 73.6999 47.2001 71.5999 43.5001 69.4999C39.8001 67.3999 36.1001 65.1 32.5001 62.8C32.3001 62.7 32.1001 62.7999 32.0001 63.0999C31.0001 67.0999 29.8001 71.5999 28.8001 75.5999C28.5001 76.6999 28.7001 77.4999 29.3001 78.0999C31.8001 80.6999 34.3001 83 38.4001 85.4C38.5001 85.4 38.5001 85.4999 38.6001 85.4999C42.7001 87.7999 47.2001 89.5 50.2001 90.1C50.9001 90.2 51.4001 89.7999 51.7001 88.6999C52.7001 84.6999 53.9001 80.0999 54.9001 76.1999C55.0001 75.9999 54.9001 75.6999 54.7001 75.5999Z" fill="#56B1DE"/>
<path d="M55.7001 75.4C51.7001 73.3 47.7001 71.2 43.7001 68.9C39.7001 66.6 35.8001 64.2 31.9001 61.7C30.5001 67 29.0001 73.1 27.6001 78.4C27.4001 79.5 28.3001 80.9 29.3001 81.6C32.1001 83.9 35.6001 86.4 39.6001 88.7C43.6001 91 46.4001 92.1 49.3001 93.2C50.2001 93.6 51.3001 93.1 51.6001 92C51.4001 92.1 54.3001 80.9 55.7001 75.4ZM28.8001 75.6C29.8001 71.6 31.0001 67 32.0001 63.1C32.1001 62.8 32.3001 62.7 32.5001 62.8C36.1001 65.1 39.8001 67.4 43.5001 69.5C47.2001 71.6 50.9001 73.7 54.6001 75.6C54.8001 75.7 54.9001 76 54.8001 76.3C53.8001 80.3 52.6001 84.8 51.6001 88.8C51.3001 89.9 50.8001 90.3 50.1001 90.2C47.1001 89.6 42.6001 87.9 38.5001 85.6C38.4001 85.6 38.4001 85.5 38.3001 85.5C34.2001 83.1 31.7001 80.7 29.2001 78.2C28.7001 77.5 28.5001 76.6 28.8001 75.6Z" fill="#313236"/>
<path d="M53.8 95.9001L55 96.6001C55.3 96.8001 55.6 96.6001 55.6 96.1001V91.8001C55.6 91.3001 55.3 90.8001 55 90.6001L52.9 89.4001C52.6 89.2001 52.3 89.4001 52.3 89.9001V93.0001C52.3 94.1001 53 95.4001 53.8 95.9001Z" fill="#C9C8C4"/>
<path d="M55.7 96.1001V91.8001C55.7 91.3001 55.4 90.8001 55.1 90.6001L53 89.4001C52.7 89.2001 52.4 89.4001 52.4 89.8001C52.4 89.1001 53.1 88.6001 53.6 88.6001C53.7 88.6001 53.8 88.6001 53.9 88.7001L56 89.9001C56.3 90.1001 56.6 90.6001 56.6 91.1001V95.7001C56.6 95.8001 56.6 95.9001 56.6 96.0001C56.4 96.6001 55.8 96.8001 55.4 96.7001C55.5 96.7001 55.7 96.5001 55.7 96.1001Z" fill="#918D89"/>
<path d="M135.6 49.1997V62.7997C135.6 63.4997 135.1 63.7997 134.5 63.3997L123.5 56.9997L121.2 56.2997V56.4997L135.3 64.5997C135.7 64.7997 136.1 64.7997 136.3 64.6997C136.6 64.5997 136.7 64.1997 136.7 63.7997V49.7997L135.6 49.1997Z" fill="#3D3838"/>
<path d="M122.3 55.7998L124.5 56.4998L123.4 57.0998L121.2 56.3998L122.3 55.7998Z" fill="#8A7C7C"/>
<path d="M124.5 56.4998L135.5 62.8998C135.5 63.5998 135 63.8998 134.4 63.4998L123.4 57.0998L124.5 56.4998Z" fill="#756A6A"/>
<path d="M136.7 63.8998V49.7998L135.5 49.0998L136.6 48.4998L137.8 49.1998V63.2998C137.8 63.7998 137.6 64.0998 137.4 64.1998C137.1 64.3998 136.3 64.7998 136.3 64.7998C136.5 64.6998 136.7 64.3998 136.7 63.8998Z" fill="#756A6A"/>
<path d="M128.3 53.3V67C128.3 67.7 127.8 68 127.2 67.6L116.2 61.2L113.9 60.5V60.7L128 68.8C128.4 69 128.8 69 129 68.9C129.3 68.8 129.4 68.4 129.4 68V54L128.3 53.3Z" fill="#3D3838"/>
<path d="M115.1 59.8999L117.3 60.5999L116.2 61.2999L114 60.5999L115.1 59.8999Z" fill="#8A7C7C"/>
<path d="M117.3 60.5999L128.3 66.9999C128.3 67.6999 127.8 67.9999 127.2 67.5999L116.2 61.1999L117.3 60.5999Z" fill="#756A6A"/>
<path d="M129.5 68.1V54L128.3 53.3L129.4 52.7L130.6 53.4V67.5C130.6 68 130.4 68.3 130.2 68.4C129.9 68.6 129.1 69 129.1 69C129.3 68.9 129.5 68.6 129.5 68.1Z" fill="#756A6A"/>
<path d="M139 59.1L140.6 58.2L121.6 47.3L120 48.2L139 59.1Z" fill="#CC9545"/>
<path d="M121.3 69.4L122.9 68.4L103.9 57.5L102.3 58.4L121.3 69.4Z" fill="#CC9545"/>
<path d="M130.1 64.2001L131.7 63.3001L112.8 52.4001L111.2 53.3001L130.1 64.2001Z" fill="#CC9545"/>
<path d="M139 61.1V59.1L120 48.2V50.2L139 61.1Z" fill="#A36A01"/>
<path d="M121.3 71.2999L122.9 70.3999V68.3999L121.3 69.3999V71.2999Z" fill="#975E0D"/>
<path d="M121.3 71.2999V69.3999L102.3 58.3999V60.3999L121.3 71.2999Z" fill="#C1954E"/>
<path d="M130.1 66.2V64.2L111.2 53.3V55.3L130.1 66.2Z" fill="#A36A01"/>
<path d="M118.5 67.1L121.3 68.7L140.6 57.6L137.8 56L118.5 67.1Z" fill="#DFAA5C"/>
<path d="M140.6 57.6001V58.2001L121.3 69.4001V68.7001L140.6 57.6001Z" fill="#975E0D"/>
<path d="M121.3 68.7001V69.4001L118.5 67.7001V67.1001L121.3 68.7001Z" fill="#C1954E"/>
<path d="M114.4 64.8L117.2 66.4L136.5 55.3L133.7 53.7L114.4 64.8Z" fill="#DFAA5C"/>
<path d="M136.5 55.3V55.9L117.2 67V66.4L136.5 55.3Z" fill="#BF7E00"/>
<path d="M117.2 66.4V67L114.4 65.4V64.8L117.2 66.4Z" fill="#C1954E"/>
<path d="M110.4 62.5L113.2 64.1L132.5 52.9L129.7 51.3L110.4 62.5Z" fill="#DFAA5C"/>
<path d="M132.5 52.9001V53.6001L113.2 64.7001V64.1001L132.5 52.9001Z" fill="#BF7E00"/>
<path d="M113.2 64.1V64.7L110.4 63.1V62.5L113.2 64.1Z" fill="#C1954E"/>
<path d="M106.4 60.1L109.2 61.8L128.5 50.6L125.7 49L106.4 60.1Z" fill="#DFAA5C"/>
<path d="M128.5 50.6001V51.2001L109.2 62.4001V61.8001L128.5 50.6001Z" fill="#BF7E00"/>
<path d="M109.2 61.8001V62.4001L106.4 60.8001V60.1001L109.2 61.8001Z" fill="#C1954E"/>
<path d="M102.3 57.8L105.2 59.4L124.4 48.3L121.6 46.7L102.3 57.8Z" fill="#DFAA5C"/>
<path d="M124.4 48.3V48.9L105.2 60V59.4L124.4 48.3Z" fill="#BF7E00"/>
<path d="M105.2 59.4V60L102.3 58.4V57.8L105.2 59.4Z" fill="#C1954E"/>
<path d="M140.6 58.2V60.2L139 61.1V59.1L140.6 58.2Z" fill="#975E0D"/>
<path d="M131.7 63.3V65.3L130.1 66.2V64.2L131.7 63.3Z" fill="#975E0D"/>
<path d="M130 52.2L121.3 57.3V47.2L130 42.2V52.2Z" fill="#BF9D74"/>
<path d="M130 42.1999L121.3 47.1999L112.6 42.1999L121.3 37.0999L130 42.1999Z" fill="#F9D9A9"/>
<path d="M121.3 57.3L112.6 52.2V42.2L121.3 47.2V57.3Z" fill="#BF9D74"/>
<path d="M117.8 47.9L116.1 46.8V44.2L117.8 45.2V47.9Z" fill="#E13D02"/>
<path d="M116.1 44.1999L117.8 45.1999L126.5 40.1999L124.8 39.0999L116.1 44.1999Z" fill="#FF5102"/>
<g opacity="0.4">
<g opacity="0.4">
<path opacity="0.4" d="M118.7 51.8999L118.9 51.9999V54.9999L118.7 54.8999V51.8999Z" fill="black"/>
<path opacity="0.4" d="M118.3 51.5999L118.5 51.6999V54.2999L118.3 54.1999V51.5999Z" fill="black"/>
<path opacity="0.4" d="M117.9 51.3999L118.1 51.4999V54.0999L117.9 53.9999V51.3999Z" fill="black"/>
<path opacity="0.4" d="M117.5 51.0999L117.7 51.2999V53.7999L117.5 53.6999V51.0999Z" fill="black"/>
<path opacity="0.4" d="M117.1 50.8999L117.3 50.9999V53.5999L117.1 53.4999V50.8999Z" fill="black"/>
<path opacity="0.4" d="M116.6 50.7L116.9 50.8V53.4L116.6 53.2V50.7Z" fill="black"/>
<path opacity="0.4" d="M116.2 50.3999L116.4 50.4999V53.0999L116.2 52.9999V50.3999Z" fill="black"/>
<path opacity="0.4" d="M115.8 50.2L116 50.3V52.9L115.8 52.8V50.2Z" fill="black"/>
<path opacity="0.4" d="M115.4 49.8999L115.6 50.0999V52.5999L115.4 52.4999V49.8999Z" fill="black"/>
<path opacity="0.4" d="M115 49.7L115.2 49.8V52.9L115 52.7V49.7Z" fill="black"/>
</g>
<path opacity="0.4" d="M115.9 53.5L115.5 53.2V52.7L115.9 53V53.5Z" fill="black"/>
<path opacity="0.4" d="M116.8 53.9L116.3 53.7V53.2L116.8 53.5V53.9Z" fill="black"/>
<path opacity="0.4" d="M117.6 54.4L117.2 54.2V53.7L117.6 53.9V54.4Z" fill="black"/>
<path opacity="0.4" d="M118.4 54.9L118 54.7V54.2L118.4 54.4V54.9Z" fill="black"/>
</g>
<path d="M120.8 57.5998L112.1 62.5998V52.4998L120.8 47.4998V57.5998Z" fill="#BF9D74"/>
<path d="M120.8 47.4998L112.1 52.4998L103.4 47.4998L112.1 42.4998L120.8 47.4998Z" fill="#F9D9A9"/>
<path d="M112.1 62.5998L103.4 57.5998V47.4998L112.1 52.4998V62.5998Z" fill="#F5CC95"/>
<path d="M108.6 53.1998L106.9 52.1998V49.4998L108.6 50.4998V53.1998Z" fill="#E13D02"/>
<path d="M106.9 49.4998L108.6 50.4998L117.3 45.4998L115.6 44.4998L106.9 49.4998Z" fill="#FF5102"/>
<g opacity="0.4">
<g opacity="0.4">
<path opacity="0.4" d="M109.5 57.1997L109.7 57.2997V60.3997L109.5 60.1997V57.1997Z" fill="black"/>
<path opacity="0.4" d="M109.1 56.9998L109.3 57.0998V59.5998L109.1 59.4998V56.9998Z" fill="black"/>
<path opacity="0.4" d="M108.7 56.6997L108.9 56.7997V59.3997L108.7 59.2997V56.6997Z" fill="black"/>
<path opacity="0.4" d="M108.3 56.4998L108.5 56.5998V59.1998L108.3 58.9998V56.4998Z" fill="black"/>
<path opacity="0.4" d="M107.8 56.1997L108 56.3997V58.8997L107.8 58.7997V56.1997Z" fill="black"/>
<path opacity="0.4" d="M107.4 55.9998L107.6 56.0998V58.6998L107.4 58.5998V55.9998Z" fill="black"/>
<path opacity="0.4" d="M107 55.7998L107.2 55.8998V58.3998L107 58.2998V55.7998Z" fill="black"/>
<path opacity="0.4" d="M106.6 55.4998L106.8 55.5998V58.1998L106.6 58.0998V55.4998Z" fill="black"/>
<path opacity="0.4" d="M106.2 55.2998L106.4 55.3998V57.9998L106.2 57.7998V55.2998Z" fill="black"/>
<path opacity="0.4" d="M105.8 54.9998L106 55.1998V58.1998L105.8 58.0998V54.9998Z" fill="black"/>
</g>
<path opacity="0.4" d="M106.7 58.7999L106.3 58.4999V58.0999L106.7 58.2999V58.7999Z" fill="black"/>
<path opacity="0.4" d="M107.5 59.2998L107.1 58.9998V58.4998L107.5 58.7998V59.2998Z" fill="black"/>
<path opacity="0.4" d="M108.4 59.6998L107.9 59.4998V58.9998L108.4 59.2998V59.6998Z" fill="black"/>
<path opacity="0.4" d="M109.2 60.1998L108.8 59.9998V59.4998L109.2 59.6998V60.1998Z" fill="black"/>
</g>
<path d="M139.3 57.5998L130.6 62.5998V52.4998L139.3 47.4998V57.5998Z" fill="#D3AE80"/>
<path d="M139.3 47.4998L130.6 52.4998L121.9 47.4998L130.6 42.4998L139.3 47.4998Z" fill="#F9D9A9"/>
<path d="M130.6 62.5998L121.9 57.5998V47.4998L130.6 52.4998V62.5998Z" fill="#BF9D74"/>
<path d="M127.1 53.1998L125.3 52.1998V49.4998L127.1 50.4998V53.1998Z" fill="#E13D02"/>
<path d="M125.3 49.4998L127.1 50.4998L135.8 45.4998L134.1 44.4998L125.3 49.4998Z" fill="#FF5102"/>
<g opacity="0.4">
<g opacity="0.4">
<path opacity="0.4" d="M128 57.2L128.2 57.3V60.4L128 60.3V57.2Z" fill="black"/>
<path opacity="0.4" d="M127.6 56.9998L127.8 57.0998V59.6998L127.6 59.5998V56.9998Z" fill="black"/>
<path opacity="0.4" d="M127.2 56.7L127.4 56.9V59.4L127.2 59.3V56.7Z" fill="black"/>
<path opacity="0.4" d="M126.7 56.4998L126.9 56.5998V59.1998L126.7 59.0998V56.4998Z" fill="black"/>
<path opacity="0.4" d="M126.3 56.2998L126.5 56.3998V58.8998L126.3 58.7998V56.2998Z" fill="black"/>
<path opacity="0.4" d="M125.9 55.9998L126.1 56.0998V58.6998L125.9 58.5998V55.9998Z" fill="black"/>
<path opacity="0.4" d="M125.5 55.7998L125.7 55.8998V58.4998L125.5 58.2998V55.7998Z" fill="black"/>
<path opacity="0.4" d="M125.1 55.4998L125.3 55.6998V58.1998L125.1 58.0998V55.4998Z" fill="black"/>
<path opacity="0.4" d="M124.7 55.2998L124.9 55.3998V57.9998L124.7 57.8998V55.2998Z" fill="black"/>
<path opacity="0.4" d="M124.2 55.0999L124.5 55.1999V58.1999L124.2 58.0999V55.0999Z" fill="black"/>
</g>
<path opacity="0.4" d="M125.2 58.7999L124.8 58.5999V58.0999L125.2 58.2999V58.7999Z" fill="black"/>
<path opacity="0.4" d="M126 59.2999L125.6 59.0999V58.5999L126 58.7999V59.2999Z" fill="black"/>
<path opacity="0.4" d="M126.8 59.7999L126.4 59.4999V59.0999L126.8 59.2999V59.7999Z" fill="black"/>
<path opacity="0.4" d="M127.7 60.2998L127.3 59.9998V59.4998L127.7 59.7998V60.2998Z" fill="black"/>
</g>
<path d="M130.1 62.8998L121.3 67.8998V57.8998L130.1 52.7998V62.8998Z" fill="#D3AE80"/>
<path d="M130.1 52.7998L121.3 57.8998L112.6 52.7998L121.3 47.7998L130.1 52.7998Z" fill="#F9D9A9"/>
<path d="M121.3 67.8998L112.6 62.8998V52.7998L121.3 57.8998V67.8998Z" fill="#F5CC95"/>
<path d="M117.9 58.4998L116.1 57.4998V54.7998L117.9 55.8998V58.4998Z" fill="#E13D02"/>
<path d="M116.1 54.7998L117.9 55.8998L126.6 50.7998L124.8 49.7998L116.1 54.7998Z" fill="#FF5102"/>
<g opacity="0.4">
<g opacity="0.4">
<path opacity="0.4" d="M118.8 62.5L119 62.7V65.7L118.8 65.6V62.5Z" fill="black"/>
<path opacity="0.4" d="M118.3 62.2998L118.6 62.3998V64.9998L118.3 64.8998V62.2998Z" fill="black"/>
<path opacity="0.4" d="M117.9 62.0999L118.1 62.1999V64.7999L117.9 64.5999V62.0999Z" fill="black"/>
<path opacity="0.4" d="M117.5 61.7998L117.7 61.8998V64.4998L117.5 64.3998V61.7998Z" fill="black"/>
<path opacity="0.4" d="M117.1 61.5999L117.3 61.6999V64.2999L117.1 64.1999V61.5999Z" fill="black"/>
<path opacity="0.4" d="M116.7 61.2998L116.9 61.4998V63.9998L116.7 63.8998V61.2998Z" fill="black"/>
<path opacity="0.4" d="M116.3 61.0999L116.5 61.1999V63.7999L116.3 63.6999V61.0999Z" fill="black"/>
<path opacity="0.4" d="M115.8 60.8999L116.1 60.9999V63.5999L115.8 63.3999V60.8999Z" fill="black"/>
<path opacity="0.4" d="M115.4 60.5999L115.6 60.6999V63.2999L115.4 63.1999V60.5999Z" fill="black"/>
<path opacity="0.4" d="M115 60.3999L115.2 60.4999V63.4999L115 63.3999V60.3999Z" fill="black"/>
</g>
<path opacity="0.4" d="M116 64.0999L115.5 63.8999V63.3999L116 63.6999V64.0999Z" fill="black"/>
<path opacity="0.4" d="M116.8 64.5999L116.4 64.3999V63.8999L116.8 64.0999V64.5999Z" fill="black"/>
<path opacity="0.4" d="M117.6 65.0999L117.2 64.8999V64.3999L117.6 64.5999V65.0999Z" fill="black"/>
<path opacity="0.4" d="M118.4 65.5999L118 65.2999V64.8999L118.4 65.0999V65.5999Z" fill="black"/>
</g>
<path d="M138.5 65.0999C138.7 64.9999 139.1 65.1999 139.3 65.5999C139.5 65.9999 139.5 66.3999 139.3 66.4999C139.1 66.5999 138.8 66.8 138.8 66.8L138 65.3999C138 65.3999 138.3 65.1999 138.5 65.0999Z" fill="#524B4B"/>
<path d="M138.8 65.9C139 66.3 139 66.7 138.8 66.8C138.6 66.9 138.2 66.7 138 66.3C137.8 65.9 137.8 65.5 138 65.4C138.3 65.3 138.6 65.5 138.8 65.9Z" fill="#3D3838"/>
<path d="M139.3 66.3C139.4 66.2 139.4 66.2 139.5 66.2L141.7 68.6L141.2 69L139.1 66.6C139.1 66.6 139.1 66.6 139.1 66.5C139.1 66.5 139.2 66.4 139.2 66.3C139.2 66.4 139.3 66.3 139.3 66.3Z" fill="#F0ECE3"/>
<path d="M141.5 68.6999C141.6 68.6999 141.6 68.5999 141.7 68.5999C141.7 68.5999 141.7 68.5999 141.7 68.6999C141.7 68.6999 141.6 68.7999 141.6 68.8999C141.5 68.9999 141.5 68.9999 141.4 68.9999C141.3 68.9999 141.3 68.9999 141.3 68.9999C141.3 68.9999 141.3 68.9999 141.3 68.8999C141.3 68.8999 141.4 68.7999 141.4 68.6999C141.3 68.7999 141.4 68.6999 141.5 68.6999Z" fill="#42423F"/>
<path d="M141.5 68.6C141.7 68.5 141.8 68.5 141.8 68.5L144.4 71.5L143.4 72.3L140.8 69.3V69.2V69.1C140.9 69 140.9 68.9 141.1 68.8C141.3 68.7 141.4 68.6 141.5 68.6Z" fill="#5E5D59"/>
<path d="M144.1 71.4999C144.3 71.3999 144.3 71.3999 144.4 71.3999C144.4 71.3999 144.4 71.4999 144.4 71.5999C144.3 71.6999 144.3 71.7999 144.1 71.8999C144 71.9999 143.9 72.0999 143.8 72.1999H143.7C143.6 72.2999 143.5 72.2999 143.5 72.2999C143.5 72.2999 143.5 72.1999 143.5 72.0999C143.6 71.9999 143.6 71.8999 143.8 71.7999C143.9 71.6999 144 71.5999 144.1 71.4999Z" fill="#42423F"/>
<path d="M138.3 44.7L139.9 45.6L137.8 46.9L136.2 46L138.3 44.7Z" fill="#8F8080"/>
<path d="M139.9 45.5999V80.7999L137.8 82.0999V46.8999L139.9 45.5999Z" fill="#3D3838"/>
<path d="M137.8 82.1L136.2 81.1V46L137.8 46.9V82.1Z" fill="#756A6A"/>
<path d="M131.1 48.8999L132.7 49.7999L130.6 51.0999L129 50.0999L131.1 48.8999Z" fill="#8F8080"/>
<path d="M132.7 49.7998V84.9998L130.6 86.1998V51.0998L132.7 49.7998Z" fill="#3D3838"/>
<path d="M130.6 86.1999L129 85.2999V50.0999L130.6 51.0999V86.1999Z" fill="#756A6A"/>
<path d="M131.3 51.4999L140.7 46.0999L139.9 45.5999L130.6 51.0999L131.3 51.4999Z" fill="#8F8080"/>
<path d="M140.7 46.0999V48.2999L131.3 53.6999V51.4999L140.7 46.0999Z" fill="#3D3838"/>
<path d="M131.3 51.4999V53.6999L130.6 53.2999V51.0999L131.3 51.4999Z" fill="#756A6A"/>
<path d="M129.3 70.4998C129.5 70.3998 129.9 70.5998 130.1 70.9998C130.3 71.3998 130.3 71.7999 130.1 71.8999C129.9 71.9999 129.6 72.1998 129.6 72.1998L128.8 70.7999C128.8 70.7999 129.1 70.5998 129.3 70.4998Z" fill="#524B4B"/>
<path d="M129.6 71.1998C129.8 71.5998 129.8 71.9998 129.6 72.0998C129.4 72.1998 129 71.9998 128.8 71.5998C128.6 71.1998 128.6 70.7998 128.8 70.6998C129 70.5998 129.3 70.7998 129.6 71.1998Z" fill="#3D3838"/>
<path d="M130 71.5998C130.1 71.4998 130.1 71.4998 130.2 71.4998L132.4 73.8998L131.9 74.2998L129.8 71.8998C129.8 71.8998 129.8 71.8998 129.8 71.7998C129.8 71.7998 129.9 71.6998 129.9 71.5998C129.9 71.6998 130 71.6998 130 71.5998Z" fill="#F0ECE3"/>
<path d="M132.2 74.0998C132.3 74.0998 132.3 73.9998 132.4 73.9998C132.4 73.9998 132.4 73.9998 132.4 74.0998C132.4 74.0998 132.3 74.1998 132.3 74.2998C132.2 74.3998 132.2 74.3998 132.1 74.3998C132 74.3998 132 74.3998 132 74.3998C132 74.3998 132 74.3998 132 74.2998C132 74.2998 132.1 74.1998 132.1 74.0998C132.1 74.0998 132.1 74.0998 132.2 74.0998Z" fill="#42423F"/>
<path d="M132.3 73.8998C132.5 73.7998 132.6 73.7998 132.6 73.7998L135.2 76.7998L134.2 77.5998L131.6 74.5998V74.4998V74.3998C131.7 74.2998 131.7 74.1998 131.9 74.0998C132 74.0998 132.2 73.9998 132.3 73.8998Z" fill="#5E5D59"/>
<path d="M134.9 76.8998C135.1 76.7998 135.1 76.7998 135.2 76.7998C135.2 76.7998 135.2 76.8998 135.2 76.9998C135.1 77.0998 135.1 77.1998 134.9 77.2998C134.8 77.3998 134.7 77.4998 134.6 77.5998H134.5C134.4 77.6998 134.3 77.6998 134.3 77.6998C134.3 77.6998 134.3 77.5998 134.3 77.4998C134.4 77.3998 134.4 77.2998 134.6 77.1998C134.6 76.9998 134.8 76.8998 134.9 76.8998Z" fill="#42423F"/>
<path d="M125 81C125 81 126.3 80.2 128.2 79.1C130.1 78 133.3 79.8 135.2 83.2C137.1 86.6 137.1 90.2 135.2 91.3C133.3 92.4 132 93.2 132 93.2C130.1 94.3 126.9 92.5 125 89.1C123 85.8 123 82.2 125 81Z" fill="#141414"/>
<path d="M131.984 93.1497C133.945 92.0175 133.967 88.3856 132.034 85.0377C130.101 81.6897 126.945 79.8935 124.984 81.0257C123.023 82.1579 123 85.7897 124.933 89.1377C126.866 92.4856 130.023 94.2819 131.984 93.1497Z" fill="#2E2929"/>
<path d="M128.5 90.7C129.3 91.2 130.1 91.3 130.7 90.9C131.9 90.2 131.9 87.9 130.7 85.8C130.1 84.8 129.3 84 128.5 83.5C127.7 83 126.9 82.9 126.3 83.3C125.1 84 125.1 86.3 126.3 88.4C126.9 89.4 127.6 90.2 128.5 90.7Z" fill="#E6E0D4"/>
<path d="M126.5 88.2C127.6 90.1 129.3 91.1 130.4 90.4C131.5 89.8 131.5 87.8 130.4 85.9C129.3 84 127.6 83 126.5 83.7C125.5 84.4 125.5 86.4 126.5 88.2Z" fill="#ADAA99"/>
<path d="M127 87.9C126 86.2 125.9 84.4 126.8 83.6C127.9 83.3 129.4 84.3 130.4 86C131.4 87.7 131.5 89.5 130.6 90.3C129.6 90.6 128 89.6 127 87.9Z" fill="#D1CEBA"/>
<path d="M128.8 88.4001C128.9 88.3001 129 88.4001 129.1 88.6001C129.2 88.8001 129.2 88.9001 129.1 89.0001C129 89.1001 128.9 89.1001 128.9 89.1001L128.6 88.5001C128.6 88.5001 128.7 88.5001 128.8 88.4001Z" fill="#949054"/>
<path d="M128.6 88.9C128.7 89.1 128.8 89.1 128.9 89.1C129 89 129 88.9 128.9 88.7C128.8 88.5 128.7 88.5 128.6 88.5C128.6 88.6 128.6 88.8 128.6 88.9Z" fill="#ADAA81"/>
<path d="M127.7 87.2001C127.8 87.1001 127.9 87.2001 128 87.4001C128.1 87.6001 128.1 87.7001 128 87.8001C127.9 87.9001 127.8 87.9001 127.8 87.9001L127.5 87.3001C127.5 87.3001 127.6 87.3001 127.7 87.2001Z" fill="#949054"/>
<path d="M127.5 87.7C127.6 87.9 127.7 87.9 127.8 87.9C127.9 87.8 127.9 87.7 127.8 87.5C127.7 87.3 127.6 87.3 127.5 87.3C127.4 87.4 127.4 87.5 127.5 87.7Z" fill="#ADAA81"/>
<path d="M127.2 85.6C127.3 85.5 127.4 85.6 127.5 85.8C127.6 86 127.6 86.1 127.5 86.2C127.4 86.3 127.3 86.3 127.3 86.3L127 85.7C127 85.7 127.1 85.7 127.2 85.6Z" fill="#949054"/>
<path d="M127 86.1C127.1 86.3 127.2 86.3 127.3 86.3C127.4 86.2 127.4 86.1 127.3 85.9C127.2 85.7 127.1 85.7 127 85.7C126.9 85.8 126.9 85.9 127 86.1Z" fill="#ADAA81"/>
<path d="M127.7 84.6C127.8 84.5 127.9 84.6 128 84.8C128.1 85 128.1 85.1 128 85.2C127.9 85.3 127.8 85.3 127.8 85.3L127.5 84.7C127.5 84.7 127.6 84.6 127.7 84.6Z" fill="#949054"/>
<path d="M127.5 85.0001C127.6 85.2001 127.7 85.2001 127.8 85.2001C127.9 85.1001 127.9 85.0001 127.8 84.8001C127.7 84.6001 127.6 84.6001 127.5 84.6001C127.4 84.7001 127.4 84.9001 127.5 85.0001Z" fill="#ADAA81"/>
<path d="M127.6 87.6C128.1 88.4 128.9 88.9 129.4 88.6C129.9 88.3 129.9 87.4 129.4 86.6C128.9 85.8 128.1 85.3 127.6 85.6C127.1 85.9 127.1 86.8 127.6 87.6Z" fill="#FFB500"/>
<path d="M129.4 86.5999C128.9 85.7999 128.1 85.2999 127.6 85.5999C127.6 85.5999 128 85.2999 128.1 85.2999C128.6 84.9999 129.4 85.4999 129.9 86.2999C130.4 87.0999 130.4 87.9999 129.9 88.2999C129.8 88.3999 129.4 88.5999 129.4 88.5999C129.8 88.3999 129.8 87.4999 129.4 86.5999Z" fill="#CF8A00"/>
<path d="M128.8 84.7001C128.9 84.6001 129 84.7001 129.1 84.9001C129.2 85.1001 129.2 85.2001 129.1 85.3001C129 85.4001 128.9 85.4001 128.9 85.4001L128.6 84.8001C128.6 84.8001 128.7 84.7001 128.8 84.7001Z" fill="#949054"/>
<path d="M128.6 85.1002C128.7 85.3002 128.8 85.3002 128.9 85.3002C129 85.2002 129 85.1002 128.9 84.9002C128.8 84.7002 128.7 84.7002 128.6 84.7002C128.6 84.8002 128.6 85.0002 128.6 85.1002Z" fill="#ADAA81"/>
<path d="M130 85.9001C130.1 85.8001 130.2 85.9001 130.3 86.1001C130.4 86.3001 130.4 86.4001 130.3 86.5001C130.2 86.6001 130.1 86.6001 130.1 86.6001L129.8 86.0001C129.8 86.0001 129.9 85.9001 130 85.9001Z" fill="#949054"/>
<path d="M129.8 86.4C129.9 86.6 130 86.6 130.1 86.6C130.2 86.5 130.2 86.4 130.1 86.2C130 86 129.9 86 129.8 86C129.7 86 129.7 86.2 129.8 86.4Z" fill="#ADAA81"/>
<path d="M130.4 87.4999C130.5 87.3999 130.6 87.4999 130.7 87.6999C130.8 87.8999 130.8 87.9999 130.7 88.0999C130.6 88.1999 130.5 88.1999 130.5 88.1999L130.2 87.5999C130.3 87.5999 130.4 87.4999 130.4 87.4999Z" fill="#949054"/>
<path d="M130.3 87.9998C130.4 88.1998 130.5 88.1998 130.6 88.1998C130.7 88.0998 130.7 87.9999 130.6 87.7999C130.5 87.5999 130.4 87.5999 130.3 87.5999C130.2 87.5999 130.2 87.7998 130.3 87.9998Z" fill="#ADAA81"/>
<path d="M130 88.4999C130.1 88.3999 130.2 88.4999 130.3 88.6999C130.4 88.8999 130.4 88.9999 130.3 89.0999C130.2 89.1999 130.1 89.1999 130.1 89.1999L129.8 88.5999C129.8 88.5999 129.9 88.5999 130 88.4999Z" fill="#949054"/>
<path d="M129.8 88.9998C129.9 89.1998 130 89.1998 130.1 89.1998C130.2 89.0998 130.2 88.9999 130.1 88.7999C130 88.5999 129.9 88.5999 129.8 88.5999C129.7 88.6999 129.7 88.8998 129.8 88.9998Z" fill="#ADAA81"/>
<path d="M142.2 73.0998C145.4 74.8998 148 79.4998 148 83.1998V86.9998L148.5 87.2998V83.4998C148.5 79.4998 145.7 74.4998 142.2 72.4998L139.3 70.7998V71.3998L142.2 73.0998Z" fill="#F6B000"/>
<path d="M142.2 72.3999L139.3 70.6999L143.3 68.3999L146.2 70.0999C149.7 72.0999 152.5 76.9999 152.5 81.0999V84.8999L148.5 87.1999V83.3999C148.5 79.3999 145.7 74.4999 142.2 72.3999Z" fill="#F6B000"/>
<path d="M159.7 60.0001L152.6 55.9001C151.4 55.2001 150.3 55.1001 149.5 55.6001C149.2 55.8001 148.9 56.1001 148.7 56.4001C147.8 58.0001 146.8 60.0001 146 62.4001C144.7 66.4001 144.1 70.3001 143.9 73.7001C146.1 75.7001 147.8 78.8001 148.3 81.8001L148.6 82.0001C148.6 82.0001 147.9 78.8001 146.4 75.6001C145.5 73.5001 145.2 71.8001 145.5 70.0001C145.9 67.7001 146.4 65.5001 147.1 63.5001C147.8 61.4001 148.7 59.4001 149.7 57.6001C150.3 56.6001 151.4 56.5001 152.6 57.2001L159.7 61.3001C160.5 61.8001 161.2 63.0001 161.2 63.9001V85.0001L162.3 85.6001V64.5001C162.4 62.9001 161.2 60.9001 159.7 60.0001Z" fill="#606E7A"/>
<path d="M145.6 70C146 67.7 146.5 65.5 147.2 63.5C147.9 61.4 148.8 59.4 149.8 57.6C150.1 57.1 150.5 56.8 151 56.8C151 56.9 150.9 56.9 150.9 57C149.9 58.8 149 60.8 148.3 62.9C147.6 64.9 147.1 67.1 146.7 69.4C146.4 71.2 146.7 72.9 147.6 75C149 78.2 149.8 81.4 149.8 81.4L148.7 82C148.7 82 148 78.8 146.5 75.6C145.6 73.5 145.3 71.7 145.6 70Z" fill="#353432"/>
<path d="M159.7 60L152.6 55.9C151.4 55.2 150.3 55.1 149.5 55.6C149.5 55.6 150.2 55.2 150.6 55C151.4 54.5 152.5 54.6 153.7 55.3L160.8 59.4C162.3 60.2 163.4 62.3 163.4 64V85L162.3 85.6V64.5C162.4 62.9 161.2 60.9 159.7 60Z" fill="#464B51"/>
<path d="M145.6 70C145.3 71.6 145.5 73.1 146.2 74.9L146.8 76.3L146.5 76.1L137.7 81.2L136 79L135.2 74.5L145.9 68.3C145.8 68.8 145.7 69.4 145.6 70Z" fill="#353432"/>
<path d="M144.7 67.5L145.9 68.2L136.9 73.4L137.2 71.9L144.7 67.5Z" fill="#707D85"/>
<path d="M149 95V98.1999L145.8 100.6V97.3C145.7 95.1 147.2 94.2 149 95Z" fill="#D18B00"/>
<path d="M149.4 95.2L152 96.7C153.7 97.7 155.2 99.9 155.6 102L149 98.2V95.4C149 95.2 149 95.1 149 95C149.1 95.1 149.3 95.1 149.4 95.2Z" fill="#B57800"/>
<path d="M144.3 85.7L137.2 81.5L146.5 76.2L153.6 80.3L157.3 78.2L159.8 79.6L149.4 85.6V93.2L140.4 87.8999L144.3 85.7Z" fill="#FFD047"/>
<path d="M149.4 85.6L159.5 79.8L157.3 78.5L153.6 80.6L153.1 80.3L146.2 76.3L137.5 81.4L144.9 85.7L141 87.9L149.4 92.8V85.6Z" fill="#3D3838"/>
<path d="M137.2 81.5L144.3 85.6L140.6 87.7L139.3 86.9C139 85.1 137.2 81.5 137.2 81.5Z" fill="#F6B000"/>
<path d="M153.4 99.5999C151.9 96.9999 149.4 95.5999 147.9 96.3999C147.9 96.3999 149.6 95.3999 151.1 94.4999C152.6 93.5999 155.1 94.9999 156.6 97.6999C158.1 100.3 158.1 103.2 156.6 104C155.1 104.9 153.4 105.9 153.4 105.9C155 105.1 155 102.2 153.4 99.5999Z" fill="#141414"/>
<path d="M148 102.8C149.5 105.4 152 106.8 153.5 106C155 105.1 155 102.3 153.5 99.7C152 97.1 149.5 95.7 148 96.5C146.4 97.3 146.4 100.2 148 102.8Z" fill="#2E2929"/>
<path d="M149 102.2C149.9 103.8 151.5 104.7 152.4 104.2C153.3 103.7 153.3 101.9 152.4 100.3C151.5 98.7001 149.9 97.8001 149 98.3001C148.1 98.8001 148.1 100.5 149 102.2Z" fill="#E6E0D4"/>
<path d="M149.2 102.1C150 103.5 151.4 104.3 152.2 103.8C153 103.3 153 101.8 152.2 100.3C151.4 98.9001 150 98.1001 149.2 98.6001C148.4 99.1001 148.4 100.6 149.2 102.1Z" fill="#ADAA99"/>
<path d="M149.6 101.8C148.8 100.5 148.8 98.9999 149.4 98.3999C150.2 98.0999 151.4 98.8999 152.2 100.2C153 101.5 153 103 152.4 103.6C151.6 103.9 150.4 103.2 149.6 101.8Z" fill="#D1CEBA"/>
<path d="M151 102.2C151.1 102.2 151.2 102.2 151.3 102.3C151.4 102.4 151.4 102.6 151.3 102.6C151.2 102.6 151.2 102.7 151.2 102.7L150.9 102.3C150.8 102.3 150.9 102.3 151 102.2Z" fill="#949054"/>
<path d="M150.8 102.6C150.9 102.7 151 102.8 151.1 102.7C151.2 102.7 151.2 102.5 151.1 102.4C151 102.3 150.9 102.2 150.8 102.3C150.8 102.3 150.8 102.5 150.8 102.6Z" fill="#ADAA81"/>
<path d="M150.1 101.3C150.2 101.3 150.3 101.3 150.4 101.4C150.5 101.5 150.5 101.7 150.4 101.7C150.3 101.7 150.3 101.8 150.3 101.8L150 101.4C149.9 101.4 150 101.3 150.1 101.3Z" fill="#949054"/>
<path d="M149.9 101.6C150 101.7 150.1 101.8 150.2 101.7C150.3 101.7 150.3 101.5 150.2 101.4C150.1 101.3 150 101.2 149.9 101.3C149.9 101.4 149.9 101.5 149.9 101.6Z" fill="#ADAA81"/>
<path d="M149.7 100C149.8 100 149.9 100 150 100.1C150.1 100.2 150.1 100.4 150 100.4C149.9 100.4 149.9 100.5 149.9 100.5L149.6 100.1C149.6 100.1 149.6 100.1 149.7 100Z" fill="#949054"/>
<path d="M149.6 100.4C149.7 100.5 149.8 100.6 149.9 100.5C150 100.5 150 100.3 149.9 100.2C149.8 100.1 149.7 100 149.6 100.1C149.5 100.1 149.5 100.3 149.6 100.4Z" fill="#ADAA81"/>
<path d="M150.1 99.2C150.2 99.2 150.3 99.2 150.4 99.3C150.5 99.4 150.5 99.6 150.4 99.6C150.3 99.6 150.3 99.7 150.3 99.7L150 99.3C149.9 99.3 150 99.2 150.1 99.2Z" fill="#949054"/>
<path d="M149.9 99.6C150 99.7 150.1 99.8 150.2 99.7C150.3 99.7 150.3 99.5 150.2 99.4C150.1 99.3 150 99.2 149.9 99.3C149.9 99.3 149.9 99.4 149.9 99.6Z" fill="#ADAA81"/>
<path d="M150 101.6C150.4 102.3 151 102.6 151.4 102.4C151.8 102.2 151.8 101.5 151.4 100.8C151 100.1 150.4 99.8 150 100C149.6 100.2 149.6 100.9 150 101.6Z" fill="#FFB500"/>
<path d="M151.4 100.8C151 100.1 150.4 99.8001 150 100C150 100 150.3 99.8001 150.4 99.8001C150.8 99.6001 151.4 99.9001 151.8 100.6C152.2 101.3 152.2 102 151.8 102.2C151.7 102.3 151.4 102.4 151.4 102.4C151.8 102.2 151.8 101.5 151.4 100.8Z" fill="#CF8A00"/>
<path d="M151 99.3C151.1 99.3 151.2 99.3 151.3 99.4C151.4 99.5 151.4 99.7 151.3 99.7C151.2 99.7 151.2 99.8 151.2 99.8L150.9 99.4C150.8 99.4 150.9 99.3 151 99.3Z" fill="#949054"/>
<path d="M150.8 99.6C150.9 99.7 151 99.8 151.1 99.7C151.2 99.7 151.2 99.5 151.1 99.4C151 99.3 150.9 99.2 150.8 99.3C150.8 99.4 150.8 99.5 150.8 99.6Z" fill="#ADAA81"/>
<path d="M151.9 100.2C152 100.2 152.1 100.2 152.2 100.3C152.3 100.4 152.3 100.6 152.2 100.6C152.1 100.6 152.1 100.7 152.1 100.7L151.8 100.3C151.7 100.3 151.8 100.3 151.9 100.2Z" fill="#949054"/>
<path d="M151.7 100.6C151.8 100.7 151.9 100.8 152 100.7C152.1 100.7 152.1 100.5 152 100.4C151.9 100.3 151.8 100.2 151.7 100.3C151.7 100.4 151.7 100.5 151.7 100.6Z" fill="#ADAA81"/>
<path d="M152.2 101.5C152.3 101.5 152.4 101.5 152.5 101.6C152.6 101.7 152.6 101.9 152.5 101.9C152.4 101.9 152.4 102 152.4 102L152.1 101.6L152.2 101.5Z" fill="#949054"/>
<path d="M152.1 101.9C152.2 102 152.3 102.1 152.4 102C152.5 102 152.5 101.8 152.4 101.7C152.3 101.6 152.2 101.5 152.1 101.6C152 101.6 152 101.7 152.1 101.9Z" fill="#ADAA81"/>
<path d="M151.9 102.3C152 102.3 152.1 102.3 152.2 102.4C152.3 102.5 152.3 102.7 152.2 102.7C152.1 102.7 152.1 102.8 152.1 102.8L151.8 102.4C151.7 102.4 151.8 102.4 151.9 102.3Z" fill="#949054"/>
<path d="M151.7 102.7C151.8 102.8 151.9 102.9 152 102.8C152.1 102.8 152.1 102.6 152 102.5C151.9 102.4 151.8 102.3 151.7 102.4C151.7 102.4 151.7 102.6 151.7 102.7Z" fill="#ADAA81"/>
<path d="M129.2 80.5998C132.4 82.3998 135 86.9998 135 90.6998V94.4998L135.5 94.7998V90.9998C135.5 86.9998 132.7 81.9998 129.2 79.9998L126.3 78.2998V78.8998L129.2 80.5998Z" fill="#E09400"/>
<path d="M129.2 79.8999L126.3 78.1999L130.3 75.8999L133.2 77.5999C136.7 79.5999 139.5 84.4999 139.5 88.5999V92.3999L135.5 94.6999V90.8999C135.5 86.8999 132.7 81.9999 129.2 79.8999Z" fill="#F6B000"/>
<path d="M135.4 89.2999L138.7 91.1999C139.6 91.6999 140.4 91.2999 140.4 90.1999V87.8999L149.4 93.0999V95.1999C147.4 93.9999 145.7 94.9999 145.7 97.2999V100.6L135.5 94.6999V90.8999C135.5 90.3999 135.5 89.8999 135.4 89.2999Z" fill="#F6B000"/>
<path d="M138.7 91.2L135.4 89.3L139.4 87L140.4 87.6L140.7 87.8L140.4 88V90.3C140.4 91.3 139.6 91.8 138.7 91.2Z" fill="#E09400"/>
<path d="M149.4 93.2L149.2 93V95.1L149.4 95.2V93.2Z" fill="#1F1C1C"/>
<path d="M150.5 81.9999C149.5 81.3999 148.5 81.2999 147.8 81.6999C147.8 81.6999 152.4 78.9999 153.1 78.5999C153.8 78.1999 154.7 78.2999 155.8 78.8999L159.4 80.9999L154.1 84.0999L150.5 81.9999Z" fill="#4D4848"/>
<path d="M153.2 83.1L148.3 80.2C148 80 147.8 79.7 147.8 79.3V78.8C147.8 78.5 147.9 78.3 148.1 78.2C148.2 78.1 148.4 78.1 148.5 78.2C149.3 78.5 150.1 78.9 151 79.5C151.9 80.2 153 81 153.8 81.5L153.2 83.1Z" fill="#4D4545"/>
<path d="M150.9 79.5C150.1 78.9 149.3 78.4 148.4 78.2C148.2 78.2 148.1 78.2 148 78.2C148 78.2 152.2 75.8 152.3 75.7C152.4 75.6 152.6 75.6 152.7 75.7C153.5 76 154.3 76.4 155.2 77C156.1 77.7 157.2 78.5 158 79L157.4 80.5L153.1 83L153.7 81.5C152.9 81.1 151.8 80.2 150.9 79.5Z" fill="#393333"/>
<path d="M154.7 75.8999C154.4 75.6999 154.2 75.5999 154 75.6999L153.9 75.7999C153.7 76.0999 153.5 76.3999 153.3 76.8999C153 77.4999 152.9 78.1999 152.8 78.7999C152.7 79.1999 152.7 79.5999 152.6 79.8999L152.4 80.5999C152.9 80.9999 153.4 81.3999 153.9 81.5999L155.4 77.4999C155.5 76.9999 155.2 76.2999 154.7 75.8999Z" fill="#4D4545"/>
<path d="M154.7 75.8999C154.4 75.6999 154.2 75.5999 154 75.6999L158.3 73.1999C158.5 73.0999 158.8 73.1999 159 73.3999C159.5 73.7999 159.8 74.4999 159.6 74.9999L158.1 79.0999L153.8 81.5999L155.3 77.4999C155.5 76.9999 155.2 76.2999 154.7 75.8999Z" fill="#393333"/>
<path d="M148.3 80.2C148.3 80.6 148.4 81 148.6 81.3C149.3 81.1 150.1 81.2 151 81.7L148.3 80.2Z" fill="#1F1C1C"/>
<path d="M150.5 82L154.1 84.1V89.1L146.7 84.8V84.1C146.7 82.9 147.1 82.1 147.8 81.7C148.5 81.4 149.4 81.4 150.5 82Z" fill="#292424"/>
<path d="M133.1 77.5999C133.1 76.2999 134.3 73.2999 135.9 71.8999C135.4 74.3999 135.1 76.7999 134.9 78.9999C134.3 78.3999 133.8 77.9999 133.1 77.5999Z" fill="#1F1C1C"/>
<path d="M149.6 65.9L142.5 61.8C141.3 61.1 140.2 61 139.4 61.5C139.1 61.7 138.8 62 138.6 62.3C137.7 63.9 136.7 65.9 135.9 68.3C134.6 72.3 134 76.2 133.8 79.6C136 81.6 137.7 84.7 138.2 87.7L138.5 87.9C138.5 87.9 137.8 84.7 136.3 81.5C135.4 79.4 135.1 77.7 135.4 75.9C135.8 73.6 136.3 71.4 137 69.4C137.7 67.3 138.6 65.3 139.6 63.5C140.2 62.5 141.3 62.4 142.5 63.1L149.6 67.2C150.4 67.7 151.1 68.9 151.1 69.8V90.9L152.2 91.5V70.4C152.3 68.5 151.1 66.7 149.6 65.9Z" fill="#707D85"/>
<path d="M135.5 75.7999C135.9 73.4999 136.4 71.2999 137.1 69.2999C137.8 67.1999 138.7 65.1999 139.7 63.3999C140 62.8999 140.4 62.5999 140.9 62.5999C140.9 62.6999 140.8 62.6999 140.8 62.7999C139.8 64.5999 138.9 66.5999 138.2 68.6999C137.5 70.6999 137 72.8999 136.6 75.1999C136.3 76.9999 136.6 78.6999 137.5 80.7999C138.9 83.9999 139.7 87.1999 139.7 87.1999L138.6 87.7999C138.6 87.7999 137.9 84.5999 136.4 81.3999C135.5 79.2999 135.2 77.5999 135.5 75.7999Z" fill="#464B51"/>
<path d="M149.6 65.8999L142.5 61.7999C141.3 61.0999 140.2 60.9999 139.4 61.4999C139.4 61.4999 140.1 61.0999 140.5 60.8999C141.3 60.3999 142.4 60.4999 143.6 61.1999L150.7 65.2999C152.2 66.0999 153.3 68.1999 153.3 69.8999V90.9999L152.2 91.5999V70.4999C152.3 68.4999 151.1 66.6999 149.6 65.8999Z" fill="#464B51"/>
<path d="M138.8 59.7998C138.9 59.7998 138.9 59.7998 139 59.7998L151.6 67.0998C151.8 67.1998 151.9 67.4998 151.9 67.6998V68.3998L152.1 68.7998C151.7 68.2998 151.5 67.2998 150.4 66.5998C149.3 65.9998 141.1 61.1998 141.1 61.1998C140.4 60.7998 139.7 61.1998 139.2 61.5998C138.9 61.7998 138.6 61.5998 138.6 61.2998V59.9998C138.7 59.8998 138.7 59.8998 138.8 59.7998Z" fill="#E09400"/>
<path d="M163.9 60.7998V61.4998C163.9 61.9998 163.6 62.5998 163.2 62.7998L152.8 68.7998C152.4 68.9998 152.1 68.7998 152.1 68.3998V67.6998L163.9 60.7998Z" fill="#E09400"/>
<path d="M150.7 52.8999C150.8 52.8999 150.8 52.8999 150.9 52.8999L163.5 60.1999C163.7 60.2999 163.8 60.5999 163.8 60.7999L151.9 67.6999C151.9 67.4999 151.7 67.1999 151.6 67.0999L139 59.7999C138.9 59.6999 138.8 59.6999 138.8 59.7999C138.8 59.7999 150.7 52.9999 150.7 52.8999Z" fill="#F6B000"/>
<path d="M166.4 75.8L171.6 78.8C173.1 79.6 174.2 81.7 174.2 83.4V83.7L173.3 84.2L157.2 93.5V93.2C157.2 91.5 156 89.5001 154.6 88.6001L149.4 85.6L166.4 75.8Z" fill="url(#paint1_linear_229_11063)"/>
<path d="M157.1 93.3999L157.2 93.5L173.3 84.2V85.1C173.3 85.6 173.7 86.2 174.1 86.5L174.2 86.6L157.2 96.3999L157.1 96.3C156.7 96.1 156.3 95.3999 156.3 94.8999V93.8999C156.4 93.3999 156.7 93.1999 157.1 93.3999Z" fill="#CC8800"/>
<path d="M157.3 104.1V96.3L174.3 86.5V94.3C174.3 94.8 174.1 95.2 173.8 95.3C173.5 95.5 156.8 105.1 156.8 105.1C157.1 105 157.3 104.6 157.3 104.1Z" fill="#E09400"/>
<path d="M156.4 94.8998V93.8998C156.4 93.3998 156.7 93.1998 157.2 93.3998L157.3 93.4999V93.1999C157.3 91.4999 156.1 89.4999 154.7 88.5999L149.5 85.5999V95.1999L152.1 96.6999C154.1 97.8999 155.8 100.7 155.8 103V105C156.2 105.3 156.7 105.3 156.9 105.1C157.2 104.9 157.4 104.6 157.4 104V96.1999L157.3 96.0999C156.7 95.9999 156.4 95.3998 156.4 94.8998Z" fill="#F6B000"/>
<path d="M156.4 93.7998C156.4 93.3998 156.7 93.1997 157.1 93.3997L149.4 88.9998V89.7998L156.4 93.7998Z" fill="#E09400"/>
<path d="M138.3 75.2998L139.6 71.3998C139.7 71.0998 139.9 70.8998 140.1 70.7998C140.6 70.4998 141.3 70.5998 141.7 71.1998C142.8 72.7998 143.5 74.5998 142.6 75.9998C141.4 77.9998 140.5 79.3998 140.5 79.3998L138.3 75.2998Z" fill="#262425"/>
<path d="M143.3 69C143.8 68.7 144.5 68.8 144.9 69.4L141.7 71.2C141.3 70.6 140.6 70.5 140.1 70.8C140.1 70.9 143.1 69.2 143.3 69Z" fill="#131112"/>
<path d="M142.6 76.1C143.5 74.7 142.7 72.9 141.7 71.3L144.9 69.5C146 71.1 146.7 72.9 145.8 74.3C144.6 76.3 143.7 77.7 143.7 77.7L140.5 79.5C140.6 79.5 141.4 78.1 142.6 76.1Z" fill="#131112"/>
<path d="M145.4 74L147 73L145.2 74.2L143.6 75.1L145.4 74Z" fill="black"/>
<path d="M145.4 70.3999L147 72.9999L145.4 73.9999L143.8 71.2999L145.4 70.3999Z" fill="#3B3637"/>
<path d="M143.1 71.7998L143.8 71.2998L145.4 73.8998L143.6 75.0998C144 74.0998 143.7 72.9998 143.1 71.7998Z" fill="#262425"/>
<path d="M146.9 71.8L146.4 71L145.6 71.4L146.1 72.3L145.3 72.9L146.1 72.4L146.9 71.8Z" fill="black"/>
<path d="M146.1 72.2999L145.6 71.3999L144.7 71.9999L145.3 72.8999L146.1 72.2999Z" fill="#2E2929"/>
<path d="M147.1 70.9998L146.8 71.1998L148.1 70.4998L148.4 70.2998L147.1 70.9998Z" fill="#393333"/>
<path d="M148.1 70.4998L148.4 70.2998C149.1 71.4998 148.9 72.8998 147.9 73.4998L147.6 73.6998C148.5 73.0998 148.7 71.6998 148.1 70.4998Z" fill="#393333"/>
<path d="M147.8 69.5C147 68.8 145.9 68.5 145.1 69C145.1 69 145 69 145 69.1L144.7 69.3C144.7 69.3 144.8 69.3 144.8 69.2C145.6 68.7 146.7 69 147.5 69.7L147.8 69.5Z" fill="#393333"/>
<path d="M146.6 72.2L146.9 72C146.6 72.2 146.1 72 145.9 71.7L145.6 71.9C145.8 72.3 146.3 72.4 146.6 72.2C146.6 72.3 146.6 72.2 146.6 72.2Z" fill="#393333"/>
<path d="M144.6 72.5L144.3 72.7L145.6 72L145.9 71.7L144.6 72.5Z" fill="#393333"/>
<path d="M144.2 71.5C144.3 71.8 144.4 72 144.5 72.3C144.5 72.3 144.5 72.4 144.6 72.4L145.9 71.7C146.2 72.1 146.6 72.2 146.9 72C147.2 71.8 147.3 71.4 147.1 71L148.4 70.3C148.4 70.3 148.4 70.2 148.3 70.2C148.1 69.9 148 69.7 147.8 69.5L144.2 71.5Z" fill="#665C5C"/>
<path d="M148.9 69.8999C149.9 71.5999 149.6 73.4999 148.2 74.2999C146.8 75.0999 144.9 74.3999 143.9 72.6999C142.9 70.9999 143.2 69.0999 144.6 68.2999C146 67.4999 147.9 68.1999 148.9 69.8999ZM147.8 73.5999C148.8 72.9999 149.1 71.4999 148.3 70.1999C147.5 68.9999 146.1 68.4999 145.1 69.0999C144.1 69.6999 143.8 71.1999 144.6 72.3999C145.3 73.5999 146.8 74.1999 147.8 73.5999Z" fill="#665C5C"/>
<path d="M144.5 68.3999L144.2 68.5999C142.9 69.3999 142.7 71.3999 143.6 72.9999C144.6 74.6999 146.5 75.3999 147.9 74.5999C147.9 74.5999 148 74.5999 148 74.4999L148.3 74.2999L148.2 74.3999C146.8 75.1999 144.9 74.4999 143.9 72.7999C143 71.0999 143.3 69.1999 144.5 68.3999Z" fill="#393333"/>
<path d="M152.1 60.7C153.2 60.7 154.1 60.2 154.1 59.5C154.1 58.9 153.2 58.3 152.1 58.3C151 58.3 150.1 58.8 150.1 59.5C150 60.2 150.9 60.7 152.1 60.7Z" fill="#707D85"/>
<path d="M152.1 60.7C153.2 60.7 154.1 60.2 154.1 59.5C154.1 59.5 154.1 59.8 154.1 60C154.1 60.6 153.2 61.2 152.1 61.2C151 61.2 150.1 60.7 150.1 60C150.1 59.8 150.1 59.5 150.1 59.5C150 60.2 150.9 60.7 152.1 60.7Z" fill="#464B51"/>
<path d="M152.1 57.7C152.7 57.7 153.2 57.4 153.2 57C153.2 56.6 152.7 56.3 152.1 56.3C151.5 56.3 151 56.6 151 57C150.9 57.4 151.4 57.7 152.1 57.7Z" fill="#E54545"/>
<path d="M152.1 57.7C152.7 57.7 153.2 57.4 153.2 57C153.2 57 153.5 59.4 153.5 59.5C153.5 60 152.8 60.3 152 60.3C151.2 60.3 150.5 59.9 150.5 59.5C150.5 59.4 150.8 57 150.8 57C150.9 57.4 151.4 57.7 152.1 57.7Z" fill="#B01A1C"/>
<path d="M157 93.4001L156.8 93.5001V95.7001L156.6 95.6001C156.5 95.4001 156.4 95.1001 156.4 94.9001V93.9001V93.8001C156.4 93.4001 156.7 93.3001 157 93.4001Z" fill="black"/>
<path d="M156.9 93.6001C157 93.7001 157.1 93.8001 157.1 94.0001V95.8001C157.1 95.9001 157.1 95.9001 157 95.9001H156.9L156.8 95.8001V93.6001H156.9Z" fill="#F63300"/>
<path d="M157.1 95.7V93.9C157.1 93.8 157 93.6 156.9 93.5L156.8 93.4L157.1 93.3L157.4 93.4L160.9 91.4L161.1 91.3C161.2 91.4 161.2 91.5001 161.2 91.6001V93.4C161.2 93.5 161.2 93.5 161.1 93.5L157.1 95.8C157.1 95.8 157.1 95.8 157.1 95.7Z" fill="#D33300"/>
<path d="M169.7 86.3V88.2L169.5 88.1001C169.4 87.9001 169.3 87.6 169.3 87.4V86.5L169.7 86.3Z" fill="black"/>
<path d="M170 86.2C170.1 86.3 170.1 86.4 170.1 86.5V88.3C170.1 88.4 170.1 88.3999 170 88.3999H169.9L169.8 88.3V86.4L170 86.2Z" fill="#F63300"/>
<path d="M170 86.1999L173.7 83.9999L173.9 83.8999C174 83.9999 174 84.0999 174 84.1999V85.9999C174 86.0999 174 86.0999 173.9 86.0999L169.9 88.3999L170 88.2999V86.4999C170.1 86.3999 170 86.2999 170 86.1999Z" fill="#D33300"/>
<path d="M51.1001 101.2C51.3001 101.2 51.6001 101.2 51.8001 101.1C51.8001 101.5 51.0001 101.9 49.3001 101.5C48.5001 101.3 47.8001 101.1 47.1001 100.8C46.8001 100.7 46.8001 100.3 47.0001 100.2C48.0001 100.6 49.0001 100.9 50.0001 101.1C50.4001 101.2 50.8001 101.2 51.1001 101.2Z" fill="#DBEAE5"/>
<path d="M46.9 100.5C46.9 100.6 47 100.8 47.1 100.8C47.8 101.1 48.5 101.3 49.3 101.5C51 101.9 51.8 101.5 51.8 101.1V104.4C51.8 104.8 51 105.2 49.3 104.8C48.7 104.7 48.2 104.5 47.7 104.3C47.5 104.2 46.9 104.1 46.9 103.3C46.9 102.5 46.9 100.5 46.9 100.5Z" fill="#F0F9F6"/>
<path d="M27.1 87.2V87.5C27.1 87.5 27.1 87.5 27.1 87.6C27.1 87.8 27.2001 88 27.4001 88.2C28.0001 88.9 29 89.6 30.1 90.3C29.6 90.5 29.2001 90.5 28.9001 90.3C28.1001 89.8 27.4 89.3 26.8 88.7C26.5 88.4 26.3 88.1 26.3 87.8C26.4 87.5 26.7 87.3 27.1 87.2Z" fill="#DBEAE5"/>
<path d="M26.8 88.7C27.4 89.4 28.2001 89.8 28.9001 90.3C29.2001 90.5 29.6 90.5 30.1 90.3V93.6001C29.6 93.8001 29.2001 93.8001 28.9001 93.6001C28.1001 93.1001 27.4 92.6 26.8 92C26.5 91.7 26.3 91.4001 26.3 91.1001C26.3 90.7001 26.3 87.8 26.3 87.8C26.4 88.1 26.5 88.4 26.8 88.7Z" fill="#F0F9F6"/>
</g>
<defs>
<linearGradient id="paint0_linear_229_11063" x1="83.4432" y1="84.5789" x2="88.8949" y2="94.0214" gradientUnits="userSpaceOnUse">
<stop stop-color="#BFBBAE"/>
<stop offset="0.179" stop-color="#C1BDB0"/>
<stop offset="0.2811" stop-color="#C9C5B9"/>
<stop offset="0.364" stop-color="#D6D2C7"/>
<stop offset="0.436" stop-color="#E8E4DA"/>
<stop offset="0.4611" stop-color="#F0ECE3"/>
<stop offset="0.5277" stop-color="#F0ECE3"/>
<stop offset="0.9151" stop-color="#F0ECE3"/>
<stop offset="0.9464" stop-color="#E9E5DB"/>
<stop offset="0.9939" stop-color="#D6D2C6"/>
<stop offset="1" stop-color="#D3CFC3"/>
</linearGradient>
<linearGradient id="paint1_linear_229_11063" x1="164.852" y1="89.1336" x2="159.459" y2="79.7931" gradientUnits="userSpaceOnUse">
<stop stop-color="#E09400"/>
<stop offset="0.4004" stop-color="#F1B21B"/>
<stop offset="0.4983" stop-color="#F6BA22"/>
</linearGradient>
<clipPath id="clip0_229_11063">
<rect width="190" height="135" fill="white"/>
</clipPath>
</defs>
</svg>
