<svg width="190" height="135" viewBox="0 0 190 135" fill="none" xmlns="http://www.w3.org/2000/svg">
<g clip-path="url(#clip0_229_7175)">
<path d="M94.1999 87.8L78.1999 78.6C77.6999 78.3 76.7999 78.3 76.1999 78.6L75.2999 79.1L76.2999 79.7L77.1999 79.2L93.0999 88.4L92.1999 88.9L93.1999 89.5L94.0999 89C94.3999 88.8 94.4999 88.6 94.4999 88.4C94.5999 88.1 94.4999 87.9 94.1999 87.8Z" fill="#5F5C6B"/>
<path d="M75.2999 79.1001V80.7001L76.2999 81.3001V79.7001L75.2999 79.1001Z" fill="#232229"/>
<path d="M77.1999 79.1001L76.2999 79.7001V81.3001L77.1999 80.8001L92.2999 89.5001V88.8001L93.1999 88.3001L77.1999 79.1001Z" fill="#232229"/>
<path d="M92.2999 88.8V90.5L93.2999 91.1V89.4L92.2999 88.8Z" fill="#373542"/>
<path d="M94.1999 88.9L93.2999 89.4V91L94.1999 90.5C94.4999 90.3 94.5999 90.1 94.5999 89.9C94.5999 89.7 94.5999 88.3 94.5999 88.3C94.5999 88.5 94.4999 88.7 94.1999 88.9Z" fill="#454351"/>
<path d="M78.5999 82.8999L79.7999 86.3999L74.9999 83.4998L74.5999 82.2999L75.1999 81.9998C76.6999 81.0998 78.0999 81.4999 78.5999 82.8999Z" fill="#232229"/>
<path d="M66.1999 83.9C66.9999 82.6 67.9999 81.6 68.9999 81C69.5999 80.6 70.1999 80.5 70.7999 80.5C70.9999 80.5 71.1999 80.5 71.3999 80.5C71.7999 80.5 72.0999 80.6 72.3999 80.8L74.2999 81.9C73.4999 81.4 72.3999 81.6 71.3999 82.2C70.2999 82.8 69.2999 83.9 68.4999 85.3C66.8999 88.1 66.8999 91.1 68.4999 92L66.5999 90.9C65.8999 90.5 65.5999 89.7 65.4999 89.6C64.7999 88.3 64.9999 86 66.1999 83.9Z" fill="#1A1A1A"/>
<path d="M68.4999 85.2C69.2999 83.8 70.2999 82.7 71.3999 82.1C72.4999 81.5 73.4999 81.3 74.2999 81.8C74.7999 82.1 75.2999 82.9 75.4999 83.7C75.5999 84.2 70.2999 92 70.2999 92C69.6999 92.1 68.7999 92 68.4999 91.9C66.8999 91 66.8999 88 68.4999 85.2Z" fill="black"/>
<path d="M74.479 88.6724C75.9978 86.0418 75.9883 83.193 74.4578 82.3094C72.9274 81.4257 70.4554 82.8418 68.9366 85.4724C67.4179 88.1029 67.4274 90.9517 68.9578 91.8354C70.4883 92.719 72.9603 91.3029 74.479 88.6724Z" fill="#1A1A1A"/>
<path d="M68.7999 85.4C69.5999 84.1 70.5999 83.1 71.4999 82.5C72.0999 82.1 72.6999 82 73.2999 82C73.4999 82 73.6999 82 73.8999 82C74.2999 82 74.5999 82.1 74.8999 82.3L76.7999 83.4C75.9999 82.9 74.8999 83.1 73.8999 83.7C72.7999 84.3 71.7999 85.4 70.9999 86.8C69.3999 89.6 69.3999 92.6 70.9999 93.5L69.0999 92.4C68.3999 92 68.0999 91.2 67.9999 91.1C67.3999 89.8 67.5999 87.6 68.7999 85.4Z" fill="#1A1A1A"/>
<path d="M71.0999 86.8001C71.8999 85.4001 72.8999 84.3001 73.9999 83.7001C75.0999 83.1001 76.0999 82.9001 76.8999 83.4001C77.3999 83.7001 77.8999 84.5001 78.0999 85.3001C78.1999 85.8001 72.8999 93.6001 72.8999 93.6001C72.2999 93.7001 71.3999 93.6001 71.0999 93.5001C69.4999 92.5001 69.4999 89.5001 71.0999 86.8001Z" fill="#292929"/>
<path d="M71.4999 93.4C72.9999 94.3 75.4999 92.9 76.9999 90.2C78.4999 87.5 78.4999 84.7 76.9999 83.8C75.4999 82.9 72.9999 84.3 71.4999 87C69.9999 89.6 69.9999 92.5 71.4999 93.4Z" fill="#1A1A1A"/>
<path d="M72.5999 91.6001C73.5999 92.1001 75.0999 91.3001 75.9999 89.6001C76.9999 88.0001 76.9999 86.2001 75.9999 85.6001C74.9999 85.1001 73.4999 85.9001 72.5999 87.6001C71.5999 89.2001 71.5999 91.0001 72.5999 91.6001Z" fill="black"/>
<path d="M72.3999 91.8001C73.3999 92.4001 75.0999 91.4001 76.0999 89.7001C77.0999 87.9001 77.0999 86.0001 76.0999 85.4001C75.0999 84.8001 73.3999 85.8001 72.3999 87.5001C71.3999 89.3001 71.3999 91.2001 72.3999 91.8001ZM72.5999 87.6001C72.8999 87.1001 73.2999 86.6001 73.6999 86.3001V87.7001C73.5999 87.8001 73.4999 87.9001 73.3999 88.1001L72.2999 88.3001C72.2999 88.0001 72.3999 87.8001 72.5999 87.6001ZM76.2999 85.9001L75.1999 87.0001C75.0999 87.0001 74.9999 86.9001 74.8999 86.9001V85.5001C75.2999 85.4001 75.6999 85.4001 75.9999 85.6001C76.0999 85.7001 76.1999 85.8001 76.2999 85.9001ZM76.1999 89.2001L75.4999 88.5001C75.4999 88.4001 75.5999 88.2001 75.5999 88.1001L76.6999 87.0001C76.7999 87.7001 76.5999 88.5001 76.1999 89.2001ZM73.3999 91.7001L74.0999 90.2001C74.1999 90.2001 74.2999 90.1001 74.3999 90.0001L75.0999 90.7001C74.5999 91.3001 73.9999 91.6001 73.3999 91.7001ZM71.8999 89.9001L72.9999 89.7001C72.9999 89.8001 73.0999 89.9001 73.0999 90.0001L72.3999 91.5001C71.9999 91.1001 71.7999 90.5001 71.8999 89.9001Z" fill="#D1CEBA"/>
<path d="M73.2998 87.4V86.5C73.3998 86.4 73.4998 86.3 73.5998 86.2V87.6C73.4998 87.7 73.3998 87.8 73.2998 88L72.1998 88.2C72.1998 88.1 72.2998 88 72.2998 87.9L72.9998 87.8C73.0998 87.7 73.1998 87.5 73.2998 87.4Z" fill="#ADAA99"/>
<path d="M72.6999 89.7001L72.9999 89.6001C72.9999 89.7001 73.0999 89.8001 73.0999 89.9001L72.3999 91.4001C72.2999 91.3001 72.1999 91.2001 72.0999 91.1001L72.6999 89.7001Z" fill="#ADAA99"/>
<path d="M76.6999 87C76.6999 87.7 76.4999 88.4 76.1999 89.2L75.8999 88.9C76.1999 88.4 76.2999 87.8 76.3999 87.3L76.6999 87Z" fill="#ADAA99"/>
<path d="M74.7999 90.4999L74.2999 89.9999C74.2999 89.9999 74.3999 89.9999 74.3999 89.8999L75.0999 90.5999C74.4999 91.1999 73.8999 91.4999 73.3999 91.5999L73.5999 91.2999C73.9999 91.1999 74.3999 90.8999 74.7999 90.4999Z" fill="#ADAA99"/>
<path d="M75.7999 85.5C75.8999 85.5 75.8999 85.6 75.9999 85.6C76.0999 85.7 76.1999 85.8 76.2999 85.9L75.1999 87C75.0999 87 74.9999 86.9 74.8999 86.9V86.7L75.9999 85.7C75.8999 85.6 75.8999 85.6 75.7999 85.5Z" fill="#ADAA99"/>
<path d="M74.5725 88.732C74.7106 88.4929 74.7062 88.2319 74.5628 88.149C74.4193 88.0662 74.191 88.1929 74.0529 88.432C73.9148 88.6711 73.9192 88.9322 74.0627 89.015C74.2061 89.0979 74.4344 88.9712 74.5725 88.732Z" fill="#222222"/>
<path d="M74.1999 87.8C74.2999 87.8 74.3999 87.8 74.4999 87.6C74.5999 87.5 74.5999 87.3 74.4999 87.3C74.3999 87.3 74.2999 87.3 74.1999 87.5C74.0999 87.7 74.0999 87.8 74.1999 87.8Z" fill="#222222"/>
<path d="M74.8 88.9001C74.7 88.9001 74.6 89.1001 74.6 89.2001C74.6 89.3001 74.7 89.4001 74.8 89.4001C74.9 89.4001 75 89.2001 75 89.1001C75 89.0001 74.9 88.8001 74.8 88.9001Z" fill="#222222"/>
<path d="M74 89.5001C74 89.4001 73.9 89.4001 73.8 89.4001C73.7 89.5001 73.6 89.6001 73.6 89.7001C73.6 89.8001 73.7 89.8001 73.8 89.8001C73.9 89.8001 74 89.6001 74 89.5001Z" fill="#222222"/>
<path d="M73.5999 88.9001C73.6999 88.8001 73.6999 88.6001 73.6999 88.6001C73.6999 88.5001 73.4999 88.5001 73.3999 88.7001C73.2999 88.8001 73.2999 89.0001 73.2999 89.0001C73.3999 89.0001 73.4999 89.0001 73.5999 88.9001Z" fill="#222222"/>
<path d="M74.8999 87.8001C74.8999 87.9001 74.8999 88.0001 74.9999 88.0001C75.0999 88.0001 75.1999 87.9001 75.2999 87.8001C75.2999 87.7001 75.2999 87.6001 75.1999 87.6001C75.0999 87.6001 74.9999 87.7001 74.8999 87.8001Z" fill="#222222"/>
<path d="M78.5999 82.9C78.0999 81.5 76.6999 81.1 75.0999 82L73.0999 83.1C71.4999 84 70.0999 86 69.5999 88L68.3999 92.9L67.7999 93L68.9999 88.1C69.1999 87.2 69.5999 86.4 69.9999 85.6C70.7999 84.2 71.8999 83.1 72.9999 82.4L74.9999 81.3C76.1999 80.6 77.2999 80.5 77.9999 81C78.4999 81.3 78.7999 81.7 78.9999 82.3L80.1999 85.8L79.5999 86.4L78.5999 82.9Z" fill="#454351"/>
<path d="M73.2999 78.2C72.4999 77.7 71.3999 77.8 70.2999 78.5L68.2999 79.6C67.0999 80.3 65.9999 81.4 65.2999 82.8C64.7999 83.6 64.4999 84.4 64.2999 85.3L62.9999 90.2L67.8999 93L69.0999 88.1C69.2999 87.2 69.6999 86.4 70.0999 85.6C70.8999 84.2 71.9999 83.1 73.0999 82.4L75.0999 81.3C76.2999 80.6 77.3999 80.5 78.0999 81C78.1999 81 73.7999 78.4 73.2999 78.2Z" fill="#5F5C6B"/>
<path opacity="0.3" d="M64.2999 85.3C64.4999 84.4 64.8999 83.6 65.2999 82.8L70.1999 85.6C69.6999 86.4 69.3999 87.2 69.1999 88.1L67.9999 93L62.9999 90.2L64.2999 85.3Z" fill="black"/>
<path d="M87.7999 83.3L67.3999 95L61.3999 91.6L81.7999 79.8L87.7999 83.3Z" fill="#474747"/>
<path d="M87.7999 86.4L67.3999 98.3V95L87.7999 83.3V86.4Z" fill="#141414"/>
<path d="M91.7 90.4999L92.9 93.9999L88 91.1999L87.6 89.9999L88.2 89.6999C89.8 88.6999 91.2 88.9999 91.7 90.4999Z" fill="#232229"/>
<path d="M79.3 91.4999C80.1 90.1999 81.1 89.1999 82 88.5999C82.6 88.1999 83.2 88.0999 83.8 88.0999C84 88.0999 84.2 88.0999 84.4 88.0999C84.8 88.0999 85.1 88.1999 85.4 88.3999L87.3 89.4999C86.5 88.9999 85.4 89.1999 84.4 89.7999C83.4 90.3999 82.3 91.4999 81.5 92.8999C79.9 95.6999 79.9 98.6999 81.5 99.5999L79.6 98.4999C78.9 98.0999 78.6 97.2999 78.5 97.1999C77.9 95.8999 78.1 93.5999 79.3 91.4999Z" fill="#1A1A1A"/>
<path d="M81.6 92.7998C82.4 91.3998 83.4 90.2998 84.5 89.6998C85.6 89.0998 86.6 88.8998 87.4 89.3998C87.9 89.6998 88.4 90.4998 88.6 91.2998C88.7 91.7998 83.4 99.5998 83.4 99.5998C82.8 99.6998 81.9 99.5998 81.6 99.4998C80 98.4998 80 95.5998 81.6 92.7998Z" fill="black"/>
<path d="M82 99.4C83.5 100.3 86 98.9 87.5 96.2C89 93.5 89 90.7 87.5 89.8C86 88.9 83.5 90.3 82 93C80.5 95.7 80.5 98.5 82 99.4Z" fill="#1A1A1A"/>
<path d="M81.9 92.9999C82.7 91.6999 83.7 90.6999 84.6 90.0999C85.2 89.6999 85.8 89.5999 86.4 89.5999C86.6 89.5999 86.8 89.5999 87 89.5999C87.4 89.5999 87.7 89.6999 88 89.8999L90 90.9999C89.2 90.4999 88.1 90.6999 87.1 91.2999C86 91.8999 85 92.9999 84.2 94.3999C82.6 97.1999 82.6 100.2 84.2 101.1L82.3 99.9999C81.6 99.5999 81.3 98.7999 81.2 98.6999C80.5 97.3999 80.7 95.0999 81.9 92.9999Z" fill="#1A1A1A"/>
<path d="M84.2 94.2998C85 92.8998 86 91.7998 87.1 91.1998C88.2 90.5998 89.2 90.3998 90 90.8998C90.5 91.1998 91 91.9998 91.2 92.7998C91.3 93.2998 86 101.1 86 101.1C85.4 101.2 84.5 101.1 84.2 101C82.6 100.1 82.6 97.0998 84.2 94.2998Z" fill="#292929"/>
<path d="M84.7 100.9C86.2 101.8 88.7 100.4 90.2 97.7C91.7 95.1 91.7 92.2 90.2 91.3C88.7 90.4 86.2 91.8 84.7 94.5C83.2 97.2 83.1 100 84.7 100.9Z" fill="#1A1A1A"/>
<path d="M85.7 99.0998C86.7 99.5998 88.2 98.7998 89.1 97.0998C90.1 95.4998 90.1 93.6998 89.1 93.0998C88.1 92.5998 86.6 93.3998 85.7 95.0998C84.7 96.7998 84.7 98.5998 85.7 99.0998Z" fill="black"/>
<path d="M85.5 99.3999C86.5 99.9999 88.2 98.9999 89.2 97.2999C90.2 95.4999 90.2 93.5999 89.2 92.9999C88.2 92.3999 86.5 93.3999 85.5 95.0999C84.5 96.8999 84.5 98.7999 85.5 99.3999ZM85.7 95.1999C86 94.6999 86.4 94.1999 86.8 93.8999V95.2999C86.7 95.3999 86.6 95.4999 86.5 95.6999L85.4 95.8999C85.5 95.5999 85.6 95.3999 85.7 95.1999ZM89.4 93.3999L88.3 94.4999C88.2 94.4999 88.1 94.3999 88 94.3999V92.9999C88.4 92.8999 88.8 92.8999 89.1 93.0999C89.2 93.1999 89.4 93.2999 89.4 93.3999ZM89.3 96.7999L88.6 96.0999C88.6 95.9999 88.7 95.7999 88.7 95.6999L89.8 94.5999C89.9 95.2999 89.7 95.9999 89.3 96.7999ZM86.5 99.2999L87.2 97.7999C87.3 97.7999 87.4 97.6999 87.5 97.5999L88.2 98.2999C87.7 98.8999 87.1 99.1999 86.5 99.2999ZM85 97.3999L86.1 97.1999C86.1 97.2999 86.2 97.3999 86.2 97.4999L85.5 98.9999C85.1 98.6999 84.9 98.0999 85 97.3999Z" fill="#D1CEBA"/>
<path d="M86.3999 94.9998V94.0998C86.4999 93.9998 86.5999 93.8998 86.6999 93.7998V95.1998C86.5999 95.2998 86.4999 95.3998 86.3999 95.5998L85.2999 95.7998C85.2999 95.6998 85.3999 95.5998 85.3999 95.4998L86.0999 95.3998C86.1999 95.1998 86.2999 95.0998 86.3999 94.9998Z" fill="#ADAA99"/>
<path d="M85.8 97.3L86.1 97.2C86.1 97.3 86.2 97.4 86.2 97.5L85.5 99C85.4 98.9 85.3 98.8 85.2 98.7L85.8 97.3C85.9 97.3 85.9 97.3 85.8 97.3Z" fill="#ADAA99"/>
<path d="M89.8 94.5999C89.8 95.2999 89.6 95.9999 89.3 96.7999L89 96.4999C89.3 95.9999 89.4 95.3999 89.5 94.8999L89.8 94.5999Z" fill="#ADAA99"/>
<path d="M87.9 98.0998L87.4 97.5998C87.4 97.5998 87.5 97.5998 87.5 97.4998L88.2 98.1998C87.6 98.7998 87 99.0998 86.5 99.1998L86.7 98.8998C87.1 98.7998 87.5 98.4998 87.9 98.0998Z" fill="#ADAA99"/>
<path d="M88.9 93.0999C89 93.0999 89 93.1999 89.1 93.1999C89.2 93.2999 89.3 93.3999 89.4 93.4999L88.3 94.5999C88.2 94.5999 88.1 94.4999 88 94.4999V94.2999L89.1 93.2999C89.1 93.1999 89 93.0999 88.9 93.0999Z" fill="#ADAA99"/>
<path d="M87.2 96.5999C87.3 96.6999 87.5 96.6 87.7 96.3C87.8 96.1 87.8 95.8 87.7 95.8C87.6 95.7 87.4 95.7999 87.2 96.0999C87 96.1999 87 96.4999 87.2 96.5999Z" fill="#222222"/>
<path d="M87.3 95.3999C87.4 95.3999 87.5 95.3999 87.6 95.1999C87.7 95.0999 87.7 94.8999 87.6 94.8999C87.5 94.8999 87.4 94.8999 87.3 95.0999C87.2 95.1999 87.2 95.3999 87.3 95.3999Z" fill="#222222"/>
<path d="M87.9001 96.3999C87.8001 96.3999 87.7001 96.5999 87.7001 96.6999C87.7001 96.7999 87.8001 96.8999 87.9001 96.8999C88.0001 96.8999 88.1001 96.6999 88.1001 96.5999C88.1001 96.4999 88.0001 96.3999 87.9001 96.3999Z" fill="#222222"/>
<path d="M87.1001 97.1C87.1001 97 87.0001 97 86.9001 97C86.8001 97.1 86.7001 97.2 86.7001 97.3C86.7001 97.4 86.8001 97.4 86.9001 97.4C87.0001 97.4 87.1001 97.2 87.1001 97.1Z" fill="#222222"/>
<path d="M86.7 96.5C86.8 96.4 86.8 96.2 86.8 96.2C86.8 96.1 86.6 96.1 86.5 96.3C86.4 96.4 86.4 96.6 86.4 96.6C86.5 96.6 86.6 96.6 86.7 96.5Z" fill="#222222"/>
<path d="M88 95.3999C88 95.4999 88 95.5999 88.1 95.5999C88.2 95.5999 88.3 95.4999 88.4 95.3999C88.4 95.2999 88.4 95.1999 88.3 95.1999C88.2 95.0999 88.1 95.2999 88 95.3999Z" fill="#222222"/>
<path d="M91.6999 90.4999C91.1999 89.0999 89.7999 88.6999 88.1999 89.5999L86.1999 90.6999C84.5999 91.5999 83.1999 93.5999 82.6999 95.5999L81.4999 100.5L80.8999 100.6L82.0999 95.6999C82.2999 94.7999 82.6999 93.9999 83.0999 93.1999C83.8999 91.7999 84.9999 90.6999 86.0999 89.9999L88.0999 88.8999C89.2999 88.1999 90.3999 88.0999 91.0999 88.5999C91.5999 88.8999 91.8999 89.2999 92.0999 89.8999L93.2999 93.3999L92.6999 93.9999L91.6999 90.4999Z" fill="#454351"/>
<path d="M86.4 85.7C85.6 85.2 84.5 85.3 83.4 86L81.4 87.1C80.2 87.8 79.1 88.9 78.4 90.3C77.9 91.1 77.6 91.9 77.4 92.8L76.2 97.7L81.1 100.5L82.3 95.6C82.5 94.7 82.9 93.9 83.3 93.1C84.1 91.7 85.2 90.6 86.3 89.9L88.3 88.8C89.5 88.1 90.6 88 91.3 88.5C91.3 88.6 86.9 86 86.4 85.7Z" fill="#5F5C6B"/>
<path opacity="0.3" d="M86.9 86C86.7 85.9 86.6 85.8 86.4 85.7C85.6 85.3 84.5 85.4 83.4 86L81.4 87.1C80.2 87.8 79.1 88.9 78.4 90.3C77.9 91.1 77.6 91.9 77.4 92.8L76.2 97.7L81.1 100.5L82.3 95.6C82.4 95.1 82.6 94.5 82.9 94C83.1 93.5 82.9 92.8 82.4 92.5C81.5 92 81.3 90.8 81.9 90C82.5 89.3 83.1 88.8 83.8 88.4L85.8 87.3C86.9 86.6 88 86.5 88.8 87C88 86.7 87.3 86.3 86.9 86Z" fill="black"/>
<path d="M66.0999 102L69.1999 103.8C69.2999 103.9 69.4 103.9 69.5 103.8C69.6 103.8 69.5999 103.7 69.5999 103.5V99.2C69.5999 98.9 69.3999 98.6 69.1999 98.5L66.0999 96.7C65.9999 96.6 65.8999 96.6 65.7999 96.7C65.6999 96.7 65.7 96.8 65.7 97V101.3C65.7 101.6 65.8999 101.9 66.0999 102Z" fill="#A6A296"/>
<path d="M78.8999 92.8999L75.7999 91.0999C75.6999 90.9999 75.5999 90.9999 75.4999 91.0999C75.3999 91.0999 65.7999 96.6999 65.7999 96.6999C65.8999 96.6999 65.9999 96.6999 66.0999 96.6999L69.1999 98.4999C69.3999 98.5999 69.5999 98.8999 69.5999 99.1999V103.5C69.5999 103.6 69.5999 103.7 69.4999 103.8C69.4999 103.8 79.0999 98.1999 79.1999 98.1999C79.2999 98.1999 79.2999 98.0999 79.2999 97.8999V93.5999C79.2999 93.3999 79.0999 93.0999 78.8999 92.8999Z" fill="url(#paint0_linear_229_7175)"/>
<path d="M81.3999 92.8L68.0999 100.5V101.6L82.3999 93.3L81.3999 92.8Z" fill="#5F5C6B"/>
<path d="M82.3999 93.3L68.0999 101.6V108.3L80.4999 101.1L82.3999 93.3Z" fill="#454351"/>
<path d="M68.0999 108.3L68.1999 108.2V101.5L68.0999 101.6V108.3Z" fill="#1A191F"/>
<path d="M97.9 84.4L96.5 83.6C96.3 83.5 96.3 83.2 96.6 83.1L97.9 82.4C98.2 82.2 98.6 82.2 98.8 82.4L100.2 83.2C100.4 83.3 100.4 83.6 100.1 83.7L98.8 84.4C98.5 84.5 98.1 84.6 97.9 84.4Z" fill="#5F5C6B"/>
<path d="M100.4 83.3C100.4 83.4 100.3 83.5 100.2 83.6L98.9 84.3C98.6 84.5 98.2 84.5 98 84.3L96.6 83.5C96.5 83.4 96.4 83.4 96.4 83.3C96.4 83.3 96.4 83.6 96.4 83.8C96.4 83.9 96.5 84 96.6 84L98 84.8C98.2 84.9 98.7 84.9 98.9 84.8L100.2 84.1C100.4 84 100.4 83.9 100.4 83.8C100.4 83.7 100.4 83.3 100.4 83.3Z" fill="#232229"/>
<path d="M99 81C99 81.2 98.7 81.4 98.3 81.4C97.9 81.4 97.6 81.2 97.6 81V83.3C97.6 83.5 97.9 83.7 98.3 83.7C98.7 83.7 99 83.5 99 83.3V81Z" fill="#DFD9D9"/>
<path d="M98.3 81.4C97.9 81.4 97.6 81.2 97.6 81V81.6C97.6 81.8 97.9 82 98.3 82C98.7 82 99 81.8 99 81.6V81C99 81.2 98.7 81.4 98.3 81.4Z" fill="black"/>
<path d="M98.3 73.3999C97.7 73.3999 97.2 73.6999 97.2 73.9999C97.2 74.2999 97.7 74.5999 98.3 74.5999C98.9 74.5999 99.4 74.2999 99.4 73.9999C99.4 73.6999 98.9 73.3999 98.3 73.3999Z" fill="#232229"/>
<path d="M99.4 74C99.4 74.3 98.9 74.6 98.3 74.6C97.7 74.6 97.2 74.3 97.2 74V81.1C97.2 81.4 97.7 81.7 98.3 81.7C98.9 81.7 99.4 81.4 99.4 81.1V74Z" fill="#454351"/>
<path d="M159.8 50.1999L143 40.4999C142.4 40.1999 141.5 40.1999 140.9 40.4999L139.9 41.0999L141 41.6999L141.9 41.1999L158.6 50.7999L157.7 51.2999L158.8 51.8999L159.8 51.2999C160.1 51.0999 160.2 50.8999 160.2 50.6999C160.2 50.4999 160.1 50.2999 159.8 50.1999Z" fill="#5F5C6B"/>
<path d="M140 41V42.7L141.1 43.4V41.6L140 41Z" fill="#232229"/>
<path d="M142 41.0999L141.1 41.5999V43.3999L142 42.7999L157.8 51.8999V51.2999L158.7 50.7999L142 41.0999Z" fill="#232229"/>
<path d="M157.8 51.2998V52.9998L158.8 53.5998V51.8998L157.8 51.2998Z" fill="#373542"/>
<path d="M159.8 51.2999L158.8 51.9V53.5999L159.8 53C160.1 52.8 160.2 52.6 160.2 52.4C160.2 52.2 160.2 50.7 160.2 50.7C160.3 51 160.1 51.1999 159.8 51.2999Z" fill="#454351"/>
<path d="M146.2 40L104.9 63.8L115.1 69.6L156.3 45.8L146.2 40Z" fill="#383131"/>
<path d="M104.9 63.8L93.2 66.8L103.3 72.7L115.1 69.6L104.9 63.8Z" fill="#292222"/>
<path d="M103.3 72.7L115.1 69.6L156.3 45.8V49.3L115.3 73L103.5 76L103.3 72.7Z" fill="#141414"/>
<path d="M157 52.5999C156.4 52.1999 155.6 52.1999 154.8 52.3999C154.9 52.7999 154.9 53.1999 154.9 53.6999L158.4 55.6999C158.4 54.2999 158 53.1999 157 52.5999Z" fill="#ABA79A"/>
<path d="M147.7 55.0999C148.5 53.7999 149.5 52.8 150.4 52.2C151 51.8 151.6 51.7 152.2 51.7C152.4 51.7 152.6 51.7 152.8 51.7C153.2 51.7 153.5 51.8 153.8 52L155.7 53.0999C154.9 52.5999 153.8 52.8 152.8 53.4C151.7 54 150.7 55.1 149.9 56.5C148.3 59.3 148.3 62.2999 149.9 63.1999L148 62C147.3 61.6 147 60.7999 146.9 60.6999C146.2 59.4999 146.4 57.1999 147.7 55.0999Z" fill="#0A0A0A"/>
<path d="M149.9 56.3999C150.7 54.9999 151.7 53.8999 152.8 53.2999C153.9 52.6999 154.9 52.4999 155.7 52.9999C156.2 53.2999 156.7 54.0999 156.9 54.8999C157 55.3999 151.7 63.1999 151.7 63.1999C151.1 63.2999 150.2 63.1999 149.9 63.0999C148.3 62.1999 148.3 59.1999 149.9 56.3999Z" fill="#333333"/>
<path d="M150.4 63.0001C151.9 63.9001 154.4 62.5001 155.9 59.8001C157.4 57.2001 157.4 54.3001 155.9 53.4001C154.4 52.5001 151.9 53.9001 150.4 56.6001C148.8 59.3001 148.8 62.1001 150.4 63.0001Z" fill="#1A1A1A"/>
<path d="M151.4 61.1999C152.4 61.6999 153.9 60.8999 154.8 59.1999C155.8 57.5999 155.8 55.7999 154.8 55.1999C153.8 54.6999 152.3 55.4999 151.4 57.1999C150.4 58.8999 150.4 60.6999 151.4 61.1999Z" fill="black"/>
<path d="M151.3 61.5C152.3 62.1 154 61.1 155 59.4C156 57.6 156 55.7 155 55.1C154 54.5 152.3 55.5 151.3 57.2C150.2 59 150.2 60.9 151.3 61.5ZM151.4 57.3C151.7 56.8 152.1 56.3 152.5 56V57.4C152.4 57.5 152.3 57.6 152.2 57.8L151.1 58C151.2 57.7 151.3 57.5 151.4 57.3ZM155.1 55.5L154 56.6C153.9 56.6 153.8 56.5 153.7 56.5V55.1C154.1 55 154.5 55 154.8 55.2C155 55.3 155.1 55.4 155.1 55.5ZM155 58.9L154.3 58.2C154.3 58.1 154.4 57.9 154.4 57.8L155.5 56.7C155.6 57.4 155.4 58.1 155 58.9ZM152.3 61.4L153 59.9C153.1 59.9 153.2 59.8 153.3 59.7L154 60.4C153.4 61 152.8 61.3 152.3 61.4ZM150.7 59.5L151.8 59.3C151.8 59.4 151.9 59.5 151.9 59.6L151.2 61.1C150.8 60.8 150.7 60.2 150.7 59.5Z" fill="#D1CEBA"/>
<path d="M152.1 57.0999V56.1999C152.2 56.0999 152.3 55.9999 152.4 55.8999V57.2999C152.3 57.3999 152.2 57.4999 152.1 57.6999L151 57.8999C151 57.7999 151.1 57.6999 151.1 57.5999L151.8 57.4999C152 57.2999 152 57.1999 152.1 57.0999Z" fill="#ADAA99"/>
<path d="M151.6 59.4L151.9 59.3C151.9 59.4 152 59.5 152 59.6L151.3 61.1C151.2 61 151.1 60.9 151 60.8L151.6 59.4Z" fill="#ADAA99"/>
<path d="M155.5 56.7C155.5 57.4 155.3 58.1 155 58.9L154.7 58.6C155 58.1 155.1 57.5 155.2 57L155.5 56.7Z" fill="#ADAA99"/>
<path d="M153.6 60.1999L153.1 59.6999C153.1 59.6999 153.2 59.6999 153.2 59.5999L153.9 60.2999C153.3 60.8999 152.7 61.1999 152.2 61.2999L152.4 60.9999C152.8 60.8999 153.2 60.5999 153.6 60.1999Z" fill="#ADAA99"/>
<path d="M154.7 55.2C154.8 55.2 154.8 55.3 154.9 55.3C155 55.4 155.1 55.5 155.2 55.6L154.1 56.7C154 56.7 153.9 56.6 153.8 56.6V56.4L154.9 55.4C154.8 55.3 154.7 55.2 154.7 55.2Z" fill="#ADAA99"/>
<path d="M152.9 58.7C153 58.8 153.2 58.7 153.4 58.4C153.5 58.2 153.5 57.9 153.4 57.9C153.3 57.8 153.1 57.9 152.9 58.2C152.8 58.3 152.8 58.6 152.9 58.7Z" fill="#222222"/>
<path d="M153 57.5C153.1 57.5 153.2 57.5 153.3 57.3C153.4 57.2 153.4 57 153.3 57C153.2 57 153.1 57 153 57.2C152.9 57.3 152.9 57.5 153 57.5Z" fill="#222222"/>
<path d="M153.6 58.5C153.5 58.5 153.4 58.7 153.4 58.8C153.4 58.9 153.5 59 153.6 59C153.7 59 153.8 58.8 153.8 58.7C153.8 58.6 153.7 58.5 153.6 58.5Z" fill="#222222"/>
<path d="M152.8 59.2001C152.8 59.1001 152.7 59.1001 152.6 59.1001C152.5 59.2001 152.4 59.3001 152.4 59.4001C152.4 59.5001 152.5 59.5001 152.6 59.5001C152.7 59.5001 152.8 59.3001 152.8 59.2001Z" fill="#222222"/>
<path d="M152.4 58.6001C152.5 58.5001 152.5 58.3001 152.5 58.3001C152.5 58.2001 152.3 58.2001 152.2 58.4001C152.1 58.5001 152.1 58.7001 152.1 58.7001C152.2 58.7001 152.3 58.7001 152.4 58.6001Z" fill="#222222"/>
<path d="M153.7 57.5C153.7 57.6 153.7 57.7 153.8 57.7C153.9 57.7 154 57.6 154.1 57.5C154.1 57.4 154.1 57.3 154 57.3C153.9 57.2 153.8 57.4 153.7 57.5Z" fill="#222222"/>
<path d="M146.7 58.5999C146.1 58.1999 145.3 58.1999 144.5 58.3999C144.6 58.7999 144.6 59.1999 144.6 59.6999L148.1 61.6999C148.2 60.2999 147.7 59.0999 146.7 58.5999Z" fill="#ABA79A"/>
<path d="M137.4 61.1C138.2 59.8 139.2 58.8 140.1 58.2C140.7 57.8 141.3 57.7 141.9 57.7C142.1 57.7 142.3 57.7 142.5 57.7C142.9 57.7 143.2 57.8 143.5 58L145.4 59.1C144.6 58.6 143.5 58.8 142.5 59.4C141.4 60 140.4 61.1 139.6 62.5C138 65.3 138 68.3 139.6 69.2L137.7 68.1C137 67.7 136.7 66.9 136.6 66.8C135.9 65.4 136.1 63.2 137.4 61.1Z" fill="#0A0A0A"/>
<path d="M139.6 62.3999C140.4 60.9999 141.4 59.8999 142.5 59.2999C143.6 58.6999 144.6 58.4999 145.4 58.9999C145.9 59.2999 146.4 60.0999 146.6 60.8999C146.7 61.3999 141.4 69.1999 141.4 69.1999C140.8 69.2999 139.9 69.1999 139.6 69.0999C138 68.0999 138 65.0999 139.6 62.3999Z" fill="#333333"/>
<path d="M140.1 69.0001C141.6 69.9001 144.1 68.5001 145.6 65.8001C147.1 63.2001 147.1 60.3001 145.6 59.4001C144.1 58.5001 141.6 59.9001 140.1 62.6001C138.5 65.2001 138.5 68.1001 140.1 69.0001Z" fill="#1A1A1A"/>
<path d="M141.1 67.1999C142.1 67.6999 143.6 66.8999 144.5 65.1999C145.5 63.5999 145.5 61.7999 144.5 61.1999C143.5 60.6999 142 61.4999 141.1 63.1999C140.1 64.8999 140.1 66.5999 141.1 67.1999Z" fill="black"/>
<path d="M141 67.3999C142 67.9999 143.7 66.9999 144.7 65.2999C145.7 63.4999 145.7 61.5999 144.7 60.9999C143.7 60.3999 142 61.3999 141 63.0999C139.9 64.8999 139.9 66.7999 141 67.3999ZM141.1 63.1999C141.4 62.6999 141.8 62.1999 142.2 61.8999V63.2999C142.1 63.3999 142 63.4999 141.9 63.6999L140.8 63.8999C140.9 63.5999 141 63.3999 141.1 63.1999ZM144.9 61.4999L143.8 62.5999C143.7 62.5999 143.6 62.4999 143.5 62.4999V61.0999C143.9 60.9999 144.3 60.9999 144.6 61.1999C144.7 61.2999 144.8 61.3999 144.9 61.4999ZM144.7 64.8999L144 64.1999C144 64.0999 144.1 63.8999 144.1 63.7999L145.2 62.6999C145.3 63.2999 145.1 64.0999 144.7 64.8999ZM142 67.2999L142.7 65.7999C142.8 65.7999 142.9 65.6999 143 65.5999L143.7 66.2999C143.1 66.8999 142.5 67.2999 142 67.2999ZM140.4 65.4999L141.5 65.2999C141.5 65.3999 141.6 65.4999 141.6 65.5999L140.9 67.0999C140.5 66.6999 140.4 66.1999 140.4 65.4999Z" fill="#D1CEBA"/>
<path d="M141.8 62.9998V62.0998C141.9 61.9998 142 61.8998 142.1 61.7998V63.1998C142 63.2998 141.9 63.3998 141.8 63.5998L140.7 63.7998C140.7 63.6998 140.8 63.5998 140.8 63.4998L141.5 63.3998C141.7 63.2998 141.7 63.1998 141.8 62.9998Z" fill="#ADAA99"/>
<path d="M141.3 65.3L141.6 65.2C141.6 65.3 141.7 65.4 141.7 65.5L141 67C140.9 66.9 140.8 66.8 140.7 66.7L141.3 65.3Z" fill="#ADAA99"/>
<path d="M145.3 62.7C145.3 63.4 145.1 64.1 144.8 64.9L144.5 64.6C144.8 64.1 144.9 63.5 145 63L145.3 62.7Z" fill="#ADAA99"/>
<path d="M143.3 66.0998L142.8 65.5998C142.8 65.5998 142.9 65.5998 142.9 65.4998L143.6 66.1998C143 66.7998 142.4 67.0998 141.9 67.1998L142.1 66.8998C142.5 66.7998 142.9 66.4998 143.3 66.0998Z" fill="#ADAA99"/>
<path d="M144.4 61.0999C144.5 61.0999 144.5 61.1999 144.6 61.1999C144.7 61.2999 144.8 61.3999 144.9 61.4999L143.8 62.5999C143.7 62.5999 143.6 62.4999 143.5 62.4999V62.2999L144.6 61.2999C144.5 61.1999 144.4 61.1999 144.4 61.0999Z" fill="#ADAA99"/>
<path d="M142.6 64.5999C142.7 64.6999 142.9 64.6 143.1 64.3C143.2 64.1 143.2 63.8 143.1 63.8C143 63.7 142.8 63.7999 142.6 64.0999C142.5 64.2999 142.5 64.4999 142.6 64.5999Z" fill="#222222"/>
<path d="M142.7 63.5C142.8 63.5 142.9 63.5 143 63.3C143.1 63.2 143.1 63 143 63C142.9 63 142.8 63 142.7 63.2C142.6 63.3 142.6 63.4 142.7 63.5Z" fill="#222222"/>
<path d="M143.3 64.4999C143.2 64.4999 143.1 64.6999 143.1 64.7999C143.1 64.8999 143.2 64.9999 143.3 64.9999C143.4 64.9999 143.5 64.7999 143.5 64.6999C143.5 64.4999 143.4 64.3999 143.3 64.4999Z" fill="#222222"/>
<path d="M142.5 65.1C142.5 65 142.4 65 142.3 65C142.2 65.1 142.1 65.2 142.1 65.3C142.1 65.4 142.2 65.4 142.3 65.4C142.5 65.4 142.5 65.2 142.5 65.1Z" fill="#222222"/>
<path d="M142.1 64.5C142.2 64.4 142.2 64.2 142.2 64.2C142.2 64.1 142 64.1 141.9 64.3C141.8 64.4 141.8 64.6 141.8 64.6C141.9 64.6 142 64.6 142.1 64.5Z" fill="#222222"/>
<path d="M143.5 63.4C143.5 63.5 143.5 63.6 143.6 63.6C143.7 63.6 143.8 63.5 143.9 63.4C144 63.3 143.9 63.2 143.8 63.2C143.6 63.2 143.5 63.3 143.5 63.4Z" fill="#222222"/>
<path d="M136.4 64.5001C135.8 64.1001 135 64.1001 134.2 64.3001C134.3 64.7001 134.3 65.1001 134.3 65.6001L137.8 67.6001C137.9 66.2001 137.4 65.1001 136.4 64.5001Z" fill="#ABA79A"/>
<path d="M127.1 67.0001C127.9 65.7001 128.9 64.7001 129.8 64.1001C130.4 63.7001 131 63.6001 131.6 63.6001C131.8 63.6001 132 63.6001 132.2 63.6001C132.6 63.6001 132.9 63.7001 133.2 63.9001L135.1 65.0001C134.3 64.5001 133.2 64.7001 132.2 65.3001C131.1 65.9001 130.1 67.0001 129.3 68.4001C127.7 71.2001 127.7 74.2001 129.3 75.1001L127.4 74.0001C126.7 73.6001 126.4 72.8001 126.3 72.7001C125.6 71.4001 125.8 69.1001 127.1 67.0001Z" fill="#0A0A0A"/>
<path d="M129.3 68.3001C130.1 66.9001 131.1 65.8001 132.2 65.2001C133.3 64.6001 134.3 64.4001 135.1 64.9001C135.6 65.2001 136.1 66.0001 136.3 66.8001C136.4 67.3001 131.1 75.1001 131.1 75.1001C130.5 75.2001 129.6 75.1001 129.3 75.0001C127.7 74.0001 127.7 71.1001 129.3 68.3001Z" fill="#333333"/>
<path d="M129.8 74.9002C131.3 75.8002 133.8 74.4002 135.3 71.7002C136.8 69.1002 136.8 66.2002 135.3 65.3002C133.8 64.4002 131.3 65.8002 129.8 68.5002C128.3 71.2002 128.3 74.0002 129.8 74.9002Z" fill="#1A1A1A"/>
<path d="M130.8 73.1001C131.8 73.6001 133.3 72.8001 134.2 71.1001C135.2 69.5001 135.2 67.7001 134.2 67.1001C133.2 66.6001 131.7 67.4001 130.8 69.1001C129.9 70.8001 129.9 72.6001 130.8 73.1001Z" fill="black"/>
<path d="M130.7 73.4002C131.7 74.0002 133.4 73.0002 134.4 71.3002C135.4 69.5002 135.4 67.6002 134.4 67.0002C133.4 66.4002 131.7 67.4002 130.7 69.1002C129.6 70.8002 129.6 72.8002 130.7 73.4002ZM130.8 69.1002C131.1 68.6002 131.5 68.1002 131.9 67.8002V69.2002C131.8 69.3002 131.7 69.4002 131.6 69.6002L130.5 69.8002C130.6 69.6002 130.7 69.4002 130.8 69.1002ZM134.6 67.4002L133.5 68.5002C133.4 68.5002 133.3 68.4002 133.2 68.4002V67.0002C133.6 66.9002 134 66.9002 134.3 67.1002C134.4 67.2002 134.5 67.3002 134.6 67.4002ZM134.4 70.8002L133.7 70.1002C133.7 70.0002 133.8 69.8002 133.8 69.7002L134.9 68.6002C135 69.3002 134.8 70.0002 134.4 70.8002ZM131.7 73.3002L132.4 71.8002C132.5 71.8002 132.6 71.7002 132.7 71.6002L133.4 72.3002C132.8 72.8002 132.2 73.2002 131.7 73.3002ZM130.1 71.4002L131.2 71.2002C131.2 71.3002 131.3 71.4002 131.3 71.5002L130.6 73.0002C130.2 72.7002 130.1 72.1002 130.1 71.4002Z" fill="#D1CEBA"/>
<path d="M131.5 69V68.1C131.6 68 131.7 67.9 131.8 67.8V69.2C131.7 69.3 131.6 69.4 131.5 69.6L130.4 69.8C130.4 69.7 130.5 69.6 130.5 69.5L131.2 69.4C131.4 69.2 131.5 69.1 131.5 69Z" fill="#ADAA99"/>
<path d="M131 71.2001L131.3 71.1001C131.3 71.2001 131.4 71.3001 131.4 71.4001L130.7 72.9001C130.6 72.8001 130.5 72.7001 130.4 72.6001L131 71.2001C131 71.3001 131 71.3001 131 71.2001Z" fill="#ADAA99"/>
<path d="M135 68.6001C135 69.3001 134.8 70.0001 134.5 70.8001L134.2 70.5001C134.5 70.0001 134.6 69.4001 134.7 68.9001L135 68.6001Z" fill="#ADAA99"/>
<path d="M133 72.1L132.5 71.6C132.5 71.6 132.6 71.6 132.6 71.5L133.3 72.2C132.7 72.8 132.1 73.1 131.6 73.2L131.8 72.9C132.2 72.8 132.7 72.5 133 72.1Z" fill="#ADAA99"/>
<path d="M134.1 67.1001C134.2 67.1001 134.2 67.2001 134.3 67.2001C134.4 67.3001 134.5 67.4001 134.6 67.5001L133.5 68.6001C133.4 68.6001 133.3 68.5001 133.2 68.5001V68.3001L134.3 67.3001C134.2 67.2001 134.1 67.1001 134.1 67.1001Z" fill="#ADAA99"/>
<path d="M132.3 70.5001C132.4 70.6001 132.6 70.5001 132.8 70.2001C132.9 70.0001 132.9 69.7001 132.8 69.7001C132.7 69.6001 132.5 69.7001 132.3 70.0001C132.2 70.2001 132.2 70.5001 132.3 70.5001Z" fill="#222222"/>
<path d="M132.4 69.4001C132.5 69.4001 132.6 69.4001 132.7 69.2001C132.8 69.1001 132.8 68.9001 132.7 68.9001C132.6 68.9001 132.5 68.9001 132.4 69.1001C132.3 69.2001 132.3 69.4001 132.4 69.4001Z" fill="#222222"/>
<path d="M133.1 70.4001C133 70.4001 132.9 70.6001 132.9 70.7001C132.9 70.8001 133 70.9001 133.1 70.9001C133.2 70.9001 133.3 70.7001 133.3 70.6001C133.2 70.4001 133.2 70.4001 133.1 70.4001Z" fill="#222222"/>
<path d="M132.2 71.1002C132.2 71.0002 132.1 71.0002 132 71.0002C131.9 71.1002 131.8 71.2002 131.8 71.3002C131.8 71.4002 131.9 71.4002 132 71.4002C132.2 71.3002 132.2 71.2002 132.2 71.1002Z" fill="#222222"/>
<path d="M131.8 70.4001C131.9 70.3001 131.9 70.1001 131.9 70.1001C131.9 70.0001 131.7 70.0001 131.6 70.2001C131.5 70.3001 131.5 70.5001 131.5 70.5001C131.5 70.5001 131.7 70.6001 131.8 70.4001Z" fill="#222222"/>
<path d="M133.2 69.4001C133.2 69.5001 133.2 69.6001 133.3 69.6001C133.4 69.6001 133.5 69.5001 133.6 69.4001C133.6 69.3001 133.6 69.2001 133.5 69.2001C133.3 69.1001 133.2 69.2001 133.2 69.4001Z" fill="#222222"/>
<path d="M154 49.8C151.9 48.6 148.4 50.6 146.3 54.3C145.8 55.1 145.5 55.9 145.2 56.7L147.2 57.9C147.8 58.2 148.2 58.8 148.5 59.5C148.8 58.5 149.2 57.4 149.8 56.4C151.9 52.7 155.4 50.7 157.5 51.9C157.5 51.9 155 50.5 154 49.8Z" fill="#D3CFC3"/>
<path opacity="0.8" d="M146.2 54.3C145.7 55.1 145.4 55.9 145.1 56.7L147.1 57.9001C147.7 58.2001 148.1 58.8 148.4 59.5C148.7 58.5 149.1 57.4001 149.7 56.4001L146.2 54.3Z" fill="black"/>
<path d="M145.2 56.5999C145.2 56.5999 144.3 56.0999 143.7 55.6999C141.6 54.4999 138.1 56.4999 136 60.1999C135.5 60.9999 135.2 61.7999 134.9 62.5999L136.9 63.7999C137.5 64.0999 137.9 64.6999 138.2 65.3999C138.5 64.3999 138.9 63.2999 139.5 62.2999C141.6 58.5999 145.1 56.5999 147.2 57.7999L145.2 56.5999Z" fill="#D3CFC3"/>
<path opacity="0.7" d="M136 60.2C135.5 61 135.2 61.8 134.9 62.6L136.9 63.8C137.5 64.1 137.9 64.7 138.2 65.4C138.5 64.4 138.9 63.3 139.5 62.3L136 60.2Z" fill="black"/>
<path d="M134.9 62.5999C134.2 62.1999 133.6 61.8999 133.4 61.6999C131.3 60.4999 127.8 62.4999 125.7 66.1999C124.6 67.9999 124.1 69.9999 124.1 71.5999L127.6 73.5999C127.6 71.9999 128.1 70.0999 129.2 68.1999C131.3 64.4999 134.8 62.4999 136.9 63.6999L134.9 62.5999Z" fill="#D3CFC3"/>
<path d="M157.5 51.9001C155.4 50.7001 151.9 52.7001 149.8 56.4001C149.2 57.4001 148.8 58.5001 148.5 59.5001C148.2 58.8001 147.8 58.2001 147.2 57.9001C145.1 56.7001 141.6 58.7001 139.5 62.4001C138.9 63.4001 138.5 64.5001 138.2 65.5001C137.9 64.8001 137.5 64.2001 136.9 63.9001C134.8 62.7001 131.3 64.7001 129.2 68.4001C128.1 70.2001 127.6 72.2001 127.6 73.8001L128.2 73.4001C128.2 72.0001 128.7 70.3001 129.6 68.6001C131.5 65.3001 134.6 63.6001 136.4 64.7001C137.3 65.2001 137.8 66.4001 137.8 67.8001L138.4 67.4001C138.4 66.0001 138.9 64.3001 139.8 62.6001C141.7 59.3001 144.8 57.6001 146.6 58.7001C147.5 59.2001 148 60.4001 148 61.8001L148.6 61.4001C148.6 60.0001 149.1 58.3001 150 56.6001C151.9 53.3001 155 51.6001 156.8 52.7001C157.7 53.2001 158.2 54.4001 158.2 55.8001L158.8 55.4001C159.1 53.8001 158.5 52.5001 157.5 51.9001Z" fill="#F0ECE3"/>
<path d="M107.1 70.6001L109.4 73.7001V79.4001L102.4 75.4001V73.3001L107.1 70.6001Z" fill="#DC7102"/>
<path d="M120.7 67.2002V72.8002L109.4 79.4002V73.7002L120.7 67.2002Z" fill="#F5A516"/>
<path d="M118.4 64.1001L107.1 70.6001L109.4 73.7001L120.7 67.2001L118.4 64.1001Z" fill="#FFC329"/>
<path d="M158 25.6001C156.1 22.4001 153.7 19.9001 151.2 18.4001C148.7 17.0001 146.3 16.6001 144.4 17.7001L64.1 64.1001C66 63.0001 68.4 63.4001 70.9 64.8001C73.4 66.2001 75.8 68.7001 77.7 72.0001C81.4 78.5001 81.4 85.5001 77.7 87.6001L158 41.2001C161.8 39.0001 161.8 32.1001 158 25.6001Z" fill="#F6B000"/>
<path opacity="0.6" d="M151.3 18.4001C148.8 17.0001 146.4 16.6001 144.5 17.7001L64.1 64.1001C66 63.0001 68.4 63.4001 70.9 64.8001C72.7 65.8001 74.5 67.4001 76 69.5001C76.6 70.3001 77.6 70.5001 78.5 70.0001L156 25.3001C156.7 24.9001 156.9 23.9001 156.4 23.2001C154.8 21.1001 153.1 19.5001 151.3 18.4001Z" fill="black"/>
<path d="M159.5 28.6001C159.1 27.6001 158.6 26.6001 158.1 25.6001L77.7 72.0001C78.3 73.0001 78.7 74.0001 79.1 75.0001L159.5 28.6001Z" fill="#FFC329"/>
<path d="M63.8 80C67.6 86.5 73.8 89.9 77.7 87.6C81.5 85.5 81.5 78.5 77.7 72C75.8 68.8 73.4 66.3 70.9 64.8C68.4 63.4 66 63 64.1 64.1C60.2 66.4 60.1 73.5 63.8 80Z" fill="#FAA816"/>
<path d="M79.2 74.9C73.2 77.2 61.4 69.7 62.4 65.8C61.4 67.3 61 69.5 61.2 71.9C61.2 77.4 75.4 84.8 80.5 82.1C80.6 80 80.2 77.5 79.2 74.9Z" fill="#D3CFC3"/>
<path d="M160.8 35.8001C160.9 33.7001 160.5 31.1001 159.5 28.6001L79.2 74.9001C80.2 77.5001 80.7 80.0001 80.5 82.1001L160.8 35.8001Z" fill="#F0ECE3"/>
<path opacity="0.0363636" d="M71.3999 73.3001C73.3999 76.1001 75.4999 76.8001 76.5999 76.1001C77.8999 75.3001 77.7999 73.8 75.6999 70.7001C73.8999 68.2001 72.4999 66.9 70.9999 67.7C69.3999 68.7 69.8999 71.2001 71.3999 73.3001Z" fill="white"/>
<path opacity="0.0727273" d="M71.5999 73.2002C73.3999 75.8002 75.4999 76.5002 76.4999 75.8002C77.6999 75.0002 77.5999 73.6002 75.5999 70.8002C73.9999 68.5002 72.5999 67.2002 71.1999 68.0002C69.6999 68.9002 70.1999 71.2002 71.5999 73.2002Z" fill="white"/>
<path opacity="0.1091" d="M71.8 73.1002C73.5 75.5002 75.4 76.2002 76.3 75.6002C77.4 74.9002 77.3 73.5002 75.4 70.9002C73.9 68.8002 72.6 67.5002 71.3 68.3002C70 69.1002 70.5 71.2002 71.8 73.1002Z" fill="white"/>
<path opacity="0.1455" d="M71.9999 73.0001C73.5999 75.2001 75.2999 75.9001 76.1999 75.3001C77.2999 74.6002 76.9999 73.3001 75.3999 71.0001C73.9999 69.1001 72.7999 67.8001 71.5999 68.5001C70.2999 69.2001 70.7999 71.3001 71.9999 73.0001Z" fill="white"/>
<path opacity="0.1818" d="M72.1999 72.8001C73.5999 74.8001 75.1999 75.5001 76.0999 74.9001C77.0999 74.3001 76.7999 73.1001 75.2999 70.9001C74.0999 69.1001 72.8999 67.9001 71.7999 68.6001C70.5999 69.4001 71.0999 71.3001 72.1999 72.8001Z" fill="white"/>
<path opacity="0.2182" d="M72.3999 72.7001C73.6999 74.5001 75.0999 75.1001 75.8999 74.7001C76.7999 74.1001 76.4999 73.0001 75.0999 71.1001C73.9999 69.5001 72.8999 68.3001 71.7999 69.0001C70.8999 69.6001 71.4999 71.3001 72.3999 72.7001Z" fill="white"/>
<path opacity="0.2545" d="M72.6999 72.6003C73.7999 74.2003 75.1999 74.8003 75.8999 74.4003C76.6999 73.9003 76.2999 72.8003 75.1999 71.1003C74.1999 69.7003 73.1999 68.5003 72.1999 69.1003C71.1999 69.7003 71.7999 71.4003 72.6999 72.6003Z" fill="white"/>
<path opacity="0.2909" d="M72.8999 72.5001C73.8999 73.9001 75.0999 74.5001 75.6999 74.1001C76.3999 73.6001 75.9999 72.6001 74.9999 71.2001C74.0999 70.0001 73.1999 68.8001 72.2999 69.4001C71.5999 69.9001 72.0999 71.4001 72.8999 72.5001Z" fill="white"/>
<path opacity="0.3273" d="M73.1 72.3001C74 73.5001 75 74.1001 75.6 73.7001C76.3 73.3001 75.8 72.3001 74.9 71.2001C74.2 70.1001 73.3 69.0001 72.5 69.6001C71.9 70.0001 72.4 71.4001 73.1 72.3001Z" fill="white"/>
<path opacity="0.3636" d="M73.2999 72.2002C73.9999 73.2002 74.8999 73.8002 75.4999 73.5002C76.0999 73.1002 75.4999 72.3002 74.8999 71.3002C74.2999 70.4002 73.4999 69.3002 72.7999 69.8002C72.1999 70.2002 72.7999 71.4002 73.2999 72.2002Z" fill="white"/>
<path opacity="0.4" d="M73.5 72.1001C74.1 72.9001 74.8 73.5001 75.3 73.2001C75.8 72.9001 75.2 72.1001 74.7 71.4001C74.2 70.7001 73.5 69.6001 72.9 70.1001C72.5 70.4001 73.1 71.5001 73.5 72.1001Z" fill="white"/>
<path d="M64.7 60.3999V61.6999L65.9 63.5999C67.4 63.3999 69.1 63.7999 70.9 64.8999C72.7 65.9999 74.4 67.4999 75.9 69.3999L77.0999 68.8999V67.5999L64.7 60.3999Z" fill="#F5A10C"/>
<path d="M145 14L64.7 60.4L77.1999 67.5L157.5 21.1L145 14Z" fill="#FFC329"/>
<path d="M77.2 67.5001V68.8001L157.5 22.4001V21.1001L77.2 67.5001Z" fill="#F6B000"/>
<path d="M144.4 24.7999C144.4 26.5999 141.9 28 138.9 28C135.9 28 133.4 26.5999 133.4 24.7999C133.4 24.5999 133.4 23.2 133.4 23.2H144.4C144.4 23.2 144.4 24.5999 144.4 24.7999Z" fill="#DC7102"/>
<path d="M144.4 23.2C144.4 24.9 141.9 26.4 138.9 26.4C135.9 26.4 133.4 25 133.4 23.2C133.4 21.4 135.9 20 138.9 20C142 20.1 144.4 21.5 144.4 23.2Z" fill="#DC7102"/>
<path d="M145.2 22.2001C145.2 24.2001 142.4 25.8001 138.9 25.8001C135.4 25.8001 132.6 24.2001 132.6 22.2001C132.6 20.2001 135.4 18.6001 138.9 18.6001C142.4 18.6001 145.2 20.2001 145.2 22.2001Z" fill="#F0ECE3"/>
<path d="M138.9 25.8002C135.4 25.8002 132.6 24.2002 132.6 22.2002C132.6 22.2002 132.6 23.0002 132.6 23.3002C132.6 25.3002 135.4 26.9002 138.9 26.9002C142.4 26.9002 145.2 25.3002 145.2 23.3002C145.2 23.0002 145.2 22.2002 145.2 22.2002C145.2 24.2002 142.4 25.8002 138.9 25.8002Z" fill="#D3CFC3"/>
<path d="M135 19.0002C134.5 18.9002 134.2 19.3002 134.2 19.9002C134.4 19.7002 134.7 19.6002 134.9 19.5002C134.9 19.3002 134.9 19.1002 135 19.0002Z" fill="#DC7102"/>
<path d="M135.5 19.1L138.8 21C138.9 21.1 139 21.1 139.1 21C139.2 20.9 139.3 20.8 139.3 20.7V20.6C139.3 20.3 139.1 20 138.9 19.9L135.5 17.9C134.9 17.5 134.3 17.5 133.9 17.7C133.5 17.9 133.2 18.5 133.2 19.2V20.7C133.5 20.3 133.8 20 134.2 19.7C134.2 19.1 134.8 18.7 135.5 19.1Z" fill="#F5A10C"/>
<path d="M139.6 19.5001L136.2 17.5001C135.6 17.1001 135 17.1001 134.6 17.3001C134.2 17.5001 133.9 17.7001 133.9 17.7001C134.3 17.5001 134.9 17.5001 135.5 17.9001L138.9 19.9001C139.2 20.0001 139.3 20.3001 139.3 20.6001V20.7001C139.3 20.8001 139.2 20.9001 139.1 21.0001C139.1 21.0001 139.7 20.6001 139.8 20.6001C139.9 20.5001 140 20.4001 140 20.3001V20.2001C140 19.9001 139.8 19.7001 139.6 19.5001Z" fill="#FFC329"/>
<path d="M116.2 41.1002C116.2 42.8002 113.7 44.3002 110.7 44.3002C107.7 44.3002 105.2 42.9002 105.2 41.1002C105.2 40.9002 105.2 39.5002 105.2 39.5002H116.2C116.2 39.6002 116.2 41.0002 116.2 41.1002Z" fill="#DC7102"/>
<path d="M116.2 39.6001C116.2 41.4001 113.7 42.8001 110.7 42.8001C107.7 42.8001 105.2 41.4001 105.2 39.6001C105.2 37.8001 107.7 36.4001 110.7 36.4001C113.7 36.4001 116.2 37.8001 116.2 39.6001Z" fill="#DC7102"/>
<path d="M116.9 38.5001C116.9 40.5001 114.1 42.1001 110.6 42.1001C107.1 42.1001 104.3 40.5001 104.3 38.5001C104.3 36.5001 107.1 34.9001 110.6 34.9001C114.1 34.9001 116.9 36.5001 116.9 38.5001Z" fill="#F0ECE3"/>
<path d="M110.7 42.1002C107.2 42.1002 104.4 40.5002 104.4 38.5002C104.4 38.5002 104.4 39.3002 104.4 39.6002C104.4 41.6002 107.2 43.2002 110.7 43.2002C114.2 43.2002 117 41.6002 117 39.6002C117 39.3002 117 38.5002 117 38.5002C116.9 40.5002 114.1 42.1002 110.7 42.1002Z" fill="#D3CFC3"/>
<path d="M106.7 35.3002C106.2 35.2002 105.9 35.6002 105.9 36.2002C106.1 36.0002 106.4 35.9002 106.6 35.8002C106.6 35.6002 106.7 35.4002 106.7 35.3002Z" fill="#DC7102"/>
<path d="M107.2 35.5001L110.5 37.4001C110.6 37.5001 110.7 37.5001 110.8 37.4001C110.9 37.3001 111 37.2001 111 37.1001V37.0001C111 36.7001 110.8 36.4001 110.6 36.3001L107.2 34.3001C106.6 33.9001 106 33.9001 105.6 34.1001C105.2 34.3001 104.9 34.9001 104.9 35.6001V37.1001C105.2 36.7001 105.5 36.4001 105.9 36.1001C105.9 35.4001 106.5 35.1001 107.2 35.5001Z" fill="#F5A10C"/>
<path d="M111.3 35.8001L107.9 33.8001C107.3 33.4001 106.7 33.4001 106.3 33.6001C105.9 33.8001 105.6 34.0001 105.6 34.0001C106 33.8001 106.6 33.8001 107.2 34.2001L110.6 36.2001C110.9 36.3001 111 36.6001 111 36.9001V37.0001C111 37.1001 110.9 37.2001 110.8 37.3001C110.8 37.3001 111.4 36.9001 111.5 36.9001C111.6 36.8001 111.7 36.7001 111.7 36.6001V36.5001C111.7 36.2001 111.6 36.0001 111.3 35.8001Z" fill="#FFC329"/>
<path d="M87.9 57.4C87.9 59.2 85.4 60.6 82.4 60.6C79.4 60.6 76.9 59.2 76.9 57.4C76.9 57.2 76.9 55.8 76.9 55.8H87.9C87.9 55.9 87.9 57.3 87.9 57.4Z" fill="#DC7102"/>
<path d="M87.9 55.9C87.9 57.7 85.4 59.0999 82.4 59.0999C79.4 59.0999 76.9 57.7 76.9 55.9C76.9 54.2 79.4 52.7 82.4 52.7C85.5 52.7 87.9 54.1 87.9 55.9Z" fill="#DC7102"/>
<path d="M88.7 54.7999C88.7 56.7999 85.9 58.4 82.4 58.4C78.9 58.4 76.1 56.7999 76.1 54.7999C76.1 52.7999 78.9 51.2 82.4 51.2C85.9 51.2 88.7 52.7999 88.7 54.7999Z" fill="#F0ECE3"/>
<path d="M82.4 58.4001C78.9 58.4001 76.1 56.8 76.1 54.8C76.1 54.8 76.1 55.6001 76.1 55.9001C76.1 57.9001 78.9 59.5 82.4 59.5C85.9 59.5 88.7 57.9001 88.7 55.9001C88.7 55.6001 88.7 54.8 88.7 54.8C88.7 56.8 85.9 58.4001 82.4 58.4001Z" fill="#D3CFC3"/>
<path d="M78.5 51.6C78 51.5 77.7 51.9 77.7 52.5C77.9 52.3 78.2 52.2 78.4 52.1C78.4 51.9 78.4 51.7 78.5 51.6Z" fill="#DC7102"/>
<path d="M78.9 51.7999L82.2 53.6999C82.3 53.7999 82.4 53.7999 82.5 53.6999C82.6 53.5999 82.7 53.4999 82.7 53.3999V53.2999C82.7 52.9999 82.5 52.6999 82.3 52.5999L78.9 50.5999C78.3 50.1999 77.7 50.1999 77.3 50.3999C76.9 50.5999 76.6 51.1999 76.6 51.8999V53.3999C76.9 52.9999 77.2 52.6999 77.6 52.3999C77.7 51.6999 78.2 51.3999 78.9 51.7999Z" fill="#F5A10C"/>
<path d="M83.0999 52.1L79.6999 50.1C78.9999 49.8 78.3999 49.8 77.9999 50C77.5999 50.2 77.2999 50.4 77.2999 50.4C77.6999 50.2 78.2999 50.2 78.8999 50.6L82.2999 52.6C82.5999 52.7 82.6999 53 82.6999 53.3V53.4C82.6999 53.5 82.5999 53.6 82.4999 53.7C82.4999 53.7 83.0999 53.3 83.1999 53.3C83.2999 53.2 83.3999 53.1 83.3999 53V52.9C83.4999 52.5 83.2999 52.3 83.0999 52.1Z" fill="#FFC329"/>
<path d="M156.9 41.6L154.7 47.1L155.7 46.5L157.8 41L156.9 41.6Z" fill="#333333"/>
<path d="M156.4 41.1001C155.9 42.1001 155.2 42.8001 154.4 43.3001C153.7 43.7001 151.3 45.1001 151.3 45.1001L154.8 47.1001L156.9 41.6001L156.4 41.1001Z" fill="#1A1A1A"/>
<path d="M157.4 40.5L156.4 41.1L156.9 41.6L157.8 41L157.4 40.5Z" fill="#474747"/>
<path d="M146.3 47.7001L144.2 53.1001L145.2 52.6001L147.3 47.1001L146.3 47.7001Z" fill="#333333"/>
<path d="M145.9 47.2002C145.4 48.2002 144.7 48.9002 143.9 49.4002C143.2 49.8002 140.8 51.2002 140.8 51.2002L144.3 53.2002L146.4 47.7002L145.9 47.2002Z" fill="#1A1A1A"/>
<path d="M146.9 46.6001L145.9 47.2001L146.3 47.7001L147.3 47.1001L146.9 46.6001Z" fill="#474747"/>
<path d="M135.8 53.7L133.7 59.1999L134.7 58.5999L136.8 53.2L135.8 53.7Z" fill="#333333"/>
<path d="M135.4 53.2C134.9 54.2 134.2 54.9 133.4 55.4C132.7 55.8 130.3 57.1999 130.3 57.1999L133.8 59.1999L135.9 53.7L135.4 53.2Z" fill="#1A1A1A"/>
<path d="M136.3 52.7L135.4 53.2L135.8 53.7L136.8 53.2L136.3 52.7Z" fill="#474747"/>
<path d="M125.3 59.8L123.2 65.3L124.2 64.7L126.3 59.2L125.3 59.8Z" fill="#333333"/>
<path d="M124.8 59.3C124.3 60.3 123.6 61 122.8 61.5C122.1 61.9 119.7 63.3 119.7 63.3L123.2 65.3L125.3 59.8L124.8 59.3Z" fill="#1A1A1A"/>
<path d="M125.8 58.7L124.8 59.3L125.3 59.8L126.3 59.2L125.8 58.7Z" fill="#474747"/>
<path d="M160.8 42.5001C160.4 41.7001 159.6 41.3001 159.2 41.6001C158.8 41.9001 123.5 62.2001 123.5 62.2001L125.1 65.0001C125.1 65.0001 160.3 44.7001 160.8 44.4001C161.3 44.1001 161.3 43.2001 160.8 42.5001Z" fill="#474747"/>
<path d="M125.1 64.9001C124.7 65.2001 123.9 64.7 123.5 64C123.1 63.2 123.1 62.4 123.5 62.1C123.9 61.8 124.7 62.3 125.1 63C125.6 63.8 125.6 64.6001 125.1 64.9001Z" fill="#2E2D29"/>
<path d="M125 64.6001C124.6 64.8001 124.1 64.5001 123.7 63.8001C123.3 63.2001 123.3 62.5001 123.7 62.3001C124.1 62.1001 124.6 62.4001 125 63.1001C125.3 63.8001 125.3 64.4001 125 64.6001Z" fill="black"/>
<path d="M158.6 43.7001C158.1 42.8001 157.3 42.4001 156.8 42.7001C156.7 42.8001 156.6 42.9001 156.5 43.1001C156.7 43.0001 156.9 42.9001 156.9 42.9001C157.4 42.6001 158.1 43.0001 158.6 43.7001C159 44.5001 159 45.3001 158.5 45.6001C158.5 45.6001 158.3 45.7001 158.1 45.8001C158.3 45.8001 158.4 45.8001 158.6 45.7001C159.1 45.5001 159.1 44.6001 158.6 43.7001Z" fill="#A19A87"/>
<path d="M159 43.5001C158.5 42.6001 157.7 42.2001 157.2 42.5001C157.1 42.6001 156.9 42.7001 156.9 42.7001C157.4 42.4001 158.2 42.9001 158.7 43.7001C159.2 44.6001 159.2 45.5001 158.7 45.8001C158.7 45.8001 158.9 45.7001 159 45.6001C159.5 45.3001 159.5 44.4001 159 43.5001Z" fill="#D3CFC3"/>
<path d="M148.1 49.8002C147.6 48.9002 146.8 48.5002 146.3 48.8002C146.2 48.9002 146.1 49.0002 146 49.2002C146.2 49.1002 146.4 49.0002 146.4 49.0002C146.9 48.6002 147.6 49.1002 148.1 49.8002C148.5 50.6002 148.5 51.4002 148 51.7002C148 51.7002 147.8 51.8002 147.6 51.9002C147.8 51.9002 147.9 51.9002 148.1 51.8002C148.6 51.6002 148.6 50.6002 148.1 49.8002Z" fill="#A19A87"/>
<path d="M148.5 49.6002C148 48.7002 147.2 48.3002 146.7 48.6002C146.6 48.7002 146.4 48.8002 146.4 48.8002C146.9 48.5002 147.7 49.0002 148.2 49.8002C148.7 50.7002 148.7 51.6002 148.2 51.9002C148.2 51.9002 148.4 51.8002 148.5 51.7002C148.9 51.4002 148.9 50.4002 148.5 49.6002Z" fill="#D3CFC3"/>
<path d="M137.6 55.8002C137.1 54.9002 136.3 54.5002 135.8 54.8002C135.7 54.9002 135.6 55.0002 135.5 55.2002C135.7 55.1002 135.9 55.0002 135.9 55.0002C136.4 54.7002 137.1 55.1002 137.6 55.8002C138 56.6002 138 57.4002 137.5 57.7002C137.5 57.7002 137.3 57.8002 137.1 57.9002C137.3 57.9002 137.4 57.9002 137.6 57.8002C138.1 57.6002 138.1 56.7002 137.6 55.8002Z" fill="#A19A87"/>
<path d="M137.9 55.7001C137.4 54.8001 136.6 54.4001 136.1 54.7001C136 54.8001 135.8 54.9001 135.8 54.9001C136.3 54.6001 137.1 55.1001 137.6 55.9001C138.1 56.8001 138.1 57.7001 137.6 58.0001C137.6 58.0001 137.8 57.9001 137.9 57.8001C138.4 57.4001 138.4 56.5001 137.9 55.7001Z" fill="#D3CFC3"/>
<path d="M127.1 61.9C126.6 61 125.8 60.6 125.3 60.9C125.2 61 125.1 61.1 125 61.3C125.2 61.2 125.4 61.1 125.4 61.1C125.8 60.8 126.6 61.2 127.1 61.9C127.5 62.7 127.5 63.5 127 63.8C127 63.8 126.8 63.9 126.6 64C126.8 64 126.9 64 127.1 63.9C127.6 63.7 127.6 62.8 127.1 61.9Z" fill="#A19A87"/>
<path d="M127.4 61.7001C126.9 60.8001 126.1 60.4001 125.6 60.7001C125.5 60.8001 125.3 60.9001 125.3 60.9001C125.8 60.6001 126.6 61.1001 127.1 61.9001C127.6 62.8001 127.6 63.7001 127.1 64.0001C127.1 64.0001 127.3 63.9001 127.4 63.8001C127.9 63.5001 127.9 62.6001 127.4 61.7001Z" fill="#D3CFC3"/>
<path d="M33.1 92.1999C33.2 92.1999 33.3 92.1999 33.3 92.0999C33.4 91.9999 33.3 91.8999 33.2 91.7999C32.1 91.0999 31.5 90.3999 31.5 89.5999C31.5 89.4999 31.4 89.3999 31.3 89.3999C31.2 89.3999 31.1 89.4999 31.1 89.5999C31.1 90.4999 31.8 91.3999 33.1 92.1999Z" fill="#1A191F"/>
<path d="M30.7 89.4998L31.7 90.1998C31.8 90.2998 31.9 90.2998 32 90.2998C32.1 90.2998 32.1 90.1998 32.1 90.0998V84.6998C32.1 84.3998 31.9 84.0998 31.7 83.9998L30.7 83.4998C30.6 83.3998 30.4 83.3998 30.4 83.4998C30.3 83.5998 30.2 83.6998 30.2 83.8998V88.4998C30.2 88.8998 30.4 89.2998 30.7 89.4998Z" fill="#454351"/>
<path d="M32.2 90.0998V84.6998C32.2 84.3998 32 84.0999 31.8 83.9999L30.8 83.4999C30.7 83.3999 30.5 83.3999 30.5 83.4999C30.5 83.4999 30.8 83.2999 30.9 83.2999C31 83.1999 31.1 83.1999 31.2 83.2999L32.2 83.7999C32.4 83.8999 32.6 84.1999 32.6 84.4999V89.8999C32.6 89.9999 32.6 90.0998 32.5 90.0998C32.4 90.0998 32.1 90.2999 32.1 90.2999C32.2 90.2999 32.2 90.1998 32.2 90.0998Z" fill="#2B2A33"/>
<path d="M31.2999 83.7999C31.3999 83.7999 31.4999 83.6999 31.4999 83.5999C31.4999 83.3999 31.4999 83.1999 31.6999 83.1999C31.7999 83.0999 32.0999 83.0999 33.0999 83.5999C33.1999 83.6999 33.2999 83.5999 33.3999 83.4999C33.4999 83.3999 33.3999 83.2999 33.2999 83.1999C32.4999 82.6999 31.8999 82.5999 31.4999 82.7999C31.1999 82.8999 31.0999 83.1999 31.0999 83.5999C30.9999 83.5999 31.0999 83.7999 31.2999 83.7999Z" fill="#1A191F"/>
<path d="M32.2999 93C32.5999 92.8 32.8999 92.3 32.8999 91.9V81.9C32.8999 81.5 32.5999 81.3 32.2999 81.5L31.5999 81.9C31.4999 82 31.3999 81.9 31.3999 81.7L31.4999 80.8C31.5999 79.8 32.2999 78.7 33.0999 78.3L48.7999 69.2V88.7L36.6999 95.7L32.2999 93ZM34.3999 81.9V89C34.3999 89.4 34.5999 89.5 34.8999 89.4L41.1999 85.7C41.4999 85.5 41.6999 85.1 41.6999 84.8V77.7C41.6999 77.3 41.4999 77.2 41.1999 77.3L34.8999 81C34.5999 81.1 34.3999 81.5 34.3999 81.9Z" fill="#1D1D1F"/>
<path d="M32.9 81.8999V91.8999C32.9 92.2999 32.6 92.7999 32.3 92.9999L32.1 92.8999C32.4 92.6999 32.7 92.1999 32.7 91.7999V81.7999C32.7 81.5999 32.7 81.4999 32.6 81.3999C32.8 81.3999 32.9 81.5999 32.9 81.8999Z" fill="#EB1C22"/>
<path d="M34.3999 89.1999C34.4999 89.1999 34.4999 89.1999 34.3999 89.1999L40.7999 85.4999C41.0999 85.2999 41.2999 84.8999 41.2999 84.5999V77.4999C41.2999 77.3999 41.2999 77.3999 41.2999 77.2999C41.4999 77.1999 41.6999 77.3999 41.6999 77.6999V84.7999C41.6999 85.1999 41.4999 85.5999 41.1999 85.6999L34.8999 89.3999C34.6999 89.4999 34.4999 89.3999 34.3999 89.1999Z" fill="#1A191F"/>
<path opacity="0.4" d="M34.8999 80.9999L41.1999 77.2999C41.4999 77.0999 41.6999 77.2999 41.6999 77.6999V84.7999C41.6999 85.1999 41.4999 85.5999 41.1999 85.6999L34.8999 89.3999C34.5999 89.5999 34.3999 89.3999 34.3999 88.9999V81.8999C34.3999 81.4999 34.5999 81.0999 34.8999 80.9999Z" fill="#1B8CD4"/>
<path d="M48.6 106.2L33.6 97.6L36.8 95.6L50.1 88L65.2 96.7L48.6 106.2Z" fill="black"/>
<path d="M65.7 79.3V96L65.2 96.7L50.1 88V70.2L65.7 79.3Z" fill="#1D1D1F"/>
<path d="M30.7 100.1C30.7 100.4 30.9 100.6 31.2 100.8V110.3C30.8 110.1 30.7 109.8 30.7 109.6C30.7 109.3 30.7 100.1 30.7 100.1Z" fill="#454351"/>
<path d="M31.4 100.7V101.6V110.2L31.2 110.3V100.8L31.4 100.7Z" fill="#232229"/>
<path d="M31 105.7C31 105.7 30.7 105.4 30.7 104.9C30.7 104.4 30.7 100.7 30.7 100.7C30.7 101 31 101.3 31 101.3V105.7Z" fill="#232229"/>
<path d="M46.5999 109.5V119L31.3999 110.2V100.7L46.5999 109.5Z" fill="#4A4857"/>
<path d="M46.8 109.6L46.6 109.7V109.5L46.8 109.6Z" fill="#1A191F"/>
<path d="M31.4999 110.3L31.3999 110.2V100.7L31.4999 100.8V110.3Z" fill="#1A191F"/>
<path d="M44.5999 108.5L43.5999 112.1C43.3999 112.9 42.6999 113.2 41.7999 112.8C40.7999 112.4 39.8999 111.9 39.2999 111.5L39.2 111.4C38.1 110.7 37.2 110.2 36.5 109.7C35.6 109 34.9 107.9 34.7 106.9L33.7 102.1L44.5999 108.5Z" fill="#B0B0B3"/>
<path d="M43.9 108.5L43 111.5C42.8 112.1 42.3 112.3 41.6 112C40.6 111.6 39.7 111.1 39 110.7C38 110.1 37.2 109.6 36.4 109C35.7 108.5 35.2 107.7 35 106.9L34.1 102.8L43.9 108.5Z" fill="black"/>
<path d="M36.2 108.8C36 108.6 35.8 108.4 35.7 108.2L42.5999 112.2C42.3999 112.3 42.2999 112.3 42.0999 112.2L36.2 108.8Z" fill="#454351"/>
<path d="M43.0999 111.2V111.4L35.0999 106.9L34.9999 106.5L43.0999 111.2Z" fill="#454351"/>
<path d="M43 111.7C43 111.8 42.8999 111.9 42.7999 111.9L35.4 107.6C35.3 107.5 35.3 107.3 35.2 107.2L43 111.7Z" fill="#454351"/>
<path d="M43.7999 108.8L43.6999 109.1L34.3999 103.7L34.2999 103.3L43.7999 108.8Z" fill="#454351"/>
<path d="M43.6999 109.4L43.5999 109.7L34.5999 104.5L34.4999 104.1L43.6999 109.4Z" fill="#454351"/>
<path d="M43.5 110L43.4 110.3L34.7999 105.3L34.7 104.9L43.5 110Z" fill="#454351"/>
<path d="M43.2999 110.6L43.1999 110.9L34.8999 106.1V105.7L43.2999 110.6Z" fill="#454351"/>
<path d="M45.4 109.6L45.9 109.9C46 110 46.2 110.2 46.2 110.3V114.1C46.2 114.3 46.0999 114.4 46.0999 114.4C45.9999 114.5 45.8999 114.4 45.7999 114.4L44.5999 113.7C44.3999 113.6 44.2 113.2 44.2 112.9L45.2 109.6C45.2 109.5 45.2999 109.5 45.2999 109.5C45.1999 109.5 45.3 109.6 45.4 109.6Z" fill="#EBCB9C"/>
<path d="M45.9999 114.5C46.0999 114.5 46.0999 114.3 46.0999 114.2V110.4C46.0999 110.2 45.9999 110 45.7999 110L45.2999 109.7C45.1999 109.6 45.0999 109.6 44.9999 109.7L44.8999 109.8C44.9999 109.6 45.1999 109.5 45.2999 109.5H45.3999L45.8999 109.8C45.9999 109.9 46.1999 110.1 46.1999 110.2V114V114.1C46.1999 114.4 45.8999 114.4 45.6999 114.4C45.8999 114.5 45.9999 114.5 45.9999 114.5Z" fill="#E6B673"/>
<path d="M44.5 112.6C44.5 113.1 44.8 113.7 45.3 113.9C45.7 114.1 46.1 113.9 46.1 113.5C46.1 113.1 45.8 112.4 45.3 112.2C44.8 111.9 44.5 112.1 44.5 112.6Z" fill="#F5E8D4"/>
<path d="M45 111C45 111.3 45.2 111.7 45.5 111.9C45.8 112.1 46 111.9 46 111.6C46 111.3 45.8 110.9 45.5 110.7C45.2 110.6 45 110.7 45 111Z" fill="#F5E8D4"/>
<path d="M45.4 110.3L45.9 110.6C46 110.6 46 110.6 46 110.5V110.3C46 110.2 45.9 110.1 45.9 110.1L45.4 109.8C45.3 109.8 45.3 109.8 45.3 109.9V110.1C45.2 110.2 45.3 110.3 45.4 110.3Z" fill="#EB5B4E"/>
<path d="M32.4 102.1L31.9 101.8C31.8 101.7 31.6 101.8 31.6 101.9V105.7C31.6 106 31.8 106.4 32.1 106.5L33.3 107.2C33.5 107.3 33.7 107.2 33.7 106.9L32.7 102.5C32.7 102.4 32.5 102.2 32.4 102.1Z" fill="#EBCB9C"/>
<path d="M33.7 107L32.7 102.6C32.7 102.4 32.5 102.2 32.3 102.1L31.8 101.8C31.7 101.7 31.6 101.8 31.6 101.8C31.6 101.7 31.8 101.6 31.9 101.6C32 101.6 32 101.6 32 101.6L32.5 101.9C32.7 102 32.8 102.2 32.9 102.4L33.9 106.8C33.9 106.9 33.9 107 33.9 107C33.8 107.2 33.7 107.3 33.5 107.3C33.6 107.3 33.7 107.2 33.7 107Z" fill="#E6B673"/>
<path d="M33.2999 106.2C33.2999 106.7 33 106.9 32.5 106.6C32.1 106.4 31.7 105.8 31.7 105.3C31.7 104.8 32 104.6 32.5 104.9C33 105.1 33.2999 105.7 33.2999 106.2Z" fill="#F5E8D4"/>
<path d="M32.7999 104C32.7999 104.3 32.5999 104.4 32.2999 104.3C31.9999 104.1 31.7999 103.8 31.7999 103.4C31.7999 103.1 31.9999 103 32.2999 103.1C32.5999 103.3 32.7999 103.7 32.7999 104Z" fill="#F5E8D4"/>
<path d="M32.3999 102.9L31.8999 102.6C31.7999 102.6 31.7999 102.5 31.7999 102.4V102.2C31.7999 102.1 31.8999 102.1 31.8999 102.1L32.3999 102.4C32.4999 102.4 32.4999 102.5 32.4999 102.6V102.8C32.4999 102.9 32.4999 102.9 32.3999 102.9Z" fill="#EB5B4E"/>
<path d="M46.5999 116.3V119L46.4999 119.1V117L46.5999 116.3Z" fill="#232229"/>
<path d="M31.2999 110.4L46.4999 119.1V117L31.2999 108.2V110.4Z" fill="#4A4857"/>
<path d="M31.2999 108.2L46.4999 117L46.5999 116.3L31.4999 107.5L31.2999 108.2Z" fill="#5F5C6B"/>
<path d="M35.2999 112.1L42.4999 116.2C42.6999 116.3 42.8999 116.2 42.8999 115.9C42.8999 115.6 42.6999 115.3 42.4999 115.2L35.2999 111.1C35.0999 111 34.8999 111.1 34.8999 111.4C34.8999 111.7 35.0999 112 35.2999 112.1Z" fill="black"/>
<path d="M44.6 117C44.6 117.4 44.9 117.9 45.3 118.1C45.7 118.3 46 118.1 46 117.7C46 117.3 45.7 116.8 45.3 116.6C44.9 116.4 44.6 116.5 44.6 117Z" fill="#2B2A33"/>
<path d="M44.7 117C44.7 117.3 44.9 117.7 45.2 117.9C45.5 118.1 45.7 117.9 45.7 117.6C45.7 117.3 45.5 116.9 45.2 116.7C45 116.6 44.7 116.7 44.7 117Z" fill="#F5E8D4"/>
<path d="M33.1999 110.4C33.1999 110.8 32.8999 111 32.4999 110.8C32.0999 110.6 31.7999 110.1 31.7999 109.7C31.7999 109.3 32.0999 109.1 32.4999 109.3C32.8999 109.5 33.1999 110 33.1999 110.4Z" fill="#2B2A33"/>
<path d="M33.1 110.3C33.1 110.6 32.9 110.8 32.6 110.6C32.3 110.4 32.1 110 32.1 109.7C32.1 109.4 32.3 109.2 32.6 109.4C32.8 109.6 33.1 110 33.1 110.3Z" fill="#F5E8D4"/>
<path d="M31.1999 99.3001L50.0999 88.4001L68.0999 98.8001L64.8999 100.6L63.8999 100L58.8999 102.9L59.8999 103.5L49.1999 109.7C48.4999 110.1 47.2999 110.1 46.5999 109.7L46.7999 109.6L46.6999 109.5L31.4999 100.7L31.2999 100.8C30.8999 100.6 30.7999 100.3 30.7999 100.1C30.7999 99.9001 30.7999 99.5001 31.1999 99.3001Z" fill="#5F5C6B"/>
<path d="M30.9999 99.7002C31.0999 99.8002 31.2999 100 31.4999 100.2L31.5999 100.3L46.5999 109C47.2999 109.4 48.4999 109.4 49.1999 109L67.2999 98.5002L68.0999 98.9002L66.9999 99.6002H66.3999L49.1999 109.5C48.4999 109.9 47.3999 109.9 46.6999 109.5L31.5999 100.8C31.1999 100.6 31.0999 100.3 31.0999 100.1C30.8999 99.8002 30.8999 99.7002 30.9999 99.7002Z" fill="#454351"/>
<path d="M59.3999 108.6C59.6999 109.1 59.8999 109.8 59.8999 110.6V111.5L55.3999 108.9L58.3999 107.2L59.3999 108.6Z" fill="black"/>
<path d="M58.9999 107.3L60.1999 109.1C60.4999 109.6 60.6999 110.3 60.6999 111.1V112.6L60.1999 112.3C59.9999 112.2 59.8999 112 59.8999 111.7V110.5C59.8999 109.7 59.6999 109 59.3999 108.5L58.3999 107.1L58.8999 106.8V107.3H58.9999Z" fill="#2B2A33"/>
<path d="M50.3999 111.2C51.1999 109.9 52.1999 108.9 53.0999 108.3C53.6999 107.9 54.2999 107.8 54.8999 107.8C55.0999 107.8 55.2999 107.8 55.4999 107.8C55.8999 107.8 56.1999 107.9 56.4999 108.1L58.3999 109.2C57.5999 108.7 56.4999 108.9 55.4999 109.5C54.3999 110.1 53.3999 111.2 52.5999 112.6C50.9999 115.4 50.9999 118.4 52.5999 119.3L50.6999 118.2C49.9999 117.8 49.6999 117 49.5999 116.9C48.8999 115.6 49.1999 113.4 50.3999 111.2Z" fill="#1A1A1A"/>
<path d="M52.5999 112.6C53.3999 111.2 54.3999 110.1 55.4999 109.5C56.5999 108.9 57.5999 108.7 58.3999 109.2C58.8999 109.5 59.3999 110.3 59.5999 111.1C59.6999 111.6 54.3999 119.4 54.3999 119.4C53.7999 119.5 52.8999 119.4 52.5999 119.3C50.9999 118.3 50.9999 115.3 52.5999 112.6Z" fill="#292929"/>
<path d="M53.1 119.1C54.6 120 57.1 118.6 58.6 115.9C60.1 113.3 60.1 110.4 58.6 109.5C57.1 108.6 54.6 110 53.1 112.7C51.6 115.4 51.6 118.3 53.1 119.1Z" fill="#1A1A1A"/>
<path d="M54.0999 117.4C55.0999 117.9 56.5999 117.1 57.4999 115.4C58.4999 113.8 58.4999 112 57.4999 111.4C56.4999 110.9 54.9999 111.7 54.0999 113.4C53.1999 115 53.1999 116.8 54.0999 117.4Z" fill="black"/>
<path d="M53.9999 117.6C54.9999 118.2 56.6999 117.2 57.6999 115.5C58.6999 113.7 58.6999 111.8 57.6999 111.2C56.6999 110.6 54.9999 111.6 53.9999 113.3C52.9999 115.1 52.9999 117 53.9999 117.6ZM54.0999 113.4C54.3999 112.9 54.7999 112.4 55.1999 112.1V113.5C55.0999 113.6 54.9999 113.7 54.8999 113.9L53.7999 114.1C53.8999 113.8 53.9999 113.6 54.0999 113.4ZM57.8999 111.7L56.7999 112.8C56.6999 112.8 56.5999 112.7 56.4999 112.7V111.3C56.8999 111.2 57.2999 111.2 57.5999 111.4C57.6999 111.5 57.7999 111.6 57.8999 111.7ZM57.6999 115L56.9999 114.3C56.9999 114.2 57.0999 114 57.0999 113.9L58.1999 112.8C58.2999 113.5 58.0999 114.3 57.6999 115ZM54.9999 117.5L55.6999 116C55.7999 116 55.8999 115.9 55.9999 115.8L56.6999 116.5C56.0999 117.1 55.4999 117.4 54.9999 117.5ZM53.3999 115.7L54.4999 115.5C54.4999 115.6 54.5999 115.7 54.5999 115.8L53.8999 117.3C53.5999 116.9 53.3999 116.3 53.3999 115.7Z" fill="#D1CEBA"/>
<path d="M54.8998 113.2V112.3C54.9998 112.2 55.0998 112.1 55.1998 112V113.4C55.0998 113.5 54.9998 113.6 54.8998 113.8L53.7998 114C53.7998 113.9 53.8998 113.8 53.8998 113.7L54.5998 113.6C54.6998 113.5 54.7998 113.3 54.8998 113.2Z" fill="#ADAA99"/>
<path d="M54.2998 115.5L54.5998 115.4C54.5998 115.5 54.6998 115.6 54.6998 115.7L53.9998 117.2C53.8998 117.1 53.7998 117 53.6998 116.9L54.2998 115.5Z" fill="#ADAA99"/>
<path d="M58.2999 112.8C58.2999 113.5 58.0999 114.2 57.7999 115L57.4999 114.7C57.7999 114.2 57.8999 113.6 57.9999 113.1L58.2999 112.8Z" fill="#ADAA99"/>
<path d="M56.3999 116.3L55.8999 115.8C55.8999 115.8 55.9999 115.8 55.9999 115.7L56.6999 116.4C56.0999 117 55.4999 117.3 54.9999 117.4L55.1999 117.1C55.4999 117 55.9999 116.7 56.3999 116.3Z" fill="#ADAA99"/>
<path d="M57.3999 111.3C57.4999 111.3 57.4999 111.4 57.5999 111.4C57.6999 111.5 57.7999 111.6 57.8999 111.7L56.7999 112.8C56.6999 112.8 56.5999 112.7 56.4999 112.7V112.5L57.5999 111.5C57.4999 111.4 57.3999 111.4 57.3999 111.3Z" fill="#ADAA99"/>
<path d="M56.1028 114.575C56.2409 114.336 56.2365 114.075 56.093 113.992C55.9495 113.909 55.7213 114.036 55.5832 114.275C55.4451 114.514 55.4494 114.775 55.5929 114.858C55.7364 114.941 55.9647 114.814 56.1028 114.575Z" fill="#222222"/>
<path d="M55.6999 113.6C55.7999 113.6 55.8999 113.6 55.9999 113.4C56.0999 113.3 56.0999 113.1 55.9999 113.1C55.8999 113.1 55.7999 113.1 55.6999 113.3C55.5999 113.5 55.5999 113.6 55.6999 113.6Z" fill="#222222"/>
<path d="M56.4 114.6C56.3 114.6 56.2 114.8 56.2 114.9C56.2 115 56.3 115.1 56.4 115.1C56.5 115.1 56.5999 114.9 56.5999 114.8C56.4999 114.7 56.5 114.6 56.4 114.6Z" fill="#222222"/>
<path d="M55.5 115.3C55.5 115.2 55.4 115.2 55.3 115.2C55.2 115.3 55.1 115.4 55.1 115.5C55.1 115.6 55.2 115.6 55.3 115.6C55.5 115.6 55.5 115.4 55.5 115.3Z" fill="#222222"/>
<path d="M55.0999 114.7C55.1999 114.6 55.1999 114.4 55.1999 114.4C55.1999 114.3 54.9999 114.3 54.8999 114.5C54.7999 114.6 54.7999 114.8 54.7999 114.8C54.8999 114.8 54.9999 114.8 55.0999 114.7Z" fill="#222222"/>
<path d="M56.4999 113.6C56.4999 113.7 56.4999 113.8 56.5999 113.8C56.6999 113.8 56.7999 113.7 56.8999 113.6C56.8999 113.5 56.8999 113.4 56.7999 113.4C56.5999 113.4 56.4999 113.5 56.4999 113.6Z" fill="#222222"/>
<path d="M46.6 109.7C47.3 110.1 48.5 110.1 49.2 109.7L68.1 98.8V108.3L60.7 112.5V111C60.7 110.2 60.5 109.5 60.2 109L59 107.2V106.8L52.5 110.6L51.4 112.7C50.8 113.9 50.5 115.1 50.5 116.2V118.4L49.2 119.1C48.5 119.5 47.3 119.5 46.6 119.1V109.7Z" fill="#454351"/>
<path d="M59.9 103.5L58.9 103L63.9 100.1V109L61.2 110.6V105.5L59.9 106.3V103.5Z" fill="#1A1A1F"/>
<path d="M64.9 100.7V109.6L63.9 109V100.1L64.9 100.7Z" fill="#2B2A33"/>
<path d="M61.2001 109.2L65.0001 107L64.9001 106.5L61.2001 108.6V109.2Z" fill="#454351"/>
<path d="M61.2001 106.1L64.9001 104V103.4L61.2001 105.5V106.1Z" fill="#454351"/>
<path d="M63.9001 109L64.9001 109.6L61.2001 111.7V110.6L63.9001 109Z" fill="#5F5C6B"/>
<path d="M63.9001 106L64.9001 106.5L61.2001 108.6V107.5L63.9001 106Z" fill="#5F5C6B"/>
<path d="M63.9 102.9L64.9 103.4L59.9 106.3V105.2L63.9 102.9Z" fill="#5F5C6B"/>
<path d="M48.3 110.7V113.7C48.3 115 46.9 114.9 46.9 114.9V110.5C47.2 110.7 47.8 110.7 48.3 110.7Z" fill="#232229"/>
<path d="M52.4 110.6H52.6V107.8H52.4V110.6Z" fill="#1A191F"/>
<path d="M58.9 106.9H59V104.1H58.9V106.9Z" fill="#1A191F"/>
<path d="M44.2 90.5L58.7 98.8V96.9L44.2 88.5V90.5Z" fill="#4D4848"/>
<path d="M44.2 88.4999L58.7 96.8999L65 93.2999L50.5 84.8999L44.2 88.4999Z" fill="#332E2E"/>
<path d="M55.4 100.7C53.5 101.8 52 104.5 52 106.6V107.3L58.7 103.4V98.7L55.4 100.7Z" fill="#292424"/>
<path d="M40.9 92.3999L55.4 100.7C53.5 101.8 52 104.5 52 106.6V107.3L37.5 98.9999V98.2999C37.5 96.1999 39 93.4999 40.9 92.3999Z" fill="#4D4848"/>
<path d="M44.2 90.5L58.7 98.8L55.4 100.7L40.9 92.4L44.2 90.5Z" fill="#292424"/>
<path d="M48.3 94.2999L43.8 96.8999C43.7 96.9999 43.6 96.9999 43.5 96.8999C43.4 96.8999 43.4 96.7999 43.4 96.5999V96.1999C43.4 95.7999 43.7 95.1999 44 94.8999C44.8 94.1999 45.5 93.7999 46.2 93.4999C47 93.1999 48 92.7999 48.8 92.3999L48.3 94.2999Z" fill="#4D4545"/>
<path d="M43.3 96.6V96.2C43.3 95.8 43.6 95.2 43.9 94.9C44.7 94.2 45.4 93.8 46.1 93.5C46.9 93.2 47.9 92.8 48.7 92.4L44.9 90C44.1 90.5 43.1 90.8 42.3 91.1C41.5 91.4 40.8 91.8 40.1 92.5C39.7 92.8 39.5 93.4 39.5 93.8V94.2C39.5 94.3 39.6 94.4 39.6 94.5C39.7 94.5 43.5 96.8 43.5 96.8C43.4 96.8 43.3 96.7 43.3 96.6Z" fill="#393333"/>
<path d="M43.4001 96.9C43.4001 96.9 40.8 95.4 39.8 94.8C39.8 95.1 39.9 95.3 40 95.3L43.9001 97.6L43.6 96.8C43.6 96.9 43.5001 96.9 43.4001 96.9Z" fill="#1F1C1C"/>
<path d="M49.6 86.1C49.3 86.2 49 86.5 48.8 86.9C48.6 87.4 48.4001 87.9 48.2001 88.5C47.9001 89.4 47.8001 90.1 47.7001 90.7C47.7001 91.1 47.6 91.5 47.5 92L47.3 92.9C47.8 92.7 48.3001 92.5 48.7001 92.2L50.1 86.8C50.2 86.4 50.1001 86.1 49.9001 86C49.9001 86.1 49.8 86.1 49.6 86.1Z" fill="#4D4545"/>
<path d="M47.8 90.8C47.9 90.2 48 89.4999 48.3 88.5999C48.5 87.9999 48.7 87.3999 48.9 86.9999C49.1 86.5999 49.4 86.2999 49.7 86.1999C49.8 86.0999 50 86.1999 50.1 86.1999C50.1 86.1999 46.4 84.1 46.2 83.9C46.1 83.8 46 83.8 45.8 83.9C45.5 84 45.2 84.2999 45 84.6999C44.8 85.1999 44.6 85.7 44.4 86.3C44.1 87.2 44 87.8999 43.9 88.4999C43.9 88.8999 43.8 89.3 43.7 89.8L43.5 90.6999L47.4 92.9999L47.6 92.0999C47.7 91.5999 47.8 91.2 47.8 90.8Z" fill="#292424"/>
<path d="M43.8 96.7999C43.8 97.1999 43.9 97.4999 44.1 97.5999C44.7 96.6999 45.5 95.8999 46.3 95.3999L43.8 96.7999Z" fill="#292424"/>
<path d="M56.0999 98.7999L51.5999 101.4C51.4999 101.5 51.3999 101.5 51.2999 101.4C51.1999 101.4 51.2 101.3 51.2 101.1V100.7C51.2 100.3 51.4999 99.6999 51.7999 99.3999C52.5999 98.6999 53.3 98.2999 54 97.9999C54.8 97.6999 55.7999 97.2999 56.5999 96.8999L56.0999 98.7999Z" fill="#4D4545"/>
<path d="M51.0999 101.1V100.7C51.0999 100.3 51.4 99.6999 51.7 99.3999C52.5 98.6999 53.2 98.2999 53.9 97.9999C54.7 97.6999 55.7 97.2999 56.5 96.8999L52.5999 94.5999C51.7999 95.0999 50.8 95.3999 50 95.6999C49.2 95.9999 48.4999 96.3999 47.7999 97.0999C47.3999 97.3999 47.2 97.9999 47.2 98.3999V98.7999C47.2 98.8999 47.2999 98.9999 47.2999 99.0999C47.3999 99.0999 51.2 101.4 51.2 101.4C51.2 101.4 51.0999 101.3 51.0999 101.1Z" fill="#393333"/>
<path d="M51.2999 101.4C51.2999 101.4 48.7 99.9 47.7 99.3C47.7 99.6 47.8 99.8 47.9 99.8L51.7999 102.1L51.5 101.3C51.5 101.4 51.3999 101.4 51.2999 101.4Z" fill="#1F1C1C"/>
<path d="M57.5 90.6999C57.2 90.7999 56.9 91.0999 56.7 91.4999C56.5 91.9999 56.2999 92.4999 56.0999 93.0999C55.7999 93.9999 55.6999 94.6999 55.5999 95.2999C55.5999 95.6999 55.5 96.0999 55.4 96.5999L55.2 97.4999C55.7 97.2999 56.1999 97.0999 56.5999 96.7999L58 91.3999C58.1 90.9999 57.9999 90.6999 57.7999 90.5999C57.6999 90.5999 57.6 90.5999 57.5 90.6999Z" fill="#423C3C"/>
<path d="M55.6999 95.3C55.7999 94.7 55.8999 93.9999 56.1999 93.0999C56.3999 92.4999 56.5999 91.8999 56.7999 91.4999C56.9999 91.0999 57.2999 90.7999 57.5999 90.6999C57.6999 90.5999 57.8999 90.6999 57.9999 90.6999C57.9999 90.6999 54.2999 88.6 54.0999 88.4C53.9999 88.3 53.8999 88.3 53.6999 88.4C53.3999 88.5 53.0999 88.7999 52.8999 89.1999C52.6999 89.6999 52.4999 90.2 52.2999 90.8C51.9999 91.7 51.8999 92.3999 51.7999 92.9999C51.7999 93.3999 51.6999 93.8 51.5999 94.3L51.3999 95.1999L55.2999 97.4999L55.4999 96.5999C55.5999 96.1999 55.5999 95.7 55.6999 95.3Z" fill="#292424"/>
<path d="M51.6 101.4C51.6 101.8 51.7 102.1 51.9 102.2C52.5 101.3 53.3 100.5 54.1 100L51.6 101.4Z" fill="#292424"/>
<path d="M37.9 93.3L39.2 93.9L38.8 94.6L37.5 94L37.9 93.3Z" fill="black"/>
<path d="M36.7 91.8001L36.7999 91.6001C37.5999 92.0001 39.1999 92.8001 40.2999 93.5001C40.9999 93.9001 41.2999 94.1001 41.2999 94.2001L41.2 94.4001L36.7 91.8001Z" fill="#4E4646"/>
<path d="M40.2999 93.6001V93.8001L36.3999 91.6001L36.4999 91.4001L40.2999 93.6001Z" fill="#615858"/>
<path d="M39.4 93.0002C39.7 93.2002 39.8 93.3002 39.6 93.2002L41 94.0002C41 94.0002 41 94.0002 40.9 94.0002C40.7 93.9002 40.6 93.8002 40.4 93.7002L36.6 91.5002C36.7 91.5002 36.8 91.6002 37 91.6002C37 91.6002 37 91.6002 37.1 91.6002L38.5 92.4002C38.6 92.5002 39.1 92.8002 39.4 93.0002Z" fill="#342E2E"/>
<path d="M42.2999 94.5001L41.8999 95.2001C41.8999 95.2001 41.6999 95.2001 41.2999 95.0001C40.1999 94.5001 38.0999 93.4001 36.6999 92.5001C35.7999 92.0001 35.2999 91.7001 35.3999 91.6001L35.7999 90.9001C35.7999 90.9001 36.1999 91.3001 37.0999 91.8001C38.5999 92.7001 40.6999 93.8001 41.6999 94.3001C41.9999 94.5001 42.1999 94.6001 42.2999 94.5001Z" fill="#5E5555"/>
<path d="M37.1 92.8001C37.8 93.2001 38.7 93.7001 39.5 94.1001L39.9 93.4001C39.1 93.0001 38.3 92.5001 37.5 92.1001L37.1 92.8001Z" fill="#736D6D"/>
<path d="M40.8999 93.7002C42.3999 94.6002 42.6999 94.8002 41.5999 94.3002C40.4999 93.8002 38.3999 92.7002 36.9999 91.8002C35.4999 90.9002 35.1999 90.7002 36.2999 91.2002C37.2999 91.7002 39.3999 92.8002 40.8999 93.7002ZM40.9999 93.9002C41.7999 94.3002 41.5999 94.1002 40.4999 93.4002C39.3999 92.8002 37.7999 91.9002 36.9999 91.5002C36.1999 91.1002 36.4999 91.4002 37.5999 92.0002C38.4999 92.7002 39.9999 93.5002 40.9999 93.9002C40.8999 93.9002 40.8999 93.9002 40.9999 93.9002C40.8999 93.9002 40.8999 93.9002 40.9999 93.9002C40.8999 93.9002 40.8999 93.9002 40.9999 93.9002Z" fill="#342E2E"/>
<path d="M49.0999 102.8L48.7999 103C48.4 103.2 47.9 103.2 47.5 103L32 94.0002C31.8 93.9002 31.7 93.8002 31.7 93.6002C31.7 93.5002 31.8 93.3002 32 93.2002L32.4 93.0002C32.4 93.0002 32.9 92.7002 33 92.0002L49.7999 101.7C49.7999 101.8 49.6999 102 49.5999 102.3C49.3999 102.5 49.2999 102.7 49.0999 102.8Z" fill="#474040"/>
<path opacity="0.2" d="M32.9 92.0002L49.7 101.7C49.7 101.8 49.6 102 49.5 102.2L32.7 92.5002C32.8 92.4002 32.9 92.2002 32.9 92.0002Z" fill="black"/>
<path d="M34.1 92.9001C34.1 93.8001 40.3 97.3001 40.3 96.5001C40.3 95.6001 38.9 94.1001 37.2 93.1001C35.5 92.1001 34.1 92.0001 34.1 92.9001Z" fill="#383232"/>
<path d="M31.0999 93.5001L32.0999 92.9001L32.2999 93.0001L31.8999 93.2001C31.6999 93.3001 31.5999 93.4001 31.5999 93.6001C31.5999 93.7001 31.6999 93.9001 31.8999 94.0001L47.3999 103C47.7999 103.2 48.2999 103.2 48.6999 103L48.9999 102.8H49.0999L49.2999 102.9L48.2999 103.5C48.0999 103.6 47.7999 104 47.7999 104.3L30.9999 94.5001C30.6999 94.4001 30.6999 94.0001 30.7999 93.8001C30.8999 93.6001 30.9999 93.6001 31.0999 93.5001Z" fill="#1692D1"/>
<path d="M50 91.7002V101.7C50 102.1 49.7 102.6 49.4 102.8L49.2 102.7C49.5 102.5 49.7999 102 49.7999 101.6V91.6002C49.7999 91.4002 49.8 91.3002 49.7 91.2002C49.8 91.3002 50 91.4002 50 91.7002Z" fill="#1692D1"/>
<path d="M31.1999 99.9002L46.5999 108.8C46.9999 109 47.3999 109.1 47.8999 109.1V109.4C47.3999 109.4 46.9999 109.3 46.5999 109.1L31.5999 100.4L31.4999 100.3C31.0999 100 30.8999 99.6002 30.7999 99.5002C30.9999 99.7002 31.1999 99.9002 31.1999 99.9002Z" fill="#115B82"/>
<path d="M30.6999 94.3003C30.6999 94.1003 30.7999 93.9003 30.8999 93.8003C30.6999 94.0003 30.7999 94.4003 31.0999 94.5003L46.6999 103.6C46.9999 103.8 47.4999 103.9 47.8999 103.9H47.9999C47.8999 104 47.8999 104.2 47.8999 104.3V109.1C47.3999 109.1 46.9999 109 46.5999 108.8L31.1999 99.9003C31.1999 99.9003 30.9999 99.8003 30.7999 99.6003C30.5999 99.4003 30.6999 99.2003 30.6999 99.2003V94.3003Z" fill="#1176AA"/>
<path d="M30.6999 94.4001C30.6999 94.4001 30.6999 94.5001 30.7999 94.7001C30.9999 94.9001 31.1999 95.0001 31.1999 95.0001L46.5999 103.9C46.9999 104.1 47.3999 104.2 47.8999 104.2V104.3C47.3999 104.3 46.9999 104.2 46.5999 104L31.1999 95.1001C31.1999 95.1001 30.9999 95.0001 30.7999 94.8001C30.5999 94.6001 30.6999 94.4001 30.6999 94.4001Z" fill="black"/>
<path d="M31.2999 95.3002C31.2999 95.3002 31.2999 99.9002 31.2999 100C31.2999 100.1 31.5 100.4 31.5 100.4L31.4 100.3C31.4 100.3 31.2 100 31.2 99.9002C31.2 99.8002 31.2 95.2002 31.2 95.2002L31.2999 95.3002Z" fill="black"/>
<path d="M46.5999 104.1C46.5999 104.1 46.5999 108.7 46.5999 108.8C46.5999 108.9 46.7999 109.2 46.7999 109.2L46.6999 109.1C46.6999 109.1 46.4999 108.8 46.4999 108.7C46.4999 108.6 46.4999 104 46.4999 104L46.5999 104.1Z" fill="black"/>
<path opacity="0.5" d="M31.8 81.7001L32.2 81.5001C32.6 81.3001 32.9 81.5001 32.9 81.9001V91.9001C32.9 92.3001 32.6 92.9001 32.2 93.1001L31.9 93.3001C31.7 93.4001 31.6 93.5001 31.6 93.7001L31.8 81.7001Z" fill="#1B8CD4"/>
<path opacity="0.4" d="M32 81.6001C32 81.6001 49.4999 91.1001 49.5999 91.1001C49.6999 91.2001 49.7999 91.3001 49.7999 91.5001V101.5C49.7999 101.9 49.4999 102.5 49.0999 102.7L48.7999 102.9C48.4 103.1 47.9 103.1 47.5 102.9L32 94.0001C31.8 93.9001 31.7 93.8001 31.7 93.6001C31.7 93.5001 32 81.6001 32 81.6001Z" fill="#1B8CD4"/>
<path opacity="0.2" d="M48.8 91.4002L49 91.3002C49.4 91.1002 49.7 91.2002 49.7 91.7002V101.7C49.7 102.1 49.4 102.7 49 102.9L48.5 103.2L48.8 91.4002Z" fill="#1B8CD4"/>
<path d="M49.2 108.7L66 99L66.4 99.1L49.2 109C48.8 109.2 48.4 109.3 47.9 109.3V109C48.3 109.1 48.8 108.9 49.2 108.7Z" fill="#115B82"/>
<path d="M47.9 104.2V109C48.4 109 48.8 108.9 49.2 108.7L66 99V79L49.4 88.6C48.7 89 48.4 89.7 48.4 90.2C48.4 90.3 48.4 90.7 48.7 91C48.9 91.2 49.2 91.3 49.3 91.3C49.6 91.1 49.9 91.3 49.9 91.7V101.7C49.9 102.1 49.6 102.6 49.3 102.8L48.3 103.4C48.1 103.6 47.9 104 47.9 104.2ZM59.8 86.7C59.8 86.3 60 85.9 60.3 85.8L64.7 83.2C65 83 65.2 83.2 65.2 83.6V87.4C65.2 87.8 65 88.2 64.7 88.3L60.3 90.9C60 91.1 59.8 90.9 59.8 90.5V86.7ZM51.3 91.6C51.3 91.2 51.5 90.8 51.8 90.7L58.1 87C58.4 86.8 58.6 87 58.6 87.4V94.5C58.6 94.9 58.4 95.3 58.1 95.4L51.8 99.1C51.5 99.3 51.3 99.1 51.3 98.7V91.6Z" fill="#1176AA"/>
<path opacity="0.6" d="M49.2 103.9L50.9 102.9V103L49.2 104C48.8 104.2 48.4 104.3 47.9 104.3V104.2C48.3 104.2 48.8 104.1 49.2 103.9Z" fill="black"/>
<path opacity="0.6" d="M50.8 90.6C50.8 90.6 50.8 107.7 50.8 107.8C50.8 107.9 50.6 108.2 50.6 108.2L50.7 108.1C50.7 108.1 50.9 107.8 50.9 107.7C50.9 107.6 50.9 90.5 50.9 90.5L50.8 90.6Z" fill="black"/>
<path opacity="0.6" d="M58.9001 85.9C58.9001 85.9 58.9001 103 58.9001 103.1C58.9001 103.2 58.7001 103.5 58.7001 103.5L58.8001 103.4C58.8001 103.4 59.0001 103.1 59.0001 103C59.0001 102.9 59.0001 85.8 59.0001 85.8L58.9001 85.9Z" fill="black"/>
<path opacity="0.6" d="M49.4 91.3L66 81.7V81.8L49.7 91.2C49.6 91.2 49.5 91.2 49.4 91.3Z" fill="black"/>
<path opacity="0.4" d="M58.4 96.9V98.5C58.4 98.6 58.3 98.7 58.3 98.8L57.6 99.2C57.5 99.2 57.5 99.2 57.5 99.1V97.5C57.5 97.4 57.6 97.3 57.6 97.2L58.3 96.8C58.3 96.8 58.4 96.8 58.4 96.9Z" fill="black"/>
<path opacity="0.5" d="M57.3 97.4L57.9001 97C58.0001 97 58 97 58 97.1V98.4C58 98.5 57.9001 98.6 57.9001 98.6L57.3 99V97.4C57.3 97.5 57.3 97.5 57.3 97.4Z" fill="black"/>
<g opacity="0.8">
<path opacity="0.8" d="M58.2 98.8L57.5 99.2C57.4 99.2 57.4 99.2 57.4 99.1V99C57.4 99 57.8 98.8 57.9 98.7C57.9 98.8 58.1 98.7 58.2 98.8Z" fill="white"/>
</g>
<path d="M58 97.3001L58.3 97.1001V98.5001L58 98.7001C57.9 98.7001 57.9001 98.7001 57.9001 98.7001C57.9001 98.7001 57.8 98.6001 57.8 98.5001V97.7001C57.8 97.5001 57.9 97.3001 58 97.3001Z" fill="#292929"/>
<path d="M57.9001 97.2L58.2001 97H58.3001L57.9001 97.2C57.8001 97.3 57.8001 97.5 57.8001 97.6V98.4C57.8001 98.5 57.8001 98.5 57.9001 98.6C57.9001 98.6 57.9001 98.6 57.8001 98.6C57.8001 98.6 57.7001 98.5 57.7001 98.4V97.6C57.7001 97.5 57.8001 97.3 57.9001 97.2Z" fill="#1A1A1A"/>
<path d="M59.7999 90.6998L64.2999 88.0998C64.5999 87.8998 64.7999 87.4998 64.7999 87.1998V83.3998C64.7999 83.2998 64.7999 83.2998 64.7999 83.1998C64.9999 83.0998 65.1999 83.2998 65.1999 83.5998V87.3998C65.1999 87.7998 64.9999 88.1998 64.6999 88.2998L60.2999 90.8998C59.9999 90.9998 59.8999 90.9998 59.7999 90.6998Z" fill="#1A191F"/>
<path d="M59.6 86.7999V90.5999C59.6 91.0999 59.9 91.2999 60.3 91.0999L64.7 88.4999C65.1 88.2999 65.4 87.6999 65.4 87.1999V83.3999C65.4 82.8999 65.1 82.6999 64.7 82.8999L60.3 85.4999C59.9 85.7999 59.6 86.2999 59.6 86.7999ZM59.8 86.6999C59.8 86.2999 60 85.8999 60.3 85.7999L64.7 83.1999C65 82.9999 65.2 83.1999 65.2 83.5999V87.3999C65.2 87.7999 65 88.1999 64.7 88.2999L60.3 90.8999C60 91.0999 59.8 90.8999 59.8 90.4999V86.6999Z" fill="#1A191F"/>
<path opacity="0.4" d="M60.2999 85.7998L64.6999 83.1998C64.9999 82.9998 65.1999 83.1998 65.1999 83.5998V87.3998C65.1999 87.7998 64.9999 88.1998 64.6999 88.2998L60.2999 90.8998C59.9999 91.0998 59.7999 90.8998 59.7999 90.4998V86.6998C59.7999 86.2998 59.9999 85.8998 60.2999 85.7998Z" fill="#1B8CD4"/>
<path d="M51.1 91.6999V98.7999C51.1 99.2999 51.4 99.4999 51.8 99.2999L58.1 95.5999C58.5 95.3999 58.8 94.7999 58.8 94.2999V87.1999C58.8 86.6999 58.5 86.4999 58.1 86.6999L51.8 90.3999C51.4 90.6999 51.1 91.2999 51.1 91.6999ZM51.3 91.5999C51.3 91.1999 51.5 90.7999 51.8 90.6999L58.1 86.9999C58.4 86.7999 58.6 86.9999 58.6 87.3999V94.4999C58.6 94.8999 58.4 95.2999 58.1 95.3999L51.8 99.0999C51.5 99.2999 51.3 99.0999 51.3 98.6999V91.5999Z" fill="#1A191F"/>
<path d="M51.2999 98.8999L57.6999 95.1999C57.9999 94.9999 58.1999 94.5999 58.1999 94.2999V87.1999C58.1999 87.0999 58.1999 87.0999 58.1999 86.9999C58.3999 86.8999 58.5999 87.0999 58.5999 87.3999V94.4999C58.5999 94.8999 58.3999 95.2999 58.0999 95.3999L51.7999 99.0999C51.4999 99.2999 51.2999 99.1999 51.2999 98.8999Z" fill="#1A191F"/>
<path opacity="0.4" d="M51.7 90.6998L58 86.9998C58.3 86.7998 58.5 86.9998 58.5 87.3998V94.4998C58.5 94.8998 58.3 95.2998 58 95.3998L51.7 99.0998C51.4 99.2998 51.2 99.0998 51.2 98.6998V91.5998C51.3 91.2998 51.5 90.7998 51.7 90.6998Z" fill="#1B8CD4"/>
<path d="M51.7 102.6C51.9 102.6 52 102.6 52.1 102.5C52.3 102.4 52.5 102.1 52.5 101.7C52.5 101.6 52.4 101.5 52.3 101.5C52.2 101.5 52.1 101.6 52.1 101.7C52.1 101.9 52.1 102.1 51.9 102.1C51.8 102.2 51.5 102.2 50.5 101.7C50.4 101.6 50.3 101.7 50.2 101.8C50.1 101.9 50.2 102 50.3 102.1C50.8 102.5 51.3 102.6 51.7 102.6Z" fill="#1A191F"/>
<path d="M52.4 102L51.4 101.5C51.2 101.4 51 101.1 51 100.8V95.4C51 95.3 51 95.2 51.1 95.2C51.2 95.2 51.3 95.2 51.4 95.3L52.4 96C52.7 96.2 52.9 96.6 52.9 97V101.6C52.9 101.8 52.8 101.9 52.7 102C52.6 102.1 52.5 102.1 52.4 102Z" fill="#454351"/>
<path d="M52.9 101.6V97C52.9 96.7 52.7 96.2 52.4 96L51.4 95.3C51.3 95.2 51.2 95.2 51.1 95.2C51.1 95.2 51.4 95 51.5 95C51.6 95 51.7 95 51.8 95.1L52.8 95.8C53.1 96 53.3 96.4 53.3 96.8V101.4C53.3 101.6 53.2 101.7 53.1 101.8C53 101.9 52.7 102 52.7 102C52.8 102 52.9 101.8 52.9 101.6Z" fill="#2B2A33"/>
<path d="M52.2 95.7999C52.3 95.7999 52.4 95.6999 52.4 95.5999C52.4 94.6999 51.7 93.7999 50.4 92.9999C50.3 92.8999 50.2 92.9999 50.1 93.0999C50 93.1999 50.1 93.2999 50.2 93.3999C51.3 94.0999 51.9 94.7999 51.9 95.5999C52 95.6999 52.1 95.7999 52.2 95.7999Z" fill="#1A191F"/>
<path d="M30.8 80.3C30.8 80.4 30.9 80.7 31.4 81C31.7 81.2 45.5 89.2 46.8 89.9C47.7 90.4 48.4 90.2 48.4 90.2C48.4 90.3 48.4 90.7 48.7 91C48.9 91.2 49.2 91.3 49.3 91.3C48.6 91.7 47.4 91.7 46.7 91.3L31.3 82.4C31.2 82.4 31.1 82.3 31.1 82.2C30.6 81.8 30.5 81.1 30.8 80.3Z" fill="#115B82"/>
<path d="M31.9999 78.5001L48.0999 69.2C48.3999 69 48.7999 69 49.0999 69.2L65.9999 79.0001L49.3999 88.6C48.6999 89 48.3999 89.7 48.3999 90.2C48.3999 90.2 47.6999 90.4001 46.7999 89.9001C45.4999 89.2001 31.3999 81.0001 31.3999 81.0001C30.8999 80.7001 30.7999 80.3001 30.7999 80.3001C30.8999 79.8001 31.1999 78.9001 31.9999 78.5001Z" fill="#1692D1"/>
<path d="M38.7 81.9999C38.4 81.9999 38.1 81.7999 38.1 81.6999C38.1 81.4999 38.4 81.3999 38.7 81.3999C39 81.3999 39.3 81.5999 39.3 81.6999C39.2 81.8999 39 81.9999 38.7 81.9999Z" fill="#707D85"/>
<path d="M38.7 82C38.4 82 38.1 81.8 38.1 81.7V81.8C38.1 82 38.4 82.1 38.7 82.1C39 82.1 39.3 81.9 39.3 81.8C39.3 81.7 39.3 81.7 39.3 81.7C39.2 81.9 39 82 38.7 82Z" fill="#464B51"/>
<path d="M38.6999 81.4C38.4999 81.4 38.3999 81.3 38.3999 81.2C38.3999 81.1 38.4999 81 38.6999 81C38.8999 81 38.9999 81.1 38.9999 81.2C38.9999 81.3 38.7999 81.4 38.6999 81.4Z" fill="#FFD21F"/>
<path d="M38.6999 81.4C38.4999 81.4 38.3999 81.3 38.3999 81.2L38.2999 81.7C38.2999 81.8 38.4999 81.9 38.6999 81.9C38.8999 81.9 39.0999 81.8 39.0999 81.7L38.9999 81.2C38.9999 81.3 38.7999 81.4 38.6999 81.4Z" fill="#FAA400"/>
<path d="M42.7 84.4C42.4 84.4 42.1 84.2 42.1 84.1C42.1 83.9 42.4 83.8 42.7 83.8C43 83.8 43.3 84 43.3 84.1C43.3 84.2 43.1 84.4 42.7 84.4Z" fill="#707D85"/>
<path d="M42.7 84.4001C42.4 84.4001 42.1 84.2001 42.1 84.1001V84.2001C42.1 84.4001 42.4 84.5001 42.7 84.5001C43 84.5001 43.3 84.3001 43.3 84.2001C43.3 84.1001 43.3 84.1001 43.3 84.1001C43.3 84.2001 43.1 84.4001 42.7 84.4001Z" fill="#464B51"/>
<path d="M42.6999 83.7C42.4999 83.7 42.3999 83.6 42.3999 83.5C42.3999 83.4 42.4999 83.3 42.6999 83.3C42.8999 83.3 42.9999 83.4 42.9999 83.5C43.0999 83.6 42.8999 83.7 42.6999 83.7Z" fill="#FFD21F"/>
<path d="M42.6999 83.7C42.4999 83.7 42.3999 83.6 42.3999 83.5L42.2999 84C42.2999 84.1 42.4999 84.2 42.6999 84.2C42.8999 84.2 43.0999 84.1 43.0999 84L42.9999 83.5C43.0999 83.6 42.8999 83.7 42.6999 83.7Z" fill="#FAA400"/>
<path d="M40.7 83.1999C41.0313 83.1999 41.3 83.0655 41.3 82.8999C41.3 82.7342 41.0313 82.5999 40.7 82.5999C40.3686 82.5999 40.1 82.7342 40.1 82.8999C40.1 83.0655 40.3686 83.1999 40.7 83.1999Z" fill="#707D85"/>
<path d="M40.7 83.1999C40.4 83.1999 40.1 82.9999 40.1 82.8999V82.9999C40.1 83.1999 40.4 83.2999 40.7 83.2999C41 83.2999 41.3 83.0999 41.3 82.9999C41.3 82.8999 41.3 82.8999 41.3 82.8999C41.3 83.0999 41 83.1999 40.7 83.1999Z" fill="#464B51"/>
<path d="M40.6999 82.6C40.8656 82.6 40.9999 82.5104 40.9999 82.4C40.9999 82.2895 40.8656 82.2 40.6999 82.2C40.5342 82.2 40.3999 82.2895 40.3999 82.4C40.3999 82.5104 40.5342 82.6 40.6999 82.6Z" fill="#FFD21F"/>
<path d="M40.6999 82.5C40.4999 82.5 40.3999 82.4 40.3999 82.3L40.2999 82.8C40.2999 82.9 40.4999 83 40.6999 83C40.8999 83 41.0999 82.9 41.0999 82.8L40.9999 82.3C40.9999 82.5 40.8999 82.5 40.6999 82.5Z" fill="#FAA400"/>
<path d="M50.4 66.3001C50.5 66.2001 50.6 66.3001 50.8 66.3001C53.6 67.7001 56 68.9001 59.1 70.8001C61.9 72.4001 64.9 74.2001 68 76.3001C68.3 76.5001 68.6 77.0001 68.6 77.4001C68.7 80.7001 68.7 93.4001 68.6 96.5001C68.6 96.9001 68.5 97.9001 68.5 98.6001C68.5 99.1001 68 99.4001 67.6 99.3001L66 99.1001V81.2001C66 79.9001 65.3 78.6001 64.1 78.0001L49.1 69.3001C48.8 69.1001 48.4 69.1001 48.1 69.3001C48.5 68.3001 49.6 66.7001 50.4 66.3001Z" fill="#115B82"/>
<path d="M51.0999 80.0002L58.1999 75.9002C58.2999 75.8002 58.3999 75.8002 58.4999 75.9002L58.8999 76.2002L58.9999 76.3002C58.9999 76.3002 58.9999 76.4002 58.8999 76.4002L51.7999 80.5002C51.6999 80.6002 51.5999 80.6002 51.4999 80.5002L51.0999 80.2002C51.0999 80.2002 51.0999 80.2002 51.0999 80.0002C51.0999 80.1002 51.0999 80.1002 51.0999 80.0002Z" fill="#115B82"/>
<path d="M51.0999 80.2003L51.4999 80.5003C51.5999 80.6003 51.6999 80.6003 51.7999 80.5003L58.8999 76.4003L58.9999 76.3003V76.4003C58.9999 76.4003 58.9999 76.5003 58.8999 76.5003L51.7999 80.6003C51.6999 80.7003 51.5999 80.7003 51.4999 80.6003L51.0999 80.3003C51.0999 80.3003 51.0999 80.3003 51.0999 80.2003Z" fill="#1176AA"/>
<path d="M45.0999 76.5002L52.1999 72.4002C52.2999 72.3002 52.3999 72.3002 52.4999 72.4002L52.8999 72.7002L52.9999 72.8002C52.9999 72.8002 52.9999 72.9002 52.8999 72.9002L45.7999 77.0002C45.6999 77.1002 45.5999 77.1002 45.4999 77.0002L45.0999 76.7002C44.9999 76.7002 44.9999 76.7002 45.0999 76.5002C44.9999 76.6002 44.9999 76.6002 45.0999 76.5002Z" fill="#115B82"/>
<path d="M45.0999 76.7003L45.4999 77.0003C45.5999 77.1003 45.6999 77.1003 45.7999 77.0003L52.8999 72.9003L52.9999 72.8003V72.9003C52.9999 72.9003 52.9999 73.0003 52.8999 73.0003L45.7999 77.1003C45.6999 77.2003 45.5999 77.2003 45.4999 77.1003L45.0999 76.8003C44.9999 76.8003 44.9999 76.8003 45.0999 76.7003C44.9999 76.7003 44.9999 76.7003 45.0999 76.7003Z" fill="#1176AA"/>
<path d="M47.0999 77.7001L54.1999 73.6001C54.2999 73.5001 54.3999 73.5001 54.4999 73.6001L54.8999 73.9001L54.9999 74.0001C54.9999 74.0001 54.9999 74.1001 54.8999 74.1001L47.7999 78.2001C47.6999 78.3001 47.5999 78.3001 47.4999 78.2001L47.0999 77.9001C46.9999 77.9001 46.9999 77.8001 47.0999 77.7001C46.9999 77.8001 46.9999 77.7001 47.0999 77.7001Z" fill="#115B82"/>
<path d="M47.0999 77.9002L47.4999 78.2002C47.5999 78.3002 47.6999 78.3002 47.7999 78.2002L54.8999 74.1002C54.9999 74.0002 54.9999 74.0002 54.9999 74.0002V74.1002C54.9999 74.1002 54.9999 74.2002 54.8999 74.2002L47.7999 78.3002C47.6999 78.4002 47.5999 78.4002 47.4999 78.3002L47.0999 78.0002C46.9999 78.0002 46.9999 78.0002 47.0999 77.9002C46.9999 77.8002 46.9999 77.9002 47.0999 77.9002Z" fill="#1176AA"/>
<path d="M49.0999 78.9001L56.1999 74.8001C56.2999 74.7001 56.3999 74.7001 56.4999 74.8001L56.9999 75.0001L57.0999 75.1001C57.0999 75.1001 57.0999 75.2001 56.9999 75.2001L49.8999 79.3001C49.7999 79.4001 49.6999 79.4001 49.5999 79.3001L49.1999 79.0001C49.0999 79.0001 49.0999 79.0001 49.0999 78.9001Z" fill="#115B82"/>
<path d="M49.0999 79.1002L49.4999 79.4002C49.5999 79.5002 49.6999 79.5002 49.7999 79.4002L56.8999 75.3002L56.9999 75.2002V75.3002C56.9999 75.3002 56.9999 75.4002 56.8999 75.4002L49.7999 79.5002C49.6999 79.6002 49.5999 79.6002 49.4999 79.5002L49.0999 79.2002V79.1002C49.0999 79.0002 49.0999 79.0002 49.0999 79.1002Z" fill="#1176AA"/>
<path d="M35.7999 77.2001L48.0999 70.1001C48.1999 70.0001 48.2999 70.0001 48.3999 70.1001L48.7999 70.4001L48.8999 70.5001C48.8999 70.5001 48.8999 70.6001 48.7999 70.6001L36.4999 77.7001C36.3999 77.8001 36.2999 77.8001 36.1999 77.7001L35.7999 77.4001C35.7999 77.3001 35.7999 77.3001 35.7999 77.2001Z" fill="#115B82"/>
<path d="M35.7999 77.4002L36.1999 77.7002C36.2999 77.8002 36.3999 77.8002 36.4999 77.7002L48.7999 70.6002L48.8999 70.5002V70.6002C48.8999 70.6002 48.8999 70.7002 48.7999 70.7002L36.4999 77.8002C36.3999 77.9002 36.2999 77.9002 36.1999 77.8002L35.7999 77.5002C35.7999 77.5002 35.7999 77.4002 35.7999 77.4002C35.7999 77.3002 35.7999 77.3002 35.7999 77.4002Z" fill="#1176AA"/>
<path d="M37.9 78.4001L50.2 71.3001C50.3 71.2001 50.3999 71.2001 50.4999 71.3001L50.9 71.6001L50.9999 71.7001C50.9999 71.7001 51 71.8001 50.9 71.8001L38.5999 78.9001C38.4999 79.0001 38.3999 79.0001 38.2999 78.9001L37.9 78.6001C37.8 78.5001 37.8 78.5001 37.9 78.4001C37.8 78.4001 37.8 78.4001 37.9 78.4001Z" fill="#115B82"/>
<path d="M37.9 78.5001L38.2999 78.8001C38.3999 78.9001 38.4999 78.9001 38.5999 78.8001L50.9 71.7001L50.9999 71.6001V71.7001C50.9999 71.7001 51 71.8001 50.9 71.8001L38.5999 78.9001C38.4999 79.0001 38.3999 79.0001 38.2999 78.9001L37.9 78.6001C37.8 78.6001 37.8 78.6001 37.9 78.5001C37.8 78.5001 37.8 78.5001 37.9 78.5001Z" fill="#1176AA"/>
<path d="M49.9999 85.4001L62.2999 78.3001C62.3999 78.2001 62.4999 78.2001 62.5999 78.3001L62.9999 78.6001L63.0999 78.7001C63.0999 78.7001 63.0999 78.8001 62.9999 78.8001L50.6999 85.9001C50.5999 86.0001 50.4999 86.0001 50.3999 85.9001L49.9999 85.6001C49.9999 85.5001 49.9999 85.5001 49.9999 85.4001Z" fill="#115B82"/>
<path d="M49.9999 85.6002L50.3999 85.9002C50.4999 86.0002 50.5999 86.0002 50.6999 85.9002L62.9999 78.8002L63.0999 78.7002V78.8002C63.0999 78.8002 63.0999 78.9002 62.9999 78.9002L50.6999 86.0002C50.5999 86.1002 50.4999 86.1002 50.3999 86.0002L49.9999 85.7002V85.6002C49.9999 85.5002 49.9999 85.5002 49.9999 85.6002Z" fill="#1176AA"/>
<path d="M47.9999 84.2001L60.2999 77.1001C60.3999 77.0001 60.4999 77.0001 60.5999 77.1001L60.9999 77.4001L61.0999 77.5001C61.0999 77.5001 61.0999 77.6001 60.9999 77.6001L48.6999 84.7001C48.5999 84.8001 48.4999 84.8001 48.3999 84.7001L47.9999 84.4001C47.9999 84.4001 47.8999 84.3001 47.9999 84.2001C47.8999 84.3001 47.9999 84.2001 47.9999 84.2001Z" fill="#115B82"/>
<path d="M47.9999 84.4002L48.3999 84.7002C48.4999 84.8002 48.5999 84.8002 48.6999 84.7002L60.9999 77.6002L61.0999 77.5002V77.6002C61.0999 77.6002 61.0999 77.7002 60.9999 77.7002L48.6999 84.8002C48.5999 84.9002 48.4999 84.9002 48.3999 84.8002L47.9999 84.5002C47.9999 84.5002 47.8999 84.4002 47.9999 84.4002C47.8999 84.3002 47.9999 84.4002 47.9999 84.4002Z" fill="#1176AA"/>
<path d="M50.5 81.0001L47 83.1001C46.8 83.2001 46.4 83.2001 46.1 83.1001L40.2 79.7001C39.9 79.6001 39.9 79.3001 40.1 79.2001L43.7 77.1001C43.9 77.0001 44.3 77.0001 44.6 77.1001L50.5 80.5001C50.7 80.7001 50.8 80.9001 50.5 81.0001Z" fill="#115B82"/>
<path d="M50.7 80.8001C50.7 80.9001 50.7 81.0001 50.6 81.0001L47 83.1001C46.8 83.2001 46.4 83.2001 46.1 83.1001L40.2 79.7001C40.1 79.6001 40 79.5001 40 79.4001C40 79.4001 40 79.7001 40 79.8001C40 79.9001 40.1 80.0001 40.2 80.1001L46.1 83.5001C46.4 83.6001 46.7 83.7001 47 83.5001L50.6 81.4001C50.7 81.3001 50.7 81.3001 50.7 81.2001C50.7 81.1001 50.7 80.8001 50.7 80.8001Z" fill="#1176AA"/>
</g>
<defs>
<linearGradient id="paint0_linear_229_7175" x1="71.4502" y1="93.5206" x2="75.4106" y2="100.38" gradientUnits="userSpaceOnUse">
<stop stop-color="#D3CFC3"/>
<stop offset="0.00607655" stop-color="#D6D2C6"/>
<stop offset="0.0536442" stop-color="#E9E5DB"/>
<stop offset="0.0848943" stop-color="#F0ECE3"/>
<stop offset="0.329" stop-color="#F0ECE3"/>
<stop offset="0.352" stop-color="#F0ECE3"/>
<stop offset="0.3964" stop-color="#E1DDD3"/>
<stop offset="0.4647" stop-color="#D2CEC2"/>
<stop offset="0.5497" stop-color="#C7C3B7"/>
<stop offset="0.6689" stop-color="#C1BDB0"/>
<stop offset="1" stop-color="#BFBBAE"/>
</linearGradient>
<clipPath id="clip0_229_7175">
<rect width="190" height="135" fill="white"/>
</clipPath>
</defs>
</svg>
