<svg width="190" height="135" viewBox="0 0 190 135" fill="none" xmlns="http://www.w3.org/2000/svg">
<g clip-path="url(#clip0_229_6058)">
<path d="M168.408 35.5257L162.982 32.3885C162.568 32.1314 161.845 32.1314 161.432 32.44L99.6804 71.7828L80.7158 60.88C76.4268 58.4114 71.6211 56.4057 67.4871 55.1714L81.5426 42.7257C81.7493 42.52 81.6976 42.2628 81.4392 42.1085L78.8555 40.6171C78.4938 40.4114 77.977 40.4628 77.667 40.6685L58.1857 53.0114L57.9273 52.8571C57.2038 52.4457 56.0153 52.4457 55.2919 52.8571C54.5684 53.2685 54.5684 53.9371 55.2919 54.3485L55.4986 54.4514L34.1053 65.7142C33.7435 65.9199 33.7435 66.2285 34.0536 66.3828L36.6373 67.8742C36.8957 68.0285 37.3608 68.0799 37.6708 67.9257L59.0124 59.8514C61.2861 62.4742 65.0584 65.4571 68.8306 67.6171L87.7435 78.4685L20.7732 113.697C20.3081 113.954 20.3081 114.366 20.7215 114.571L26.1474 117.709C26.5091 117.914 27.0775 117.966 27.4909 117.76L105.675 88.8571L127.43 101.354C130.685 103.257 139.677 106.24 143.759 103.926C147.945 101.509 142.57 96.4171 139.315 94.5657L117.818 82.2228L168.563 36.2971C168.821 36.04 168.769 35.7314 168.408 35.5257Z" fill="#B1B1B1"/>
<path d="M134.612 97.0855C134.199 96.8798 133.889 97.0341 133.889 97.4969C133.889 97.9598 134.199 98.4741 134.612 98.7312C135.026 98.9369 135.336 98.7826 135.336 98.3198C135.284 97.8569 134.974 97.2912 134.612 97.0855Z" fill="#808083"/>
<path d="M134.612 97.24C134.509 97.1885 134.354 97.1371 134.302 97.1885C134.251 97.24 134.199 97.3428 134.199 97.4971C134.199 97.8571 134.457 98.2685 134.768 98.4228C134.871 98.4743 135.026 98.5257 135.078 98.4743C135.129 98.4228 135.181 98.32 135.181 98.1657C135.129 97.8571 134.923 97.4457 134.612 97.24Z" fill="#5E5E5E"/>
<path d="M134.716 98.4743C134.406 98.32 134.147 97.8571 134.147 97.5486C134.147 97.3943 134.199 97.2914 134.251 97.24C134.096 97.2914 134.044 97.3943 134.044 97.6C134.044 97.96 134.302 98.3714 134.612 98.5257C134.767 98.6286 134.974 98.6286 135.026 98.5257C134.923 98.5257 134.819 98.5257 134.716 98.4743Z" fill="#757575"/>
<path d="M134.612 96.7257C135.181 97.0343 135.646 97.8057 135.646 98.4743C135.646 99.0914 135.181 99.3486 134.612 99.04C134.044 98.7315 133.579 97.96 133.579 97.2914C133.579 96.6743 134.044 96.4172 134.612 96.7257ZM134.612 98.68C134.974 98.8857 135.284 98.7315 135.284 98.2686C135.284 97.8572 134.974 97.2914 134.612 97.0857C134.251 96.88 133.941 97.0343 133.941 97.4972C133.941 97.9086 134.199 98.4743 134.612 98.68Z" fill="#262626"/>
<path d="M135.956 97.3942C135.853 97.1885 135.698 96.9828 135.543 96.7771C135.388 96.6228 135.233 96.5199 135.078 96.4171C134.819 96.2628 134.561 96.2628 134.354 96.3656L133.837 96.6742C134.044 96.5713 134.302 96.5713 134.561 96.7256C134.716 96.8285 134.871 96.9313 135.026 97.0856C135.181 97.2399 135.336 97.4971 135.439 97.7028C135.543 97.9599 135.594 98.217 135.594 98.4742C135.594 98.7828 135.491 99.0399 135.284 99.1428L135.801 98.8342C136.008 98.7313 136.111 98.5256 136.111 98.1656C136.163 97.9085 136.111 97.6513 135.956 97.3942Z" fill="#333333"/>
<path d="M134.871 97.8055C134.871 97.754 134.819 97.7026 134.767 97.6512C134.716 97.5998 134.716 97.5998 134.664 97.5483C134.612 97.4969 134.509 97.4969 134.509 97.5483L134.457 97.5998C134.509 97.5483 134.561 97.5998 134.612 97.5998C134.664 97.5998 134.664 97.6512 134.716 97.7026C134.768 97.754 134.767 97.8055 134.819 97.8569C134.871 97.9083 134.871 97.9598 134.871 98.0626C134.871 98.1655 134.819 98.2169 134.819 98.2169L134.871 98.1655C134.923 98.1655 134.923 98.0626 134.923 98.0112C134.923 97.9083 134.871 97.8569 134.871 97.8055Z" fill="#757575"/>
<path d="M134.561 97.5998C134.406 97.4969 134.302 97.5998 134.302 97.754C134.302 97.9083 134.406 98.114 134.561 98.1655C134.716 98.2683 134.819 98.1655 134.819 98.0112C134.819 97.8569 134.716 97.6512 134.561 97.5998Z" fill="#808083"/>
<path d="M134.716 95.7485L134.561 98.3199C134.561 98.4742 134.509 98.5771 134.406 98.6285L134.974 98.3199C135.078 98.2685 135.129 98.1656 135.129 98.0114L135.284 95.4399L134.716 95.7485Z" fill="#808083"/>
<path d="M133.941 94.6685L133.372 94.977L134.716 95.7485L135.284 95.4399L133.941 94.6685Z" fill="#A9AEAE"/>
<path d="M133.372 94.9771L133.527 98.2685L134.044 98.5771C134.302 98.7314 134.561 98.6285 134.561 98.3199L134.716 95.7485L133.372 94.9771Z" fill="#5E5E5E"/>
<path d="M133.321 97.8057C132.907 97.6 132.597 97.7543 132.597 98.2171C132.597 98.68 132.907 99.1943 133.321 99.4514C133.734 99.6571 134.044 99.5029 134.044 99.04C133.992 98.5771 133.682 98.0629 133.321 97.8057Z" fill="#808083"/>
<path d="M133.321 98.0115C133.217 97.96 133.062 97.9086 133.011 97.96C132.959 98.0115 132.907 98.1143 132.907 98.2686C132.907 98.6286 133.166 99.04 133.476 99.1943C133.579 99.2457 133.734 99.2972 133.786 99.2457C133.837 99.1943 133.889 99.0915 133.889 98.9372C133.837 98.6286 133.579 98.1657 133.321 98.0115Z" fill="#5E5E5E"/>
<path d="M133.424 99.1942C133.114 99.04 132.856 98.5771 132.856 98.2685C132.856 98.1142 132.907 98.0114 132.959 97.96C132.804 98.0114 132.752 98.1142 132.752 98.32C132.752 98.68 133.011 99.0914 133.321 99.2457C133.476 99.3485 133.682 99.3485 133.734 99.2457C133.631 99.2971 133.527 99.2971 133.424 99.1942Z" fill="#757575"/>
<path d="M133.321 97.497C133.889 97.8056 134.354 98.577 134.354 99.2456C134.354 99.8627 133.889 100.12 133.321 99.8113C132.752 99.5027 132.287 98.7313 132.287 98.0627C132.287 97.3941 132.752 97.137 133.321 97.497ZM133.321 99.3998C133.682 99.6056 133.992 99.4513 133.992 98.9884C133.992 98.577 133.682 98.0113 133.321 97.8056C132.959 97.5999 132.649 97.7541 132.649 98.217C132.597 98.6798 132.907 99.1941 133.321 99.3998Z" fill="#262626"/>
<path d="M134.664 98.1657C134.561 97.96 134.406 97.7543 134.251 97.5485C134.096 97.3943 133.941 97.2914 133.786 97.1885C133.527 97.0343 133.269 97.0343 133.062 97.1371L132.546 97.4457C132.752 97.3428 133.011 97.3428 133.269 97.4971C133.424 97.6 133.579 97.7028 133.734 97.8571C133.889 98.0114 134.044 98.2685 134.147 98.4743C134.251 98.7314 134.302 98.9885 134.302 99.2457C134.302 99.5543 134.199 99.8114 133.992 99.9143L134.509 99.6057C134.716 99.5028 134.819 99.2971 134.819 98.9371C134.871 98.68 134.768 98.4228 134.664 98.1657Z" fill="#333333"/>
<path d="M133.579 98.5257C133.579 98.4743 133.527 98.4228 133.476 98.3714C133.424 98.32 133.424 98.32 133.372 98.2686C133.321 98.2171 133.217 98.2171 133.217 98.2686L133.166 98.32C133.217 98.2685 133.269 98.32 133.321 98.32C133.372 98.32 133.372 98.3714 133.424 98.4228C133.476 98.4743 133.476 98.5257 133.527 98.5771C133.579 98.6285 133.579 98.68 133.579 98.7828C133.579 98.8857 133.527 98.9371 133.527 98.9371L133.579 98.8857C133.631 98.8857 133.631 98.7828 133.631 98.7314C133.579 98.68 133.579 98.5771 133.579 98.5257Z" fill="#757575"/>
<path d="M133.269 98.32C133.114 98.2171 133.011 98.32 133.011 98.4743C133.011 98.6285 133.114 98.8343 133.269 98.8857C133.424 98.9885 133.527 98.8857 133.527 98.7314C133.527 98.6285 133.424 98.4228 133.269 98.32Z" fill="#808083"/>
<path d="M93.9962 76.4113C93.5828 76.1542 93.2728 76.3599 93.2728 76.8228C93.2728 77.2856 93.5828 77.8513 93.9962 78.0571C94.4096 78.3142 94.7197 78.1085 94.7197 77.6456C94.7197 77.2342 94.3579 76.6685 93.9962 76.4113Z" fill="#808083"/>
<path d="M93.9962 76.6172C93.8928 76.5657 93.7378 76.5143 93.6345 76.5657C93.5828 76.6172 93.5311 76.72 93.5311 76.8743C93.5311 77.2343 93.7895 77.6457 94.0995 77.8514C94.2029 77.9029 94.3579 77.9543 94.4613 77.9029C94.5129 77.8514 94.5646 77.7486 94.5646 77.5943C94.5646 77.2343 94.3062 76.7714 93.9962 76.6172Z" fill="#5E5E5E"/>
<path d="M94.0996 77.8514C93.7895 77.6971 93.5311 77.2343 93.5311 76.8742C93.5311 76.72 93.5828 76.6171 93.6345 76.5657C93.4795 76.6171 93.4278 76.72 93.4278 76.9257C93.4278 77.2857 93.6862 77.6971 93.9962 77.9028C94.2029 78.0057 94.3579 78.0057 94.4613 77.9028C94.3063 77.9543 94.2029 77.9028 94.0996 77.8514Z" fill="#757575"/>
<path d="M93.9962 76.0514C94.5646 76.36 95.0297 77.1829 95.0297 77.8514C95.0297 78.52 94.5646 78.7771 93.9962 78.4686C93.4278 78.16 92.9627 77.3371 92.9627 76.6686C92.911 76 93.3761 75.7429 93.9962 76.0514ZM93.9962 78.0571C94.4096 78.2629 94.7197 78.1086 94.7197 77.6457C94.7197 77.1829 94.4096 76.6686 93.9962 76.4114C93.5828 76.2057 93.2728 76.36 93.2728 76.8229C93.2728 77.2857 93.5828 77.8514 93.9962 78.0571Z" fill="#262626"/>
<path d="M95.3915 76.7714C95.2881 76.5657 95.1331 76.3085 94.9781 76.1542C94.823 76 94.668 75.8457 94.513 75.7942C94.2029 75.64 93.9446 75.5885 93.7379 75.7428L93.1694 76.0514C93.3761 75.9485 93.6345 75.9485 93.9446 76.1028C94.0996 76.2057 94.2546 76.3085 94.4096 76.4628C94.5647 76.6685 94.7197 76.8742 94.823 77.08C94.9264 77.3371 95.0297 77.5942 95.0297 77.8514C95.0297 78.16 94.9264 78.4171 94.7197 78.5199L95.2881 78.2114C95.4948 78.1085 95.5982 77.8514 95.5982 77.5428C95.5982 77.2857 95.4948 77.0285 95.3915 76.7714Z" fill="#333333"/>
<path d="M94.2546 77.1314C94.2546 77.08 94.2029 77.0285 94.1512 76.9771C94.0996 76.9257 94.0996 76.9257 94.0479 76.8743C93.9962 76.8228 93.8929 76.8228 93.8412 76.8743L93.7379 76.9257C93.7895 76.8743 93.8412 76.9257 93.9446 76.9257C93.9962 76.9257 94.0479 76.9771 94.0479 77.0285C94.0996 77.08 94.0996 77.1314 94.1512 77.1828C94.2029 77.2343 94.2029 77.3371 94.2029 77.3885C94.2029 77.4914 94.1512 77.5428 94.1512 77.5428L94.2546 77.4914C94.3063 77.44 94.3063 77.3885 94.3063 77.3371C94.3063 77.2857 94.2546 77.2343 94.2546 77.1314Z" fill="#757575"/>
<path d="M93.9445 76.9257C93.7895 76.8228 93.6862 76.9257 93.6862 77.08C93.6862 77.2342 93.7895 77.4399 93.9445 77.5428C94.0996 77.6457 94.2029 77.5428 94.2029 77.3885C94.2029 77.2342 94.0996 77.0285 93.9445 76.9257Z" fill="#808083"/>
<path d="M94.5646 73.5829L93.9445 77.6972C93.9445 77.8515 93.8928 77.9543 93.7895 78.0058L94.3579 77.6458C94.4613 77.5943 94.5129 77.4915 94.5129 77.3372L95.133 73.2229L94.5646 73.5829Z" fill="#808083"/>
<path d="M93.7379 72.4514L93.1694 72.76L94.5647 73.5828L95.1847 73.2228L93.7379 72.4514Z" fill="#A9AEAE"/>
<path d="M93.1694 72.76L92.8594 77.6457L93.3761 77.9543C93.6862 78.1086 93.8929 78.0057 93.9445 77.6971L94.5646 73.5829L93.1694 72.76Z" fill="#5E5E5E"/>
<path d="M92.601 77.1828C92.1876 76.9257 91.8776 77.1314 91.8776 77.5942C91.8776 78.0571 92.1876 78.6228 92.601 78.8285C93.0144 79.0857 93.3245 78.88 93.3245 78.4171C93.3761 78.0057 93.0144 77.44 92.601 77.1828Z" fill="#808083"/>
<path d="M92.601 77.3886C92.4976 77.3372 92.3426 77.2858 92.2393 77.3372C92.1876 77.3886 92.1359 77.4915 92.1359 77.6458C92.1359 78.0058 92.3943 78.4172 92.7043 78.6229C92.8077 78.6744 92.9627 78.7258 93.0661 78.6744C93.1177 78.6229 93.1694 78.5201 93.1694 78.3658C93.1694 78.0058 92.9627 77.5429 92.601 77.3886Z" fill="#5E5E5E"/>
<path d="M92.756 78.6229C92.446 78.4686 92.1876 78.0057 92.1876 77.6457C92.1876 77.4914 92.2393 77.3886 92.2909 77.3372C92.1359 77.3886 92.0842 77.4914 92.0842 77.6972C92.0842 78.0572 92.3426 78.4686 92.6527 78.6743C92.8594 78.7771 93.0144 78.7771 93.1177 78.6743C92.9627 78.7257 92.8594 78.6743 92.756 78.6229Z" fill="#757575"/>
<path d="M92.6526 76.8229C93.2211 77.1315 93.6861 77.9543 93.6861 78.6229C93.6861 79.2915 93.2211 79.5486 92.6526 79.2401C92.0842 78.9315 91.6192 78.1086 91.6192 77.4401C91.5675 76.7715 92.0326 76.5143 92.6526 76.8229ZM92.601 78.8286C93.0144 79.0343 93.3244 78.8801 93.3244 78.4172C93.3244 77.9543 93.0144 77.4401 92.601 77.1829C92.1876 76.9772 91.8775 77.1315 91.8775 77.5943C91.9292 78.0572 92.2392 78.6229 92.601 78.8286Z" fill="#262626"/>
<path d="M94.0479 77.5429C93.9445 77.3372 93.7895 77.08 93.6345 76.9257C93.4795 76.7714 93.3244 76.6172 93.1694 76.5657C92.8594 76.4114 92.601 76.36 92.3943 76.5143L91.8259 76.8229C92.0326 76.72 92.2909 76.72 92.601 76.8743C92.756 76.9772 92.911 77.08 93.0661 77.2343C93.2211 77.44 93.3761 77.6457 93.4795 77.8514C93.5828 78.1086 93.6862 78.3657 93.6862 78.6229C93.6862 78.9314 93.5828 79.1886 93.3761 79.2914L93.9445 78.9829C94.1512 78.88 94.2546 78.6229 94.2546 78.3143C94.2546 78.0572 94.1512 77.8 94.0479 77.5429Z" fill="#333333"/>
<path d="M92.911 77.9542C92.911 77.9027 92.8594 77.8513 92.8077 77.7999C92.756 77.7484 92.756 77.7484 92.7043 77.697C92.6527 77.6456 92.5493 77.6456 92.4976 77.697L92.3943 77.7484C92.446 77.697 92.4976 77.7484 92.601 77.7484C92.6527 77.7484 92.7043 77.7999 92.7043 77.8513C92.756 77.9027 92.756 77.9542 92.8077 78.0056C92.8594 78.057 92.8594 78.1599 92.8594 78.2113C92.8594 78.3142 92.8077 78.3656 92.8077 78.3656L92.911 78.3142C92.9627 78.2627 92.9627 78.2113 92.9627 78.1599C92.911 78.057 92.911 78.0056 92.911 77.9542Z" fill="#757575"/>
<path d="M92.601 77.7484C92.4459 77.6456 92.3426 77.7484 92.3426 77.9027C92.3426 78.057 92.4459 78.2627 92.601 78.3656C92.756 78.4684 92.8594 78.3656 92.8594 78.2113C92.8594 78.0056 92.756 77.7999 92.601 77.7484Z" fill="#808083"/>
<path d="M96.3732 77.8C95.9598 77.5429 95.6498 77.7486 95.6498 78.2114C95.6498 78.6743 95.9598 79.24 96.3732 79.4457C96.7866 79.7029 97.0967 79.4972 97.0967 79.0343C97.0967 78.5714 96.7349 78.0057 96.3732 77.8Z" fill="#808083"/>
<path d="M96.3732 77.9543C96.2699 77.9029 96.1148 77.8515 96.0115 77.9029C95.9598 77.9543 95.9081 78.0572 95.9081 78.2115C95.9081 78.5715 96.1665 78.9829 96.4766 79.1886C96.5799 79.24 96.7349 79.2915 96.8383 79.2401C96.89 79.1886 96.9416 79.0858 96.9416 78.9315C96.9416 78.5715 96.6833 78.16 96.3732 77.9543Z" fill="#5E5E5E"/>
<path d="M96.4766 79.1886C96.1665 78.9828 95.9082 78.5714 95.9082 78.2114C95.9082 78.0571 95.9598 77.9543 96.0115 77.9028C95.8565 77.9543 95.8048 78.0571 95.8048 78.2628C95.8048 78.6228 96.0632 79.0343 96.3732 79.24C96.5799 79.3428 96.7349 79.3428 96.8383 79.24C96.6833 79.2914 96.5799 79.2914 96.4766 79.1886Z" fill="#757575"/>
<path d="M96.3732 77.4399C96.9416 77.7484 97.4067 78.5713 97.4067 79.2399C97.4067 79.9084 96.9416 80.1656 96.3732 79.857C95.8048 79.5484 95.3397 78.7256 95.3397 78.057C95.2881 77.337 95.7531 77.0799 96.3732 77.4399ZM96.3732 79.4456C96.7866 79.6513 97.0967 79.497 97.0967 79.0342C97.0967 78.5713 96.7866 78.057 96.3732 77.7999C95.9598 77.5942 95.6498 77.7484 95.6498 78.2113C95.6498 78.6742 95.9598 79.1884 96.3732 79.4456Z" fill="#262626"/>
<path d="M97.7685 78.1085C97.6651 77.9028 97.5101 77.6457 97.3551 77.4914C97.2 77.3371 97.045 77.1828 96.89 77.1314C96.5799 76.9771 96.3216 76.9257 96.1149 77.08L95.5464 77.3885C95.7531 77.2857 96.0115 77.2857 96.3216 77.44C96.4766 77.5428 96.6316 77.6457 96.7866 77.8C96.9417 78.0057 97.0967 78.2114 97.2001 78.4171C97.3034 78.6743 97.4067 78.9314 97.4067 79.1885C97.4067 79.4971 97.3034 79.7543 97.0967 79.8571L97.6651 79.5485C97.8718 79.4457 97.9752 79.1885 97.9752 78.88C97.9752 78.6743 97.8718 78.3657 97.7685 78.1085Z" fill="#333333"/>
<path d="M96.6316 78.5201C96.6316 78.4686 96.5799 78.4172 96.5283 78.3658C96.4766 78.3144 96.4766 78.3144 96.4249 78.2629C96.3732 78.2115 96.2699 78.2115 96.2182 78.2629L96.1149 78.3144C96.1665 78.2629 96.2182 78.3144 96.3216 78.3144C96.3732 78.3144 96.4249 78.3658 96.4249 78.4172C96.4766 78.4687 96.4766 78.5201 96.5283 78.5715C96.5799 78.6229 96.5799 78.7258 96.5799 78.7772C96.5799 78.8801 96.5283 78.9315 96.5283 78.9315L96.6316 78.8801C96.6833 78.8287 96.6833 78.7772 96.6833 78.7258C96.6833 78.6229 96.6316 78.5715 96.6316 78.5201Z" fill="#757575"/>
<path d="M96.3215 78.3144C96.1665 78.2115 96.0632 78.3144 96.0632 78.4686C96.0632 78.6229 96.1665 78.8286 96.3215 78.9315C96.4766 79.0343 96.5799 78.9315 96.5799 78.7772C96.5799 78.5715 96.4766 78.4172 96.3215 78.3144Z" fill="#808083"/>
<path d="M96.9416 74.9201L96.3215 79.0344C96.3215 79.1886 96.2699 79.2915 96.1665 79.3429L96.7349 78.9829C96.8383 78.9315 96.8899 78.8286 96.8899 78.6744L97.51 74.5601L96.9416 74.9201Z" fill="#808083"/>
<path d="M96.1149 73.7886L95.5464 74.1486L96.9417 74.92L97.5617 74.6114L96.1149 73.7886Z" fill="#A9AEAE"/>
<path d="M95.5464 74.1487L95.2364 79.0344L95.7531 79.343C96.0632 79.4973 96.2699 79.3944 96.3216 79.0858L96.9417 74.9715L95.5464 74.1487Z" fill="#5E5E5E"/>
<path d="M94.978 78.5715C94.5646 78.3143 94.2546 78.5201 94.2546 78.9829C94.2546 79.4458 94.5646 80.0115 94.978 80.2172C95.3914 80.4743 95.7015 80.2686 95.7015 79.8058C95.7532 79.3429 95.3914 78.7772 94.978 78.5715Z" fill="#808083"/>
<path d="M94.978 78.7258C94.8747 78.6744 94.7196 78.6229 94.6163 78.6744C94.5646 78.7258 94.5129 78.8287 94.5129 78.983C94.5129 79.343 94.7713 79.7544 95.0814 79.9601C95.1847 80.0115 95.3397 80.063 95.4431 80.0115C95.4948 79.9601 95.5464 79.8572 95.5464 79.703C95.5464 79.343 95.2881 78.9315 94.978 78.7258Z" fill="#5E5E5E"/>
<path d="M95.0814 79.96C94.7713 79.8057 94.513 79.3429 94.513 78.9829C94.513 78.8286 94.5646 78.7257 94.6163 78.6743C94.4613 78.7257 94.4096 78.8286 94.4096 79.0343C94.4096 79.3943 94.668 79.8057 94.978 80.0115C95.1847 80.1143 95.3397 80.1143 95.4431 80.0115C95.3397 80.0629 95.2364 80.0629 95.0814 79.96Z" fill="#757575"/>
<path d="M94.978 78.2114C95.5464 78.5199 96.0115 79.3428 96.0115 80.0114C96.0115 80.6799 95.5464 80.9371 94.978 80.6285C94.4096 80.3199 93.9445 79.4971 93.9445 78.8285C93.9445 78.1599 94.4096 77.8514 94.978 78.2114ZM94.978 80.2171C95.3914 80.4228 95.7015 80.2685 95.7015 79.8057C95.7015 79.3428 95.3914 78.8285 94.978 78.5714C94.5646 78.3657 94.2546 78.5199 94.2546 78.9828C94.3062 79.4457 94.6163 80.0114 94.978 80.2171Z" fill="#262626"/>
<path d="M96.4249 78.88C96.3215 78.6743 96.1665 78.4172 96.0115 78.2629C95.8565 78.1086 95.7014 77.9543 95.5464 77.9029C95.2364 77.7486 94.978 77.6972 94.7713 77.8515L94.2029 78.16C94.4096 78.0572 94.6679 78.0572 94.978 78.2115C95.133 78.3143 95.288 78.4172 95.4431 78.5715C95.5981 78.7772 95.7531 78.9829 95.8565 79.1886C95.9598 79.4457 96.0631 79.7029 96.0631 79.96C96.0631 80.2686 95.9598 80.5258 95.7531 80.6286L96.3215 80.32C96.5282 80.2172 96.6316 79.96 96.6316 79.6515C96.6316 79.4458 96.5282 79.1372 96.4249 78.88Z" fill="#333333"/>
<path d="M95.2881 79.2913C95.2881 79.2399 95.2364 79.1885 95.1847 79.137C95.133 79.0856 95.133 79.0856 95.0814 79.0342C95.0297 78.9827 94.9263 78.9827 94.8747 79.0342L94.7713 79.0856C94.823 79.0342 94.8747 79.0856 94.978 79.0856C95.0297 79.0856 95.0814 79.137 95.0814 79.1885C95.133 79.2399 95.133 79.2913 95.1847 79.3428C95.2364 79.3942 95.2364 79.497 95.2364 79.5485C95.2364 79.6513 95.1847 79.7028 95.1847 79.7028L95.2881 79.6513C95.3397 79.5999 95.3397 79.5485 95.3397 79.4971C95.2881 79.4456 95.2881 79.3428 95.2881 79.2913Z" fill="#757575"/>
<path d="M94.978 79.0856C94.823 78.9827 94.7197 79.0856 94.7197 79.2399C94.7197 79.3942 94.823 79.5999 94.978 79.7027C95.1331 79.8056 95.2364 79.7027 95.2364 79.5485C95.2364 79.3942 95.1331 79.1885 94.978 79.0856Z" fill="#808083"/>
<path d="M98.7502 79.1372C98.3368 78.88 98.0268 79.0857 98.0268 79.5486C98.0268 80.0114 98.3368 80.5772 98.7502 80.7829C99.1636 81.04 99.4737 80.8343 99.4737 80.3715C99.4737 79.96 99.112 79.3943 98.7502 79.1372Z" fill="#808083"/>
<path d="M98.7502 79.343C98.6469 79.2916 98.4919 79.2401 98.3885 79.2916C98.3368 79.343 98.2852 79.4459 98.2852 79.6001C98.2852 79.9601 98.5435 80.3716 98.8536 80.5773C98.9569 80.6287 99.1119 80.6802 99.2153 80.6287C99.267 80.5773 99.3186 80.4744 99.3186 80.3201C99.267 79.9601 99.0603 79.4973 98.7502 79.343Z" fill="#5E5E5E"/>
<path d="M98.8536 80.5772C98.5435 80.3715 98.2852 79.9601 98.2852 79.6001C98.2852 79.4458 98.3368 79.3429 98.3885 79.2915C98.2335 79.3429 98.1818 79.4458 98.1818 79.6515C98.1818 80.0115 98.4402 80.4229 98.7502 80.6287C98.9569 80.7315 99.112 80.7315 99.2153 80.6287C99.0603 80.6801 98.9569 80.6286 98.8536 80.5772Z" fill="#757575"/>
<path d="M98.7502 78.7773C99.3187 79.1373 99.7837 79.9087 99.7837 80.5773C99.7837 81.2458 99.3187 81.503 98.7502 81.1944C98.1818 80.8344 97.7168 80.063 97.7168 79.3944C97.6651 78.7258 98.1301 78.4687 98.7502 78.7773ZM98.7502 80.783C99.1636 80.9887 99.4737 80.8344 99.4737 80.3715C99.4737 79.9087 99.1636 79.3944 98.7502 79.1373C98.3368 78.9315 98.0268 79.0858 98.0268 79.5487C98.0268 80.0115 98.3368 80.5773 98.7502 80.783Z" fill="#262626"/>
<path d="M100.145 79.4972C100.042 79.2915 99.8871 79.0344 99.7321 78.8801C99.577 78.7258 99.422 78.5715 99.267 78.5201C98.957 78.3658 98.6986 78.3144 98.4919 78.4686L97.9235 78.7772C98.1302 78.6744 98.3885 78.6744 98.6986 78.8286C98.8536 78.9315 99.0086 79.0344 99.1636 79.1886C99.3187 79.3944 99.4737 79.6001 99.577 79.8058C99.6804 80.0629 99.7837 80.3201 99.7837 80.5772C99.7837 80.8858 99.6804 81.1429 99.4737 81.2458L100.042 80.9372C100.249 80.8344 100.352 80.5772 100.352 80.2686C100.352 80.0115 100.249 79.7544 100.145 79.4972Z" fill="#333333"/>
<path d="M99.0086 79.8572C99.0086 79.8058 98.9569 79.7544 98.9052 79.703C98.8535 79.6515 98.8536 79.6515 98.8019 79.6001C98.7502 79.5487 98.6468 79.5487 98.5952 79.6001L98.4918 79.6515C98.5435 79.6001 98.5952 79.6515 98.6985 79.6515C98.7502 79.6515 98.8019 79.703 98.8019 79.7544C98.8536 79.8058 98.8535 79.8572 98.9052 79.9087C98.9569 79.9601 98.9569 80.063 98.9569 80.1144C98.9569 80.2172 98.9052 80.2687 98.9052 80.2687L99.0086 80.2172C99.0603 80.1658 99.0603 80.1144 99.0603 80.0629C99.0603 80.0115 99.0086 79.9601 99.0086 79.8572Z" fill="#757575"/>
<path d="M98.6986 79.703C98.5435 79.6002 98.4402 79.703 98.4402 79.8573C98.4402 80.0116 98.5435 80.2173 98.6986 80.3202C98.8536 80.423 98.9569 80.3202 98.9569 80.1659C98.9569 79.9602 98.8536 79.7545 98.6986 79.703Z" fill="#808083"/>
<path d="M99.3186 76.3087L98.6985 80.423C98.6985 80.5773 98.6469 80.6802 98.5435 80.7316L99.1119 80.3716C99.2153 80.3202 99.267 80.2173 99.267 80.063L99.887 75.9487L99.3186 76.3087Z" fill="#808083"/>
<path d="M98.4919 75.1772L97.9235 75.4858L99.3187 76.3087L99.9388 75.9487L98.4919 75.1772Z" fill="#A9AEAE"/>
<path d="M97.9235 75.4858L97.6134 80.3715L98.1301 80.6801C98.4402 80.8344 98.6469 80.7316 98.6986 80.423L99.3186 76.3087L97.9235 75.4858Z" fill="#5E5E5E"/>
<path d="M97.355 79.9087C96.9416 79.6515 96.6316 79.8572 96.6316 80.3201C96.6316 80.7829 96.9416 81.3486 97.355 81.5544C97.7684 81.8115 98.0785 81.6058 98.0785 81.1429C98.1302 80.7315 97.7684 80.1658 97.355 79.9087Z" fill="#808083"/>
<path d="M97.355 80.1145C97.2517 80.0631 97.0967 80.0116 96.9933 80.063C96.9416 80.1145 96.89 80.2173 96.89 80.3716C96.89 80.7316 97.1483 81.1431 97.4584 81.3488C97.5617 81.4002 97.7167 81.4516 97.8201 81.4002C97.8718 81.3488 97.9234 81.2459 97.9234 81.0916C97.9234 80.7316 97.6651 80.3202 97.355 80.1145Z" fill="#5E5E5E"/>
<path d="M97.4584 81.3487C97.1483 81.143 96.89 80.7316 96.89 80.3716C96.89 80.2173 96.9416 80.1144 96.9933 80.063C96.8383 80.1144 96.7866 80.2173 96.7866 80.423C96.7866 80.783 97.045 81.1944 97.355 81.4001C97.5617 81.503 97.7168 81.503 97.8201 81.4001C97.7168 81.4516 97.6134 81.4001 97.4584 81.3487Z" fill="#757575"/>
<path d="M97.355 79.5487C97.9234 79.8573 98.3885 80.6802 98.3885 81.3487C98.3885 82.0173 97.9234 82.2745 97.355 81.9659C96.7866 81.6573 96.3215 80.8345 96.3215 80.1659C96.3215 79.4973 96.7866 79.2402 97.355 79.5487ZM97.355 81.5545C97.7684 81.7602 98.0785 81.6059 98.0785 81.143C98.0785 80.6802 97.7684 80.1659 97.355 79.9087C96.9416 79.703 96.6316 79.8573 96.6316 80.3202C96.6833 80.783 96.9933 81.3487 97.355 81.5545Z" fill="#262626"/>
<path d="M98.8019 80.2687C98.6986 80.063 98.5435 79.8058 98.3885 79.6516C98.2335 79.4973 98.0785 79.343 97.9234 79.2916C97.6134 79.1373 97.355 79.0858 97.1483 79.2401L96.5799 79.5487C96.7866 79.4458 97.045 79.4458 97.355 79.6001C97.51 79.703 97.6651 79.8058 97.8201 79.9601C97.9751 80.1658 98.1301 80.3716 98.2335 80.5773C98.3368 80.8344 98.4402 81.0916 98.4402 81.3487C98.4402 81.6573 98.3368 81.9144 98.1301 82.0173L98.6986 81.7087C98.9053 81.6059 99.0086 81.3487 99.0086 81.0401C98.9569 80.783 98.9053 80.5259 98.8019 80.2687Z" fill="#333333"/>
<path d="M97.6134 80.68C97.6134 80.6286 97.5617 80.5771 97.51 80.5257C97.4584 80.4743 97.4584 80.4743 97.4067 80.4228C97.355 80.3714 97.2517 80.3714 97.2 80.4228L97.0966 80.4743C97.1483 80.4228 97.2 80.4743 97.3033 80.4743C97.355 80.4743 97.4067 80.5257 97.4067 80.5771C97.4584 80.6286 97.4584 80.68 97.51 80.7314C97.5617 80.7829 97.5617 80.8857 97.5617 80.9371C97.5617 81.04 97.51 81.0914 97.51 81.0914L97.6134 81.04C97.6651 80.9886 97.6651 80.9371 97.6651 80.8857C97.6651 80.7829 97.6651 80.7314 97.6134 80.68Z" fill="#757575"/>
<path d="M97.355 80.4743C97.2 80.3714 97.0966 80.4743 97.0966 80.6286C97.0966 80.7828 97.2 80.9885 97.355 81.0914C97.51 81.1943 97.6134 81.0914 97.6134 80.9371C97.6134 80.7314 97.51 80.5257 97.355 80.4743Z" fill="#808083"/>
<path d="M107.793 81.9142L101.851 81.7599L82.9378 70.9085L79.0106 64.7371L102.833 69.6228L107.793 81.9142Z" fill="#07527E"/>
<path d="M60.356 39.8457C65.4718 41.3885 72.2928 44.32 78.6488 47.56C79.734 48.1257 107.535 62.8857 123.554 71.4742C129.6 74.7142 135.181 77.7999 135.801 78.1599C137.145 78.9828 138.333 79.9599 139.418 80.9885C141.279 82.7371 142.519 84.9999 143.345 87.4171C145.361 89.0114 146.756 91.9428 147.014 94.2056C147.118 95.5942 146.343 96.8285 145.051 97.3942C141.02 99.0914 134.147 97.4971 128.36 94.1542C108.879 82.9428 77.9254 64.84 70.5876 60.6228C58.8058 53.8342 53.7933 42.9314 54.2584 40.5142C54.6201 38.4571 57.6689 39.0228 60.356 39.8457Z" fill="url(#paint0_linear_229_6058)"/>
<path d="M146.704 92.8684C146.704 94.6684 144.121 95.9027 138.953 94.8741C132.804 93.6913 102.471 76.7713 81.1292 64.017C77.822 61.9084 74.6699 59.8513 71.7761 56.457C70.7426 55.2227 70.0192 53.7313 70.0708 52.137C70.1742 48.6399 73.1713 45.6056 76.9952 46.737C71.1043 43.857 65.0584 41.2856 60.4077 39.8456C57.7723 39.0227 54.5684 38.4056 54.2067 40.5656C53.8967 42.2627 56.067 46.7884 59.0125 50.6456C61.9062 54.3999 64.2833 56.6627 68.6756 59.5427C73.068 62.4227 79.5273 65.8684 90.3273 72.1427C93.7378 74.097 98.0268 77.697 106.915 81.9141C108.775 82.9941 123.864 91.737 128.308 94.3084C134.096 97.6513 141.123 99.297 145.154 97.5999C146.394 97.0856 147.169 95.697 147.066 94.3599C146.911 93.8456 146.808 93.3313 146.704 92.8684Z" fill="url(#paint1_linear_229_6058)"/>
<path opacity="0.5" d="M134.716 78.1598C133.011 77.0284 122.417 71.1141 114.924 67.0513C114.046 67.4113 113.219 67.8741 112.341 68.2856C119.678 72.3484 130.892 78.5713 132.494 79.5998C136.886 82.4284 138.075 83.817 139.728 83.7656C141.02 83.7141 139.677 81.3998 134.716 78.1598Z" fill="#F2F1E9"/>
<path opacity="0.2" d="M109.757 71.217C110.119 71.6285 111.876 72.9656 111.876 72.9656C109.705 72.9656 106.398 74.1485 105.933 74.4056C117.301 80.9885 128.618 87.4685 130.117 86.9542C134.871 85.3085 121.59 77.5428 109.757 71.217Z" fill="#F2F1E9"/>
<path opacity="0.3" d="M131.409 76.1543C131.822 76.1543 132.132 76.2057 132.494 76.3086C132.339 76.2057 132.184 76.1028 131.977 76.0514C131.77 76.0514 131.615 76 131.409 76C128.515 76 124.898 78.7771 122.779 82.4286C122.521 82.8914 122.262 83.3543 122.056 83.8686C121.435 85.2571 121.177 86.5943 121.177 87.7771C109.137 80.8857 94.0479 72.04 83.9196 66.1771C79.9407 63.8628 76.5302 61.8571 73.7914 60.2628C73.8431 59.2857 74.1014 58.1543 74.6182 56.92C76.3235 53.0629 80.044 49.9257 82.9378 49.9257C82.9895 49.9257 83.0412 49.9257 83.0928 49.9257C82.9895 49.8743 82.8861 49.8229 82.7828 49.7714C79.8373 49.8743 76.1684 53.0114 74.4632 56.8686C73.9464 58.0514 73.6881 59.1828 73.6364 60.16C71.9828 59.1828 70.6392 58.4114 69.6058 57.7943C64.5933 54.9143 60.7177 51.8286 57.8756 49C58.0306 49.2571 58.2373 49.5143 58.444 49.7714C61.2345 52.3943 64.9034 55.2743 69.5024 57.8971C70.5876 58.5143 71.9828 59.3371 73.6364 60.3143C73.6364 61.3428 73.8947 62.2171 74.3598 62.8343C74.5148 62.9371 74.7215 63.04 74.8766 63.1428C74.2048 62.5257 73.7914 61.6 73.7914 60.4171C76.4785 62.0114 79.889 63.9657 83.8163 66.28C93.9445 72.1943 109.085 81.04 121.125 87.9314C121.177 88.96 121.435 89.8857 121.952 90.5028C122.107 90.6057 122.262 90.7085 122.417 90.76C120.97 89.5257 120.867 86.8514 122.159 83.8171C124.071 79.6 128.205 76.1543 131.409 76.1543Z" fill="#C1C0B6"/>
<path d="M78.9072 7.03424L62.3713 21.64V22.3085L78.9072 7.70281C79.0105 7.59996 79.0622 7.54853 79.0622 7.44567V6.7771C79.0105 6.87996 78.9589 6.93139 78.9072 7.03424Z" fill="#DAD9CF"/>
<path d="M62.3713 21.6399V22.3599L55.1885 18.1942V17.5256L62.3713 21.6399Z" fill="#707576"/>
<path d="M78.8038 6.41708C79.0622 6.57137 79.1139 6.82851 78.9072 7.03422L62.3713 21.6399L55.1885 17.5257L74.9799 4.97708C75.29 4.77137 75.8584 4.77136 76.1684 4.92565L78.8038 6.41708Z" fill="#F4F3EB"/>
<path d="M65.4201 39.6399L66.6603 38.9199L71.001 45.9656L69.7091 46.6856L65.4201 39.6399Z" fill="#F4F3EB"/>
<path d="M60.5627 23.2342L61.8546 22.5142L66.6603 38.9199L65.4201 39.6399L60.5627 23.2342Z" fill="#DAD9CF"/>
<path d="M53.5866 19.2227L54.8785 18.5027L61.8546 22.5141L60.5627 23.2341L53.5866 19.2227Z" fill="#B1BABC"/>
<path d="M65.4201 39.6398L60.6144 23.2341L53.6383 19.2227L54.9302 39.4855C59.2708 40.9255 64.3866 43.5484 69.7608 46.6855L65.4201 39.6398Z" fill="#C1C0B6"/>
<path opacity="0.4" d="M62.0613 28.2741L60.5627 23.2341L53.5866 19.2227L54.4134 32.3884C56.8938 30.8455 59.4258 29.4055 62.0613 28.2741Z" fill="#C1C0B6"/>
<path d="M52.2431 16.3943C52.1397 16.3943 52.0881 16.3943 51.933 16.4457C51.6747 16.6 51.4163 17.0114 51.4163 17.32C51.4163 17.4229 51.468 17.5257 51.5196 17.5771L53.2766 19.6857C53.1732 19.5314 53.0699 19.3257 53.0699 19.0686C53.0699 18.2971 53.5866 17.4229 54.2584 17.0114C54.5168 16.8571 54.7235 16.8057 54.9302 16.8571L52.2431 16.3943Z" fill="#C1C0B6"/>
<path d="M55.1885 16.9086C54.9818 16.8058 54.6718 16.8058 54.3101 17.0115C53.6383 17.4229 53.1216 18.2972 53.1216 19.0686C53.1216 19.4286 53.2766 19.6858 53.4833 19.8401L60.9761 24.1086C60.7694 24.0058 60.6144 23.7486 60.6144 23.3372C60.6144 22.5658 61.1311 21.6915 61.8029 21.2801C62.1129 21.0743 62.423 21.0743 62.6814 21.1772L55.1885 16.9086Z" fill="url(#paint2_linear_229_6058)"/>
<path d="M62.733 21.2801C62.5263 21.0743 62.1646 21.0229 61.7512 21.2801C61.0794 21.6915 60.5627 22.5658 60.5627 23.3372C60.5627 23.8001 60.7694 24.0572 61.0278 24.1601L62.7847 24.6229C62.578 24.5715 62.423 24.3658 62.423 24.0572C62.423 23.5429 62.7847 22.8743 63.2498 22.5658C63.5598 22.4115 63.7665 22.4115 63.9732 22.5658L62.733 21.2801Z" fill="url(#paint3_linear_229_6058)"/>
<path d="M63.3531 22.5658C62.8881 22.8229 62.5263 23.4915 62.5263 24.0572C62.5263 24.5715 62.9397 24.8286 63.4048 24.5201C63.8699 24.2629 64.2316 23.5944 64.2316 23.0286C64.2316 22.5144 63.8182 22.3086 63.3531 22.5658Z" fill="#DAD9CF"/>
<path d="M63.3531 22.8229C62.9914 23.0286 62.733 23.5429 62.733 23.9029C62.733 24.3143 63.0431 24.4686 63.3531 24.2629C63.7149 24.0572 63.9732 23.5429 63.9732 23.1829C64.0249 22.7715 63.7149 22.6172 63.3531 22.8229Z" fill="#3F4146"/>
<path d="M34.9837 32.3369C34.6737 32.4398 34.2086 32.4398 33.9503 32.2855L31.3665 30.7941C31.2115 30.6912 31.1082 30.5884 31.1082 30.4341V31.1027C31.1082 31.2055 31.2115 31.3598 31.3665 31.4627L33.9503 32.9541C34.2086 33.1084 34.6737 33.1598 34.9837 33.0055L60.3043 23.4398V22.7712L34.9837 32.3369Z" fill="#DAD9CF"/>
<path d="M60.3044 22.7713L34.9838 32.337C34.6738 32.4398 34.2087 32.4398 33.9503 32.2856L31.3666 30.7941C31.0049 30.5884 31.0565 30.2798 31.4183 30.1256L53.1733 18.657L60.3044 22.7713Z" fill="#F4F3EB"/>
<path d="M143.345 87.4686C143.087 86.6457 142.777 85.9257 142.364 85.1543C142.57 87.3143 138.591 88.6514 135.026 87.9314L134.716 90.1429C141.02 90.9143 143.19 88.7029 143.345 87.4686Z" fill="#2D2A2A"/>
<path d="M144.586 42.2114C141.02 40.8228 137.351 44.1143 138.075 46.5314C138.798 47.3543 146.549 51.9828 148.255 52.3428L151.923 46.48C151.872 46.48 152.285 45.76 144.586 42.2114Z" fill="url(#paint4_linear_229_6058)"/>
<path d="M147.376 43.6514C147.428 43.7028 148.306 45.5542 147.893 45.5028C145.568 45.1428 142.622 47.1485 142.467 48.2285C144.327 49.2057 146.963 50.5942 147.324 50.7485L151.613 46.7885C151.768 46.6857 151.768 46.4285 151.613 46.3257C150.838 45.4514 149.288 44.7314 147.376 43.6514Z" fill="url(#paint5_linear_229_6058)"/>
<path d="M149.753 46.2743C148.358 47.0972 147.221 49 147.221 50.5943C147.221 52.1886 148.358 52.8572 149.753 52.0343C151.148 51.2114 152.285 49.3086 152.285 47.7143C152.285 46.12 151.148 45.4515 149.753 46.2743Z" fill="#DAD9CF"/>
<path d="M149.753 46.5829C148.513 47.3029 147.531 49 147.531 50.44C147.531 51.88 148.513 52.4457 149.753 51.7257C150.993 51.0057 151.975 49.3086 151.975 47.8686C151.975 46.4286 150.993 45.8629 149.753 46.5829Z" fill="url(#paint6_linear_229_6058)"/>
<path d="M146.136 42.5715L146.653 42.2629L148.41 45.1944L147.893 45.5029L146.136 42.5715Z" fill="#F8F7EF"/>
<path d="M145.051 38.9714L146.084 42.5714L146.601 42.2629L145.723 39.28C145.516 39.1771 145.309 39.0743 145.051 38.9714Z" fill="#DAD9CF"/>
<path d="M145.051 38.9714C143.862 38.4571 142.622 37.9428 141.434 37.48L141.072 42.4171C141.072 42.4171 145.257 44.4228 147.893 45.5028L146.084 42.5714L145.051 38.9714Z" fill="#C1C0B6"/>
<path d="M133.062 52.6001C129.497 51.2115 125.828 54.5029 126.551 56.9201C127.275 57.7429 135.026 62.3715 136.731 62.7315L140.4 56.8687C140.4 56.8687 140.762 56.1487 133.062 52.6001Z" fill="url(#paint7_linear_229_6058)"/>
<path d="M135.853 54.04C135.904 54.0915 136.783 55.9429 136.369 55.8915C134.044 55.5315 131.099 57.5372 130.944 58.6172C132.804 59.5943 135.439 60.9829 135.801 61.1372L140.09 57.1772C140.245 57.0743 140.245 56.8172 140.09 56.7143C139.315 55.84 137.816 55.12 135.853 54.04Z" fill="url(#paint8_linear_229_6058)"/>
<path d="M138.23 56.663C136.834 57.4858 135.698 59.3887 135.698 60.983C135.698 62.5773 136.834 63.2458 138.23 62.423C139.625 61.6001 140.762 59.6973 140.762 58.103C140.762 56.5087 139.625 55.8401 138.23 56.663Z" fill="#DAD9CF"/>
<path d="M138.23 56.9715C136.99 57.6915 136.008 59.3887 136.008 60.8287C136.008 62.2687 136.99 62.8344 138.23 62.1144C139.47 61.3944 140.452 59.6972 140.452 58.2572C140.503 56.8172 139.47 56.2515 138.23 56.9715Z" fill="url(#paint9_linear_229_6058)"/>
<path d="M134.612 52.9602L135.129 52.6516L136.938 55.583L136.421 55.8402L134.612 52.9602Z" fill="#F8F7EF"/>
<path d="M133.579 49.3601L134.612 52.9601L135.129 52.6515L134.251 49.6687C134.044 49.5658 133.786 49.463 133.579 49.3601Z" fill="#DAD9CF"/>
<path d="M133.579 49.3601C132.39 48.8458 131.15 48.3315 129.962 47.8687L129.6 52.8058C129.6 52.8058 133.786 54.8115 136.421 55.8915L134.612 52.9601L133.579 49.3601Z" fill="#C1C0B6"/>
<path d="M168.563 19.1714L115.906 66.8456V67.7199L168.563 20.0456C168.666 19.9428 168.718 19.8399 168.718 19.7371V18.8628C168.718 18.9657 168.666 19.0685 168.563 19.1714Z" fill="#DAD9CF"/>
<path d="M115.906 66.8456V67.7199L97.3033 57.0742V56.1484L115.906 66.8456Z" fill="#707576"/>
<path d="M168.408 18.4513C168.769 18.657 168.821 18.9656 168.563 19.2227L115.906 66.897L97.3033 56.1999L161.38 15.3656C161.793 15.1085 162.517 15.1085 162.93 15.3142L168.408 18.4513Z" fill="#F4F3EB"/>
<path d="M168.408 18.4514L167.839 18.1428L110.739 63.9142L115.906 66.8457L168.563 19.1714C168.821 18.9657 168.769 18.6057 168.408 18.4514Z" fill="#F8F7EF"/>
<path d="M115.958 65.92C114.459 64.2228 112.857 62.8343 111.204 61.9086L106.191 59.0286C102.212 56.7657 97.1484 55.6343 93.4278 55.84C92.4976 55.7886 89.6039 57.6914 88.002 59.2343C91.7225 59.2857 95.7015 60.4686 99.6287 62.7828L104.641 65.6628C106.243 66.5886 107.845 67.9771 109.395 69.6743C110.274 70.6514 111.101 71.7828 111.927 73.0171C113.994 70.8057 116.32 69.0057 117.922 68.9543C117.146 67.72 116.785 66.8971 115.958 65.92Z" fill="url(#paint10_linear_229_6058)"/>
<path d="M104.693 65.6629L99.6804 62.783C95.7014 60.5201 91.7742 59.2858 88.0536 59.2344L111.979 72.9658C109.757 69.6744 107.225 67.1544 104.693 65.6629Z" fill="#C1C0B6"/>
<path d="M83.7646 80.937C80.1991 79.5484 76.5302 82.8398 77.2536 85.257C77.9771 86.0799 85.7282 90.7084 87.4335 91.0684L91.1024 85.2056C91.0507 85.2056 91.4125 84.4856 83.7646 80.937Z" fill="url(#paint11_linear_229_6058)"/>
<path d="M86.555 82.377C86.6067 82.4284 87.4852 84.2798 87.0718 84.2284C84.7464 83.8684 81.801 85.8741 81.6459 86.9541C83.5062 87.9312 86.1416 89.3198 86.5033 89.4741L90.7923 85.5141C90.9474 85.4112 90.9474 85.1541 90.7923 85.0512C90.0172 84.177 88.467 83.4055 86.555 82.377Z" fill="url(#paint12_linear_229_6058)"/>
<path d="M88.9321 84.9999C87.5369 85.8228 86.4 87.7256 86.4 89.3199C86.4 90.9142 87.5369 91.5828 88.9321 90.7599C90.3273 89.937 91.4641 88.0342 91.4641 86.4399C91.4125 84.8456 90.3273 84.177 88.9321 84.9999Z" fill="#DAD9CF"/>
<path d="M88.9321 85.3084C87.6919 86.0284 86.7101 87.7256 86.7101 89.1656C86.7101 90.6056 87.6919 91.1713 88.9321 90.4513C90.1723 89.7313 91.1541 88.0341 91.1541 86.5942C91.1541 85.1542 90.1723 84.5884 88.9321 85.3084Z" fill="url(#paint13_linear_229_6058)"/>
<path d="M85.3148 81.2971L85.8316 80.9885L87.5885 83.8685L87.0717 84.1771L85.3148 81.2971Z" fill="#F8F7EF"/>
<path d="M84.2297 77.697L85.2632 81.297L85.7799 80.9885L84.9014 78.0056C84.6947 77.9027 84.488 77.7999 84.2297 77.697Z" fill="#DAD9CF"/>
<path d="M84.2297 77.697C83.0412 77.1827 81.801 76.6684 80.6125 76.2056L80.2507 81.1427C80.2507 81.1427 84.4364 83.1484 87.0718 84.2284L85.2632 81.297L84.2297 77.697Z" fill="#C1C0B6"/>
<path d="M65.4718 87.417C61.9062 86.0284 58.2373 89.3198 58.9608 91.737C59.6842 92.5598 67.4354 97.1884 69.1407 97.5484L72.8096 91.6856C72.7579 91.6856 73.1196 90.9655 65.4718 87.417Z" fill="url(#paint14_linear_229_6058)"/>
<path d="M68.2622 88.8569C68.3139 88.9084 69.1924 90.7598 68.779 90.7084C66.4536 90.3484 63.5081 92.3541 63.3531 93.4341C65.2134 94.4112 67.8488 95.7998 68.2105 95.9541L72.4995 91.9941C72.6546 91.8912 72.6546 91.6341 72.4995 91.5312C71.7244 90.6055 70.1742 89.8855 68.2622 88.8569Z" fill="url(#paint15_linear_229_6058)"/>
<path d="M70.6392 91.4799C69.244 92.3027 68.1072 94.2056 68.1072 95.7999C68.1072 97.3942 69.244 98.0627 70.6392 97.2399C72.0344 96.417 73.1713 94.5142 73.1713 92.9199C73.1196 91.3256 72.0344 90.657 70.6392 91.4799Z" fill="#DAD9CF"/>
<path d="M70.6392 91.7884C69.3991 92.5084 68.4172 94.2056 68.4172 95.6456C68.4172 97.0856 69.3991 97.6513 70.6392 96.9313C71.8794 96.2113 72.8613 94.5141 72.8613 93.0741C72.8613 91.6341 71.8794 91.0684 70.6392 91.7884Z" fill="url(#paint16_linear_229_6058)"/>
<path d="M66.9703 87.7771L67.5388 87.4685L69.2957 90.3485L68.779 90.6571L66.9703 87.7771Z" fill="#F8F7EF"/>
<path d="M65.9368 84.177L66.9703 87.777L67.4871 87.4684L66.6603 84.4856C66.4019 84.3827 66.1952 84.2799 65.9368 84.177Z" fill="#DAD9CF"/>
<path d="M65.9368 84.177C64.7483 83.6627 63.5081 83.1484 62.3196 82.6855L61.9579 87.6227C61.9579 87.6227 66.1435 89.6284 68.7789 90.7084L66.9703 87.777L65.9368 84.177Z" fill="#C1C0B6"/>
<path d="M27.5426 100.737C27.1292 100.892 26.5608 100.84 26.1991 100.686L20.7732 97.5486C20.5665 97.4458 20.4632 97.2915 20.4632 97.1372V98.0115C20.4632 98.1658 20.5665 98.3201 20.7732 98.4229L26.1991 101.56C26.5608 101.766 27.1292 101.817 27.5426 101.612L109.912 71.1658V70.2915L27.5426 100.737Z" fill="#DAD9CF"/>
<path d="M91.3091 59.5942C97.4067 60.5714 105.881 64.8914 109.912 70.2914L27.5426 100.737C27.1292 100.891 26.5607 100.84 26.199 100.686L20.7732 97.5485C20.3598 97.2914 20.3598 96.88 20.8248 96.6742L91.3091 59.5942Z" fill="#F4F3EB"/>
<path d="M25.4756 100.274L26.1474 100.686C26.5091 100.891 27.0775 100.943 27.4909 100.737L109.86 70.2912C108.878 68.9541 107.638 67.7198 106.191 66.5884L25.4756 100.274Z" fill="#F8F7EF"/>
<path opacity="0.4" d="M123.554 42.6227L120.609 41.2856L120.764 41.1827L123.554 42.4685L136.679 33.4685L134.406 32.4913L134.561 32.3885L136.834 33.417L136.886 33.4685C136.886 33.5199 136.886 33.5199 136.834 33.5199L123.554 42.6227C123.606 42.6227 123.606 42.6227 123.554 42.6227ZM139.056 32.0285C139.108 32.0285 153.267 22.3085 153.267 22.3085L153.319 22.257C153.319 22.2056 153.319 22.2056 153.267 22.2056L151.665 21.4856L151.51 21.5885L153.06 22.257L139.056 31.8227L136.886 30.8456L136.731 30.9485L139.056 32.0285ZM33.5368 91.8399C33.5885 91.8399 51.3129 83.0456 51.3129 83.0456C51.3646 83.0456 51.3646 82.9942 51.3646 82.9942C51.3646 82.9427 51.3646 82.9427 51.3129 82.9427L48.9359 81.8627L48.7809 81.9656L51.1579 82.9942L33.5885 91.6856L31.7799 90.8627L31.6249 90.9656L33.5368 91.8399C33.5368 91.8399 33.4852 91.8399 33.5368 91.8399ZM53.8967 81.7599C53.9483 81.7599 68.3656 74.5599 68.3656 74.5599C68.4172 74.5599 68.4172 74.5085 68.4172 74.5085C68.4172 74.457 68.4172 74.457 68.3656 74.457L65.4718 73.1713L65.3167 73.2742L68.2105 74.5599L53.9483 81.657L51.5196 80.577L51.3646 80.6799L53.8967 81.7599Z" fill="#C1C0B6"/>
<path opacity="0.4" d="M137.61 58.3598C137.196 58.5655 136.886 59.1313 136.886 59.5941C136.886 60.057 137.196 60.2627 137.61 60.0055C138.023 59.7998 138.333 59.2341 138.333 58.7713C138.333 58.3084 138.023 58.1027 137.61 58.3598Z" fill="#DAD9CF"/>
<path opacity="0.4" d="M149.185 47.8685C148.771 48.0742 148.461 48.6399 148.461 49.1027C148.461 49.5656 148.771 49.7713 149.185 49.5142C149.598 49.3085 149.908 48.7427 149.908 48.2799C149.908 47.817 149.598 47.6627 149.185 47.8685Z" fill="#DAD9CF"/>
<path opacity="0.4" d="M70.1225 92.9714C69.7091 93.1771 69.399 93.7428 69.399 94.2057C69.399 94.6685 69.7091 94.8743 70.1225 94.6171C70.5359 94.4114 70.8459 93.8457 70.8459 93.3828C70.8459 92.92 70.5359 92.7143 70.1225 92.9714Z" fill="#DAD9CF"/>
<path opacity="0.4" d="M88.467 86.3884C88.0536 86.5941 87.7435 87.1598 87.7435 87.6227C87.7435 88.0856 88.0536 88.2913 88.467 88.0341C88.8804 87.8284 89.1904 87.2627 89.1904 86.7998C89.1904 86.337 88.8804 86.1312 88.467 86.3884Z" fill="#DAD9CF"/>
<path d="M56.9455 34.497L56.5837 34.2912C56.4287 34.1884 56.2737 34.137 56.1703 34.1884C56.067 34.2398 56.0153 34.3427 56.0153 34.497V35.5255C56.0153 35.6798 56.067 35.8341 56.1703 35.9884C56.2737 36.1427 56.377 36.2455 56.5837 36.3484L56.9455 36.5541C57.1005 36.657 57.2555 36.657 57.3589 36.657C57.4622 36.6055 57.5139 36.5027 57.5139 36.3484V36.1941C57.5139 36.1427 57.5139 36.0913 57.4622 36.0913L57.2038 35.937C57.1522 35.8855 57.1522 35.937 57.1522 35.9884V36.1427C57.1522 36.1941 57.1522 36.2455 57.1005 36.2455C57.0488 36.2455 56.9971 36.2455 56.9455 36.1941L56.7388 36.0913C56.6871 36.0398 56.6354 35.9884 56.5837 35.9884C56.5321 35.937 56.5321 35.8855 56.5321 35.8341V34.857C56.5321 34.8055 56.5321 34.7541 56.5837 34.7541C56.6354 34.7541 56.6354 34.7541 56.7388 34.8055L56.9455 34.9084C56.9971 34.9598 57.0488 35.0113 57.1005 35.0113C57.1522 35.0627 57.1522 35.1141 57.1522 35.1655V35.3198C57.1522 35.3713 57.1522 35.4227 57.2038 35.4227L57.4622 35.577C57.5139 35.6284 57.5139 35.577 57.5139 35.5255V35.3713C57.5139 35.217 57.4622 35.0627 57.3589 34.9084C57.2555 34.7027 57.1522 34.5484 56.9455 34.497Z" fill="#3F3B34"/>
<path d="M58.6507 35.4741L58.2373 35.2169C58.1857 35.1655 58.134 35.2169 58.134 35.2169L57.6172 36.8627C57.6172 36.9141 57.6172 36.9141 57.6689 36.9655L57.979 37.1198C58.0306 37.0684 58.134 36.8112 58.134 36.8112L58.7541 37.1712L58.8574 37.5827C58.8574 37.6341 58.8574 37.6341 58.8574 37.6341C58.8574 37.6341 58.8574 37.6855 58.9091 37.6855L59.2192 37.8398C59.2708 37.8398 59.2708 37.8398 59.2708 37.7884L58.7541 35.577C58.7541 35.5255 58.7024 35.4741 58.6507 35.4741ZM58.2373 36.5027L58.4957 35.6798L58.7541 36.7598L58.2373 36.5027Z" fill="#3F3B34"/>
<path d="M60.5627 37.8398C60.7694 37.8398 60.8727 37.7369 60.8727 37.5312V37.2741C60.8727 37.1198 60.821 36.9655 60.7177 36.8112C60.6143 36.6569 60.511 36.5541 60.3043 36.4512L59.5292 35.9883C59.4775 35.9369 59.4775 35.9883 59.4775 36.0398V37.9941C59.4775 38.0455 59.4775 38.0969 59.5292 38.0969L59.7876 38.2512C59.8392 38.3026 59.8392 38.2512 59.8392 38.1998V37.5312C59.8909 37.5312 60.0976 37.6341 60.0976 37.6341L60.4077 38.5083C60.4077 38.5598 60.4077 38.5598 60.4593 38.6112C60.4593 38.6112 60.511 38.6626 60.5627 38.6626L60.821 38.8169C60.8727 38.8683 60.8727 38.8169 60.8727 38.7655L60.5627 37.8398ZM60.4593 37.2741C60.4593 37.3255 60.4593 37.3769 60.4077 37.3769C60.356 37.3769 60.3043 37.3769 60.2526 37.3255L59.9426 37.1712L59.8909 37.1198V36.5541C59.9426 36.5541 60.2526 36.7083 60.2526 36.7083C60.3043 36.7598 60.356 36.8112 60.4077 36.8626C60.4593 36.9141 60.4593 36.9655 60.4593 37.0169V37.2741Z" fill="#3F3B34"/>
<path d="M62.0096 37.3768L61.6479 37.1711C61.4928 37.0683 61.3378 37.0168 61.2345 37.0683C61.1311 37.1197 61.0794 37.2226 61.0794 37.3768V38.4054C61.0794 38.5597 61.1311 38.714 61.2345 38.8683C61.3378 39.0226 61.4412 39.1254 61.6479 39.2283L62.0096 39.434C62.1646 39.5368 62.3196 39.5368 62.423 39.5368C62.5263 39.4854 62.578 39.3826 62.578 39.2283V38.714C62.578 38.6626 62.578 38.6111 62.5263 38.6111L61.9579 38.3026C61.9062 38.2511 61.9062 38.3026 61.9062 38.354V38.5597C61.9062 38.6111 61.9062 38.6626 61.9579 38.6626L62.1646 38.7654L62.2163 38.8168V39.0226C62.2163 39.074 62.2163 39.1254 62.1646 39.1254C62.1129 39.1254 62.1129 39.1254 62.0096 39.074L61.8029 38.9711C61.7512 38.9197 61.6995 38.8683 61.6479 38.8683C61.5962 38.8168 61.5962 38.7654 61.5962 38.714V37.7368C61.5962 37.6854 61.5962 37.634 61.6479 37.634C61.6995 37.634 61.6995 37.634 61.8029 37.6854L62.0096 37.7883C62.0613 37.8397 62.1129 37.8911 62.1646 37.8911C62.2163 37.9426 62.2163 37.994 62.2163 38.0454V38.1483C62.2163 38.1997 62.2163 38.2511 62.268 38.2511L62.5263 38.4054C62.578 38.4568 62.578 38.4054 62.578 38.354V38.1997C62.578 38.0454 62.5263 37.8911 62.423 37.7368C62.3196 37.5826 62.2163 37.4797 62.0096 37.3768Z" fill="#3F3B34"/>
<path d="M64.1282 38.7142C64.0249 38.5599 63.9215 38.4571 63.7148 38.3542L63.3531 38.1485C63.1981 38.0457 63.0431 38.0457 62.9397 38.0457C62.8364 38.0971 62.7847 38.1999 62.7847 38.3542V39.3828C62.7847 39.5371 62.8364 39.6914 62.9397 39.8457C63.0431 39.9999 63.1464 40.1028 63.3531 40.2057L63.7148 40.4114C63.8699 40.5142 64.0249 40.5142 64.1282 40.5142C64.2316 40.4628 64.2833 40.3599 64.2833 40.2057V39.1771C64.2833 39.0228 64.2316 38.8685 64.1282 38.7142ZM63.8699 39.9485C63.8699 39.9999 63.8699 40.0514 63.8182 40.0514C63.7665 40.0514 63.7148 40.0514 63.6632 39.9999L63.4565 39.8457C63.4048 39.7942 63.3531 39.7428 63.3014 39.7428C63.2498 39.6914 63.2498 39.6399 63.2498 39.5885V38.6114C63.2498 38.5599 63.2498 38.5085 63.3014 38.5085C63.3531 38.5085 63.3531 38.5085 63.4565 38.5599L63.6632 38.7142C63.7148 38.7657 63.7665 38.8171 63.8182 38.8171C63.8699 38.8685 63.8699 38.9199 63.8699 38.9714V39.9485Z" fill="#3F3B34"/>
<path d="M64.2833 41.3885L56.067 36.7085V38.2514L64.2833 41.3885Z" fill="#A22B1D"/>
</g>
<defs>
<linearGradient id="paint0_linear_229_6058" x1="104.183" y1="61.6675" x2="96.0956" y2="75.7415" gradientUnits="userSpaceOnUse">
<stop stop-color="#F4F3EB"/>
<stop offset="0.2085" stop-color="#F0EFE7"/>
<stop offset="0.419" stop-color="#E4E3DB"/>
<stop offset="0.6297" stop-color="#D1D0C7"/>
<stop offset="0.7621" stop-color="#C1C0B6"/>
<stop offset="0.9486" stop-color="#C4C3B9"/>
<stop offset="1" stop-color="#C7C6BC"/>
</linearGradient>
<linearGradient id="paint1_linear_229_6058" x1="106.161" y1="58.2069" x2="98.2395" y2="71.9935" gradientUnits="userSpaceOnUse">
<stop stop-color="#0F6EA1"/>
<stop offset="1" stop-color="#07527E"/>
</linearGradient>
<linearGradient id="paint2_linear_229_6058" x1="58.4894" y1="18.8038" x2="56.8119" y2="21.7231" gradientUnits="userSpaceOnUse">
<stop stop-color="#F4F3EB"/>
<stop offset="0.5015" stop-color="#D7D6CD"/>
<stop offset="0.9543" stop-color="#C1C0B6"/>
</linearGradient>
<linearGradient id="paint3_linear_229_6058" x1="63.0525" y1="21.4257" x2="61.3851" y2="24.3276" gradientUnits="userSpaceOnUse">
<stop stop-color="#F4F3EB"/>
<stop offset="0.2736" stop-color="#F0EFE7"/>
<stop offset="0.5498" stop-color="#E4E3DB"/>
<stop offset="0.8263" stop-color="#D1D0C7"/>
<stop offset="1" stop-color="#C1C0B6"/>
</linearGradient>
<linearGradient id="paint4_linear_229_6058" x1="146.096" y1="43.8213" x2="142.969" y2="49.2645" gradientUnits="userSpaceOnUse">
<stop stop-color="#F4F3EB"/>
<stop offset="0.2085" stop-color="#F0EFE7"/>
<stop offset="0.419" stop-color="#E4E3DB"/>
<stop offset="0.6297" stop-color="#D1D0C7"/>
<stop offset="0.7621" stop-color="#C1C0B6"/>
<stop offset="0.9486" stop-color="#C4C3B9"/>
<stop offset="1" stop-color="#C7C6BC"/>
</linearGradient>
<linearGradient id="paint5_linear_229_6058" x1="146.494" y1="51.3734" x2="147.691" y2="43.8215" gradientUnits="userSpaceOnUse">
<stop/>
<stop offset="0.1261" stop-color="#181817"/>
<stop offset="0.3928" stop-color="#565552"/>
<stop offset="0.7749" stop-color="#B7B7B1"/>
<stop offset="1" stop-color="#F4F3EB"/>
</linearGradient>
<linearGradient id="paint6_linear_229_6058" x1="148.625" y1="47.2297" x2="150.849" y2="51.1001" gradientUnits="userSpaceOnUse">
<stop stop-color="#818077"/>
<stop offset="0.0785364" stop-color="#84837A"/>
<stop offset="0.5542" stop-color="#919085"/>
<stop offset="1" stop-color="#959489"/>
</linearGradient>
<linearGradient id="paint7_linear_229_6058" x1="134.592" y1="54.2014" x2="131.465" y2="59.6447" gradientUnits="userSpaceOnUse">
<stop stop-color="#F4F3EB"/>
<stop offset="0.2085" stop-color="#F0EFE7"/>
<stop offset="0.419" stop-color="#E4E3DB"/>
<stop offset="0.6297" stop-color="#D1D0C7"/>
<stop offset="0.7621" stop-color="#C1C0B6"/>
<stop offset="0.9486" stop-color="#C4C3B9"/>
<stop offset="1" stop-color="#C7C6BC"/>
</linearGradient>
<linearGradient id="paint8_linear_229_6058" x1="134.99" y1="61.7536" x2="136.187" y2="54.2016" gradientUnits="userSpaceOnUse">
<stop/>
<stop offset="0.1261" stop-color="#181817"/>
<stop offset="0.3928" stop-color="#565552"/>
<stop offset="0.7749" stop-color="#B7B7B1"/>
<stop offset="1" stop-color="#F4F3EB"/>
</linearGradient>
<linearGradient id="paint9_linear_229_6058" x1="137.121" y1="57.6098" x2="139.345" y2="61.4802" gradientUnits="userSpaceOnUse">
<stop stop-color="#818077"/>
<stop offset="0.0785364" stop-color="#84837A"/>
<stop offset="0.5542" stop-color="#919085"/>
<stop offset="1" stop-color="#959489"/>
</linearGradient>
<linearGradient id="paint10_linear_229_6058" x1="96.8487" y1="53.5373" x2="108.999" y2="74.6825" gradientUnits="userSpaceOnUse">
<stop stop-color="#E2E1D8"/>
<stop offset="0.0823678" stop-color="#E8E7DE"/>
<stop offset="0.3044" stop-color="#F1F0E8"/>
<stop offset="0.5825" stop-color="#F4F3EB"/>
<stop offset="0.7622" stop-color="#F1F0E8"/>
<stop offset="0.8877" stop-color="#E9E8DF"/>
<stop offset="0.9965" stop-color="#DBDAD0"/>
<stop offset="1" stop-color="#DAD9CF"/>
</linearGradient>
<linearGradient id="paint11_linear_229_6058" x1="85.2716" y1="82.5341" x2="82.1441" y2="87.9774" gradientUnits="userSpaceOnUse">
<stop stop-color="#F4F3EB"/>
<stop offset="0.2085" stop-color="#F0EFE7"/>
<stop offset="0.419" stop-color="#E4E3DB"/>
<stop offset="0.6297" stop-color="#D1D0C7"/>
<stop offset="0.7621" stop-color="#C1C0B6"/>
<stop offset="0.9486" stop-color="#C4C3B9"/>
<stop offset="1" stop-color="#C7C6BC"/>
</linearGradient>
<linearGradient id="paint12_linear_229_6058" x1="85.6695" y1="90.0863" x2="86.8665" y2="82.5343" gradientUnits="userSpaceOnUse">
<stop/>
<stop offset="0.1261" stop-color="#181817"/>
<stop offset="0.3928" stop-color="#565552"/>
<stop offset="0.7749" stop-color="#B7B7B1"/>
<stop offset="1" stop-color="#F4F3EB"/>
</linearGradient>
<linearGradient id="paint13_linear_229_6058" x1="87.8004" y1="85.9424" x2="90.0244" y2="89.8129" gradientUnits="userSpaceOnUse">
<stop stop-color="#818077"/>
<stop offset="0.0785364" stop-color="#84837A"/>
<stop offset="0.5542" stop-color="#919085"/>
<stop offset="1" stop-color="#959489"/>
</linearGradient>
<linearGradient id="paint14_linear_229_6058" x1="66.9734" y1="89.0103" x2="63.846" y2="94.4535" gradientUnits="userSpaceOnUse">
<stop stop-color="#F4F3EB"/>
<stop offset="0.2085" stop-color="#F0EFE7"/>
<stop offset="0.419" stop-color="#E4E3DB"/>
<stop offset="0.6297" stop-color="#D1D0C7"/>
<stop offset="0.7621" stop-color="#C1C0B6"/>
<stop offset="0.9486" stop-color="#C4C3B9"/>
<stop offset="1" stop-color="#C7C6BC"/>
</linearGradient>
<linearGradient id="paint15_linear_229_6058" x1="67.3714" y1="96.5624" x2="68.5684" y2="89.0104" gradientUnits="userSpaceOnUse">
<stop/>
<stop offset="0.1261" stop-color="#181817"/>
<stop offset="0.3928" stop-color="#565552"/>
<stop offset="0.7749" stop-color="#B7B7B1"/>
<stop offset="1" stop-color="#F4F3EB"/>
</linearGradient>
<linearGradient id="paint16_linear_229_6058" x1="69.5023" y1="92.4186" x2="71.7263" y2="96.2891" gradientUnits="userSpaceOnUse">
<stop stop-color="#818077"/>
<stop offset="0.0785364" stop-color="#84837A"/>
<stop offset="0.5542" stop-color="#919085"/>
<stop offset="1" stop-color="#959489"/>
</linearGradient>
<clipPath id="clip0_229_6058">
<rect width="190" height="135" fill="white"/>
</clipPath>
</defs>
</svg>
