<svg width="190" height="135" viewBox="0 0 190 135" fill="none" xmlns="http://www.w3.org/2000/svg">
<g clip-path="url(#clip0_229_6498)">
<path d="M159.61 108.033L160.529 107.496L146.039 99.224L147.932 98.1497L64.5062 50.2903L28.3895 70.9703L111.815 118.83L113.058 118.131L127.548 126.457L128.413 125.92L113.977 117.648L145.174 99.7611L159.61 108.033Z" fill="#919191"/>
<path d="M111.869 117.755L30.444 71.0778V29.6641L111.869 76.3418V117.755Z" fill="#07527E"/>
<path d="M146.526 97.8812L111.869 117.756V76.3418L146.526 56.4675V97.8812Z" fill="#0F6EA1"/>
<path d="M113.058 79.2961L145.228 60.8184L145.174 96.7532L113.004 115.177L113.058 79.2961Z" fill="url(#paint0_linear_229_6498)"/>
<path d="M113.923 78.7589L145.174 96.6995L145.228 60.8184L113.923 78.7589Z" fill="url(#paint1_linear_229_6498)"/>
<path d="M111.869 76.3418L30.444 29.6641L65.101 9.78979L146.526 56.4675L111.869 76.3418Z" fill="#127DB2"/>
<path opacity="0.2" d="M112.139 72.8504L140.308 56.6824L141.119 57.1658L112.95 73.3339L112.139 72.8504ZM109.652 71.4538L137.821 55.2858L138.632 55.7693L110.463 71.9373L109.652 71.4538ZM107.219 70.0573L135.388 53.8893L136.199 54.3727L108.03 70.5407L107.219 70.0573ZM104.732 68.607L132.901 52.439L133.712 52.9224L105.543 69.0904L104.732 68.607ZM102.299 67.2104L130.468 51.0424L131.279 51.5258L103.11 67.6939L102.299 67.2104ZM99.8119 65.8139L127.981 49.6458L128.792 50.1293L100.623 66.2973L99.8119 65.8139ZM97.3789 64.3636L125.548 48.1956L126.359 48.679L98.1899 64.847L97.3789 64.3636ZM94.8918 62.967L123.061 46.799L123.872 47.2824L95.7029 63.4504L94.8918 62.967ZM92.4588 61.5704L120.628 45.4024L121.439 45.8858L93.2158 62.0001L92.4588 61.5704ZM89.9717 60.1201L118.141 43.9521L118.952 44.4356L90.7828 60.6036L89.9717 60.1201ZM87.5387 58.7236L115.708 42.5556L116.519 43.039L88.3497 59.207L87.5387 58.7236ZM85.0517 57.327L113.221 41.159L114.032 41.6424L85.8627 57.8104L85.0517 57.327ZM82.5646 55.9304L110.733 39.7624L111.544 40.2458L83.3756 56.4138L82.5646 55.9304ZM80.1316 54.4801L108.3 38.3121L109.111 38.7956L80.9426 54.9636L80.1316 54.4801ZM77.6445 53.0836L105.813 36.9156L106.624 37.399L78.4555 53.567L77.6445 53.0836ZM75.2115 51.687L103.38 35.519L104.191 36.0024L76.0225 52.1704L75.2115 51.687ZM72.7244 50.2367L100.947 34.0687L101.758 34.5521L73.5354 50.7201L72.7244 50.2367ZM70.2914 48.8401L98.4603 32.6721L99.2713 33.1556L71.1024 49.3236L70.2914 48.8401ZM67.8043 47.4436L95.9732 31.2756L96.7842 31.759L68.6153 47.927L67.8043 47.4436ZM65.3713 46.047L93.5402 29.879L94.3512 30.3624L66.1823 46.5304L65.3713 46.047ZM62.8842 44.5967L91.0531 28.4287L91.8641 28.9121L63.6952 45.0801L62.8842 44.5967ZM60.4512 43.2001L88.6201 27.0321L89.4311 27.5156L61.2622 43.6836L60.4512 43.2001ZM57.9641 41.8036L86.133 25.6356L86.944 26.119L58.7751 42.2333L57.9641 41.8036ZM55.5311 40.3533L83.7 24.1853L84.511 24.6687L56.3421 40.8367L55.5311 40.3533ZM53.044 38.9567L81.2129 22.7887L82.0239 23.2721L53.855 39.4401L53.044 38.9567ZM50.5569 37.5601L78.7799 21.3921L79.5909 21.8756L51.422 38.0436L50.5569 37.5601ZM48.1239 36.1636L76.2928 19.9956L77.1038 20.479L48.9349 36.647L48.1239 36.1636ZM45.6368 34.7133L73.8057 18.5453L74.6167 19.0287L46.4478 35.1967L45.6368 34.7133ZM43.2038 33.3167L71.3727 17.1487L72.1837 17.6321L44.0148 33.8001L43.2038 33.3167ZM40.7167 31.9201L68.8856 15.7521L69.6966 16.2356L41.5277 32.4036L40.7167 31.9201ZM38.2837 30.4698L66.4526 14.3018L67.2636 14.7853L39.0947 30.9533L38.2837 30.4698ZM35.7966 29.0733L63.9655 12.9053L64.7765 13.3887L36.6076 29.5567L35.7966 29.0733Z" fill="#07527E"/>
<path opacity="0.3" d="M108.949 113.243V77.5235L109.76 78.0069V113.727L108.949 113.243ZM107.544 112.438V76.7178L106.733 76.2343V111.954L107.544 112.438ZM105.327 111.149V75.4286L104.516 74.9452V110.665L105.327 111.149ZM103.056 109.859V74.1395L102.245 73.6561V109.376L103.056 109.859ZM100.785 108.57V72.8503L99.9742 72.3669V108.087L100.785 108.57ZM98.5684 107.281V71.5612L97.7574 71.0778V106.798L98.5684 107.281ZM96.2976 105.992V70.2721L95.4866 69.7886V105.509L96.2976 105.992ZM94.0809 104.703V68.9829L93.2699 68.4995V104.219L94.0809 104.703ZM91.8101 103.414V67.6938L90.9991 67.2103V102.93L91.8101 103.414ZM89.5933 102.125V66.4046L88.7823 65.9212V101.641L89.5933 102.125ZM87.3225 100.835V65.1155L86.5115 64.6321V100.352L87.3225 100.835ZM85.1057 99.5463V63.8263L84.2947 63.3429V99.0629L85.1057 99.5463ZM82.8349 98.2572V62.5372L82.0239 62.0538V97.7738L82.8349 98.2572ZM80.6182 96.9681V61.2481L79.8072 60.7646V96.4846L80.6182 96.9681ZM78.3474 95.6789V59.9589L77.5364 59.4755V95.1955L78.3474 95.6789ZM76.1306 94.3898V58.6698L75.3196 58.1863V93.9063L76.1306 94.3898ZM73.8598 93.1006V57.3806L73.0488 56.8972V92.6172L73.8598 93.1006ZM71.6431 91.8115V56.0915L70.8321 55.6081V91.3281L71.6431 91.8115ZM69.3723 90.5223V54.8023L68.5613 54.3189V90.0389L69.3723 90.5223ZM67.1555 89.2332V53.5132L66.3445 53.0298V88.7498L67.1555 89.2332ZM64.8847 87.9441V52.2241L64.0737 51.7406V87.4606L64.8847 87.9441ZM62.6139 86.6549V50.9349L61.8029 50.4515V86.1715L62.6139 86.6549ZM60.3971 85.3658V49.6458L59.5861 49.1623V84.8823L60.3971 85.3658ZM58.1263 84.0766V48.3566L57.3153 47.8732V83.5932L58.1263 84.0766ZM55.9096 82.7875V47.0675L55.0986 46.5841V82.3041L55.9096 82.7875ZM53.6388 81.4983V45.7783L52.8278 45.3486V81.0686L53.6388 81.4983ZM51.422 80.2092V44.4892L50.611 44.0058V79.7258L51.422 80.2092ZM49.1512 78.9738V43.2538L48.3402 42.7703V78.4903L49.1512 78.9738ZM46.9345 77.6846V41.9646L46.1234 41.4812V77.2012L46.9345 77.6846ZM44.6636 76.3955V40.6755L43.8526 40.192V75.9121L44.6636 76.3955ZM42.4469 75.1063V39.3863L41.6359 38.9029V74.6229L42.4469 75.1063ZM40.1761 73.8172V38.0972L39.3651 37.6138V73.3338L40.1761 73.8172ZM37.9593 72.5281V36.8081L37.1483 36.3246V72.0446L37.9593 72.5281ZM35.6885 71.2389V35.5189L34.8775 35.0355V70.7555L35.6885 71.2389ZM33.4718 69.9498V34.2298L32.6608 33.7463V69.4663L33.4718 69.9498Z" fill="#07527E"/>
<path d="M110.679 74.9451L111.869 74.2468L113.058 74.9451L111.869 75.6434L110.679 74.9451Z" fill="#07527E"/>
<path opacity="0.3" d="M110.031 77.3621V76.0193L111.22 76.7176V78.0604L110.031 77.3621Z" fill="#07527E"/>
<path d="M114.356 77.7382L111.869 79.1885V76.3416L114.356 74.9451V77.7382Z" fill="#0F6EA1"/>
<path d="M112.518 76.7176L113.707 76.0193V77.3621L112.518 78.0604V76.7176Z" fill="#07527E"/>
<path d="M142.795 56.5213L144.039 55.823L145.228 56.5213L144.039 57.1658L142.795 56.5213Z" fill="#07527E"/>
<path d="M144.633 58.2937L145.877 57.5955V58.9383L144.633 59.6366V58.2937Z" fill="#07527E"/>
<path d="M31.7416 29.6641L32.9311 28.9658L34.1206 29.6641L32.9311 30.3624L31.7416 29.6641Z" fill="#07527E"/>
<path opacity="0.3" d="M31.255 32.1886V30.8457L32.4445 31.544V32.8868L31.255 32.1886Z" fill="#07527E"/>
<path opacity="0.3" d="M110.031 115.876V114.533L111.22 115.231V116.574L110.031 115.876Z" fill="#07527E"/>
<path opacity="0.3" d="M31.255 70.7017V69.3589L32.4445 70.0572V71.4L31.255 70.7017Z" fill="#07527E"/>
<path d="M65.101 11.8846L63.9115 11.1863L65.101 10.5417L66.3445 11.1863L65.101 11.8846Z" fill="#07527E"/>
<path opacity="0.3" d="M38.8244 74.8914V73.9783L43.8526 76.8788V77.7383L38.8244 74.8914Z" fill="#07527E"/>
<path opacity="0.3" d="M46.556 79.296V78.3828L50.7732 80.8V81.7131L46.556 79.296Z" fill="#07527E"/>
<path d="M44.7718 78.2755V77.3623L45.745 77.9532V78.8663L44.7718 78.2755Z" fill="#07527E"/>
<path opacity="0.3" d="M90.5125 104.488V103.629L95.5407 106.476V107.389L90.5125 104.488Z" fill="#07527E"/>
<path opacity="0.3" d="M98.244 108.946V108.033L102.461 110.45V111.363L98.244 108.946Z" fill="#07527E"/>
<path d="M96.4058 107.926V107.013L97.433 107.604V108.463L96.4058 107.926Z" fill="#07527E"/>
<path d="M141.065 101.534L140.308 101.104V100.083L141.065 100.513V101.534Z" fill="#07527E"/>
<path d="M142.309 100.782L141.065 101.534V100.513L142.309 99.8149V100.782Z" fill="#0F6EA1"/>
<path d="M141.065 100.513L140.308 100.084L141.552 99.3853L142.309 99.815L141.065 100.513Z" fill="#127DB2"/>
<path d="M133.388 105.938L132.631 105.509V104.488L133.388 104.918V105.938Z" fill="#07527E"/>
<path d="M134.631 105.186L133.388 105.938V104.918L134.631 104.219V105.186Z" fill="#0F6EA1"/>
<path d="M133.388 104.918L132.631 104.488L133.874 103.79L134.631 104.22L133.388 104.918Z" fill="#127DB2"/>
<path d="M125.71 110.343L124.953 109.913V108.893L125.71 109.322V110.343Z" fill="#07527E"/>
<path d="M126.954 109.591L125.71 110.343V109.322L126.954 108.624V109.591Z" fill="#0F6EA1"/>
<path d="M125.71 109.322L124.953 108.893L126.197 108.194L126.954 108.624L125.71 109.322Z" fill="#127DB2"/>
<path d="M118.033 114.747L117.276 114.318V113.297L118.033 113.727V114.747Z" fill="#07527E"/>
<path d="M119.276 113.995L118.033 114.747V113.727L119.276 113.029V113.995Z" fill="#0F6EA1"/>
<path d="M118.033 113.727L117.276 113.297L118.519 112.599L119.276 113.029L118.033 113.727Z" fill="#127DB2"/>
<path d="M141.065 63.3966L140.308 62.9669V62L141.065 62.4297V63.3966Z" fill="#07527E"/>
<path d="M142.309 62.6983L141.065 63.3966V62.4297L142.309 61.6777V62.6983Z" fill="#0F6EA1"/>
<path d="M141.065 62.4298L140.308 62.0001L141.552 61.3018L142.309 61.6778L141.065 62.4298Z" fill="#127DB2"/>
<path d="M133.388 67.8011L132.631 67.3714V66.4045L133.388 66.8343V67.8011Z" fill="#07527E"/>
<path d="M134.631 67.1028L133.388 67.8011V66.8343L134.631 66.0823V67.1028Z" fill="#0F6EA1"/>
<path d="M133.388 66.8343L132.631 66.4046L133.874 65.7063L134.631 66.0823L133.388 66.8343Z" fill="#127DB2"/>
<path d="M125.71 72.2057L124.953 71.7759V70.8091L125.71 71.2388V72.2057Z" fill="#07527E"/>
<path d="M126.954 71.5074L125.71 72.2057V71.2388L126.954 70.4868V71.5074Z" fill="#0F6EA1"/>
<path d="M125.71 71.2388L124.953 70.8091L126.197 70.1108L126.954 70.4868L125.71 71.2388Z" fill="#127DB2"/>
<path d="M118.033 76.6102L117.276 76.1805V75.2136L118.033 75.6433V76.6102Z" fill="#07527E"/>
<path d="M119.276 75.9119L118.033 76.6102V75.6434L119.276 74.8914V75.9119Z" fill="#0F6EA1"/>
<path d="M118.033 75.6434L117.276 75.2137L118.519 74.5154L119.276 74.8914L118.033 75.6434Z" fill="#127DB2"/>
<path d="M121.817 81.7668V86.2251L129.495 90.6834V86.2251L121.817 81.7668Z" fill="#C19564"/>
<path d="M129.495 86.2251V90.6833L135.442 87.2993L135.388 82.8411L129.495 86.2251Z" fill="#DDB176"/>
<path d="M121.817 81.7668L129.495 86.2251L135.388 82.8411L127.71 78.3828L121.817 81.7668Z" fill="#FCD9A9"/>
<path opacity="0.7" d="M125.277 79.7793L133.009 84.2376V85.4193L132.306 85.7953V84.6136L124.574 80.1553L125.277 79.7793Z" fill="#C58C67"/>
<path opacity="0.2" d="M132.631 84.4524L124.899 79.9941L125.007 79.9404L132.685 84.3987L132.631 84.4524Z" fill="#A47F65"/>
<path opacity="0.4" d="M127.548 88.1587L129.062 89.0181V89.1256L127.548 88.2661V88.1587ZM127.764 88.5884L128.846 89.233C128.9 89.1793 127.764 88.5347 127.764 88.5884ZM127.764 88.7496L128.846 89.3941C128.9 89.3404 127.764 88.6958 127.764 88.7496ZM127.764 88.9107L128.846 89.5553C128.9 89.5016 127.764 88.857 127.764 88.9107ZM127.764 89.0718L128.846 89.7164C128.9 89.6627 127.764 89.0181 127.764 89.0718ZM127.764 89.233L128.846 89.8776C128.9 89.8238 127.764 89.1793 127.764 89.233Z" fill="#363633"/>
<path d="M122.196 83.4857L123.818 84.4525V83.4319L122.196 82.4651V83.4857Z" fill="#E4E4E4"/>
<path opacity="0.4" d="M122.412 82.8411L123.547 83.4856C123.601 83.4319 122.412 82.7874 122.412 82.8411ZM122.412 83.0022L123.547 83.6468C123.601 83.5931 122.412 82.9485 122.412 83.0022ZM122.412 83.1634L123.547 83.8079C123.601 83.7542 122.412 83.1096 122.412 83.1634ZM122.412 83.3245L123.547 83.9691C123.601 83.9154 122.412 83.2708 122.412 83.3245ZM122.412 83.4856L123.547 84.1302C123.601 84.1302 122.412 83.4319 122.412 83.4856Z" fill="#363633"/>
<path opacity="0.5" d="M133.009 84.2378V85.4195L132.306 85.7955V84.6138L133.009 84.2378Z" fill="#C58C67"/>
<path d="M128.9 86.3326C128.954 86.3326 129.062 86.3863 129.062 86.4937C129.116 86.6011 129.062 86.6548 129.008 86.6548C128.954 86.6548 128.846 86.6011 128.846 86.4937C128.792 86.44 128.792 86.3326 128.9 86.3326ZM128.305 86.2251C128.359 86.3326 128.413 86.3863 128.467 86.3863C128.521 86.3863 128.576 86.3326 128.521 86.2251C128.467 86.1177 128.413 86.064 128.359 86.064C128.305 86.064 128.305 86.1177 128.305 86.2251ZM127.819 85.9566C127.873 86.064 127.927 86.1177 127.981 86.1177C128.035 86.1177 128.089 86.064 128.035 85.9566C127.981 85.8491 127.927 85.7954 127.873 85.7954C127.819 85.7954 127.819 85.8491 127.819 85.9566Z" fill="#383731"/>
<path d="M121.817 77.3623V81.8206L129.495 86.2789V81.8206L121.817 77.3623Z" fill="#C19564"/>
<path d="M129.495 81.8205V86.2788L135.442 82.8411L135.388 78.4365L129.495 81.8205Z" fill="#DDB176"/>
<path d="M121.817 77.3623L129.495 81.8205L135.388 78.4365L127.71 73.9783L121.817 77.3623Z" fill="#FCD9A9"/>
<path opacity="0.7" d="M125.277 75.3748L133.009 79.7793V81.0147L132.306 81.3908V80.209L124.574 75.7508L125.277 75.3748Z" fill="#C58C67"/>
<path opacity="0.2" d="M132.631 79.9942L124.899 75.5896L125.007 75.5359L132.685 79.9942H132.631Z" fill="#A47F65"/>
<path opacity="0.4" d="M127.548 83.7004L129.062 84.5599V84.6673L127.548 83.8079V83.7004ZM127.764 84.1839L128.846 84.8284C128.9 84.7747 127.764 84.1302 127.764 84.1839ZM127.764 84.345L128.846 84.9896C128.9 84.9359 127.764 84.2913 127.764 84.345ZM127.764 84.5062L128.846 85.1507C128.9 85.097 127.764 84.4524 127.764 84.5062ZM127.764 84.6673L128.846 85.3119C128.9 85.2581 127.764 84.6136 127.764 84.6673ZM127.764 84.8284L128.846 85.473C128.9 85.4193 127.764 84.7747 127.764 84.8284Z" fill="#363633"/>
<path d="M122.196 79.0811L123.818 80.048V79.0274L122.196 78.0605V79.0811Z" fill="#E4E4E4"/>
<path opacity="0.4" d="M122.412 78.3828L123.547 79.0274C123.601 79.0274 122.412 78.3291 122.412 78.3828ZM122.412 78.5977L123.547 79.2423C123.601 79.1886 122.412 78.544 122.412 78.5977ZM122.412 78.7588L123.547 79.4034C123.601 79.3497 122.412 78.7051 122.412 78.7588ZM122.412 78.92L123.547 79.5645C123.601 79.5108 122.412 78.8663 122.412 78.92ZM122.412 79.0811L123.547 79.7257C123.601 79.7257 122.412 79.0274 122.412 79.0811Z" fill="#363633"/>
<path opacity="0.5" d="M133.009 79.7793V81.0147L132.306 81.3907V80.209L133.009 79.7793Z" fill="#C58C67"/>
<path d="M128.9 81.928C128.954 81.928 129.062 81.9817 129.062 82.0892C129.116 82.1966 129.062 82.2503 129.008 82.2503C128.954 82.2503 128.846 82.1966 128.846 82.0892C128.792 82.0354 128.792 81.928 128.9 81.928ZM128.305 81.8206C128.359 81.928 128.413 81.9817 128.467 81.9817C128.521 81.9817 128.576 81.928 128.521 81.8206C128.467 81.7132 128.413 81.6594 128.359 81.6594C128.305 81.6594 128.305 81.7132 128.305 81.8206ZM127.819 81.552C127.873 81.6594 127.927 81.7132 127.981 81.7132C128.035 81.7132 128.089 81.6594 128.035 81.552C127.981 81.4446 127.927 81.3909 127.873 81.3909C127.819 81.3909 127.819 81.4446 127.819 81.552Z" fill="#383731"/>
<path d="M116.032 85.0972L116.086 89.5555L123.764 93.96L123.709 89.5017L116.032 85.0972Z" fill="#C19564"/>
<path d="M123.709 89.5017L123.764 93.96L129.657 90.576V86.1177L123.709 89.5017Z" fill="#DDB176"/>
<path d="M116.032 85.0971L123.709 89.5017L129.657 86.1177L121.979 81.6594L116.032 85.0971Z" fill="#FCD9A9"/>
<path opacity="0.7" d="M119.492 83.1096L127.224 87.5142V88.6959L126.575 89.1256V87.8902L118.843 83.4856L119.492 83.1096Z" fill="#C58C67"/>
<path opacity="0.2" d="M126.845 87.729L119.168 83.3245L119.222 83.2708L126.953 87.6753L126.845 87.729Z" fill="#A47F65"/>
<path opacity="0.4" d="M121.817 91.4353L123.331 92.2947V92.4022L121.817 91.5427V91.4353ZM122.033 91.865L123.115 92.5096C123.115 92.4559 122.033 91.8113 122.033 91.865ZM122.033 92.0262L123.115 92.6707C123.115 92.617 122.033 92.0262 122.033 92.0262ZM122.033 92.241L123.115 92.8856C123.115 92.7782 122.033 92.1873 122.033 92.241ZM122.033 92.4022L123.115 93.0467C123.115 92.993 122.033 92.3484 122.033 92.4022ZM122.033 92.5633L123.115 93.2079C123.115 93.1542 122.033 92.5096 122.033 92.5633Z" fill="#363633"/>
<path d="M116.464 86.816L118.086 87.7291V86.7085L116.464 85.7954V86.816Z" fill="#E4E4E4"/>
<path opacity="0.4" d="M116.681 86.1177L117.816 86.7623C117.816 86.7085 116.681 86.064 116.681 86.1177ZM116.681 86.2788L117.816 86.9234C117.816 86.8697 116.681 86.2251 116.681 86.2788ZM116.681 86.44L117.816 87.0845C117.816 87.0845 116.681 86.3863 116.681 86.44ZM116.681 86.6548L117.816 87.2994C117.816 87.2457 116.681 86.6011 116.681 86.6548ZM116.681 86.816L117.816 87.4605C117.816 87.4068 116.681 86.7622 116.681 86.816Z" fill="#363633"/>
<path opacity="0.5" d="M127.224 87.5142V88.6959L126.575 89.1256V87.8902L127.224 87.5142Z" fill="#C58C67"/>
<path d="M123.115 89.6629C123.169 89.6629 123.277 89.7166 123.277 89.824C123.331 89.9315 123.277 89.9852 123.223 89.9852C123.169 89.9852 123.061 89.9315 123.061 89.824C123.061 89.7166 123.061 89.6629 123.115 89.6629ZM122.574 89.5017C122.628 89.6092 122.682 89.6629 122.736 89.6629C122.79 89.6629 122.844 89.6092 122.79 89.5017C122.736 89.3943 122.682 89.3406 122.628 89.3406C122.574 89.3406 122.52 89.448 122.574 89.5017ZM122.087 89.2332C122.142 89.3406 122.196 89.3943 122.25 89.3943C122.304 89.3943 122.358 89.3406 122.304 89.2332C122.25 89.1257 122.196 89.072 122.142 89.072C122.087 89.072 122.033 89.1795 122.087 89.2332Z" fill="#383731"/>
<path d="M116.032 80.6926L116.086 85.0972L123.764 89.5555L123.709 85.0972L116.032 80.6926Z" fill="#C19564"/>
<path d="M123.709 85.0971L123.764 89.5554L129.657 86.1714V81.7131L123.709 85.0971Z" fill="#DDB176"/>
<path d="M116.032 80.6926L123.709 85.0972L129.657 81.7132L121.979 77.2549L116.032 80.6926Z" fill="#FCD9A9"/>
<path opacity="0.7" d="M119.492 78.6514L127.224 83.1097V84.2914L126.575 84.7211V83.4856L118.843 79.0811L119.492 78.6514Z" fill="#C58C67"/>
<path opacity="0.2" d="M126.845 83.3245L119.168 78.9199L119.222 78.8662L126.953 83.2708L126.845 83.3245Z" fill="#A47F65"/>
<path opacity="0.4" d="M121.817 87.0308L123.331 87.8902V87.9976L121.817 87.1382V87.0308ZM122.033 87.4605L123.115 88.105C123.115 88.0513 122.033 87.4068 122.033 87.4605ZM122.033 87.6216L123.115 88.2662C123.115 88.2125 122.033 87.5679 122.033 87.6216ZM122.033 87.7828L123.115 88.4273C123.115 88.3736 122.033 87.729 122.033 87.7828ZM122.033 87.9976L123.115 88.6422C123.115 88.5348 122.033 87.9439 122.033 87.9976ZM122.033 88.1588L123.115 88.8033C123.115 88.7496 122.033 88.105 122.033 88.1588Z" fill="#363633"/>
<path d="M116.464 82.4114L118.086 83.3246V82.304L116.464 81.3909V82.4114Z" fill="#E4E4E4"/>
<path opacity="0.4" d="M116.681 81.7131L117.816 82.3577C117.816 82.304 116.681 81.6594 116.681 81.7131ZM116.681 81.8743L117.816 82.5188C117.816 82.4651 116.681 81.8206 116.681 81.8743ZM116.681 82.0354L117.816 82.68C117.816 82.68 116.681 81.9817 116.681 82.0354ZM116.681 82.1966L117.816 82.8411C117.816 82.8411 116.681 82.1429 116.681 82.1966ZM116.681 82.4114L117.816 83.056C117.816 83.0023 116.681 82.3577 116.681 82.4114Z" fill="#363633"/>
<path opacity="0.5" d="M127.224 83.1099V84.2916L126.575 84.7213V83.4859L127.224 83.1099Z" fill="#C58C67"/>
<path d="M123.115 85.2583C123.169 85.2583 123.277 85.3121 123.277 85.4195C123.331 85.5269 123.277 85.5806 123.223 85.5806C123.169 85.5806 123.061 85.5269 123.061 85.4195C123.061 85.3121 123.061 85.2583 123.115 85.2583ZM122.574 85.0972C122.628 85.2046 122.682 85.2583 122.736 85.2583C122.79 85.2583 122.844 85.2046 122.79 85.0972C122.736 84.9898 122.682 84.9361 122.628 84.9361C122.574 84.9361 122.52 85.0435 122.574 85.0972ZM122.087 84.8286C122.142 84.9361 122.196 84.9898 122.25 84.9898C122.304 84.9898 122.358 84.9361 122.304 84.8286C122.25 84.7212 122.196 84.6675 122.142 84.6675C122.087 84.6675 122.033 84.7212 122.087 84.8286Z" fill="#383731"/>
<path d="M129.657 90.5222V94.9268L137.388 99.3851L137.334 94.9268L129.657 90.5222Z" fill="#C19564"/>
<path d="M137.334 94.9267L137.388 99.385L143.282 96.001V91.5427L137.334 94.9267Z" fill="#DDB176"/>
<path d="M129.657 90.5222L137.334 94.9268L143.282 91.5428L135.604 87.0845L129.657 90.5222Z" fill="#FCD9A9"/>
<path opacity="0.7" d="M133.117 88.481L140.849 92.9393V94.121L140.146 94.5507V93.3153L132.468 88.9107L133.117 88.481Z" fill="#C58C67"/>
<path opacity="0.2" d="M140.47 93.1541L132.739 88.6958H132.847L140.578 93.1004L140.47 93.1541Z" fill="#A47F65"/>
<path opacity="0.4" d="M135.442 96.8604L136.956 97.7198V97.8272L135.442 96.9678V96.8604ZM135.658 97.2901L136.74 97.9346C136.74 97.8809 135.658 97.2364 135.658 97.2901ZM135.658 97.4512L136.74 98.0958C136.74 98.0421 135.658 97.3975 135.658 97.4512ZM135.658 97.6124L136.74 98.2569C136.74 98.2032 135.658 97.5586 135.658 97.6124ZM135.658 97.7735L136.74 98.4181C136.74 98.3644 135.658 97.7735 135.658 97.7735ZM135.658 97.9884L136.74 98.6329C136.74 98.5255 135.658 97.9346 135.658 97.9884Z" fill="#363633"/>
<path d="M130.089 92.241L131.711 93.1542V92.1336L130.089 91.2205V92.241Z" fill="#E4E4E4"/>
<path opacity="0.4" d="M130.306 91.5427L131.441 92.1873C131.441 92.1336 130.306 91.489 130.306 91.5427ZM130.306 91.7039L131.441 92.3484C131.441 92.2947 130.306 91.6502 130.306 91.7039ZM130.306 91.865L131.441 92.5096C131.441 92.4559 130.306 91.8113 130.306 91.865ZM130.306 92.0261L131.441 92.6707C131.441 92.6707 130.306 91.9724 130.306 92.0261ZM130.306 92.241L131.441 92.8856C131.441 92.8319 130.306 92.1873 130.306 92.241Z" fill="#363633"/>
<path opacity="0.5" d="M140.849 92.9395V94.1212L140.146 94.5509V93.3155L140.849 92.9395Z" fill="#C58C67"/>
<path d="M136.74 95.0879C136.794 95.0879 136.902 95.1417 136.902 95.2491C136.956 95.3565 136.902 95.4102 136.848 95.4102C136.794 95.4102 136.686 95.3565 136.686 95.2491C136.632 95.1417 136.686 95.0879 136.74 95.0879ZM136.199 94.9268C136.253 95.0342 136.307 95.0879 136.361 95.0879C136.415 95.0879 136.469 95.0342 136.415 94.9268C136.361 94.8194 136.307 94.7656 136.253 94.7656C136.199 94.7656 136.145 94.8731 136.199 94.9268ZM135.712 94.6582C135.766 94.7656 135.82 94.8194 135.875 94.8194C135.929 94.8194 135.983 94.7656 135.929 94.6582C135.875 94.5508 135.82 94.4971 135.766 94.4971C135.712 94.4971 135.658 94.5508 135.712 94.6582Z" fill="#383731"/>
<path d="M129.657 86.064V90.5223L137.388 94.9805L137.334 90.5223L129.657 86.064Z" fill="#C19564"/>
<path d="M137.334 90.5222L137.388 94.9805L143.282 91.5965V87.1382L137.334 90.5222Z" fill="#DDB176"/>
<path d="M129.657 86.0639L137.334 90.5222L143.282 87.1382L135.604 82.6799L129.657 86.0639Z" fill="#FCD9A9"/>
<path opacity="0.7" d="M133.117 84.0764L140.849 88.5347V89.7164L140.146 90.0924V88.9107L132.468 84.4524L133.117 84.0764Z" fill="#C58C67"/>
<path opacity="0.2" d="M140.47 88.7495L132.739 84.2913L132.847 84.2375L140.578 88.6958L140.47 88.7495Z" fill="#A47F65"/>
<path opacity="0.4" d="M135.442 92.4558L136.956 93.3153V93.4227L135.442 92.5632V92.4558ZM135.658 92.8855L136.74 93.5301C136.74 93.4764 135.658 92.8318 135.658 92.8855ZM135.658 93.0467L136.74 93.6913C136.74 93.6375 135.658 92.993 135.658 93.0467ZM135.658 93.2078L136.74 93.8524C136.74 93.7987 135.658 93.1541 135.658 93.2078ZM135.658 93.369L136.74 94.0135C136.74 93.9598 135.658 93.3152 135.658 93.369ZM135.658 93.5301L136.74 94.1747C136.74 94.121 135.658 93.4764 135.658 93.5301Z" fill="#363633"/>
<path d="M130.089 87.8365L131.711 88.7496V87.7291L130.089 86.7622V87.8365Z" fill="#E4E4E4"/>
<path opacity="0.4" d="M130.306 87.1382L131.441 87.7828C131.441 87.729 130.306 87.0845 130.306 87.1382ZM130.306 87.2993L131.441 87.9439C131.441 87.8902 130.306 87.2456 130.306 87.2993ZM130.306 87.4605L131.441 88.105C131.441 88.0513 130.306 87.4068 130.306 87.4605ZM130.306 87.6216L131.441 88.2662C131.441 88.2662 130.306 87.5679 130.306 87.6216ZM130.306 87.7828L131.441 88.4273C131.441 88.4273 130.306 87.729 130.306 87.7828Z" fill="#363633"/>
<path opacity="0.5" d="M140.849 88.5347V89.7164L140.146 90.0924V88.9107L140.849 88.5347Z" fill="#C58C67"/>
<path d="M136.74 90.6297C136.794 90.6297 136.902 90.6834 136.902 90.7908C136.956 90.8982 136.902 90.952 136.848 90.952C136.794 90.952 136.686 90.8982 136.686 90.7908C136.632 90.7371 136.686 90.6297 136.74 90.6297ZM136.199 90.5222C136.253 90.6297 136.307 90.6834 136.361 90.6834C136.415 90.6834 136.469 90.6297 136.415 90.5222C136.361 90.4148 136.307 90.3611 136.253 90.3611C136.199 90.3611 136.145 90.4148 136.199 90.5222ZM135.712 90.2537C135.766 90.3611 135.82 90.4148 135.875 90.4148C135.929 90.4148 135.983 90.3611 135.929 90.2537C135.875 90.1462 135.82 90.0925 135.766 90.0925C135.712 90.0925 135.658 90.1462 135.712 90.2537Z" fill="#383731"/>
<path d="M123.764 93.9062V98.3645L131.441 102.769V98.3108L123.764 93.9062Z" fill="#C19564"/>
<path d="M131.441 98.3108V102.769L137.388 99.385L137.334 94.9268L131.441 98.3108Z" fill="#DDB176"/>
<path d="M123.764 93.9062L131.441 98.3108L137.334 94.9268L129.657 90.4685L123.764 93.9062Z" fill="#FCD9A9"/>
<path opacity="0.7" d="M127.224 91.9187L134.955 96.3233V97.505L134.253 97.9347V96.6993L126.521 92.2947L127.224 91.9187Z" fill="#C58C67"/>
<path opacity="0.2" d="M134.577 96.5382L126.845 92.1336L126.953 92.0798L134.631 96.4844L134.577 96.5382Z" fill="#A47F65"/>
<path opacity="0.4" d="M129.495 100.244L131.009 101.104V101.211L129.495 100.352V100.244ZM129.711 100.674L130.792 101.319C130.846 101.265 129.711 100.62 129.711 100.674ZM129.711 100.835L130.792 101.48C130.846 101.426 129.711 100.782 129.711 100.835ZM129.711 101.05L130.792 101.695C130.846 101.587 129.711 100.996 129.711 101.05ZM129.711 101.211L130.792 101.856C130.846 101.802 129.711 101.158 129.711 101.211ZM129.711 101.372L130.792 102.017C130.846 101.963 129.711 101.319 129.711 101.372Z" fill="#363633"/>
<path d="M124.142 95.6251L125.764 96.5382V95.5176L124.142 94.6045V95.6251Z" fill="#E4E4E4"/>
<path opacity="0.4" d="M124.358 94.9268L125.494 95.5713C125.548 95.5176 124.358 94.873 124.358 94.9268ZM124.358 95.0879L125.494 95.7325C125.548 95.6788 124.358 95.0342 124.358 95.0879ZM124.358 95.249L125.494 95.8936C125.548 95.8936 124.358 95.1953 124.358 95.249ZM124.358 95.4639L125.494 96.1085C125.548 96.0548 124.358 95.4102 124.358 95.4639ZM124.358 95.625L125.494 96.2696C125.548 96.2159 124.358 95.5713 124.358 95.625Z" fill="#363633"/>
<path opacity="0.5" d="M134.955 96.3232V97.505L134.253 97.9347V96.6993L134.955 96.3232Z" fill="#C58C67"/>
<path d="M130.846 98.4719C130.9 98.4719 131.009 98.5257 131.009 98.6331C131.063 98.7405 131.009 98.7942 130.954 98.7942C130.9 98.7942 130.792 98.7405 130.792 98.6331C130.738 98.5257 130.738 98.4719 130.846 98.4719ZM130.252 98.3108C130.306 98.4182 130.36 98.4719 130.414 98.4719C130.468 98.4719 130.522 98.4182 130.468 98.3108C130.414 98.2034 130.36 98.1497 130.306 98.1497C130.252 98.1497 130.252 98.2571 130.252 98.3108ZM129.765 98.0422C129.819 98.1497 129.873 98.2034 129.927 98.2034C129.981 98.2034 130.035 98.1497 129.981 98.0422C129.927 97.9348 129.873 97.8811 129.819 97.8811C129.765 97.8811 129.765 97.9885 129.765 98.0422Z" fill="#383731"/>
<path d="M110.193 88.4275V92.8858L117.87 97.3441V92.8858L110.193 88.4275Z" fill="#C19564"/>
<path d="M117.87 92.8857V97.344L123.818 93.96V89.5017L117.87 92.8857Z" fill="#DDB176"/>
<path d="M110.193 88.4275L117.87 92.8857L123.818 89.5017L116.086 85.0435L110.193 88.4275Z" fill="#FCD9A9"/>
<path opacity="0.7" d="M113.653 86.4399L121.385 90.8982V92.0799L120.682 92.4559V91.2742L112.95 86.8159L113.653 86.4399Z" fill="#C58C67"/>
<path opacity="0.2" d="M121.006 91.113L113.275 86.6548L113.383 86.6011L121.06 91.0593L121.006 91.113Z" fill="#A47F65"/>
<path opacity="0.4" d="M115.924 94.8196L117.438 95.679V95.7864L115.924 94.927V94.8196ZM116.14 95.2493L117.221 95.8939C117.276 95.8402 116.14 95.1956 116.14 95.2493ZM116.14 95.4104L117.221 96.055C117.276 96.0013 116.14 95.3567 116.14 95.4104ZM116.14 95.5716L117.221 96.2162C117.276 96.1624 116.14 95.5179 116.14 95.5716ZM116.14 95.7327L117.221 96.3773C117.276 96.3236 116.14 95.679 116.14 95.7327ZM116.14 95.8939L117.221 96.5384C117.276 96.4847 116.14 95.8402 116.14 95.8939Z" fill="#363633"/>
<path d="M110.571 90.2L112.193 91.1132V90.0926L110.571 89.1257V90.2Z" fill="#E4E4E4"/>
<path opacity="0.4" d="M110.842 89.5017L111.977 90.1463C111.977 90.0926 110.842 89.448 110.842 89.5017ZM110.842 89.6629L111.977 90.3074C111.977 90.2537 110.842 89.6091 110.842 89.6629ZM110.842 89.824L111.977 90.4686C111.977 90.4148 110.842 89.7703 110.842 89.824ZM110.842 89.9851L111.977 90.6297C111.977 90.6297 110.842 89.9314 110.842 89.9851ZM110.842 90.1463L111.977 90.7908C111.977 90.7908 110.842 90.0926 110.842 90.1463Z" fill="#363633"/>
<path opacity="0.5" d="M121.385 90.8984V92.0802L120.682 92.4562V91.2744L121.385 90.8984Z" fill="#C58C67"/>
<path d="M117.276 92.9932C117.33 92.9932 117.438 93.0469 117.438 93.1543C117.492 93.2618 117.438 93.3155 117.384 93.3155C117.33 93.3155 117.221 93.2618 117.221 93.1543C117.167 93.1006 117.167 92.9932 117.276 92.9932ZM116.735 92.8858C116.789 92.9932 116.843 93.0469 116.897 93.0469C116.951 93.0469 117.005 92.9932 116.951 92.8858C116.897 92.7783 116.843 92.7246 116.789 92.7246C116.735 92.7246 116.681 92.7783 116.735 92.8858ZM116.194 92.6172C116.248 92.7246 116.302 92.7783 116.356 92.7783C116.41 92.7783 116.465 92.7246 116.41 92.6172C116.356 92.5098 116.302 92.4561 116.248 92.4561C116.194 92.4561 116.194 92.5098 116.194 92.6172Z" fill="#383731"/>
<path d="M110.193 84.0229V88.4812L117.87 92.9395V88.4812L110.193 84.0229Z" fill="#C19564"/>
<path d="M117.87 88.4812V92.9395L123.818 89.5017V85.0972L117.87 88.4812Z" fill="#DDB176"/>
<path d="M110.193 84.0229L117.87 88.4812L123.818 85.0972L116.086 80.6389L110.193 84.0229Z" fill="#FCD9A9"/>
<path opacity="0.7" d="M113.653 82.0354L121.385 86.4937V87.6754L120.682 88.0514V86.8697L112.95 82.4114L113.653 82.0354Z" fill="#C58C67"/>
<path opacity="0.2" d="M121.006 86.7085L113.275 82.2502L113.383 82.1965L121.06 86.6548L121.006 86.7085Z" fill="#A47F65"/>
<path opacity="0.4" d="M115.924 90.3611L117.438 91.2205V91.3279L115.924 90.4685V90.3611ZM116.14 90.8445L117.221 91.4891C117.276 91.4354 116.14 90.7908 116.14 90.8445ZM116.14 91.0057L117.221 91.6502C117.276 91.5965 116.14 90.9519 116.14 91.0057ZM116.14 91.1668L117.221 91.8114C117.276 91.7576 116.14 91.1131 116.14 91.1668ZM116.14 91.3279L117.221 91.9725C117.276 91.9188 116.14 91.2742 116.14 91.3279ZM116.14 91.4891L117.221 92.1337C117.276 92.0799 116.14 91.4354 116.14 91.4891Z" fill="#363633"/>
<path d="M110.571 85.7418L112.193 86.7086V85.6881L110.571 84.7212V85.7418Z" fill="#E4E4E4"/>
<path opacity="0.4" d="M110.842 85.0435L111.977 85.688C111.977 85.688 110.842 84.9898 110.842 85.0435ZM110.842 85.2583L111.977 85.9029C111.977 85.8492 110.842 85.2046 110.842 85.2583ZM110.842 85.4195L111.977 86.064C111.977 86.0103 110.842 85.3658 110.842 85.4195ZM110.842 85.5806L111.977 86.2252C111.977 86.1715 110.842 85.5269 110.842 85.5806ZM110.842 85.7418L111.977 86.3863C111.977 86.3863 110.842 85.688 110.842 85.7418Z" fill="#363633"/>
<path opacity="0.5" d="M121.385 86.4939V87.6756L120.682 88.0516V86.8699L121.385 86.4939Z" fill="#C58C67"/>
<path d="M117.276 88.5887C117.33 88.5887 117.438 88.6424 117.438 88.7498C117.492 88.8572 117.438 88.9109 117.384 88.9109C117.33 88.9109 117.221 88.8572 117.221 88.7498C117.167 88.6961 117.167 88.5887 117.276 88.5887ZM116.735 88.4812C116.789 88.5887 116.843 88.6424 116.897 88.6424C116.951 88.6424 117.005 88.5887 116.951 88.4812C116.897 88.3738 116.843 88.3201 116.789 88.3201C116.735 88.3201 116.681 88.3738 116.735 88.4812ZM116.194 88.2127C116.248 88.3201 116.302 88.3738 116.356 88.3738C116.41 88.3738 116.465 88.3201 116.41 88.2127C116.356 88.1052 116.302 88.0515 116.248 88.0515C116.194 88.0515 116.194 88.1052 116.194 88.2127Z" fill="#383731"/>
<path d="M121.763 72.9578L121.817 77.4161L129.495 81.8744V77.4161L121.763 72.9578Z" fill="#C19564"/>
<path d="M129.495 77.416V81.8743L135.388 78.4366V74.032L129.495 77.416Z" fill="#DDB176"/>
<path d="M121.763 72.9577L129.495 77.416L135.388 74.032L127.71 69.5737L121.763 72.9577Z" fill="#FCD9A9"/>
<path opacity="0.7" d="M125.277 70.9702L132.955 75.4285V76.6102L132.306 76.9862V75.8045L124.574 71.3462L125.277 70.9702Z" fill="#C58C67"/>
<path opacity="0.2" d="M132.576 75.5896L124.899 71.1851L124.953 71.1313L132.685 75.5896H132.576Z" fill="#A47F65"/>
<path opacity="0.4" d="M127.548 79.2959L129.062 80.1553V80.2628L127.548 79.4033V79.2959ZM127.764 79.7793L128.846 80.4239C128.846 80.3702 127.764 79.7256 127.764 79.7793ZM127.764 79.9405L128.846 80.585C128.846 80.5313 127.764 79.8868 127.764 79.9405ZM127.764 80.1016L128.846 80.7462C128.846 80.6925 127.764 80.0479 127.764 80.1016ZM127.764 80.2628L128.846 80.9073C128.846 80.8536 127.764 80.209 127.764 80.2628ZM127.764 80.4239L128.846 81.0685C128.846 81.0148 127.764 80.3702 127.764 80.4239Z" fill="#363633"/>
<path d="M122.196 74.6766L123.818 75.6434V74.6229L122.196 73.656V74.6766Z" fill="#E4E4E4"/>
<path opacity="0.4" d="M122.412 73.9783L123.547 74.6229C123.547 74.6229 122.412 73.9246 122.412 73.9783ZM122.412 74.1931L123.547 74.8377C123.547 74.784 122.412 74.1394 122.412 74.1931ZM122.412 74.3543L123.547 74.9989C123.547 74.9451 122.412 74.3006 122.412 74.3543ZM122.412 74.5154L123.547 75.16C123.547 75.1063 122.412 74.4617 122.412 74.5154ZM122.412 74.6766L123.547 75.3212C123.547 75.3212 122.412 74.6229 122.412 74.6766Z" fill="#363633"/>
<path opacity="0.5" d="M132.955 75.4285V76.6102L132.306 76.9862V75.8045L132.955 75.4285Z" fill="#C58C67"/>
<path d="M128.846 77.5235C128.9 77.5235 129.008 77.5772 129.008 77.6846C129.062 77.792 129.008 77.8458 128.954 77.8458C128.9 77.8458 128.792 77.792 128.792 77.6846C128.792 77.6309 128.792 77.5235 128.846 77.5235ZM128.305 77.416C128.359 77.5235 128.413 77.5772 128.467 77.5772C128.521 77.5772 128.575 77.5235 128.521 77.416C128.467 77.3086 128.413 77.2549 128.359 77.2549C128.305 77.2549 128.251 77.3086 128.305 77.416ZM127.819 77.1475C127.873 77.2549 127.927 77.3086 127.981 77.3086C128.035 77.3086 128.089 77.2549 128.035 77.1475C127.981 77.04 127.927 76.9863 127.873 76.9863C127.819 76.9863 127.764 77.04 127.819 77.1475Z" fill="#383731"/>
<path d="M121.763 68.5532L121.817 73.0115L129.495 77.4698V73.0115L121.763 68.5532Z" fill="#C19564"/>
<path d="M129.495 73.0114V77.4697L135.388 74.032V69.5737L129.495 73.0114Z" fill="#DDB176"/>
<path d="M121.763 68.5532L129.495 73.0115L135.388 69.5738L127.71 65.1692L121.763 68.5532Z" fill="#FCD9A9"/>
<path opacity="0.7" d="M125.277 66.5657L132.955 70.9703V72.2057L132.306 72.5817V71.4L124.574 66.9417L125.277 66.5657Z" fill="#C58C67"/>
<path opacity="0.2" d="M132.576 71.1851L124.899 66.7805L124.953 66.7268L132.685 71.1314L132.576 71.1851Z" fill="#A47F65"/>
<path opacity="0.4" d="M127.548 74.8914L129.062 75.7508V75.8582L127.548 74.9988V74.8914ZM127.764 75.3748L128.846 76.0194C128.846 75.9656 127.764 75.3211 127.764 75.3748ZM127.764 75.5359L128.846 76.1805C128.846 76.1268 127.764 75.4822 127.764 75.5359ZM127.764 75.6971L128.846 76.3416C128.846 76.2879 127.764 75.6434 127.764 75.6971ZM127.764 75.8582L128.846 76.5028C128.846 76.4491 127.764 75.8045 127.764 75.8582ZM127.764 76.0194L128.846 76.6639C128.846 76.6102 127.764 75.9656 127.764 76.0194Z" fill="#363633"/>
<path d="M122.196 70.272L123.818 71.2389V70.1646L122.196 69.2515V70.272Z" fill="#E4E4E4"/>
<path opacity="0.4" d="M122.412 69.5737L123.547 70.2183C123.547 70.2183 122.412 69.52 122.412 69.5737ZM122.412 69.7886L123.547 70.4332C123.547 70.3795 122.412 69.7349 122.412 69.7886ZM122.412 69.9498L123.547 70.5943C123.547 70.5406 122.412 69.896 122.412 69.9498ZM122.412 70.1109L123.547 70.7555C123.547 70.7018 122.412 70.0572 122.412 70.1109ZM122.412 70.272L123.547 70.9166C123.547 70.8629 122.412 70.2183 122.412 70.272Z" fill="#363633"/>
<path opacity="0.5" d="M132.955 70.9702V72.2057L132.306 72.5817V71.3999L132.955 70.9702Z" fill="#C58C67"/>
<path d="M128.846 73.1189C128.9 73.1189 129.008 73.1726 129.008 73.28C129.062 73.3875 129.008 73.4412 128.954 73.4412C128.9 73.4412 128.792 73.3875 128.792 73.28C128.792 73.1726 128.792 73.1189 128.846 73.1189ZM128.305 73.0115C128.359 73.1189 128.413 73.1726 128.467 73.1726C128.521 73.1726 128.575 73.1189 128.521 73.0115C128.467 72.9041 128.413 72.8503 128.359 72.8503C128.305 72.8503 128.251 72.9041 128.305 73.0115ZM127.819 72.6892C127.873 72.7966 127.927 72.8503 127.981 72.8503C128.035 72.8503 128.089 72.7966 128.035 72.6892C127.981 72.5818 127.927 72.5281 127.873 72.5281C127.819 72.5281 127.764 72.6355 127.819 72.6892Z" fill="#383731"/>
<path d="M116.032 76.2881V80.6927L123.709 85.1509V80.6927L116.032 76.2881Z" fill="#C19564"/>
<path d="M123.709 80.6926V85.1509L129.657 81.7669V77.3086L123.709 80.6926Z" fill="#DDB176"/>
<path d="M116.032 76.2881L123.709 80.6926L129.657 77.3086L121.979 72.8503L116.032 76.2881Z" fill="#FCD9A9"/>
<path opacity="0.7" d="M119.492 74.2468L127.224 78.7051V79.8868L126.521 80.3166V79.0811L118.843 74.6765L119.492 74.2468Z" fill="#C58C67"/>
<path opacity="0.2" d="M126.845 78.92L119.114 74.5154L119.222 74.4617L126.953 78.8663L126.845 78.92Z" fill="#A47F65"/>
<path opacity="0.4" d="M121.817 82.6262L123.331 83.4857V83.5931L121.817 82.7337V82.6262ZM122.033 83.0559L123.115 83.7005C123.115 83.6468 122.033 83.0022 122.033 83.0559ZM122.033 83.2171L123.115 83.8616C123.115 83.8079 122.033 83.1634 122.033 83.2171ZM122.033 83.3782L123.115 84.0228C123.115 83.9691 122.033 83.3782 122.033 83.3782ZM122.033 83.5931L123.115 84.2376C123.115 84.1302 122.033 83.5394 122.033 83.5931ZM122.033 83.7542L123.115 84.3988C123.115 84.3451 122.033 83.7005 122.033 83.7542Z" fill="#363633"/>
<path d="M116.464 78.0069L118.086 78.9201V77.8995L116.464 76.9863V78.0069Z" fill="#E4E4E4"/>
<path opacity="0.4" d="M116.681 77.3086L117.816 77.9532C117.816 77.8995 116.681 77.2549 116.681 77.3086ZM116.681 77.4697L117.816 78.1143C117.816 78.0606 116.681 77.416 116.681 77.4697ZM116.681 77.6309L117.816 78.2755C117.816 78.2755 116.681 77.5772 116.681 77.6309ZM116.681 77.8457L117.816 78.4903C117.816 78.4366 116.681 77.792 116.681 77.8457ZM116.681 78.0069L117.816 78.6515C117.816 78.5977 116.681 77.9532 116.681 78.0069Z" fill="#363633"/>
<path opacity="0.5" d="M127.224 78.7051V79.8868L126.521 80.3165V79.0811L127.224 78.7051Z" fill="#C58C67"/>
<path d="M123.115 80.8538C123.169 80.8538 123.277 80.9075 123.277 81.0149C123.331 81.1224 123.277 81.1761 123.223 81.1761C123.169 81.1761 123.061 81.1224 123.061 81.0149C123.007 80.9075 123.061 80.8538 123.115 80.8538ZM122.574 80.6927C122.628 80.8001 122.682 80.8538 122.736 80.8538C122.79 80.8538 122.844 80.8001 122.79 80.6927C122.736 80.5852 122.682 80.5315 122.628 80.5315C122.574 80.5315 122.52 80.6389 122.574 80.6927ZM122.087 80.4241C122.142 80.5315 122.196 80.5852 122.25 80.5852C122.304 80.5852 122.358 80.5315 122.304 80.4241C122.25 80.3167 122.196 80.2629 122.142 80.2629C122.087 80.2629 122.033 80.3167 122.087 80.4241Z" fill="#383731"/>
<path d="M116.032 71.8298V76.2881L123.709 80.7464V76.2881L116.032 71.8298Z" fill="#C19564"/>
<path d="M123.709 76.2881V80.7463L129.657 77.3623V72.9041L123.709 76.2881Z" fill="#DDB176"/>
<path d="M116.032 71.8298L123.709 76.2881L129.657 72.9041L121.979 68.4458L116.032 71.8298Z" fill="#FCD9A9"/>
<path opacity="0.7" d="M119.492 69.8423L127.224 74.3006V75.4823L126.521 75.8583V74.6766L118.843 70.272L119.492 69.8423Z" fill="#C58C67"/>
<path opacity="0.2" d="M126.845 74.5154L119.114 70.0571L119.222 70.0034L126.953 74.4617L126.845 74.5154Z" fill="#A47F65"/>
<path opacity="0.4" d="M121.817 78.2217L123.331 79.0811V79.1885L121.817 78.3291V78.2217ZM122.033 78.6514L123.115 79.296C123.115 79.2423 122.033 78.5977 122.033 78.6514ZM122.033 78.8125L123.115 79.4571C123.115 79.4034 122.033 78.7588 122.033 78.8125ZM122.033 78.9737L123.115 79.6183C123.115 79.5645 122.033 78.92 122.033 78.9737ZM122.033 79.1348L123.115 79.7794C123.115 79.7257 122.033 79.0811 122.033 79.1348ZM122.033 79.3497L123.115 79.9943C123.115 79.8868 122.033 79.296 122.033 79.3497Z" fill="#363633"/>
<path d="M116.464 73.6024L118.086 74.5155V73.4949L116.464 72.5818V73.6024Z" fill="#E4E4E4"/>
<path opacity="0.4" d="M116.681 72.9041L117.816 73.5486C117.816 73.4949 116.681 72.8503 116.681 72.9041ZM116.681 73.0652L117.816 73.7098C117.816 73.656 116.681 73.0115 116.681 73.0652ZM116.681 73.2263L117.816 73.8709C117.816 73.8172 116.681 73.1726 116.681 73.2263ZM116.681 73.3875L117.816 74.032C117.816 74.032 116.681 73.3338 116.681 73.3875ZM116.681 73.6023L117.816 74.2469C117.816 74.1932 116.681 73.5486 116.681 73.6023Z" fill="#363633"/>
<path opacity="0.5" d="M127.224 74.3005V75.4823L126.521 75.8583V74.6765L127.224 74.3005Z" fill="#C58C67"/>
<path d="M123.115 76.4492C123.169 76.4492 123.277 76.503 123.277 76.6104C123.331 76.7178 123.277 76.7715 123.223 76.7715C123.169 76.7715 123.061 76.7178 123.061 76.6104C123.007 76.503 123.061 76.4492 123.115 76.4492ZM122.574 76.2881C122.628 76.3955 122.682 76.4492 122.736 76.4492C122.79 76.4492 122.844 76.3955 122.79 76.2881C122.736 76.1807 122.682 76.127 122.628 76.127C122.574 76.127 122.52 76.2344 122.574 76.2881ZM122.087 76.0195C122.142 76.127 122.196 76.1807 122.25 76.1807C122.304 76.1807 122.358 76.127 122.304 76.0195C122.25 75.9121 122.196 75.8584 122.142 75.8584C122.087 75.8584 122.033 75.9121 122.087 76.0195Z" fill="#383731"/>
<path d="M110.193 79.6182V84.0765L117.87 88.5347V84.0765L110.193 79.6182Z" fill="#C19564"/>
<path d="M117.87 84.0764V88.5347L123.818 85.097L123.764 80.6924L117.87 84.0764Z" fill="#DDB176"/>
<path d="M110.193 79.6181L117.87 84.0764L123.764 80.6924L116.086 76.2341L110.193 79.6181Z" fill="#FCD9A9"/>
<path opacity="0.7" d="M113.653 77.6306L121.33 82.0889V83.2706L120.682 83.6466V82.4649L112.95 78.0066L113.653 77.6306Z" fill="#C58C67"/>
<path opacity="0.2" d="M121.006 82.3038L113.275 77.8455L113.329 77.7917L121.06 82.25L121.006 82.3038Z" fill="#A47F65"/>
<path opacity="0.4" d="M115.924 85.9563L117.438 86.8157V86.9231L115.924 86.0637V85.9563ZM116.14 86.4397L117.221 87.0843C117.276 87.0306 116.14 86.386 116.14 86.4397ZM116.14 86.6009L117.221 87.2454C117.276 87.1917 116.14 86.5472 116.14 86.6009ZM116.14 86.762L117.221 87.4066C117.276 87.3529 116.14 86.7083 116.14 86.762ZM116.14 86.9231L117.221 87.5677C117.276 87.514 116.14 86.8694 116.14 86.9231ZM116.14 87.0843L117.221 87.7289C117.276 87.6751 116.14 87.0306 116.14 87.0843Z" fill="#363633"/>
<path d="M110.571 81.337L112.193 82.3038V81.2833L110.571 80.3164V81.337Z" fill="#E4E4E4"/>
<path opacity="0.4" d="M110.787 80.6924L111.923 81.3369C111.923 81.2832 110.787 80.6387 110.787 80.6924ZM110.787 80.8535L111.923 81.4981C111.923 81.4444 110.787 80.7998 110.787 80.8535ZM110.787 81.0147L111.923 81.6592C111.923 81.6055 110.787 80.9609 110.787 81.0147ZM110.787 81.1758L111.923 81.8204C111.923 81.7667 110.787 81.1221 110.787 81.1758ZM110.787 81.3369L111.923 81.9815C111.923 81.9815 110.787 81.2832 110.787 81.3369Z" fill="#363633"/>
<path opacity="0.5" d="M121.331 82.0889V83.2706L120.682 83.6466V82.4649L121.331 82.0889Z" fill="#C58C67"/>
<path d="M117.221 84.1839C117.275 84.1839 117.384 84.2376 117.384 84.345C117.438 84.4524 117.384 84.5061 117.33 84.5061C117.275 84.5061 117.167 84.4524 117.167 84.345C117.167 84.2913 117.167 84.1839 117.221 84.1839ZM116.681 84.0764C116.735 84.1839 116.789 84.2376 116.843 84.2376C116.897 84.2376 116.951 84.1839 116.897 84.0764C116.843 83.969 116.789 83.9153 116.735 83.9153C116.681 83.9153 116.681 83.969 116.681 84.0764ZM116.194 83.8079C116.248 83.9153 116.302 83.969 116.356 83.969C116.41 83.969 116.464 83.9153 116.41 83.8079C116.356 83.7004 116.302 83.6467 116.248 83.6467C116.194 83.6467 116.14 83.7004 116.194 83.8079Z" fill="#383731"/>
<path d="M110.193 75.2136V79.6719L117.87 84.1302V79.6719L110.193 75.2136Z" fill="#C19564"/>
<path d="M117.87 79.6718V84.1301L123.818 80.6924L123.764 76.2878L117.87 79.6718Z" fill="#DDB176"/>
<path d="M110.193 75.2136L117.87 79.6719L123.764 76.2879L116.086 71.8296L110.193 75.2136Z" fill="#FCD9A9"/>
<path opacity="0.7" d="M113.653 73.2261L121.33 77.6307V78.8661L120.682 79.2421V78.0604L112.95 73.6021L113.653 73.2261Z" fill="#C58C67"/>
<path opacity="0.2" d="M121.006 77.8455L113.275 73.4409L113.329 73.3872L121.06 77.8455H121.006Z" fill="#A47F65"/>
<path opacity="0.4" d="M115.924 81.5518L117.438 82.4112V82.5186L115.924 81.6592V81.5518ZM116.14 82.0352L117.221 82.6798C117.276 82.6261 116.14 81.9815 116.14 82.0352ZM116.14 82.1963L117.221 82.8409C117.276 82.7872 116.14 82.1426 116.14 82.1963ZM116.14 82.3575L117.221 83.0021C117.276 82.9483 116.14 82.3038 116.14 82.3575ZM116.14 82.5186L117.221 83.1632C117.276 83.1095 116.14 82.4649 116.14 82.5186ZM116.14 82.6798L117.221 83.3243C117.276 83.2706 116.14 82.6261 116.14 82.6798Z" fill="#363633"/>
<path d="M110.571 76.9324L112.193 77.8993V76.8787L110.571 75.9119V76.9324Z" fill="#E4E4E4"/>
<path opacity="0.4" d="M110.787 76.2341L111.923 76.8787C111.923 76.8787 110.787 76.1804 110.787 76.2341ZM110.787 76.449L111.923 77.0936C111.923 77.0399 110.787 76.3953 110.787 76.449ZM110.787 76.6102L111.923 77.2547C111.923 77.201 110.787 76.5564 110.787 76.6102ZM110.787 76.7713L111.923 77.4159C111.923 77.3622 110.787 76.7176 110.787 76.7713ZM110.787 76.9324L111.923 77.577C111.923 77.5233 110.787 76.8787 110.787 76.9324Z" fill="#363633"/>
<path opacity="0.5" d="M121.331 77.6306V78.866L120.682 79.2421V78.0603L121.331 77.6306Z" fill="#C58C67"/>
<path d="M117.221 79.7793C117.275 79.7793 117.384 79.833 117.384 79.9405C117.438 80.0479 117.384 80.1016 117.33 80.1016C117.275 80.1016 117.167 80.0479 117.167 79.9405C117.167 79.833 117.167 79.7793 117.221 79.7793ZM116.681 79.6719C116.735 79.7793 116.789 79.833 116.843 79.833C116.897 79.833 116.951 79.7793 116.897 79.6719C116.843 79.5645 116.789 79.5108 116.735 79.5108C116.681 79.5108 116.681 79.5645 116.681 79.6719ZM116.194 79.4033C116.248 79.5108 116.302 79.5645 116.356 79.5645C116.41 79.5645 116.464 79.5108 116.41 79.4033C116.356 79.2959 116.302 79.2422 116.248 79.2422C116.194 79.2422 116.14 79.2959 116.194 79.4033Z" fill="#383731"/>
<path d="M117.87 97.2366V101.695L125.602 106.153L125.548 101.695L117.87 97.2366Z" fill="#C19564"/>
<path d="M125.548 101.695L125.602 106.153L131.495 102.769V98.3108L125.548 101.695Z" fill="#DDB176"/>
<path d="M117.87 97.2365L125.548 101.695L131.495 98.3108L123.818 93.8525L117.87 97.2365Z" fill="#FCD9A9"/>
<path opacity="0.7" d="M121.33 95.249L129.062 99.7073V100.889L128.359 101.265V100.083L120.682 95.625L121.33 95.249Z" fill="#C58C67"/>
<path opacity="0.2" d="M128.684 99.9222L120.952 95.4639L121.06 95.4102L128.792 99.8685L128.684 99.9222Z" fill="#A47F65"/>
<path opacity="0.4" d="M123.655 103.628L125.169 104.488V104.595L123.655 103.736V103.628ZM123.872 104.058L124.953 104.703C124.953 104.649 123.872 104.004 123.872 104.058ZM123.872 104.219L124.953 104.864C124.953 104.81 123.872 104.166 123.872 104.219ZM123.872 104.38L124.953 105.025C124.953 104.971 123.872 104.327 123.872 104.38ZM123.872 104.542L124.953 105.186C124.953 105.132 123.872 104.488 123.872 104.542ZM123.872 104.703L124.953 105.347C124.953 105.294 123.872 104.649 123.872 104.703Z" fill="#363633"/>
<path d="M118.303 99.0091L119.925 99.9223V98.9017L118.303 97.9348V99.0091Z" fill="#E4E4E4"/>
<path opacity="0.4" d="M118.519 98.3108L119.654 98.9554C119.654 98.9017 118.519 98.2571 118.519 98.3108ZM118.519 98.4719L119.654 99.1165C119.654 99.0628 118.519 98.4182 118.519 98.4719ZM118.519 98.6331L119.654 99.2777C119.654 99.2239 118.519 98.5794 118.519 98.6331ZM118.519 98.7942L119.654 99.4388C119.654 99.4388 118.519 98.7405 118.519 98.7942ZM118.519 98.9554L119.654 99.5999C119.654 99.5999 118.519 98.9017 118.519 98.9554Z" fill="#363633"/>
<path opacity="0.5" d="M129.062 99.7073V100.889L128.359 101.265V100.083L129.062 99.7073Z" fill="#C58C67"/>
<path d="M124.953 101.802C125.007 101.802 125.115 101.856 125.115 101.963C125.169 102.071 125.115 102.125 125.061 102.125C125.007 102.125 124.899 102.071 124.899 101.963C124.845 101.91 124.899 101.802 124.953 101.802ZM124.412 101.695C124.466 101.802 124.52 101.856 124.575 101.856C124.629 101.856 124.683 101.802 124.629 101.695C124.575 101.587 124.52 101.534 124.466 101.534C124.412 101.534 124.358 101.587 124.412 101.695ZM123.926 101.426C123.98 101.534 124.034 101.587 124.088 101.587C124.142 101.587 124.196 101.534 124.142 101.426C124.088 101.319 124.034 101.265 123.98 101.265C123.926 101.265 123.872 101.319 123.926 101.426Z" fill="#383731"/>
<path opacity="0.7" d="M147.121 58.24L134.036 60.1737L123.872 72.2057L107.165 81.3908L117.059 99.8685L124.466 95.6251L127.116 97.1291H133.442V101.587H136.632L144.742 96.9143C144.688 89.6091 146.688 74.784 146.472 71.776L147.121 58.24Z" fill="#917F70"/>
<path d="M127.981 123.718L113.004 115.124V79.2961L127.981 87.8904V123.718Z" fill="#075684"/>
<path d="M128.521 123.449L127.981 123.718V87.8904L128.521 87.5681V123.449Z" fill="#0F6EA1"/>
<path d="M127.981 87.8904L113.004 79.2962L113.545 78.9739L128.521 87.5682L127.981 87.8904Z" fill="#127DB2"/>
<path d="M114.951 87.9979V82.0894L125.764 88.3202V94.2288L114.951 87.9979Z" fill="#074C75"/>
<path opacity="0.8" d="M125.764 91.919V94.2288L114.951 87.9979L115.762 86.5476L125.764 91.919Z" fill="#0F6EA1"/>
<path d="M115.762 86.5476L125.98 92.4024V88.911L115.762 83.0562V86.5476Z" fill="#075684"/>
<path d="M115.762 83.0562V86.5476L114.951 87.9979V82.0894L115.762 83.0562Z" fill="#074C75"/>
<path d="M114.951 95.3568V89.4482L125.764 95.6791V101.588L114.951 95.3568Z" fill="#074C75"/>
<path opacity="0.8" d="M125.764 99.2779V101.588L114.951 95.3568L115.762 93.9065L125.764 99.2779Z" fill="#0F6EA1"/>
<path d="M115.762 93.9065L125.98 99.7613V96.2699L115.762 90.415V93.9065Z" fill="#075684"/>
<path d="M115.762 90.4151V93.9065L114.951 95.3568V89.4482L115.762 90.4151Z" fill="#074C75"/>
<path d="M114.951 107.174V101.265L125.764 107.443V113.405L114.951 107.174Z" fill="#074C75"/>
<path opacity="0.8" d="M125.764 111.041V113.405L114.951 107.174L115.762 105.67L125.764 111.041Z" fill="#0F6EA1"/>
<path d="M115.762 105.67L125.98 111.525V108.087L115.762 102.232V105.67Z" fill="#075684"/>
<path d="M115.762 102.232V105.67L114.951 107.174V101.265L115.762 102.232Z" fill="#074C75"/>
<path d="M114.951 114.533V108.624L125.764 114.855V120.764L114.951 114.533Z" fill="#074C75"/>
<path opacity="0.8" d="M125.764 118.454V120.764L114.951 114.533L115.762 113.083L125.764 118.454Z" fill="#0F6EA1"/>
<path d="M115.762 113.082L125.98 118.937V115.446L115.762 109.591V113.082Z" fill="#075684"/>
<path d="M115.762 109.591V113.083L114.951 114.533V108.624L115.762 109.591Z" fill="#074C75"/>
<path d="M159.772 105.509L144.796 96.9143V61.0869L159.772 69.6812V105.509Z" fill="#075684"/>
<path d="M160.313 105.186L159.772 105.509V69.6812L160.313 69.3589V105.186Z" fill="#0F6EA1"/>
<path d="M159.772 69.6812L144.796 61.0869L145.336 60.7646L160.313 69.3589L159.772 69.6812Z" fill="#127DB2"/>
<path d="M157.718 102.393L146.904 96.1624L146.093 95.5178L156.907 101.749L157.718 102.393Z" fill="#074C75"/>
<path d="M156.907 101.749L146.093 95.5178V91.8115L156.961 98.0424L156.907 101.749Z" fill="#075684"/>
<g opacity="0.8">
<path opacity="0.8" d="M156.961 98.0425L146.093 91.8116L146.904 90.2539L157.718 96.4848L156.961 98.0425Z" fill="#0F6EA1"/>
</g>
<path d="M157.718 96.4849V102.393L156.907 101.749L156.961 98.0426L157.718 96.4849Z" fill="#085D8F"/>
<path d="M157.718 95.0344L146.904 88.8035L146.093 88.1589L156.907 94.3898L157.718 95.0344Z" fill="#074C75"/>
<path d="M156.907 94.3898L146.093 88.1589V84.4526L156.961 90.6835L156.907 94.3898Z" fill="#075684"/>
<g opacity="0.8">
<path opacity="0.8" d="M156.961 90.6836L146.093 84.4527L146.904 82.895L157.718 89.1259L156.961 90.6836Z" fill="#0F6EA1"/>
</g>
<path d="M157.718 89.126V95.0346L156.907 94.39L156.961 90.6837L157.718 89.126Z" fill="#085D8F"/>
<path d="M157.718 83.271L146.904 77.0401L146.093 76.3418L156.907 82.6264L157.718 83.271Z" fill="#074C75"/>
<path d="M156.907 82.6264L146.093 76.3418V72.6892L156.961 78.9201L156.907 82.6264Z" fill="#075684"/>
<g opacity="0.8">
<path opacity="0.8" d="M156.961 78.9202L146.093 72.6893L146.904 71.1316L157.718 77.3625L156.961 78.9202Z" fill="#0F6EA1"/>
</g>
<path d="M157.718 77.3625V83.2711L156.907 82.6266L156.961 78.9203L157.718 77.3625Z" fill="#085D8F"/>
<path d="M157.718 75.9121L146.904 69.6812L146.093 69.0366L156.907 75.2675L157.718 75.9121Z" fill="#074C75"/>
<path d="M156.907 75.2675L146.093 69.0366V65.3303L156.961 71.5612L156.907 75.2675Z" fill="#075684"/>
<g opacity="0.8">
<path opacity="0.8" d="M156.961 71.5613L146.093 65.3304L146.904 63.7727L157.718 70.0036L156.961 71.5613Z" fill="#0F6EA1"/>
</g>
<path d="M157.718 70.0037V75.9122L156.907 75.2677L156.961 71.5614L157.718 70.0037Z" fill="#085D8F"/>
<path d="M61.8028 64.7395L60.7756 64.1486C60.289 63.88 59.8564 63.7726 59.5861 63.88C59.3158 63.9875 59.1536 64.3097 59.1536 64.7932V67.8549C59.1536 68.3383 59.3158 68.8218 59.5861 69.2515C59.8564 69.6812 60.2349 70.0572 60.7756 70.3258L61.8028 70.9166C62.2895 71.1852 62.6679 71.2926 62.9923 71.1852C63.2627 71.0778 63.4249 70.7555 63.4249 70.272V69.8423C63.4249 69.6812 63.3708 69.5738 63.2086 69.52L62.3976 69.0366C62.2894 68.9829 62.1813 68.9829 62.1813 69.144V69.52C62.1813 69.7349 62.1273 69.8423 62.0732 69.896C61.9651 69.9497 61.8569 69.896 61.6406 69.7886L60.9918 69.4126C60.7756 69.3052 60.6674 69.1978 60.5593 69.0366C60.4512 68.8755 60.4512 68.7143 60.4512 68.4995V65.5989C60.4512 65.384 60.5052 65.2766 60.5593 65.2229C60.6674 65.1692 60.7756 65.2229 60.9918 65.3303L61.6406 65.7063C61.8569 65.8137 62.0191 65.9749 62.0732 66.0823C62.1813 66.2435 62.1813 66.4046 62.1813 66.6195V66.9955C62.1813 67.1566 62.2354 67.264 62.3976 67.3177L63.2086 67.8012C63.3708 67.9086 63.4249 67.8549 63.4249 67.6938V67.264C63.4249 66.7806 63.2627 66.2972 62.9923 65.8675C62.6679 65.384 62.2895 65.008 61.8028 64.7395Z" fill="#C1C0B6"/>
<path d="M66.8851 67.6401L65.5875 66.8881C65.4253 66.7807 65.3172 66.8344 65.3172 66.9419L63.8033 71.8299C63.7492 71.9373 63.8033 72.0447 63.9114 72.0984L64.8306 72.6356C64.8847 72.6893 64.9387 72.6893 64.9928 72.6893C65.0469 72.6893 65.0469 72.6356 65.0469 72.5819L65.3172 71.6687L67.2095 72.743L67.4799 73.9784C67.4799 74.0859 67.5339 74.1396 67.5339 74.1933C67.5339 74.247 67.588 74.3007 67.6961 74.3007L68.6153 74.8379C68.7234 74.8916 68.7775 74.8379 68.7234 74.6767L67.2095 68.0699C67.1555 67.855 67.0473 67.7476 66.8851 67.6401ZM65.5335 70.8093L66.2363 68.4459C66.2904 68.4459 66.9933 71.615 66.9933 71.615L65.5335 70.8093Z" fill="#C1C0B6"/>
<path d="M72.5621 74.6765C73.1569 74.7302 73.4272 74.4079 73.4272 73.7097V72.9577C73.4272 72.4742 73.265 71.9908 72.9947 71.5611C72.7243 71.1314 72.3459 70.7554 71.8052 70.4868L69.5344 69.1439C69.4262 69.0902 69.3181 69.0902 69.3181 69.2514V74.9988C69.3181 75.1062 69.3722 75.2137 69.5344 75.3211L70.3454 75.8045C70.4535 75.8582 70.5617 75.8582 70.5617 75.6971V73.7097C70.5617 73.6559 70.6157 73.6022 70.6698 73.6559L71.3186 74.0319L72.2918 76.6639C72.3459 76.7714 72.3459 76.8251 72.3999 76.8788C72.454 76.9325 72.5081 76.9862 72.6703 77.0399L73.4272 77.4697C73.5894 77.5771 73.6435 77.5234 73.5894 77.3085L72.5621 74.6765ZM72.1837 73.0651C72.1837 73.2799 72.1296 73.3874 72.0215 73.3874C71.9133 73.4411 71.7511 73.3874 71.5889 73.2799L70.6698 72.7428C70.6157 72.6891 70.5617 72.6354 70.5617 72.5817V70.9165C70.5617 70.8628 70.6157 70.8091 70.6698 70.8628L71.5889 71.3999C71.8052 71.5074 71.9674 71.6685 72.0215 71.7759C72.1296 71.9371 72.1837 72.0982 72.1837 72.3131V73.0651Z" fill="#C1C0B6"/>
<path d="M76.8876 73.3874L75.8603 72.7966C75.3737 72.528 74.9411 72.4206 74.6708 72.528C74.4005 72.6354 74.2383 72.9577 74.2383 73.4411V76.5028C74.2383 76.9863 74.4005 77.4697 74.6708 77.8994C74.9411 78.3291 75.3196 78.7051 75.8603 78.9737L76.8876 79.5645C77.3742 79.8331 77.7526 79.9405 78.077 79.8331C78.3474 79.7257 78.5096 79.4034 78.5096 78.92V77.3085C78.5096 77.1474 78.4555 77.04 78.2933 76.9863L76.6172 76.0194C76.5091 75.9657 76.401 75.9657 76.401 76.1268V76.7714C76.401 76.8788 76.455 76.9863 76.6172 77.0937L77.212 77.416C77.266 77.4697 77.3201 77.5234 77.3201 77.5771V78.168C77.3201 78.3828 77.266 78.4903 77.212 78.544C77.1038 78.5977 76.9957 78.544 76.7794 78.4366L76.1306 78.0605C75.9144 77.9531 75.8062 77.8457 75.6981 77.6845C75.59 77.5234 75.59 77.3623 75.59 77.1474V74.2468C75.59 74.032 75.644 73.9246 75.6981 73.8708C75.8062 73.8171 75.9144 73.8708 76.1306 73.9783L76.7794 74.3543C76.9957 74.4617 77.1038 74.6228 77.212 74.7303C77.3201 74.8377 77.3201 75.0526 77.3201 75.2137V75.4285C77.3201 75.5897 77.3742 75.6971 77.5364 75.7508L78.3474 76.2343C78.4555 76.288 78.5636 76.288 78.5636 76.1268V75.8583C78.5636 75.3748 78.4014 74.8914 78.1311 74.4617C77.7526 74.032 77.3742 73.656 76.8876 73.3874Z" fill="#C1C0B6"/>
<path d="M83.1052 77.3623C82.8349 76.9326 82.4564 76.5566 81.9158 76.2881L80.8344 75.6435C80.3478 75.3749 79.9153 75.2675 79.6449 75.3749C79.3746 75.4823 79.2124 75.8046 79.2124 76.2881V79.3498C79.2124 79.8332 79.3746 80.3166 79.6449 80.7463C79.9153 81.1761 80.2937 81.5521 80.8344 81.8206L81.9158 82.4652C82.4024 82.7338 82.8349 82.8412 83.1052 82.7338C83.3756 82.6264 83.5378 82.3041 83.5378 81.8206V78.7589C83.5378 78.2755 83.4296 77.7921 83.1052 77.3623ZM82.2942 81.0149C82.2942 81.2298 82.2402 81.3372 82.1861 81.3909C82.078 81.4446 81.9698 81.3909 81.7536 81.2835L81.0507 80.9075C80.8344 80.8001 80.7263 80.6389 80.6181 80.5315C80.51 80.4241 80.51 80.2092 80.51 80.0481V77.1475C80.51 76.9326 80.5641 76.8252 80.6181 76.7715C80.7263 76.7178 80.8344 76.7715 81.0507 76.8789L81.7536 77.2549C81.9698 77.3623 82.132 77.5235 82.1861 77.6309C82.2942 77.7921 82.2942 77.9532 82.2942 78.1681V81.0149Z" fill="#C1C0B6"/>
<path d="M83.5378 84.3451L59.1536 70.3257V75.4823L83.5378 84.3451Z" fill="#C07E1D"/>
<path opacity="0.5" d="M61.8028 70.9167V69.8424C61.9109 69.8961 61.965 69.8961 62.0191 69.8424C62.1272 69.7887 62.1272 69.6813 62.1272 69.4664V69.0904C62.1272 68.9293 62.1813 68.9293 62.3435 68.983L62.6138 69.1441V71.1853C62.3975 71.1315 62.1272 71.0778 61.8028 70.9167ZM64.0736 72.2058L64.8306 72.6355C64.8846 72.6355 64.8846 68.3921 64.8846 68.3921L64.0736 71.0241V72.2058ZM61.8028 64.7395V65.8138C61.9109 65.8675 61.965 65.975 62.0191 66.0287C62.1272 66.1898 62.1272 66.351 62.1272 66.5658V66.9418C62.1272 67.103 62.1813 67.2104 62.3435 67.2641L62.6138 67.4253V65.3841C62.3975 65.1693 62.1272 64.9544 61.8028 64.7395ZM62.6138 72.367L61.8028 71.8835V76.4493L62.6138 76.7715V72.367ZM68.7234 74.6767L68.5612 73.9784V74.7841C68.7234 74.8378 68.7774 74.7841 68.7234 74.6767ZM60.3971 75.9658V71.0778L59.5861 70.5944V75.6435L60.3971 75.9658ZM59.5861 69.1978C59.8023 69.5201 60.0727 69.7887 60.3971 70.0035V68.4995C60.3971 68.4458 60.3971 65.5453 60.3971 65.5453C60.3971 65.4915 60.3971 65.4915 60.3971 65.4378V63.9338C60.0727 63.7727 59.8023 63.719 59.5861 63.8264V69.1978ZM73.0487 77.3624L73.4272 77.5773C73.5894 77.6847 73.6435 77.631 73.5894 77.4161L73.0487 75.9658V77.3624ZM69.3181 74.999C69.3181 75.0527 69.3181 75.1064 69.3722 75.1601V69.1441C69.3722 69.1441 69.3181 69.1978 69.3181 69.2515V74.999ZM67.1554 67.9087C67.1014 67.8013 67.0473 67.7475 66.9392 67.6938L66.3444 67.3715V68.607L66.9932 71.6687L66.3444 71.2927V72.2595L67.1554 72.743V67.9087ZM73.0487 74.5693C73.3191 74.4618 73.4272 74.1395 73.4272 73.7098V72.9578C73.4272 72.4744 73.265 72.0447 73.0487 71.6687V74.5693ZM71.643 74.8915V73.2801L70.832 72.7967V73.7635L71.3727 74.0858L71.643 74.8915ZM70.7779 69.8961V70.9704L71.5889 71.4538V70.4333L70.7779 69.8961ZM64.8846 73.6561L64.0736 73.1727V77.3087L64.8846 77.631V73.6561ZM76.1305 80.0481L75.3195 79.5647V81.2835L76.1305 81.6058V80.0481ZM75.2655 72.5281V78.5441C75.4277 78.7053 75.6439 78.8127 75.8061 78.9738L76.0765 79.135V78.0607C75.8061 77.8995 75.698 77.7921 75.5899 77.631C75.4817 77.4698 75.4817 77.3087 75.4817 77.0938V74.1933C75.4817 73.9784 75.5358 73.871 75.5899 73.8173C75.698 73.7635 75.8061 73.8173 76.0224 73.9247C76.0765 73.9784 76.0765 72.9041 76.0765 72.9041L75.8061 72.743C75.6439 72.6893 75.4817 72.5818 75.2655 72.5281ZM78.3473 81.3373L77.5363 80.8538V82.143L78.3473 82.4653V81.3373ZM80.6181 82.6264L79.8071 82.143V82.9487L80.6181 83.271V82.6264ZM82.8348 83.9155L82.0238 83.4858V83.8081L82.8348 84.1304V83.9155ZM67.1554 74.9453L66.3444 74.4618V78.1144L67.1554 78.4367V74.9453ZM78.0229 79.7795C78.1851 79.7258 78.2392 79.6184 78.3473 79.4573V77.0401C78.2932 76.9864 78.2932 76.9864 78.2392 76.9327L77.5363 76.5567V79.8333C77.7526 79.8333 77.9148 79.8333 78.0229 79.7795ZM71.643 77.5235L70.832 77.0401V79.7258L71.643 80.0481V77.5235ZM79.8071 75.375V80.8538C80.0234 81.1761 80.2937 81.391 80.6181 81.6595V80.4241C80.564 80.3167 80.51 80.2093 80.51 80.0481V77.1475C80.51 76.9864 80.564 76.879 80.6181 76.8253V75.6435C80.2937 75.375 79.9693 75.3213 79.8071 75.375ZM73.8597 78.8127L73.0487 78.3293V80.5315L73.8597 80.8538V78.8127ZM69.3722 76.2344L68.5612 75.751V78.9201L69.3722 79.2424V76.2344ZM82.8348 82.7338V77.0401C82.6186 76.7715 82.3482 76.5567 82.0238 76.3418V77.4161C82.0779 77.4698 82.132 77.5235 82.186 77.5773C82.2942 77.7384 82.2942 77.8995 82.2942 78.1144V81.015C82.2942 81.2298 82.2401 81.3373 82.186 81.391C82.132 81.391 82.0779 81.391 82.0238 81.391V82.4653C82.3482 82.6801 82.6186 82.7338 82.8348 82.7338ZM77.5363 75.8047L78.2392 76.2344C78.2932 76.2344 78.2932 76.2344 78.3473 76.2344V75.1064C78.2932 74.8915 78.1851 74.623 78.0229 74.4081C77.8607 74.1933 77.6985 73.9784 77.5363 73.8173V75.8047Z" fill="#C1C0B6"/>
</g>
<defs>
<linearGradient id="paint0_linear_229_6498" x1="121.295" y1="74.5533" x2="136.784" y2="101.558" gradientUnits="userSpaceOnUse">
<stop stop-color="#454545"/>
<stop offset="1" stop-color="#555555"/>
</linearGradient>
<linearGradient id="paint1_linear_229_6498" x1="129.572" y1="69.7879" x2="145.041" y2="96.7568" gradientUnits="userSpaceOnUse">
<stop stop-color="#343434"/>
<stop offset="1" stop-color="#414141"/>
</linearGradient>
<clipPath id="clip0_229_6498">
<rect width="190" height="135" fill="white"/>
</clipPath>
</defs>
</svg>
