<svg width="84" height="62" viewBox="0 0 84 62" fill="none" xmlns="http://www.w3.org/2000/svg">
<path d="M81.375 43.4688C81.2026 43.4688 81.0319 43.435 80.8726 43.369C80.7133 43.3031 80.5686 43.2064 80.4467 43.0845C80.3248 42.9627 80.2281 42.8179 80.1622 42.6586C80.0963 42.4994 80.0624 42.3286 80.0625 42.1562V35.5938C80.0625 35.2457 80.2008 34.9118 80.4469 34.6657C80.6931 34.4195 81.0269 34.2812 81.375 34.2812C81.7231 34.2812 82.0569 34.4195 82.3031 34.6657C82.5492 34.9118 82.6875 35.2457 82.6875 35.5938V42.1562C82.6876 42.3286 82.6537 42.4994 82.5878 42.6586C82.5219 42.8179 82.4252 42.9627 82.3033 43.0845C82.1814 43.2064 82.0367 43.3031 81.8774 43.369C81.7181 43.435 81.5474 43.4688 81.375 43.4688V43.4688Z" fill="#0A7991"/>
<path d="M81.3763 36.9063C81.1323 36.9065 80.8931 36.8388 80.6855 36.7106C80.4779 36.5825 80.3101 36.399 80.201 36.1808L78.8885 33.5558C78.8109 33.4016 78.7645 33.2336 78.7519 33.0614C78.7394 32.8892 78.7609 32.7162 78.8153 32.5524C78.8697 32.3885 78.9559 32.237 79.069 32.1065C79.182 31.976 79.3197 31.8691 79.4741 31.7919C79.6285 31.7147 79.7966 31.6687 79.9689 31.6566C80.1411 31.6444 80.314 31.6664 80.4777 31.7212C80.6414 31.776 80.7927 31.8625 80.9229 31.9759C81.0532 32.0892 81.1598 32.2271 81.2366 32.3817L82.5491 35.0067C82.6492 35.2067 82.6964 35.429 82.6865 35.6524C82.6765 35.8759 82.6096 36.093 82.4921 36.2833C82.3746 36.4736 82.2104 36.6307 82.0151 36.7398C81.8199 36.8488 81.6 36.9061 81.3763 36.9063V36.9063Z" fill="#0A7991"/>
<path d="M80.0612 34.2813C79.8375 34.2811 79.6176 34.2238 79.4224 34.1148C79.2271 34.0058 79.0629 33.8486 78.9454 33.6583C78.8279 33.468 78.761 33.2509 78.751 33.0274C78.7411 32.804 78.7883 32.5817 78.8884 32.3817L80.2009 29.7567C80.2777 29.6021 80.3843 29.4642 80.5146 29.3509C80.6448 29.2375 80.7961 29.151 80.9598 29.0962C81.1235 29.0414 81.2964 29.0194 81.4686 29.0316C81.6409 29.0437 81.809 29.0897 81.9634 29.1669C82.1178 29.2441 82.2555 29.351 82.3685 29.4815C82.4816 29.612 82.5678 29.7635 82.6222 29.9274C82.6766 30.0912 82.6981 30.2642 82.6856 30.4364C82.673 30.6086 82.6266 30.7766 82.549 30.9308L81.2365 33.5558C81.1274 33.774 80.9596 33.9575 80.752 34.0856C80.5444 34.2138 80.3052 34.2815 80.0612 34.2813V34.2813Z" fill="#0A7991"/>
<path d="M81.3763 31.6564C81.177 31.6562 80.9803 31.6106 80.8011 31.5231C80.622 31.4356 80.4651 31.3085 80.3423 31.1514C80.2196 30.9943 80.1342 30.8114 80.0926 30.6164C80.051 30.4214 80.0543 30.2196 80.1023 30.0261L81.4148 24.7761C81.4999 24.4394 81.715 24.1501 82.013 23.9718C82.311 23.7935 82.6676 23.7406 83.0045 23.8247C83.3415 23.9089 83.6313 24.1232 83.8104 24.4207C83.9896 24.7182 84.0435 25.0746 83.9603 25.4118L82.6478 30.6618C82.5773 30.9457 82.4138 31.1979 82.1834 31.3781C81.9529 31.5583 81.6689 31.6563 81.3763 31.6564V31.6564Z" fill="#0A7991"/>
<path d="M82.6888 26.4063C82.4448 26.4065 82.2056 26.3388 81.998 26.2106C81.7904 26.0825 81.6226 25.899 81.5135 25.6808L80.201 23.0558C80.1234 22.9016 80.077 22.7336 80.0644 22.5614C80.0519 22.3892 80.0734 22.2162 80.1278 22.0524C80.1822 21.8885 80.2684 21.737 80.3815 21.6065C80.4945 21.476 80.6322 21.3691 80.7866 21.2919C80.941 21.2147 81.1091 21.1687 81.2814 21.1566C81.4536 21.1444 81.6265 21.1664 81.7902 21.2212C81.9539 21.276 82.1052 21.3625 82.2354 21.4759C82.3657 21.5892 82.4723 21.7271 82.5491 21.8817L83.8616 24.5067C83.9617 24.7067 84.0089 24.929 83.999 25.1524C83.989 25.3759 83.9221 25.593 83.8046 25.7833C83.6871 25.9736 83.5229 26.1308 83.3276 26.2398C83.1324 26.3488 82.9125 26.4061 82.6888 26.4063V26.4063Z" fill="#0A7991"/>
<path d="M81.375 23.7812C81.1155 23.7812 80.8617 23.7041 80.646 23.5599C80.4302 23.4157 80.262 23.2107 80.1627 22.9709C80.0633 22.7311 80.0374 22.4673 80.088 22.2127C80.1386 21.9582 80.2636 21.7243 80.4471 21.5408L81.7596 20.2283C81.881 20.1046 82.0258 20.0062 82.1855 19.9388C82.3452 19.8714 82.5166 19.8362 82.69 19.8355C82.8633 19.8347 83.0351 19.8682 83.1954 19.9342C83.3557 20.0002 83.5013 20.0973 83.6239 20.2198C83.7465 20.3424 83.8435 20.488 83.9095 20.6483C83.9755 20.8086 84.009 20.9804 84.0083 21.1537C84.0075 21.3271 83.9724 21.4986 83.9049 21.6582C83.8375 21.8179 83.7391 21.9627 83.6154 22.0841L82.3029 23.3966C82.1812 23.5187 82.0366 23.6155 81.8773 23.6815C81.7181 23.7475 81.5474 23.7814 81.375 23.7812V23.7812Z" fill="#0A7991"/>
<path d="M82.6888 22.4688C82.4448 22.469 82.2056 22.4013 81.998 22.2731C81.7904 22.145 81.6226 21.9615 81.5135 21.7433L80.201 19.1183C80.1234 18.9641 80.077 18.7961 80.0644 18.6239C80.0519 18.4517 80.0734 18.2787 80.1278 18.1149C80.1822 17.951 80.2684 17.7995 80.3815 17.669C80.4945 17.5385 80.6322 17.4316 80.7866 17.3544C80.941 17.2772 81.1091 17.2312 81.2814 17.2191C81.4536 17.2069 81.6265 17.2289 81.7902 17.2837C81.9539 17.3385 82.1052 17.425 82.2354 17.5384C82.3657 17.6517 82.4723 17.7896 82.5491 17.9442L83.8616 20.5692C83.9617 20.7692 84.0089 20.9915 83.999 21.2149C83.989 21.4384 83.9221 21.6555 83.8046 21.8458C83.6871 22.0361 83.5229 22.1933 83.3276 22.3023C83.1324 22.4113 82.9125 22.4686 82.6888 22.4688V22.4688Z" fill="#0A7991"/>
<path d="M76.1237 21.156C75.8036 21.1556 75.4947 21.0382 75.2551 20.8259C75.0156 20.6136 74.8619 20.321 74.823 20.0033C74.784 19.6856 74.8626 19.3646 75.0439 19.1007C75.2251 18.8369 75.4966 18.6484 75.8071 18.5708L81.0571 17.2583C81.2244 17.216 81.3984 17.2071 81.5692 17.2322C81.74 17.2573 81.9041 17.3158 82.0522 17.4044C82.2003 17.493 82.3294 17.61 82.4323 17.7486C82.5351 17.8873 82.6095 18.0448 82.6513 18.2123C82.6932 18.3797 82.7015 18.5538 82.676 18.7244C82.6504 18.8951 82.5914 19.0591 82.5024 19.2069C82.4133 19.3548 82.296 19.4836 82.1571 19.586C82.0182 19.6884 81.8604 19.7625 81.6928 19.8038L76.4428 21.1163C76.3385 21.1427 76.2313 21.156 76.1237 21.156Z" fill="#0A7991"/>
<path d="M72.1875 25.0937C71.9279 25.0937 71.6742 25.0166 71.4585 24.8724C71.2427 24.7282 71.0745 24.5232 70.9752 24.2834C70.8758 24.0436 70.8499 23.7798 70.9005 23.5252C70.9511 23.2707 71.0761 23.0368 71.2596 22.8533L75.1971 18.9158C75.3185 18.7921 75.4633 18.6937 75.623 18.6263C75.7826 18.5589 75.9541 18.5237 76.1275 18.523C76.3008 18.5222 76.4726 18.5557 76.6329 18.6217C76.7932 18.6877 76.9388 18.7848 77.0614 18.9073C77.1839 19.0299 77.281 19.1755 77.347 19.3358C77.413 19.4961 77.4465 19.6679 77.4457 19.8412C77.4449 20.0146 77.4098 20.1861 77.3424 20.3457C77.275 20.5054 77.1766 20.6502 77.0529 20.7716L73.1154 24.7091C72.9937 24.8312 72.8491 24.928 72.6898 24.994C72.5306 25.06 72.3599 25.0939 72.1875 25.0937V25.0937Z" fill="#0A7991"/>
<path d="M72.1875 25.0936C72.0441 25.0938 71.9016 25.0704 71.7658 25.0244L67.8924 23.7119C67.5626 23.6001 67.2908 23.3618 67.1368 23.0496C66.9827 22.7373 66.9589 22.3767 67.0708 22.0469C67.1826 21.7172 67.4209 21.4454 67.7331 21.2913C68.0454 21.1372 68.406 21.1135 68.7358 21.2253L72.6092 22.5378C72.9038 22.6377 73.1534 22.839 73.3135 23.1059C73.4735 23.3727 73.5335 23.6877 73.4829 23.9947C73.4322 24.3016 73.2742 24.5807 73.0369 24.7819C72.7997 24.9832 72.4986 25.0937 72.1875 25.0936V25.0936Z" fill="#0A7991"/>
<path d="M57.7513 29.0313C57.4552 29.0317 57.1677 28.932 56.9355 28.7483C56.7033 28.5646 56.54 28.3078 56.4721 28.0196C56.4043 27.7314 56.4358 27.4288 56.5617 27.1608C56.6876 26.8928 56.9004 26.6752 57.1656 26.5435L67.7297 21.2935C68.0412 21.1402 68.4007 21.1167 68.7295 21.2279C69.0584 21.3391 69.3298 21.576 69.4844 21.8869C69.639 22.1977 69.6641 22.5571 69.5543 22.8865C69.4445 23.2158 69.2088 23.4882 68.8986 23.6442L58.3345 28.8942C58.1534 28.9845 57.9537 29.0314 57.7513 29.0313V29.0313Z" fill="#0A7991"/>
<path d="M31.5013 29.0311C31.4287 29.0314 31.3563 29.0254 31.2848 29.0132L23.4098 27.7007C23.0664 27.6436 22.7598 27.4524 22.5574 27.1692C22.355 26.8861 22.2734 26.5341 22.3305 26.1908C22.3876 25.8474 22.5788 25.5408 22.8619 25.3384C23.1451 25.1361 23.4971 25.0544 23.8404 25.1115L31.7154 26.424C32.0402 26.4781 32.3328 26.6523 32.5352 26.912C32.7375 27.1717 32.8349 27.4979 32.808 27.8261C32.781 28.1542 32.6317 28.4603 32.3897 28.6835C32.1476 28.9067 31.8306 29.0308 31.5013 29.0311Z" fill="#0A7991"/>
<path d="M23.6237 27.7188C23.4204 27.7186 23.2198 27.6712 23.0379 27.5804L20.4129 26.2679C20.2583 26.1911 20.1204 26.0845 20.0071 25.9543C19.8937 25.824 19.8072 25.6727 19.7524 25.509C19.6976 25.3453 19.6756 25.1724 19.6878 25.0002C19.6999 24.8279 19.7459 24.6598 19.8231 24.5054C19.9003 24.351 20.0072 24.2133 20.1377 24.1003C20.2682 23.9872 20.4197 23.9011 20.5836 23.8467C20.7474 23.7923 20.9204 23.7707 21.0926 23.7833C21.2648 23.7958 21.4328 23.8422 21.587 23.9198L24.212 25.2323C24.4767 25.3645 24.6888 25.5823 24.8142 25.8502C24.9395 26.1182 24.9707 26.4206 24.9026 26.7085C24.8344 26.9964 24.6711 27.2528 24.4389 27.4362C24.2068 27.6196 23.9195 27.7192 23.6237 27.7188V27.7188Z" fill="#0A7991"/>
<path d="M21 26.4063C20.7921 26.4061 20.5873 26.3565 20.4023 26.2616C20.2173 26.1667 20.0575 26.0293 19.936 25.8606C19.8145 25.6919 19.7348 25.4968 19.7034 25.2913C19.672 25.0858 19.6898 24.8758 19.7554 24.6785L21.0679 20.741C21.1222 20.5772 21.2082 20.4257 21.3211 20.2952C21.4339 20.1646 21.5714 20.0577 21.7257 19.9803C21.88 19.903 22.048 19.8569 22.2201 19.8446C22.3922 19.8324 22.5651 19.8541 22.7288 19.9088C22.8925 19.9634 23.0438 20.0498 23.1741 20.1629C23.3043 20.2761 23.411 20.4139 23.4879 20.5684C23.5648 20.7228 23.6106 20.8909 23.6224 21.0631C23.6343 21.2352 23.6121 21.4081 23.5571 21.5716L22.2446 25.5091C22.1575 25.7704 21.9905 25.9976 21.7671 26.1586C21.5438 26.3197 21.2754 26.4063 21 26.4063V26.4063Z" fill="#0A7991"/>
<path d="M22.3125 22.4689C21.9774 22.4695 21.6549 22.3415 21.4114 22.1113L18.7864 19.635C18.6601 19.5169 18.5583 19.375 18.4869 19.2174C18.4156 19.0599 18.376 18.8898 18.3706 18.717C18.3652 18.5441 18.3939 18.3719 18.4553 18.2102C18.5166 18.0484 18.6093 17.9004 18.7279 17.7747C18.8466 17.6489 18.989 17.5478 19.1469 17.4772C19.3048 17.4066 19.4751 17.3679 19.6479 17.3633C19.8208 17.3587 19.9929 17.3883 20.1543 17.4504C20.3157 17.5125 20.4633 17.6059 20.5885 17.7252L23.2135 20.2015C23.4048 20.3819 23.5375 20.6155 23.5944 20.8722C23.6513 21.1289 23.6299 21.3967 23.5328 21.6411C23.4357 21.8854 23.2674 22.0949 23.0499 22.2425C22.8323 22.3901 22.5754 22.469 22.3125 22.4689V22.4689Z" fill="#0A7991"/>
<path d="M13.125 26.4062C12.8642 26.4062 12.6093 26.3285 12.3929 26.1829C12.1764 26.0374 12.0082 25.8307 11.9097 25.5892C11.8113 25.3477 11.787 25.0824 11.84 24.827C11.893 24.5716 12.0208 24.3378 12.2073 24.1555L18.7698 17.7416C19.0194 17.502 19.3534 17.3707 19.6994 17.3761C20.0453 17.3816 20.3751 17.5234 20.617 17.7707C20.8589 18.018 20.9934 18.3509 20.9912 18.6968C20.989 19.0428 20.8503 19.3739 20.6052 19.6181L14.0427 26.0319C13.7978 26.2722 13.4682 26.4067 13.125 26.4062V26.4062Z" fill="#0A7991"/>
<path d="M7.87631 29.0315C7.58048 29.0318 7.2932 28.9323 7.06107 28.7489C6.82893 28.5655 6.66556 28.3091 6.59744 28.0212C6.52933 27.7333 6.56047 27.4308 6.68581 27.1629C6.81116 26.8949 7.02335 26.6771 7.28798 26.5449L12.538 23.9199C12.8493 23.7652 13.2092 23.7403 13.5388 23.8506C13.8684 23.9609 14.1409 24.1974 14.2963 24.5083C14.4518 24.8192 14.4776 25.1791 14.368 25.509C14.2585 25.8389 14.0226 26.1119 13.7121 26.268L8.46207 28.893C8.28016 28.9839 8.07965 29.0313 7.87631 29.0315V29.0315Z" fill="#0A7991"/>
<path d="M6.56382 34.2813C6.36446 34.281 6.16776 34.2355 5.98862 34.148C5.80948 34.0605 5.65259 33.9334 5.52984 33.7763C5.40708 33.6192 5.32167 33.4362 5.28008 33.2413C5.23849 33.0463 5.2418 32.8444 5.28976 32.6509L6.60226 27.4009C6.64361 27.2333 6.71761 27.0756 6.82003 26.9367C6.92245 26.7978 7.05128 26.6804 7.19913 26.5914C7.34697 26.5023 7.51094 26.4434 7.68162 26.4178C7.85231 26.3922 8.02636 26.4006 8.19381 26.4424C8.36125 26.4842 8.5188 26.5587 8.65742 26.6615C8.79605 26.7643 8.91302 26.8935 9.00164 27.0416C9.09027 27.1897 9.14879 27.3538 9.17387 27.5245C9.19896 27.6953 9.1901 27.8693 9.1478 28.0367L7.8353 33.2867C7.76476 33.5706 7.60127 33.8227 7.37086 34.0029C7.14045 34.1832 6.85636 34.2812 6.56382 34.2813V34.2813Z" fill="#0A7991"/>
<path d="M7.87369 39.5313C7.58115 39.5312 7.29706 39.4332 7.06665 39.253C6.83624 39.0727 6.67275 38.8206 6.60221 38.5367L5.28971 33.2867C5.24741 33.1193 5.23856 32.9453 5.26364 32.7745C5.28872 32.6038 5.34725 32.4397 5.43587 32.2916C5.52449 32.1435 5.64146 32.0143 5.78009 31.9115C5.91871 31.8087 6.07626 31.7342 6.2437 31.6924C6.41115 31.6506 6.5852 31.6422 6.75589 31.6678C6.92657 31.6934 7.09054 31.7523 7.23838 31.8414C7.38623 31.9304 7.51506 32.0478 7.61748 32.1867C7.7199 32.3256 7.7939 32.4833 7.83525 32.6509L9.14775 37.9009C9.19571 38.0944 9.19903 38.2963 9.15743 38.4913C9.11584 38.6863 9.03043 38.8692 8.90767 39.0263C8.78492 39.1834 8.62803 39.3105 8.44889 39.398C8.26975 39.4855 8.07305 39.5311 7.87369 39.5313V39.5313Z" fill="#0A7991"/>
<path d="M3.93749 40.8438C3.62598 40.8437 3.32465 40.7328 3.0874 40.5309C2.85016 40.329 2.69246 40.0493 2.64252 39.7418C2.59259 39.4344 2.65366 39.1191 2.81482 38.8525C2.97599 38.5859 3.22673 38.3854 3.52221 38.2867L7.45971 36.9742C7.62326 36.9192 7.79607 36.897 7.96822 36.9089C8.14038 36.9207 8.3085 36.9665 8.46296 37.0434C8.61742 37.1203 8.75519 37.227 8.86837 37.3572C8.98155 37.4875 9.06793 37.6388 9.12255 37.8025C9.17717 37.9662 9.19896 38.139 9.18668 38.3112C9.1744 38.4833 9.12828 38.6513 9.05097 38.8056C8.97366 38.9599 8.86668 39.0974 8.73615 39.2102C8.60562 39.3231 8.4541 39.4091 8.29028 39.4633L4.35278 40.7758C4.21892 40.8207 4.07868 40.8437 3.93749 40.8438V40.8438Z" fill="#0A7991"/>
<path d="M3.93619 40.844C3.73286 40.8438 3.53235 40.7964 3.35044 40.7055L0.725438 39.393C0.414907 39.2369 0.179005 38.9639 0.0694778 38.634C-0.0400493 38.3041 -0.0142581 37.9442 0.141194 37.6333C0.296646 37.3224 0.569066 37.0859 0.898696 36.9756C1.22833 36.8653 1.58825 36.8902 1.89952 37.0449L4.52452 38.3574C4.78915 38.4896 5.00135 38.7074 5.12669 38.9754C5.25204 39.2433 5.28318 39.5458 5.21506 39.8337C5.14695 40.1216 4.98357 40.378 4.75144 40.5614C4.51931 40.7448 4.23203 40.8443 3.93619 40.844V40.844Z" fill="#0A7991"/>
<path d="M6.56381 50.1581C6.34593 50.1585 6.13139 50.1045 5.9396 50.0012C5.74781 49.8978 5.58481 49.7482 5.46535 49.566L0.215351 41.5641C0.120754 41.42 0.0554635 41.2587 0.0232059 41.0894C-0.00905173 40.9201 -0.00764431 40.7461 0.0273478 40.5773C0.0623398 40.4085 0.130231 40.2483 0.227146 40.1058C0.32406 39.9632 0.4481 39.8412 0.592183 39.7466C0.736265 39.652 0.897569 39.5867 1.06688 39.5544C1.2362 39.5222 1.41021 39.5236 1.57898 39.5586C1.74775 39.5936 1.90798 39.6615 2.05051 39.7584C2.19305 39.8553 2.3151 39.9793 2.40969 40.1234L7.65969 48.1253C7.78959 48.3231 7.86357 48.5524 7.8738 48.7889C7.88404 49.0253 7.83015 49.2602 7.71783 49.4685C7.60552 49.6768 7.43897 49.8509 7.2358 49.9723C7.03264 50.0937 6.80043 50.1579 6.56376 50.1581H6.56381Z" fill="#0A7991"/>
<path d="M1.3125 42.1562C1.14011 42.1563 0.969396 42.1225 0.810112 42.0565C0.650828 41.9906 0.5061 41.8939 0.384203 41.772C0.262307 41.6502 0.165633 41.5054 0.0997081 41.3461C0.0337836 41.1869 -9.81316e-05 41.0161 2.13479e-07 40.8438V38.2188C2.13479e-07 37.8707 0.138281 37.5368 0.384423 37.2907C0.630564 37.0445 0.964404 36.9062 1.3125 36.9062C1.6606 36.9062 1.99444 37.0445 2.24058 37.2907C2.48672 37.5368 2.625 37.8707 2.625 38.2188V40.8438C2.6251 41.0161 2.59122 41.1869 2.52529 41.3461C2.45937 41.5054 2.36269 41.6502 2.2408 41.772C2.1189 41.8939 1.97417 41.9906 1.81489 42.0565C1.6556 42.1225 1.48489 42.1563 1.3125 42.1562V42.1562Z" fill="#0A7991"/>
<path d="M6.77399 50.0314C6.51908 50.0314 6.26968 49.9572 6.05625 49.8178C5.84281 49.6785 5.67458 49.48 5.57209 49.2466C5.4696 49.0132 5.43728 48.755 5.4791 48.5036C5.52091 48.2521 5.63504 48.0183 5.80755 47.8306L8.22107 45.2056C8.33772 45.0787 8.47822 44.976 8.63455 44.9034C8.79089 44.8308 8.96 44.7897 9.13222 44.7824C9.30444 44.7752 9.47641 44.8019 9.6383 44.8611C9.80019 44.9203 9.94884 45.0108 10.0758 45.1274C10.2027 45.2441 10.3054 45.3846 10.378 45.5409C10.4506 45.6973 10.4917 45.8664 10.499 46.0386C10.5062 46.2108 10.4795 46.3828 10.4203 46.5447C10.3611 46.7066 10.2706 46.8552 10.1539 46.9821L7.74042 49.6071C7.61763 49.7411 7.46828 49.848 7.30188 49.921C7.13549 49.9941 6.95571 50.0317 6.77399 50.0314Z" fill="#0A7991"/>
<path d="M9.18881 47.4065C8.89298 47.4068 8.6057 47.3073 8.37357 47.1239C8.14143 46.9405 7.97806 46.6841 7.90994 46.3962C7.84183 46.1083 7.87297 45.8058 7.99831 45.5379C8.12366 45.2699 8.33585 45.0521 8.60049 44.9199L11.2255 43.6074C11.5368 43.4527 11.8967 43.4278 12.2263 43.5381C12.5559 43.6484 12.8284 43.8849 12.9838 44.1958C13.1393 44.5067 13.1651 44.8666 13.0555 45.1965C12.946 45.5264 12.7101 45.7994 12.3996 45.9555L9.77457 47.268C9.59266 47.3589 9.39215 47.4063 9.18881 47.4065V47.4065Z" fill="#0A7991"/>
<path d="M11.8138 46.0936C11.5698 46.0938 11.3306 46.0261 11.123 45.8979C10.9154 45.7698 10.7476 45.5863 10.6385 45.3681L9.32596 42.7431C9.17125 42.4318 9.14631 42.0719 9.25662 41.7423C9.36693 41.4126 9.60348 41.1402 9.91438 40.9848C10.2253 40.8293 10.5851 40.8035 10.915 40.9131C11.2449 41.0226 11.5179 41.2585 11.6741 41.569L12.9866 44.194C13.0867 44.394 13.1339 44.6163 13.124 44.8397C13.114 45.0631 13.0471 45.2803 12.9296 45.4706C12.8121 45.6609 12.6479 45.818 12.4526 45.9271C12.2574 46.0361 12.0375 46.0934 11.8138 46.0936V46.0936Z" fill="#0A7991"/>
<path d="M15.75 43.4688H10.5C10.1519 43.4688 9.81806 43.3305 9.57192 43.0843C9.32578 42.8382 9.1875 42.5043 9.1875 42.1562C9.1875 41.8082 9.32578 41.4743 9.57192 41.2282C9.81806 40.982 10.1519 40.8438 10.5 40.8438H15.75C16.0981 40.8438 16.4319 40.982 16.6781 41.2282C16.9242 41.4743 17.0625 41.8082 17.0625 42.1562C17.0625 42.5043 16.9242 42.8382 16.6781 43.0843C16.4319 43.3305 16.0981 43.4688 15.75 43.4688Z" fill="#0A7991"/>
<path d="M19.6875 47.4065C19.5151 47.4067 19.3444 47.3728 19.1851 47.3068C19.0259 47.2408 18.8813 47.144 18.7596 47.0219L14.8221 43.0844C14.5796 42.8376 14.4445 42.5049 14.4461 42.159C14.4476 41.813 14.5858 41.4816 14.8304 41.2369C15.0751 40.9923 15.4065 40.8541 15.7525 40.8526C16.0985 40.851 16.4311 40.9861 16.6779 41.2286L20.6154 45.1661C20.7989 45.3496 20.9239 45.5834 20.9745 45.838C21.0251 46.0926 20.9991 46.3564 20.8998 46.5962C20.8005 46.836 20.6323 47.041 20.4165 47.1852C20.2007 47.3294 19.947 47.4064 19.6875 47.4065Z" fill="#0A7991"/>
<path d="M19.6875 47.4065C19.4279 47.4064 19.1742 47.3294 18.9585 47.1852C18.7427 47.041 18.5745 46.836 18.4752 46.5962C18.3759 46.3564 18.3499 46.0926 18.4005 45.838C18.4511 45.5834 18.5761 45.3496 18.7596 45.1661L21.3846 42.5411C21.6314 42.2986 21.964 42.1635 22.31 42.1651C22.656 42.1666 22.9874 42.3048 23.2321 42.5494C23.4767 42.7941 23.6149 43.1255 23.6164 43.4715C23.618 43.8174 23.4829 44.1501 23.2404 44.3969L20.6154 47.0219C20.4937 47.144 20.3491 47.2408 20.1898 47.3068C20.0306 47.3728 19.8599 47.4067 19.6875 47.4065Z" fill="#0A7991"/>
<path d="M27.5638 46.0937C27.4562 46.0937 27.349 46.0803 27.2447 46.054L21.9946 44.7415C21.6579 44.6564 21.3687 44.4412 21.1904 44.1432C21.0121 43.8452 20.9592 43.4886 21.0433 43.1517C21.1275 42.8148 21.3418 42.525 21.6393 42.3458C21.9368 42.1666 22.2932 42.1127 22.6304 42.1959L27.8804 43.5084C28.1909 43.5861 28.4624 43.7746 28.6436 44.0384C28.8249 44.3022 28.9035 44.6232 28.8646 44.941C28.8256 45.2587 28.6719 45.5512 28.4324 45.7635C28.1928 45.9758 27.8839 46.0933 27.5638 46.0937V46.0937Z" fill="#0A7991"/>
<path d="M28.8763 48.7186C28.6323 48.7188 28.3931 48.6511 28.1855 48.5229C27.9779 48.3948 27.8101 48.2113 27.701 47.9931L26.3885 45.3681C26.2337 45.0568 26.2088 44.6969 26.3191 44.3673C26.4294 44.0376 26.666 43.7652 26.9769 43.6098C27.2878 43.4543 27.6476 43.4285 27.9775 43.5381C28.3074 43.6476 28.5804 43.8835 28.7366 44.194L30.0491 46.819C30.1492 47.019 30.1964 47.2413 30.1865 47.4647C30.1765 47.6881 30.1096 47.9053 29.9921 48.0956C29.8746 48.2859 29.7104 48.443 29.5151 48.5521C29.3199 48.6611 29.1 48.7184 28.8763 48.7186Z" fill="#0A7991"/>
<path d="M31.5 48.7188H28.875C28.5269 48.7188 28.1931 48.5805 27.9469 48.3343C27.7008 48.0882 27.5625 47.7543 27.5625 47.4062C27.5625 47.0582 27.7008 46.7243 27.9469 46.4782C28.1931 46.232 28.5269 46.0938 28.875 46.0938H31.5C31.8481 46.0938 32.1819 46.232 32.4281 46.4782C32.6742 46.7243 32.8125 47.0582 32.8125 47.4062C32.8125 47.7543 32.6742 48.0882 32.4281 48.3343C32.1819 48.5805 31.8481 48.7188 31.5 48.7188Z" fill="#0A7991"/>
<path d="M32.8125 52.6563C32.5371 52.6563 32.2688 52.5697 32.0454 52.4086C31.822 52.2476 31.655 52.0204 31.5679 51.7591L30.2554 47.8216C30.2004 47.658 30.1782 47.4852 30.1901 47.3131C30.202 47.1409 30.2477 46.9728 30.3246 46.8184C30.4016 46.6639 30.5082 46.5261 30.6385 46.4129C30.7687 46.2998 30.92 46.2134 31.0837 46.1588C31.2474 46.1041 31.4203 46.0824 31.5924 46.0946C31.7645 46.1069 31.9325 46.153 32.0868 46.2303C32.2411 46.3077 32.3786 46.4146 32.4915 46.5452C32.6043 46.6757 32.6903 46.8272 32.7446 46.991L34.0571 50.9285C34.1227 51.1258 34.1405 51.3358 34.1091 51.5413C34.0777 51.7468 33.998 51.9419 33.8765 52.1106C33.755 52.2793 33.5952 52.4167 33.4102 52.5116C33.2252 52.6065 33.0204 52.6561 32.8125 52.6563V52.6563Z" fill="#0A7991"/>
<path d="M36.7487 55.2814C36.49 55.2812 36.2371 55.2045 36.0219 55.0609L32.0844 52.4359C31.7983 52.2414 31.6006 51.9417 31.5343 51.6021C31.468 51.2625 31.5385 50.9104 31.7304 50.6225C31.9224 50.3346 32.2202 50.1342 32.5592 50.0648C32.8982 49.9954 33.2509 50.0626 33.5405 50.2519L37.478 52.8769C37.7125 53.0333 37.8904 53.2609 37.9854 53.5262C38.0805 53.7914 38.0877 54.0802 38.0059 54.3499C37.9241 54.6196 37.7577 54.8557 37.5313 55.0235C37.3049 55.1913 37.0305 55.2817 36.7487 55.2814V55.2814Z" fill="#0A7991"/>
<path d="M36.75 55.2812C36.4385 55.2812 36.1372 55.1703 35.8999 54.9684C35.6627 54.7665 35.505 54.4868 35.455 54.1793C35.4051 53.8718 35.4662 53.5566 35.6273 53.29C35.7885 53.0234 36.0392 52.8229 36.3347 52.7242L40.2722 51.4117C40.602 51.3025 40.9617 51.3286 41.2723 51.4842C41.5829 51.6399 41.8191 51.9124 41.9291 52.242C42.0391 52.5715 42.0138 52.9312 41.8589 53.2422C41.704 53.5532 41.4321 53.7901 41.1028 53.9008L37.1653 55.2133C37.0314 55.2582 36.8912 55.2811 36.75 55.2812V55.2812Z" fill="#0A7991"/>
<path d="M43.3112 55.2814C43.1079 55.2812 42.9073 55.2338 42.7254 55.1429L40.1004 53.8304C39.9458 53.7536 39.8079 53.647 39.6946 53.5168C39.5812 53.3865 39.4947 53.2352 39.4399 53.0715C39.3851 52.9078 39.3631 52.7349 39.3753 52.5627C39.3874 52.3904 39.4334 52.2223 39.5106 52.0679C39.5878 51.9135 39.6947 51.7758 39.8252 51.6628C39.9557 51.5497 40.1072 51.4636 40.2711 51.4092C40.4349 51.3548 40.6079 51.3332 40.7801 51.3458C40.9523 51.3583 41.1203 51.4047 41.2745 51.4823L43.8995 52.7948C44.1642 52.927 44.3764 53.1448 44.5017 53.4127C44.627 53.6807 44.6582 53.9832 44.5901 54.271C44.522 54.5589 44.3586 54.8154 44.1264 54.9987C43.8943 55.1821 43.607 55.2817 43.3112 55.2814Z" fill="#0A7991"/>
<path d="M43.3125 55.2815C43.0529 55.2814 42.7992 55.2044 42.5835 55.0602C42.3677 54.916 42.1995 54.711 42.1002 54.4712C42.0008 54.2314 41.9749 53.9676 42.0255 53.713C42.0761 53.4585 42.2011 53.2246 42.3846 53.0411L43.6971 51.7286C43.9439 51.4861 44.2765 51.351 44.6225 51.3526C44.9685 51.3541 45.2999 51.4923 45.5446 51.7369C45.7892 51.9816 45.9274 52.313 45.9289 52.659C45.9305 53.005 45.7954 53.3376 45.5529 53.5844L44.2404 54.8969C44.1187 55.019 43.9741 55.1158 43.8148 55.1818C43.6556 55.2478 43.4849 55.2817 43.3125 55.2815V55.2815Z" fill="#0A7991"/>
<path d="M52.5 56.5938C52.3588 56.5937 52.2186 56.5707 52.0847 56.5258L44.2097 53.9008C44.0459 53.8466 43.8944 53.7606 43.7638 53.6477C43.6333 53.5349 43.5263 53.3974 43.449 53.2431C43.3717 53.0888 43.3256 52.9208 43.3133 52.7487C43.301 52.5765 43.3228 52.4037 43.3774 52.24C43.4321 52.0763 43.5184 51.925 43.6316 51.7947C43.7448 51.6645 43.8826 51.5578 44.037 51.4809C44.1915 51.404 44.3596 51.3582 44.5318 51.3464C44.7039 51.3345 44.8767 51.3567 45.0403 51.4117L52.9153 54.0367C53.2108 54.1354 53.4615 54.3359 53.6227 54.6025C53.7838 54.8691 53.8449 55.1843 53.795 55.4918C53.745 55.7993 53.5873 56.079 53.3501 56.2809C53.1128 56.4828 52.8115 56.5937 52.5 56.5938Z" fill="#0A7991"/>
<path d="M52.5013 56.594C52.2055 56.5943 51.9182 56.4948 51.6861 56.3114C51.4539 56.128 51.2906 55.8716 51.2224 55.5837C51.1543 55.2958 51.1855 54.9933 51.3108 54.7254C51.4362 54.4574 51.6484 54.2396 51.913 54.1074L54.538 52.7949C54.8493 52.6402 55.2092 52.6153 55.5388 52.7256C55.8685 52.8359 56.1409 53.0724 56.2963 53.3833C56.4518 53.6942 56.4776 54.0541 56.368 54.384C56.2585 54.7139 56.0226 54.9869 55.7121 55.1431L53.0871 56.4556C52.9052 56.5464 52.7046 56.5938 52.5013 56.594V56.594Z" fill="#0A7991"/>
<path d="M57.75 55.2812H55.125C54.7769 55.2812 54.4431 55.143 54.1969 54.8968C53.9508 54.6507 53.8125 54.3168 53.8125 53.9688C53.8125 53.6207 53.9508 53.2868 54.1969 53.0407C54.4431 52.7945 54.7769 52.6562 55.125 52.6562H57.75C58.0981 52.6562 58.4319 52.7945 58.6781 53.0407C58.9242 53.2868 59.0625 53.6207 59.0625 53.9688C59.0625 54.3168 58.9242 54.6507 58.6781 54.8968C58.4319 55.143 58.0981 55.2812 57.75 55.2812Z" fill="#0A7991"/>
<path d="M57.75 55.2813C57.5421 55.281 57.3373 55.2314 57.1523 55.1366C56.9673 55.0417 56.8075 54.9043 56.686 54.7356C56.5645 54.5669 56.4848 54.3718 56.4534 54.1663C56.422 53.9608 56.4398 53.7508 56.5054 53.5535L57.8179 49.616C57.8722 49.4522 57.9582 49.3007 58.0711 49.1702C58.1839 49.0396 58.3214 48.9327 58.4757 48.8553C58.63 48.778 58.798 48.7319 58.9701 48.7196C59.1422 48.7074 59.3151 48.7291 59.4788 48.7838C59.6425 48.8384 59.7938 48.9248 59.9241 49.0379C60.0543 49.1511 60.161 49.2889 60.2379 49.4434C60.3148 49.5978 60.3606 49.7659 60.3724 49.9381C60.3843 50.1102 60.3621 50.283 60.3071 50.4466L58.9946 54.3841C58.9075 54.6453 58.7405 54.8726 58.5171 55.0336C58.2938 55.1947 58.0254 55.2813 57.75 55.2813V55.2813Z" fill="#0A7991"/>
<path d="M61.6875 51.3438H59.0625C58.7144 51.3438 58.3806 51.2055 58.1344 50.9593C57.8883 50.7132 57.75 50.3793 57.75 50.0312C57.75 49.6832 57.8883 49.3493 58.1344 49.1032C58.3806 48.857 58.7144 48.7188 59.0625 48.7188H61.6875C62.0356 48.7188 62.3694 48.857 62.6156 49.1032C62.8617 49.3493 63 49.6832 63 50.0312C63 50.3793 62.8617 50.7132 62.6156 50.9593C62.3694 51.2055 62.0356 51.3438 61.6875 51.3438Z" fill="#0A7991"/>
<path d="M64.3125 53.969C64.1401 53.9692 63.9694 53.9353 63.8101 53.8693C63.6509 53.8033 63.5063 53.7065 63.3846 53.5844L60.7596 50.9594C60.5171 50.7126 60.382 50.38 60.3836 50.034C60.3851 49.688 60.5233 49.3566 60.7679 49.1119C61.0126 48.8673 61.344 48.7291 61.69 48.7276C62.036 48.726 62.3686 48.8611 62.6154 49.1036L65.2404 51.7286C65.4239 51.9121 65.5489 52.146 65.5995 52.4005C65.6501 52.6551 65.6241 52.9189 65.5248 53.1587C65.4255 53.3985 65.2573 53.6035 65.0415 53.7477C64.8257 53.8919 64.572 53.9689 64.3125 53.969Z" fill="#0A7991"/>
<path d="M66.9362 55.2815C66.7329 55.2813 66.5323 55.2339 66.3504 55.1431L63.7254 53.8306C63.4149 53.6744 63.179 53.4014 63.0695 53.0715C62.9599 52.7416 62.9857 52.3817 63.1412 52.0708C63.2966 51.7599 63.569 51.5234 63.8987 51.4131C64.2283 51.3028 64.5882 51.3277 64.8995 51.4824L67.5245 52.7949C67.7891 52.9271 68.0013 53.1449 68.1267 53.4129C68.252 53.6808 68.2832 53.9833 68.2151 54.2712C68.1469 54.5591 67.9836 54.8155 67.7514 54.9989C67.5193 55.1823 67.232 55.2818 66.9362 55.2815Z" fill="#0A7991"/>
<path d="M66.9388 55.2815C66.643 55.2818 66.3557 55.1823 66.1236 54.9989C65.8914 54.8155 65.7281 54.5591 65.6599 54.2712C65.5918 53.9833 65.623 53.6808 65.7483 53.4129C65.8737 53.1449 66.0859 52.9271 66.3505 52.7949L68.9755 51.4824C69.2868 51.3277 69.6467 51.3028 69.9763 51.4131C70.306 51.5234 70.5784 51.7599 70.7338 52.0708C70.8893 52.3817 70.9151 52.7416 70.8055 53.0715C70.696 53.4014 70.4601 53.6744 70.1496 53.8306L67.5246 55.1431C67.3427 55.2339 67.1421 55.2813 66.9388 55.2815Z" fill="#0A7991"/>
<path d="M69.5625 56.5938C69.3901 56.5938 69.2194 56.56 69.0601 56.494C68.9008 56.4281 68.7561 56.3314 68.6342 56.2095C68.5123 56.0877 68.4156 55.9429 68.3497 55.7836C68.2838 55.6244 68.2499 55.4536 68.25 55.2812V52.6562C68.25 52.3082 68.3883 51.9743 68.6344 51.7282C68.8806 51.482 69.2144 51.3438 69.5625 51.3438C69.9106 51.3438 70.2444 51.482 70.4906 51.7282C70.7367 51.9743 70.875 52.3082 70.875 52.6562V55.2812C70.8751 55.4536 70.8412 55.6244 70.7753 55.7836C70.7094 55.9429 70.6127 56.0877 70.4908 56.2095C70.3689 56.3314 70.2242 56.4281 70.0649 56.494C69.9056 56.56 69.7349 56.5938 69.5625 56.5938V56.5938Z" fill="#0A7991"/>
<path d="M68.2487 59.283C68.0496 59.2833 67.8531 59.2377 67.6745 59.1497C67.3617 58.997 67.1225 58.7264 67.0092 58.3973C66.896 58.0683 66.9181 57.7077 67.0707 57.395L68.3832 54.7059C68.4588 54.551 68.5641 54.4126 68.6932 54.2984C68.8223 54.1843 68.9726 54.0967 69.1356 54.0406C69.2985 53.9846 69.4709 53.9611 69.6429 53.9717C69.8149 53.9823 69.9831 54.0266 70.138 54.1022C70.2928 54.1778 70.4313 54.2831 70.5454 54.4122C70.6596 54.5413 70.7472 54.6916 70.8032 54.8545C70.8593 55.0175 70.8827 55.1899 70.8721 55.3619C70.8616 55.5338 70.8172 55.7021 70.7416 55.8569L69.4291 58.546C69.3214 58.7672 69.1535 58.9537 68.9447 59.084C68.736 59.2143 68.4948 59.2833 68.2487 59.283V59.283Z" fill="#0A7991"/>
<path d="M73.4987 61.8438C73.2996 61.8438 73.1032 61.7982 72.9245 61.7105L67.6745 59.1496C67.5196 59.074 67.3812 58.9686 67.267 58.8396C67.1529 58.7105 67.0653 58.5602 67.0092 58.3972C66.9532 58.2343 66.9297 58.0619 66.9403 57.8899C66.9509 57.7179 66.9952 57.5497 67.0708 57.3948C67.1464 57.24 67.2517 57.1015 67.3808 56.9874C67.5099 56.8732 67.6602 56.7856 67.8231 56.7296C67.9861 56.6735 68.1585 56.6501 68.3305 56.6607C68.5024 56.6712 68.6707 56.7156 68.8255 56.7912L74.0755 59.3521C74.3422 59.4823 74.5569 59.6991 74.6846 59.967C74.8122 60.235 74.8452 60.5383 74.7783 60.8274C74.7114 61.1165 74.5484 61.3745 74.316 61.559C74.0836 61.7436 73.7955 61.844 73.4987 61.8438V61.8438Z" fill="#0A7991"/>
<path d="M73.5 61.7592C73.3276 61.7593 73.1569 61.7254 72.9976 61.6595C72.8383 61.5935 72.6936 61.4969 72.5717 61.375C72.4498 61.2531 72.3531 61.1083 72.2872 60.949C72.2213 60.7898 72.1874 60.6191 72.1875 60.4467V50.0313C72.1875 49.6832 72.3258 49.3493 72.5719 49.1032C72.8181 48.857 73.1519 48.7188 73.5 48.7188C73.8481 48.7188 74.1819 48.857 74.4281 49.1032C74.6742 49.3493 74.8125 49.6832 74.8125 50.0313V60.4467C74.8126 60.6191 74.7787 60.7898 74.7128 60.949C74.6469 61.1083 74.5502 61.2531 74.4283 61.375C74.3064 61.4969 74.1617 61.5935 74.0024 61.6595C73.8431 61.7254 73.6724 61.7593 73.5 61.7592V61.7592Z" fill="#0A7991"/>
<path d="M73.5013 51.3438C73.2573 51.344 73.0181 51.2763 72.8105 51.1481C72.6029 51.02 72.4351 50.8365 72.326 50.6183L69.701 45.3683C69.6234 45.2141 69.577 45.0461 69.5644 44.8739C69.5519 44.7017 69.5734 44.5287 69.6278 44.3649C69.6822 44.201 69.7684 44.0495 69.8815 43.919C69.9945 43.7885 70.1322 43.6816 70.2866 43.6044C70.441 43.5272 70.6091 43.4812 70.7814 43.4691C70.9536 43.4569 71.1265 43.4789 71.2902 43.5337C71.4539 43.5885 71.6052 43.675 71.7354 43.7884C71.8657 43.9017 71.9723 44.0396 72.0491 44.1942L74.6741 49.4442C74.7742 49.6442 74.8214 49.8665 74.8115 50.0899C74.8015 50.3134 74.7346 50.5305 74.6171 50.7208C74.4996 50.9111 74.3354 51.0682 74.1401 51.1773C73.9449 51.2863 73.725 51.3436 73.5013 51.3438Z" fill="#0A7991"/>
<path d="M70.875 46.0938H68.25C67.9019 46.0938 67.5681 45.9555 67.3219 45.7093C67.0758 45.4632 66.9375 45.1293 66.9375 44.7812C66.9375 44.4332 67.0758 44.0993 67.3219 43.8532C67.5681 43.607 67.9019 43.4688 68.25 43.4688H70.875C71.2231 43.4688 71.5569 43.607 71.8031 43.8532C72.0492 44.0993 72.1875 44.4332 72.1875 44.7812C72.1875 45.1293 72.0492 45.4632 71.8031 45.7093C71.5569 45.9555 71.2231 46.0938 70.875 46.0938Z" fill="#0A7991"/>
<path d="M68.2513 46.0939C68.052 46.0937 67.8553 46.0481 67.6761 45.9606C67.497 45.8731 67.3401 45.746 67.2173 45.5889C67.0946 45.4318 67.0092 45.2489 66.9676 45.0539C66.926 44.8589 66.9293 44.6571 66.9773 44.4635L68.2898 39.2135C68.3749 38.8768 68.59 38.5876 68.888 38.4093C69.186 38.231 69.5426 38.1781 69.8795 38.2622C70.2165 38.3464 70.5063 38.5607 70.6854 38.8582C70.8646 39.1557 70.9185 39.5121 70.8353 39.8493L69.5228 45.0993C69.4523 45.3832 69.2888 45.6354 69.0584 45.8156C68.8279 45.9958 68.5439 46.0938 68.2513 46.0939V46.0939Z" fill="#0A7991"/>
<path d="M69.5638 40.844C69.268 40.8443 68.9807 40.7448 68.7486 40.5614C68.5164 40.378 68.3531 40.1216 68.2849 39.8337C68.2168 39.5458 68.248 39.2433 68.3733 38.9754C68.4987 38.7074 68.7109 38.4896 68.9755 38.3574L74.2255 35.7324C74.5368 35.5777 74.8967 35.5528 75.2263 35.6631C75.556 35.7734 75.8284 36.0099 75.9838 36.3208C76.1393 36.6317 76.1651 36.9916 76.0555 37.3215C75.946 37.6514 75.7101 37.9244 75.3996 38.0805L70.1496 40.7055C69.9677 40.7964 69.7671 40.8438 69.5638 40.844V40.844Z" fill="#0A7991"/>
<path d="M74.8125 38.2188C74.6046 38.2186 74.3998 38.169 74.2148 38.0741C74.0298 37.9792 73.87 37.8418 73.7485 37.6731C73.627 37.5044 73.5473 37.3093 73.5159 37.1038C73.4845 36.8983 73.5023 36.6883 73.5679 36.491L74.8804 32.5535C74.9347 32.3897 75.0207 32.2382 75.1335 32.1077C75.2464 31.9771 75.3839 31.8702 75.5382 31.7928C75.6925 31.7155 75.8605 31.6694 76.0326 31.6571C76.2047 31.6449 76.3776 31.6666 76.5413 31.7213C76.705 31.7759 76.8563 31.8623 76.9865 31.9754C77.1168 32.0886 77.2235 32.2264 77.3004 32.3809C77.3773 32.5353 77.423 32.7034 77.4349 32.8756C77.4468 33.0477 77.4246 33.2205 77.3696 33.3841L76.0571 37.3216C75.97 37.5829 75.803 37.8101 75.5796 37.9711C75.3563 38.1322 75.0879 38.2188 74.8125 38.2188V38.2188Z" fill="#0A7991"/>
<path d="M81.375 43.469C81.2026 43.4692 81.0319 43.4353 80.8726 43.3693C80.7134 43.3033 80.5688 43.2065 80.4471 43.0844L76.5096 39.1469C76.2671 38.9001 76.132 38.5674 76.1336 38.2215C76.1351 37.8755 76.2733 37.5441 76.5179 37.2994C76.7626 37.0548 77.094 36.9166 77.44 36.9151C77.786 36.9135 78.1186 37.0486 78.3654 37.2911L82.3029 41.2286C82.4864 41.4121 82.6114 41.6459 82.662 41.9005C82.7126 42.1551 82.6866 42.4189 82.5873 42.6587C82.488 42.8985 82.3198 43.1035 82.104 43.2477C81.8882 43.3919 81.6345 43.4689 81.375 43.469Z" fill="#0A7991"/>
<path d="M77.4362 39.5314C77.1437 39.5313 76.8596 39.4333 76.6291 39.2531C76.3987 39.0729 76.2352 38.8207 76.1647 38.5368L74.8522 33.2868C74.769 32.9496 74.8229 32.5932 75.0021 32.2957C75.1812 31.9982 75.4711 31.7839 75.808 31.6997C76.1449 31.6156 76.5015 31.6685 76.7995 31.8468C77.0975 32.0251 77.3126 32.3143 77.3977 32.651L78.7102 37.901C78.7582 38.0946 78.7615 38.2964 78.7199 38.4914C78.6783 38.6864 78.5929 38.8693 78.4702 39.0264C78.3474 39.1835 78.1905 39.3106 78.0114 39.3981C77.8322 39.4856 77.6356 39.5312 77.4362 39.5314Z" fill="#0A7991"/>
<path d="M44.625 46.0938C44.3178 46.094 44.0203 45.9865 43.7842 45.79C43.1228 45.2376 27.5625 32.0997 27.5625 17.2188C27.5625 12.6935 29.3602 8.35358 32.56 5.15374C35.7598 1.9539 40.0997 0.15625 44.625 0.15625C49.1503 0.15625 53.4902 1.9539 56.69 5.15374C59.8898 8.35358 61.6875 12.6935 61.6875 17.2188C61.6875 32.0997 46.1272 45.2376 45.4658 45.79C45.2297 45.9865 44.9322 46.094 44.625 46.0938ZM44.625 2.78125C40.7973 2.78557 37.1275 4.30805 34.4209 7.01467C31.7143 9.72129 30.1918 13.391 30.1875 17.2188C30.1875 28.9966 41.4232 40.1029 44.625 43.0278C47.8255 40.1003 59.0625 28.98 59.0625 17.2188C59.0582 13.391 57.5357 9.72129 54.8291 7.01467C52.1225 4.30805 48.4527 2.78557 44.625 2.78125V2.78125Z" fill="#F96B30"/>
<path d="M44.625 26.4063C42.8079 26.4063 41.0316 25.8674 39.5207 24.8579C38.0098 23.8483 36.8322 22.4135 36.1369 20.7347C35.4415 19.0559 35.2595 17.2086 35.614 15.4264C35.9685 13.6442 36.8436 12.0071 38.1285 10.7222C39.4134 9.43732 41.0504 8.56229 42.8326 8.20779C44.6148 7.85329 46.4621 8.03523 48.1409 8.73061C49.8197 9.42599 51.2546 10.6036 52.2641 12.1145C53.2737 13.6253 53.8125 15.4016 53.8125 17.2188C53.8096 19.6545 52.8406 21.9897 51.1183 23.712C49.3959 25.4344 47.0608 26.4033 44.625 26.4063ZM44.625 10.6563C43.3271 10.6563 42.0583 11.0411 40.9791 11.7622C39.8999 12.4833 39.0587 13.5083 38.562 14.7074C38.0653 15.9065 37.9354 17.226 38.1886 18.499C38.4418 19.772 39.0668 20.9414 39.9846 21.8591C40.9024 22.7769 42.0717 23.4019 43.3447 23.6552C44.6177 23.9084 45.9372 23.7784 47.1364 23.2817C48.3355 22.785 49.3604 21.9439 50.0815 20.8647C50.8026 19.7855 51.1875 18.5167 51.1875 17.2188C51.1855 15.4789 50.4934 13.8109 49.2631 12.5806C48.0329 11.3504 46.3649 10.6583 44.625 10.6563Z" fill="#F96B30"/>
</svg>
