<svg width="970" height="800" viewBox="0 0 970 800" fill="none" xmlns="http://www.w3.org/2000/svg">
<g clip-path="url(#clip0_286_1306)">
<mask id="mask0_286_1306" style="mask-type:alpha" maskUnits="userSpaceOnUse" x="-247" y="-347" width="1217" height="1495">
<g opacity="0.05">
<path d="M688.361 -10.1512L689.411 0.950664L677.328 4.39503L675.72 28.0442H690.193L709.445 25.4917L719.384 9.22326L708.82 3.56468L703.035 -5.59973L694.347 -24.9742L690.193 -52.3752L673.866 -47.7931L669.288 -38.1366V-27.25L677.149 -19.8384L688.361 -10.1512Z" fill="#016F9D"/>
<path d="M674.42 -1.04968L675.291 -15.8727L665.709 -21.562L652.308 -17.2873L642.37 4.6704V18.9091H653.961L674.42 -1.04968Z" fill="#016F9D"/>
<path d="M398.598 61.9035L395.65 72.3596H381.378V82.5081H384.773C384.773 82.5081 384.974 84.6608 385.265 87.4901L394.02 86.4753L399.492 81.8008L400.921 72.3596L408.001 71.5293L410.793 63.595L404.294 61.7498L398.598 61.9035Z" fill="#016F9D"/>
<path d="M361.827 80.3235L361.269 90.2567L371.609 89.0574L372.681 79.0933L366.472 72.3584L361.827 80.3235Z" fill="#016F9D"/>
<path d="M969.872 392.452C969.696 370.601 968.795 348.904 967.118 327.545C961.487 256.338 947.621 188.082 926.847 124.097C925.295 119.333 923.869 114.508 922.217 109.806C894.535 29.5024 855.665 -43.6099 808.086 -106.704C804.957 -110.822 801.779 -114.878 798.6 -118.874C789.615 -130.337 780.379 -141.523 770.818 -152.249C662.644 -273.181 518.979 -347 361.498 -347C202.691 -347 58 -271.859 -50.4744 -149.083C-75.7535 -120.472 -98.9801 -89.2475 -120.054 -55.8107C-199.546 70.4379 -247 228.587 -247 400.166C-247 812.195 25.9883 1147.36 361.523 1147.36C597.544 1147.36 802.454 981.407 903.32 739.605C924.895 687.913 941.689 632.81 953.002 575.064C955.881 560.404 958.358 545.684 960.511 530.778C966.643 488.337 969.997 444.697 969.997 400.166C970.022 397.584 969.897 395.033 969.872 392.452ZM855.34 93.8253L858.869 88.9696C863.499 100.002 867.829 111.22 871.959 122.591L866.203 122.314L855.34 124.158V93.8253V93.8253ZM767.414 -36.5415L767.514 -69.9169C777.075 -57.4702 786.286 -44.6548 795.096 -31.3784L784.133 -11.3409L745.814 -11.7712L743.412 -21.5748L767.414 -36.5415ZM33.3718 -119.488V-120.748H45.5608L46.612 -125.881H66.5599V-115.186L60.8283 -105.782H33.3468L33.3718 -119.488ZM52.8441 -86.1435C52.8441 -86.1435 65.0331 -88.6943 66.0843 -88.6943C67.1355 -88.6943 66.0843 -73.7584 66.0843 -73.7584L38.6028 -71.6379L33.3718 -79.321L52.8441 -86.1435ZM894.11 210.455H849.584L822.452 185.654L793.895 189.065V210.455H784.859L775.098 201.911L725.641 186.514V147.177L662.969 153.17L643.547 165.985H618.669L606.479 164.479L576.27 185.07V223.823L514.524 278.527L519.655 301.884H532.169L528.89 324.134L520.08 328.098L519.605 386.244L572.966 460.862H596.193L597.594 456.314H639.342L651.381 442.638H675.058L688.048 458.619L723.339 463.106L718.658 520.729L757.828 605.642L737.205 654.046L738.606 676.849L754.85 696.733V751.56L776.174 786.779V832.324H794.595C692.078 986.878 536.049 1085.87 361.473 1085.87C53.57 1085.9 -196.943 778.266 -196.943 400.166C-196.943 304.987 -181.024 214.265 -152.366 131.811V110.421L-132.393 80.6411C-125.461 64.5681 -118.027 48.8945 -110.093 33.6206L-109.192 46.0672L-132.368 80.6411C-139.552 97.298 -146.259 114.324 -152.341 131.811V170.841L-129.14 184.547V238.79L-106.889 285.411L-88.7934 288.822L-86.4658 272.841L-107.815 232.398L-111.995 193.091H-99.4807L-94.1996 233.535L-63.3392 288.822L-71.2984 306.678L-51.6758 343.526L-2.9449 358.339V348.658L16.5525 352.069L14.7004 369.157L30.0179 372.599L53.6701 380.528L87.0834 427.272L129.757 431.236L133.937 473.985L104.729 499.062L103.352 537.232L99.1723 560.589L141.421 625.526L144.649 647.776C144.649 647.776 159.967 652.878 161.844 652.878C163.696 652.878 196.184 683.088 196.184 683.088V800.455L207.772 804.45L199.888 858.601L219.385 890.532L215.781 944.19L241.536 999.785L274.599 1035.25L307.837 1035.99L311.091 1022.87L286.662 997.603L288.064 985.064L292.444 969.698L293.37 954.025L276.851 953.41L268.517 940.564L282.232 924.368L284.085 912.136L268.767 906.758L269.668 895.387L291.493 891.331L324.681 871.754L335.819 846.676L370.634 791.973L362.725 749.193L373.412 726.421L405.424 727.619L426.973 706.66L433.931 624.113L457.834 586.834L462.014 562.894L440.214 554.319L425.822 525.339L376.641 524.724L337.646 506.469L335.794 472.325L322.779 444.39L287.513 443.744L267.14 404.468L249.044 393.62L248.118 405.605L215.18 408.002L203.117 387.381L168.752 378.807L140.445 418.974L95.8935 409.693L92.6648 348.044L60.1525 341.221L73.1925 310.98L69.4632 293.616L26.7392 328.682L-0.141691 324.656L-9.7277 298.872L-3.87097 272.288L10.946 238.759L45.0602 217.554L110.936 217.523L110.761 242.201L134.438 255.723L132.561 213.559L149.63 192.476L184.07 164.694L186.422 145.148L220.762 101.263L257.279 76.4308L254.05 73.1731L278.778 44.592L287.839 47.5423L291.994 53.9346L301.379 41.15L303.682 39.8899L293.395 38.1075L282.958 33.8357V21.5427L288.49 15.9802H300.679L306.26 18.9919L311.091 30.9776L316.997 29.8712V28.8263L318.699 29.5331L335.819 26.3063L338.247 16.0416L348.008 19.0534V30.1785L338.947 37.8309H338.973L340.299 50.0316L371.31 61.7714C371.31 61.7714 371.335 61.9251 371.385 62.2324L378.518 61.4948L378.993 44.9915L354.415 31.2541L353.014 23.3252L373.412 14.7816L374.313 -9.18967L352.989 -25.1398L351.587 -65.5528L322.353 -47.9124H311.691L314.494 -78.6756L274.699 -90.2002L258.23 -74.9262V-28.3359L228.621 -16.8113L216.757 13.5523L203.892 16.1031V-22.7427L176.061 -27.4754L162.145 -38.6006L156.538 -63.7704L206.32 -99.5429L230.673 -108.64L233.126 -88.5407L246.692 -89.4012L247.743 -99.5121L261.934 -102.001L262.184 -105.536L256.077 -108.64L254.676 -119.335L272.121 -121.148L282.658 -134.609L283.234 -135.592L283.359 -135.53L286.562 -139.587L323.229 -145.273L339.448 -128.37L296.924 -100.557L351.036 -84.8835L358.044 -107.103H381.697L390.056 -126.464L373.337 -131.597V-156.09L320.902 -184.61L284.71 -179.478L264.287 -166.355L265.688 -134.455L244.339 -138.45L241.06 -156.09L261.509 -178.894L224.391 -181.168L213.729 -177.204L209.098 -161.837L223.014 -158.949L220.236 -141.861L196.584 -140.14L192.88 -128.769L158.565 -127.602C158.565 -127.602 157.614 -151.511 156.238 -151.511C154.861 -151.511 183.144 -152.095 183.144 -152.095L203.592 -176.62L192.429 -183.473L177.587 -165.771L152.959 -167.492L138.117 -192.57H106.556L73.618 -162.36H103.803L106.556 -151.511L98.7218 -142.568L132.135 -141.431L137.241 -126.618L99.6228 -128.339L97.7957 -139.741L74.1436 -146.01L61.6042 -154.554L33.4469 -154.277C125.628 -236.732 238.983 -285.535 361.498 -285.535C502.71 -285.535 631.733 -220.721 730.171 -114.233L723.539 -99.6658L697.784 -87.2806L686.922 -72.8057L689.425 -55.9336L702.715 -53.6594L710.724 -29.0735L733.65 -40.4138L737.43 -7.53012H730.522L711.7 -10.9414L690.826 -6.63888L670.628 28.396L641.745 33.9586L637.565 64.3222L649.754 67.8564L646.225 87.3715L617.542 80.303L591.237 87.3715L585.656 105.35L590.211 143.089L605.654 151.971L631.558 151.787L649.053 149.85L654.384 132.763L681.716 89.154L699.712 93.6716L717.432 74.0029L720.736 89.3691L764.336 125.48L759.005 134.269L739.357 132.978L746.916 146.132L759.005 149.389L773.171 142.137L772.871 121.177L779.153 117.305L774.097 110.728L745.013 90.8135L737.355 64.3529H761.532L769.266 73.757L790.09 95.7922L790.966 122.437L812.541 150.649L820.575 111.988L835.517 101.969L838.321 133.593L852.912 153.262L882.021 152.647C887.652 170.441 892.708 188.542 897.138 207.013L894.11 210.455ZM84.9059 -7.53012L99.5227 -16.0737L112.738 -12.2014L108.183 9.58782L93.9163 15.1504L84.9059 -7.53012ZM162.47 43.7622V57.8684H129.082L116.567 53.5966L119.696 43.7622L135.739 35.6181H157.664V43.7622H162.47ZM177.838 63.4309V77.1069L169.478 83.7143L159.066 86.0807C159.066 86.0807 159.066 65.5822 159.066 63.4309H177.838ZM168.427 57.8684V41.611L179.915 54.4571L168.427 57.8684ZM173.658 90.7521V104.059L165.674 113.894H147.928L150.706 98.9576L159.091 98.0664L160.818 92.934L173.658 90.7521ZM129.457 63.4309H147.903L124.251 104.028L114.49 97.6054L116.592 80.5182L129.457 63.4309ZM204.994 86.0807V99.3571H187.248L182.393 90.7521V78.3976H183.794L204.994 86.0807ZM188.6 67.8257L193.656 61.3104L202.191 67.8257L195.358 74.7405L188.6 67.8257ZM903.17 245.059L904.922 242.539C905.648 246.412 906.424 250.284 907.125 254.218L903.17 245.059Z" fill="#016F9D"/>
</g>
</mask>
<g mask="url(#mask0_286_1306)">
<rect x="20" y="-14.282" width="950" height="804" fill="#F0F8F7"/>
</g>
</g>
<defs>
<clipPath id="clip0_286_1306">
<rect width="970" height="800" fill="white"/>
</clipPath>
</defs>
</svg>
