<svg width="80" height="50" viewBox="0 0 80 50" fill="none" xmlns="http://www.w3.org/2000/svg">
<rect width="80" height="50" fill="#F0F8F7"/>
<g clip-path="url(#clip0_316_1386)">
<path d="M26.6406 6.5957V10.0098H24.4141V14.4629H31.0938V10.0098H28.8672V6.5957H26.6406Z" fill="#0A7991"/>
<path d="M56.0839 42.7642L58.3847 41.6509L57.3889 39.6592L55.0881 40.7725C54.0052 41.3139 52.7137 41.3139 51.6308 40.7725C49.9251 39.9202 47.8898 39.9202 46.1819 40.7725C45.099 41.3139 43.8074 41.3139 42.7246 40.7725C41.0189 39.9202 38.9836 39.9202 37.2756 40.7725C36.1928 41.3139 34.9012 41.3139 33.8184 40.7725C32.1126 39.9202 30.0774 39.9202 28.3694 40.7725C27.2866 41.3139 25.995 41.3139 24.9122 40.7725L22.6856 39.6592L21.6896 41.6509L23.9162 42.7642C25.623 43.6165 27.6583 43.6165 29.3651 42.7642C30.448 42.2228 31.7395 42.2228 32.8224 42.7642C34.5292 43.6165 36.5645 43.6165 38.2713 42.7642C39.3542 42.2228 40.6457 42.2228 41.7286 42.7642C42.582 43.1903 43.5171 43.4046 44.4531 43.4046C45.3891 43.4046 46.3241 43.1904 47.1776 42.7642C48.2604 42.2228 49.552 42.2228 50.6348 42.7642C52.3418 43.6165 54.3792 43.6165 56.0839 42.7642Z" fill="#0A7991"/>
<path d="M29.3651 38.3115C30.4479 37.77 31.7395 37.77 32.8223 38.3115C34.5292 39.1638 36.5644 39.1638 38.2713 38.3115C39.3541 37.77 40.6457 37.77 41.7286 38.3115C42.582 38.7376 43.517 38.9519 44.453 38.9519C45.389 38.9519 46.3241 38.7377 47.1775 38.3115C48.2604 37.77 49.5519 37.77 50.6348 38.3115C52.3416 39.1638 54.379 39.1638 56.0837 38.3115L58.3845 37.1982L57.3887 35.2065L55.0879 36.3198C54.8411 36.4437 54.5834 36.5383 54.3203 36.6057L59 27.8223H21V36.8905L23.9161 38.3115C25.623 39.1638 27.6582 39.1638 29.3651 38.3115ZM47.793 31.1621H50.0196V33.3887H47.793V31.1621ZM43.3398 31.1621H45.5664V33.3887H43.3398V31.1621ZM38.8867 31.1621H41.1133V33.3887H38.8867V31.1621ZM34.4336 31.1621H36.6602V33.3887H34.4336V31.1621ZM29.9805 31.1621H32.2071V33.3887H29.9805V31.1621ZM25.5273 31.1621H27.7539V33.3887H25.5273V31.1621Z" fill="#0A7991"/>
<path d="M23.3008 16.6895H32.2071V25.5957H23.3008V16.6895Z" fill="#0A7991"/>
<path d="M34.4336 21.1426H41.1133V25.5957H34.4336V21.1426Z" fill="#0A7991"/>
<path d="M43.3398 21.1426H50.0195V25.5957H43.3398V21.1426Z" fill="#0A7991"/>
<path d="M38.8867 14.4629H45.5664V18.916H38.8867V14.4629Z" fill="#0A7991"/>
<path d="M47.793 14.4629H54.4727V18.916H47.793V14.4629Z" fill="#0A7991"/>
<path d="M52.2461 21.1426H59V25.5957H52.2461V21.1426Z" fill="#0A7991"/>
</g>
<defs>
<clipPath id="clip0_316_1386">
<rect width="38" height="38" fill="white" transform="translate(21 6)"/>
</clipPath>
</defs>
</svg>
