<svg width="70" height="70" viewBox="0 0 70 70" fill="none" xmlns="http://www.w3.org/2000/svg">
<g clip-path="url(#clip0_2_554)">
<path d="M49.3848 36.7974V34.4731C49.3848 33.9067 48.9257 33.4478 48.3594 33.4478C47.7931 33.4478 47.334 33.9067 47.334 34.4731V36.7974C47.334 37.3638 47.7931 37.8227 48.3594 37.8227C48.9257 37.8227 49.3848 37.3638 49.3848 36.7974Z" fill="#095F71"/>
<path d="M54.0723 36.7974V34.4731C54.0723 33.9067 53.6132 33.4478 53.0469 33.4478C52.4806 33.4478 52.0215 33.9067 52.0215 34.4731V36.7974C52.0215 37.3638 52.4806 37.8227 53.0469 37.8227C53.6132 37.8227 54.0723 37.3638 54.0723 36.7974Z" fill="#095F71"/>
<path d="M19.209 34.4731V36.7974C19.209 37.3638 19.6681 37.8227 20.2344 37.8227C20.8007 37.8227 21.2598 37.3638 21.2598 36.7974V34.4731C21.2598 33.9067 20.8007 33.4478 20.2344 33.4478C19.6681 33.4478 19.209 33.9069 19.209 34.4731Z" fill="#095F71"/>
<path d="M68.9746 51.0484H53.885C54.0061 50.7185 54.0723 50.3624 54.0723 49.9912C54.0723 48.2951 52.6924 46.915 50.9961 46.915C50.6367 46.915 50.2916 46.9776 49.9707 47.0914V45.5478H55.9236C60.1192 45.5478 64.2446 44.417 67.8537 42.2775C69.1776 41.4928 70 40.049 70 38.51C70 36.8722 69.0979 35.3842 67.6458 34.6269L65.584 33.5513L65.0206 32.6923C63.5626 30.469 61.1051 29.1416 58.4466 29.1416H32.5391C31.9728 29.1416 31.5137 29.6005 31.5137 30.167C31.5137 30.7334 31.9728 31.1924 32.5391 31.1924H55.918V31.6025C55.918 33.6756 57.6045 35.3623 59.6777 35.3623H64.6218L66.6974 36.4451C67.4695 36.8479 67.9492 37.6391 67.9492 38.5101C67.9492 38.7928 67.8959 39.069 67.7986 39.3273H54.3006C53.7343 39.3273 53.2752 39.7862 53.2752 40.3527C53.2752 40.9191 53.7343 41.378 54.3006 41.378H65.1886C62.3056 42.767 59.1377 43.4972 55.9234 43.4972H42.5879L42.5605 41.378H49.5154C50.0817 41.378 50.5408 40.9191 50.5408 40.3527C50.5408 39.7862 50.0817 39.3273 49.5154 39.3273H45.7517V38.6437C45.7517 37.7694 45.3377 36.9916 44.6972 36.4908V34.4738C44.6972 33.9073 44.2381 33.4484 43.6718 33.4484C43.1055 33.4484 42.6464 33.9073 42.6464 34.4738V35.9093H40.0096V34.4738C40.0096 33.9073 39.5505 33.4484 38.9843 33.4484C38.418 33.4484 37.9589 33.9073 37.9589 34.4738V35.9093H35.3221V34.4738C35.3221 33.9073 34.863 33.4484 34.2967 33.4484C33.7304 33.4484 33.2713 33.9073 33.2713 34.4738V35.9093H30.6346V34.4738C30.6346 33.9073 30.1755 33.4484 29.6092 33.4484C29.0429 33.4484 28.5838 33.9073 28.5838 34.4738V35.9093H25.947V34.4738C25.947 33.9073 25.4879 33.4484 24.9216 33.4484C24.3554 33.4484 23.8962 33.9073 23.8962 34.4738V36.232C23.519 36.4808 23.2308 36.8598 23.0966 37.3228C22.8822 38.0621 23.1115 38.831 23.6696 39.3273H15.5694C15.396 37.4139 13.7837 35.9093 11.8259 35.9093H6.30041L2.80315 33.5482C2.33215 33.23 2.05078 32.7005 2.05078 32.1318V31.1924H27.7539C28.3202 31.1924 28.7793 30.7334 28.7793 30.167C28.7793 29.6005 28.3202 29.1416 27.7539 29.1416H15.7557L14.1766 28.3091C12.4987 27.4244 11.0608 26.1191 10.0188 24.5346C9.70758 24.0614 9.07184 23.9301 8.59852 24.2412C8.12533 24.5523 7.99408 25.1882 8.30512 25.6614C9.19557 27.0155 10.3314 28.1958 11.6413 29.1416H3.96895L2.23945 18.9517H3.30162C4.16842 18.9517 4.95742 19.4283 5.36061 20.1957L5.99484 21.4023C6.25844 21.9037 6.87818 22.0965 7.37953 21.8329C7.88088 21.5694 8.07365 20.9495 7.8102 20.4482L7.17596 19.2415C6.4173 17.7978 4.93268 16.9009 3.30162 16.9009H1.02539C0.723516 16.9009 0.436817 17.034 0.241993 17.2647C0.0471685 17.4953 -0.0360932 17.8001 0.0144928 18.0979L1.88891 29.1416H1.02539C0.459102 29.1416 5.64983e-07 29.6005 5.64983e-07 30.167V32.1318C5.64983e-07 33.383 0.619063 34.548 1.65607 35.2479L2.6358 35.9093H1.02539C0.459102 35.9093 5.64983e-07 36.3683 5.64983e-07 36.9347C5.64983e-07 39.3847 1.99336 41.3779 4.44336 41.3779H10.8742C15.0914 43.8134 19.8274 45.2231 24.6777 45.4974V50.0596C24.6777 50.3657 24.7107 50.6544 24.865 51.0484H17.0566C16.4903 51.0484 16.0312 51.5074 16.0312 52.0738C16.0312 52.6403 16.4903 53.0992 17.0566 53.0992H68.9746C69.5409 53.0992 70 52.6403 70 52.0738C70 51.5074 69.5409 51.0484 68.9746 51.0484ZM57.9688 31.6024V31.1922H58.4467C60.2003 31.1922 61.8341 31.9752 62.9315 33.3114H59.6777C58.7353 33.3114 57.9688 32.5448 57.9688 31.6024ZM50.9961 48.9657C51.5616 48.9657 52.0215 49.4256 52.0215 49.9911C52.0215 50.5565 51.5616 51.0164 50.9961 51.0164C50.4306 51.0164 49.9707 50.5565 49.9707 49.9911C49.9707 49.4256 50.4306 48.9657 50.9961 48.9657ZM47.9199 50.0594C47.9199 50.3415 47.9619 50.5859 48.1072 51.0483H30.6428C30.7639 50.7184 30.8301 50.3622 30.8301 49.9911C30.8301 48.2949 29.4502 46.9149 27.7539 46.9149C27.3945 46.9149 27.0494 46.9775 26.7285 47.0912V45.5477H30.6878C31.405 46.8117 32.7622 47.6668 34.3164 47.6668H40.1953C41.422 47.6668 42.4348 46.7385 42.5711 45.5477H47.9199V50.0594ZM26.7285 49.9911C26.7285 49.4256 27.1884 48.9657 27.7539 48.9657C28.3194 48.9657 28.7793 49.4256 28.7793 49.9911C28.7793 50.5565 28.3194 51.0164 27.7539 51.0164C27.1884 51.0164 26.7285 50.5565 26.7285 49.9911ZM30.7271 41.3778C30.3588 41.9993 30.1465 42.7236 30.1465 43.4969H26.4291C22.6879 43.4969 18.9883 42.7711 15.5401 41.3778H30.7271ZM40.5371 41.7196V45.2743C40.5371 45.4628 40.3837 45.6161 40.1953 45.6161H34.3164C33.1479 45.6161 32.1973 44.6654 32.1973 43.4969C32.1973 42.3284 33.1479 41.3778 34.3164 41.3778H40.1953C40.3837 41.3778 40.5371 41.5312 40.5371 41.7196ZM26.0321 38.4263L25.2952 37.9599H43.0175C43.3944 37.9599 43.7011 38.2666 43.7011 38.6435V39.3271C39.4414 39.3271 33.3677 39.3271 29.1397 39.3271C28.0376 39.327 26.9631 39.0155 26.0321 38.4263ZM2.28184 37.9598H11.8262C12.6515 37.9598 13.342 38.548 13.5008 39.327H4.44336C3.49084 39.327 2.66643 38.7675 2.28184 37.9598Z" fill="#095F71"/>
<path d="M12.2713 51.0483H1.02539C0.459102 51.0483 0 51.5073 0 52.0737C0 52.6402 0.459102 53.0991 1.02539 53.0991H12.2713C12.8376 53.0991 13.2967 52.6402 13.2967 52.0737C13.2967 51.5073 12.8376 51.0483 12.2713 51.0483Z" fill="#095F71"/>
</g>
<defs>
<clipPath id="clip0_2_554">
<rect width="70" height="70" fill="white"/>
</clipPath>
</defs>
</svg>
