<svg width="70" height="70" viewBox="0 0 70 70" fill="none" xmlns="http://www.w3.org/2000/svg">
<path d="M13.0921 47.126H13.0811C12.5148 47.126 12.0613 47.5851 12.0613 48.1514C12.0613 48.7177 12.5259 49.1768 13.0921 49.1768C13.6584 49.1768 14.1175 48.7177 14.1175 48.1514C14.1175 47.5851 13.6584 47.126 13.0921 47.126Z" fill="#095F71"/>
<path d="M21.8595 47.126H21.8485C21.2822 47.126 20.8286 47.5851 20.8286 48.1514C20.8286 48.7177 21.2932 49.1768 21.8595 49.1768C22.4258 49.1768 22.8849 48.7177 22.8849 48.1514C22.8849 47.5851 22.4258 47.126 21.8595 47.126Z" fill="#095F71"/>
<path d="M58.0262 47.126H58.0153C57.449 47.126 56.9954 47.5851 56.9954 48.1514C56.9954 48.7177 57.4599 49.1768 58.0262 49.1768C58.5925 49.1768 59.0516 48.7177 59.0516 48.1514C59.0516 47.5851 58.5925 47.126 58.0262 47.126Z" fill="#095F71"/>
<path d="M69.0577 34.7285L67.6791 33.3498L64.9016 25.0173C65.316 24.8857 65.6164 24.4981 65.6164 24.0402C65.6164 23.4739 65.1573 23.0148 64.591 23.0148H54.6568V18.5608C54.6568 17.391 53.7053 16.4395 52.5355 16.4395H2.12133C0.951564 16.4395 0 17.3912 0 18.5608V42.6717C0 43.8415 0.951564 44.7931 2.12133 44.7931H3.28782V47.0549C3.28782 48.2247 4.23938 49.1763 5.40915 49.1763H7.77043C8.25113 51.67 10.4489 53.56 13.0809 53.56C14.8831 53.56 16.4812 52.6733 17.4646 51.314C18.4482 52.6733 20.0463 53.56 21.8485 53.56C24.4805 53.56 26.6784 51.67 27.159 49.1763H52.7046C53.1853 51.67 55.3831 53.56 58.0151 53.56C60.9977 53.56 63.4242 51.1334 63.4242 48.1509C63.4242 48.1274 63.4227 48.1043 63.4225 48.0809H67.8787C69.0484 48.0809 70 47.1293 70 45.9596V37.0034C70.0001 36.1441 69.6655 35.3362 69.0577 34.7285ZM7.77043 47.1256H5.40915C5.37019 47.1256 5.3386 47.0941 5.3386 47.0551V44.7932H8.84476C8.31429 45.4612 7.93791 46.2564 7.77043 47.1256ZM13.0809 51.5095C11.229 51.5095 9.7225 50.0029 9.7225 48.1512C9.7225 46.3064 11.2178 44.8047 13.0599 44.7932H13.1021C14.9442 44.8046 16.4395 46.3063 16.4395 48.1512C16.4394 50.0029 14.9327 51.5095 13.0809 51.5095ZM21.8487 51.5095C19.9968 51.5095 18.4902 50.0029 18.4902 48.1512C18.4902 46.3064 19.9854 44.8047 21.8276 44.7932H21.8697C23.7119 44.8046 25.2072 46.3063 25.2072 48.1512C25.207 50.0029 23.7005 51.5095 21.8487 51.5095ZM52.7048 47.1256H27.1591C26.9916 46.2564 26.6152 45.4611 26.0846 44.7931H45.9596C46.5259 44.7931 46.985 44.334 46.985 43.7677C46.985 43.2014 46.5259 42.7423 45.9596 42.7423H2.12133C2.08237 42.7423 2.05079 42.7107 2.05079 42.6717V18.5608C2.05079 18.5218 2.08237 18.4902 2.12133 18.4902H52.5354C52.5743 18.4902 52.6059 18.5218 52.6059 18.5608V42.7424H50.3439C49.7776 42.7424 49.3185 43.2015 49.3185 43.7678C49.3185 44.3341 49.7776 44.7932 50.3439 44.7932H53.7791C53.2485 45.4612 52.8723 46.2564 52.7048 47.1256ZM65.7255 33.9742H59.1112C59.0722 33.9742 59.0406 33.9426 59.0406 33.9037V29.4492H64.2172L65.7255 33.9742ZM58.0152 51.5095C56.1633 51.5095 54.6568 50.0029 54.6568 48.1512C54.6568 46.3064 56.1521 44.8047 57.9943 44.7932H58.0153C58.0177 44.7932 58.02 44.7929 58.0225 44.7928C59.871 44.7966 61.3739 46.3016 61.3739 48.151C61.3736 50.0029 59.8671 51.5095 58.0152 51.5095ZM67.9493 45.9598C67.9493 45.9988 67.9178 46.0304 67.8788 46.0304H62.9908C62.1644 44.0989 60.2455 42.742 58.0152 42.742C58.0081 42.742 58.0013 42.7426 57.9942 42.7426H54.6568V25.1366V25.136C54.6568 25.0971 54.6884 25.0655 54.7274 25.0655H62.7559L63.5336 27.3984H58.0152C57.4489 27.3984 56.9898 27.8575 56.9898 28.4238V33.9037C56.9898 35.0734 57.9414 36.025 59.1112 36.025H67.454L67.6077 36.1787C67.8279 36.3991 67.9493 36.6919 67.9493 37.0035V39.4546H66.7829C66.2166 39.4546 65.7575 39.9137 65.7575 40.48C65.7575 41.0463 66.2166 41.5054 66.7829 41.5054H67.9493V45.9598Z" fill="#095F71"/>
<path d="M49.2475 38.3589H5.40918C4.84289 38.3589 4.38379 38.818 4.38379 39.3843C4.38379 39.9506 4.84289 40.4097 5.40918 40.4097H49.2475C49.8138 40.4097 50.2729 39.9506 50.2729 39.3843C50.2729 38.818 49.8138 38.3589 49.2475 38.3589Z" fill="#095F71"/>
</svg>
