<svg width="190" height="135" viewBox="0 0 190 135" fill="none" xmlns="http://www.w3.org/2000/svg">
<g clip-path="url(#clip0_207_14434)">
<path d="M165.143 121.106L142.981 133.826L24.5885 65.8645L46.75 53.1445L165.143 121.106Z" fill="#B6B6B6"/>
<path d="M77.182 92.6675V92.9401L79.6495 94.3484L82.117 92.8946V92.6221L77.182 92.6675Z" fill="#262626"/>
<path d="M79.6495 94.0759L77.182 92.6676L79.6495 91.2593L82.117 92.6221L79.6495 94.0759Z" fill="#353535"/>
<path d="M79.6495 91.4863C80.2299 91.4863 80.7005 91.2219 80.7005 90.8957C80.7005 90.5696 80.2299 90.3052 79.6495 90.3052C79.0691 90.3052 78.5985 90.5696 78.5985 90.8957C78.5985 91.2219 79.0691 91.4863 79.6495 91.4863Z" fill="#353535"/>
<path d="M78.5985 90.8958V92.5766C78.5985 92.7129 78.6899 92.8946 78.9184 93.0309C79.3296 93.258 80.015 93.258 80.4263 93.0309C80.6091 92.8946 80.7461 92.7583 80.7461 92.622V90.9412C80.7461 91.0775 80.6548 91.2592 80.4263 91.35C80.015 91.5772 79.3296 91.5772 78.9184 91.35C78.6899 91.2138 78.5985 91.0775 78.5985 90.8958Z" fill="#262626"/>
<path d="M80.3806 84.2178C80.4263 84.0815 80.3806 83.8998 80.1978 83.8089C79.9237 83.6272 79.421 83.6272 79.1469 83.8089C79.0098 83.8998 78.9184 83.9906 78.9184 84.1269V90.8049C78.9184 90.8958 79.0098 91.032 79.1469 91.1229C79.421 91.3046 79.9237 91.3046 80.1978 91.1229C80.3349 91.032 80.4263 90.9412 80.4263 90.8049V84.1269C80.4263 84.1723 80.4263 84.2178 80.3806 84.2178Z" fill="#5E5E5E"/>
<path d="M82.5739 90.6232L76.1311 86.898V81.9009L82.5739 85.5806V90.6232Z" fill="#262626"/>
<path d="M102.314 79.2659L82.5739 90.6231V85.5805L102.314 74.2688V79.2659Z" fill="#191919"/>
<path d="M82.5739 85.5806L76.1311 81.9008L95.8708 70.5437L102.314 74.2688L82.5739 85.5806Z" fill="#5E5E5E"/>
<path d="M77.4562 86.1256L67.8148 80.5834V75.5408L77.4562 81.0831V86.1256Z" fill="#262626"/>
<path d="M109.122 77.7668L108.391 78.2211C107.568 78.7208 107.066 79.7203 107.02 81.1286V83.2183L107.751 82.764L107.705 80.6743C107.797 79.2206 108.3 78.2211 109.122 77.7668Z" fill="#B1D49B"/>
<path d="M118.169 86.6255C118.169 85.3535 117.85 83.9452 117.21 82.5824C117.027 82.1735 116.799 81.7192 116.57 81.3104C116.113 80.5381 115.611 79.8112 115.062 79.1752C114.285 78.3121 113.463 77.5852 112.595 77.0855C110.995 76.177 109.579 76.0861 108.528 76.6767L107.797 77.131C108.848 76.5404 110.264 76.6312 111.864 77.5398C112.732 78.0395 113.6 78.7664 114.331 79.6295C114.879 80.2655 115.382 80.9924 115.839 81.7647C116.067 82.1735 116.296 82.6278 116.479 83.0367C117.073 84.445 117.438 85.8078 117.438 87.0798V89.1695L118.169 88.7152V86.6255Z" fill="#3A3A3A"/>
<path d="M111.864 77.5399C113.372 78.4031 114.834 79.9022 115.885 81.7648C116.936 83.5365 117.484 85.4445 117.484 87.0799V89.1696L116.57 88.6699V86.5802C116.57 85.1719 116.113 83.6274 115.245 82.1282C114.331 80.5836 113.143 79.3116 111.864 78.5848C109.259 77.0856 107.111 78.2213 107.066 81.1288V83.2185L106.198 82.7188V80.6291C106.198 77.1311 108.756 75.7228 111.864 77.5399Z" fill="#5F7254"/>
<path d="M105.741 76.4949L83.8533 89.124L85.6811 90.1689C87.5545 90.0326 89.3823 90.5777 90.8902 91.7589C91.8041 92.4857 92.3524 93.3489 92.8093 94.2574L121.048 110.475L142.935 97.8463L105.741 76.4949Z" fill="#127DB2"/>
<path d="M92.7636 94.2574L114.422 106.705L136.355 94.1211L105.741 76.5403L83.8533 89.1694L85.6811 90.2143C87.5545 90.078 89.3823 90.6231 90.8902 91.8043C91.8041 92.4857 92.3067 93.3034 92.7636 94.2574Z" fill="#07527E"/>
<path d="M103.456 79.6751L137.955 99.4819L138.549 99.1185L103.456 78.9937L88.1028 87.8976L88.6969 88.2157L103.456 79.6751Z" fill="url(#paint0_linear_207_14434)"/>
<path d="M85.1328 95.7566L83.8533 95.0297V89.124L86.595 90.714C85.6811 91.1683 85.0871 92.2586 85.0871 93.8032L85.1328 95.7566ZM93.0835 94.4392C93.9974 95.9837 94.5914 97.71 94.5914 99.2546V101.208L121.322 116.563L121.916 111.021L93.0835 94.4392Z" fill="#07527E"/>
<path d="M92.3981 91.5773C92.3981 91.5773 91.3471 90.6233 90.022 89.9418C88.9254 89.3513 87.6002 89.3058 86.4579 89.851C86.4122 89.851 86.3665 89.8964 86.3208 89.8964C85.0414 90.487 84.1732 91.7136 84.0818 93.1219C84.0818 93.2581 84.0818 93.349 84.0818 93.349L84.356 96.1656L92.3981 91.5773Z" fill="#191919"/>
<path d="M90.3876 90.7597C89.6565 90.5779 89.0168 90.6234 88.4684 90.896L86.1837 92.2134L92.1239 102.344L94.4086 101.027C94.6828 100.845 94.9112 100.618 95.094 100.345C95.0483 96.4837 93.1749 92.7585 90.3876 90.7597Z" fill="#191919"/>
<path d="M89.1538 92.486C86.8235 91.1686 84.95 92.2135 84.95 94.8483C84.95 97.4832 86.8234 100.709 89.1081 102.026C91.4385 103.343 93.3119 102.299 93.3119 99.6638C93.3576 97.0743 91.4842 93.8489 89.1538 92.486Z" fill="#262626"/>
<path d="M89.1538 93.8488C87.5088 92.8948 86.138 93.6671 86.138 95.5751C86.138 97.4831 87.4632 99.7999 89.1538 100.754C90.7988 101.708 92.1696 100.936 92.1696 99.0276C92.1696 97.1196 90.7988 94.8028 89.1538 93.8488Z" fill="#332E2A"/>
<path d="M89.1995 93.9852C87.6459 93.0312 86.3208 93.758 86.2751 95.5297C86.2294 97.3469 87.4632 99.5729 89.0624 100.527C90.616 101.481 91.9411 100.754 91.9868 98.9823C92.0325 97.1197 90.7988 94.8937 89.1995 93.9852Z" fill="#9A9283"/>
<path d="M91.8498 99.3457C91.4385 99.7546 90.7531 99.8 89.9763 99.3457C88.7426 98.5734 87.7373 96.8017 87.783 95.3934C87.783 94.5303 88.1486 94.0306 88.7426 93.8488C88.8797 93.8034 88.6969 93.8034 88.6969 93.8034H88.0572C87.1433 93.758 86.5493 94.4394 86.5036 95.666C86.4579 97.3468 87.6459 99.482 89.1081 100.345C90.2048 100.981 91.1187 100.799 91.5756 100.027L91.8498 99.5728C91.8041 99.5274 91.9412 99.2548 91.8498 99.3457Z" fill="#B5B0A4"/>
<path d="M89.1995 93.9852C87.6459 93.0312 86.3208 93.758 86.2751 95.5297C86.2294 97.3469 87.4632 99.5729 89.0624 100.527C90.616 101.481 91.9411 100.754 91.9868 98.9823C92.0325 97.1197 90.7988 94.8937 89.1995 93.9852ZM89.0624 100.3C87.6002 99.3912 86.4122 97.3015 86.4579 95.6206C86.5036 93.9397 87.7373 93.2583 89.1995 94.1669C90.6617 95.0755 91.8498 97.1652 91.8041 98.846C91.8041 100.527 90.5703 101.208 89.0624 100.3Z" fill="#D8D3CC"/>
<path d="M89.1995 94.1669C88.971 94.0306 88.7883 93.9397 88.6055 93.8943C88.1028 94.076 87.783 94.6211 87.783 95.3934C87.7373 96.8471 88.7426 98.6189 89.9763 99.3457C90.6617 99.7546 91.3014 99.7546 91.7583 99.4366C91.804 99.2549 91.804 99.0731 91.804 98.846C91.8497 97.1651 90.6617 95.03 89.1995 94.1669Z" fill="#9F998D"/>
<path d="M90.9359 96.4384C90.7531 96.0295 90.4332 95.6661 90.0677 95.4389C90.022 95.3935 89.9306 95.3481 89.8849 95.3481C89.3366 95.1209 88.9254 95.4389 88.9254 96.0749V96.2567L89.9306 97.9829L90.0677 98.0738C90.6617 98.4372 91.21 98.1646 91.21 97.4378C91.1644 97.1198 91.073 96.7564 90.9359 96.4384Z" fill="#928C81"/>
<path d="M89.9306 95.6661C89.3823 95.3481 88.9254 95.5753 88.9254 96.2113C88.9254 96.8473 89.3366 97.6196 89.8849 97.9376C90.4333 98.2556 90.8902 98.0284 90.8902 97.3924C90.8902 96.7564 90.4789 95.9841 89.9306 95.6661Z" fill="#B5B0A4"/>
<path d="M95.4596 99.6182C95.4596 98.3462 95.1397 96.9379 94.5 95.5751C94.3172 95.1662 94.0888 94.7119 93.8603 94.3031C93.4033 93.5308 92.9007 92.8039 92.3524 92.1679C91.5756 91.3048 90.7531 90.5779 89.8849 90.0782C88.2856 89.1696 86.8691 89.0788 85.8182 89.6693L85.0871 90.1236C86.138 89.5331 87.5545 89.6239 89.1538 90.5325C90.022 91.0322 90.8902 91.7591 91.6213 92.6222C92.1696 93.2582 92.6722 93.9851 93.1292 94.7573C93.3577 95.1662 93.5861 95.6205 93.7689 96.0293C94.3629 97.4376 94.7285 98.8005 94.7285 100.072V102.162L95.4596 101.708V99.6182Z" fill="#2E2E2F"/>
<path d="M89.1538 90.5324C90.6617 91.3955 92.1239 92.8947 93.1749 94.7572C94.2258 96.5289 94.7742 98.4369 94.7742 100.072V102.162L93.8603 101.662V99.5727C93.8603 98.1644 93.4033 96.6198 92.5352 95.1207C91.6213 93.5761 90.4333 92.3041 89.1538 91.5772C86.5493 90.0781 84.4017 91.2138 84.356 94.1212V96.2109L83.4878 95.7112V93.6215C83.4878 90.1235 86.0466 88.7607 89.1538 90.5324Z" fill="#262626"/>
<path d="M92.3524 92.2132C92.9007 92.8492 93.4034 93.5761 93.8603 94.3483C94.0431 94.6209 94.1345 94.8935 94.2715 95.2115L96.8304 93.7123C96.6933 93.4398 96.5562 93.1218 96.3735 92.8492C95.9165 92.0769 95.4139 91.3501 94.8656 90.7141C94.0888 89.8509 93.2663 89.1241 92.3981 88.6243C90.7988 87.7158 89.3823 87.6249 88.3313 88.2155L85.7725 89.7146C86.8234 89.1241 88.24 89.2149 89.8392 90.1235C90.7531 90.6232 91.5756 91.3501 92.3524 92.2132Z" fill="#2E2E2F"/>
<path d="M111.772 81.0833C112.321 81.7193 112.823 82.4462 113.28 83.2185C113.463 83.491 113.554 83.7636 113.691 84.0816L116.342 82.537C116.205 82.2645 114.971 79.5387 111.909 77.449C110.401 76.4496 108.802 76.495 107.751 77.0856L105.192 78.5847C106.243 77.9942 107.66 78.085 109.259 78.9936C110.173 79.4933 110.995 80.2202 111.772 81.0833Z" fill="#3A3A3A"/>
<path d="M113.737 84.0362L104.872 78.9482C104.872 78.9482 106.061 77.1311 109.579 78.8119C113.052 80.5382 113.737 84.0362 113.737 84.0362Z" fill="#262626"/>
<path d="M97.7442 99.4818L97.1502 99.1184C97.0131 99.0275 96.876 98.8458 96.876 98.6641C96.876 98.5278 97.0131 98.4369 97.1502 98.5278L97.7442 98.8912C97.8813 98.9821 98.0184 99.1638 98.0184 99.3455C98.0184 99.5272 97.8813 99.5726 97.7442 99.4818Z" fill="#C36F00"/>
<path d="M20.339 58.8685L19.9277 58.6414V53.6897L23.766 51.918L20.339 58.8685Z" fill="#5E5E5E"/>
<path d="M40.3072 47.4205L20.339 58.8685V53.9168L40.3072 42.4233V47.4205Z" fill="#4C4C4C"/>
<path d="M20.339 53.9169L19.9277 53.6897L39.9416 42.1963L40.3072 42.4234L20.339 53.9169Z" fill="#808083"/>
<path d="M32.0366 57.2332C31.3512 56.7789 30.6201 56.5063 29.9347 56.052C29.889 56.0066 29.8433 55.9612 29.7976 55.9158C29.1122 55.8703 28.4268 55.9612 27.7871 56.2792C27.7414 56.2792 27.6957 56.3246 27.65 56.3246C26.3706 56.9152 25.5024 58.1418 25.411 59.55C25.411 59.6863 25.411 59.7772 25.411 59.7772L25.6852 62.5937L33.0876 58.3235C32.8134 57.96 32.4935 57.5057 32.0366 57.2332Z" fill="#191919"/>
<path d="M31.7167 57.1422C30.9856 56.9605 30.3459 57.0059 29.7976 57.2785L27.5129 58.5959L33.4531 68.7265L35.7378 67.4091C36.012 67.2274 36.2404 67.0002 36.4232 66.7277C36.3775 62.9117 34.5041 59.1411 31.7167 57.1422Z" fill="#191919"/>
<path d="M30.483 58.914C28.1526 57.5966 26.2792 58.6414 26.2792 61.2763C26.2792 63.9112 28.1526 67.1366 30.4373 68.454C32.7677 69.7714 34.6412 68.7266 34.6412 66.0917C34.6868 63.4569 32.8134 60.2314 30.483 58.914Z" fill="#262626"/>
<path d="M30.483 60.2768C28.838 59.3228 27.4672 60.095 27.4672 62.003C27.4672 63.911 28.7923 66.2279 30.483 67.1819C32.128 68.1359 33.4988 67.3636 33.4988 65.4556C33.4988 63.5476 32.128 61.2308 30.483 60.2768Z" fill="#332E2A"/>
<path d="M30.5287 60.3677C28.9751 59.4137 27.65 60.1406 27.6043 61.9123C27.5586 63.7295 28.7924 65.9555 30.3916 66.9095C31.9452 67.8635 33.2703 67.1366 33.316 65.3649C33.3617 63.5477 32.128 61.3217 30.5287 60.3677Z" fill="#9A9283"/>
<path d="M33.179 65.7737C32.7677 66.1825 32.0823 66.228 31.3055 65.7737C30.0718 65.0014 29.0665 63.2297 29.1122 61.8214C29.1122 60.9582 29.4778 60.4585 30.0718 60.2768C30.2089 60.2314 30.0261 60.2314 30.0261 60.2314H29.3864C28.4725 60.186 27.8785 60.8674 27.8328 62.094C27.7871 63.7748 28.9751 65.91 30.4373 66.7731C31.534 67.4091 32.4479 67.2274 32.9048 66.4551L33.179 66.0008C33.1333 65.9554 33.2704 65.6828 33.179 65.7737Z" fill="#B5B0A4"/>
<path d="M30.5287 60.3677C28.9751 59.4137 27.65 60.1406 27.6043 61.9123C27.5586 63.7295 28.7924 65.9555 30.3916 66.9095C31.9452 67.8635 33.2703 67.1366 33.316 65.3649C33.3617 63.5477 32.128 61.3217 30.5287 60.3677ZM30.3916 66.7277C28.9294 65.8192 27.7414 63.7295 27.7871 62.0486C27.8328 60.3677 29.0665 59.6863 30.5287 60.5949C31.9909 61.5035 33.179 63.5932 33.1333 65.274C33.1333 66.9549 31.8995 67.6363 30.3916 66.7277Z" fill="#D8D3CC"/>
<path d="M30.5287 60.5948C30.3003 60.4586 30.1175 60.3677 29.9347 60.3223C29.4321 60.504 29.1122 61.0491 29.1122 61.8214C29.0665 63.2751 30.0718 65.0468 31.3055 65.7737C31.9909 66.1825 32.6306 66.1825 33.0876 65.8645C33.1333 65.6828 33.1333 65.5011 33.1333 65.274C33.179 63.5477 32.0366 61.458 30.5287 60.5948Z" fill="#9F998D"/>
<path d="M32.2651 62.8664C32.0823 62.4575 31.7625 62.0941 31.3969 61.8669C31.3512 61.8215 31.2598 61.7761 31.2141 61.7761C30.6658 61.5489 30.2546 61.8669 30.2546 62.5029V62.6846L31.2598 64.4109L31.3969 64.5018C31.9909 64.8652 32.5392 64.5926 32.5392 63.8658C32.4936 63.5024 32.4022 63.1844 32.2651 62.8664Z" fill="#928C81"/>
<path d="M31.2598 62.0941C30.7115 61.7761 30.2546 62.0033 30.2546 62.6393C30.2546 63.2753 30.6658 64.0476 31.2141 64.3655C31.7625 64.6835 32.2194 64.4564 32.2194 63.8204C32.2194 63.1844 31.8081 62.4121 31.2598 62.0941Z" fill="#B5B0A4"/>
<path d="M43.0945 63.5476C42.4091 63.0934 41.678 62.8208 40.9926 62.3665C40.9469 62.3211 40.9012 62.2756 40.8555 62.2302C40.1701 62.1848 39.4847 62.2756 38.845 62.5936C38.7993 62.5936 38.7536 62.6391 38.7079 62.6391C37.4285 63.2296 36.5603 64.4562 36.4689 65.8645C36.4689 66.0008 36.4689 66.0916 36.4689 66.0916L36.7431 68.9082L44.1455 64.6379C43.8256 64.2745 43.5514 63.8656 43.0945 63.5476Z" fill="#191919"/>
<path d="M42.7746 63.5021C42.0435 63.3204 41.4038 63.3658 40.8555 63.6384L38.5708 64.9558L44.511 75.0864L46.7957 73.769C47.0698 73.5872 47.2983 73.3601 47.4811 73.0875C47.3897 69.2715 45.5163 65.501 42.7746 63.5021Z" fill="#191919"/>
<path d="M41.5409 65.2739C39.2105 63.9565 37.3371 65.0013 37.3371 67.6362C37.3371 70.271 39.2105 73.4965 41.4952 74.8139C43.8256 76.1313 45.699 75.0865 45.699 72.4516C45.699 69.8167 43.8713 66.5913 41.5409 65.2739Z" fill="#262626"/>
<path d="M41.5409 66.6366C39.8959 65.6826 38.5251 66.4549 38.5251 68.3629C38.5251 70.2709 39.8502 72.5878 41.5409 73.5418C43.1859 74.4958 44.5567 73.7235 44.5567 71.8155C44.5567 69.8621 43.1859 67.5906 41.5409 66.6366Z" fill="#332E2A"/>
<path d="M41.5866 66.7276C40.033 65.7736 38.7079 66.5005 38.6622 68.2722C38.6165 70.0893 39.8502 72.3153 41.4495 73.2693C43.0031 74.2233 44.3282 73.4965 44.3739 71.7247C44.4196 69.9076 43.1859 67.6816 41.5866 66.7276Z" fill="#9A9283"/>
<path d="M44.2368 72.0881C43.8256 72.497 43.1402 72.5424 42.3634 72.0881C41.1297 71.3158 40.1244 69.5441 40.1701 68.1358C40.1701 67.2727 40.5357 66.773 41.1297 66.5913C41.2668 66.5458 41.084 66.5458 41.084 66.5458H40.4443C39.5304 66.5004 38.9364 67.1818 38.8907 68.4084C38.845 70.0893 40.033 72.2244 41.4952 73.0876C42.5919 73.7236 43.5057 73.5418 43.9627 72.7696L44.2368 72.3153C44.1912 72.3153 44.3282 72.0427 44.2368 72.0881Z" fill="#B5B0A4"/>
<path d="M41.5866 66.7276C40.033 65.7736 38.7079 66.5005 38.6622 68.2722C38.6165 70.0893 39.8502 72.3153 41.4495 73.2693C43.0031 74.2233 44.3282 73.4965 44.3739 71.7247C44.4196 69.9076 43.1859 67.6816 41.5866 66.7276ZM41.4495 73.0876C39.9873 72.179 38.7993 70.0893 38.845 68.4085C38.8907 66.7276 40.1244 66.0462 41.5866 66.9548C43.0488 67.8633 44.2369 69.953 44.1912 71.6339C44.1455 73.3147 42.9117 73.9507 41.4495 73.0876Z" fill="#D8D3CC"/>
<path d="M41.5866 66.9093C41.3581 66.773 41.1754 66.6821 40.9926 66.6367C40.49 66.8184 40.1701 67.3636 40.1701 68.1359C40.1244 69.5896 41.1297 71.3613 42.3634 72.0881C43.0488 72.497 43.6885 72.497 44.1455 72.179C44.1912 71.9973 44.1912 71.8156 44.1912 71.5884C44.2369 69.9076 43.0488 67.8179 41.5866 66.9093Z" fill="#9F998D"/>
<path d="M43.323 69.1808C43.1402 68.7719 42.8203 68.4085 42.4548 68.1814C42.4091 68.1359 42.3177 68.0905 42.272 68.0905C41.7237 67.8634 41.3124 68.1814 41.3124 68.8174V68.9991L42.3177 70.7254L42.4548 70.8162C43.0488 71.1797 43.5971 70.9071 43.5971 70.1802C43.5514 69.8622 43.4601 69.4988 43.323 69.1808Z" fill="#928C81"/>
<path d="M42.3177 68.4086C41.7694 68.0906 41.3124 68.3177 41.3124 68.9537C41.3124 69.5897 41.7237 70.362 42.272 70.68C42.8203 70.998 43.2773 70.7709 43.2773 70.1349C43.2773 69.5443 42.866 68.772 42.3177 68.4086Z" fill="#B5B0A4"/>
<path d="M54.1524 69.9077C53.467 69.4535 52.7359 69.1809 52.0505 68.7266C52.0048 68.6812 51.9591 68.6357 51.9134 68.5903C51.228 68.5449 50.5426 68.6357 49.9029 68.9537C49.8572 68.9537 49.8115 68.9992 49.7658 68.9992C48.4864 69.5897 47.6182 70.8163 47.5268 72.2246C47.5268 72.3609 47.5268 72.4517 47.5268 72.4517L47.801 75.2683L55.2034 70.998C54.8835 70.6346 54.6093 70.2257 54.1524 69.9077Z" fill="#191919"/>
<path d="M53.8325 69.8168C53.1014 69.6351 52.4617 69.6805 51.9134 69.9531L49.6287 71.2705L55.5689 81.4011L57.8536 80.0836C58.1278 79.9019 58.3562 79.6748 58.539 79.4022C58.4476 75.5862 56.5742 71.8157 53.8325 69.8168Z" fill="#191919"/>
<path d="M52.5988 71.5886C50.2684 70.2711 48.395 71.316 48.395 73.9509C48.395 76.5857 50.2684 79.8111 52.5531 81.1286C54.8835 82.446 56.757 81.4012 56.757 78.7663C56.757 76.1769 54.8835 72.9514 52.5988 71.5886Z" fill="#262626"/>
<path d="M52.5988 72.9513C50.9538 71.9973 49.583 72.7696 49.583 74.6776C49.583 76.5856 50.9081 78.9025 52.5988 79.8565C54.2438 80.8105 55.6146 80.0382 55.6146 78.1302C55.5689 76.2222 54.2438 73.9053 52.5988 72.9513Z" fill="#332E2A"/>
<path d="M52.6445 73.0877C51.0909 72.1337 49.7658 72.8606 49.7201 74.6323C49.6744 76.4494 50.9081 78.6754 52.5074 79.6294C54.061 80.5834 55.3861 79.8566 55.4318 78.0849C55.4775 76.2223 54.1981 73.9963 52.6445 73.0877Z" fill="#9A9283"/>
<path d="M55.2947 78.4482C54.8835 78.8571 54.1981 78.9025 53.4213 78.4482C52.1876 77.6759 51.1823 75.9042 51.228 74.4959C51.228 73.6328 51.5935 73.1331 52.1876 72.9514C52.3246 72.9059 52.1419 72.9059 52.1419 72.9059H51.5022C50.5883 72.8605 49.9943 73.5419 49.9486 74.7685C49.9029 76.4494 51.0909 78.5845 52.5531 79.4477C53.6498 80.0837 54.5636 79.9019 55.0206 79.1297L55.2947 78.6754C55.249 78.6299 55.3861 78.3574 55.2947 78.4482Z" fill="#B5B0A4"/>
<path d="M52.6445 73.0877C51.0909 72.1337 49.7658 72.8606 49.7201 74.6323C49.6744 76.4494 50.9081 78.6754 52.5074 79.6294C54.061 80.5834 55.3861 79.8566 55.4318 78.0849C55.4775 76.2223 54.1981 73.9963 52.6445 73.0877ZM52.5074 79.4023C51.0452 78.4937 49.8572 76.404 49.9029 74.7231C49.9486 73.0423 51.1823 72.3609 52.6445 73.2694C54.1067 74.178 55.2947 76.2677 55.249 77.9486C55.2033 79.6294 53.9696 80.3109 52.5074 79.4023Z" fill="#D8D3CC"/>
<path d="M52.6445 73.2694C52.416 73.1331 52.2333 73.0423 52.0505 72.9968C51.5479 73.1785 51.228 73.7237 51.228 74.496C51.1823 75.9497 52.1876 77.7214 53.4213 78.4483C54.1067 78.8571 54.7464 78.8571 55.2034 78.5391C55.249 78.3574 55.249 78.1757 55.249 77.9486C55.2947 76.2677 54.1067 74.1325 52.6445 73.2694Z" fill="#9F998D"/>
<path d="M54.3809 75.5409C54.1981 75.132 53.8782 74.7686 53.5127 74.5415C53.467 74.4961 53.3756 74.4506 53.3299 74.4506C52.7816 74.2235 52.3703 74.5415 52.3703 75.1775V75.3592L53.3756 77.0855L53.5127 77.1763C54.1067 77.5398 54.655 77.2672 54.655 76.5403C54.6093 76.2223 54.5179 75.8589 54.3809 75.5409Z" fill="#928C81"/>
<path d="M53.3756 74.7684C52.8273 74.4504 52.3703 74.6776 52.3703 75.3136C52.3703 75.9496 52.7816 76.7219 53.3299 77.0399C53.8782 77.3579 54.3352 77.1307 54.3352 76.4947C54.3352 75.8587 53.9239 75.0864 53.3756 74.7684Z" fill="#B5B0A4"/>
<path d="M61.4177 77.3126C61.4177 76.0406 61.0978 74.6323 60.4581 73.2694C60.2754 72.8605 60.0469 72.4063 59.8184 71.9974C59.3615 71.2251 58.8588 70.4983 58.3105 69.8623C57.5337 68.9991 34.8696 55.734 33.9557 55.2343C33.91 55.1888 33.8644 55.1888 33.8187 55.1888C33.773 55.1434 33.7273 55.1434 33.6816 55.098C32.0823 54.1894 30.6658 54.0985 29.6148 54.6891L26.3706 56.5971C28.3354 56.5063 34.6868 60.0043 38.9364 62.2757C40.8555 63.3205 41.2211 63.7294 42.7746 64.7288L52.7816 70.6345C55.3861 72.1791 57.2139 74.7686 57.7622 77.7668C57.8993 78.5391 57.7165 79.8565 57.8079 80.6288L58.0821 81.3103L61.3263 79.4023L61.4177 77.3126Z" fill="#191919"/>
<path d="M58.1735 81.2649V79.1752C58.1735 77.4943 57.6251 75.6317 56.5742 73.86C55.5232 72.0429 54.1067 70.5437 52.5531 69.6352C49.8115 68.0452 31.9909 57.8237 30.4373 56.9606C27.3302 55.1889 24.817 56.5517 24.7713 60.0497V62.1394L25.6395 62.6392V60.5494C25.6395 57.642 27.7871 56.5063 30.4373 58.0054C31.7168 58.7323 32.9505 60.0043 33.8187 61.5489C34.6868 63.048 35.1438 64.638 35.1438 66.0009V68.0906L35.8292 68.4994L36.6974 68.9992V66.9094C36.6974 64.002 38.845 62.8663 41.4952 64.3654C42.7747 65.0923 44.0084 66.3643 44.8766 67.9089C45.7447 69.408 46.2017 70.998 46.2017 72.3609V74.4506L47.1156 74.9503L47.801 75.3137V73.224C47.801 70.3166 49.9486 69.1809 52.5988 70.68C53.8782 71.4069 55.112 72.6789 55.9802 74.2234C56.8483 75.7226 57.3053 77.3126 57.3053 78.6754V80.7652L58.1735 81.2649Z" fill="#262626"/>
<path d="M67.9062 82.3097L67.1751 81.9008V78.948L67.9062 79.3569V82.3097Z" fill="#5E5E5E"/>
<path d="M68.1804 82.1281L67.9062 82.3098V79.357L68.1804 79.2207V82.1281Z" fill="#4C4C4C"/>
<path d="M67.9062 79.3569L67.1751 78.9481L67.4493 78.7664L68.1804 79.2206L67.9062 79.3569Z" fill="#191919"/>
<path d="M78.4158 88.3517L77.6847 87.8974V84.9446L78.4158 85.3989V88.3517Z" fill="#5E5E5E"/>
<path d="M78.69 88.1701L78.4158 88.3519V85.399L78.69 85.2173V88.1701Z" fill="#4C4C4C"/>
<path d="M78.4158 85.3989L77.6847 84.9446L77.9589 84.8083L78.69 85.2172L78.4158 85.3989Z" fill="#191919"/>
<path d="M64.7534 79.4478L64.3878 79.6749L80.6091 90.1235L80.9746 89.8963V88.7606L64.7534 79.4478Z" fill="#808083"/>
<path d="M80.6091 90.1234L64.3878 80.8105V79.6748L80.6091 88.9877V90.1234Z" fill="#5E5E5E"/>
<path d="M64.7534 76.6311L64.3878 76.8582L80.6091 87.3068L80.9746 87.0797V85.944L64.7534 76.6311Z" fill="#808083"/>
<path d="M80.6091 87.3067L64.3878 77.9939V76.8582L80.6091 86.171V87.3067Z" fill="#5E5E5E"/>
<path d="M113.417 105.024L19.9734 51.3728V49.0105L113.417 102.662V105.024Z" fill="#5E5E5E"/>
<path d="M138.092 90.8957L113.417 105.024V102.662L138.092 88.5334V90.8957Z" fill="#808083"/>
<path d="M113.463 104.115L19.9277 50.4188V15.3025L136.675 55.6885L113.463 104.115Z" fill="#C1C0B6"/>
<path d="M138.092 89.9871L113.463 104.115V68.9991L138.092 54.8708V89.9871Z" fill="#DAD9CF"/>
<path d="M113.463 68.9992L19.9277 15.3026L44.5567 1.17432L138.092 54.8709L113.463 68.9992Z" fill="#F4F3EB"/>
<path d="M118.352 68.0451L114.651 70.1802V69.7714L118.352 67.6362V68.0451ZM118.352 68.8628L114.651 70.998V71.4068L118.352 69.2717V68.8628Z" fill="#C1C0B6"/>
<path d="M137.041 57.3241L133.34 59.4593V59.0504L137.041 56.9153V57.3241ZM137.041 58.1419L133.34 60.2316V60.6404L137.041 58.5053V58.1419Z" fill="#C1C0B6"/>
<path d="M165.828 86.6253C165.737 86.5799 165.554 86.5799 165.417 86.6707L164.823 86.9887C164.503 87.1704 164.229 87.6247 164.229 88.0336V92.2584C164.229 92.4402 164.274 92.5764 164.411 92.6673L164.731 92.849L166.194 86.807L165.828 86.6253Z" fill="#075684"/>
<path d="M165.737 86.8524C166.056 86.6707 166.331 86.807 166.331 87.2158V91.4407C166.331 91.8041 166.056 92.3039 165.737 92.4856L165.143 92.8036C164.823 92.9853 164.549 92.849 164.549 92.4401V88.2153C164.549 87.8518 164.823 87.3521 165.143 87.1704L165.737 86.8524Z" fill="#0F6EA1"/>
<path d="M162.812 89.7598C162.766 89.7598 162.675 89.7144 162.629 89.669C162.584 89.5781 162.584 89.4418 162.721 89.3964L164.183 88.5333C164.274 88.4878 164.411 88.4878 164.457 88.6241C164.503 88.715 164.503 88.8513 164.366 88.8967L162.904 89.7598C162.904 89.7598 162.858 89.7598 162.812 89.7598Z" fill="#262626"/>
<path d="M129.958 113.928C129.684 113.746 127.948 112.52 127.674 112.656C127.537 112.747 127.445 112.747 127.354 112.701C126.623 113.019 125.709 113.474 125.252 113.792C124.429 115.064 124.429 116.517 124.429 116.517L124.704 119.334L131.649 115.336C131.192 114.837 130.644 114.337 129.958 113.928Z" fill="#191919"/>
<path d="M135.213 118.334C134.802 117.426 134.254 116.517 133.568 115.79C133.02 115.154 132.38 114.655 131.74 114.246C130.552 113.564 129.501 113.519 128.77 113.973L126.44 115.291L132.38 125.467L134.711 124.149C135.487 123.695 135.944 122.786 135.944 121.469C135.944 120.47 135.67 119.379 135.213 118.334Z" fill="#191919"/>
<path d="M129.41 115.609C127.08 114.291 125.206 115.336 125.206 117.971C125.206 120.606 127.08 123.831 129.41 125.194C131.74 126.512 133.614 125.467 133.614 122.787C133.614 120.152 131.74 116.926 129.41 115.609Z" fill="#262626"/>
<path d="M129.41 116.972C127.765 116.018 126.394 116.79 126.394 118.698C126.394 120.606 127.719 122.923 129.41 123.877C131.055 124.831 132.426 124.058 132.426 122.15C132.426 120.242 131.101 117.926 129.41 116.972Z" fill="#332E2A"/>
<path d="M129.41 117.335C127.948 116.426 126.76 117.062 126.668 118.743C126.623 120.424 127.719 122.468 129.182 123.377C130.644 124.286 131.832 123.65 131.923 121.969C132.015 120.288 130.872 118.244 129.41 117.335Z" fill="#B5B0A4"/>
<path d="M131.238 119.788C130.827 118.925 130.187 118.107 129.456 117.653C129.319 117.562 129.182 117.471 129.044 117.426C127.948 116.971 127.08 117.562 127.034 118.925C127.034 118.97 127.034 119.288 127.034 119.288C127.08 118.062 127.856 117.517 128.862 117.925C128.999 117.971 129.09 118.016 129.227 118.107C129.867 118.516 130.461 119.243 130.827 120.015C131.101 120.606 131.283 121.242 131.238 121.832C131.192 123.15 130.233 123.695 129.044 122.968L129.319 123.104C130.644 123.922 131.74 123.331 131.786 121.832C131.695 121.151 131.512 120.469 131.238 119.788Z" fill="#D8D3CC"/>
<path d="M131.649 119.606C131.146 118.562 130.415 117.653 129.547 117.108C129.364 117.017 129.227 116.926 129.044 116.835C127.765 116.29 126.714 117.017 126.668 118.562C126.668 118.607 126.668 118.789 126.668 118.789C126.714 117.244 127.674 116.563 128.907 117.062C129.044 117.108 129.227 117.199 129.364 117.29C130.187 117.789 130.918 118.698 131.375 119.652C131.74 120.379 131.923 121.196 131.877 121.923C131.832 123.604 130.598 124.24 129.136 123.332L129.273 123.422C130.781 124.376 132.06 123.695 132.152 121.923C132.243 121.242 132.015 120.379 131.649 119.606Z" fill="#D8D3CC"/>
<path d="M164.092 98.8457L142.204 111.475V128.374C142.204 128.42 142.204 128.465 142.159 128.465L164.046 115.836C164.092 115.836 164.092 115.791 164.092 115.745V98.8457Z" fill="#116AA6"/>
<path d="M164.366 96.3017L158.7 93.0309L157.832 91.5317L151.48 87.8975L127.902 89.3966L124.429 92.4403L125.435 101.253L135.03 108.658L143.804 112.247L163.498 103.661L164.823 96.8923L164.366 96.3017Z" fill="#262626"/>
<g opacity="0.3">
<path opacity="0.3" d="M156.232 95.6657C154.45 96.2562 152.76 98.0734 152.44 99.6634C152.12 101.253 153.308 102.071 155.09 101.435C156.872 100.799 158.563 99.0274 158.883 97.4374C159.202 95.8474 158.014 95.0297 156.232 95.6657ZM156.187 96.1654C156.278 96.1199 156.415 96.1199 156.506 96.0745L155.684 98.5731L153.673 98.0279C154.313 97.1648 155.227 96.4834 156.187 96.1654ZM158.471 97.6645C158.197 99.0274 156.735 100.572 155.227 101.072C153.673 101.571 152.668 100.89 152.942 99.5271C153.034 99.1182 153.216 98.7094 153.491 98.3005L155.958 98.9819L156.963 95.9837C158.014 95.8928 158.7 96.5288 158.471 97.6645Z" fill="#696969"/>
<path opacity="0.3" d="M162.492 95.9382C154.359 98.664 145.449 104.388 140.331 109.294L141.108 110.748L145.266 113.565L164.594 101.481C164.686 100.299 165.234 98.1642 164.457 97.2102L162.492 95.9382Z" fill="#696969"/>
<path opacity="0.3" d="M160.573 96.6197C159.979 99.0275 155.09 101.435 151.023 101.344C151.023 101.344 152.897 99.3909 155.09 98.1643C158.471 96.3472 160.573 96.6197 160.573 96.6197Z" fill="#757575"/>
</g>
<path d="M163.269 86.7163L162.081 87.0343L163.589 96.3472L164.594 96.8923L163.269 86.7163Z" fill="#262626"/>
<path opacity="0.5" d="M163.132 86.7617L142.204 98.8457C142.022 98.982 141.747 99.0274 141.519 99.0274C141.29 99.0274 141.062 98.982 140.833 98.8457L129.639 92.4403C129.547 92.3949 129.41 92.3494 129.319 92.3494C129.045 92.3494 128.816 92.5766 128.816 92.94V99.618C128.816 100.027 129.09 100.481 129.456 100.708L135.716 104.297L136.538 105.751C136.538 105.796 136.584 105.796 136.63 105.842L142.296 109.113C142.57 109.249 142.844 109.34 143.118 109.34C143.392 109.34 143.712 109.249 143.941 109.113L164.731 97.1194L163.132 86.7617Z" fill="url(#paint1_linear_207_14434)"/>
<path opacity="0.5" d="M154.862 102.753L164.731 97.074L163.132 86.7617L154.862 91.5317V102.753Z" fill="#292D2F"/>
<path d="M163.406 86.3074L162.767 86.9888L164.366 97.2102L164.777 97.0285L165.006 96.6651L163.406 86.3074Z" fill="#262626"/>
<path d="M141.747 98.3006L139.508 97.4375L141.199 108.477C141.702 109.885 142.981 110.748 143.484 109.431L141.747 98.3006Z" fill="#262626"/>
<path d="M131.74 92.2586L130.644 92.0769V102.616C130.918 103.298 131.329 103.752 131.74 103.843V92.2586Z" fill="#262626"/>
<path d="M142.022 70.5891L120.134 83.2637L139.92 94.5754L161.761 81.9462L142.022 70.5891Z" fill="#127DB2"/>
<path d="M165.006 109.567L164.686 109.385C164.686 109.385 164.868 109.249 165.006 109.022V96.7106L164.366 97.0286L143.849 108.885C143.392 109.158 142.844 109.158 142.387 108.885L136.721 105.615L135.853 104.115L129.547 100.481C129.273 100.299 128.999 99.8906 128.999 99.5726V92.8946C128.999 92.5766 129.227 92.4403 129.547 92.5766L140.742 98.982C141.245 99.2546 141.839 99.2546 142.296 98.982L163.223 86.898L163.452 86.7163V85.8077C163.452 85.4443 163.361 85.0809 163.223 84.7629L161.807 81.9463L139.92 94.5754L120.18 83.2183L120.134 105.524L120.5 105.705L120.134 105.933L120.089 115.791L124.566 118.38V116.427C124.566 113.428 127.582 112.747 130.233 114.246C132.837 115.745 134.985 119.379 134.939 122.378V124.331L141.884 128.329C142.57 128.738 143.438 128.738 144.169 128.329L164.457 116.608C164.777 116.427 165.006 116.063 165.006 115.654V109.567Z" fill="url(#paint2_linear_207_14434)"/>
<path d="M163.452 85.8077V86.7163L163.223 86.898L142.296 98.982C141.93 99.1637 141.519 99.2546 141.153 99.1637L139.92 94.5754L161.807 81.9463L163.223 84.7629C163.361 85.0809 163.452 85.4443 163.452 85.8077ZM165.006 109.567L164.686 109.385C164.686 109.385 164.868 109.249 165.006 109.022V96.7106L164.366 97.0286L143.849 108.885C143.438 109.113 142.981 109.113 142.57 108.976V128.601C143.118 128.692 143.667 128.647 144.169 128.374L164.457 116.654C164.777 116.472 165.006 116.109 165.006 115.7V109.567Z" fill="#0F6EA1"/>
<path opacity="0.3" d="M165.006 109.567L164.686 109.385C164.686 109.385 164.64 109.431 164.503 109.522L143.529 121.56C143.438 121.606 143.347 121.651 143.255 121.651C143.118 121.651 143.027 121.606 142.935 121.515L135.624 114.928C134.711 114.11 133.705 113.338 132.609 112.747L120.454 105.751L120.089 105.933L132.426 113.02C133.522 113.656 134.528 114.382 135.442 115.2L142.707 121.742C142.89 121.878 143.072 121.924 143.255 121.924C143.392 121.924 143.575 121.878 143.712 121.787L164.686 109.749C164.777 109.749 164.914 109.658 165.006 109.567Z" fill="#075380"/>
<path d="M149.058 122.832C148.739 122.832 148.556 122.605 148.556 122.287V120.879C148.556 120.47 148.876 119.97 149.287 119.743L159.431 113.928C159.568 113.837 159.705 113.792 159.842 113.792C160.162 113.792 160.345 114.019 160.345 114.337V115.745C160.345 116.154 160.025 116.654 159.614 116.881L149.47 122.696C149.333 122.787 149.196 122.832 149.058 122.832Z" fill="url(#paint3_linear_207_14434)"/>
<path d="M159.477 114.11L149.333 119.924C149.013 120.106 148.693 120.56 148.693 120.878V122.287C148.693 122.605 148.967 122.741 149.333 122.559L159.477 116.744C159.796 116.563 160.116 116.108 160.116 115.79V114.382C160.116 114.019 159.842 113.882 159.477 114.11Z" fill="#2E2E2F"/>
<path d="M147.002 118.425C146.637 118.425 146.408 118.153 146.408 117.744V112.838C146.408 112.338 146.819 111.702 147.322 111.384L160.619 103.752C160.802 103.661 160.984 103.616 161.122 103.616C161.487 103.616 161.716 103.888 161.716 104.297V109.203C161.716 109.703 161.304 110.339 160.802 110.657L147.505 118.289C147.368 118.38 147.185 118.425 147.002 118.425Z" fill="url(#paint4_linear_207_14434)"/>
<path d="M160.756 103.934L147.413 111.566C146.956 111.838 146.591 112.383 146.591 112.838V117.744C146.591 118.198 146.956 118.335 147.413 118.107L160.71 110.475C161.167 110.203 161.533 109.658 161.533 109.203V104.297C161.533 103.797 161.167 103.661 160.756 103.934Z" fill="#2E2E2F"/>
<path d="M164.411 111.293L161.03 113.247C160.802 113.383 160.619 113.655 160.619 113.883V115.018C160.619 115.245 160.802 115.291 161.03 115.2L164.411 113.247V112.747V111.293Z" fill="#C9E7E9"/>
<path opacity="0.8" d="M164.412 111.293L163.909 111.566V112.929L164.412 113.247V112.701V111.293Z" fill="#6B898D"/>
<path d="M162.355 113.474C162.218 113.474 162.127 113.292 162.218 113.11C162.31 112.929 162.492 112.747 162.675 112.747C162.812 112.747 162.904 112.929 162.812 113.11C162.675 113.338 162.492 113.474 162.355 113.474ZM161.898 113.656C161.99 113.474 161.944 113.292 161.761 113.292C161.624 113.292 161.396 113.474 161.304 113.656C161.213 113.837 161.259 114.019 161.441 114.019C161.578 114.019 161.807 113.837 161.898 113.656ZM163.543 112.247C163.406 112.247 163.178 112.429 163.086 112.611C162.995 112.792 163.041 112.974 163.223 112.974C163.406 112.974 163.589 112.792 163.68 112.611C163.772 112.429 163.68 112.247 163.543 112.247ZM160.893 113.792C160.802 113.792 160.71 113.837 160.665 113.883V114.473C160.802 114.428 160.939 114.292 161.03 114.11C161.076 113.928 161.03 113.792 160.893 113.792Z" fill="#DBFCFF"/>
<path opacity="0.5" d="M164.411 111.293L161.03 113.247C160.802 113.383 160.619 113.655 160.619 113.883V115.018C160.619 115.245 160.802 115.291 161.03 115.2L164.411 113.247V112.747V111.293Z" fill="#ADCCD0"/>
<path d="M147.825 120.788L144.352 122.787V124.74L147.825 122.741C148.053 122.605 148.236 122.332 148.236 122.105V120.969C148.236 120.742 148.053 120.697 147.825 120.788Z" fill="#C9E7E9"/>
<path opacity="0.8" d="M147.825 120.788L147.642 120.879V122.514C147.779 122.605 147.87 122.65 147.916 122.65C148.099 122.514 148.236 122.287 148.236 122.105V120.969C148.236 120.742 148.053 120.697 147.825 120.788Z" fill="#6B898D"/>
<path d="M146.134 122.787C145.997 122.787 145.905 122.605 145.997 122.423C146.088 122.241 146.271 122.06 146.454 122.06C146.591 122.06 146.682 122.241 146.591 122.423C146.499 122.605 146.271 122.787 146.134 122.787ZM145.677 122.923C145.768 122.741 145.723 122.559 145.54 122.559C145.403 122.559 145.174 122.741 145.083 122.923C144.992 123.105 145.037 123.286 145.22 123.286C145.403 123.286 145.586 123.15 145.677 122.923ZM147.322 121.56C147.185 121.56 146.956 121.742 146.865 121.923C146.774 122.105 146.819 122.287 147.002 122.287C147.139 122.287 147.368 122.105 147.459 121.923C147.55 121.742 147.505 121.56 147.322 121.56ZM144.672 123.059C144.58 123.059 144.489 123.105 144.443 123.15V123.741C144.58 123.695 144.717 123.559 144.809 123.377C144.9 123.241 144.809 123.059 144.672 123.059Z" fill="#DBFCFF"/>
<path opacity="0.5" d="M147.825 120.788L144.352 122.787V124.74L147.825 122.741C148.053 122.605 148.236 122.332 148.236 122.105V120.969C148.236 120.742 148.053 120.697 147.825 120.788Z" fill="#ADCCD0"/>
<path d="M164.046 115.382L160.893 117.199C160.756 117.29 160.619 117.244 160.619 117.063V116.654C160.619 116.517 160.756 116.29 160.893 116.245L164.046 114.428C164.183 114.337 164.32 114.382 164.32 114.564V114.973C164.32 115.109 164.183 115.291 164.046 115.382Z" fill="#C9E7E9"/>
<path opacity="0.5" d="M164.046 115.382L160.893 117.199C160.756 117.29 160.619 117.244 160.619 117.063V116.654C160.619 116.517 160.756 116.29 160.893 116.245L164.046 114.428C164.183 114.337 164.32 114.382 164.32 114.564V114.973C164.32 115.109 164.183 115.291 164.046 115.382Z" fill="#ADCCD0"/>
<path d="M147.962 124.604L144.809 126.421C144.672 126.512 144.535 126.466 144.535 126.285V125.876C144.535 125.739 144.672 125.512 144.809 125.467L147.962 123.65C148.099 123.559 148.236 123.604 148.236 123.786V124.195C148.236 124.331 148.099 124.513 147.962 124.604Z" fill="#C9E7E9"/>
<path opacity="0.5" d="M147.962 124.604L144.809 126.421C144.672 126.512 144.535 126.466 144.535 126.285V125.876C144.535 125.739 144.672 125.512 144.809 125.467L147.962 123.65C148.099 123.559 148.236 123.604 148.236 123.786V124.195C148.236 124.331 148.099 124.513 147.962 124.604Z" fill="#ADCCD0"/>
<path d="M142.89 122.968C142.844 122.968 142.753 123.014 142.753 123.059C142.753 123.241 142.753 124.377 142.753 124.558C142.753 124.649 142.753 124.74 142.798 124.786C143.027 125.058 143.986 125.013 144.443 124.74V122.741C144.443 122.741 143.804 123.059 142.89 122.968Z" fill="#C36F00"/>
<path d="M165.006 112.701V110.748C164.868 110.975 164.686 111.157 164.411 111.293C164.366 111.293 164.366 113.247 164.366 113.247C164.686 113.11 164.868 112.929 165.006 112.701Z" fill="#C36F00"/>
<path d="M135.807 122.787C135.807 121.515 135.487 120.106 134.848 118.744C134.665 118.335 134.436 117.88 134.208 117.472C133.751 116.699 133.248 115.972 132.7 115.336C131.923 114.473 131.101 113.746 130.233 113.247C128.633 112.338 127.217 112.247 126.166 112.838L125.435 113.292C126.668 113.11 127.856 113.156 129.456 114.064C130.324 114.564 130.918 115.155 131.649 116.018C132.197 116.654 132.928 117.29 133.385 118.062C133.614 118.471 133.705 118.789 133.888 119.243C134.482 120.652 134.893 121.878 134.893 123.15L135.076 125.331L135.807 124.876V122.787Z" fill="#0F6EA1"/>
<path d="M129.501 113.701C131.009 114.564 132.472 116.063 133.522 117.926C134.573 119.697 135.122 121.605 135.122 123.241V125.331L134.208 124.831V122.741C134.208 121.333 133.751 119.788 132.883 118.289C131.969 116.745 130.781 115.473 129.501 114.746C126.897 113.247 124.749 114.382 124.704 117.29V119.379L123.835 118.88V116.79C123.835 113.292 126.394 111.929 129.501 113.701Z" fill="#075684"/>
<path opacity="0.3" d="M127.308 98.7547L122.236 95.8473C121.962 95.711 121.734 95.3476 121.734 95.075V89.0784C121.734 89.033 121.734 88.9876 121.779 88.9421C121.642 88.9421 121.505 89.033 121.505 89.2147V95.2113C121.505 95.4839 121.734 95.8473 122.008 95.9836L127.08 98.891C127.308 99.0273 127.491 98.9819 127.537 98.8456C127.491 98.8001 127.4 98.8001 127.308 98.7547Z" fill="#0F6EA1"/>
<path opacity="0.2" d="M127.08 91.895L122.008 88.9876C121.916 88.9422 121.825 88.8967 121.779 88.8967C121.779 88.9422 121.733 88.9876 121.733 89.033C121.779 89.0784 126.851 91.9859 126.851 91.9859C127.125 92.1222 127.354 92.4856 127.354 92.7582V98.7093C127.4 98.7547 127.491 98.7547 127.537 98.7547C127.537 98.7093 127.582 98.6639 127.582 98.6184V92.6219C127.582 92.3947 127.354 92.0313 127.08 91.895Z" fill="#07527E"/>
<path opacity="0.3" d="M127.308 107.568L122.236 104.66C121.962 104.524 121.734 104.161 121.734 103.888V97.8917C121.734 97.8462 121.734 97.8008 121.779 97.7554C121.642 97.7554 121.505 97.8462 121.505 98.0279V104.024C121.505 104.297 121.734 104.661 122.008 104.797L127.08 107.704C127.308 107.84 127.491 107.795 127.537 107.659C127.491 107.659 127.4 107.613 127.308 107.568Z" fill="#0F6EA1"/>
<path opacity="0.2" d="M127.08 100.708L122.008 97.8008C121.916 97.7554 121.825 97.71 121.779 97.71C121.779 97.7554 121.733 97.8008 121.733 97.8462C121.779 97.8917 126.851 100.799 126.851 100.799C127.125 100.935 127.354 101.299 127.354 101.571V107.523C127.4 107.568 127.491 107.568 127.537 107.568C127.537 107.523 127.582 107.477 127.582 107.432V101.435C127.582 101.208 127.354 100.845 127.08 100.708Z" fill="#07527E"/>
<path opacity="0.3" d="M131.283 93.6214V112.02L131.146 111.929V93.5305L131.283 93.6214ZM140.559 98.9365L140.377 98.8457L141.884 108.885V120.606L142.022 120.742V108.885L140.559 98.9365Z" fill="#075380"/>
<path d="M154.13 110.157C153.673 110.43 153.308 110.975 153.308 111.429C153.308 111.884 153.673 112.02 154.13 111.747C154.587 111.475 154.953 110.93 154.953 110.475C154.953 110.066 154.587 109.93 154.13 110.157ZM154.13 111.611C153.765 111.838 153.491 111.702 153.491 111.338C153.491 110.975 153.765 110.521 154.13 110.339C154.496 110.157 154.77 110.248 154.77 110.612C154.77 110.975 154.496 111.429 154.13 111.611Z" fill="url(#paint5_linear_207_14434)"/>
<path d="M120.454 116.745L115.473 113.883V107.977L120.454 110.839V116.745Z" fill="#B5B0A4"/>
<path d="M121.048 116.381L120.454 116.744V110.839L121.048 110.475V116.381Z" fill="#D8D3CC"/>
<path d="M120.089 109.93V107.977L117.758 106.659L115.473 107.977L120.454 110.839L121.048 110.475L120.089 109.93Z" fill="#E8E4DF"/>
<path d="M119.677 115.7L117.164 114.246C117.027 114.155 116.89 113.973 116.89 113.792V113.11C116.89 112.974 117.027 112.883 117.164 112.974L119.677 114.428C119.814 114.519 119.951 114.7 119.951 114.882V115.563C119.951 115.745 119.814 115.791 119.677 115.7Z" fill="#2E2E2F"/>
<path d="M138.275 122.786L137.681 122.423C137.544 122.332 137.406 122.15 137.406 121.969C137.406 121.832 137.544 121.742 137.681 121.832L138.275 122.196C138.412 122.287 138.549 122.468 138.549 122.65C138.549 122.832 138.412 122.877 138.275 122.786Z" fill="#C36F00"/>
<path opacity="0.5" d="M143.21 89.4873C143.21 89.4419 143.164 89.351 143.072 89.3056L130.37 82.0371C130.187 81.9462 129.913 81.9462 129.73 82.0371C129.684 82.0825 129.639 82.0825 129.639 82.1279C129.639 82.0371 129.684 81.9916 129.776 81.9462C129.958 81.8553 130.233 81.8553 130.415 81.9462L143.118 89.2148C143.255 89.3056 143.301 89.3965 143.21 89.4873ZM140.514 90.7593L127.811 83.4908C127.628 83.3999 127.354 83.3999 127.171 83.4908C127.08 83.5362 127.034 83.6271 127.034 83.6725C127.034 83.6271 127.08 83.5816 127.125 83.5816C127.308 83.4908 127.582 83.4908 127.765 83.5816L140.468 90.8502C140.559 90.8956 140.605 90.941 140.605 91.0319C140.651 90.941 140.605 90.8048 140.514 90.7593ZM145.768 87.7156L133.066 80.4471C132.883 80.3562 132.609 80.3562 132.426 80.4471C132.334 80.4925 132.289 80.5833 132.289 80.6288C132.289 80.5833 132.334 80.5379 132.38 80.5379C132.563 80.4471 132.837 80.4471 133.02 80.5379L145.723 87.8065C145.814 87.8519 145.86 87.8973 145.86 87.9882C145.905 87.8973 145.86 87.8065 145.768 87.7156ZM142.935 74.4959C143.118 74.4051 143.392 74.4051 143.575 74.4959L156.278 81.7645C156.369 81.8099 156.415 81.8553 156.415 81.9462C156.461 81.8553 156.415 81.7645 156.324 81.6736L143.621 74.4051C143.438 74.3142 143.164 74.3142 142.981 74.4051C142.89 74.4505 142.844 74.5413 142.844 74.5868C142.844 74.5413 142.89 74.4959 142.935 74.4959ZM153.673 83.1728L140.971 75.9042C140.788 75.8133 140.514 75.8133 140.331 75.9042C140.239 75.9496 140.194 76.0405 140.194 76.0859C140.194 76.0405 140.239 75.9951 140.285 75.9951C140.468 75.9042 140.742 75.9042 140.925 75.9951L153.628 83.2636C153.719 83.3091 153.765 83.3545 153.765 83.4453C153.811 83.3545 153.765 83.2636 153.673 83.1728ZM148.373 86.2165L135.67 78.9479C135.487 78.8571 135.213 78.8571 135.03 78.9479C134.939 78.9933 134.893 79.0842 134.893 79.1296C134.893 79.0842 134.939 79.0388 134.985 79.0388C135.167 78.9479 135.442 78.9479 135.624 79.0388L148.327 86.3073C148.419 86.3528 148.464 86.3982 148.464 86.4891C148.556 86.3982 148.51 86.3073 148.373 86.2165ZM151.023 84.7173L138.32 77.4488C138.138 77.3579 137.863 77.3579 137.681 77.4488C137.589 77.4942 137.544 77.5851 137.544 77.6305C137.544 77.5851 137.589 77.5396 137.635 77.5396C137.818 77.4488 138.092 77.4488 138.275 77.5396L150.978 84.8082C151.069 84.8536 151.115 84.8991 151.115 84.9899C151.16 84.8536 151.16 84.7628 151.023 84.7173Z" fill="#07527E"/>
<path d="M139.006 103.434C138.96 103.434 138.869 103.388 138.823 103.343C138.777 103.252 138.777 103.116 138.914 103.07L140.377 102.207C140.468 102.162 140.605 102.162 140.651 102.298C140.696 102.389 140.696 102.525 140.559 102.571L139.097 103.434C139.097 103.434 139.051 103.434 139.006 103.434Z" fill="#262626"/>
<path d="M139.508 101.708C139.417 101.662 139.234 101.662 139.097 101.753L138.503 102.071C138.183 102.253 137.909 102.707 137.909 103.116V107.341C137.909 107.522 137.955 107.659 138.092 107.75L138.412 107.931L139.874 101.889L139.508 101.708Z" fill="#075684"/>
<path d="M139.417 101.935C139.737 101.753 140.011 101.889 140.011 102.298V106.523C140.011 106.886 139.737 107.386 139.417 107.568L138.823 107.886C138.503 108.068 138.229 107.931 138.229 107.522V103.298C138.229 102.934 138.503 102.434 138.823 102.253L139.417 101.935Z" fill="#0F6EA1"/>
<path d="M132.654 104.57L134.117 105.387C134.254 105.478 134.391 105.433 134.391 105.297V105.115C134.391 104.979 134.254 104.797 134.117 104.706L132.654 103.888C132.517 103.797 132.38 103.843 132.38 103.979V104.161C132.38 104.297 132.517 104.479 132.654 104.57Z" fill="#2E2E2F"/>
<path d="M28.4268 34.9731L27.4215 34.428C26.9646 34.1554 26.5533 34.0646 26.3249 34.1554C26.0964 34.2463 25.9136 34.5643 25.9136 35.0186V37.8806C25.9136 38.3348 26.0507 38.7891 26.3249 39.198C26.599 39.6068 26.9646 39.9248 27.4215 40.1974L28.4268 40.7426C28.8837 41.0151 29.2493 41.106 29.5234 40.9697C29.7976 40.8788 29.9347 40.5608 29.9347 40.1066V39.6977C29.9347 39.5614 29.889 39.4706 29.7519 39.3797L28.9751 38.9254C28.838 38.8346 28.7923 38.88 28.7923 39.0163V39.3797C28.7923 39.5614 28.7467 39.6977 28.6553 39.6977C28.5639 39.7431 28.4268 39.6977 28.244 39.5614L27.65 39.198C27.4672 39.1071 27.3301 38.9708 27.2388 38.8346C27.1474 38.6983 27.1017 38.562 27.1017 38.3348V35.6091C27.1017 35.4274 27.1474 35.2911 27.2388 35.2911C27.3301 35.2457 27.4672 35.2911 27.65 35.382L28.244 35.7454C28.4268 35.8363 28.5639 35.9726 28.6553 36.1088C28.7467 36.2451 28.7923 36.3814 28.7923 36.6086V36.972C28.7923 37.1083 28.838 37.1991 28.9751 37.29L29.7519 37.7443C29.889 37.8351 29.9347 37.7897 29.9347 37.6534V37.2446C29.9347 36.7903 29.7976 36.336 29.5234 35.9271C29.2493 35.5637 28.8837 35.2457 28.4268 34.9731Z" fill="#3F3B34"/>
<path d="M33.2246 37.6989L32.0366 37.0174C31.8995 36.9266 31.8081 36.9266 31.7624 37.0629L30.3459 41.6511C30.3002 41.742 30.3459 41.8328 30.4373 41.9237L31.3055 42.4234C31.3512 42.4689 31.3969 42.4688 31.4426 42.4688C31.4883 42.4688 31.4883 42.4234 31.4883 42.3326L31.7624 41.4694L33.5445 42.4688L33.8187 43.6046C33.8187 43.6954 33.8644 43.7409 33.8644 43.7863C33.91 43.8317 33.9557 43.8771 34.0014 43.9226L34.8696 44.4223C34.961 44.4677 35.0067 44.4223 34.961 44.286L33.5445 38.0623C33.4531 37.926 33.3617 37.7897 33.2246 37.6989ZM31.9452 40.6517L32.5849 38.4257C32.6306 38.4257 33.2703 41.424 33.2703 41.424L31.9452 40.6517Z" fill="#3F3B34"/>
<path d="M38.5251 44.3313C39.0734 44.3768 39.3476 44.1042 39.3476 43.4228V42.7413C39.3476 42.2871 39.2105 41.8328 38.9364 41.4239C38.6622 41.015 38.2966 40.6516 37.8397 40.4245L35.6921 39.1979C35.555 39.107 35.5093 39.1525 35.5093 39.2888V44.6948C35.5093 44.8311 35.555 44.9219 35.6921 45.0128L36.4689 45.4671C36.606 45.5579 36.6517 45.5125 36.6517 45.3762V43.4228C36.6517 43.3773 36.6974 43.3319 36.7431 43.3773L37.3371 43.7408L38.251 46.1939C38.2966 46.2848 38.3423 46.3756 38.388 46.4211C38.4337 46.4665 38.5251 46.5119 38.6165 46.6028L39.3476 47.0116C39.4847 47.1025 39.5761 47.0571 39.4847 46.8753L38.5251 44.3313ZM38.2053 42.7868C38.2053 42.9685 38.1596 43.0593 38.0682 43.1048C37.9768 43.1502 37.8397 43.1048 37.6569 42.9685L36.7887 42.4688C36.7431 42.4233 36.6974 42.3779 36.6974 42.3325V40.7879C36.6974 40.7425 36.7431 40.697 36.7887 40.7425L37.6569 41.2422C37.8397 41.333 37.9768 41.4693 38.0682 41.6056C38.1596 41.7419 38.2053 41.9236 38.2053 42.1053V42.7868Z" fill="#3F3B34"/>
<path d="M42.5919 43.105L41.6323 42.5598C41.1753 42.2872 40.7641 42.1964 40.5356 42.2872C40.2615 42.3781 40.1244 42.6961 40.1244 43.1504V46.0124C40.1244 46.4667 40.2615 46.921 40.5356 47.3298C40.8098 47.7387 41.1753 48.0567 41.6323 48.3292L42.5919 48.8744C43.0488 49.147 43.4143 49.2378 43.6885 49.1015C43.9627 49.0107 44.0997 48.6927 44.0997 48.2384V46.7392C44.0997 46.603 44.0084 46.5121 43.8713 46.4212L42.272 45.5127C42.1349 45.4218 42.0892 45.4672 42.0892 45.6035V46.1941C42.0892 46.3304 42.1349 46.4212 42.272 46.5121L42.8203 46.8301C42.866 46.8755 42.9117 46.921 42.9117 46.9664V47.5115C42.9117 47.6932 42.866 47.8295 42.7746 47.875C42.6832 47.9204 42.5462 47.875 42.3634 47.7841L41.7694 47.4661C41.5866 47.3752 41.4495 47.239 41.3581 47.1027C41.2667 46.9664 41.221 46.8301 41.221 46.603V43.8772C41.221 43.6955 41.2667 43.5592 41.3581 43.5592C41.4495 43.5138 41.5866 43.5592 41.7694 43.6501L42.3634 43.9681C42.5462 44.059 42.6832 44.1952 42.7746 44.3315C42.866 44.4678 42.9117 44.6041 42.9117 44.8312V45.0584C42.9117 45.1947 42.9574 45.2855 43.0945 45.3764L43.8713 45.8307C44.0084 45.9215 44.0541 45.8761 44.0541 45.7398V45.4672C44.0541 45.013 43.917 44.5587 43.6428 44.1498C43.4143 43.6955 43.0488 43.3321 42.5919 43.105Z" fill="#3F3B34"/>
<path d="M48.4407 46.83C48.1665 46.4211 47.801 46.1031 47.344 45.8306L46.3388 45.24C45.8818 44.9674 45.4706 44.8766 45.2421 44.9674C44.968 45.0583 44.8309 45.3763 44.8309 45.8306V48.6926C44.8309 49.1468 44.968 49.6011 45.2421 50.01C45.5163 50.4188 45.8818 50.7368 46.3388 51.0094L47.344 51.6C47.801 51.8726 48.1665 51.9634 48.4407 51.8726C48.7148 51.7817 48.8519 51.4637 48.8519 51.0094V48.1474C48.8519 47.6477 48.7148 47.2388 48.4407 46.83ZM47.7096 50.2826C47.7096 50.4643 47.6639 50.6006 47.5725 50.6006C47.4811 50.646 47.344 50.6006 47.1613 50.4643L46.5215 50.1008C46.3388 50.01 46.2017 49.8737 46.1103 49.7374C46.0189 49.6011 45.9732 49.4648 45.9732 49.2377V46.512C45.9732 46.3303 46.0189 46.194 46.1103 46.1486C46.2017 46.1031 46.3388 46.1486 46.5215 46.2394L47.1613 46.6028C47.344 46.6937 47.4811 46.83 47.5725 46.9663C47.6639 47.1026 47.7096 47.2388 47.7096 47.466V50.2826Z" fill="#3F3B34"/>
<path d="M48.8519 53.3718L25.9593 40.2429V46.9663L48.8519 53.3718Z" fill="#C07E1D"/>
</g>
<defs>
<linearGradient id="paint0_linear_207_14434" x1="105.538" y1="89.2273" x2="101.81" y2="89.2273" gradientUnits="userSpaceOnUse">
<stop offset="0.5566" stop-color="#B12F20"/>
<stop offset="0.5714" stop-color="#CD4636"/>
</linearGradient>
<linearGradient id="paint1_linear_207_14434" x1="141.31" y1="99.8386" x2="142.125" y2="99.7124" gradientUnits="userSpaceOnUse">
<stop offset="0.5222" stop-color="#111214"/>
<stop offset="0.5516" stop-color="#1B1E20"/>
<stop offset="0.601" stop-color="#292D2F"/>
</linearGradient>
<linearGradient id="paint2_linear_207_14434" x1="135.272" y1="105.668" x2="152.161" y2="104.361" gradientUnits="userSpaceOnUse">
<stop stop-color="#07527E"/>
<stop offset="1" stop-color="#0F6EA1"/>
</linearGradient>
<linearGradient id="paint3_linear_207_14434" x1="151.007" y1="116.353" x2="157.831" y2="120.316" gradientUnits="userSpaceOnUse">
<stop offset="0.5862" stop-color="#979797"/>
<stop offset="0.5876" stop-color="#9F9F9F"/>
<stop offset="0.5911" stop-color="#AEAEAE"/>
</linearGradient>
<linearGradient id="paint4_linear_207_14434" x1="148.968" y1="108.061" x2="159.169" y2="113.984" gradientUnits="userSpaceOnUse">
<stop offset="0.5862" stop-color="#979797"/>
<stop offset="0.5876" stop-color="#9F9F9F"/>
<stop offset="0.5911" stop-color="#AEAEAE"/>
</linearGradient>
<linearGradient id="paint5_linear_207_14434" x1="153.442" y1="110.975" x2="154.62" y2="111.488" gradientUnits="userSpaceOnUse">
<stop offset="0.5862" stop-color="#979797"/>
<stop offset="0.5876" stop-color="#9F9F9F"/>
<stop offset="0.5911" stop-color="#AEAEAE"/>
</linearGradient>
<clipPath id="clip0_207_14434">
<rect width="190" height="135" fill="white"/>
</clipPath>
</defs>
</svg>
