<svg width="63" height="63" viewBox="0 0 63 63" fill="none" xmlns="http://www.w3.org/2000/svg">
<g clip-path="url(#clip0_18_2664)">
<path d="M7.35 28.3501H5.25V36.7501H7.35V28.3501Z" fill="#F96B30"/>
<path d="M12.6 28.3501H10.5V36.7501H12.6V28.3501Z" fill="#F96B30"/>
<path d="M17.85 28.3501H15.75V36.7501H17.85V28.3501Z" fill="#F96B30"/>
<path d="M23.1 28.3501H21V36.7501H23.1V28.3501Z" fill="#F96B30"/>
<path d="M28.35 28.3501H26.25V36.7501H28.35V28.3501Z" fill="#F96B30"/>
<path d="M32.5505 46.2002C32.5504 46.2002 32.5501 46.2002 32.55 46.2002H1.05C0.470269 46.2001 0.000131277 46.6699 2.74898e-08 47.2497C2.74898e-08 47.2498 2.74898e-08 47.2501 2.74898e-08 47.2502V61.9502C-0.000131223 62.5299 0.469744 63.0001 1.04948 63.0002C1.04961 63.0002 1.04987 63.0002 1.05 63.0002H32.55C33.1297 63.0003 33.5999 62.5305 33.6 61.9507C33.6 61.9506 33.6 61.9503 33.6 61.9502V47.2502C33.6001 46.6705 33.1303 46.2003 32.5505 46.2002ZM31.5 60.9002H2.1V48.3002H31.5V60.9002Z" fill="#0A7991"/>
<path d="M7.35 50.3999H5.25V58.7999H7.35V50.3999Z" fill="#F96B30"/>
<path d="M12.6 50.3999H10.5V58.7999H12.6V50.3999Z" fill="#F96B30"/>
<path d="M17.85 50.3999H15.75V58.7999H17.85V50.3999Z" fill="#F96B30"/>
<path d="M23.1 50.3999H21V58.7999H23.1V50.3999Z" fill="#F96B30"/>
<path d="M28.35 50.3999H26.25V58.7999H28.35V50.3999Z" fill="#F96B30"/>
<path d="M61.9505 27.3C61.9504 27.3 61.9501 27.3 61.95 27.3H57.75V9.68559C60.0633 7.95152 60.5328 4.67053 58.7987 2.35725C57.0646 0.0439686 53.7836 -0.425512 51.4703 1.30856C50.2521 2.2218 49.4917 3.62014 49.3877 5.13909L21 2.20251V1.05C21.0001 0.470269 20.5303 0.000131277 19.9505 2.74898e-08C19.9504 2.74898e-08 19.9501 2.74898e-08 19.95 2.74898e-08H13.65C13.0703 -0.000131223 12.6001 0.469744 12.6 1.04947C12.6 1.04961 12.6 1.04987 12.6 1.05V6.3C12.5999 6.87973 13.0697 7.34987 13.6495 7.35C13.6496 7.35 13.6499 7.35 13.65 7.35H15.75V10.5C15.7499 11.0797 16.2197 11.5499 16.7995 11.55C16.7996 11.55 16.7999 11.55 16.8 11.55H17.325C18.7748 11.55 19.95 12.7252 19.95 14.175C19.95 15.6248 18.7748 16.8 17.325 16.8C15.8752 16.8 14.7 15.6248 14.7 14.175H12.6C12.605 15.6197 13.2741 16.9818 14.4145 17.8688L1.85181 24.15H1.05C0.470269 24.1499 0.000131277 24.6197 2.74898e-08 25.1995C2.74898e-08 25.1996 2.74898e-08 25.1999 2.74898e-08 25.2V39.9C-0.000131223 40.4797 0.469744 40.9499 1.04947 40.95C1.04961 40.95 1.04987 40.95 1.05 40.95H32.55C33.1297 40.9501 33.5999 40.4803 33.6 39.9005C33.6 39.9004 33.6 39.9001 33.6 39.9V25.2C33.6001 24.6203 33.1303 24.1501 32.5505 24.15C32.5504 24.15 32.5501 24.15 32.55 24.15H30.7155L19.7161 18.2272C21.9621 16.9151 22.719 14.0309 21.4069 11.7849C20.6538 10.4959 19.3342 9.64018 17.85 9.47861V7.35H19.95C20.5297 7.35013 20.9999 6.88026 21 6.30052C21 6.30039 21 6.30013 21 6.3V4.31471L49.6785 7.28149C50.0236 8.23764 50.639 9.07292 51.45 9.68572V27.3H42C41.4203 27.2999 40.9501 27.7697 40.95 28.3495C40.95 28.3496 40.95 28.3499 40.95 28.35V43.05H38.85C38.2703 43.0499 37.8001 43.5197 37.8 44.0995C37.8 44.0996 37.8 44.0999 37.8 44.1V61.95C37.7999 62.5297 38.2697 62.9999 38.8495 63C38.8496 63 38.8499 63 38.85 63H61.95C62.5297 63.0001 62.9999 62.5303 63 61.9505C63 61.9504 63 61.9501 63 61.95V28.35C63.0001 27.7703 62.5303 27.3001 61.9505 27.3ZM31.5 26.25V38.85H2.1V26.25H31.5ZM26.2845 24.15H6.54832L16.7821 19.0333L26.2845 24.15ZM18.9 5.25H14.7V2.1H18.9V5.25ZM54.6 2.3625C56.3397 2.3625 57.75 3.77278 57.75 5.5125C57.75 7.25222 56.3397 8.6625 54.6 8.6625C52.8603 8.6625 51.45 7.25222 51.45 5.5125C51.4518 3.77357 52.8611 2.36434 54.6 2.3625ZM56.7 33.742L60.1975 36.6567L56.7 38.9882V33.742ZM60.1975 46.1067L56.7 48.4382V43.1921L60.1975 46.1067ZM60.1975 55.5567L56.7 57.8882V52.6421L60.1975 55.5567ZM54.6 60.9H39.9V45.15H54.6V60.9ZM54.6 43.05H43.05V29.4H54.6V43.05ZM55.65 27.3H53.55V10.6563C54.2429 10.7978 54.9571 10.7978 55.65 10.6563V27.3ZM60.9 60.9H56.7V60.4119L60.9 57.6119V60.9ZM60.9 53.4079L57.4024 50.4932L60.9 48.1618V53.4079ZM60.9 43.9579L57.4024 41.0432L60.9 38.7118V43.9579ZM60.9 34.5079L56.7 31.0078V29.4H60.9V34.5079Z" fill="#0A7991"/>
<path d="M54.6 3.9375C53.7302 3.9375 53.025 4.64271 53.025 5.5125C53.0259 6.3819 53.7306 7.08658 54.6 7.0875C55.4698 7.0875 56.175 6.38229 56.175 5.5125C56.175 4.64271 55.4698 3.9375 54.6 3.9375ZM54.6 6.0375C54.3101 6.0375 54.075 5.80243 54.075 5.5125C54.0754 5.2227 54.3102 4.98789 54.6 4.9875C54.8899 4.9875 55.125 5.22257 55.125 5.5125C55.125 5.80243 54.8899 6.0375 54.6 6.0375Z" fill="#F96B30"/>
</g>
<defs>
<clipPath id="clip0_18_2664">
<rect width="63" height="63" fill="white"/>
</clipPath>
</defs>
</svg>
