<svg width="61" height="61" viewBox="0 0 61 61" fill="none" xmlns="http://www.w3.org/2000/svg">
<g clip-path="url(#clip0_18_2930)">
<path d="M3.04528 54.8618H6.09055V57.9071C6.09055 59.589 7.45398 60.9524 9.13583 60.9524H45.6801C47.3624 60.9524 48.7258 59.589 48.7258 57.9071V30.4311L55.1981 24.4223L56.5786 25.9095L51.08 31.0155C50.6689 31.3972 50.6458 32.0397 51.0275 32.4507C51.4092 32.8613 52.0517 32.8844 52.4623 32.5027L57.9632 27.3986C58.3587 27.0324 58.592 26.5241 58.6119 25.9855C58.6322 25.4474 58.4376 24.9231 58.071 24.5281L56.69 23.0409L59.6645 20.2786C60.7487 19.2969 61.2216 17.8083 60.9018 16.3806C60.5819 14.9534 59.519 13.8087 58.1196 13.3835C56.7198 12.9583 55.2 13.3188 54.1404 14.3269L50.4209 17.7785L48.7258 19.3498V9.18124C48.7258 7.4994 47.3624 6.13597 45.6801 6.13597H42.6348V3.09069C42.6348 1.40884 41.2714 0.0454102 39.5895 0.0454102H11.1663C11.1451 0.0454102 11.1257 0.0567485 11.1035 0.0576933C11.0137 0.0633625 10.9254 0.0813148 10.8404 0.110133C10.8078 0.121471 10.7775 0.129502 10.7459 0.143675C10.6358 0.19328 10.5347 0.261783 10.4487 0.34682L0.29763 10.4979C0.212593 10.5844 0.143618 10.685 0.0944858 10.7955C0.0803128 10.8258 0.0722816 10.8584 0.0609433 10.89C0.0316528 10.9746 0.0141729 11.0634 0.00803128 11.1527C0.0113383 11.1711 0 11.1905 0 11.2117V51.8166C0 53.4984 1.36343 54.8618 3.04528 54.8618ZM46.6953 57.9071C46.6953 58.4679 46.2409 58.9224 45.6801 58.9224H9.13583C8.57553 58.9224 8.12105 58.4679 8.12105 57.9071V54.8618H39.5895C41.2714 54.8618 42.6348 53.4984 42.6348 51.8166V36.0823L46.6953 32.3128V57.9071ZM27.8143 45.6547C26.7409 46.5395 25.5178 47.225 24.2025 47.6776C24.7307 46.3869 25.4989 45.2073 26.4659 44.2019L26.524 44.2638L27.8143 45.6547ZM29.3997 44.3786L28.6892 43.6133L27.8558 42.7157L31.8034 38.0108L34.382 40.7901L29.3997 44.3786ZM35.9618 39.506L34.2837 37.7065L33.1995 36.5377L51.0544 19.9578L52.7335 21.7691L53.8177 22.9374L40.9308 34.8974C40.9166 34.9107 40.902 34.923 40.8887 34.9371L35.9618 39.506ZM55.518 15.8141C55.9101 15.4438 56.4354 15.2482 56.9745 15.2723C57.7951 15.303 58.516 15.825 58.8018 16.5946C59.0872 17.3642 58.8816 18.2297 58.2798 18.7886L55.3044 21.5518L53.6268 19.7429L52.5426 18.5755L55.518 15.8141ZM45.6801 8.16647C46.2409 8.16647 46.6953 8.62094 46.6953 9.18124V21.2348L42.6348 25.0043V8.16647H45.6801ZM40.6048 3.09069V26.8893L31.074 35.737C31.0598 35.7544 31.0471 35.7729 31.0353 35.7918C31.0211 35.8059 31.0008 35.813 30.9876 35.8281L29.4975 37.6049H7.1058C6.54503 37.6049 6.09055 38.0594 6.09055 38.6197C6.09055 39.1805 6.54503 39.635 7.1058 39.635H27.793L25.7686 42.0467L25.6326 42.1738C24.2455 43.4508 23.1452 45.0079 22.4045 46.7417H13.1964C12.6361 46.7417 12.1816 47.1962 12.1816 47.757C12.1816 48.3177 12.6361 48.7722 13.1964 48.7722H22.4706C22.5282 48.8799 22.5963 48.982 22.6738 49.0765C23.0493 49.478 23.5756 49.7038 24.1255 49.6987C24.3509 49.6991 24.5748 49.6646 24.7902 49.5976C26.6492 48.9895 28.3514 47.9795 29.7753 46.6392L29.9114 46.5145L36.5017 41.7666C36.5178 41.7548 36.5249 41.7354 36.54 41.7231C36.5556 41.7108 36.583 41.7018 36.6 41.6853L40.6048 37.9701V51.8166C40.6048 52.3769 40.1503 52.8313 39.5895 52.8313H3.04528C2.4845 52.8313 2.03003 52.3769 2.03003 51.8166V12.227H9.13583C10.8181 12.227 12.1816 10.8636 12.1816 9.18124V2.07544H39.5895C40.1503 2.07544 40.6048 2.52991 40.6048 3.09069ZM10.1511 3.51115V9.18124C10.1511 9.74202 9.6966 10.1965 9.13583 10.1965H3.46574L10.1511 3.51115Z" fill="#0A7991"/>
<path fill-rule="evenodd" clip-rule="evenodd" d="M7.1058 48.7712H9.13582C9.6966 48.7712 10.1511 48.3167 10.1511 47.756C10.1511 47.1952 9.6966 46.7407 9.13582 46.7407H7.1058C6.54502 46.7407 6.09055 47.1952 6.09055 47.756C6.09055 48.3167 6.54502 48.7712 7.1058 48.7712Z" fill="#F96B30"/>
<path fill-rule="evenodd" clip-rule="evenodd" d="M6.09055 18.3175C6.09055 18.8783 6.54502 19.3327 7.1058 19.3327H35.529C36.0898 19.3327 36.5443 18.8783 36.5443 18.3175C36.5443 17.7567 36.0898 17.3022 35.529 17.3022H7.1058C6.54502 17.3022 6.09055 17.7567 6.09055 18.3175Z" fill="#F96B30"/>
<path fill-rule="evenodd" clip-rule="evenodd" d="M35.529 22.3784H30.4537C29.893 22.3784 29.4385 22.8329 29.4385 23.3937C29.4385 23.954 29.893 24.4084 30.4537 24.4084H35.529C36.0898 24.4084 36.5443 23.954 36.5443 23.3937C36.5443 22.8329 36.0898 22.3784 35.529 22.3784Z" fill="#F96B30"/>
<path fill-rule="evenodd" clip-rule="evenodd" d="M7.1058 24.4084H25.3779C25.9387 24.4084 26.3932 23.954 26.3932 23.3937C26.3932 22.8329 25.9387 22.3784 25.3779 22.3784H7.1058C6.54502 22.3784 6.09055 22.8329 6.09055 23.3937C6.09055 23.954 6.54502 24.4084 7.1058 24.4084Z" fill="#0A7991"/>
<path fill-rule="evenodd" clip-rule="evenodd" d="M12.1816 27.4536H7.1058C6.54502 27.4536 6.09055 27.9081 6.09055 28.4689C6.09055 29.0296 6.54502 29.4841 7.1058 29.4841H12.1816C12.7419 29.4841 13.1964 29.0296 13.1964 28.4689C13.1964 27.9081 12.7419 27.4536 12.1816 27.4536Z" fill="#F96B30"/>
<path fill-rule="evenodd" clip-rule="evenodd" d="M34.5143 27.4536H17.2569C16.6966 27.4536 16.2421 27.9081 16.2421 28.4689C16.2421 29.0296 16.6966 29.4841 17.2569 29.4841H34.5143C35.0746 29.4841 35.529 29.0296 35.529 28.4689C35.529 27.9081 35.0746 27.4536 34.5143 27.4536Z" fill="#0A7991"/>
<path fill-rule="evenodd" clip-rule="evenodd" d="M10.1511 32.5293H7.1058C6.54502 32.5293 6.09055 32.9838 6.09055 33.5446C6.09055 34.1049 6.54502 34.5593 7.1058 34.5593H10.1511C10.7118 34.5593 11.1663 34.1049 11.1663 33.5446C11.1663 32.9838 10.7118 32.5293 10.1511 32.5293Z" fill="#0A7991"/>
<path fill-rule="evenodd" clip-rule="evenodd" d="M28.4232 32.5293H15.2269C14.6661 32.5293 14.2116 32.9838 14.2116 33.5446C14.2116 34.1049 14.6661 34.5593 15.2269 34.5593H28.4232C28.984 34.5593 29.4385 34.1049 29.4385 33.5446C29.4385 32.9838 28.984 32.5293 28.4232 32.5293Z" fill="#F96B30"/>
<path fill-rule="evenodd" clip-rule="evenodd" d="M19.2874 9.18139H27.4079C27.9687 9.18139 28.4232 8.72692 28.4232 8.16662C28.4232 7.60584 27.9687 7.15137 27.4079 7.15137H19.2874C18.7266 7.15137 18.2721 7.60584 18.2721 8.16662C18.2721 8.72692 18.7266 9.18139 19.2874 9.18139Z" fill="#0A7991"/>
</g>
<defs>
<clipPath id="clip0_18_2930">
<rect width="61" height="61" fill="white"/>
</clipPath>
</defs>
</svg>
