<svg width="171" height="83" viewBox="0 0 171 83" fill="none" xmlns="http://www.w3.org/2000/svg">
<path d="M24.5333 27.3335H22.4V29.4668H24.5333V27.3335Z" fill="#0A7991"/>
<path d="M24.5333 31.6001H22.4V33.7334H24.5333V31.6001Z" fill="#0A7991"/>
<path d="M24.5333 35.8667H22.4V38H24.5333V35.8667Z" fill="#0A7991"/>
<path d="M24.5333 40.1333H22.4V42.2666H24.5333V40.1333Z" fill="#0A7991"/>
<path d="M28.8 27.3335H26.6667V29.4668H28.8V27.3335Z" fill="#0A7991"/>
<path d="M28.8 31.6001H26.6667V33.7334H28.8V31.6001Z" fill="#0A7991"/>
<path d="M28.8 35.8667H26.6667V38H28.8V35.8667Z" fill="#0A7991"/>
<path d="M28.8 40.1333H26.6667V42.2666H28.8V40.1333Z" fill="#0A7991"/>
<path d="M33.0667 27.3335H30.9333V29.4668H33.0667V27.3335Z" fill="#0A7991"/>
<path d="M33.0667 31.6001H30.9333V33.7334H33.0667V31.6001Z" fill="#0A7991"/>
<path d="M33.0667 35.8667H30.9333V38H33.0667V35.8667Z" fill="#0A7991"/>
<path d="M33.0667 40.1333H30.9333V42.2666H33.0667V40.1333Z" fill="#0A7991"/>
<path d="M37.3333 27.3335H35.2V29.4668H37.3333V27.3335Z" fill="#0A7991"/>
<path d="M28.8 23.0669H26.6667V25.2002H28.8V23.0669Z" fill="#0A7991"/>
<path d="M33.0667 23.0669H30.9333V25.2002H33.0667V23.0669Z" fill="#0A7991"/>
<path d="M37.3333 23.0669H35.2V25.2002H37.3333V23.0669Z" fill="#0A7991"/>
<path d="M37.3333 31.6001H35.2V33.7334H37.3333V31.6001Z" fill="#0A7991"/>
<path d="M37.3333 35.8667H35.2V38H37.3333V35.8667Z" fill="#0A7991"/>
<path d="M37.3333 40.1333H35.2V42.2666H37.3333V40.1333Z" fill="#0A7991"/>
<path d="M41.6 27.3335H39.4667V29.4668H41.6V27.3335Z" fill="#0A7991"/>
<path d="M41.6 31.6001H39.4667V33.7334H41.6V31.6001Z" fill="#0A7991"/>
<path d="M41.6 35.8667H39.4667V38H41.6V35.8667Z" fill="#0A7991"/>
<path d="M41.6 40.1333H39.4667V42.2666H41.6V40.1333Z" fill="#0A7991"/>
<path d="M62.9345 22C62.9341 22 62.9337 22 62.9333 22H46.9333V7.06667C46.9337 6.47787 46.4567 6.0004 45.8679 6C45.8675 6 45.8671 6 45.8667 6H18.1333C17.5445 5.9996 17.0671 6.47667 17.0667 7.06547C17.0667 7.06587 17.0667 7.06627 17.0667 7.06667V22H1.06667C0.477867 21.9996 0.000400251 22.4767 2.51353e-07 23.0655C2.51353e-07 23.0659 2.51353e-07 23.0663 2.51353e-07 23.0667V61.4667C-0.000399749 62.0555 0.476667 62.5329 1.06547 62.5333C1.06587 62.5333 1.06627 62.5333 1.06667 62.5333H3.2964C3.23453 62.8856 3.20227 63.2424 3.2 63.6V68.9333C3.1996 69.5221 3.67667 69.9996 4.26547 70C4.26587 70 4.26627 70 4.26667 70H59.7333C60.3221 70.0004 60.7996 69.5233 60.8 68.9345C60.8 68.9341 60.8 68.9337 60.8 68.9333V63.6C60.7979 63.2424 60.7656 62.8856 60.7036 62.5333H62.9333C63.5221 62.5337 63.9996 62.0567 64 61.4679C64 61.4675 64 61.4671 64 61.4667V23.0667C64.0004 22.4779 63.5233 22.0004 62.9345 22ZM45.8667 51.8667C45.8667 53.0449 44.9116 54 43.7333 54C42.5551 54 41.6 53.0449 41.6 51.8667C41.6 50.6884 42.5551 49.7333 43.7333 49.7333C44.9109 49.7348 45.8652 50.6891 45.8667 51.8667ZM20.2667 49.7333C21.4449 49.7333 22.4 50.6884 22.4 51.8667C22.4 53.0449 21.4449 54 20.2667 54C19.0884 54 18.1333 53.0449 18.1333 51.8667C18.1348 50.6891 19.0891 49.7348 20.2667 49.7333ZM13.8667 67.8667H5.33333V63.6C5.33333 61.2436 7.2436 59.3333 9.6 59.3333C11.9564 59.3333 13.8667 61.2436 13.8667 63.6V67.8667ZM7.46667 55.0667C7.46667 53.8884 8.42173 52.9333 9.6 52.9333C10.7783 52.9333 11.7333 53.8884 11.7333 55.0667C11.7333 56.2449 10.7783 57.2 9.6 57.2C8.4224 57.1985 7.46813 56.2443 7.46667 55.0667ZM14.0283 58.99C13.626 58.602 13.1749 58.2681 12.6864 57.9968C14.3133 56.2923 14.2505 53.5915 12.546 51.9644C10.8415 50.3373 8.14067 50.4003 6.5136 52.1048C4.93987 53.7535 4.93987 56.348 6.5136 57.9967C5.49547 58.5617 4.6496 59.3923 4.06587 60.3999H2.13333V24.1333H17.0667V49.0741C15.6019 50.7177 15.6513 53.2127 17.1803 54.7968C15.5803 55.6817 14.4337 57.2071 14.0283 58.99ZM24.5333 67.8667H16V60.4C16 58.0436 17.9103 56.1333 20.2667 56.1333C22.6231 56.1333 24.5333 58.0436 24.5333 60.4V67.8667ZM37.3333 67.8667H26.6667V60.4C26.6667 57.4545 29.0545 55.0667 32 55.0667C34.9455 55.0667 37.3333 57.4545 37.3333 60.4V67.8667ZM28.8 49.7333C28.8 47.966 30.2327 46.5333 32 46.5333C33.7673 46.5333 35.2 47.966 35.2 49.7333C35.2 51.5007 33.7673 52.9333 32 52.9333C30.2335 52.9315 28.8019 51.4999 28.8 49.7333ZM38.4963 56.7327C37.782 55.4735 36.7193 54.4475 35.4359 53.778C37.6888 51.8804 37.9768 48.5157 36.0793 46.2628C34.1817 44.0099 30.8171 43.7219 28.5641 45.6193C26.3112 47.5169 26.0232 50.8816 27.9207 53.1345C28.1164 53.3669 28.3316 53.5821 28.5641 53.778C27.2807 54.4475 26.218 55.4735 25.5037 56.7327C24.9429 55.9327 24.2075 55.2707 23.3531 54.7968C24.9884 53.1239 24.958 50.4419 23.2849 48.8065C22.2077 47.7535 20.6524 47.3519 19.2 47.7515V8.13333H44.8V47.7515C44.4524 47.6556 44.0939 47.6047 43.7333 47.6C41.3832 47.5937 39.4729 49.4939 39.4667 51.8441C39.4637 52.9439 39.8868 54.0021 40.6469 54.7968C39.7925 55.2707 39.0571 55.9327 38.4963 56.7327ZM48 63.6V67.8667H39.4667V60.4C39.4667 58.0436 41.3769 56.1333 43.7333 56.1333C46.0897 56.1333 48 58.0436 48 60.4V63.6ZM58.6667 67.8667H50.1333V63.6C50.1333 61.2436 52.0436 59.3333 54.4 59.3333C56.7564 59.3333 58.6667 61.2436 58.6667 63.6V67.8667ZM52.2667 55.0667C52.2667 53.8884 53.2217 52.9333 54.4 52.9333C55.5783 52.9333 56.5333 53.8884 56.5333 55.0667C56.5333 56.2449 55.5783 57.2 54.4 57.2C53.2224 57.1985 52.2681 56.2443 52.2667 55.0667ZM61.8667 60.4H59.9341C59.3504 59.3924 58.5045 58.5619 57.4864 57.9968C59.1133 56.2923 59.0505 53.5915 57.346 51.9644C55.6415 50.3375 52.9407 50.4003 51.3136 52.1048C49.7399 53.7535 49.7399 56.348 51.3136 57.9967C50.8251 58.268 50.3739 58.6019 49.9717 58.9899C49.5664 57.2069 48.4197 55.6816 46.8197 54.7967C48.3487 53.2125 48.3983 50.7176 46.9335 49.074V24.1333H61.8668V60.4H61.8667Z" fill="#0A7991"/>
<path d="M52.2667 30.5332H50.1333V47.5999H52.2667V30.5332Z" fill="#F96B30"/>
<path d="M58.6667 30.5332H56.5333V47.5999H58.6667V30.5332Z" fill="#F96B30"/>
<path d="M7.46668 30.5332H5.33334V47.5999H7.46668V30.5332Z" fill="#F96B30"/>
<path d="M13.8667 30.5332H11.7333V47.5999H13.8667V30.5332Z" fill="#F96B30"/>
<path d="M38.4012 10.2666C38.4008 10.2666 38.4004 10.2666 38.4 10.2666H25.6C25.0112 10.2662 24.5337 10.7433 24.5333 11.3321C24.5333 11.3325 24.5333 11.3329 24.5333 11.3333V19.8666C24.5329 20.4554 25.01 20.9329 25.5988 20.9333C25.5992 20.9333 25.5996 20.9333 25.6 20.9333H38.4C38.9888 20.9337 39.4663 20.4566 39.4667 19.8678C39.4667 19.8674 39.4667 19.867 39.4667 19.8666V11.3333C39.4671 10.7445 38.99 10.267 38.4012 10.2666ZM37.3333 18.7999H26.6667V12.3999H37.3333V18.7999Z" fill="#F96B30"/>
<path d="M125.196 17.2097L101.034 59.0566C100.597 59.8122 100.367 60.6695 100.367 61.5422C100.367 62.4149 100.597 63.2722 101.033 64.028C101.469 64.7837 102.097 65.4113 102.853 65.8477C103.609 66.284 104.466 66.5137 105.339 66.5136H153.659C154.532 66.5137 155.389 66.284 156.145 65.8477C156.9 65.4113 157.528 64.7837 157.964 64.028C158.401 63.2722 158.63 62.4149 158.63 61.5422C158.63 60.6695 158.4 59.8122 157.964 59.0566L133.804 17.2097C133.368 16.4541 132.741 15.8267 131.985 15.3905C131.23 14.9543 130.372 14.7246 129.5 14.7246C128.628 14.7246 127.77 14.9543 127.015 15.3905C126.259 15.8267 125.632 16.4541 125.196 17.2097Z" fill="#EE404C"/>
<path d="M129.815 30.1162H129.185C127.633 30.1162 126.375 31.3741 126.375 32.9259V46.3557C126.375 47.9074 127.633 49.1654 129.185 49.1654H129.815C131.367 49.1654 132.625 47.9074 132.625 46.3557V32.9259C132.625 31.3741 131.367 30.1162 129.815 30.1162Z" fill="#FFF7ED"/>
<path d="M129.5 59.8165C131.226 59.8165 132.625 58.4175 132.625 56.6917C132.625 54.9659 131.226 53.5669 129.5 53.5669C127.774 53.5669 126.375 54.9659 126.375 56.6917C126.375 58.4175 127.774 59.8165 129.5 59.8165Z" fill="#FFF7ED"/>
</svg>
