<svg width="970" height="800" viewBox="0 0 970 800" fill="none" xmlns="http://www.w3.org/2000/svg">
<g clip-path="url(#clip0_225_27008)">
<mask id="mask0_225_27008" style="mask-type:alpha" maskUnits="userSpaceOnUse" x="-269" y="-333" width="1217" height="1495">
<g opacity="0.05">
<path d="M666.361 3.8489L667.411 14.9508L655.328 18.3952L653.72 42.0443H668.193L687.445 39.4918L697.384 23.2234L686.82 17.5648L681.035 8.40039L672.347 -10.9741L668.193 -38.3751L651.866 -33.7929L647.288 -24.1364V-13.2498L655.149 -5.83832L666.361 3.8489Z" fill="#016F9D"/>
<path d="M652.42 12.9503L653.291 -1.8727L643.709 -7.56201L630.308 -3.28733L620.37 18.6704V32.9091H631.961L652.42 12.9503Z" fill="#016F9D"/>
<path d="M376.598 75.9035L373.65 86.3596H359.378V96.5081H362.773C362.773 96.5081 362.974 98.6608 363.265 101.49L372.02 100.475L377.492 95.8008L378.921 86.3596L386.001 85.5293L388.793 77.595L382.294 75.7498L376.598 75.9035Z" fill="#016F9D"/>
<path d="M339.827 94.3236L339.269 104.257L349.609 103.057L350.681 93.0935L344.472 86.3585L339.827 94.3236Z" fill="#016F9D"/>
<path d="M947.872 406.452C947.696 384.601 946.795 362.904 945.118 341.545C939.487 270.338 925.621 202.082 904.847 138.097C903.295 133.333 901.869 128.508 900.217 123.806C872.535 43.5024 833.665 -29.6099 786.086 -92.7035C782.957 -96.8217 779.779 -100.878 776.6 -104.874C767.615 -116.337 758.379 -127.523 748.818 -138.249C640.644 -259.181 496.979 -333 339.498 -333C180.691 -333 36 -257.859 -72.4744 -135.083C-97.7535 -106.472 -120.98 -75.2475 -142.054 -41.8107C-221.546 84.4379 -269 242.587 -269 414.166C-269 826.195 3.98829 1161.36 339.523 1161.36C575.544 1161.36 780.454 995.407 881.32 753.605C902.895 701.913 919.689 646.81 931.002 589.064C933.881 574.404 936.358 559.684 938.511 544.778C944.643 502.337 947.997 458.697 947.997 414.166C948.022 411.584 947.897 409.033 947.872 406.452ZM833.34 107.825L836.869 102.97C841.499 114.002 845.829 125.22 849.959 136.591L844.203 136.314L833.34 138.158V107.825V107.825ZM745.414 -22.5415L745.514 -55.9169C755.075 -43.4702 764.286 -30.6548 773.096 -17.3784L762.133 2.65907L723.814 2.22882L721.412 -7.57482L745.414 -22.5415ZM11.3718 -105.488V-106.748H23.5608L24.612 -111.881H44.5599V-101.186L38.8283 -91.7815H11.3468L11.3718 -105.488ZM30.8441 -72.1435C30.8441 -72.1435 43.0331 -74.6943 44.0843 -74.6943C45.1355 -74.6943 44.0843 -59.7584 44.0843 -59.7584L16.6028 -57.6379L11.3718 -65.321L30.8441 -72.1435ZM872.11 224.455H827.584L800.452 199.654L771.895 203.065V224.455H762.859L753.098 215.911L703.641 200.514V161.177L640.969 167.17L621.547 179.985H596.669L584.479 178.479L554.27 199.07V237.823L492.524 292.527L497.655 315.884H510.169L506.89 338.134L498.08 342.098L497.605 400.244L550.966 474.862H574.193L575.594 470.314H617.342L629.381 456.638H653.058L666.048 472.619L701.339 477.106L696.658 534.729L735.828 619.642L715.205 668.046L716.606 690.849L732.85 710.733V765.56L754.174 800.779V846.324H772.595C670.078 1000.88 514.049 1099.87 339.473 1099.87C31.57 1099.9 -218.943 792.266 -218.943 414.166C-218.943 318.987 -203.024 228.265 -174.366 145.811V124.421L-154.393 94.6411C-147.461 78.5681 -140.027 62.8945 -132.093 47.6206L-131.192 60.0672L-154.368 94.6411C-161.552 111.298 -168.259 128.324 -174.341 145.811V184.841L-151.14 198.547V252.79L-128.889 299.411L-110.793 302.822L-108.466 286.841L-129.815 246.398L-133.995 207.091H-121.481L-116.2 247.535L-85.3392 302.822L-93.2984 320.678L-73.6758 357.526L-24.9449 372.339V362.658L-5.44754 366.069L-7.29965 383.157L8.01792 386.599L31.6701 394.528L65.0834 441.272L107.757 445.236L111.937 487.985L82.7287 513.062L81.3521 551.232L77.1723 574.589L119.421 639.526L122.649 661.776C122.649 661.776 137.967 666.878 139.844 666.878C141.696 666.878 174.184 697.088 174.184 697.088V814.455L185.772 818.45L177.888 872.601L197.385 904.532L193.781 958.19L219.536 1013.79L252.599 1049.25L285.837 1049.99L289.091 1036.87L264.662 1011.6L266.064 999.064L270.444 983.698L271.37 968.025L254.851 967.41L246.517 954.564L260.232 938.368L262.085 926.136L246.767 920.758L247.668 909.387L269.493 905.331L302.681 885.754L313.819 860.676L348.634 805.973L340.725 763.193L351.412 740.421L383.424 741.619L404.973 720.66L411.931 638.113L435.834 600.834L440.014 576.894L418.214 568.319L403.822 539.339L354.641 538.724L315.646 520.469L313.794 486.325L300.779 458.39L265.513 457.744L245.14 418.468L227.044 407.62L226.118 419.605L193.18 422.002L181.117 401.381L146.752 392.807L118.445 432.974L73.8935 423.693L70.6648 362.044L38.1525 355.221L51.1925 324.98L47.4632 307.616L4.73917 342.682L-22.1417 338.656L-31.7277 312.872L-25.871 286.288L-11.054 252.759L23.0602 231.554L88.9358 231.523L88.7606 256.201L112.438 269.723L110.561 227.559L127.63 206.476L162.07 178.694L164.422 159.148L198.762 115.263L235.279 90.4308L232.05 87.1731L256.778 58.592L265.839 61.5423L269.994 67.9346L279.379 55.15L281.682 53.8899L271.395 52.1075L260.958 47.8357V35.5427L266.49 29.9802H278.679L284.26 32.9919L289.091 44.9776L294.997 43.8712V42.8263L296.699 43.5331L313.819 40.3063L316.247 30.0416L326.008 33.0534V44.1785L316.947 51.8309H316.973L318.299 64.0316L349.31 75.7714C349.31 75.7714 349.335 75.9251 349.385 76.2324L356.518 75.4948L356.993 58.9915L332.415 45.2541L331.014 37.3252L351.412 28.7816L352.313 4.81033L330.989 -11.1398L329.587 -51.5528L300.353 -33.9124H289.691L292.494 -64.6756L252.699 -76.2002L236.23 -60.9262V-14.3359L206.621 -2.81128L194.757 27.5523L181.892 30.1031V-8.74265L154.061 -13.4754L140.145 -24.6006L134.538 -49.7704L184.32 -85.5429L208.673 -94.6396L211.126 -74.5407L224.692 -75.4012L225.743 -85.5121L239.934 -88.0014L240.184 -91.5357L234.077 -94.6396L232.676 -105.335L250.121 -107.148L260.658 -120.609L261.234 -121.592L261.359 -121.53L264.562 -125.587L301.229 -131.273L317.448 -114.37L274.924 -86.557L329.036 -70.8835L336.044 -93.103H359.697L368.056 -112.464L351.337 -117.597V-142.09L298.902 -170.61L262.71 -165.478L242.287 -152.355L243.688 -120.455L222.339 -124.45L219.06 -142.09L239.509 -164.894L202.391 -167.168L191.729 -163.204L187.098 -147.837L201.014 -144.949L198.236 -127.861L174.584 -126.14L170.88 -114.769L136.565 -113.602C136.565 -113.602 135.614 -137.511 134.238 -137.511C132.861 -137.511 161.144 -138.095 161.144 -138.095L181.592 -162.62L170.429 -169.473L155.587 -151.771L130.959 -153.492L116.117 -178.57H84.5558L51.618 -148.36H81.8026L84.5558 -137.511L76.7218 -128.568L110.135 -127.431L115.241 -112.618L77.6228 -114.339L75.7957 -125.741L52.1436 -132.01L39.6042 -140.554L11.4469 -140.277C103.628 -222.732 216.983 -271.535 339.498 -271.535C480.71 -271.535 609.733 -206.721 708.171 -100.233L701.539 -85.6658L675.784 -73.2806L664.922 -58.8057L667.425 -41.9336L680.715 -39.6594L688.724 -15.0735L711.65 -26.4138L715.43 6.46988H708.522L689.7 3.05861L668.826 7.36112L648.628 42.396L619.745 47.9586L615.565 78.3222L627.754 81.8564L624.225 101.371L595.542 94.303L569.237 101.371L563.656 119.35L568.211 157.089L583.654 165.971L609.558 165.787L627.053 163.85L632.384 146.763L659.716 103.154L677.712 107.672L695.432 88.0029L698.736 103.369L742.336 139.48L737.005 148.269L717.357 146.978L724.916 160.132L737.005 163.389L751.171 156.137L750.871 135.177L757.153 131.305L752.097 124.728L723.013 104.814L715.355 78.3529H739.532L747.266 87.757L768.09 109.792L768.966 136.437L790.541 164.649L798.575 125.988L813.517 115.969L816.321 147.593L830.912 167.262L860.021 166.647C865.652 184.441 870.708 202.542 875.138 221.013L872.11 224.455ZM62.9059 6.46988L77.5227 -2.07372L90.7379 1.79857L86.1826 23.5878L71.9163 29.1504L62.9059 6.46988ZM140.47 57.7622V71.8684H107.082L94.5673 67.5966L97.6958 57.7622L113.739 49.6181H135.664V57.7622H140.47ZM155.838 77.4309V91.1069L147.478 97.7143L137.066 100.081C137.066 100.081 137.066 79.5822 137.066 77.4309H155.838ZM146.427 71.8684V55.611L157.915 68.4571L146.427 71.8684ZM151.658 104.752V118.059L143.674 127.894H125.928L128.706 112.958L137.091 112.066L138.818 106.934L151.658 104.752ZM107.457 77.4309H125.903L102.251 118.028L92.4899 111.605L94.5923 94.5182L107.457 77.4309ZM182.994 100.081V113.357H165.248L160.393 104.752V92.3976H161.794L182.994 100.081ZM166.6 81.8257L171.656 75.3104L180.191 81.8257L173.358 88.7405L166.6 81.8257ZM881.17 259.059L882.922 256.539C883.648 260.412 884.424 264.284 885.125 268.218L881.17 259.059Z" fill="#016F9D"/>
</g>
</mask>
<g mask="url(#mask0_225_27008)">
<rect x="-2" y="-0.28186" width="950" height="804" fill="#0A7991"/>
</g>
</g>
<defs>
<clipPath id="clip0_225_27008">
<rect width="970" height="800" fill="white"/>
</clipPath>
</defs>
</svg>
