<svg width="47" height="35" viewBox="0 0 47 35" fill="none" xmlns="http://www.w3.org/2000/svg">
<path d="M10.9098 29.6887C10.4028 29.6887 9.98926 29.2777 9.98926 28.7708C9.98926 28.2638 10.3977 27.8528 10.9047 27.8528H10.9099C11.4169 27.8528 11.8279 28.2638 11.8279 28.7708C11.8279 29.2777 11.4168 29.6887 10.9098 29.6887Z" fill="#F0F8F7"/>
<path d="M45.6078 25.2791V17.3535C45.6078 17.2398 45.5858 17.1232 45.5441 17.0174L40.9541 5.35368C40.8159 5.00265 40.4771 4.77187 40.0998 4.77187H31.3017V0.917967C31.3017 0.410974 30.8906 0 30.3837 0H18.9502C18.4432 0 18.0323 0.410974 18.0323 0.917967C18.0323 1.42496 18.4432 1.83593 18.9502 1.83593H29.4657V4.77196H26.8501C26.3432 4.77196 25.9321 5.18293 25.9321 5.68993V25.0877H14.6216C13.6749 24.12 12.3597 23.5189 10.9073 23.5189C9.45488 23.5189 8.1398 24.1201 7.19301 25.0877H3.22803V11.8809H15.321V13.4027C15.321 13.7462 15.5127 14.0609 15.8179 14.2185C15.9506 14.287 16.095 14.3207 16.2388 14.3207C16.4261 14.3207 16.6124 14.2634 16.7708 14.1508L22.7712 9.88513C23.0134 9.71292 23.1573 9.43413 23.1573 9.13698C23.1573 8.83984 23.0134 8.56105 22.7712 8.38884L16.7708 4.12314C16.4909 3.92422 16.1233 3.89806 15.8179 4.05558C15.5127 4.2131 15.321 4.52787 15.321 4.87138V6.39318H3.22803V1.83593H10.7069C11.2139 1.83593 11.6249 1.42496 11.6249 0.917967C11.6249 0.410974 11.2139 0 10.7069 0H2.31006C1.80307 0 1.3921 0.410974 1.3921 0.917967V25.2791C0.573821 25.6362 0 26.4552 0 27.4065V28.3823C0 29.6624 1.03629 30.7038 2.31006 30.7038H6.05849C6.82499 32.6455 8.70885 34.0224 10.9073 34.0224C13.1057 34.0224 14.9896 32.6455 15.7561 30.7038H29.9246C30.6911 32.6455 32.5749 34.0224 34.7734 34.0224C36.9719 34.0224 38.8556 32.6455 39.6222 30.7038H44.6899C45.9637 30.7038 47 29.6624 47 28.3823V27.4065C46.9999 26.4552 46.4261 25.6362 45.6078 25.2791ZM3.22803 8.22912H16.2389C16.7459 8.22912 17.1569 7.81814 17.1569 7.31115V6.65021L20.655 9.13698L17.1569 11.6238V10.9628C17.1569 10.4558 16.7459 10.0449 16.2389 10.0449H3.22803V8.22912ZM5.69314 28.868H2.31006C2.05303 28.868 1.83593 28.6456 1.83593 28.3824V27.4065C1.83593 27.1447 2.05303 26.9236 2.31006 26.9236H6.02471C5.80935 27.4985 5.69075 28.1208 5.69075 28.7707C5.69075 28.8032 5.69259 28.8355 5.69314 28.868ZM10.9073 32.1865C9.04317 32.1865 7.52669 30.6541 7.52669 28.7706C7.52669 26.8872 9.04326 25.3547 10.9073 25.3547C12.7713 25.3547 14.288 26.8871 14.288 28.7706C14.288 30.6542 12.7713 32.1865 10.9073 32.1865ZM43.3421 16.4356H34.0338V10.4957H41.0046L43.3421 16.4356ZM27.768 6.6078H39.4745L40.282 8.65983H33.1158C32.6089 8.65983 32.1979 9.0708 32.1979 9.57779V17.3536C32.1979 17.8606 32.6089 18.2716 33.1158 18.2716H43.7719V20.7617H42.4208C41.9139 20.7617 41.5028 21.1726 41.5028 21.6796C41.5028 22.1866 41.9139 22.5976 42.4208 22.5976H43.7719V25.0877H38.4877C37.541 24.12 36.2258 23.5189 34.7734 23.5189C33.321 23.5189 32.0058 24.1201 31.0591 25.0877H27.768V6.6078ZM16.1214 28.868C16.122 28.8355 16.1239 28.8033 16.1239 28.7706C16.1239 28.1208 16.0052 27.4985 15.79 26.9235H29.8908C29.6756 27.4984 29.5569 28.1207 29.5569 28.7706C29.5569 28.8032 29.5587 28.8355 29.5594 28.868H16.1214ZM34.7734 32.1865C32.9093 32.1865 31.3928 30.6541 31.3928 28.7706C31.3928 26.8872 32.9094 25.3547 34.7734 25.3547C36.6374 25.3547 38.154 26.8871 38.154 28.7706C38.154 30.6542 36.6374 32.1865 34.7734 32.1865ZM45.164 28.3824C45.164 28.6456 44.9469 28.868 44.6898 28.868H39.9875C39.988 28.8355 39.9899 28.8033 39.9899 28.7706C39.9899 28.1208 39.8713 27.4985 39.656 26.9235H44.6899C44.947 26.9235 45.1641 27.1447 45.1641 27.4065V28.3824H45.164Z" fill="#F96B30"/>
<path d="M34.7759 27.8525H34.7706C34.2637 27.8525 33.8552 28.2635 33.8552 28.7705C33.8552 29.2775 34.2689 29.6885 34.7758 29.6885C35.2827 29.6885 35.6937 29.2775 35.6937 28.7705C35.6937 28.2635 35.2828 27.8525 34.7759 27.8525Z" fill="#F0F8F7"/>
<path d="M6.4707 19.833C5.96371 19.833 5.55273 20.244 5.55273 20.751C5.55273 21.258 5.96371 21.6689 6.4707 21.6689H10.9827C11.4897 21.6689 11.9007 21.258 11.9007 20.751C11.9007 20.244 11.4897 19.833 10.9827 19.833H6.4707Z" fill="#F0F8F7"/>
<path d="M14.6536 17.0361C14.6536 16.5291 14.2427 16.1182 13.7357 16.1182H6.4707C5.96371 16.1182 5.55273 16.5291 5.55273 17.0361C5.55273 17.5431 5.96371 17.9541 6.4707 17.9541H13.7357C14.2427 17.9541 14.6536 17.5431 14.6536 17.0361Z" fill="#F0F8F7"/>
<path d="M14.8286 1.83593H14.8312C15.3382 1.83593 15.7479 1.42496 15.7479 0.917967C15.7479 0.410974 15.3356 0 14.8286 0C14.3216 0 13.9106 0.410974 13.9106 0.917967C13.9106 1.42496 14.3216 1.83593 14.8286 1.83593Z" fill="#F0F8F7"/>
</svg>
