<svg width="42" height="42" viewBox="0 0 42 42" fill="none" xmlns="http://www.w3.org/2000/svg">
<path d="M41.9233 9.95262C41.7788 9.41506 41.4261 8.95678 40.9435 8.67895C40.4607 8.39974 39.8865 8.32422 39.3479 8.46878C38.81 8.61367 38.3518 8.96601 38.0739 9.44855L37.724 10.0575C37.3915 9.8665 36.9667 9.97893 36.7722 10.3097L34.9945 13.34L34.3855 12.99C34.2242 12.8967 34.0322 12.8714 33.8524 12.92C33.6723 12.9688 33.5192 13.0871 33.4266 13.2491C33.2369 13.5836 33.3524 14.0087 33.6856 14.2008L34.2946 14.5507L28.3456 24.86L26.8758 28.7867L26.1759 30.0952C25.7661 30.8081 25.8099 31.6942 26.288 32.363L24.7132 34.2945L24.2724 33.189C24.0735 32.6962 23.6132 32.3585 23.0838 32.3172C22.5541 32.2755 22.0466 32.5373 21.7736 32.9928L21.5217 33.4196L21.2839 30.6201C21.2292 29.9578 20.7162 29.4254 20.0567 29.3454C19.3968 29.2658 18.7721 29.6612 18.5612 30.2913L16.8395 35.4564C16.7192 35.8217 16.9161 36.2154 17.2804 36.3384C17.3487 36.3702 17.4222 36.3894 17.4974 36.3941C17.7981 36.3952 18.066 36.2035 18.1624 35.9184L19.8769 30.7534L20.1219 33.5946C20.1725 34.2009 20.6082 34.7049 21.2008 34.8423C21.7934 34.9797 22.4065 34.7186 22.7185 34.1968L22.9775 33.7696L23.4115 34.8686C23.5957 35.3317 24.0123 35.6621 24.5055 35.7356C24.9986 35.8091 25.4934 35.6146 25.8051 35.2254L27.4359 33.1609C27.6163 33.2081 27.8022 33.2317 27.9888 33.231C28.7389 33.2368 29.4354 32.8417 29.8154 32.1948L30.5153 31.0261L33.1819 27.7857L39.1938 17.3503L39.8028 17.7002C39.9651 17.7932 40.0834 17.9466 40.1316 18.1274C40.1801 18.3068 40.1548 18.4982 40.0618 18.6592L37.2623 23.5095C37.1567 23.6687 37.1208 23.8642 37.1632 24.0508C37.2056 24.2371 37.3221 24.398 37.4861 24.4961C37.6474 24.5897 37.8395 24.615 38.0193 24.5665C38.1994 24.5176 38.3525 24.3994 38.4451 24.2374L41.2446 19.3871C41.5238 18.9042 41.5993 18.3301 41.4544 17.7915C41.3095 17.2536 40.9572 16.7953 40.4747 16.5175L39.8657 16.1675L41.6154 13.137C41.8064 12.8044 41.694 12.38 41.3635 12.1852L41.7135 11.5762C42.0002 11.0858 42.0761 10.5001 41.9233 9.95262ZM39.2847 10.1484C39.3773 9.98645 39.5311 9.86786 39.7119 9.81968C39.8917 9.77525 40.0817 9.8002 40.2437 9.88974C40.406 9.98235 40.5242 10.1361 40.5727 10.3166C40.6172 10.4963 40.5922 10.6863 40.5027 10.8483L40.1527 11.4573L38.9348 10.7574L39.2847 10.1484ZM29.7454 29.6895L29.3954 29.4865L28.3596 28.8844L29.3534 26.225L31.558 27.4986L29.7454 29.6895ZM27.6457 31.712C27.3501 31.5059 27.2592 31.1095 27.4359 30.7951L27.7858 30.1864L29.0034 30.8863L28.6535 31.4881C28.5554 31.6583 28.3907 31.7793 28.199 31.822C28.0073 31.8644 27.8067 31.8247 27.6457 31.712ZM32.3559 26.3511L29.9344 24.9513L35.5334 15.2506L37.955 16.6504L32.3559 26.3511ZM38.6549 15.4396L36.2333 14.0398L37.6331 11.6183L40.0547 13.018L38.6549 15.4396Z" fill="#F96B30"/>
<path d="M11.0437 31.3619L8.56643 33.8327L7.08259 32.3488C6.80954 32.0775 6.3687 32.0775 6.09564 32.3488C5.96305 32.4804 5.88855 32.6591 5.88855 32.8457C5.88855 33.0323 5.96305 33.2114 6.09564 33.3426L7.57948 34.8265C7.84194 35.0869 8.19667 35.2328 8.56643 35.2324C8.93825 35.2345 9.29605 35.0886 9.56022 34.8265L12.0307 32.3488C12.2685 32.071 12.2525 31.6571 11.9941 31.3988C11.7354 31.1401 11.3215 31.124 11.0437 31.3619Z" fill="#F0F8F7"/>
<path d="M2.80005 33.2447C2.80005 36.5306 5.46358 39.1938 8.74908 39.1938C12.0346 39.1938 14.6981 36.5306 14.6981 33.2447C14.6981 32.8582 14.3847 32.5449 13.9982 32.5449C13.6117 32.5449 13.2983 32.8582 13.2983 33.2447C13.2983 35.7572 11.2616 37.794 8.74908 37.794C6.2366 37.794 4.19982 35.7572 4.19982 33.2447C4.19982 30.7323 6.2366 28.6955 8.74908 28.6955C9.73398 28.6927 10.6926 29.0123 11.4786 29.6055C11.7878 29.8376 12.2266 29.7747 12.4583 29.4654C12.6904 29.1561 12.6278 28.7177 12.3186 28.4857C10.5159 27.1337 8.10387 26.9164 6.08862 27.9238C4.07303 28.9316 2.80005 30.9916 2.80005 33.2447Z" fill="#F96B30"/>
<path d="M25.1956 5.59899C25.5821 5.59899 25.8955 5.28596 25.8955 4.8991C25.8955 4.5126 25.5821 4.19922 25.1956 4.19922H6.99859C6.61208 4.19922 6.29871 4.5126 6.29871 4.8991V7.69865C6.29871 8.0855 6.61208 8.39853 6.99859 8.39853H25.1956C25.5821 8.39853 25.8955 8.0855 25.8955 7.69865C25.8955 7.31214 25.5821 6.99876 25.1956 6.99876H7.69848V5.59899H25.1956Z" fill="#F0F8F7"/>
<path d="M9.09857 9.79834C8.71206 9.79834 8.39868 10.1117 8.39868 10.4982C8.39868 10.8851 8.71206 11.1981 9.09857 11.1981H23.0963C23.4828 11.1981 23.7962 10.8851 23.7962 10.4982C23.7962 10.1117 23.4828 9.79834 23.0963 9.79834H9.09857Z" fill="#F96B30"/>
<path d="M27.2961 14.6975H11.8986C11.5121 14.6975 11.1987 15.0109 11.1987 15.3974C11.1987 15.7842 11.5121 16.0973 11.8986 16.0973H27.2961C27.6826 16.0973 27.996 15.7842 27.996 15.3974C27.996 15.0109 27.6826 14.6975 27.2961 14.6975Z" fill="#F0F8F7"/>
<path d="M20.2975 19.5969C20.2975 19.2103 19.9841 18.897 19.5976 18.897H5.59991C5.2134 18.897 4.90002 19.2103 4.90002 19.5969C4.90002 19.9837 5.2134 20.2967 5.59991 20.2967H19.5976C19.9841 20.2967 20.2975 19.9837 20.2975 19.5969Z" fill="#F0F8F7"/>
<path d="M27.2951 18.897H22.3959C22.0094 18.897 21.696 19.2103 21.696 19.5969C21.696 19.9837 22.0094 20.2967 22.3959 20.2967H27.2951C27.6816 20.2967 27.995 19.9837 27.995 19.5969C27.995 19.2103 27.6816 18.897 27.2951 18.897Z" fill="#F96B30"/>
<path d="M12.5988 23.796C12.9853 23.796 13.2987 23.483 13.2987 23.0961C13.2987 22.7096 12.9853 22.3962 12.5988 22.3962H5.59991C5.2134 22.3962 4.90002 22.7096 4.90002 23.0961C4.90002 23.483 5.2134 23.796 5.59991 23.796H12.5988Z" fill="#F96B30"/>
<path d="M15.3973 23.796H20.2965C20.683 23.796 20.9964 23.483 20.9964 23.0961C20.9964 22.7096 20.683 22.3962 20.2965 22.3962H15.3973C15.0108 22.3962 14.6974 22.7096 14.6974 23.0961C14.6974 23.483 15.0108 23.796 15.3973 23.796Z" fill="#F96B30"/>
<path d="M31.4949 32.1947C31.1083 32.1947 30.795 32.5081 30.795 32.8946V39.8935C30.795 40.2803 30.4816 40.5934 30.0951 40.5934H2.09966C1.71315 40.5934 1.39977 40.2803 1.39977 39.8935V2.09966C1.39977 1.71315 1.71315 1.39977 2.09966 1.39977H30.0951C30.4816 1.39977 30.795 1.71315 30.795 2.09966V15.2437C30.795 15.6302 31.1083 15.9436 31.4949 15.9436C31.8814 15.9436 32.1947 15.6302 32.1947 15.2437V2.09966C32.1947 0.94013 31.2546 0 30.0951 0H2.09966C0.94013 0 0 0.94013 0 2.09966V39.8935C0 41.0534 0.94013 41.9931 2.09966 41.9931H30.0951C31.2546 41.9931 32.1947 41.0534 32.1947 39.8935V32.8946C32.1947 32.5081 31.8814 32.1947 31.4949 32.1947Z" fill="#F96B30"/>
</svg>
