<svg width="80" height="50" viewBox="0 0 80 50" fill="none" xmlns="http://www.w3.org/2000/svg">
<rect width="80" height="50" fill="#F0F8F7"/>
<g clip-path="url(#clip0_18_1458)">
<path d="M31.8821 16.376H19V19.2538H34.7599L31.8821 16.376Z" fill="#0A7991"/>
<path d="M47.0153 19.2536H57.2138L48.7642 10.8043C47.2522 9.29194 45.2418 8.45898 43.1028 8.45898H35.6243L45.9973 18.8324C46.2693 19.104 46.6311 19.2536 47.0153 19.2536V19.2536Z" fill="#0A7991"/>
<path d="M20.2598 32.5681H56.2467C59.4191 32.5681 62 29.9875 62 26.8135C62 25.0246 61.3035 23.3432 60.0388 22.0782L59.7334 21.7731H47.0154C45.9587 21.7731 44.9646 21.3617 44.2163 20.6144L32.0612 8.45898H20.2598C19.5639 8.45898 19 9.02293 19 9.71875V13.8563H32.404C32.738 13.8563 33.0585 13.9892 33.2947 14.2254L38.692 19.623C39.0523 19.9832 39.1602 20.5248 38.9653 20.9956C38.7701 21.4664 38.3108 21.7735 37.8013 21.7735H19V31.3083C19 32.0041 19.5639 32.5681 20.2598 32.5681Z" fill="#0A7991"/>
<path d="M60.7402 37.966H49.7576C50.4131 37.1422 50.877 36.1603 51.084 35.0879H38.012C38.2186 36.1603 38.6825 37.1422 39.338 37.966H30.8667C31.5222 37.1422 31.9864 36.1603 32.1931 35.0879H19.1214C19.3281 36.1603 19.7923 37.1422 20.4477 37.966H20.2598C19.5639 37.966 19 38.5299 19 39.2258C19 39.9213 19.5639 40.4855 20.2598 40.4855H60.7402C61.4361 40.4855 62 39.9213 62 39.2258C62 38.5299 61.4361 37.966 60.7402 37.966V37.966Z" fill="#0A7991"/>
</g>
<defs>
<clipPath id="clip0_18_1458">
<rect width="43" height="43" fill="white" transform="translate(19 3)"/>
</clipPath>
</defs>
</svg>
