<svg width="80" height="50" viewBox="0 0 80 50" fill="none" xmlns="http://www.w3.org/2000/svg">
<rect width="80" height="50" fill="#F0F8F7"/>
<path d="M48.708 11.6699H18V28.9419H48.708V11.6699Z" fill="#0A7991"/>
<path d="M63 24.0218L59.8432 16.9619H50.0851V30.2433H38.8311H28.3366H21.7072V33.2627H24.8643C24.8391 33.4343 24.8217 33.6085 24.8217 33.787C24.8217 35.7441 26.3954 37.3306 28.3368 37.3306C30.2781 37.3306 31.8518 35.744 31.8518 33.787C31.8518 33.6085 31.8344 33.4343 31.8092 33.2627H35.359C35.3337 33.4343 35.3163 33.6085 35.3163 33.787C35.3163 35.7441 36.89 37.3306 38.8314 37.3306C40.7726 37.3306 42.3464 35.744 42.3464 33.787C42.3464 33.6085 42.3291 33.4343 42.3038 33.2627H50.0855H50.7759C50.7507 33.4343 50.7333 33.6085 50.7333 33.787C50.7333 35.7441 52.3069 37.3306 54.2483 37.3306C56.1895 37.3306 57.7633 35.744 57.7633 33.787C57.7633 33.6085 57.746 33.4343 57.7208 33.2627H63V24.0218V24.0218ZM28.3366 35.174C27.5768 35.174 26.9607 34.553 26.9607 33.787C26.9607 33.6013 26.9976 33.4246 27.0631 33.2627C27.2683 32.7566 27.7608 32.3998 28.3365 32.3998C28.9123 32.3998 29.4048 32.7566 29.61 33.2627C29.6755 33.4246 29.7124 33.6013 29.7124 33.787C29.7125 34.553 29.0965 35.174 28.3366 35.174ZM38.8311 35.174C38.0712 35.174 37.4551 34.553 37.4551 33.787C37.4551 33.6013 37.492 33.4246 37.5575 33.2627C37.7627 32.7566 38.2552 32.3998 38.831 32.3998C39.4067 32.3998 39.8993 32.7566 40.1043 33.2627C40.17 33.4246 40.2068 33.6013 40.2068 33.787C40.2069 34.553 39.591 35.174 38.8311 35.174ZM54.2478 35.174C53.4879 35.174 52.8719 34.553 52.8719 33.787C52.8719 33.6013 52.9087 33.4246 52.9742 33.2627C53.1794 32.7566 53.6719 32.3998 54.2477 32.3998C54.8235 32.3998 55.316 32.7566 55.521 33.2627C55.5867 33.4246 55.6235 33.6013 55.6235 33.787C55.6237 34.553 55.0078 35.174 54.2478 35.174ZM52.4085 23.889C52.3557 23.889 52.313 23.8462 52.313 23.7935V19.0238C52.313 18.9711 52.3556 18.9283 52.4085 18.9283H58.4155C58.5421 18.9283 58.6567 19.0033 58.7074 19.1194L60.7914 23.889H52.4085V23.889Z" fill="#0A7991"/>
</svg>
