<svg width="80" height="50" viewBox="0 0 80 50" fill="none" xmlns="http://www.w3.org/2000/svg">
<rect width="80" height="50" fill="#F0F8F7"/>
<path d="M54.7187 32.266C54.5547 32.1019 54.3359 32.0472 54.1719 32.0472C54.0078 32.0472 53.7344 32.1019 53.625 32.266L53.2422 32.6488L53.4609 34.7816L54.7187 33.4691C55.0469 33.141 55.0469 32.5941 54.7187 32.266V32.266ZM52.8047 39.0472L51.5469 28.4926V28.4379L51.1641 24.9379L50.6719 21.6019C50.6172 21.1097 50.0703 20.9457 49.6875 21.2738L43.7812 26.6879C43.5625 26.9066 43.5078 27.1801 43.6719 27.4535C45.9687 31.0082 49.1406 36.8597 51.1094 41.6176C51.1641 41.6722 51.1641 41.7269 51.2187 41.7816C51.3828 41.9457 51.6562 42.0004 51.875 41.7816C52.5859 41.0707 52.9141 40.0863 52.8047 39.0472V39.0472ZM37.6562 39.4301L36.1797 34.3441C36.0703 34.016 35.6875 33.8519 35.3594 33.9613C34.8125 34.2347 34.1562 34.4535 33.5 34.5629C33.1172 34.6176 32.8984 35.1097 33.1172 35.4379L36.2891 40.1957C36.5078 40.5238 36.9453 40.5238 37.1641 40.3051L37.4375 40.0316C37.6562 39.8129 37.7109 39.5941 37.6562 39.4301V39.4301ZM33.3906 31.2269C33.3359 31.1722 33.2266 31.1176 33.1172 31.1176C33.0078 31.1176 32.8984 31.1722 32.8437 31.2269L29.5625 34.5629C29.3984 34.7269 29.3984 34.9457 29.5625 35.0551C29.6719 35.2191 29.9453 35.2191 30.0547 35.0551L33.3906 31.7191C33.5547 31.6097 33.5547 31.3363 33.3906 31.2269ZM30.3281 28.6019L25.5703 27.4535C25.3516 27.3988 25.1875 27.4535 25.0234 27.6176L24.6953 27.9457C24.4219 28.2191 24.4766 28.6566 24.75 28.8207L29.125 31.7738C29.5078 31.9926 29.9453 31.8285 30.0547 31.391C30.1641 30.7347 30.4375 30.0238 30.7109 29.4222C30.875 29.0941 30.7109 28.7113 30.3281 28.6019V28.6019ZM43.0703 14.5472L39.8984 14.0551L36.3984 13.6722L25.8437 12.4144C24.8594 12.3051 23.875 12.6332 23.1641 13.3441C22.9453 13.5629 23 13.8363 23.1641 14.0004C23.2187 14.0551 23.2187 14.0551 23.3281 14.1097C27.7578 15.9144 33.4453 19.0863 37.1641 21.4926C37.3828 21.6566 37.7109 21.6019 37.875 21.3832L43.3984 15.5316C43.7266 15.2035 43.5078 14.6566 43.0703 14.5472V14.5472ZM32.625 10.4457C32.2969 10.1176 31.75 10.1176 31.4219 10.4457L30.1094 11.7035L32.1875 11.9222L32.5703 11.5394C32.7344 11.3754 32.7891 11.1566 32.7891 10.9926C32.8437 10.8285 32.7891 10.6097 32.625 10.4457V10.4457ZM39.9531 11.5394C39.625 11.2113 39.0781 11.2113 38.75 11.5394L37.6562 12.5785L39.7344 12.7972L39.8984 12.6332C40.2812 12.3597 40.2812 11.8676 39.9531 11.5394V11.5394ZM57.5625 7.54725C56.3594 6.34412 52.4219 7.82068 50.4531 9.73475L32.4609 28.8207C32.0781 29.2035 31.5859 30.1332 31.3672 31.1176L32.0781 30.4066C32.6797 29.8051 33.6641 29.8051 34.2656 30.4066C34.8672 31.0082 34.8672 31.9926 34.2656 32.5941L33.3906 33.3597C34.4297 33.141 35.4687 32.5941 35.9062 32.2113L55.3203 14.4926C56.7969 13.0707 58 10.5551 58 8.85975C58 8.25818 57.8359 7.82068 57.5625 7.54725V7.54725ZM55.0469 12.2504C54.9922 12.2504 54.9922 12.2504 55.0469 12.2504C54.7187 12.2504 54.4453 12.0316 54.3906 11.7582C54.3359 11.5394 54.1719 10.8832 53.3516 10.8285H53.1875C52.8594 10.8285 52.5859 10.5551 52.6406 10.2269C52.6953 9.89881 52.9141 9.62537 53.2422 9.62537H53.4062C54.5547 9.68006 55.375 10.4457 55.5391 11.5941C55.5937 11.9222 55.3203 12.1957 55.0469 12.2504V12.2504ZM53.6797 24.9379C53.5156 24.7738 53.2969 24.7191 53.1328 24.7191C52.9687 24.7191 52.6953 24.8285 52.5859 24.9379L52.4219 25.1019L52.6406 27.1801L53.6797 26.0863C53.9531 25.8129 53.9531 25.266 53.6797 24.9379V24.9379Z" fill="#0A7991"/>
</svg>
