<svg width="60" height="63" viewBox="0 0 60 63" fill="none" xmlns="http://www.w3.org/2000/svg">
<path d="M11.6116 35.1523L8.87114 26.6156C8.81032 26.4274 8.78698 26.2283 8.80252 26.0304C8.81807 25.8325 8.87219 25.64 8.96159 25.4645C9.05098 25.289 9.17379 25.1342 9.32255 25.0096C9.47131 24.8849 9.64291 24.793 9.82693 24.7394L11.547 24.2252C11.826 24.143 12.1227 24.1518 12.3967 24.2506C12.6708 24.3493 12.909 24.5331 13.0792 24.7771L19.7857 34.3059L19.0234 34.8842L12.3154 25.3511C12.2596 25.2695 12.1809 25.2079 12.09 25.1746C11.9991 25.1413 11.9006 25.1381 11.8078 25.1653L10.0854 25.68C10.024 25.6975 9.96666 25.7278 9.91691 25.7691C9.86716 25.8105 9.82605 25.8619 9.7961 25.9203C9.76616 25.9787 9.74801 26.0429 9.74276 26.1088C9.73752 26.1748 9.74529 26.2412 9.7656 26.3039L12.5065 34.8421L11.6116 35.1523Z" fill="#E98C00"/>
<path d="M11.9331 50.3394C11.8026 50.3395 11.6727 50.3205 11.5472 50.283L9.82436 49.7683C9.64034 49.7143 9.46883 49.6219 9.32024 49.4968C9.17166 49.3717 9.04912 49.2166 8.96007 49.0407C8.87102 48.8649 8.81732 48.6721 8.80224 48.474C8.78716 48.276 8.81102 48.0768 8.87235 47.8886L11.6128 39.3501L12.5091 39.6604L9.76822 48.1989C9.74802 48.2614 9.74026 48.3276 9.74543 48.3933C9.75059 48.4591 9.76857 48.523 9.79826 48.5813C9.82796 48.6397 9.86875 48.6911 9.91816 48.7325C9.96758 48.7739 10.0246 48.8045 10.0857 48.8223L11.8105 49.3375C11.9027 49.3649 12.0008 49.362 12.0913 49.3291C12.1818 49.2963 12.2604 49.2352 12.3162 49.1542L19.0246 39.6197L19.787 40.1981L13.0786 49.7316C12.9474 49.9197 12.7752 50.0728 12.5761 50.1785C12.377 50.2841 12.1567 50.3392 11.9331 50.3394Z" fill="#E98C00"/>
<path d="M29.4662 34.2095L25.2322 23.5282H22.6894C22.6014 23.5287 22.5149 23.5036 22.4399 23.4557C22.3648 23.4078 22.3042 23.339 22.2648 23.2571L20.8496 20.3161C20.8135 20.2412 20.7966 20.1579 20.8003 20.0742C20.8041 19.9906 20.8284 19.9093 20.871 19.8381C20.9136 19.767 20.973 19.7084 21.0436 19.6679C21.1141 19.6274 21.1935 19.6064 21.2741 19.6069H23.6801L21.3756 13.7939C21.2872 13.5706 21.2531 13.328 21.2763 13.0877C21.2995 12.8474 21.3794 12.6167 21.5088 12.4161C21.6382 12.2154 21.8132 12.051 22.0183 11.9373C22.2234 11.8236 22.4522 11.7641 22.6847 11.7642H25.9162C26.4524 11.7637 26.9805 11.8988 27.4551 12.158C27.9297 12.4171 28.3364 12.7923 28.6402 13.2513L32.8355 19.6069H37.7857C38.042 19.6074 38.2956 19.6619 38.5312 19.767C38.7667 19.8722 38.9793 20.0258 39.1561 20.2186C39.3335 20.411 39.4709 20.6393 39.5598 20.8892C39.6487 21.1392 39.6871 21.4054 39.6727 21.6714C39.6296 22.1813 39.4033 22.6555 39.0387 22.9997C38.6741 23.3438 38.198 23.5325 37.7055 23.5282H35.4269L41.7598 33.1179L40.9818 33.6722L34.1413 23.3155C34.0927 23.2418 34.0643 23.1558 34.0593 23.0666C34.0543 22.9775 34.0728 22.8886 34.1129 22.8096C34.1529 22.7306 34.213 22.6644 34.2866 22.6183C34.3602 22.5722 34.4446 22.5478 34.5305 22.5479H37.7055C37.9571 22.5546 38.202 22.4628 38.3916 22.2908C38.5812 22.1188 38.7017 21.879 38.7292 21.619C38.7359 21.486 38.7165 21.353 38.6721 21.228C38.6277 21.1031 38.5593 20.9888 38.471 20.8923C38.3827 20.7957 38.2764 20.7189 38.1586 20.6664C38.0407 20.614 37.9139 20.587 37.7857 20.5872H32.5869C32.5103 20.5871 32.4349 20.5676 32.3672 20.5305C32.2994 20.4934 32.2414 20.4396 32.1982 20.374L27.8627 13.8057C27.6454 13.4781 27.3547 13.2103 27.0156 13.0254C26.6765 12.8405 26.2992 12.7441 25.9162 12.7445H22.6847C22.6073 12.7445 22.5311 12.7642 22.4628 12.8021C22.3945 12.8399 22.3362 12.8945 22.293 12.9613C22.2499 13.028 22.2232 13.1048 22.2153 13.1847C22.2074 13.2647 22.2186 13.3455 22.2479 13.42L24.8194 19.9103C24.8489 19.9847 24.8604 20.0656 24.8526 20.1458C24.8449 20.2259 24.8183 20.3029 24.7752 20.3698C24.732 20.4367 24.6737 20.4916 24.6053 20.5295C24.5369 20.5674 24.4606 20.5872 24.383 20.5872H22.0375L22.981 22.5479H25.5483C25.6417 22.5479 25.733 22.5768 25.8106 22.6308C25.8882 22.6848 25.9486 22.7616 25.9842 22.8513L30.339 33.836L29.4662 34.2095Z" fill="#E98C00"/>
<path d="M25.9162 62.7412H22.6847C22.4522 62.7412 22.2234 62.6818 22.0183 62.5681C21.8132 62.4544 21.6382 62.29 21.5088 62.0893C21.3794 61.8887 21.2995 61.658 21.2763 61.4177C21.2531 61.1774 21.2872 60.9348 21.3756 60.7114L23.6801 54.8985H21.2741C21.1935 54.899 21.1141 54.878 21.0436 54.8375C20.973 54.797 20.9136 54.7384 20.871 54.6672C20.8284 54.5961 20.8041 54.5148 20.8003 54.4311C20.7966 54.3475 20.8135 54.2642 20.8496 54.1892L22.2648 51.2482C22.3042 51.1664 22.3648 51.0976 22.4399 51.0497C22.5149 51.0018 22.6014 50.9767 22.6894 50.9772H25.2322L29.4662 40.2959L30.339 40.6694L25.9842 51.6541C25.9486 51.7438 25.8882 51.8205 25.8106 51.8746C25.733 51.9286 25.6417 51.9574 25.5483 51.9575H22.981L22.0375 53.9182H24.383C24.4606 53.9181 24.5369 53.938 24.6053 53.9759C24.6737 54.0138 24.732 54.0686 24.7752 54.1356C24.8183 54.2025 24.8449 54.2794 24.8526 54.3596C24.8604 54.4397 24.8489 54.5206 24.8194 54.5951L22.2479 61.0849C22.2185 61.1594 22.2072 61.2402 22.2151 61.3203C22.2229 61.4003 22.2496 61.4772 22.2928 61.544C22.3359 61.6108 22.3943 61.6655 22.4626 61.7033C22.531 61.7412 22.6073 61.7609 22.6847 61.7609H25.9162C26.2993 61.7614 26.6767 61.665 27.0158 61.48C27.3549 61.2951 27.6456 61.027 27.8627 60.6992L32.1982 54.1309C32.2415 54.0653 32.2995 54.0117 32.3673 53.9747C32.435 53.9376 32.5104 53.9182 32.5869 53.9182H37.7857C37.914 53.9184 38.041 53.8914 38.1589 53.8388C38.2768 53.7863 38.3832 53.7093 38.4715 53.6126C38.5598 53.5159 38.6282 53.4015 38.6725 53.2763C38.7168 53.1512 38.7361 53.018 38.7292 52.8849C38.7015 52.6251 38.5809 52.3856 38.3913 52.2139C38.2017 52.0421 37.9569 51.9506 37.7055 51.9575H34.5305C34.4447 51.9575 34.3604 51.9331 34.2869 51.887C34.2133 51.8409 34.1533 51.7748 34.1133 51.6959C34.0732 51.617 34.0547 51.5282 34.0596 51.4391C34.0646 51.35 34.0928 51.264 34.1413 51.1904L40.9818 40.8331L41.7598 41.3875L35.4269 50.9772H37.7055C38.1993 50.9669 38.6782 51.1533 39.044 51.4982C39.4098 51.8431 39.6347 52.3203 39.6727 52.832C39.6875 53.0982 39.6493 53.3648 39.5606 53.6151C39.4719 53.8654 39.3345 54.0941 39.1571 54.2868C38.9802 54.4798 38.7674 54.6335 38.5317 54.7386C38.296 54.8438 38.0422 54.8982 37.7857 54.8985H32.8355L28.6402 61.254C28.3364 61.713 27.9297 62.0883 27.4551 62.3474C26.9805 62.6065 26.4524 62.7417 25.9162 62.7412Z" fill="#E98C00"/>
<path d="M50.1166 42.064C49.909 42.064 49.7024 42.0586 49.4944 42.0473L37.2881 41.3797L37.3381 40.3994L49.5444 41.067C50.9343 41.1437 52.3254 40.9411 53.6416 40.4705C56.7104 39.3838 58.5422 38.1805 58.5422 37.2527C58.5422 36.3248 56.7104 35.1215 53.6416 34.0339C52.3255 33.563 50.9343 33.3605 49.5444 33.4374L37.3381 34.105L37.2881 33.1247L49.4944 32.4571C51.0047 32.3753 52.5162 32.5952 53.9468 33.1051C57.6223 34.4098 59.4857 35.8043 59.4857 37.2527C59.4857 38.7011 57.6223 40.0955 53.9468 41.3993C52.7141 41.8389 51.4199 42.0635 50.1166 42.064Z" fill="#E98C00"/>
<path d="M32.0994 41.0957L7.51847 39.7521C7.15618 39.7323 6.81507 39.5686 6.56557 39.295C6.31607 39.0213 6.17723 38.6585 6.17774 38.2816V36.2228C6.17723 35.8459 6.31607 35.4831 6.56557 35.2094C6.81507 34.9358 7.15618 34.7721 7.51847 34.7523L32.0994 33.4082L32.1494 34.3886L7.56801 35.7326C7.44727 35.7393 7.33361 35.7939 7.25047 35.8851C7.16734 35.9763 7.12108 36.0972 7.12125 36.2228V38.2816C7.12108 38.4072 7.16734 38.5281 7.25047 38.6193C7.33361 38.7105 7.44727 38.7651 7.56801 38.7718L32.1494 40.1158L32.0994 41.0957Z" fill="#E98C00"/>
<path d="M31.6367 39.2839L31.6792 38.3053L33.0954 38.3715L33.0529 39.3502L31.6367 39.2839Z" fill="#E98C00"/>
<path d="M33.9951 39.3926L34.0376 38.4135L35.4222 38.4783L35.3797 39.4574L33.9951 39.3926Z" fill="#E98C00"/>
<path d="M31.6338 35.2241L33.05 35.1578L33.0924 36.1365L31.6762 36.2028L31.6338 35.2241Z" fill="#E98C00"/>
<path d="M33.9922 35.1138L35.3768 35.049L35.4193 36.0281L34.0346 36.0929L33.9922 35.1138Z" fill="#E98C00"/>
<path d="M36.3438 39.5032L36.3862 38.525L37.7713 38.5898L37.7288 39.568L36.3438 39.5032Z" fill="#E98C00"/>
<path d="M38.6982 39.6191L38.7407 38.6402L40.172 38.7072L40.1295 39.6861L38.6982 39.6191Z" fill="#E98C00"/>
<path d="M41.0713 39.7224L41.1137 38.7437L42.529 38.81L42.4866 39.7887L41.0713 39.7224Z" fill="#E98C00"/>
<path d="M43.4521 39.8369L43.4946 38.8574L44.8816 38.9223L44.8391 39.9018L43.4521 39.8369Z" fill="#E98C00"/>
<path d="M45.792 39.9468L45.8344 38.9683L47.2332 39.0337L47.1907 40.0122L45.792 39.9468Z" fill="#E98C00"/>
<path d="M48.168 40.0527L48.2104 39.0736L49.5743 39.1375L49.5319 40.1166L48.168 40.0527Z" fill="#E98C00"/>
<path d="M50.8429 40.1662C50.7566 40.1662 50.6703 40.1662 50.583 40.1618L50.616 39.1814C51.408 39.2182 52.1982 39.075 52.9314 38.7618C53.8377 38.3593 54.2971 37.8515 54.2971 37.2525C54.2971 36.6535 53.8377 36.1456 52.9319 35.7422C52.1989 35.4274 51.4083 35.2842 50.616 35.3226L50.583 34.3422C51.5144 34.2966 52.4438 34.4667 53.3041 34.8402C54.9048 35.554 55.2407 36.5461 55.2407 37.2525C55.2407 37.9589 54.9048 38.951 53.3036 39.6637C52.5249 40.0038 51.6876 40.1747 50.8429 40.1662Z" fill="#E98C00"/>
<path d="M48.1455 34.4539L49.5297 34.3891L49.5721 35.3678L48.1879 35.4325L48.1455 34.4539Z" fill="#E98C00"/>
<path d="M45.7822 34.5635L47.181 34.498L47.2234 35.4761L45.8246 35.5415L45.7822 34.5635Z" fill="#E98C00"/>
<path d="M43.4453 34.6729L44.8323 34.6079L44.8747 35.587L43.4878 35.6519L43.4453 34.6729Z" fill="#E98C00"/>
<path d="M41.0693 34.7839L42.4846 34.7177L42.527 35.6964L41.1118 35.7626L41.0693 34.7839Z" fill="#E98C00"/>
<path d="M38.6895 34.8936L40.1207 34.8266L40.1632 35.8055L38.7319 35.8725L38.6895 34.8936Z" fill="#E98C00"/>
<path d="M36.3418 35.0042L37.807 34.9356L37.8495 35.9144L36.3842 35.9829L36.3418 35.0042Z" fill="#E98C00"/>
<path d="M19.3862 37.7422H11.3663C11.2412 37.7422 11.1212 37.6906 11.0327 37.5987C10.9442 37.5069 10.8945 37.3823 10.8945 37.2524C10.8945 37.1226 10.9442 36.998 11.0327 36.9061C11.1212 36.8143 11.2412 36.7627 11.3663 36.7627H19.3862C19.5113 36.7627 19.6313 36.8143 19.7198 36.9061C19.8082 36.998 19.8579 37.1226 19.8579 37.2524C19.8579 37.3823 19.8082 37.5069 19.7198 37.5987C19.6313 37.6906 19.5113 37.7422 19.3862 37.7422Z" fill="#E98C00"/>
<path d="M24.1045 28.4292H31.1808V29.4092H24.1045V28.4292Z" fill="#F0F8F7"/>
<path d="M19.8574 28.4292H22.2162V29.4092H19.8574V28.4292Z" fill="#F0F8F7"/>
<path d="M12.7812 15.6851H24.5752V16.6646H12.7812V15.6851Z" fill="#F0F8F7"/>
<path d="M8.53613 15.6851H10.8949V16.6646H8.53613V15.6851Z" fill="#F0F8F7"/>
<path d="M16.083 57.3486H27.4052V58.3291H16.083V57.3486Z" fill="#F0F8F7"/>
<path d="M11.8389 57.3486H14.1977V58.3291H11.8389V57.3486Z" fill="#F0F8F7"/>
<path d="M0.0439453 44.6045H7.59207V45.5845H0.0439453V44.6045Z" fill="#F0F8F7"/>
<path d="M9.00684 44.6045H11.8374V45.5845H9.00684V44.6045Z" fill="#F0F8F7"/>
<path d="M48.6341 24.998C47.3318 24.9977 46.047 24.6862 44.8791 24.0875C43.7111 23.4888 42.6914 22.619 41.8987 21.5455C41.106 20.4719 40.5616 19.2232 40.3076 17.8961C40.0536 16.569 40.0968 15.199 40.4338 13.892C40.7709 12.585 41.3927 11.376 42.2513 10.3586C43.1099 9.34122 44.1823 8.54264 45.3854 8.02464C46.5885 7.50664 47.8902 7.2831 49.1897 7.37131C50.4893 7.45951 51.7519 7.8571 52.8799 8.53332L52.4082 9.38177C50.9692 8.51862 49.2964 8.17287 47.6491 8.39815C46.0018 8.62343 44.472 9.40715 43.2971 10.6278C42.1221 11.8484 41.3676 13.4377 41.1506 15.1492C40.9336 16.8608 41.2662 18.5989 42.0968 20.094C42.9274 21.5891 44.2096 22.7577 45.7446 23.4186C47.2795 24.0794 48.9815 24.1956 50.5865 23.7491C52.1914 23.3026 53.6098 22.3183 54.6215 20.9489C55.6333 19.5796 56.1818 17.9016 56.1822 16.1753H57.1257C57.1231 18.5144 56.2276 20.7569 54.6357 22.4109C53.0438 24.0649 50.8854 24.9953 48.6341 24.998Z" fill="#E98C00"/>
<path d="M48.6341 18.1357C48.2609 18.1357 47.896 18.0208 47.5857 17.8053C47.2754 17.5899 47.0335 17.2838 46.8907 16.9255C46.7479 16.5673 46.7105 16.1731 46.7833 15.7928C46.8561 15.4125 47.0359 15.0632 47.2998 14.789C47.5637 14.5149 47.8999 14.3282 48.266 14.2525C48.632 14.1769 49.0114 14.2157 49.3562 14.3641C49.7011 14.5125 49.9958 14.7637 50.2031 15.0861C50.4105 15.4085 50.5211 15.7876 50.5211 16.1753C50.5211 16.6952 50.3223 17.1939 49.9684 17.5615C49.6146 17.9292 49.1346 18.1357 48.6341 18.1357ZM48.6341 15.1951C48.4475 15.1951 48.2651 15.2526 48.1099 15.3603C47.9548 15.468 47.8338 15.6211 47.7624 15.8002C47.691 15.9793 47.6723 16.1764 47.7087 16.3665C47.7451 16.5567 47.835 16.7313 47.9669 16.8684C48.0989 17.0055 48.267 17.0989 48.45 17.1367C48.6331 17.1745 48.8228 17.1551 48.9952 17.0809C49.1676 17.0067 49.3149 16.8811 49.4186 16.7199C49.5223 16.5587 49.5776 16.3692 49.5776 16.1753C49.5776 15.9153 49.4782 15.666 49.3013 15.4822C49.1243 15.2983 48.8843 15.1951 48.6341 15.1951Z" fill="#E98C00"/>
<path d="M49.2373 14.8533L54.2973 9.5957L54.9644 10.2888L49.9044 15.5464L49.2373 14.8533Z" fill="#E98C00"/>
<path d="M50.1897 10.1494L49.9453 9.20258L52.0673 8.61155L51.4988 6.40718L52.4102 6.15381L53.2231 9.30452L50.1897 10.1494Z" fill="#E98C00"/>
<path d="M32.124 6.37207H42.5027V7.35205H32.124V6.37207Z" fill="#F0F8F7"/>
<path d="M27.8779 6.37207H30.2367V7.35205H27.8779V6.37207Z" fill="#F0F8F7"/>
<path d="M32.5947 14.2148H37.7841V15.1948H32.5947V14.2148Z" fill="#F0F8F7"/>
<path d="M51.4658 3.43066H50.5222V0.98019H46.7482V3.43066H45.8047V0H51.4658V3.43066Z" fill="#E98C00"/>
<path d="M48.6357 27.9394C46.9485 27.9424 45.2821 27.552 43.7594 26.7969C42.2367 26.0419 40.8965 24.9415 39.8374 23.5768L40.5686 22.9597C42.1088 24.9367 44.2719 26.2844 46.6758 26.7648C49.0797 27.2451 51.5696 26.827 53.7056 25.5845C55.8416 24.342 57.4862 22.355 58.3487 19.9746C59.2113 17.5942 59.2363 14.9736 58.4194 12.5758C57.6024 10.1781 55.9961 8.15761 53.8843 6.87131C51.7724 5.58502 49.291 5.11576 46.8784 5.54643C44.4658 5.9771 42.2773 7.28 40.6997 9.22489C39.1221 11.1698 38.2569 13.6315 38.257 16.175H37.3135C37.3135 13.8483 37.9775 11.5737 39.2216 9.6391C40.4657 7.70445 42.234 6.19658 44.3029 5.30616C46.3717 4.41574 48.6482 4.18277 50.8445 4.6367C53.0408 5.09063 55.0582 6.21108 56.6417 7.85636C58.2251 9.50164 59.3035 11.5979 59.7403 13.8799C60.1772 16.162 59.953 18.5274 59.096 20.6771C58.2391 22.8267 56.7879 24.6641 54.926 25.9568C53.064 27.2495 50.875 27.9394 48.6357 27.9394Z" fill="#E98C00"/>
</svg>
