<svg width="49" height="49" viewBox="0 0 49 49" fill="none" xmlns="http://www.w3.org/2000/svg">
<path d="M26.285 39.512C26.0601 39.512 25.8419 39.5914 25.6696 39.736C25.4744 39.9006 25.3538 40.1313 25.3318 40.3858C25.3098 40.6403 25.3873 40.8883 25.5519 41.0845C25.7347 41.3017 26.0017 41.426 26.286 41.426C26.5099 41.426 26.7281 41.3466 26.9004 41.2021C27.3042 40.8633 27.3578 40.2585 27.0181 39.8536C26.8362 39.6365 26.5683 39.512 26.285 39.512Z" fill="#E98C00"/>
<path d="M45.7181 12.1449C47.8394 10.2414 49 8.08806 49 6.0293C49 2.19763 47.0466 0 43.6406 0C40.6666 0 37.9053 2.17342 36.9051 5.17974L32.9228 3.7018C32.3879 3.50273 31.828 3.40225 31.2576 3.40225C30.134 3.40225 29.0411 3.79941 28.1807 4.52197L0.341662 27.8821C0.123268 28.0653 -0.000572231 28.3162 1.98805e-06 28.5913C0.000480504 28.8166 0.0678555 29.0447 0.223947 29.2306L16.526 48.6583C16.6878 48.8507 16.9241 48.9742 17.1758 48.9962C17.2017 48.999 17.2294 49 17.2572 49C17.483 49 17.7022 48.9206 17.8745 48.7761L23.6013 43.9708C24.0052 43.631 24.0579 43.0262 23.7191 42.6222C23.5372 42.405 23.2693 42.2807 22.985 42.2807C22.7611 42.2807 22.5429 42.3601 22.3706 42.5037L17.3768 46.6945L2.30549 28.7329L29.4115 5.98805C29.9273 5.55461 30.5829 5.31621 31.2576 5.31621C31.5993 5.31621 31.9352 5.37651 32.2558 5.49518L39.9876 8.36531C41.0059 8.74325 41.9141 9.3836 42.6118 10.2153C42.9472 10.6149 43.2299 11.0547 43.4554 11.5218C42.9457 11.9011 42.4019 12.2548 41.8487 12.5674C41.6693 12.1681 41.4348 11.7907 41.1456 11.4462C39.4497 9.42494 36.4254 9.16013 34.4042 10.8564C32.383 12.5524 32.1185 15.5765 33.8144 17.5978C34.7596 18.7243 36.1172 19.305 37.484 19.305C38.5696 19.305 39.6612 18.9385 40.5559 18.1876C41.5351 17.366 42.1356 16.2123 42.247 14.9391C42.2592 14.7986 42.2644 14.6585 42.2646 14.5191C42.871 14.2059 43.4677 13.8492 44.0399 13.4576L45.4619 21.2336C45.4934 21.4038 45.5088 21.5781 45.5088 21.7503C45.5088 22.6012 45.1346 23.4031 44.4828 23.9495L28.9693 36.9672C28.7731 37.132 28.6526 37.3625 28.6306 37.6171C28.6085 37.8726 28.687 38.1205 28.8507 38.3157C29.0335 38.533 29.3005 38.6583 29.5847 38.6583C29.8087 38.6583 30.0278 38.5789 30.1991 38.4344C30.2001 38.4334 30.2001 38.4334 30.2001 38.4334L45.7136 25.4158C46.2552 24.9612 46.6811 24.4052 46.9788 23.7639C47.2697 23.1371 47.4228 22.4404 47.4228 21.7504C47.4228 21.4623 47.397 21.1723 47.3443 20.889C47.3443 20.8891 45.7737 12.3536 45.7181 12.1449ZM40.6537 6.57098L38.7 5.84583C39.4238 3.56829 41.4581 1.91406 43.6406 1.91406C44.4928 1.91406 47.0859 1.91406 47.0859 6.0293C47.0859 7.69558 45.9799 9.19841 44.9443 10.2406C44.6956 9.79761 44.4062 9.3768 44.078 8.98557C43.1669 7.89934 41.9821 7.06385 40.6537 6.57098ZM39.6795 12.6765C39.8634 12.8958 40.0114 13.137 40.1211 13.3928C39.0326 13.812 38.3515 13.8638 38.1269 13.807C38.0388 13.6771 37.791 13.174 37.8257 11.674C38.5239 11.7586 39.1928 12.0966 39.6795 12.6765ZM39.3256 16.7215C38.1128 17.7391 36.2983 17.5804 35.2807 16.3676C34.2631 15.1549 34.4218 13.3403 35.6345 12.3226C35.7228 12.2486 35.8153 12.183 35.9094 12.1213C35.9284 13.6209 36.2196 14.6158 36.8035 15.1987C37.1921 15.5873 37.7373 15.7339 38.3398 15.7339C38.9422 15.7339 39.6011 15.5866 40.2175 15.3882C40.0553 15.9045 39.7501 16.3652 39.3256 16.7215Z" fill="#E98C00"/>
<path d="M18.5864 36.8954L13.6463 31.008L16.1402 31.2438C16.6668 31.2931 17.1334 30.9072 17.1831 30.381C17.2329 29.8548 16.8466 29.3879 16.3205 29.3381L11.5243 28.8847C11.383 28.8713 11.2392 28.8824 11.1052 28.9289C10.7321 29.0583 10.4892 29.3888 10.4593 29.7588L10.0712 34.5819C10.05 34.8462 10.1481 35.0946 10.3177 35.2817C10.6622 35.6618 11.2657 35.6986 11.6533 35.3625C11.8345 35.2054 11.959 34.9858 11.9792 34.7354L12.18 32.2383L17.1394 38.1486C17.3287 38.3741 17.5999 38.4904 17.873 38.4904C18.102 38.4904 18.3323 38.4087 18.5167 38.2411C18.9004 37.8924 18.9198 37.2928 18.5864 36.8954Z" fill="#E98C00"/>
<path d="M29.4843 27.4766L34.6895 23.1089C35.0944 22.7691 35.1472 22.1655 34.8075 21.7606C34.4677 21.3557 33.8641 21.3029 33.4592 21.6427L28.254 26.0104C27.8491 26.3501 27.7963 26.9537 28.136 27.3587C28.3253 27.5842 28.5965 27.7005 28.8697 27.7005C29.0866 27.7004 29.305 27.627 29.4843 27.4766Z" fill="#E98C00"/>
<path d="M28.5394 15.7779L23.3341 20.1456C22.9292 20.4854 22.8764 21.089 23.2161 21.4939C23.4054 21.7194 23.6766 21.8357 23.9498 21.8357C24.1668 21.8357 24.3851 21.7622 24.5644 21.6118L29.7696 17.2441C30.1745 16.9043 30.2273 16.3007 29.8876 15.8958C29.5479 15.4909 28.9443 15.4382 28.5394 15.7779Z" fill="#E98C00"/>
<path d="M25.677 24.4262C25.8663 24.6518 26.1376 24.7681 26.4107 24.7681C26.6278 24.7681 26.8461 24.6946 27.0253 24.5442L32.2305 20.1765C32.6354 19.8367 32.6883 19.2331 32.3485 18.8282C32.0088 18.4233 31.4051 18.3705 31.0002 18.7103L25.795 23.078C25.3901 23.4176 25.3373 24.0213 25.677 24.4262Z" fill="#E98C00"/>
<path d="M22.1348 26.1508C21.4142 26.4352 20.741 26.7812 20.1803 26.8112C19.9643 26.8077 19.7598 26.6458 19.6553 26.4657C19.5974 26.366 19.4258 26.0141 19.6479 25.67C19.8683 25.3283 20.2626 25.1441 20.6142 25.0449C21.0444 24.9237 21.3481 24.5408 21.3676 24.0943C21.3978 23.3957 20.7426 22.8742 20.0658 23.0498C19.8578 23.1038 19.6428 23.1791 19.4298 23.2813L19.3411 23.1782C18.9965 22.7775 18.3922 22.732 17.9915 23.0766C17.5907 23.4211 17.5453 24.0255 17.8898 24.4262L18.0505 24.613C18.047 24.6197 18.0429 24.6258 18.0394 24.6326C17.5738 25.512 17.485 26.5394 17.9999 27.4266C18.4721 28.2403 19.2937 28.7174 20.144 28.6717C20.9761 28.6268 21.9305 28.2891 22.8377 27.9309C23.5215 27.661 23.8749 28.0339 24.0247 28.2802C24.2835 28.706 24.2947 29.5146 23.7408 29.9973C23.1564 30.5064 22.9821 30.4939 22.2951 30.5899C21.7532 30.6658 21.3812 31.1814 21.4891 31.7254C21.5892 32.2296 22.0885 32.554 22.5973 32.4803C23.343 32.3723 23.8203 32.1921 24.2951 31.8747L24.4417 32.0452C24.7863 32.4459 25.3906 32.4914 25.7914 32.1468C26.1921 31.8023 26.2375 31.1979 25.893 30.7972L25.6673 30.5348C26.3125 29.4642 26.2034 28.1794 25.66 27.2858C24.9188 26.067 23.502 25.6109 22.1348 26.1508Z" fill="#E98C00"/>
</svg>
