<svg width="50" height="50" viewBox="0 0 50 50" fill="none" xmlns="http://www.w3.org/2000/svg">
<path d="M23.26 42.2247C22.7998 42.2557 22.3314 42.2715 21.868 42.2715C10.6177 42.2714 1.4648 33.1185 1.4648 21.8681C1.4648 10.6178 10.6177 1.4648 21.8681 1.4648C33.1186 1.4648 42.2715 10.6177 42.2715 21.8681C42.2715 23.7197 42.0235 25.5547 41.5346 27.322C41.4268 27.7118 41.6553 28.1153 42.0452 28.2232C42.435 28.3311 42.8386 28.1025 42.9465 27.7126C43.4706 25.8181 43.7364 23.8518 43.7364 21.8681C43.7364 16.027 41.4617 10.5353 37.3314 6.40509C33.2008 2.27474 27.7093 0 21.8681 0C16.027 0 10.5353 2.27474 6.405 6.40509C2.27464 10.5353 0 16.0269 0 21.8681C0 27.7094 2.27464 33.2009 6.405 37.3312C10.5353 41.4615 16.0269 43.7362 21.868 43.7362C22.3641 43.7362 22.8656 43.7194 23.3585 43.6861C23.7621 43.6589 24.0672 43.3097 24.0401 42.9061C24.0128 42.5026 23.665 42.197 23.26 42.2247Z" fill="#E98C00"/>
<path d="M39.4906 25.6449C39.8897 25.7134 40.2677 25.4451 40.336 25.0465C40.5143 24.0036 40.6047 22.934 40.6047 21.8675C40.6047 11.5359 32.1994 3.13062 21.8678 3.13062C11.5363 3.13062 3.13086 11.5359 3.13086 21.8675C3.13086 32.199 11.5362 40.6044 21.8677 40.6044C23.0407 40.6044 24.215 40.4951 25.3581 40.2797C25.7555 40.2048 26.017 39.8219 25.9421 39.4243C25.8672 39.0269 25.4845 38.7654 25.0868 38.8403C24.0329 39.0389 22.9499 39.1396 21.8677 39.1396C12.3439 39.1396 4.59566 31.3913 4.59566 21.8675C4.59566 12.3436 12.344 4.59542 21.8678 4.59542C31.3917 4.59542 39.1399 12.3436 39.1399 21.8675C39.1399 22.8515 39.0565 23.838 38.8922 24.7996C38.8239 25.1984 39.0919 25.5769 39.4906 25.6449Z" fill="#E98C00"/>
<path d="M49.5866 45.4229L39.7742 28.4273C39.2229 27.4724 38.2355 26.9023 37.1329 26.9023C36.0303 26.9023 35.0428 27.4724 34.4916 28.4273L24.6791 45.4229C24.1278 46.3778 24.1278 47.518 24.6791 48.4728C25.2305 49.4278 26.2179 49.9979 27.3205 49.9979H46.9453C48.048 49.9979 49.0354 49.4278 49.5866 48.4728C50.138 47.518 50.138 46.3778 49.5866 45.4229ZM48.3181 47.7405C48.0316 48.2368 47.5184 48.5331 46.9453 48.5331H27.3205C26.7473 48.5331 26.2342 48.2368 25.9477 47.7405C25.6611 47.2442 25.6611 46.6516 25.9477 46.1553L35.7601 29.1597C36.0466 28.6634 36.5598 28.3671 37.1329 28.3671C37.706 28.3671 38.2192 28.6634 38.5057 29.1597L48.3181 46.1553C48.6046 46.6516 48.6046 47.2442 48.3181 47.7405Z" fill="#E98C00"/>
<path d="M37.1133 32.2039C36.7088 32.2039 36.3809 32.5318 36.3809 32.9363V42.3299C36.3809 42.7344 36.7088 43.0623 37.1133 43.0623C37.5177 43.0623 37.8457 42.7344 37.8457 42.3299V32.9363C37.8457 32.5318 37.5177 32.2039 37.1133 32.2039Z" fill="#E98C00"/>
<path d="M24.0455 22.5997H36.7411C37.1456 22.5997 37.4736 22.2718 37.4736 21.8673C37.4736 21.4629 37.1456 21.1349 36.7411 21.1349H24.0455C23.739 20.226 22.8789 19.5694 21.8678 19.5694C21.501 19.5694 21.1541 19.6563 20.8461 19.8099L12.2092 11.173C11.9232 10.887 11.4594 10.887 11.1735 11.173C10.8875 11.459 10.8875 11.9228 11.1735 12.2087L19.8104 20.8456C19.6568 21.1536 19.5699 21.5005 19.5699 21.8673C19.5699 23.1345 20.6008 24.1653 21.8678 24.1653C22.8789 24.1653 23.739 23.5087 24.0455 22.5997ZM21.8679 22.7005C21.4085 22.7005 21.0348 22.3267 21.0348 21.8673C21.0348 21.408 21.4086 21.0342 21.8679 21.0342C22.3273 21.0342 22.7011 21.408 22.7011 21.8673C22.7011 22.3267 22.3273 22.7005 21.8679 22.7005Z" fill="#E98C00"/>
<path d="M9.29219 21.8674C9.29219 21.4629 8.96426 21.135 8.55976 21.135H6.99414C6.58965 21.135 6.26172 21.4629 6.26172 21.8674C6.26172 22.2719 6.58965 22.5999 6.99414 22.5999H8.55976C8.96426 22.5999 9.29219 22.2719 9.29219 21.8674Z" fill="#E98C00"/>
<path d="M22.5996 8.55952V6.9939C22.5996 6.5894 22.2717 6.26147 21.8672 6.26147C21.4627 6.26147 21.1348 6.5894 21.1348 6.9939V8.55952C21.1348 8.96401 21.4627 9.29194 21.8672 9.29194C22.2717 9.29194 22.5996 8.96401 22.5996 8.55952Z" fill="#E98C00"/>
<path d="M21.1348 35.175V36.7407C21.1348 37.1452 21.4627 37.4731 21.8672 37.4731C22.2717 37.4731 22.5996 37.1452 22.5996 36.7407V35.175C22.5996 34.7706 22.2717 34.4426 21.8672 34.4426C21.4627 34.4426 21.1348 34.7706 21.1348 35.175Z" fill="#E98C00"/>
<path d="M14.1889 33.7038L13.7975 34.3818C13.5952 34.732 13.7152 35.18 14.0655 35.3822C14.1809 35.4488 14.3068 35.4805 14.4311 35.4805C14.6842 35.4805 14.9304 35.3491 15.066 35.1142L15.4574 34.4362C15.6597 34.086 15.5397 33.638 15.1894 33.4358C14.8392 33.2333 14.3911 33.3534 14.1889 33.7038Z" fill="#E98C00"/>
<path d="M28.9135 10.3972C29.1666 10.3972 29.4128 10.2658 29.5484 10.0309L29.9398 9.35295C30.1421 9.00266 30.0221 8.55471 29.6718 8.35246C29.3215 8.15012 28.8735 8.27014 28.6713 8.62053L28.2799 9.29846C28.0776 9.64875 28.1977 10.0967 28.548 10.2989C28.6633 10.3655 28.7892 10.3972 28.9135 10.3972Z" fill="#E98C00"/>
<path d="M10.0325 14.188L9.35459 13.7966C9.0043 13.5942 8.55635 13.7142 8.35411 14.0646C8.15186 14.4149 8.27188 14.8629 8.62217 15.0651L9.3001 15.4565C9.41543 15.5231 9.54141 15.5548 9.66563 15.5548C9.91875 15.5548 10.1649 15.4234 10.3006 15.1884C10.5028 14.8382 10.3828 14.3902 10.0325 14.188Z" fill="#E98C00"/>
<path d="M14.8238 10.3972C14.948 10.3972 15.074 10.3655 15.1894 10.2989C15.5397 10.0967 15.6597 9.64875 15.4574 9.29846L15.066 8.62053C14.8638 8.27014 14.4157 8.15012 14.0655 8.35246C13.7152 8.55471 13.5952 9.00266 13.7975 9.35295L14.1889 10.0309C14.3246 10.2658 14.5708 10.3972 14.8238 10.3972Z" fill="#E98C00"/>
<path d="M34.0711 15.5547C34.1953 15.5547 34.3213 15.523 34.4366 15.4564L35.1146 15.065C35.4648 14.8628 35.5849 14.4148 35.3826 14.0646C35.1804 13.7143 34.7323 13.5942 34.3821 13.7965L33.7042 14.1879C33.3539 14.3901 33.2339 14.8381 33.4361 15.1884C33.5719 15.4233 33.8181 15.5547 34.0711 15.5547Z" fill="#E98C00"/>
<path d="M8.98907 30.0364C9.11328 30.0364 9.23926 30.0048 9.35459 29.9382L10.0325 29.5468C10.3828 29.3446 10.5028 28.8966 10.3006 28.5463C10.0983 28.1959 9.6502 28.0759 9.3001 28.2782L8.62217 28.6696C8.27188 28.8719 8.15186 29.3198 8.35411 29.6701C8.48975 29.905 8.73594 30.0364 8.98907 30.0364Z" fill="#E98C00"/>
<path d="M37.1133 46.1934C37.5178 46.1934 37.8457 45.8654 37.8457 45.4609C37.8457 45.0564 37.5178 44.7285 37.1133 44.7285C36.7088 44.7285 36.3809 45.0564 36.3809 45.4609C36.3809 45.8654 36.7088 46.1934 37.1133 46.1934Z" fill="#E98C00"/>
</svg>
