<svg width="55" height="49" viewBox="0 0 55 49" fill="none" xmlns="http://www.w3.org/2000/svg">
<path d="M9.40807 11.1826C8.96285 11.1826 8.60156 11.5435 8.60156 11.9891V15.43C8.60156 15.8756 8.96285 16.2365 9.40807 16.2365H19.7307C20.1759 16.2365 20.5372 15.8756 20.5372 15.43V11.9891C20.5372 11.5435 20.1759 11.1826 19.7307 11.1826H9.40807ZM18.9242 14.6235H10.2146V12.7956H18.9242V14.6235Z" fill="#E98C00"/>
<path d="M23.0396 31.7097C23.0836 31.7168 23.1277 31.7206 23.1722 31.7206C23.2468 31.7206 23.3215 31.7101 23.3937 31.6896L29.4152 29.9691C29.4631 29.9553 29.5096 29.9372 29.5545 29.915L34.7158 27.3343C34.989 27.1976 35.1615 26.9185 35.1615 26.613C35.1615 25.9958 34.9122 25.196 34.3013 24.6631V9.80312C34.3013 9.35748 33.9404 8.99661 33.4948 8.99661C33.0495 8.99661 32.6883 9.35748 32.6883 9.80312V24.0873C32.6702 24.0873 32.653 24.0861 32.6345 24.0861C30.9653 24.0861 28.803 25.3596 28.0955 25.8065H24.3152L22.0304 23.9787H25.7528C26.198 23.9787 26.5593 23.6178 26.5593 23.1722V21.4517C26.5593 20.0582 25.4255 18.9248 24.0324 18.9248H16.2904C16.0764 18.9248 15.8712 19.0095 15.7202 19.161L12.5155 22.3656H11.0754V22.3119C11.0754 21.8663 10.7141 21.5054 10.2689 21.5054H6.77432V1.61301H16.3441V7.68824C16.3441 8.22913 16.8917 8.62441 17.4058 8.45321L19.7313 7.67817L22.0568 8.45321C22.5708 8.62441 23.1184 8.22913 23.1184 7.68824V1.61301H32.6883V5.93214C32.6883 6.37736 33.0491 6.73823 33.4948 6.73823C33.9404 6.73823 34.3013 6.37736 34.3013 5.93214V0.806506C34.3013 0.360872 33.9404 0 33.4948 0H5.96781C5.52259 0 5.1613 0.360872 5.1613 0.806506V21.5054H0.806506C0.360872 21.5054 0 21.8663 0 22.3119C0 22.7576 0.360872 23.1184 0.806506 23.1184H9.46239V30.1076H0.806506C0.360872 30.1076 0 30.4685 0 30.9141C0 31.3597 0.360872 31.7206 0.806506 31.7206H10.2689C10.7141 31.7206 11.0754 31.3597 11.0754 30.9141V30.0002H12.7824L23.0396 31.7097ZM21.5054 1.61301V6.56954L19.9864 6.06306C19.8219 6.00809 19.6406 6.00809 19.4762 6.06306L17.9571 6.56954V1.61301H21.5054ZM11.0754 23.9787H12.8495C13.0615 23.9787 13.2692 23.8914 13.4198 23.7424L16.6244 20.5378H24.0324C24.5363 20.5378 24.9463 20.9478 24.9463 21.4517V22.3656H19.7313C19.3989 22.3656 19.096 22.578 18.9776 22.8868C18.8555 23.2061 18.9571 23.5897 19.2273 23.802L23.5284 27.2429C23.6715 27.357 23.8494 27.4195 24.0324 27.4195H28.3335C28.4925 27.4195 28.6482 27.3725 28.7808 27.284C29.4421 26.843 31.4235 25.6991 32.6345 25.6991C33.1104 25.6991 33.3433 25.9165 33.4541 26.1619L28.8999 28.4388L23.1256 30.0887L12.9821 28.3981C12.9742 28.3968 12.9666 28.3964 12.9591 28.3956C12.9444 28.3935 12.9301 28.3918 12.9158 28.3905C12.9016 28.3893 12.8873 28.3888 12.8735 28.3884C12.8655 28.388 12.8575 28.3872 12.8495 28.3872H11.0754V23.9787Z" fill="#F0F8F7"/>
<path d="M54.1397 44.6777H45.5375C45.5283 44.6777 45.5195 44.679 45.5102 44.679C45.496 44.6794 45.4817 44.6802 45.4674 44.6811C45.4515 44.6828 45.436 44.6844 45.4204 44.6865C45.4121 44.6878 45.4041 44.6882 45.3961 44.6895L35.2649 46.378L29.5064 44.7327L25.0039 42.4814C25.1193 42.2632 25.3417 42.0971 25.7525 42.0971C26.9455 42.0971 28.9177 43.2351 29.5765 43.6732C29.7175 43.7671 29.8837 43.8175 30.0536 43.8175H34.3547C34.4751 43.8175 34.5943 43.7923 34.7042 43.7432L42.4307 40.3095C42.8046 40.1492 43.0228 39.7367 42.938 39.3377C42.8536 38.9394 42.4856 38.6482 42.0782 38.6562H37.7956V37.796C37.7956 37.3218 38.1816 36.9358 38.6558 36.9358H46.0415L49.2302 40.1249C49.3905 40.2839 49.6129 40.3766 49.8386 40.3766H54.1397C54.6147 40.3766 54.9999 39.9914 54.9999 39.5164C54.9999 39.0414 54.6147 38.6562 54.1397 38.6562H50.1949L47.0062 35.4675C46.8446 35.306 46.626 35.2153 46.3977 35.2153H38.6558C37.2329 35.2153 36.0751 36.3731 36.0751 37.796V39.5164C36.0751 39.9914 36.4603 40.3766 36.9354 40.3766H38.0431L37.7469 40.5084H35.4684C34.7437 40.0519 32.5864 38.788 30.9138 38.788C29.2056 38.788 28.4792 40.0443 28.3537 41.0518C27.5225 40.6851 26.5783 40.3766 25.7525 40.3766C23.8592 40.3766 23.1719 41.92 23.1719 42.9573C23.1719 43.2833 23.3561 43.5808 23.6473 43.7269L28.8086 46.3075C28.856 46.3314 28.906 46.3503 28.9572 46.365L34.9787 48.0854C35.0559 48.1077 35.1352 48.1186 35.2149 48.1186C35.2619 48.1186 35.3093 48.1148 35.3563 48.1073L45.6089 46.3982H54.1397C54.6147 46.3982 54.9999 46.0129 54.9999 45.5379C54.9999 45.0629 54.6147 44.6777 54.1397 44.6777ZM30.1778 40.8932C30.2731 40.7027 30.4346 40.5084 30.9138 40.5084C31.9943 40.5084 33.7139 41.4416 34.5183 41.9435L34.1722 42.0971H32.3451C32.2658 41.9846 32.1588 41.8894 32.0271 41.8235L30.1753 40.8978C30.1761 40.8961 30.177 40.8944 30.1778 40.8932Z" fill="#F0F8F7"/>
</svg>
