<svg width="47" height="47" viewBox="0 0 47 47" fill="none" xmlns="http://www.w3.org/2000/svg">
<path d="M15.0874 35.6841C15.0874 34.4407 14.0927 33.446 12.8494 33.446C11.606 33.446 10.6113 34.4407 10.6113 35.6841C10.6113 36.9275 11.606 37.9221 12.8494 37.9221C14.0513 37.9221 15.046 36.9275 15.0874 35.6841ZM12.0205 35.6841C12.0205 35.2282 12.3935 34.8966 12.8079 34.8966C13.2224 34.8966 13.5954 35.2696 13.5954 35.6841C13.5954 36.0985 13.2224 36.4716 12.8079 36.4716C12.3935 36.4716 12.0205 36.14 12.0205 35.6841Z" fill="#E98C00"/>
<path d="M42.4404 22.7949H12.0609C10.3617 22.7949 8.95254 21.4687 8.95254 19.7694C8.95254 18.0287 10.3202 16.6196 12.0609 16.661H34.8559C37.3426 16.661 39.3734 14.6302 39.3734 12.1435C39.3734 4.97344 39.3734 4.60044 39.3734 0.746017C39.3734 0.331563 39.0419 0 38.6274 0C38.213 0 37.9229 0.331563 37.9229 0.746017V4.55899C37.9229 6.25825 36.5552 7.62595 34.8559 7.62595H8.24797C3.64754 7.66739 -0.0410995 11.3975 0.000345863 15.9979C0.0417912 20.5569 3.73043 24.2455 8.24797 24.2455H42.4404C44.1397 24.2455 45.5488 25.5718 45.5488 27.271C45.5488 29.0118 44.1811 30.4209 42.4404 30.3795H27.2714C24.7847 30.3795 22.7538 32.4103 22.7538 34.897C22.7538 37.3837 24.7847 39.4145 27.2714 39.4145H34.8559C36.5552 39.4145 37.9643 40.7408 37.9643 42.4401C37.9643 44.1808 36.5966 45.5899 34.8559 45.5485H14.2161C15.5838 43.5176 18.112 39.2073 18.112 35.643C18.112 32.7418 15.7496 30.338 12.807 30.338C9.86434 30.338 7.50196 32.7004 7.50196 35.643C7.50196 40.4092 12.0195 46.4603 12.1853 46.7089C12.3096 46.8747 12.5168 46.999 12.7655 46.999H34.8145C37.3012 47.0405 39.3734 45.0097 39.3734 42.5229C39.4149 40.0362 37.3841 37.964 34.8973 37.964C34.1513 37.964 37.6327 37.964 27.2299 37.964C25.5307 37.964 24.163 36.5963 24.163 34.897C24.163 33.1977 25.5307 31.83 27.2299 31.83H42.4404C44.9271 31.8715 46.9994 29.8407 46.9994 27.3539C47.0408 24.8672 44.9686 22.7949 42.4404 22.7949ZM1.40949 15.9565C1.40949 12.1435 4.47645 9.07654 8.28942 9.07654H34.8973C36.0578 9.07654 37.1354 8.66208 37.9643 7.87462V12.1435C37.9643 13.8428 36.5966 15.2104 34.8973 15.2104H12.1024C9.61567 15.2104 7.58485 17.2413 7.58485 19.728C7.58485 20.8885 7.9993 21.966 8.78676 22.7949H8.28942C4.47645 22.7949 1.40949 19.728 1.40949 15.9565ZM12.807 31.8715C14.9207 31.8715 16.6199 33.5707 16.6614 35.7259C16.6614 39.0415 14.0089 43.3104 12.807 45.0926C11.605 43.3104 8.99399 39.0415 8.99399 35.7259C8.99399 33.5707 10.6932 31.8715 12.807 31.8715Z" fill="#F0F8F7"/>
</svg>
