<svg width="66" height="69" viewBox="0 0 66 69" fill="none" xmlns="http://www.w3.org/2000/svg">
<path d="M27.4929 42.8242H37.7066C37.9225 42.8242 38.1296 42.7352 38.2823 42.5767C38.435 42.4183 38.5208 42.2033 38.5208 41.9792C38.5208 41.7551 38.435 41.5402 38.2823 41.3818C38.1296 41.2233 37.9225 41.1343 37.7066 41.1343H27.4929C27.277 41.1343 27.0699 41.2233 26.9172 41.3818C26.7645 41.5402 26.6787 41.7551 26.6787 41.9792C26.6787 42.2033 26.7645 42.4183 26.9172 42.5767C27.0699 42.7352 27.277 42.8242 27.4929 42.8242Z" fill="#E98C00"/>
<path d="M25.4208 41.9792C25.4208 41.7551 25.335 41.5402 25.1823 41.3818C25.0296 41.2233 24.8225 41.1343 24.6066 41.1343H19.5095C19.2936 41.1343 19.0865 41.2233 18.9338 41.3818C18.7811 41.5402 18.6953 41.7551 18.6953 41.9792C18.6953 42.2033 18.7811 42.4183 18.9338 42.5767C19.0865 42.7352 19.2936 42.8242 19.5095 42.8242H24.6073C24.8231 42.824 25.03 42.7349 25.1825 42.5765C25.3351 42.418 25.4208 42.2032 25.4208 41.9792Z" fill="#E98C00"/>
<path d="M13.282 42.8242H16.6944C16.9103 42.8242 17.1174 42.7352 17.2701 42.5767C17.4228 42.4183 17.5085 42.2033 17.5085 41.9792C17.5085 41.7551 17.4228 41.5402 17.2701 41.3818C17.1174 41.2233 16.9103 41.1343 16.6944 41.1343H13.282C13.066 41.1343 12.8589 41.2233 12.7062 41.3818C12.5536 41.5402 12.4678 41.7551 12.4678 41.9792C12.4678 42.2033 12.5536 42.4183 12.7062 42.5767C12.8589 42.7352 13.066 42.8242 13.282 42.8242Z" fill="#E98C00"/>
<path d="M35.658 37.751H37.707C37.923 37.751 38.1301 37.6619 38.2828 37.5034C38.4355 37.3449 38.5212 37.1299 38.5212 36.9058C38.5212 36.6816 38.4355 36.4666 38.2828 36.3081C38.1301 36.1496 37.923 36.0605 37.707 36.0605H35.658C35.442 36.0605 35.2349 36.1496 35.0822 36.3081C34.9295 36.4666 34.8438 36.6816 34.8438 36.9058C34.8438 37.1299 34.9295 37.3449 35.0822 37.5034C35.2349 37.6619 35.442 37.751 35.658 37.751Z" fill="#E98C00"/>
<path d="M28.237 37.751H32.8653C33.0812 37.751 33.2883 37.6619 33.441 37.5034C33.5937 37.3449 33.6794 37.1299 33.6794 36.9058C33.6794 36.6816 33.5937 36.4666 33.441 36.3081C33.2883 36.1496 33.0812 36.0605 32.8653 36.0605H28.237C28.0211 36.0605 27.814 36.1496 27.6613 36.3081C27.5086 36.4666 27.4229 36.6816 27.4229 36.9058C27.4229 37.1299 27.5086 37.3449 27.6613 37.5034C27.814 37.6619 28.0211 37.751 28.237 37.751Z" fill="#E98C00"/>
<path d="M13.282 37.751H25.4149C25.6309 37.751 25.838 37.6619 25.9907 37.5034C26.1433 37.3449 26.2291 37.1299 26.2291 36.9058C26.2291 36.6816 26.1433 36.4666 25.9907 36.3081C25.838 36.1496 25.6309 36.0605 25.4149 36.0605H13.282C13.066 36.0605 12.8589 36.1496 12.7062 36.3081C12.5536 36.4666 12.4678 36.6816 12.4678 36.9058C12.4678 37.1299 12.5536 37.3449 12.7062 37.5034C12.8589 37.6619 13.066 37.751 13.282 37.751Z" fill="#E98C00"/>
<path d="M37.7063 46.2075H31.7029C31.4869 46.2075 31.2798 46.2965 31.1271 46.455C30.9745 46.6135 30.8887 46.8284 30.8887 47.0525C30.8887 47.2766 30.9745 47.4915 31.1271 47.65C31.2798 47.8084 31.4869 47.8975 31.7029 47.8975H37.7063C37.9223 47.8975 38.1293 47.8084 38.282 47.65C38.4347 47.4915 38.5205 47.2766 38.5205 47.0525C38.5205 46.8284 38.4347 46.6135 38.282 46.455C38.1293 46.2965 37.9223 46.2075 37.7063 46.2075Z" fill="#E98C00"/>
<path d="M28.9052 46.2075H24.3904C24.1744 46.2075 23.9673 46.2965 23.8146 46.455C23.662 46.6135 23.5762 46.8284 23.5762 47.0525C23.5762 47.2766 23.662 47.4915 23.8146 47.65C23.9673 47.8084 24.1744 47.8975 24.3904 47.8975H28.9052C29.1211 47.8975 29.3282 47.8084 29.4809 47.65C29.6336 47.4915 29.7194 47.2766 29.7194 47.0525C29.7194 46.8284 29.6336 46.6135 29.4809 46.455C29.3282 46.2965 29.1211 46.2075 28.9052 46.2075Z" fill="#E98C00"/>
<path d="M22.2936 47.0525C22.2936 46.8284 22.2078 46.6135 22.0551 46.455C21.9024 46.2965 21.6953 46.2075 21.4794 46.2075H13.282C13.066 46.2075 12.8589 46.2965 12.7062 46.455C12.5536 46.6135 12.4678 46.8284 12.4678 47.0525C12.4678 47.2766 12.5536 47.4915 12.7062 47.65C12.8589 47.8084 13.066 47.8975 13.282 47.8975H21.4794C21.6953 47.8975 21.9024 47.8084 22.0551 47.65C22.2078 47.4915 22.2936 47.2766 22.2936 47.0525Z" fill="#E98C00"/>
<path d="M1.1711 68.4741H50.3622C50.4686 68.4755 50.5743 68.4551 50.6731 68.414C50.7719 68.3728 50.8619 68.3119 50.938 68.2345L60.1453 58.6597C60.2187 58.5811 60.2763 58.488 60.3146 58.386C60.3529 58.2839 60.3711 58.1749 60.3683 58.0654V10.6781C60.3716 10.5697 60.3537 10.4617 60.3158 10.3606C60.2779 10.2596 60.2207 10.1675 60.1477 10.09C60.0746 10.0124 59.9872 9.95106 59.8907 9.90951C59.7942 9.86797 59.6907 9.84712 59.5862 9.84822H10.3951C10.2887 9.84677 10.183 9.86719 10.0842 9.90831C9.98541 9.94942 9.8954 10.0104 9.81937 10.0878L0.611474 19.6628C0.538162 19.7415 0.480721 19.8345 0.442526 19.9365C0.404332 20.0385 0.386155 20.1474 0.389063 20.2568V67.6441C0.385745 67.7526 0.403577 67.8605 0.441485 67.9616C0.479393 68.0627 0.536594 68.1548 0.609649 68.2323C0.682704 68.3098 0.770102 68.3712 0.866588 68.4128C0.963074 68.4543 1.06665 68.4752 1.1711 68.4741ZM31.4643 66.7829H20.2012V56.8898L20.8823 57.6707C20.9544 57.7527 21.042 57.8185 21.1396 57.8638C21.2372 57.9091 21.3428 57.933 21.4498 57.9341C21.5579 57.9346 21.6649 57.9123 21.7646 57.8687C21.8642 57.8252 21.9543 57.7611 22.0295 57.6804L23.6307 55.9815L25.213 57.677C25.2887 57.7583 25.3794 57.8229 25.4796 57.867C25.5799 57.9111 25.6876 57.9338 25.7965 57.9338C25.9054 57.9338 26.0131 57.9111 26.1134 57.867C26.2136 57.8229 26.3043 57.7583 26.38 57.677L27.9632 55.9815L29.5677 57.6658C29.6443 57.744 29.7352 57.8055 29.8351 57.8465C29.935 57.8875 30.0418 57.9072 30.1492 57.9045H30.1558C30.2652 57.9067 30.3738 57.8858 30.4751 57.843C30.5764 57.8003 30.6682 57.7365 30.7451 57.6558L31.4643 56.8898V66.7829ZM58.7399 57.7152L51.1407 65.6028V20.6171L58.7399 12.7295V57.7152ZM57.6316 11.5393L50.0255 19.4313H27.7133L35.3276 11.5393H57.6316ZM31.8714 21.1224V28.3097H19.6584V21.1224H31.8714ZM2.01746 21.1224H9.34523C9.56117 21.1224 9.76826 21.0333 9.92096 20.8748C10.0736 20.7162 10.1594 20.5011 10.1594 20.2769C10.1594 20.0526 10.0736 19.8375 9.92096 19.6789C9.76826 19.5204 9.56117 19.4313 9.34523 19.4313H3.11744L10.7318 11.5393H33.0248L25.4104 19.4313H14.7732C14.5573 19.4313 14.3502 19.5204 14.1975 19.6789C14.0448 19.8375 13.959 20.0526 13.959 20.2769C13.959 20.5011 14.0448 20.7162 14.1975 20.8748C14.3502 21.0333 14.5573 21.1224 14.7732 21.1224H18.03V29.0976C18.0328 29.3303 18.1208 29.5531 18.276 29.7208C18.4313 29.8886 18.6422 29.9887 18.8659 30.0008H32.7234C33.173 30.0008 33.4998 29.5647 33.4998 29.0976V21.1224H49.5123V66.7829H33.0927V54.7707C33.0914 54.6012 33.0415 54.4359 32.9493 54.296C32.8571 54.1561 32.7268 54.0479 32.5751 53.9854C32.4234 53.9229 32.2571 53.9088 32.0976 53.945C31.9381 53.9812 31.7927 54.066 31.6799 54.1885L30.1409 55.8706L28.5421 54.1953C28.4654 54.1173 28.3743 54.0562 28.2743 54.0155C28.1744 53.9748 28.0675 53.9555 27.9602 53.9585H27.9581C27.8505 53.9556 27.7434 53.9753 27.6434 54.0165C27.5433 54.0576 27.4523 54.1194 27.3759 54.1981L25.7947 55.8823L24.2134 54.1861C24.1379 54.1048 24.0476 54.0401 23.9476 53.9956C23.8476 53.9512 23.7401 53.9279 23.6314 53.9272C23.4124 53.928 23.2027 54.0188 23.0479 54.1796L21.4496 55.8708L19.912 54.1881C19.8066 54.0661 19.6673 53.9811 19.5133 53.9447C19.3594 53.9083 19.1984 53.9223 19.0525 53.9849C18.905 54.0495 18.78 54.1594 18.6942 54.2998C18.6085 54.4403 18.5661 54.6045 18.5728 54.7707V66.7829H2.01746V21.1224Z" fill="#E98C00"/>
<path d="M5.27411 24.7998C5.05818 24.7998 4.8511 24.8889 4.69842 25.0475C4.54574 25.2061 4.45996 25.4213 4.45996 25.6456V26.5336C4.45996 26.7579 4.54574 26.9731 4.69842 27.1317C4.8511 27.2903 5.05818 27.3794 5.27411 27.3794C5.49003 27.3794 5.69712 27.2903 5.8498 27.1317C6.00248 26.9731 6.08826 26.7579 6.08826 26.5336V25.6456C6.08826 25.4213 6.00248 25.2061 5.8498 25.0475C5.69712 24.8889 5.49003 24.7998 5.27411 24.7998Z" fill="#E98C00"/>
<path d="M5.27411 28.3647C5.05818 28.3647 4.8511 28.4538 4.69842 28.6124C4.54574 28.771 4.45996 28.9861 4.45996 29.2103V39.921C4.45996 40.1453 4.54574 40.3604 4.69842 40.5189C4.8511 40.6775 5.05818 40.7666 5.27411 40.7666C5.49003 40.7666 5.69712 40.6775 5.8498 40.5189C6.00248 40.3604 6.08826 40.1453 6.08826 39.921V29.2103C6.08826 28.9861 6.00248 28.771 5.8498 28.6124C5.69712 28.4538 5.49003 28.3647 5.27411 28.3647Z" fill="#E98C00"/>
<path fill-rule="evenodd" clip-rule="evenodd" d="M64.2858 16.323L51.8875 3L39.4893 16.323H44.4916V30.4534H60.3684V16.323H64.2858Z" fill="#F0F8F7"/>
<path d="M65.0865 13.6301L52.6854 0.721212C52.4916 0.519542 52.2288 0.40625 51.9548 0.40625C51.6807 0.40625 51.4179 0.519542 51.2241 0.721212L38.8231 13.6301C38.6786 13.7805 38.5802 13.9722 38.5404 14.1808C38.5005 14.3895 38.521 14.6057 38.5992 14.8023C38.6774 14.9988 38.8098 15.1668 38.9797 15.285C39.1496 15.4032 39.3494 15.4663 39.5537 15.4664H42.654V29.1369C42.6562 30.0754 43.0153 30.9748 43.6528 31.6385C44.2903 32.3021 45.1544 32.6759 46.056 32.6782H57.8535C58.7551 32.6759 59.6192 32.3021 60.2567 31.6385C60.8943 30.9748 61.2534 30.0754 61.2556 29.1369V15.4664H64.3558C64.5602 15.4663 64.76 15.4032 64.9299 15.285C65.0998 15.1668 65.2322 14.9988 65.3104 14.8023C65.3886 14.6057 65.409 14.3895 65.3692 14.1808C65.3293 13.9722 65.2309 13.7805 65.0865 13.6301ZM52.9882 24.3649V25.148C52.9882 25.4333 52.8793 25.707 52.6855 25.9087C52.4917 26.1104 52.2289 26.2238 51.9548 26.2238C51.6807 26.2238 51.4178 26.1104 51.224 25.9087C51.0302 25.707 50.9214 25.4333 50.9214 25.148V24.38H49.7402C49.4661 24.38 49.2032 24.2666 49.0094 24.0649C48.8156 23.8631 48.7067 23.5895 48.7067 23.3042C48.7067 23.0189 48.8156 22.7453 49.0094 22.5436C49.2032 22.3418 49.4661 22.2285 49.7402 22.2285H52.8404C53.1537 22.2285 53.4541 22.0989 53.6757 21.8684C53.8972 21.6378 54.0216 21.325 54.0216 20.9989C54.0216 20.6728 53.8972 20.3601 53.6757 20.1295C53.4541 19.8989 53.1537 19.7693 52.8404 19.7693H51.0691C50.2245 19.7652 49.4148 19.4182 48.8121 18.8022C48.2095 18.1861 47.8615 17.3496 47.8423 16.4707C47.823 15.5917 48.134 14.7395 48.709 14.0955C49.2841 13.4515 50.0778 13.0665 50.9214 13.0223V12.2392C50.9214 11.9539 51.0302 11.6802 51.224 11.4785C51.4178 11.2768 51.6807 11.1634 51.9548 11.1634C52.2289 11.1634 52.4917 11.2768 52.6855 11.4785C52.8793 11.6802 52.9882 11.9539 52.9882 12.2392V13.0072H54.1694C54.4435 13.0072 54.7063 13.1206 54.9001 13.3223C55.0939 13.5241 55.2028 13.7977 55.2028 14.083C55.2028 14.3683 55.0939 14.6419 54.9001 14.8436C54.7063 15.0454 54.4435 15.1587 54.1694 15.1587H51.0691C50.7559 15.1587 50.4554 15.2883 50.2339 15.5189C50.0124 15.7494 49.8879 16.0622 49.8879 16.3883C49.8879 16.7144 50.0124 17.0271 50.2339 17.2577C50.4554 17.4883 50.7559 17.6179 51.0691 17.6179H52.8404C53.685 17.622 54.4948 17.969 55.0974 18.585C55.7001 19.2011 56.048 20.0376 56.0673 20.9166C56.0865 21.7955 55.7755 22.6477 55.2005 23.2917C54.6255 23.9357 53.8318 24.3207 52.9882 24.3649Z" fill="#E98C00"/>
</svg>
