<svg width="53" height="63" viewBox="0 0 53 63" fill="none" xmlns="http://www.w3.org/2000/svg">
<path d="M41.1618 61.7427C41.0898 61.7427 41.0187 61.7253 40.9543 61.6916L29.8114 55.8573C29.7343 55.8169 29.6694 55.7548 29.624 55.6779C29.5787 55.6011 29.5546 55.5125 29.5547 55.4221V42.2948C29.5547 42.2018 29.5802 42.1107 29.6282 42.0323C29.6761 41.954 29.7446 41.8917 29.8254 41.8529L40.9682 36.5047C41.0289 36.4756 41.095 36.4604 41.1618 36.4604C41.2286 36.4604 41.2947 36.4756 41.3554 36.5047L52.4982 41.8529C52.579 41.8917 52.6475 41.954 52.6954 42.0323C52.7434 42.1107 52.7689 42.2018 52.7689 42.2948V55.4221C52.769 55.5125 52.745 55.6011 52.6996 55.6779C52.6543 55.7548 52.5893 55.8169 52.5122 55.8573L41.3693 61.6916C41.3049 61.7253 41.2338 61.7427 41.1618 61.7427ZM30.4833 55.1217L41.1618 60.7129L51.8404 55.1217V42.607L41.1618 37.4815L30.4833 42.607V55.1217Z" fill="#E98C00"/>
<path d="M40.7266 48.126H41.6552V61.2539H40.7266V48.126Z" fill="#E98C00"/>
<path d="M41.159 48.6338C41.087 48.6339 41.0159 48.6164 40.9515 48.5827L29.8086 42.7482L30.2237 41.8779L41.159 47.604L52.0943 41.8779L52.5094 42.7482L41.3665 48.5827C41.3021 48.6164 41.231 48.6339 41.159 48.6338Z" fill="#E98C00"/>
<path d="M35.3945 44.7693L46.066 38.9296L46.4961 39.7915L35.8247 45.6312L35.3945 44.7693Z" fill="#E98C00"/>
<path d="M43.4941 34.5269H42.5656V11.1893C42.5646 10.287 42.2219 9.42188 41.6126 8.78384C41.0033 8.14581 40.1772 7.78691 39.3156 7.78588H33.7441V6.81348H39.3156C40.4234 6.81476 41.4855 7.2762 42.2689 8.09654C43.0523 8.91688 43.4929 10.0291 43.4941 11.1893V34.5269Z" fill="#E98C00"/>
<path d="M35.0935 62.2407H4.9149C3.80709 62.2393 2.74504 61.7778 1.9617 60.9575C1.17835 60.1372 0.73768 59.025 0.736328 57.8649V11.1893C0.73768 10.0292 1.17835 8.91701 1.9617 8.09669C2.74504 7.27637 3.80709 6.81489 4.9149 6.81348H10.9506V7.78588H4.9149C4.05325 7.78691 3.22717 8.14582 2.61789 8.78386C2.00861 9.42191 1.66588 10.287 1.6649 11.1893V57.8649C1.66588 58.7672 2.00861 59.6323 2.61789 60.2703C3.22717 60.9084 4.05325 61.2673 4.9149 61.2683H35.0935V62.2407Z" fill="#E98C00"/>
<path d="M39.7799 34.5049H38.8513V12.1399H33.7441V11.1675H39.3156C39.4388 11.1675 39.5568 11.2187 39.6439 11.3099C39.731 11.4011 39.7799 11.5247 39.7799 11.6537V34.5049Z" fill="#E98C00"/>
<path d="M28.5608 58.3291H4.88225C4.75912 58.3291 4.64102 58.2779 4.55395 58.1867C4.46688 58.0955 4.41797 57.9718 4.41797 57.8429V11.6537C4.41797 11.5247 4.46688 11.4011 4.55395 11.3099C4.64102 11.2187 4.75912 11.1675 4.88225 11.1675H10.4537V12.1399H5.34654V57.3567H28.5608V58.3291Z" fill="#E98C00"/>
<path d="M31.3248 12.6416H12.7533C12.6302 12.6416 12.5121 12.5904 12.425 12.4992C12.338 12.408 12.2891 12.2843 12.2891 12.1554V8.75188C12.29 7.84953 12.6328 6.98443 13.2421 6.34637C13.8513 5.70831 14.6774 5.3494 15.5391 5.34837H18.3248C18.4479 5.34837 18.566 5.29714 18.6531 5.20596C18.7401 5.11478 18.7891 4.99111 18.7891 4.86215V3.40351C18.7891 2.50084 19.1315 1.63515 19.741 0.996864C20.3505 0.358583 21.1771 0 22.0391 0C22.901 0 23.7277 0.358583 24.3372 0.996864C24.9467 1.63515 25.2891 2.50084 25.2891 3.40351V4.86215C25.2891 4.99111 25.338 5.11478 25.425 5.20596C25.5121 5.29714 25.6302 5.34837 25.7533 5.34837H28.5391C29.4007 5.3494 30.2268 5.70831 30.8361 6.34637C31.4454 6.98443 31.7881 7.84953 31.7891 8.75188V12.1554C31.7891 12.2843 31.7401 12.408 31.6531 12.4992C31.566 12.5904 31.4479 12.6416 31.3248 12.6416ZM13.2176 11.6692H30.8605V8.75188C30.8598 8.10735 30.6149 7.48945 30.1797 7.0337C29.7446 6.57795 29.1545 6.32157 28.5391 6.3208H25.7533C25.3839 6.3208 25.0297 6.16712 24.7684 5.89357C24.5072 5.62002 24.3605 5.24901 24.3605 4.86215V3.40351C24.3605 2.75875 24.1159 2.14039 23.6806 1.68448C23.2452 1.22856 22.6547 0.972431 22.0391 0.972431C21.4234 0.972431 20.8329 1.22856 20.3976 1.68448C19.9622 2.14039 19.7176 2.75875 19.7176 3.40351V4.86215C19.7176 5.24901 19.5709 5.62002 19.3097 5.89357C19.0485 6.16712 18.6942 6.3208 18.3248 6.3208H15.5391C14.9236 6.32157 14.3336 6.57795 13.8984 7.0337C13.4632 7.48945 13.2184 8.10735 13.2176 8.75188V11.6692Z" fill="#E98C00"/>
<path d="M22.0609 4.87744C21.7854 4.87744 21.5161 4.79189 21.287 4.6316C21.0579 4.47131 20.8794 4.24349 20.774 3.97694C20.6686 3.71039 20.641 3.41708 20.6947 3.13412C20.7485 2.85115 20.8811 2.59123 21.0759 2.38722C21.2707 2.18321 21.5189 2.04428 21.7891 1.98799C22.0593 1.93171 22.3394 1.96059 22.5939 2.071C22.8484 2.18141 23.0659 2.36838 23.219 2.60827C23.372 2.84816 23.4537 3.13019 23.4537 3.4187C23.4537 3.80558 23.307 4.17662 23.0458 4.45019C22.7846 4.72375 22.4303 4.87744 22.0609 4.87744ZM22.0609 2.93245C21.969 2.93245 21.8793 2.96097 21.8029 3.0144C21.7266 3.06783 21.667 3.14377 21.6319 3.23262C21.5968 3.32147 21.5876 3.41924 21.6055 3.51356C21.6234 3.60789 21.6676 3.69453 21.7325 3.76253C21.7975 3.83053 21.8802 3.87684 21.9703 3.89561C22.0603 3.91437 22.1537 3.90474 22.2385 3.86793C22.3234 3.83113 22.3959 3.76881 22.4469 3.68885C22.4979 3.60888 22.5251 3.51487 22.5251 3.4187C22.5251 3.28974 22.4762 3.16606 22.3892 3.07487C22.3021 2.98368 22.184 2.93245 22.0609 2.93245Z" fill="#E98C00"/>
<path d="M10.9198 22.356C10.7967 22.3559 10.6786 22.3047 10.5915 22.2135L8.73438 20.2686L9.39088 19.581L10.9198 21.1822L14.7701 17.1499L15.4266 17.8374L11.248 22.2135C11.161 22.3047 11.0429 22.3559 10.9198 22.356Z" fill="#E98C00"/>
<path d="M18.8906 20.4072H35.1406V21.3794H18.8906V20.4072Z" fill="#E98C00"/>
<path d="M10.9198 32.5591C10.7967 32.5591 10.6786 32.5078 10.5915 32.4166L8.73438 30.4719L9.39088 29.7844L10.9198 31.3854L14.7701 27.3535L15.4266 28.041L11.248 32.4166C11.161 32.5078 11.0429 32.5591 10.9198 32.5591Z" fill="#E98C00"/>
<path d="M18.8906 30.644H35.1406V31.6157H18.8906V30.644Z" fill="#E98C00"/>
<path d="M10.9198 42.7959C10.7967 42.7959 10.6786 42.7446 10.5915 42.6534L8.73438 40.7087L9.39088 40.0212L10.9198 41.6223L14.7701 37.5903L15.4266 38.2778L11.248 42.6534C11.161 42.7446 11.0429 42.7959 10.9198 42.7959Z" fill="#E98C00"/>
<path d="M18.8906 40.8477H27.2478V41.8198H18.8906V40.8477Z" fill="#E98C00"/>
<path d="M10.9198 52.9995C10.7967 52.9995 10.6786 52.9482 10.5915 52.8571L8.73438 50.9123L9.39088 50.2249L10.9198 51.8259L14.7701 47.7939L15.4266 48.4814L11.248 52.8571C11.161 52.9482 11.0429 52.9995 10.9198 52.9995Z" fill="#E98C00"/>
<path d="M18.8906 51.0513H27.2478V52.0229H18.8906V51.0513Z" fill="#E98C00"/>
</svg>
