<svg width="21" height="21" viewBox="0 0 21 21" fill="none" xmlns="http://www.w3.org/2000/svg">
<path d="M18.1701 -0.00012207H2.82981C1.26698 -0.00012207 0 1.2668 0 2.82967V18.17C0 19.7329 1.26693 20.9998 2.82981 20.9998H10.3956L10.4085 13.4955H8.45887C8.20551 13.4955 7.99987 13.2907 7.99889 13.0373L7.98954 10.6184C7.98856 10.3636 8.19482 10.1566 8.44957 10.1566H10.3956V7.81932C10.3956 5.10691 12.0522 3.62998 14.4719 3.62998H16.4574C16.7114 3.62998 16.9174 3.83593 16.9174 4.09002V6.12966C16.9174 6.38364 16.7116 6.58954 16.4577 6.58969L15.2392 6.59026C13.9233 6.59026 13.6685 7.21555 13.6685 8.1332V10.1567H16.5599C16.8354 10.1567 17.0492 10.3972 17.0167 10.6708L16.73 13.0898C16.7026 13.3212 16.5063 13.4957 16.2732 13.4957H13.6814L13.6685 20.9999H18.1702C19.7331 20.9999 21 19.733 21 18.1701V2.82967C20.9999 1.2668 19.733 -0.00012207 18.1701 -0.00012207Z" fill="white"/>
</svg>
