<svg width="45" height="45" viewBox="0 0 45 45" fill="none" xmlns="http://www.w3.org/2000/svg">
<path fill-rule="evenodd" clip-rule="evenodd" d="M0 0V45H45V0H0ZM15.9905 33.8916C9.64375 33.8916 4.5989 28.8467 4.5989 22.5C4.5989 16.1533 9.64375 11.1084 15.9905 11.1084C19.0826 11.1084 21.6863 12.2475 23.6391 14.2004L20.5471 17.1297C19.7334 16.316 18.2688 15.3396 15.9904 15.3396C12.0848 15.3396 8.99278 18.5943 8.99278 22.5C8.99278 26.4057 12.0848 29.6604 15.9904 29.6604C20.5471 29.6604 22.1744 26.4057 22.4999 24.7783H15.9904V20.8726H26.7311C26.8939 21.5235 26.8939 22.0117 26.8939 22.8255C26.894 29.335 22.5 33.8916 15.9905 33.8916ZM40.4011 24.1274H37.1464V27.3822H33.8915V24.1274H30.6368V20.8727H33.8915V17.6179H37.1464V20.8727H40.4011V24.1274Z" fill="#F0F8F7"/>
</svg>
