<svg width="32" height="33" viewBox="0 0 32 33" fill="none" xmlns="http://www.w3.org/2000/svg">
<g clip-path="url(#clip0_903:5404)">
<path fill-rule="evenodd" clip-rule="evenodd" d="M0 0.275635V32.1757H32V0.275635H0ZM11.371 24.3011C6.85778 24.3011 3.27033 20.7248 3.27033 16.2257C3.27033 11.7266 6.85778 8.15026 11.371 8.15026C13.5698 8.15026 15.4214 8.95778 16.8101 10.3422L14.6113 12.4187C14.0327 11.8419 12.9912 11.1497 11.371 11.1497C8.59365 11.1497 6.39487 13.457 6.39487 16.2257C6.39487 18.9944 8.59365 21.3016 11.371 21.3016C14.6113 21.3016 15.7685 18.9944 15.9999 17.8407H11.371V15.072H19.0088C19.1245 15.5335 19.1245 15.8795 19.1245 16.4564C19.1246 21.0709 16 24.3011 11.371 24.3011ZM28.7297 17.3793H26.4152V19.6866H24.1006V17.3793H21.7862V15.0721H24.1006V12.7648H26.4152V15.0721H28.7297V17.3793Z" fill="#F0F8F7"/>
</g>
<defs>
<clipPath id="clip0_903:5404">
<rect width="32" height="31.9001" fill="white" transform="translate(0 0.275635)"/>
</clipPath>
</defs>
</svg>
