<svg width="42" height="42" viewBox="0 0 42 42" fill="none" xmlns="http://www.w3.org/2000/svg">
<path d="M41.9233 9.95262C41.7788 9.41506 41.4261 8.95678 40.9435 8.67895C40.4607 8.39974 39.8865 8.32422 39.3479 8.46878C38.81 8.61367 38.3518 8.96601 38.0739 9.44855L37.724 10.0575C37.3915 9.8665 36.9667 9.97893 36.7722 10.3097L34.9945 13.34L34.3855 12.99C34.2242 12.8967 34.0322 12.8714 33.8524 12.92C33.6723 12.9688 33.5192 13.0871 33.4266 13.2491C33.2369 13.5836 33.3524 14.0087 33.6856 14.2008L34.2946 14.5507L28.3456 24.86L26.8758 28.7867L26.1759 30.0952C25.7661 30.8081 25.8099 31.6942 26.288 32.363L24.7132 34.2945L24.2724 33.189C24.0735 32.6962 23.6132 32.3585 23.0838 32.3172C22.5541 32.2755 22.0466 32.5373 21.7736 32.9928L21.5217 33.4196L21.2839 30.6201C21.2292 29.9578 20.7162 29.4254 20.0567 29.3454C19.3968 29.2658 18.7721 29.6612 18.5612 30.2913L16.8395 35.4564C16.7192 35.8217 16.9161 36.2154 17.2804 36.3384C17.3487 36.3702 17.4222 36.3894 17.4974 36.3941C17.7981 36.3952 18.066 36.2035 18.1624 35.9184L19.8769 30.7534L20.1219 33.5946C20.1725 34.2009 20.6082 34.7049 21.2008 34.8423C21.7934 34.9797 22.4065 34.7186 22.7185 34.1968L22.9775 33.7696L23.4115 34.8686C23.5957 35.3317 24.0123 35.6621 24.5055 35.7356C24.9986 35.8091 25.4934 35.6146 25.8051 35.2254L27.4359 33.1609C27.6163 33.2081 27.8022 33.2317 27.9888 33.231C28.7389 33.2368 29.4354 32.8417 29.8154 32.1948L30.5153 31.0261L33.1819 27.7857L39.1938 17.3503L39.8028 17.7002C39.9651 17.7932 40.0834 17.9466 40.1316 18.1274C40.1801 18.3068 40.1548 18.4982 40.0618 18.6592L37.2623 23.5095C37.1567 23.6687 37.1208 23.8642 37.1632 24.0508C37.2056 24.2371 37.3221 24.398 37.4861 24.4961C37.6474 24.5897 37.8395 24.615 38.0193 24.5665C38.1994 24.5176 38.3525 24.3994 38.4451 24.2374L41.2446 19.3871C41.5238 18.9042 41.5993 18.3301 41.4544 17.7915C41.3095 17.2536 40.9572 16.7953 40.4747 16.5175L39.8657 16.1675L41.6154 13.137C41.8064 12.8044 41.694 12.38 41.3635 12.1852L41.7135 11.5762C42.0002 11.0858 42.0761 10.5001 41.9233 9.95262ZM39.2847 10.1484C39.3773 9.98645 39.5311 9.86786 39.7119 9.81968C39.8917 9.77525 40.0817 9.8002 40.2437 9.88974C40.406 9.98235 40.5242 10.1361 40.5727 10.3166C40.6172 10.4963 40.5922 10.6863 40.5027 10.8483L40.1527 11.4573L38.9348 10.7574L39.2847 10.1484ZM29.7454 29.6895L29.3954 29.4865L28.3596 28.8844L29.3534 26.225L31.558 27.4986L29.7454 29.6895ZM27.6457 31.712C27.3501 31.5059 27.2592 31.1095 27.4359 30.7951L27.7858 30.1864L29.0034 30.8863L28.6535 31.4881C28.5554 31.6583 28.3907 31.7793 28.199 31.822C28.0073 31.8644 27.8067 31.8247 27.6457 31.712ZM32.3559 26.3511L29.9344 24.9513L35.5334 15.2506L37.955 16.6504L32.3559 26.3511ZM38.6549 15.4396L36.2333 14.0398L37.6331 11.6183L40.0547 13.018L38.6549 15.4396Z" fill="#F96B30"/>
<path d="M11.0438 31.3621L8.56656 33.8329L7.08272 32.3491C6.80966 32.0777 6.36882 32.0777 6.09577 32.3491C5.96317 32.4806 5.88867 32.6594 5.88867 32.846C5.88867 33.0326 5.96317 33.2116 6.09577 33.3429L7.57961 34.8267C7.84206 35.0871 8.19679 35.233 8.56656 35.2327C8.93837 35.2347 9.29617 35.0888 9.56034 34.8267L12.0308 32.3491C12.2686 32.0712 12.2526 31.6574 11.9942 31.399C11.7355 31.1403 11.3217 31.1243 11.0438 31.3621Z" fill="#095F71"/>
<path d="M2.7998 33.2447C2.7998 36.5306 5.46333 39.1938 8.74883 39.1938C12.0343 39.1938 14.6979 36.5306 14.6979 33.2447C14.6979 32.8582 14.3845 32.5449 13.998 32.5449C13.6115 32.5449 13.2981 32.8582 13.2981 33.2447C13.2981 35.7572 11.2613 37.794 8.74883 37.794C6.23635 37.794 4.19958 35.7572 4.19958 33.2447C4.19958 30.7323 6.23635 28.6955 8.74883 28.6955C9.73373 28.6927 10.6923 29.0123 11.4783 29.6055C11.7876 29.8376 12.2264 29.7747 12.4581 29.4654C12.6901 29.1561 12.6276 28.7177 12.3183 28.4857C10.5156 27.1337 8.10363 26.9164 6.08838 27.9238C4.07279 28.9316 2.7998 30.9916 2.7998 33.2447Z" fill="#F96B30"/>
<path d="M25.1957 5.59899C25.5823 5.59899 25.8956 5.28596 25.8956 4.8991C25.8956 4.5126 25.5823 4.19922 25.1957 4.19922H6.99871C6.6122 4.19922 6.29883 4.5126 6.29883 4.8991V7.69865C6.29883 8.0855 6.6122 8.39853 6.99871 8.39853H25.1957C25.5823 8.39853 25.8956 8.0855 25.8956 7.69865C25.8956 7.31214 25.5823 6.99876 25.1957 6.99876H7.6986V5.59899H25.1957Z" fill="#095F71"/>
<path d="M9.09832 9.79834C8.71181 9.79834 8.39844 10.1117 8.39844 10.4982C8.39844 10.8851 8.71181 11.1981 9.09832 11.1981H23.096C23.4825 11.1981 23.7959 10.8851 23.7959 10.4982C23.7959 10.1117 23.4825 9.79834 23.096 9.79834H9.09832Z" fill="#F96B30"/>
<path d="M27.2961 14.6978H11.8986C11.5121 14.6978 11.1987 15.0111 11.1987 15.3976C11.1987 15.7845 11.5121 16.0975 11.8986 16.0975H27.2961C27.6826 16.0975 27.996 15.7845 27.996 15.3976C27.996 15.0111 27.6826 14.6978 27.2961 14.6978Z" fill="#095F71"/>
<path d="M20.2974 19.5969C20.2974 19.2103 19.984 18.897 19.5975 18.897H5.59979C5.21328 18.897 4.8999 19.2103 4.8999 19.5969C4.8999 19.9837 5.21328 20.2967 5.59979 20.2967H19.5975C19.984 20.2967 20.2974 19.9837 20.2974 19.5969Z" fill="#095F71"/>
<path d="M27.2949 18.897H22.3957C22.0092 18.897 21.6958 19.2103 21.6958 19.5969C21.6958 19.9837 22.0092 20.2967 22.3957 20.2967H27.2949C27.6814 20.2967 27.9948 19.9837 27.9948 19.5969C27.9948 19.2103 27.6814 18.897 27.2949 18.897Z" fill="#F96B30"/>
<path d="M12.5986 23.7963C12.9852 23.7963 13.2985 23.4832 13.2985 23.0964C13.2985 22.7099 12.9852 22.3965 12.5986 22.3965H5.59979C5.21328 22.3965 4.8999 22.7099 4.8999 23.0964C4.8999 23.4832 5.21328 23.7963 5.59979 23.7963H12.5986Z" fill="#F96B30"/>
<path d="M15.3972 23.7963H20.2964C20.6829 23.7963 20.9962 23.4832 20.9962 23.0964C20.9962 22.7099 20.6829 22.3965 20.2964 22.3965H15.3972C15.0106 22.3965 14.6973 22.7099 14.6973 23.0964C14.6973 23.4832 15.0106 23.7963 15.3972 23.7963Z" fill="#F96B30"/>
<path d="M31.4949 32.1947C31.1083 32.1947 30.795 32.5081 30.795 32.8946V39.8935C30.795 40.2803 30.4816 40.5934 30.0951 40.5934H2.09966C1.71315 40.5934 1.39977 40.2803 1.39977 39.8935V2.09966C1.39977 1.71315 1.71315 1.39977 2.09966 1.39977H30.0951C30.4816 1.39977 30.795 1.71315 30.795 2.09966V15.2437C30.795 15.6302 31.1083 15.9436 31.4949 15.9436C31.8814 15.9436 32.1947 15.6302 32.1947 15.2437V2.09966C32.1947 0.94013 31.2546 0 30.0951 0H2.09966C0.94013 0 0 0.94013 0 2.09966V39.8935C0 41.0534 0.94013 41.9931 2.09966 41.9931H30.0951C31.2546 41.9931 32.1947 41.0534 32.1947 39.8935V32.8946C32.1947 32.5081 31.8814 32.1947 31.4949 32.1947Z" fill="#F96B30"/>
</svg>
