<svg width="40" height="40" viewBox="0 0 40 40" fill="none" xmlns="http://www.w3.org/2000/svg">
<path d="M38.7995 27.1936C39.6428 26.1481 40.0472 25.0272 39.9956 23.8729C39.944 22.6014 39.3589 21.606 38.877 20.9954C39.4363 19.6403 39.6514 17.5073 37.7842 15.8511C36.416 14.6382 34.0926 14.0945 30.8744 14.2451C28.6113 14.3455 26.7182 14.7553 26.6408 14.7721H26.6322C26.2019 14.8473 25.7459 14.9394 25.2812 15.0397C25.2468 14.5044 25.3415 13.1744 26.3568 10.1798C27.5615 6.61648 27.4927 3.88959 26.1331 2.06608C24.7047 0.150565 22.4244 0 21.7532 0C21.1078 0 20.5141 0.259306 20.0925 0.736094C19.1373 1.81514 19.2492 3.80594 19.3696 4.72606C18.2338 7.68716 15.05 14.9477 12.3566 16.9636C12.305 16.9971 12.262 17.0389 12.219 17.0807C11.4273 17.8921 10.8938 18.7704 10.5324 19.5399C10.0247 19.2723 9.44819 19.1217 8.82864 19.1217H3.57964C1.60051 19.1217 0 20.6859 0 22.6014V36.1941C0 38.1179 1.60912 39.6738 3.57964 39.6738H8.82864C9.59447 39.6738 10.3087 39.4396 10.8938 39.0381L12.916 39.2723C13.2257 39.3141 18.7329 39.9916 24.3863 39.8829C25.4103 39.9582 26.374 40 27.269 40C28.8092 40 30.1516 39.8829 31.2702 39.6487C33.9033 39.105 35.7018 38.0176 36.6139 36.4199C37.3109 35.1987 37.3109 33.9858 37.199 33.2162C38.9114 31.7106 39.2126 30.046 39.1523 28.8749C39.1179 28.1974 38.963 27.6202 38.7995 27.1936ZM3.57964 37.4153C2.88264 37.4153 2.32333 36.8632 2.32333 36.1941V22.5931C2.32333 21.9155 2.89125 21.3718 3.57964 21.3718H8.82864C9.52563 21.3718 10.085 21.9239 10.085 22.5931V36.1857C10.085 36.8632 9.51703 37.4069 8.82864 37.4069H3.57964V37.4153ZM36.5967 26.215C36.2353 26.583 36.1664 27.1435 36.4418 27.5784C36.4418 27.5868 36.7946 28.1723 36.8376 28.9753C36.8978 30.0711 36.3557 31.0414 35.2199 31.8695C34.8155 32.1706 34.652 32.6893 34.8241 33.1577C34.8241 33.166 35.1941 34.2702 34.5917 35.3158C34.0152 36.3195 32.7331 37.0389 30.7884 37.4404C29.2309 37.7666 27.1141 37.8252 24.5154 37.6244C24.481 37.6244 24.4379 37.6244 24.3949 37.6244C18.862 37.7415 13.2688 37.0389 13.2085 37.0305H13.1999L12.3308 36.9302C12.3825 36.6959 12.4083 36.445 12.4083 36.1941V22.5931C12.4083 22.2334 12.348 21.8821 12.2448 21.5558C12.3997 20.9954 12.8299 19.7491 13.8453 18.6867C17.7089 15.7089 21.4865 5.6629 21.6499 5.22794C21.7188 5.05228 21.736 4.85989 21.7016 4.6675C21.5553 3.73066 21.6069 2.58469 21.8134 2.24174C22.2695 2.2501 23.5 2.37557 24.24 3.37097C25.1177 4.5504 25.0833 6.6583 24.1368 9.45211C22.6911 13.7097 22.5707 15.9515 23.7151 16.9385C24.2831 17.432 25.0403 17.4571 25.591 17.2647C26.1159 17.1476 26.615 17.0473 27.0883 16.972C27.1227 16.9636 27.1657 16.9552 27.2001 16.9469C29.8418 16.3864 34.5745 16.0435 36.2181 17.499C37.6121 18.7369 36.6225 20.3764 36.5106 20.5521C36.1922 21.0205 36.2869 21.6311 36.7171 22.0075C36.7257 22.0159 37.6293 22.844 37.6723 23.9565C37.7067 24.701 37.3453 25.4621 36.5967 26.215Z" fill="#F0F8F7"/>
</svg>
