<svg width="55" height="50" viewBox="0 0 55 50" fill="none" xmlns="http://www.w3.org/2000/svg">
<path d="M54.6834 35.7357L52.0615 33.1329C51.6401 32.7146 50.9599 32.7175 50.5421 33.1392C50.1241 33.5608 50.127 34.2417 50.5483 34.6599L53.1701 37.2626C53.3796 37.4707 53.6532 37.5745 53.9267 37.5745C54.203 37.5745 54.4794 37.4684 54.6894 37.2564C55.1075 36.8347 55.1047 36.1539 54.6834 35.7357Z" fill="#E88C01"/>
<path d="M49.3862 30.47C48.9666 30.05 48.2866 30.05 47.8668 30.47L47.865 30.4718C47.4454 30.8917 47.4464 31.5717 47.8659 31.9916C48.0754 32.2014 48.3503 32.3062 48.6251 32.3062C48.9005 32.3062 49.1761 32.201 49.3861 31.9908C49.8057 31.5709 49.8057 30.89 49.3862 30.47Z" fill="#E88C01"/>
<path d="M40.2268 35.428L50.6492 24.9968C52.2276 23.4169 52.2276 20.8462 50.649 19.2662C50.0924 18.7091 49.4126 18.3494 48.6965 18.1852C48.9421 17.6569 49.0721 17.0771 49.0721 16.4771C49.0721 15.3947 48.6509 14.3772 47.8863 13.6119C47.2866 13.0116 46.5316 12.6239 45.7121 12.4843C46.1734 11.0774 45.8473 9.4662 44.7316 8.34962C44.1181 7.73575 43.3551 7.36162 42.5589 7.22487C42.6923 6.81967 42.7626 6.39179 42.7626 5.95273C42.7626 4.87033 42.3415 3.85277 41.5769 3.08753C40.8122 2.32228 39.7955 1.90074 38.7141 1.90074C38.0274 1.90074 37.3671 2.07125 36.7805 2.39141L36.6769 2.27993C35.3296 0.83093 33.4227 0 31.4452 0H23.0088C22.4155 0 21.9344 0.481529 21.9344 1.0753V2.48537C21.9344 3.04968 22.0298 3.59905 22.2122 4.11563C21.7262 3.91362 21.2004 3.80751 20.6584 3.80751C19.5769 3.80751 18.5602 4.22905 17.7955 4.99429C16.6792 6.11152 16.3535 7.72392 16.8159 9.13121C16.019 9.26763 15.2549 9.64198 14.6409 10.2564C13.8763 11.0217 13.4551 12.0393 13.4551 13.1216C13.4551 13.5598 13.5253 13.987 13.6582 14.3914C12.8396 14.5314 12.0854 14.9189 11.4862 15.5187C10.2534 16.7526 9.98344 18.591 10.6764 20.0895C9.94263 20.2573 9.2687 20.6272 8.72324 21.173C7.14475 22.7528 7.14475 25.3235 8.72324 26.9035L10.8666 29.0486L0.314676 39.6093C-0.104892 40.0293 -0.104892 40.7101 0.314676 41.1301C0.524461 41.34 0.799447 41.4451 1.07433 41.4451C1.3492 41.4451 1.62419 41.3401 1.83397 41.1301L12.4878 30.4673C13.0909 30.8117 13.7754 30.996 14.4887 30.996C15.5701 30.996 16.5868 30.5745 17.3515 29.8091C18.1822 28.9777 18.5751 27.8718 18.5314 26.7804C18.5859 26.7826 18.6403 26.7843 18.6948 26.7843C19.7314 26.7842 20.7685 26.3892 21.5576 25.5994C22.3222 24.8341 22.7433 23.8165 22.7433 22.7342C22.7433 22.6795 22.7415 22.6251 22.7394 22.5707C22.7932 22.5728 22.847 22.5746 22.9009 22.5746C23.9376 22.5746 24.9745 22.1796 25.7637 21.3897C26.5283 20.6244 26.9494 19.6068 26.9494 18.5245C26.9494 18.4698 26.9476 18.4154 26.9455 18.361C26.9993 18.3631 27.0531 18.3649 27.107 18.3649C28.1438 18.3649 29.1806 17.9699 29.9698 17.18C31.453 15.6955 31.5422 13.3365 30.2383 11.7463L37.3701 4.60845C37.729 4.24915 38.2059 4.05144 38.7135 4.05144C39.221 4.05144 39.698 4.24915 40.0569 4.60845C40.4158 4.96763 40.6133 5.44497 40.6133 5.95294C40.6133 6.46081 40.4158 6.93836 40.0568 7.29744L39.0053 8.34984L35.1901 12.1683C34.7705 12.5882 34.7705 13.2691 35.1901 13.6891C35.3999 13.899 35.6749 14.0041 35.9498 14.0041C36.2246 14.0041 36.4996 13.8991 36.7094 13.6891L40.5246 9.87065C41.2653 9.12927 42.4706 9.12916 43.2114 9.87054C43.9522 10.612 43.9522 11.8183 43.2114 12.5597L42.1598 13.6123L39.3962 16.3782C38.9766 16.7981 38.9766 17.479 39.3962 17.899C39.606 18.1089 39.881 18.214 40.1559 18.214C40.4307 18.214 40.7057 18.109 40.9155 17.899L43.6791 15.1331C44.038 14.7738 44.515 14.5761 45.0225 14.5761C45.53 14.5761 46.007 14.7738 46.3659 15.1331C46.7248 15.4922 46.9223 15.9696 46.9223 16.4776C46.9223 16.9854 46.7248 17.463 46.3658 17.8221L44.9225 19.2666L43.6022 20.588C43.1826 21.008 43.1826 21.6888 43.6022 22.1088C43.812 22.3187 44.087 22.4238 44.3619 22.4238C44.6367 22.4238 44.9117 22.3188 45.1215 22.1088L46.4427 20.7865C47.1836 20.0463 48.3881 20.0464 49.1286 20.7875C49.8694 21.5288 49.8694 22.7352 49.1286 23.4767L38.7062 33.9079C36.0891 36.5273 32.6108 38.0437 28.9122 38.1781C28.6403 38.188 28.3821 38.3007 28.19 38.4938L18.562 48.1657C18.1432 48.5864 18.1444 49.2672 18.5648 49.6864C18.7744 49.8954 19.0487 50 19.3231 50C19.5986 50 19.8743 49.8945 20.0841 49.6836L27.1658 42.5698C28.9646 43.7247 31.08 44.2739 33.231 44.1316L38.7735 49.6789C38.9833 49.8887 39.2583 49.9939 39.5332 49.9939C39.8082 49.9939 40.083 49.8888 40.2928 49.6789C40.7124 49.2589 40.7124 48.5781 40.2928 48.1581L34.3999 42.2595C34.1768 42.0363 33.8668 41.9223 33.5524 41.9481L33.2118 41.976C31.6396 42.105 30.0855 41.7604 28.7286 40.9993L29.419 40.3058C33.5026 40.0537 37.3258 38.3316 40.2268 35.428ZM15.8322 28.2885C15.4733 28.6478 14.9961 28.8455 14.4888 28.8455C13.9813 28.8455 13.5042 28.6478 13.1455 28.2885L10.2424 25.3831C9.50168 24.6417 9.50168 23.4354 10.2424 22.6939C10.6013 22.3346 11.0784 22.1369 11.5859 22.1369C12.0933 22.1369 12.5705 22.3346 12.9292 22.6939L15.8323 25.5993C16.5729 26.3407 16.5729 27.547 15.8322 28.2885ZM20.0385 24.0786C19.2976 24.82 18.0921 24.82 17.3516 24.0786L14.4485 21.1731L13.0051 19.7284C12.2643 18.987 12.2643 17.7807 13.0051 17.0393C13.3639 16.68 13.8411 16.4823 14.3484 16.4823C14.856 16.4823 15.333 16.68 15.6918 17.0393L20.0382 21.3894C20.3971 21.7487 20.5948 22.2261 20.5948 22.734C20.5948 23.2419 20.3973 23.7194 20.0385 24.0786ZM24.2446 19.8688C23.5037 20.6101 22.2983 20.6102 21.5577 19.8688L16.1597 14.4662C15.8008 14.107 15.6033 13.6297 15.6033 13.1217C15.6033 12.6138 15.8008 12.1363 16.1598 11.7772C16.5302 11.4065 17.0168 11.2212 17.5031 11.2212C17.9893 11.2212 18.4754 11.4063 18.8456 11.7763L21.3059 14.2387L24.2444 17.1797C24.6031 17.5389 24.8008 18.0162 24.8008 18.5242C24.801 19.0322 24.6035 19.5097 24.2446 19.8688ZM28.4508 15.659C27.7101 16.4004 26.5047 16.4004 25.764 15.659L20.366 10.2564L20.3642 10.2547L19.3144 9.20399C18.5736 8.4625 18.5736 7.25626 19.3144 6.51478C19.6848 6.14398 20.1714 5.95864 20.6578 5.95864C21.1443 5.95864 21.6309 6.14398 22.0012 6.51478L28.4506 12.9697C28.8096 13.3289 29.0071 13.8063 29.0071 14.3142C29.0072 14.8223 28.8098 15.2999 28.4508 15.659ZM28.7333 10.2113L25.7824 7.25788C26.117 7.32937 26.461 7.36732 26.8112 7.36721C26.819 7.36721 26.827 7.36721 26.8349 7.36721L29.7833 7.35334C30.3766 7.35055 30.8554 6.86687 30.8526 6.27299C30.8498 5.68084 30.3694 5.20275 29.7784 5.20275H29.7732L26.8248 5.21662C26.8203 5.21662 26.816 5.21662 26.8115 5.21662C26.0851 5.21662 25.4018 4.93441 24.8866 4.42127C24.3682 3.9048 24.0828 3.2174 24.0828 2.48527V2.15049H31.4449C32.8279 2.15049 34.1615 2.73157 35.1037 3.74494L35.1475 3.79192L28.7333 10.2113Z" fill="#F0F8F7"/>
</svg>
