<svg width="48" height="53" viewBox="0 0 48 53" fill="none" xmlns="http://www.w3.org/2000/svg">
<path d="M40.1632 11.1513C40.7594 10.2457 41.2874 9.22262 41.6005 8.12981C41.7188 7.71771 41.4812 7.2876 41.0701 7.16929C40.6593 7.05097 40.2301 7.28874 40.1121 7.70104C39.3428 10.3855 36.9511 12.7032 36.0946 13.4672C35.0543 12.5417 31.8401 9.41381 31.8401 6.09986C31.8402 3.50763 33.6693 1.55273 36.095 1.55273C37.9625 1.55273 39.4965 2.68447 40.0985 4.50624C40.2329 4.91327 40.671 5.13406 41.0771 4.99908C41.483 4.8643 41.7031 4.42498 41.5686 4.01796C40.7621 1.57716 38.6135 0 36.095 0C34.4774 0 32.9927 0.6419 31.9143 1.80759C30.9503 2.84968 30.3866 4.22571 30.3034 5.71541C28.2574 5.15849 26.1419 4.87579 24 4.87579C16.6077 4.87579 9.73782 8.21614 5.15202 14.04C4.88708 14.3766 4.94428 14.8648 5.27994 15.1305C5.42212 15.243 5.59134 15.2974 5.75933 15.2974C5.98823 15.2974 6.21476 15.1962 6.36767 15.0021C10.6579 9.55356 17.0846 6.42863 24 6.42863C26.184 6.42863 28.3381 6.74166 30.4102 7.35934C30.4823 7.74949 30.5849 8.13322 30.712 8.50826C30.3572 8.55153 30.0019 8.59915 29.6496 8.65525C29.2272 8.72243 28.9392 9.12035 29.0063 9.54383C29.0669 9.92601 29.396 10.1985 29.7702 10.1985C30.1858 10.1542 30.7403 10.0569 31.3542 9.99443C31.4387 10.1559 31.5266 10.3147 31.6172 10.4709C31.3882 11.3078 30.9496 12.0713 30.3358 12.6867C29.9526 13.0709 29.4431 13.2825 28.9006 13.2825C26.4495 13.2825 24.4552 15.2818 24.4552 17.7395C24.4552 20.0452 25.3509 22.2131 26.9772 23.8437C27.7579 24.6264 28.7958 25.0574 29.8998 25.0574C31.3239 25.0574 32.6628 24.5014 33.6699 23.4918L35.476 21.681C35.8592 21.2968 36.3687 21.0852 36.9108 21.0852C37.4528 21.0852 37.9625 21.2968 38.3455 21.681C39.8566 23.1959 41.8655 24.0301 44.0022 24.0301H45.9113C46.2668 25.6267 46.4513 27.2713 46.4513 28.9382C46.4513 41.3496 36.3796 51.4473 24 51.4473C22.6416 51.4473 21.3109 51.3255 20.0183 51.0926V45.7856C20.0183 44.4198 20.5488 43.1357 21.5121 42.17C22.7678 40.911 23.4594 39.2371 23.4595 37.4565C23.4203 36.9766 23.4269 36.2098 23.4654 35.3298C23.552 33.0329 23.6595 30.1771 21.9882 28.7339C21.1016 27.8566 19.9288 27.3739 18.682 27.3739C17.2563 27.3739 15.9114 27.8989 14.8656 28.857C13.9862 27.9614 12.8576 27.3988 11.6151 27.2283C11.6051 26.8444 11.6106 26.4599 11.6335 26.0821C11.6593 25.6542 11.3343 25.2863 10.9073 25.2603C10.4813 25.2344 10.1135 25.5603 10.0876 25.9883C10.0631 26.3945 10.056 26.8071 10.0653 27.2193C9.0954 27.3401 8.1928 27.6986 7.42112 28.2676C7.37063 26.388 5.83098 24.8743 3.94421 24.8743H1.9195C2.36471 22.4355 3.20598 20.079 4.41916 17.9171C4.62885 17.5434 4.4968 17.07 4.12407 16.8598C3.75145 16.6497 3.27929 16.7818 3.06949 17.1556C1.0615 20.7337 0 24.808 0 28.938C0 35.3652 2.49646 41.4077 7.02949 45.9523C11.5624 50.4971 17.5894 53 24 53C30.4106 53 36.4376 50.4971 40.9705 45.9523C45.5035 41.4077 48 35.3652 48 28.938C48 22.1529 45.1522 15.7108 40.1632 11.1513ZM1.54873 28.938C1.54873 28.0969 1.5986 27.2588 1.69153 26.4269H3.94411C5.00871 26.4269 5.87466 27.2952 5.87466 28.3625C5.87466 28.7924 5.9554 29.2207 6.10965 29.6212C5.39042 30.6585 5.00055 31.927 5.00055 33.2717C5.00055 37.7082 9.57128 41.64 10.0927 42.0739C10.2989 42.2452 10.5514 42.331 10.8041 42.331C11.0567 42.331 11.3096 42.2451 11.5158 42.0737C11.7812 41.8528 12.7253 41.0395 13.726 39.8493C14.0017 39.5214 13.9601 39.0317 13.6331 38.7553C13.3061 38.4788 12.8176 38.5206 12.542 38.8485C11.8474 39.6744 11.1885 40.2979 10.8044 40.6394C9.76456 39.7143 6.54939 36.5857 6.54939 33.2717C6.54939 30.6794 8.37854 28.7246 10.8042 28.7246C13.2298 28.7246 15.059 30.6794 15.059 33.2717C15.059 34.1222 14.84 35.0342 14.4079 35.9826C14.2302 36.3727 14.4015 36.8332 14.7906 37.0114C14.8949 37.0591 15.0041 37.0818 15.1117 37.0818C15.4056 37.0818 15.6865 36.9132 15.8166 36.6277C16.3415 35.4754 16.6076 34.3463 16.6076 33.2717C16.6076 32.1301 16.3264 31.0437 15.8016 30.1067C16.5756 29.3457 17.5965 28.9266 18.6819 28.9266C19.4298 28.9109 20.3765 29.2891 20.9641 29.8988C22.0845 30.8464 21.992 33.2997 21.9177 35.2711C21.887 36.0841 21.8581 36.8529 21.9107 37.4885C21.9024 38.8424 21.3726 40.1138 20.4169 41.0719C19.1611 42.331 18.4696 44.0049 18.4696 45.7855V50.7554C8.75551 48.2792 1.54873 39.4369 1.54873 28.938ZM44.0023 22.4772C42.2793 22.4772 40.6592 21.8044 39.4408 20.5827C38.765 19.9053 37.8665 19.5323 36.9108 19.5323C35.955 19.5323 35.0565 19.9053 34.3807 20.5828L32.5747 22.3936C31.8601 23.11 30.9102 23.5044 29.8998 23.5044C29.2095 23.5044 28.5605 23.2348 28.0723 22.7455C26.7386 21.4082 26.0041 19.6302 26.0041 17.7393C26.0041 16.1379 27.3034 14.835 28.9011 14.835C29.857 14.835 30.7555 14.462 31.4311 13.7844C31.9407 13.2735 32.3587 12.6848 32.6736 12.0433C33.8719 13.6124 35.1251 14.687 35.3835 14.9019C35.5897 15.0734 35.8422 15.1591 36.0951 15.1591C36.3477 15.1591 36.6006 15.0733 36.8068 14.9019C37.1379 14.6262 38.1824 13.7193 39.24 12.4111C42.2171 15.1719 44.3645 18.6542 45.5066 22.4772H44.0023Z" fill="#F0F8F7"/>
<path d="M39.5737 37.2278C38.6117 39.0249 36.391 39.735 34.6335 39.8003C34.2061 39.8161 33.8725 40.1764 33.8883 40.6048C33.9038 41.0235 34.2473 41.3525 34.6616 41.3525C37.4172 41.2721 39.8817 39.977 40.941 37.9567C41.1137 37.6281 41.282 37.3211 41.4449 37.0243C42.4133 35.2585 43.1791 33.8621 42.946 31.3109C42.9253 29.5563 41.4985 28.1344 39.7451 28.1275C38.7892 28.101 37.8534 28.5724 37.0386 29.4936C35.6419 30.8854 33.7896 31.6525 31.8197 31.6546C30.7146 31.6317 29.6906 32.0839 28.928 32.9252C28.1162 33.8208 27.8359 35.0577 27.8359 36.2706C27.8359 37.6083 28.3559 38.9143 29.2959 39.8644C29.6944 40.3045 30.1888 40.6516 30.7656 40.8966C31.1593 41.0638 31.6138 40.8793 31.7807 40.4845C31.9474 40.0897 31.7634 39.634 31.3696 39.4668C31.1141 39.3591 30.7179 39.1217 30.4054 38.781C29.7399 38.1139 29.3679 37.1901 29.3851 36.2467C29.2931 35.5582 29.4973 34.5952 30.0742 33.9696C30.5327 33.4636 31.139 33.1944 31.7947 33.2072C31.8004 33.2073 31.8061 33.2074 31.8117 33.2074C34.2061 33.2074 36.4572 32.2726 38.1505 30.575C38.5569 30.0845 39.226 29.6415 39.7325 29.6803C40.6113 29.6701 41.4272 30.4743 41.4009 31.4227C41.5992 33.5203 40.998 34.6166 40.0878 36.2762C39.9217 36.579 39.75 36.8922 39.5737 37.2278Z" fill="#E98C00"/>
<path d="M11.3725 23.8439C11.7085 23.8439 12.0179 23.6228 12.116 23.2831C12.375 22.3853 12.737 21.499 13.192 20.6487C13.3941 20.2709 13.2525 19.8003 12.8757 19.5975C12.4987 19.3947 12.0296 19.537 11.8272 19.9146C11.3209 20.861 10.9174 21.8491 10.6283 22.8516C10.5096 23.2635 10.7463 23.694 11.157 23.8132C11.2289 23.834 11.3013 23.8439 11.3725 23.8439Z" fill="#F0F8F7"/>
<path d="M23.9585 11.7533C24.0503 11.7533 24.1437 11.7369 24.2345 11.7021C25.1389 11.3559 26.0765 11.0523 27.0213 10.7997C27.4345 10.6893 27.6802 10.2638 27.57 9.84946C27.4598 9.43519 27.0354 9.18955 26.6221 9.29938C25.6256 9.56583 24.6364 9.88621 23.682 10.2514C23.2825 10.4044 23.0822 10.8531 23.2348 11.2536C23.3528 11.5632 23.6467 11.7533 23.9585 11.7533Z" fill="#F0F8F7"/>
<path d="M14.1763 18.551C14.4023 18.551 14.6264 18.4522 14.7794 18.2621C15.3653 17.5342 16.0342 16.83 16.7677 16.1691C17.0857 15.8824 17.1118 15.3916 16.8259 15.0726C16.54 14.7539 16.0504 14.7273 15.7323 15.0142C14.9377 15.7303 14.2116 16.4949 13.5741 17.287C13.3056 17.6208 13.3576 18.1095 13.6905 18.3788C13.8337 18.4946 14.0055 18.551 14.1763 18.551Z" fill="#F0F8F7"/>
<path d="M18.6229 14.5148C18.7722 14.5148 18.9232 14.4715 19.0562 14.3812C19.8429 13.8473 20.6873 13.3471 21.5657 12.8946C21.9461 12.6987 22.0959 12.2307 21.9005 11.8492C21.7049 11.4678 21.238 11.3175 20.8578 11.5135C19.9243 11.9945 19.0261 12.5265 18.1881 13.0954C17.8338 13.3357 17.7411 13.8184 17.9809 14.1735C18.1307 14.3953 18.3745 14.5148 18.6229 14.5148Z" fill="#F0F8F7"/>
<path d="M33.3086 5.84019C33.3086 7.36373 34.5438 8.60312 36.062 8.60312C37.5803 8.60312 38.8155 7.36363 38.8155 5.84019C38.8155 4.31675 37.5803 3.07715 36.062 3.07715C34.5438 3.07715 33.3086 4.31664 33.3086 5.84019ZM37.2667 5.84019C37.2667 6.50745 36.7263 7.05039 36.062 7.05039C35.3977 7.05039 34.8573 6.50745 34.8573 5.84019C34.8573 5.17282 35.3977 4.62988 36.062 4.62988C36.7263 4.62988 37.2667 5.17282 37.2667 5.84019Z" fill="#E98C00"/>
<path d="M10.773 30.249C9.2547 30.249 8.01953 31.4886 8.01953 33.0121C8.01953 34.5355 9.2547 35.775 10.773 35.775C12.2912 35.775 13.5264 34.5355 13.5264 33.0121C13.5264 31.4886 12.2912 30.249 10.773 30.249ZM10.773 34.2224C10.1087 34.2224 9.56826 33.6794 9.56826 33.0122C9.56826 32.3448 10.1087 31.8019 10.773 31.8019C11.4373 31.8019 11.9777 32.3448 11.9777 33.0122C11.9777 33.6793 11.4372 34.2224 10.773 34.2224Z" fill="#E98C00"/>
</svg>
