<svg width="21" height="21" viewBox="0 0 21 21" fill="none" xmlns="http://www.w3.org/2000/svg">
<path d="M9.66 7.24488C9.66 6.19488 9.03 4.09488 7.455 4.09488C6.825 4.09488 6.09 4.51488 6.09 5.87988C6.09 7.13988 6.72 8.92488 8.19 8.92488C8.19 8.92488 9.66 8.81988 9.66 7.24488ZM9.03 12.3899C8.925 12.3899 8.82 12.3899 8.715 12.3899C8.4 12.3899 7.455 12.4949 6.825 12.7048C6.09 12.9149 5.25 13.4399 5.25 14.4899C5.25 15.6449 6.3 16.7999 8.4 16.7999C9.975 16.7999 10.92 15.7499 10.92 14.6999C10.92 13.9649 10.395 13.4399 9.03 12.3899ZM18.9 -0.00012207H2.1C0.945 -0.00012207 0 0.944878 0 2.09988V18.8999C0 20.0549 0.945 20.9999 2.1 20.9999H18.9C20.055 20.9999 21 20.0549 21 18.8999V2.09988C21 0.944878 20.055 -0.00012207 18.9 -0.00012207ZM7.455 18.0599C4.515 18.0599 3.15 16.3799 3.15 14.9099C3.15 14.3849 3.255 13.2299 4.725 12.3899C5.565 11.8649 6.615 11.5499 7.98 11.4449C7.77 11.2349 7.665 10.9199 7.665 10.3949C7.665 10.1849 7.665 10.0799 7.77 9.86992H7.35C5.25 9.86992 3.99 8.29492 3.99 6.71992C3.99 4.93492 5.355 2.93992 8.295 2.93992H12.705L12.39 3.25492L11.655 3.98988L11.55 4.09488H10.815C11.235 4.51488 11.76 5.24988 11.76 6.40488C11.76 7.87488 11.025 8.60988 10.08 9.23988C9.86996 9.34488 9.65996 9.65988 9.65996 9.97488C9.65996 10.2899 9.86996 10.4999 10.08 10.6049C10.185 10.7099 10.395 10.8149 10.605 10.9199C11.445 11.5499 12.6 12.2848 12.6 13.9649C12.6 15.8549 11.235 18.0599 7.455 18.0599ZM17.85 10.4999H15.75V12.5999H14.7V10.4999H12.6V9.44988H14.7V7.34988H15.75V9.44988H17.85V10.4999Z" fill="white"/>
</svg>
