<svg width="52" height="65" viewBox="0 0 52 65" fill="none" xmlns="http://www.w3.org/2000/svg">
<path d="M26.0009 29.1304C23.8307 29.1278 21.7501 28.2275 20.2156 26.6268C18.681 25.0261 17.8179 22.8558 17.8154 20.5921V15.0674H18.7784V20.5921C18.7784 22.5902 19.5394 24.5064 20.8938 25.9193C22.2483 27.3321 24.0854 28.1259 26.0009 28.1259C27.9164 28.1259 29.7535 27.3321 31.1079 25.9193C32.4624 24.5064 33.2233 22.5902 33.2233 20.5921V15.0674H34.1863V20.5921C34.1839 22.8558 33.3207 25.0261 31.7862 26.6268C30.2517 28.2275 28.1711 29.1278 26.0009 29.1304Z" fill="#E98C00"/>
<path d="M21.2912 14.7738C20.8396 14.7744 20.3968 14.6429 20.0133 14.3941L17.0762 12.4802L17.5866 11.6265L20.5237 13.5404C20.7338 13.6765 20.9738 13.7544 21.2208 13.7667C21.4679 13.779 21.7139 13.7253 21.9355 13.6107L23.2004 12.9508C24.0702 12.4999 25.0284 12.2653 25.9998 12.2653C26.9712 12.2653 27.9293 12.4999 28.7992 12.9508L30.0641 13.6112C30.2856 13.7259 30.5315 13.7797 30.7784 13.7674C31.0254 13.7552 31.2653 13.6774 31.4754 13.5414L34.4125 11.6275L34.9229 12.4812L31.9858 14.3952C31.6356 14.6219 31.2357 14.7517 30.824 14.7721C30.4123 14.7925 30.0024 14.7028 29.6332 14.5117L28.3683 13.8523C27.6323 13.4706 26.8217 13.272 25.9998 13.272C25.1779 13.272 24.3672 13.4706 23.6313 13.8523L22.3664 14.5117C22.0323 14.6847 21.6642 14.7745 21.2912 14.7738Z" fill="#E98C00"/>
<path d="M32.5005 10.481L31.4927 9.8781C29.818 8.885 27.9247 8.36287 25.9984 8.36287C24.072 8.36287 22.1787 8.885 20.504 9.8781L19.4962 10.481L19.0186 9.60882L20.0263 9.00597C21.8466 7.92645 23.9045 7.35889 25.9984 7.35889C28.0922 7.35889 30.1501 7.92645 31.9704 9.00597L32.9781 9.60882L32.5005 10.481Z" fill="#E98C00"/>
<path d="M17.8157 20.5918C17.1772 20.5918 16.5648 20.3272 16.1133 19.8563C15.6618 19.3853 15.4082 18.7466 15.4082 18.0806C15.4082 17.4145 15.6618 16.7758 16.1133 16.3049C16.5648 15.8339 17.1772 15.5693 17.8157 15.5693V16.5738C17.4326 16.5738 17.0652 16.7326 16.7943 17.0151C16.5234 17.2977 16.3712 17.681 16.3712 18.0806C16.3712 18.4802 16.5234 18.8634 16.7943 19.146C17.0652 19.4286 17.4326 19.5873 17.8157 19.5873V20.5918Z" fill="#E98C00"/>
<path d="M34.1865 20.5918V19.5873C34.5696 19.5873 34.937 19.4286 35.2079 19.146C35.4788 18.8634 35.631 18.4802 35.631 18.0806C35.631 17.681 35.4788 17.2977 35.2079 17.0151C34.937 16.7326 34.5696 16.5738 34.1865 16.5738V15.5693C34.825 15.5693 35.4374 15.8339 35.8889 16.3049C36.3404 16.7758 36.594 17.4145 36.594 18.0806C36.594 18.7466 36.3404 19.3853 35.8889 19.8563C35.4374 20.3272 34.825 20.5918 34.1865 20.5918Z" fill="#E98C00"/>
<path d="M44.7786 64.2866H7.22173C7.09403 64.2866 6.97156 64.2337 6.88126 64.1395C6.79096 64.0453 6.74023 63.9176 6.74023 63.7844V57.6606H7.70323V63.2822H44.2971V57.6606H45.2601V63.7844C45.2601 63.9176 45.2093 64.0453 45.119 64.1395C45.0287 64.2337 44.9063 64.2866 44.7786 64.2866Z" fill="#E98C00"/>
<path d="M35.6299 59.2642H37.0744V60.2686H35.6299V59.2642Z" fill="#F0F8F7"/>
<path d="M33.2227 59.2642H34.6672V60.2686H33.2227V59.2642Z" fill="#F0F8F7"/>
<path d="M38.0371 59.2642H39.4816V60.2686H38.0371V59.2642Z" fill="#F0F8F7"/>
<path d="M40.4463 59.2642H41.8908V60.2686H40.4463V59.2642Z" fill="#F0F8F7"/>
<path d="M5.77801 64.2866H4.87906C4.16054 64.2867 3.45087 64.1212 2.80077 63.802C2.15068 63.4828 1.5762 63.0178 1.1184 62.4401C0.660608 61.8624 0.330793 61.1864 0.152529 60.4604C-0.0257352 59.7343 -0.0480463 58.9762 0.0871904 58.2401L3.21885 41.1834C3.57353 39.2864 4.46933 37.5453 5.78886 36.1883C7.1084 34.8314 8.79012 33.9219 10.6137 33.579L19.4853 31.9462C19.8239 31.885 20.1304 31.6995 20.3492 31.4231C20.5681 31.1468 20.6849 30.7978 20.6784 30.4394L20.6269 27.0483L21.5899 27.0327L21.6414 30.4234C21.652 31.0207 21.4573 31.6023 21.0924 32.0629C20.7276 32.5235 20.2168 32.8327 19.6524 32.9346L10.7813 34.5684C9.14983 34.8752 7.64526 35.6888 6.46454 36.9026C5.28382 38.1163 4.48199 39.6737 4.16403 41.3708L1.0343 58.429C0.925918 59.0196 0.943901 59.628 1.08696 60.2106C1.23002 60.7931 1.49463 61.3356 1.8619 61.7992C2.22916 62.2628 2.69002 62.6361 3.21157 62.8924C3.73312 63.1488 4.3025 63.2818 4.87906 63.2821H5.77801V64.2866Z" fill="#E98C00"/>
<path d="M8.66668 56.251H4.81471C4.17644 56.2502 3.56453 55.9854 3.11321 55.5146C2.66188 55.0438 2.40799 54.4055 2.40723 53.7398V47.7129C2.40799 47.0471 2.66188 46.4088 3.11321 45.9381C3.56453 45.4673 4.17644 45.2025 4.81471 45.2017H8.66668C9.30495 45.2025 9.91685 45.4673 10.3682 45.9381C10.8195 46.4088 11.0734 47.0471 11.0742 47.7129V53.7398C11.0734 54.4055 10.8195 55.0438 10.3682 55.5146C9.91685 55.9854 9.30495 56.2502 8.66668 56.251ZM4.81471 46.2061C4.43161 46.2061 4.06419 46.3649 3.7933 46.6475C3.52241 46.93 3.37022 47.3133 3.37022 47.7129V53.7398C3.37022 54.1394 3.52241 54.5226 3.7933 54.8052C4.06419 55.0878 4.43161 55.2465 4.81471 55.2465H8.66668C9.04978 55.2465 9.41719 55.0878 9.68808 54.8052C9.95898 54.5226 10.1112 54.1394 10.1112 53.7398V47.7129C10.1112 47.3133 9.95898 46.93 9.68808 46.6475C9.41719 46.3649 9.04978 46.2061 8.66668 46.2061H4.81471Z" fill="#E98C00"/>
<path d="M5.29688 47.7124H10.5933V48.7173H5.29688V47.7124Z" fill="#E98C00"/>
<path d="M5.29688 50.2241H10.5933V51.228H5.29688V50.2241Z" fill="#E98C00"/>
<path d="M5.29688 52.7349H10.5933V53.7388H5.29688V52.7349Z" fill="#E98C00"/>
<path d="M47.1241 64.2866H46.2252V63.2821H47.1241C47.7008 63.2821 48.2703 63.1492 48.7921 62.8929C49.3138 62.6367 49.7748 62.2634 50.1423 61.7998C50.5097 61.3362 50.7744 60.7937 50.9176 60.211C51.0607 59.6283 51.0787 59.0198 50.9703 58.429L47.8406 41.371C47.5225 39.6738 46.7205 38.1163 45.5395 36.9025C44.3585 35.6888 42.8536 34.8753 41.2219 34.5687L32.3508 32.936C31.7864 32.8341 31.2756 32.5249 30.9107 32.0643C30.5459 31.6037 30.3512 31.0221 30.3617 30.4248L30.4133 27.0342L31.3763 27.0498L31.3247 30.4404C31.3183 30.7987 31.4351 31.1477 31.654 31.4241C31.8728 31.7004 32.1793 31.8859 32.5179 31.9471L41.3895 33.5798C43.213 33.9227 44.8947 34.8322 46.2142 36.189C47.5337 37.5458 48.4296 39.2868 48.7843 41.1837L51.9141 58.2417C52.049 58.9775 52.0266 59.7353 51.8483 60.461C51.67 61.1867 51.3404 61.8624 50.8828 62.4398C50.4252 63.0173 49.8511 63.4822 49.2014 63.8015C48.5516 64.1207 47.8423 64.2864 47.1241 64.2866Z" fill="#E98C00"/>
<path d="M47.1862 56.251H43.3342C42.696 56.2502 42.0841 55.9854 41.6327 55.5146C41.1814 55.0438 40.9275 54.4055 40.9268 53.7398V47.7129C40.9275 47.0471 41.1814 46.4088 41.6327 45.9381C42.0841 45.4673 42.696 45.2025 43.3342 45.2017H47.1862C47.8245 45.2025 48.4364 45.4673 48.8877 45.9381C49.339 46.4088 49.5929 47.0471 49.5937 47.7129V53.7398C49.5929 54.4055 49.339 55.0438 48.8877 55.5146C48.4364 55.9854 47.8245 56.2502 47.1862 56.251ZM43.3342 46.2061C42.9511 46.2061 42.5837 46.3649 42.3128 46.6475C42.0419 46.93 41.8898 47.3133 41.8898 47.7129V53.7398C41.8898 54.1394 42.0419 54.5226 42.3128 54.8052C42.5837 55.0878 42.9511 55.2465 43.3342 55.2465H47.1862C47.5693 55.2465 47.9367 55.0878 48.2076 54.8052C48.4785 54.5226 48.6307 54.1394 48.6307 53.7398V47.7129C48.6307 47.3133 48.4785 46.93 48.2076 46.6475C47.9367 46.3649 47.5693 46.2061 47.1862 46.2061H43.3342Z" fill="#E98C00"/>
<path d="M41.4092 47.7124H46.7056V48.7173H41.4092V47.7124Z" fill="#E98C00"/>
<path d="M41.4092 50.2241H46.7056V51.228H41.4092V50.2241Z" fill="#E98C00"/>
<path d="M41.4092 52.7349H46.7056V53.7388H41.4092V52.7349Z" fill="#E98C00"/>
<path d="M28.8913 45.2012H23.1133C22.9856 45.2012 22.8632 45.1483 22.7729 45.0541C22.6826 44.9599 22.6318 44.8322 22.6318 44.699V37.6685H23.5948V44.1968H28.4098V37.6685H29.3728V44.699C29.3728 44.8322 29.3221 44.9599 29.2318 45.0541C29.1415 45.1483 29.019 45.2012 28.8913 45.2012Z" fill="#F0F8F7"/>
<path d="M34.1864 9.54248H33.2234V6.52907C33.2217 5.06438 32.6632 3.66018 31.6703 2.6245C30.6773 1.58881 29.3311 1.0062 27.9269 1.00447H24.0749C22.6707 1.0062 21.3245 1.58881 20.3316 2.6245C19.3386 3.66018 18.7801 5.06438 18.7784 6.52907V9.54248H17.8154V6.52907C17.8173 4.79806 18.4774 3.13853 19.6509 1.91452C20.8244 0.690516 22.4154 0.00199386 24.0749 0L27.9269 0C29.5864 0.00199386 31.1775 0.690516 32.3509 1.91452C33.5244 3.13853 34.1845 4.79806 34.1864 6.52907V9.54248Z" fill="#E98C00"/>
<path d="M34.667 13.5605H35.6289V16.0718H34.667V13.5605Z" fill="#E98C00"/>
<path d="M16.3711 13.5605H17.333V16.0718H16.3711V13.5605Z" fill="#E98C00"/>
<path d="M26.0014 36.1613C24.6686 36.172 23.3483 35.8935 22.1242 35.3436C20.9001 34.7936 19.7989 33.9842 18.8906 32.9666L19.6297 32.3227C20.4529 33.2199 21.442 33.9337 22.5372 34.4208C23.6324 34.9079 24.8108 35.1583 26.0014 35.1567C27.2035 35.1516 28.3914 34.8847 29.489 34.3732C30.5866 33.8617 31.5697 33.1167 32.3755 32.186L33.1276 32.8124C32.2352 33.8657 31.1383 34.709 29.9097 35.2864C28.6811 35.8638 27.3489 36.162 26.0014 36.1613Z" fill="#E98C00"/>
<path d="M21.1855 16.5737H23.1115V17.5776H21.1855V16.5737Z" fill="#F0F8F7"/>
<path d="M27.9258 16.5737H29.8517V17.5776H27.9258V16.5737Z" fill="#F0F8F7"/>
<path d="M26.9626 22.6011H25.0367C24.909 22.6011 24.7865 22.5482 24.6962 22.454C24.6059 22.3598 24.5552 22.232 24.5552 22.0988V17.5786C24.5552 17.179 24.403 16.7958 24.1321 16.5132C23.8612 16.2306 23.4938 16.0719 23.1107 16.0719H20.2217V15.0674H23.1107C23.7489 15.0682 24.3608 15.333 24.8122 15.8038C25.2635 16.2746 25.5174 16.9128 25.5182 17.5786V21.5966H26.9626V22.6011Z" fill="#F0F8F7"/>
<path d="M27.9258 15.0674H30.8148V16.0708H27.9258V15.0674Z" fill="#F0F8F7"/>
<path d="M24.5566 24.1074H27.4456V25.1113H24.5566V24.1074Z" fill="#F0F8F7"/>
<path d="M17.8153 61.2729H10.1114C9.98368 61.2729 9.86121 61.22 9.77091 61.1259C9.68061 61.0317 9.62988 60.9039 9.62988 60.7708V57.7576H10.5929V60.2686H17.3338V52.2334H13.9633V51.229H17.8153C17.943 51.229 18.0655 51.2819 18.1558 51.3761C18.2461 51.4703 18.2968 51.598 18.2968 51.7312V60.7708C18.2968 60.9039 18.2461 61.0317 18.1558 61.1259C18.0655 61.22 17.943 61.2729 17.8153 61.2729Z" fill="#F0F8F7"/>
<path d="M12.0371 51.229H12.999V52.2324H12.0371V51.229Z" fill="#F0F8F7"/>
<path d="M7.70323 44.2075H6.74023V37.6678C6.74023 37.5346 6.79096 37.4068 6.88126 37.3126C6.97156 37.2184 7.09403 37.1655 7.22173 37.1655H44.7786C44.9063 37.1655 45.0287 37.2184 45.119 37.3126C45.2093 37.4068 45.2601 37.5346 45.2601 37.6678V44.1759H44.2971V38.17H7.70323V44.2075Z" fill="#E98C00"/>
</svg>
