<svg width="61" height="57" viewBox="0 0 61 57" fill="none" xmlns="http://www.w3.org/2000/svg">
<path d="M29.47 21.2053C29.8674 21.5823 30.5283 21.506 30.8303 21.051L36.7776 12.0874C37.0503 11.6766 36.9377 11.1226 36.5263 10.8502C36.1153 10.5783 35.5606 10.6908 35.2879 11.1012L29.9284 19.1789L26.9503 16.355C26.5925 16.0157 26.027 16.0306 25.6868 16.388C25.3471 16.7454 25.362 17.3101 25.7198 17.6494C25.7194 17.6494 29.4667 21.2025 29.47 21.2053Z" fill="#E98C00"/>
<path d="M30.0824 34.816C30.2532 34.8941 30.4422 34.9355 30.6302 34.9355H30.6376C30.8289 34.9346 31.0206 34.8909 31.1919 34.8091C44.7795 28.3557 47.0823 14.4321 47.4639 10.3184C47.5514 9.37909 47.0218 8.50439 46.1464 8.14187C43.4415 7.02038 41.6028 4.51247 41.3477 1.59696C41.2691 0.699481 40.5012 0 39.5964 0H39.5857L21.28 0.107362C20.3571 0.112475 19.6073 0.812886 19.5366 1.73639C19.3114 4.65283 17.4996 7.17886 14.8082 8.32871C13.9416 8.69867 13.4251 9.57801 13.5237 10.5169C13.9537 14.6259 16.4199 28.5221 30.0824 34.816ZM15.511 9.96935C18.8111 8.56016 21.0342 5.46618 21.3167 1.89162L39.5699 1.78472C39.8943 5.35138 42.1491 8.41701 45.4613 9.78995C45.6093 9.85176 45.6991 9.9977 45.6847 10.1539C45.3264 14.0091 43.1823 27.0083 30.6269 33.1001C17.9994 27.1566 15.7046 14.1825 15.3006 10.3314C15.2843 10.1757 15.369 10.0302 15.511 9.96935Z" fill="#E98C00"/>
<path d="M17.7396 14.9165C17.8475 15.3134 18.3516 15.6769 18.8365 15.5435C19.3121 15.4124 19.5937 14.924 19.4643 14.4485C19.2367 13.611 19.0455 12.7618 18.8951 11.9206C21.3226 10.3408 23.1242 7.98306 24.0079 5.22928L36.9124 5.15353C37.8283 7.89614 39.6573 10.2335 42.1034 11.7844C41.9633 12.628 41.7818 13.4799 41.5635 14.3207C41.4397 14.798 41.7269 15.2851 42.2043 15.4087C42.6828 15.5323 43.17 15.2456 43.2938 14.7683C43.5498 13.7811 43.7583 12.779 43.9128 11.79C43.9994 11.2374 43.7462 10.6941 43.2687 10.4059C40.9901 9.03158 39.3059 6.8755 38.5263 4.33506C38.3509 3.76386 37.8115 3.36694 37.213 3.36694H37.2046L23.6943 3.44595C23.092 3.44967 22.5531 3.85449 22.3842 4.42988C21.6349 6.97915 19.9758 9.15474 17.7135 10.556C17.2393 10.8493 16.9931 11.3954 17.0857 11.9476C17.2523 12.9343 17.472 13.9331 17.7396 14.9165Z" fill="#F0F8F7"/>
<path d="M41.4876 17.5624C41.0315 17.3737 40.5093 17.5912 40.3208 18.0467C38.2559 23.0448 34.9869 26.8448 30.602 29.3458C26.1831 26.8932 22.8667 23.1253 20.7436 18.1429C20.55 17.6898 20.025 17.4787 19.5713 17.6716C19.117 17.8645 18.9058 18.3888 19.0989 18.8419C21.4161 24.2788 25.0666 28.3776 29.9491 31.0236C30.1548 31.1356 30.38 31.1909 30.6048 31.1909C30.8352 31.1909 31.0651 31.1328 31.2745 31.0161C36.1202 28.3163 39.7195 24.1817 41.973 18.7271C42.1614 18.2716 41.9441 17.7502 41.4876 17.5624Z" fill="#F0F8F7"/>
<path d="M5.73563 45.6621C3.99274 45.6621 2.57422 47.0783 2.57422 48.8193C2.57422 50.5603 3.99274 51.9765 5.73563 51.9765C7.479 51.9765 8.89752 50.5603 8.89752 48.8193C8.89752 47.0783 7.47946 45.6621 5.73563 45.6621ZM5.73563 50.1918C4.97797 50.1918 4.36133 49.5764 4.36133 48.8193C4.36133 48.0627 4.97797 47.4468 5.73563 47.4468C6.49376 47.4468 7.11041 48.0627 7.11041 48.8193C7.11041 49.5764 6.49376 50.1918 5.73563 50.1918Z" fill="#F0F8F7"/>
<path d="M60.3592 36.9255C59.2138 35.2449 56.9078 34.7996 55.2189 35.9327L43.5375 43.7404L41.0439 43.6005L40.9802 42.9629C40.7317 40.4657 38.8203 38.476 36.3323 38.1246C36.3165 38.1223 36.3011 38.1204 36.2853 38.119L23.6983 37.0175C23.2724 36.9511 21.9093 36.5602 18.1638 34.4148C16.2171 33.2998 14.0237 32.6705 11.7954 32.585V30.2504C11.7954 29.0788 10.8413 28.126 9.66808 28.126H2.12731C0.954521 28.126 0 29.0792 0 30.2504V53.2432C0 54.4144 0.954521 55.3676 2.12731 55.3676H9.66808C10.8409 55.3676 11.7954 54.4144 11.7954 53.2432V52.6097L22.7982 56.7708C22.8224 56.7801 23.716 57.1138 25.3588 56.959C25.3635 56.9585 43.6408 54.327 43.6408 54.327C43.6455 54.3265 43.6497 54.3256 43.6543 54.3247C45.2162 54.076 46.6892 53.4165 47.9145 52.4187C47.9257 52.4094 47.9364 52.4001 47.9471 52.3908L59.7546 41.7852C61.1461 40.5512 61.4063 38.462 60.3592 36.9255ZM58.5637 40.4545L46.7687 51.049C45.7924 51.8396 44.6205 52.3624 43.3788 52.5613L25.1103 55.1915C25.1061 55.192 25.1 55.1929 25.0945 55.1938C25.0917 55.1943 25.0884 55.1947 25.0856 55.1952C24.5392 55.2812 23.9701 55.2449 23.3934 55.0874L11.7954 50.7013V40.5103C11.7954 40.0172 11.3951 39.6179 10.9018 39.6179C10.4081 39.6179 10.0083 40.0172 10.0083 40.5103V53.2432C10.0083 53.4305 9.85563 53.5829 9.66808 53.5829H2.12731C1.93976 53.5829 1.78711 53.4305 1.78711 53.2432V30.2504C1.78711 30.0631 1.93976 29.9107 2.12731 29.9107H9.66808C9.85563 29.9107 10.0083 30.0631 10.0083 30.2504V36.4793C10.0083 36.9724 10.4085 37.3717 10.9018 37.3717C11.3956 37.3717 11.7954 36.972 11.7954 36.4793V34.3716C13.7123 34.4562 15.5981 35.0027 17.2745 35.9634C21.792 38.5508 23.0537 38.7293 23.4684 38.7878C23.4842 38.7902 23.4996 38.7916 23.5154 38.7934L36.1038 39.8949C37.7634 40.1399 39.0358 41.471 39.2019 43.1395L39.2494 43.615L22.3961 44.6542C22.3845 44.6533 22.3728 44.6523 22.3626 44.6514C21.8162 44.6021 21.3229 44.3442 20.9725 43.925C20.6565 43.5462 20.0929 43.495 19.7141 43.8111C19.3348 44.1267 19.2836 44.6895 19.6 45.0678C20.2558 45.8533 21.181 46.3232 22.2034 46.4291C22.7554 46.4868 40.2323 45.3425 40.2323 45.3425L43.7358 45.5391C43.9294 45.5503 44.1216 45.4973 44.2826 45.3895L56.2144 37.4149C57.0907 36.827 58.2872 37.0575 58.8815 37.9294C59.4246 38.727 59.2897 39.8108 58.5637 40.4545Z" fill="#F0F8F7"/>
</svg>
