<svg width="64" height="58" viewBox="0 0 64 58" fill="none" xmlns="http://www.w3.org/2000/svg">
<path d="M60.2 0H54.7356C54.2136 0 53.7922 0.422626 53.7922 0.943377C53.7922 1.46538 54.2136 1.88675 54.7356 1.88675H60.2C61.2554 1.88675 62.1133 2.74588 62.1133 3.80001V25.8097C62.1133 26.8638 61.2554 27.7217 60.2 27.7217H55.3922V13.2056C55.3922 11.1113 53.6877 9.40677 51.5934 9.40677H27.7106V3.80026C27.7106 2.74613 28.5684 1.887 29.6226 1.887H50.9619C51.4826 1.887 51.9052 1.46563 51.9052 0.943627C51.9052 0.422876 51.4826 0.000250102 50.9619 0.000250102H29.6226C27.5282 0.000250102 25.8237 1.706 25.8237 3.80038V9.40689H21.0147C18.9203 9.40689 17.2158 11.1114 17.2158 13.2058V18.8123H12.4068C10.3124 18.8123 8.60789 20.5168 8.60789 22.6112V28.2177H3.80013C1.7045 28.2176 0 29.9221 0 32.0164V54.0261C0 56.1205 1.7045 57.8262 3.80013 57.8262H26.4979C27.0199 57.8262 27.4413 57.4036 27.4413 56.8829C27.4413 56.3609 27.0199 55.9395 26.4979 55.9395H3.80013C2.74476 55.9395 1.88688 55.0804 1.88688 54.0262V32.0164C1.88688 30.9623 2.74476 30.1044 3.80013 30.1044C12.0413 30.1044 31.0014 30.1044 34.3774 30.1044C35.4316 30.1044 36.2894 30.9623 36.2894 32.0164C36.2894 33.9971 36.2894 46.4392 36.2894 48.4196V54.0261C36.2894 55.0802 35.4316 55.9394 34.3774 55.9394H30.2716C29.7508 55.9394 29.3282 56.3607 29.3282 56.8827C29.3282 57.4035 29.7508 57.8261 30.2716 57.8261H34.3774C36.4718 57.8261 38.1763 56.1204 38.1763 54.026V48.4195H42.9853C45.0797 48.4195 46.7842 46.715 46.7842 44.6206V39.0141H51.5932C53.6876 39.0141 55.3921 37.3096 55.3921 35.2152V29.6087H60.1999C62.2955 29.6087 64 27.9042 64 25.8098V3.80026C64.0001 1.70575 62.2956 0 60.2 0ZM53.5054 35.2153C53.5054 36.2694 52.6475 37.1273 51.5934 37.1273H46.7843C46.7843 35.2891 46.7843 24.2348 46.7843 22.611C46.7843 20.5167 45.0798 18.8122 42.9855 18.8122H39.9098C39.3891 18.8122 38.9665 19.2335 38.9665 19.7555C38.9665 20.2763 39.3891 20.6989 39.9098 20.6989H42.9855C44.0396 20.6989 44.8975 21.5568 44.8975 22.6109C44.8975 24.9027 44.8975 42.0266 44.8975 44.6206C44.8975 45.6747 44.0396 46.5326 42.9855 46.5326H38.1765C38.1765 45.0788 38.1765 33.4994 38.1765 32.0163C38.1765 29.9152 36.4624 28.2174 34.3776 28.2174C31.5511 28.2174 13.3074 28.2174 10.4948 28.2174V22.6109C10.4948 21.5568 11.3526 20.6989 12.4068 20.6989C19.5617 20.6989 28.9663 20.6989 36.1361 20.6989C36.6568 20.6989 37.0795 20.2763 37.0795 19.7555C37.0795 19.2335 36.6568 18.8122 36.1361 18.8122C31.9656 18.8122 21.7947 18.8122 19.1027 18.8122V13.2056C19.1027 12.1515 19.9605 11.2936 21.0147 11.2936C24.1615 11.2936 48.6136 11.2936 51.5932 11.2936C52.6474 11.2936 53.5052 12.1515 53.5052 13.2056C53.5052 15.6805 53.5052 27.6333 53.5052 29.6088L53.5054 35.2153Z" fill="#F0F8F7"/>
</svg>
