<svg width="22" height="25" viewBox="0 0 22 25" fill="none" xmlns="http://www.w3.org/2000/svg">
<path d="M20.2347 16.4096C18.8878 16.4096 17.5652 16.1702 16.312 15.6996C15.6979 15.4616 14.9429 15.6799 14.5681 16.1174L12.0945 18.2394C9.22571 16.4992 7.45861 14.4918 5.94818 11.2563L7.76059 8.51855C8.23147 7.98418 8.40037 7.20358 8.19802 6.47116C7.78208 5.03952 7.57079 3.53737 7.57079 2.00612C7.57084 0.899935 6.7789 0 5.80552 0H1.76532C0.791941 0 0 0.899935 0 2.00605C0 14.6851 9.07715 25 20.2347 25C21.2081 25 22 24.1001 22 22.9939V18.4156C21.9999 17.3096 21.208 16.4096 20.2347 16.4096Z" fill="#F96B30"/>
</svg>
