<svg width="58" height="58" viewBox="0 0 58 58" fill="none" xmlns="http://www.w3.org/2000/svg">
<path d="M48.2359 0C42.8544 0 38.4718 4.38262 38.4718 9.76411C38.4718 14.0821 41.9866 19.2993 45.466 22.8919C47.5061 25.2236 49.1169 24.8972 51.004 22.8919C54.0652 18.9921 58 14.4221 58 9.76411C58 4.38262 53.6174 1.87097e-07 48.2359 0ZM48.2615 6.12998C48.6877 6.13004 49.1098 6.21407 49.5036 6.37728C49.8974 6.54049 50.2552 6.77968 50.5565 7.08119C50.8578 7.38269 51.0968 7.7406 51.2598 8.13448C51.4228 8.52836 51.5066 8.95049 51.5064 9.37676C51.5063 10.2373 51.1644 11.0626 50.5559 11.6712C49.9473 12.2797 49.122 12.6216 48.2615 12.6217C47.8352 12.6219 47.4131 12.5381 47.0192 12.3751C46.6253 12.2121 46.2674 11.9731 45.9659 11.6718C45.6644 11.3705 45.4252 11.0127 45.262 10.6189C45.0988 10.2251 45.0147 9.80303 45.0147 9.37676C45.0145 8.95034 45.0984 8.52806 45.2615 8.13406C45.4246 7.74006 45.6637 7.38207 45.9652 7.08054C46.2668 6.77901 46.6248 6.53986 47.0188 6.37676C47.4128 6.21366 47.835 6.1298 48.2615 6.12998ZM31.1304 22.6087C30.3715 22.6087 29.9917 23.5838 30.5037 24.1618C31.3189 25.015 32.1429 25.8755 32.9612 26.7307C33.8203 27.6968 35.2391 26.3412 34.3133 25.4389L33.4034 24.487H35.8955C37.1701 24.5145 37.1701 22.5885 35.8955 22.6161C34.321 22.6117 32.6853 22.6254 31.1304 22.6087ZM40.0394 22.6161C38.8188 22.6424 38.8188 24.4607 40.0394 24.487H42.2758C43.5504 24.5145 43.5504 22.5885 42.2758 22.6161H40.0394ZM36.9078 28.2673C36.229 28.3101 35.6653 29.1692 36.2336 29.8313L38.6636 32.3582C39.5215 33.3238 40.9405 31.9719 40.0175 31.0683L37.5874 28.5341C37.3735 28.3294 37.134 28.2531 36.9078 28.2673ZM3.74194 31.2053C1.68511 31.2053 0 32.8849 0 34.9418V54.2562C0 56.3131 1.68509 58 3.74194 58H22.0697C24.1266 58 25.8135 56.3131 25.8135 54.2562V34.9418C25.8135 32.8849 24.1266 31.2053 22.0697 31.2053H3.74194ZM3.74194 33.0763H15.1084V39.59C15.1084 39.8173 14.9591 39.9682 14.7302 39.9682H11.0833C10.8544 39.9682 10.6959 39.8174 10.6959 39.59V35.5429C10.6959 34.2953 8.82498 34.2953 8.82498 35.5429V39.59C8.82498 40.8231 9.85167 41.841 11.0833 41.841H14.7302C15.9618 41.841 16.9812 40.8231 16.9812 39.59V33.0763H22.0697C23.1225 33.0763 23.9407 33.8891 23.9407 34.9418V54.2562C23.9407 55.3089 23.1224 56.129 22.0697 56.129H3.74194C2.68928 56.129 1.87097 55.3089 1.87097 54.2562V34.9418C1.87097 33.8891 2.68927 33.0763 3.74194 33.0763ZM42.2777 33.4673C41.5693 33.5276 41.1305 34.4517 41.6966 35.0313L44.1267 37.5655C44.9905 38.5063 46.3836 37.1715 45.4806 36.2683L43.0487 33.7395C42.78 33.5229 42.5138 33.4472 42.2777 33.4673ZM47.622 39.6119C46.9104 39.6036 46.3367 40.4505 46.9587 41.2051L50.0246 44.5469H48.0002C46.7517 44.5469 46.7517 46.4197 48.0002 46.4197H52.1514C52.9658 46.4205 53.3923 45.4525 52.842 44.8521L48.34 39.9408C48.1113 39.713 47.8592 39.6147 47.622 39.6119ZM30.8125 44.5469C29.564 44.5469 29.564 46.4197 30.8125 46.4197H34.3206C35.5691 46.4197 35.5691 44.5469 34.3206 44.5469H30.8125ZM39.1131 44.5469C37.8646 44.5469 37.8646 46.4197 39.1131 46.4197H42.6212C43.8697 46.4197 43.8697 44.5469 42.6212 44.5469H39.1131ZM5.58915 45.667C4.4006 45.7254 4.509 47.5969 5.73715 47.5379H9.12828C10.3759 47.5379 10.3759 45.667 9.12828 45.667H5.64762C5.6281 45.667 5.60802 45.666 5.58915 45.667ZM5.65493 49.7962C4.38037 49.7687 4.38037 51.6948 5.65493 51.6672H12.4354C13.7099 51.6948 13.7099 49.7687 12.4354 49.7962H5.65493Z" fill="#E98C00"/>
</svg>
