<svg width="56" height="46" viewBox="0 0 56 46" fill="none" xmlns="http://www.w3.org/2000/svg">
<path d="M10.8759 33.7045C10.4615 33.7045 10.0825 33.4713 9.89753 33.102L0.938227 15.2325C0.93011 15.2164 0.922419 15.2002 0.915583 15.184C0.308043 13.8077 0 12.3428 0 10.8304C0 4.85869 4.87912 0 10.8759 0C16.8731 0 21.7523 4.85869 21.7523 10.8304C21.7523 12.3428 21.4442 13.8077 20.8367 15.184C20.8294 15.2002 20.8217 15.2164 20.814 15.2325L11.8547 33.102C11.6693 33.4713 11.2908 33.7045 10.8759 33.7045ZM2.90739 14.2838L10.8759 30.1775L18.8449 14.2838C19.3225 13.1925 19.5648 12.0306 19.5648 10.8304C19.5648 6.05974 15.667 2.17833 10.8759 2.17833C6.08523 2.17833 2.18749 6.05974 2.18749 10.8304C2.18749 12.0306 2.42974 13.1921 2.90739 14.2838Z" fill="#E98C00"/>
<path d="M45.122 33.7045C44.7076 33.7045 44.3286 33.4713 44.1436 33.102L35.1843 15.2325C35.1762 15.2164 35.1685 15.2002 35.1617 15.184C34.5541 13.8077 34.2461 12.3428 34.2461 10.8304C34.2461 4.85869 39.1248 0 45.122 0C51.1192 0 55.9984 4.85869 55.9984 10.8304C55.9984 12.3428 55.6903 13.8077 55.0828 15.184C55.0755 15.2002 55.0678 15.2168 55.0601 15.2325L46.1008 33.102C45.9154 33.4713 45.5369 33.7045 45.122 33.7045ZM37.1535 14.2838L45.122 30.1775L53.0905 14.2838C53.5686 13.1925 53.8109 12.0306 53.8109 10.8304C53.8109 6.05974 49.9131 2.17833 45.122 2.17833C40.3313 2.17833 36.4336 6.05974 36.4336 10.8304C36.4336 12.0301 36.6758 13.1921 37.1535 14.2838Z" fill="#E98C00"/>
<path d="M10.8733 16.7103C7.61766 16.7103 4.96875 14.0725 4.96875 10.8305C4.96875 7.58856 7.61766 4.95117 10.8733 4.95117C14.1289 4.95117 16.7778 7.58856 16.7778 10.8305C16.7778 14.0725 14.1293 16.7103 10.8733 16.7103ZM10.8733 7.12907C8.82377 7.12907 7.15624 8.78962 7.15624 10.8305C7.15624 12.8714 8.82377 14.532 10.8733 14.532C12.9227 14.532 14.5903 12.8714 14.5903 10.8305C14.5903 8.78962 12.9232 7.12907 10.8733 7.12907Z" fill="#E98C00"/>
<path d="M45.1272 16.7103C41.8716 16.7103 39.2227 14.0725 39.2227 10.8305C39.2227 7.58856 41.8716 4.95117 45.1272 4.95117C48.3828 4.95117 51.0317 7.58856 51.0317 10.8305C51.0317 14.0725 48.3832 16.7103 45.1272 16.7103ZM45.1272 7.12907C43.0777 7.12907 41.4101 8.78962 41.4101 10.8305C41.4101 12.8714 43.0777 14.532 45.1272 14.532C47.1767 14.532 48.8442 12.8714 48.8442 10.8305C48.8442 8.78962 47.1771 7.12907 45.1272 7.12907Z" fill="#E98C00"/>
<path d="M10.8783 45.9999C8.25121 45.9999 6.11328 43.8714 6.11328 41.2549C6.11328 38.6387 8.25121 36.5098 10.8783 36.5098C13.5059 36.5098 15.6434 38.6387 15.6434 41.2549C15.6438 43.8714 13.5059 45.9999 10.8783 45.9999ZM10.8783 38.6881C9.45732 38.6881 8.30077 39.8394 8.30077 41.2549C8.30077 42.6699 9.45732 43.8216 10.8783 43.8216C12.2998 43.8216 13.4559 42.6699 13.4559 41.2549C13.4563 39.8394 12.2998 38.6881 10.8783 38.6881Z" fill="#E98C00"/>
<path d="M45.1244 45.9999C42.4973 45.9999 40.3594 43.8714 40.3594 41.2549C40.3594 38.6387 42.4973 36.5098 45.1244 36.5098C47.752 36.5098 49.8899 38.6387 49.8899 41.2549C49.8899 43.8714 47.752 45.9999 45.1244 45.9999ZM45.1244 38.6881C43.7034 38.6881 42.5469 39.8394 42.5469 41.2549C42.5469 42.6699 43.7034 43.8216 45.1244 43.8216C46.5459 43.8216 47.7024 42.6699 47.7024 41.2549C47.7024 39.8394 46.5459 38.6881 45.1244 38.6881Z" fill="#E98C00"/>
<path d="M41.4513 42.3441H32.374C31.7699 42.3441 31.2803 41.8565 31.2803 41.2549C31.2803 40.6533 31.7699 40.1658 32.374 40.1658H41.4513C42.0554 40.1658 42.545 40.6533 42.545 41.2549C42.545 41.8565 42.0554 42.3441 41.4513 42.3441ZM23.6241 42.3441H14.5469C13.9427 42.3441 13.4531 41.8565 13.4531 41.2549C13.4531 40.6533 13.9427 40.1658 14.5469 40.1658H23.6241C24.2282 40.1658 24.7178 40.6533 24.7178 41.2549C24.7178 41.8565 24.2282 42.3441 23.6241 42.3441Z" fill="#E98C00"/>
<path fill-rule="evenodd" clip-rule="evenodd" d="M28 42.3441C28.6024 42.3441 29.0937 41.8548 29.0937 41.2549C29.0937 40.655 28.6024 40.1658 28 40.1658C27.3976 40.1658 26.9062 40.655 26.9062 41.2549C26.9062 41.8548 27.3976 42.3441 28 42.3441Z" fill="#E98C00"/>
</svg>
