<svg width="32" height="33" viewBox="0 0 32 33" fill="none" xmlns="http://www.w3.org/2000/svg">
<g clip-path="url(#clip0_903:5398)">
<path fill-rule="evenodd" clip-rule="evenodd" d="M0 0.275635V32.1757H32V0.275635H0ZM26.6896 21.4461C26.4181 22.6205 25.4544 23.4876 24.2944 23.6167C21.5485 23.9219 18.7682 23.924 15.9989 23.9219C13.2306 23.924 10.4504 23.9219 7.70363 23.6167C6.54333 23.4877 5.57975 22.6205 5.30961 21.4461C4.92308 19.7742 4.92308 17.9476 4.92308 16.2256C4.92308 14.5036 4.92765 12.6778 5.31383 11.0059C5.58397 9.83044 6.5479 8.96444 7.70673 8.83537C10.4538 8.52934 13.2352 8.52815 16.0034 8.52934C18.7714 8.52822 21.5519 8.52934 24.2987 8.83537C25.459 8.96444 26.4226 9.83044 26.6939 11.0059C27.0804 12.6778 27.0769 14.5036 27.0769 16.2256C27.0769 17.9476 27.0758 19.7742 26.6896 21.4461Z" fill="#F0F8F7"/>
<path fill-rule="evenodd" clip-rule="evenodd" d="M13.1406 19.654C15.4944 18.4372 17.8273 17.2306 20.1833 16.013C17.8204 14.784 15.4878 13.5717 13.1406 12.3507V19.654Z" fill="#F0F8F7"/>
</g>
<defs>
<clipPath id="clip0_903:5398">
<rect width="32" height="31.9001" fill="white" transform="translate(0 0.275635)"/>
</clipPath>
</defs>
</svg>
