<svg width="21" height="21" viewBox="0 0 21 21" fill="none" xmlns="http://www.w3.org/2000/svg">
<path d="M19.8448 1.15504C19.0749 0.384981 18.1474 -0.00012207 17.0628 -0.00012207H3.93753C2.85298 -0.00012207 1.9254 0.384981 1.15518 1.15504C0.385109 1.92525 0 2.85276 0 3.93735V17.0623C0 18.1468 0.385109 19.0744 1.15518 19.8446C1.9254 20.6148 2.85298 20.9999 3.93753 20.9999H17.0627C18.1472 20.9999 19.0748 20.6148 19.8447 19.8446C20.6149 19.0744 21 18.1468 21 17.0623V3.93735C21 2.85276 20.6148 1.92511 19.8448 1.15504ZM12.4006 3.03483H13.3167V6.75341C13.3167 6.97225 13.321 7.09077 13.3301 7.10901C13.3393 7.25487 13.4125 7.32771 13.5491 7.32771C13.7313 7.32771 13.9229 7.18654 14.1233 6.90401V3.03483H15.0394V8.09341H14.1233H14.123V7.54631C13.7493 7.95636 13.3985 8.16165 13.0704 8.16165C12.7789 8.16165 12.5829 8.03868 12.4824 7.79254C12.4277 7.62858 12.4006 7.37785 12.4006 7.04053V3.03483ZM8.9416 4.67552C8.9416 4.14694 9.03733 3.75035 9.22874 3.48611C9.47478 3.1398 9.83015 2.96654 10.295 2.96654C10.7417 2.96654 11.0973 3.13994 11.3613 3.48611C11.5529 3.7504 11.6486 4.14694 11.6486 4.67552V6.45292C11.6486 6.99983 11.5529 7.39633 11.3613 7.64237C11.0973 7.98888 10.7417 8.16204 10.295 8.16204C9.83015 8.16204 9.47478 7.98873 9.22874 7.64237C9.03733 7.37804 8.9416 6.98154 8.9416 6.45292V4.67552ZM6.48049 1.29851L7.20516 3.96469L7.9024 1.29851H8.92786L7.6973 5.3454H7.69749V8.09341H6.68578V5.3454C6.58541 4.84412 6.37581 4.12405 6.05683 3.18534C5.84723 2.55639 5.74235 2.24192 5.74235 2.24192L5.41409 1.29851H6.48049ZM17.7465 17.8007C17.6554 18.1924 17.4617 18.525 17.1652 18.7987C16.8692 19.0721 16.5253 19.2317 16.1333 19.2774C14.8847 19.4139 13.0068 19.4824 10.5004 19.4824C7.99377 19.4824 6.11616 19.4139 4.8675 19.2774C4.47564 19.2317 4.13162 19.0721 3.83529 18.7987C3.53906 18.525 3.34545 18.1924 3.25427 17.8007C3.07206 17.0349 2.98093 15.8499 2.98093 14.2459C2.98093 12.6688 3.07206 11.4843 3.25427 10.6912C3.3455 10.2901 3.53911 9.9551 3.83529 9.68612C4.13162 9.41714 4.48014 9.25988 4.88124 9.21439C6.12066 9.07748 7.99377 9.00924 10.5004 9.00924C13.0161 9.00924 14.8938 9.07767 16.1333 9.21439C16.5253 9.26003 16.8712 9.41709 17.1721 9.68612C17.473 9.95495 17.6692 10.2899 17.7602 10.6912C17.9331 11.4476 18.0198 12.6324 18.0198 14.2459C18.0199 15.8499 17.9287 17.0347 17.7465 17.8007Z" fill="white"/>
<path d="M4.10156 11.7167H5.16803V17.4998H6.17975V11.7167H7.27356V10.7596H4.10156V11.7167Z" fill="white"/>
<path d="M9.10558 16.3104C8.90507 16.5927 8.71357 16.734 8.53136 16.734C8.40374 16.734 8.33535 16.6657 8.32625 16.529C8.31711 16.5108 8.31251 16.3923 8.31251 16.1734V12.4819H7.41016V16.4467C7.41016 16.7931 7.43755 17.0393 7.49228 17.1848C7.57427 17.4401 7.76577 17.5676 8.06651 17.5676C8.40374 17.5676 8.75011 17.3626 9.10558 16.9524V17.4995H10.0215V12.4823H9.10558V16.3104Z" fill="white"/>
<path d="M12.6468 12.4138C12.3187 12.4138 12.0087 12.596 11.7173 12.9608V10.7596H10.8013V17.4998H11.7173V17.0076C12.0178 17.3812 12.3281 17.568 12.6468 17.568C13.0206 17.568 13.262 17.3766 13.3711 16.9938C13.435 16.8024 13.4668 16.4697 13.4668 15.9958V13.9998C13.4668 13.5167 13.4347 13.1794 13.3711 12.988C13.2619 12.6052 13.0206 12.4138 12.6468 12.4138ZM12.5647 16.0643C12.5647 16.5109 12.4326 16.7339 12.1682 16.7342C12.0135 16.7342 11.8628 16.6612 11.717 16.5153V13.4528C11.8628 13.3073 12.0134 13.2342 12.1682 13.2342C12.4326 13.2342 12.5647 13.4618 12.5647 13.9176V16.0643Z" fill="white"/>
<path d="M15.9687 16.0573C15.9687 16.153 15.9663 16.2281 15.9621 16.2828C15.9577 16.3376 15.9552 16.3695 15.9552 16.3785C15.9006 16.6153 15.7638 16.7338 15.545 16.7338C15.2351 16.7338 15.08 16.5014 15.08 16.0366V15.1481H16.8985V14.1088C16.8985 13.5803 16.803 13.1885 16.6114 12.9332C16.3656 12.5869 16.0099 12.4135 15.545 12.4135C15.08 12.4135 14.7156 12.5869 14.4511 12.9332C14.2688 13.1793 14.1777 13.5715 14.1777 14.1088V15.8726C14.1777 16.4104 14.2734 16.8024 14.4648 17.0486C14.7293 17.3949 15.0984 17.5682 15.5725 17.5682C16.0556 17.5682 16.4201 17.386 16.6664 17.0212C16.7757 16.857 16.8444 16.6748 16.8716 16.4744C16.8897 16.3467 16.8988 16.1507 16.8988 15.8864V15.7637V15.7634H15.969V16.0574H15.9687V16.0573ZM15.0804 13.9312C15.0804 13.4665 15.2308 13.2341 15.5316 13.2341C15.8325 13.2341 15.9827 13.4665 15.9827 13.9312V14.3963H15.0804V13.9312Z" fill="white"/>
<path d="M10.2949 7.3277C10.5865 7.3277 10.7323 7.0954 10.7323 6.63057V4.49771C10.7323 4.02388 10.5865 3.78674 10.2949 3.78674C10.0032 3.78674 9.85742 4.02388 9.85742 4.49771V6.63057C9.85742 7.09526 10.0032 7.3277 10.2949 7.3277Z" fill="white"/>
</svg>
