<svg width="49" height="54" viewBox="0 0 49 54" fill="none" xmlns="http://www.w3.org/2000/svg">
<path d="M43.2813 30.625H8.53417C3.82812 30.625 0 26.7479 0 21.9826C0 17.2174 3.82812 13.3382 8.53417 13.3382C8.87921 13.3382 9.21813 13.3586 9.55092 13.3974C9.44475 12.7706 9.39167 12.1357 9.39167 11.5007C9.39167 5.15929 14.4836 0 20.7433 0C26.6723 0 31.558 4.6305 32.0542 10.5105C33.173 9.86942 34.4409 9.52846 35.768 9.52846C39.9575 9.52846 43.365 12.9768 43.365 17.2174C43.365 17.834 43.2895 18.4526 43.1404 19.0569C46.3499 18.9814 49 21.6029 49 24.841C49 28.03 46.4336 30.625 43.2813 30.625ZM8.53417 15.3799C4.95512 15.3799 2.04167 18.3423 2.04167 21.9826C2.04167 25.6229 4.95512 28.5833 8.53417 28.5833H43.2833C45.3087 28.5833 46.9583 26.9051 46.9583 24.841C46.9583 22.7768 45.3087 21.0965 43.2813 21.0965C42.7974 21.0965 42.3544 21.1823 41.9277 21.362C41.5377 21.5232 41.0722 21.4252 40.7803 21.1067C40.4883 20.7882 40.4291 20.3207 40.6333 19.9389C41.0926 19.0794 41.3233 18.1627 41.3233 17.2174C41.3233 14.1038 38.8305 11.5701 35.768 11.5701C34.2306 11.5701 32.8035 12.199 31.7479 13.3382C31.4417 13.669 30.9537 13.7588 30.5535 13.5628C30.1513 13.3668 29.9206 12.9319 29.99 12.4889C30.037 12.1765 30.0533 11.8315 30.0533 11.5007C30.0554 6.28629 25.8781 2.04167 20.7433 2.04167C15.6085 2.04167 11.4333 6.28629 11.4333 11.5007C11.4333 12.4909 11.5926 13.477 11.905 14.4325C11.9417 14.5367 11.958 14.6469 11.958 14.7592C11.958 15.4922 11.0781 15.9862 10.4676 15.678C9.86738 15.482 9.21608 15.3799 8.53417 15.3799Z" fill="#E98C00"/>
<path d="M13.2702 40.8332C13.162 40.8332 13.0558 40.8169 12.9476 40.7802C12.4127 40.6025 12.1248 40.0247 12.3025 39.4898L14.3441 33.3648C14.5258 32.8299 15.1036 32.5441 15.6365 32.7196C16.1714 32.8973 16.4593 33.4751 16.2817 34.01L14.24 40.135C14.095 40.5637 13.6969 40.8332 13.2702 40.8332Z" fill="#E98C00"/>
<path d="M5.1042 48.9999C4.99599 48.9999 4.88982 48.9836 4.78161 48.9468C4.2467 48.7692 3.95882 48.1914 4.13645 47.6565L6.17811 41.5315C6.35778 40.9966 6.93557 40.7128 7.47049 40.8863C8.00541 41.064 8.29328 41.6418 8.11566 42.1767L6.07399 48.3017C5.92903 48.7304 5.53091 48.9999 5.1042 48.9999Z" fill="#E98C00"/>
<path d="M24.5013 53.0835C23.9378 53.0835 23.4805 52.6262 23.4805 52.0627V41.8543C23.4805 41.2908 23.9378 40.8335 24.5013 40.8335C25.0648 40.8335 25.5221 41.2908 25.5221 41.8543V52.0627C25.5221 52.6262 25.0648 53.0835 24.5013 53.0835Z" fill="#E98C00"/>
<path d="M28.9218 50.5312C28.7483 50.5312 28.5727 50.4883 28.4114 50.3944L19.571 45.2902C19.083 45.0085 18.9156 44.3837 19.1974 43.8958C19.4791 43.4058 20.1039 43.2445 20.5918 43.5222L29.4322 48.6263C29.9202 48.9081 30.0876 49.5328 29.8059 50.0208C29.618 50.3475 29.273 50.5312 28.9218 50.5312Z" fill="#E98C00"/>
<path d="M20.0808 50.5272C19.7296 50.5272 19.3846 50.3455 19.1968 50.0168C18.913 49.5289 19.0804 48.9041 19.5704 48.6224L28.4108 43.5182C28.8947 43.2385 29.5235 43.4018 29.8053 43.8918C30.0891 44.3798 29.9216 45.0045 29.4316 45.2863L20.5912 50.3904C20.4299 50.4844 20.2543 50.5272 20.0808 50.5272Z" fill="#E98C00"/>
<path d="M38.7904 46.9585C38.2269 46.9585 37.7695 46.5012 37.7695 45.9377V35.7293C37.7695 35.1658 38.2269 34.7085 38.7904 34.7085C39.3539 34.7085 39.8112 35.1658 39.8112 35.7293V45.9377C39.8112 46.5012 39.3539 46.9585 38.7904 46.9585Z" fill="#E98C00"/>
<path d="M43.2128 44.4064C43.0393 44.4064 42.8637 44.3635 42.7024 44.2696L33.862 39.1654C33.374 38.8837 33.2066 38.2589 33.4884 37.771C33.7701 37.281 34.3949 37.1176 34.8828 37.3973L43.7233 42.5015C44.2112 42.7833 44.3786 43.408 44.0969 43.896C43.909 44.2226 43.564 44.4064 43.2128 44.4064Z" fill="#E98C00"/>
<path d="M34.3738 44.4021C34.0226 44.4021 33.6776 44.2204 33.4897 43.8917C33.2059 43.4037 33.3734 42.779 33.8634 42.4972L42.7038 37.3931C43.1897 37.1113 43.8165 37.2747 44.0982 37.7667C44.382 38.2547 44.2146 38.8794 43.7246 39.1612L34.8842 44.2653C34.7229 44.3592 34.5473 44.4021 34.3738 44.4021Z" fill="#E98C00"/>
</svg>
