<svg width="44" height="37" viewBox="0 0 44 37" fill="none" xmlns="http://www.w3.org/2000/svg">
<path d="M43.5 4.85531C43.5 4.72418 43.4309 4.60287 43.3187 4.53721L35.6458 0.0492331C35.5336 -0.0164262 35.3955 -0.0163346 35.2834 0.0490492L6.32957 16.9598C6.21736 17.0254 6.14819 17.1466 6.1481 17.278V17.2781V19.6917L1.53245 22.3564C1.43673 22.4117 1.37246 22.5075 1.35478 22.6156L0.517676 27.7233C0.506526 27.7588 0.5 27.7961 0.5 27.8344V32.1455C0.5 32.2768 0.569162 32.3981 0.68129 32.4636L8.35368 36.9508C8.40979 36.9836 8.47243 37 8.53497 37C8.59752 37 8.66015 36.9836 8.71626 36.9508C8.71699 36.9503 12.0772 35.0165 12.0772 35.0165C12.1394 35.4836 12.3534 35.8696 12.7163 36.0818C12.9041 36.1916 13.1116 36.2439 13.328 36.2439C14.0163 36.2439 14.7924 35.7153 15.2952 34.8332C15.5952 34.3066 15.7498 33.7309 15.7304 33.2122C15.7264 33.1049 15.7128 33.0037 15.6946 32.9059L21.8574 29.3016C21.9295 29.7418 22.1417 30.1034 22.489 30.3065C22.6768 30.4163 22.8844 30.4686 23.1007 30.4686C23.789 30.4685 24.5651 29.94 25.0679 29.0579C25.2732 28.6977 25.4085 28.3148 25.4684 27.9426C25.5745 28.1167 25.7141 28.2622 25.8903 28.3653C26.0781 28.4751 26.2857 28.5274 26.502 28.5274C27.1903 28.5274 27.9664 27.9988 28.4692 27.1167C28.7693 26.5902 28.9239 26.0144 28.9045 25.4958C28.9006 25.3925 28.8877 25.2952 28.8708 25.2008L29.2677 24.9687C29.3799 24.9031 29.449 24.7819 29.449 24.6505V22.2469L31.6849 20.9411C31.6849 20.9411 33.7679 22.1526 33.7749 22.1567C33.8307 22.1891 33.893 22.2053 33.9552 22.2053C34.0185 22.2053 34.0819 22.1885 34.1384 22.1548L34.8325 21.7428C34.9064 22.195 35.1234 22.5459 35.4616 22.7438C35.6475 22.8526 35.8544 22.9067 36.0735 22.9067C36.3283 22.9067 36.5994 22.8334 36.8724 22.6874C37.3255 22.4449 37.7403 22.0215 38.0403 21.495C38.2509 21.1256 38.3837 20.7454 38.4426 20.3836C38.5498 20.5579 38.6895 20.7012 38.8628 20.8024C39.0487 20.9113 39.2556 20.9654 39.4747 20.9654C39.7295 20.9654 40.0005 20.8921 40.2736 20.7461C40.7267 20.5036 41.1416 20.0802 41.4416 19.5537C41.818 18.8933 41.9474 18.1981 41.8448 17.6367L42.24 17.4057C42.3522 17.34 42.4213 17.2188 42.4213 17.0875V14.6705L43.3183 14.1466C43.4307 14.081 43.4998 13.9596 43.4998 13.8283L43.5 4.85531ZM35.4644 0.791413L42.412 4.85504L14.1831 21.3412L7.23621 17.2782L35.4644 0.791413ZM6.87326 17.9143L13.8204 21.9774V23.7587L6.87326 19.6949V17.9143ZM6.50805 20.3296L13.4527 24.3919L9.3855 26.7394L2.44071 22.6777L6.50805 20.3296ZM6.24827 34.8714L3.14929 33.0588V31.6857L6.24827 33.4982V34.8714ZM6.79214 32.9681L2.968 30.7315C2.85578 30.6659 2.71754 30.6659 2.60542 30.7315C2.4932 30.7971 2.42413 30.9184 2.42413 31.0496V31.0648L1.22516 30.3343V28.4706L8.17239 32.5341L8.1723 34.4743L6.97343 33.7437V33.2862C6.97343 33.155 6.90426 33.0336 6.79214 32.9681ZM8.84697 28.2421L1.8391 24.1434L1.98395 23.2587L8.98684 27.3545L8.84697 28.2421ZM8.72451 29.0187L8.29295 31.7563L1.26541 27.6459L1.71229 24.9174L8.72451 29.0187ZM9.7149 27.3948L10.695 26.8291V30.6367L9.05228 31.5977L9.7149 27.3948ZM1.22516 31.1916L2.42413 31.922V32.6347L1.22516 31.9335V31.1916ZM6.97343 35.2955V34.6011L8.1723 35.3316V35.9967L6.97343 35.2955ZM12.4943 33.1949C12.4942 33.1949 12.4942 33.1949 12.4943 33.1949C12.3149 33.5097 12.1933 33.832 12.1243 34.1445L8.89764 36.0013V32.5364L11.239 31.1669C11.3512 31.1013 11.4203 30.98 11.4203 30.8488V26.4106L13.8204 25.0253V31.9267C13.7678 31.9495 13.7152 31.9744 13.6623 32.0025C13.2092 32.2449 12.7943 32.6684 12.4943 33.1949ZM14.6671 34.4658C14.1862 35.3094 13.444 35.6594 13.0788 35.4457C12.7135 35.232 12.6415 34.4059 13.1223 33.5622C13.3516 33.1599 13.6718 32.8282 14.0009 32.6523C14.1627 32.5657 14.47 32.4419 14.7106 32.5824C14.9513 32.7231 14.9988 33.0548 15.0058 33.24C15.0197 33.6168 14.8964 34.0635 14.6671 34.4658ZM15.0731 31.9463C14.9113 31.8516 14.7333 31.799 14.5455 31.7867V30.9508L18.399 28.7003V30.4759L15.3984 32.2307C15.3068 32.1172 15.1994 32.02 15.0731 31.9463ZM24.4398 28.6905C23.9589 29.534 23.2168 29.8838 22.8515 29.6703C22.4862 29.4566 22.4141 28.6305 22.8949 27.7869C23.1241 27.3845 23.4444 27.0528 23.7734 26.8769C23.8824 26.8186 24.0572 26.7434 24.2334 26.7434C24.3187 26.7434 24.4045 26.7611 24.4831 26.807C24.7238 26.9478 24.7713 27.2795 24.7782 27.4646C24.7925 27.8414 24.6691 28.2882 24.4398 28.6905ZM27.841 26.7493C27.3602 27.5928 26.6181 27.9426 26.2528 27.7291C25.8874 27.5154 25.8154 26.6893 26.2962 25.8456C26.5254 25.4433 26.8457 25.1116 27.1747 24.9357C27.2837 24.8774 27.4585 24.8022 27.6346 24.8022C27.72 24.8022 27.8058 24.8199 27.8844 24.8658C28.125 25.0066 28.1726 25.3383 28.1795 25.5234C28.1937 25.9002 28.0704 26.3469 27.841 26.7493ZM28.7237 24.4383L28.5794 24.5227C28.4864 24.4054 28.3766 24.3053 28.2471 24.2296C27.845 23.9942 27.344 24.0143 26.8362 24.2859C26.3831 24.5283 25.9683 24.9517 25.6682 25.4782C25.4858 25.7982 25.3633 26.1259 25.295 26.4432L25.2043 26.4963C25.1065 26.3641 24.9873 26.2535 24.8459 26.1708C24.4438 25.9355 23.9428 25.9556 23.435 26.2271C22.9818 26.4695 22.567 26.893 22.267 27.4194C22.0743 27.7576 21.948 28.1046 21.8825 28.4385L19.1241 30.0517V28.2766L28.7237 22.6702V24.4383H28.7237ZM32.4104 20.5172L33.5924 19.8269V21.2086L32.4104 20.5172ZM37.4124 21.1277C37.1831 21.53 36.8629 21.8617 36.5338 22.0377C36.372 22.1242 36.0648 22.2481 35.8241 22.1075C35.5834 21.9668 35.5358 21.6351 35.5289 21.4499C35.5148 21.0732 35.6382 20.6264 35.8675 20.2241C36.3484 19.3805 37.0904 19.0307 37.4558 19.2443C37.8212 19.4579 37.8931 20.2841 37.4124 21.1277ZM40.8137 19.1864C40.5844 19.5887 40.2641 19.9204 39.9351 20.0964C39.7733 20.1828 39.4661 20.3068 39.2254 20.1662C38.9847 20.0255 38.9372 19.6938 38.9302 19.5086C38.9162 19.1319 39.0395 18.6851 39.2688 18.2828C39.7496 17.4392 40.4917 17.0892 40.8571 17.3029C41.2224 17.5167 41.2944 18.3428 40.8137 19.1864ZM41.6963 16.8755L41.5518 16.96C41.4597 16.8433 41.3501 16.743 41.2197 16.6667C40.4344 16.2074 39.3017 16.7561 38.6409 17.9155C38.4633 18.2271 38.3381 18.556 38.2684 18.8801L38.1771 18.9334C38.0803 18.8022 37.9611 18.6914 37.8185 18.608C37.0332 18.1487 35.9005 18.6974 35.2397 19.8568C35.0516 20.1867 34.9208 20.5359 34.8541 20.8785L34.3177 21.1969V19.4034L41.6964 15.094V16.8755H41.6963ZM14.5455 30.1027V21.9775L42.7748 5.49106V13.6161L14.5455 30.1027Z" fill="#0B327D"/>
</svg>
