<svg width="43" height="42" viewBox="0 0 43 42" fill="none" xmlns="http://www.w3.org/2000/svg">
<path d="M41.9238 9.95252C41.7792 9.41497 41.4266 8.95669 40.944 8.67886C40.4611 8.39965 39.887 8.32413 39.3484 8.46869C38.8105 8.61358 38.3523 8.96592 38.0744 9.44846L37.7245 10.0574C37.392 9.86641 36.9672 9.97884 36.7727 10.3096L34.995 13.3399L34.386 12.9899C34.2247 12.8966 34.0327 12.8713 33.8529 12.9199C33.6728 12.9687 33.5197 13.087 33.4271 13.249C33.2374 13.5835 33.3529 14.0086 33.6861 14.2007L34.2951 14.5507L28.3461 24.86L26.8763 28.7866L26.1764 30.0951C25.7666 30.808 25.8104 31.6941 26.2885 32.3629L24.7137 34.2944L24.2729 33.1889C24.074 32.6961 23.6137 32.3584 23.0843 32.3171C22.5546 32.2754 22.0471 32.5372 21.7741 32.9927L21.5222 33.4195L21.2843 30.62C21.2297 29.9577 20.7167 29.4253 20.0572 29.3453C19.3973 29.2657 18.7726 29.6611 18.5617 30.2912L16.84 35.4563C16.7197 35.8216 16.9166 36.2153 17.2809 36.3384C17.3492 36.3701 17.4227 36.3893 17.4979 36.3941C17.7986 36.3951 18.0665 36.2034 18.1629 35.9184L19.8774 30.7533L20.1224 33.5945C20.173 34.2008 20.6087 34.7048 21.2013 34.8422C21.7939 34.9796 22.407 34.7185 22.719 34.1967L22.978 33.7695L23.412 34.8685C23.5962 35.3316 24.0128 35.662 24.5059 35.7355C24.9991 35.809 25.4939 35.6145 25.8056 35.2253L27.4364 33.1608C27.6168 33.208 27.8027 33.2316 27.9893 33.2309C28.7394 33.2367 29.4359 32.8417 29.8159 32.1947L30.5158 31.026L33.1824 27.7856L39.1943 17.3502L39.8033 17.7001C39.9656 17.7931 40.0839 17.9465 40.132 18.1273C40.1806 18.3067 40.1553 18.4981 40.0623 18.6591L37.2628 23.5094C37.1572 23.6686 37.1213 23.8641 37.1637 24.0507C37.2061 24.237 37.3226 24.3979 37.4866 24.496C37.6479 24.5896 37.84 24.6149 38.0197 24.5664C38.1998 24.5175 38.3529 24.3993 38.4456 24.2373L41.2451 19.387C41.5243 18.9041 41.5998 18.33 41.4549 17.7914C41.31 17.2535 40.9577 16.7952 40.4752 16.5174L39.8662 16.1674L41.6159 13.1369C41.8069 12.8044 41.6945 12.3799 41.364 12.1851L41.714 11.5761C42.0007 11.0857 42.0766 10.5 41.9238 9.95252ZM39.2852 10.1483C39.3778 9.98636 39.5316 9.86777 39.7124 9.81959C39.8921 9.77516 40.0822 9.80011 40.2441 9.88964C40.4065 9.98226 40.5247 10.136 40.5732 10.3165C40.6177 10.4962 40.5927 10.6862 40.5032 10.8482L40.1532 11.4572L38.9353 10.7573L39.2852 10.1483ZM29.7459 29.6894L29.3959 29.4864L28.3601 28.8843L29.3539 26.2249L31.5585 27.4985L29.7459 29.6894ZM27.6462 31.7119C27.3506 31.5058 27.2597 31.1094 27.4364 30.795L27.7863 30.1863L29.0039 30.8862L28.654 31.488C28.5559 31.6582 28.3912 31.7792 28.1995 31.8219C28.0078 31.8643 27.8072 31.8246 27.6462 31.7119ZM32.3564 26.351L29.9348 24.9512L35.5339 15.2505L37.9555 16.6503L32.3564 26.351ZM38.6554 15.4395L36.2338 14.0397L37.6336 11.6182L40.0552 13.0179L38.6554 15.4395Z" fill="#F0F8F7"/>
<path d="M11.0438 31.3619L8.56656 33.8327L7.08272 32.3489C6.80966 32.0775 6.36882 32.0775 6.09577 32.3489C5.96317 32.4804 5.88867 32.6592 5.88867 32.8458C5.88867 33.0324 5.96317 33.2114 6.09577 33.3427L7.57961 34.8265C7.84206 35.0869 8.19679 35.2328 8.56656 35.2325C8.93837 35.2345 9.29617 35.0886 9.56034 34.8265L12.0308 32.3489C12.2686 32.071 12.2526 31.6572 11.9942 31.3988C11.7355 31.1401 11.3217 31.1241 11.0438 31.3619Z" fill="#F0F8F7"/>
<path d="M2.80078 33.2446C2.80078 36.5305 5.46431 39.1936 8.74981 39.1936C12.0353 39.1936 14.6988 36.5305 14.6988 33.2446C14.6988 32.8581 14.3855 32.5447 13.999 32.5447C13.6124 32.5447 13.2991 32.8581 13.2991 33.2446C13.2991 35.7571 11.2623 37.7939 8.74981 37.7939C6.23733 37.7939 4.20055 35.7571 4.20055 33.2446C4.20055 30.7321 6.23733 28.6954 8.74981 28.6954C9.73471 28.6926 10.6933 29.0122 11.4793 29.6054C11.7886 29.8375 12.2274 29.7746 12.4591 29.4653C12.6911 29.156 12.6286 28.7176 12.3193 28.4855C10.5166 27.1336 8.1046 26.9163 6.08936 27.9237C4.07377 28.9315 2.80078 30.9915 2.80078 33.2446Z" fill="#F0F8F7"/>
<path d="M25.1957 5.59911C25.5823 5.59911 25.8956 5.28608 25.8956 4.89923C25.8956 4.51272 25.5823 4.19934 25.1957 4.19934H6.99871C6.6122 4.19934 6.29883 4.51272 6.29883 4.89923V7.69877C6.29883 8.08562 6.6122 8.39865 6.99871 8.39865H25.1957C25.5823 8.39865 25.8956 8.08562 25.8956 7.69877C25.8956 7.31226 25.5823 6.99888 25.1957 6.99888H7.6986V5.59911H25.1957Z" fill="#F0F8F7"/>
<path d="M9.09832 9.79834C8.71181 9.79834 8.39844 10.1117 8.39844 10.4982C8.39844 10.8851 8.71181 11.1981 9.09832 11.1981H23.096C23.4825 11.1981 23.7959 10.8851 23.7959 10.4982C23.7959 10.1117 23.4825 9.79834 23.096 9.79834H9.09832Z" fill="#F0F8F7"/>
<path d="M27.2966 14.6976H11.8991C11.5126 14.6976 11.1992 15.011 11.1992 15.3975C11.1992 15.7843 11.5126 16.0974 11.8991 16.0974H27.2966C27.6831 16.0974 27.9965 15.7843 27.9965 15.3975C27.9965 15.011 27.6831 14.6976 27.2966 14.6976Z" fill="#F0F8F7"/>
<path d="M20.2979 19.5968C20.2979 19.2103 19.9845 18.8969 19.598 18.8969H5.60028C5.21377 18.8969 4.90039 19.2103 4.90039 19.5968C4.90039 19.9837 5.21377 20.2967 5.60028 20.2967H19.598C19.9845 20.2967 20.2979 19.9837 20.2979 19.5968Z" fill="#F0F8F7"/>
<path d="M27.2944 18.8969H22.3952C22.0087 18.8969 21.6953 19.2103 21.6953 19.5968C21.6953 19.9837 22.0087 20.2967 22.3952 20.2967H27.2944C27.6809 20.2967 27.9943 19.9837 27.9943 19.5968C27.9943 19.2103 27.6809 18.8969 27.2944 18.8969Z" fill="#F0F8F7"/>
<path d="M12.5991 23.7961C12.9856 23.7961 13.299 23.4831 13.299 23.0962C13.299 22.7097 12.9856 22.3963 12.5991 22.3963H5.60028C5.21377 22.3963 4.90039 22.7097 4.90039 23.0962C4.90039 23.4831 5.21377 23.7961 5.60028 23.7961H12.5991Z" fill="#F0F8F7"/>
<path d="M15.3972 23.7961H20.2964C20.6829 23.7961 20.9962 23.4831 20.9962 23.0962C20.9962 22.7097 20.6829 22.3963 20.2964 22.3963H15.3972C15.0106 22.3963 14.6973 22.7097 14.6973 23.0962C14.6973 23.4831 15.0106 23.7961 15.3972 23.7961Z" fill="#F0F8F7"/>
<path d="M31.4949 32.1947C31.1083 32.1947 30.795 32.5081 30.795 32.8946V39.8935C30.795 40.2803 30.4816 40.5934 30.0951 40.5934H2.09966C1.71315 40.5934 1.39977 40.2803 1.39977 39.8935V2.09966C1.39977 1.71315 1.71315 1.39977 2.09966 1.39977H30.0951C30.4816 1.39977 30.795 1.71315 30.795 2.09966V15.2437C30.795 15.6302 31.1083 15.9436 31.4949 15.9436C31.8814 15.9436 32.1947 15.6302 32.1947 15.2437V2.09966C32.1947 0.94013 31.2546 0 30.0951 0H2.09966C0.94013 0 0 0.94013 0 2.09966V39.8935C0 41.0534 0.94013 41.9931 2.09966 41.9931H30.0951C31.2546 41.9931 32.1947 41.0534 32.1947 39.8935V32.8946C32.1947 32.5081 31.8814 32.1947 31.4949 32.1947Z" fill="#F0F8F7"/>
</svg>
