<svg width="35" height="42" viewBox="0 0 35 42" fill="none" xmlns="http://www.w3.org/2000/svg">
<path d="M21.352 24.7261H6.28735C5.95386 24.7261 5.68359 25.0018 5.68359 25.3418C5.68359 25.6819 5.95394 25.9575 6.28735 25.9575H21.352C21.6855 25.9575 21.9558 25.6818 21.9558 25.3418C21.9558 25.0017 21.6855 24.7261 21.352 24.7261Z" fill="#095F71"/>
<path d="M16.674 27.624H6.28735C5.95386 27.624 5.68359 27.8997 5.68359 28.2397C5.68359 28.5798 5.95394 28.8555 6.28735 28.8555H16.674C17.0075 28.8555 17.2778 28.5798 17.2778 28.2397C17.2778 27.8997 17.0075 27.624 16.674 27.624Z" fill="#095F71"/>
<path d="M34.1962 12.6153C34.5297 12.6153 34.8 12.3396 34.8 11.9996V6.42969C34.8 6.08967 34.5297 5.81396 34.1962 5.81396H27.3493V0.615727C27.3493 0.275707 27.079 0 26.7456 0H0.603751C0.270264 0 0 0.275707 0 0.615727V21.7635C0 22.1036 0.270264 22.3793 0.603751 22.3793C0.937238 22.3793 1.2075 22.1036 1.2075 21.7635V1.23154H26.1418V29.6902H21.5836C21.2501 29.6902 20.9798 29.9659 20.9798 30.306V34.9546L1.20758 34.9547V24.2265C1.20758 23.8865 0.937319 23.6108 0.603832 23.6108C0.270345 23.6108 8.03916e-05 23.8865 8.03916e-05 24.2265V35.5704C8.03916e-05 35.9105 0.270345 36.1861 0.603832 36.1861H7.45077V41.3843C7.45077 41.7244 7.72104 42 8.05452 42H29.0344C29.0393 42 29.0441 41.9994 29.0489 41.9993C29.0637 41.9989 29.0785 41.9985 29.0932 41.997C29.1047 41.9959 29.1161 41.9938 29.1274 41.9919C29.1354 41.9906 29.1435 41.9898 29.1515 41.9882C29.1636 41.9857 29.1754 41.9823 29.1873 41.9792C29.1944 41.9773 29.2016 41.9759 29.2085 41.9737C29.22 41.9702 29.2313 41.9657 29.2425 41.9614C29.2497 41.9587 29.2569 41.9565 29.264 41.9536C29.2749 41.949 29.2853 41.9436 29.2959 41.9384C29.303 41.9349 29.3103 41.9318 29.3174 41.9281C29.3286 41.922 29.3394 41.915 29.3501 41.9082C29.3561 41.9044 29.3623 41.9012 29.3682 41.8972C29.3827 41.8874 29.3967 41.8765 29.4105 41.8654C29.4122 41.8639 29.4142 41.8628 29.4159 41.8612C29.4315 41.8482 29.4466 41.8345 29.461 41.8198L34.623 36.5553C34.6421 36.5358 34.6592 36.5147 34.6756 36.4929C34.6795 36.4877 34.6834 36.4824 34.6871 36.4771C34.7023 36.4552 34.7167 36.4327 34.729 36.4091C34.7295 36.408 34.7299 36.4069 34.7305 36.4058C34.7422 36.3832 34.752 36.3596 34.7607 36.3357C34.7631 36.3294 34.7652 36.3232 34.7673 36.3169C34.7756 36.2918 34.7829 36.2662 34.7881 36.2401C34.7881 36.2399 34.7882 36.2398 34.7882 36.2396C34.7932 36.2139 34.796 36.1877 34.7977 36.1613C34.7982 36.1545 34.7986 36.1476 34.7987 36.1408C34.799 36.1338 34.7997 36.127 34.7997 36.12V14.4626C34.7997 14.1226 34.5294 13.8469 34.1959 13.8469C33.8624 13.8469 33.5922 14.1226 33.5922 14.4626V35.5041H29.0342C28.7007 35.5041 28.4304 35.7798 28.4304 36.1198V40.7685H8.65811V36.186H21.5836C21.5885 36.186 21.5932 36.1854 21.5981 36.1853C21.6129 36.185 21.6277 36.1846 21.6424 36.1831C21.6539 36.1819 21.6652 36.1798 21.6766 36.1779C21.6845 36.1767 21.6927 36.1759 21.7006 36.1742C21.7128 36.1718 21.7246 36.1683 21.7365 36.1651C21.7435 36.1632 21.7507 36.1618 21.7577 36.1597C21.7692 36.1562 21.7804 36.1517 21.7917 36.1474C21.7988 36.1447 21.8061 36.1425 21.8132 36.1395C21.824 36.1349 21.8345 36.1295 21.845 36.1243C21.8522 36.1208 21.8595 36.1178 21.8666 36.114C21.8777 36.1079 21.8885 36.101 21.8993 36.0942C21.9052 36.0904 21.9114 36.0871 21.9173 36.0832C21.9319 36.0733 21.9459 36.0626 21.9596 36.0513C21.9614 36.0499 21.9633 36.0486 21.9651 36.0472C21.9807 36.0343 21.9957 36.0204 22.0101 36.0058L27.1721 30.7414C27.1912 30.7219 27.2085 30.7008 27.2248 30.6789C27.2287 30.6738 27.2325 30.6685 27.2362 30.6633C27.2516 30.6414 27.2659 30.6188 27.2782 30.5951C27.2787 30.5941 27.2791 30.5931 27.2796 30.5922C27.2913 30.5694 27.3011 30.5458 27.31 30.5217C27.3122 30.5155 27.3145 30.5093 27.3165 30.503C27.3249 30.4779 27.3322 30.4524 27.3372 30.4261C27.3372 30.426 27.3372 30.4258 27.3373 30.4256C27.3423 30.4 27.3451 30.3736 27.3469 30.3473C27.3474 30.3404 27.3476 30.3336 27.3479 30.3267C27.3481 30.3197 27.3489 30.3129 27.3489 30.306V7.04542H33.5921V11.9996C33.5925 12.3396 33.8628 12.6153 34.1962 12.6153ZM29.638 36.7356H32.7387L29.638 39.8977V36.7356ZM22.1873 34.0838V30.9217H25.2879L22.1873 34.0838Z" fill="#F96B30"/>
<path d="M17.966 10.1644C17.6559 9.84806 17.2434 9.67383 16.8048 9.67383C16.3661 9.67391 15.9538 9.84814 15.6435 10.1645L12.081 13.7976L10.8803 12.5731C10.5703 12.2568 10.1578 12.0826 9.71909 12.0826C9.28039 12.0826 8.868 12.2568 8.55784 12.5731C7.91757 13.2262 7.91757 14.2887 8.55784 14.9416L10.9198 17.3505C11.2301 17.6668 11.6425 17.841 12.081 17.841C12.5197 17.841 12.9321 17.6667 13.2423 17.3504L17.9659 12.533C18.2761 12.2167 18.447 11.7961 18.447 11.3487C18.447 10.9013 18.2763 10.4807 17.966 10.1644ZM17.112 11.6621L12.3883 16.4796C12.3061 16.5633 12.1971 16.6094 12.081 16.6094C11.9666 16.6094 11.8546 16.562 11.7737 16.4796L9.41183 14.0709C9.24227 13.8979 9.24227 13.6167 9.41183 13.4439C9.49395 13.3601 9.60302 13.3141 9.71909 13.3141C9.83516 13.3141 9.94431 13.3601 10.0264 13.4439L11.654 15.1038C11.7672 15.2193 11.9208 15.2842 12.0809 15.2842C12.2411 15.2842 12.3945 15.2193 12.5079 15.1038L16.4974 11.0351C16.5795 10.9514 16.6887 10.9053 16.8048 10.9053C16.9208 10.9053 17.0299 10.9514 17.112 11.0351C17.1942 11.1189 17.2393 11.2302 17.2393 11.3486C17.2394 11.467 17.1942 11.5783 17.112 11.6621Z" fill="#095F71"/>
<path d="M13.2617 4.58984C11.4088 4.58984 9.63376 5.16652 8.1284 6.25754C7.85661 6.4545 7.79282 6.83889 7.98595 7.11616C8.17908 7.39334 8.55584 7.45839 8.82787 7.26136C10.1277 6.31923 11.6609 5.8213 13.2616 5.8213C17.487 5.8213 20.9246 9.32715 20.9246 13.6363C20.9246 17.9455 17.487 21.4514 13.2616 21.4514C9.0362 21.4514 5.59854 17.9456 5.59854 13.6363C5.59854 11.8846 6.1537 10.2292 7.20403 8.84907C7.40858 8.58042 7.3608 8.19356 7.09738 7.98512C6.83403 7.77668 6.45477 7.82532 6.25023 8.09397C5.03396 9.69211 4.39111 11.6087 4.39111 13.6363C4.39111 18.6247 8.37043 22.6829 13.2617 22.6829C18.1529 22.6829 22.1322 18.6247 22.1322 13.6363C22.1322 8.64801 18.153 4.58984 13.2617 4.58984Z" fill="#F96B30"/>
</svg>
