<svg width="32" height="33" viewBox="0 0 32 33" fill="none" xmlns="http://www.w3.org/2000/svg">
<g clip-path="url(#clip0_903:5396)">
<path d="M15.9996 13.0537C14.2456 13.0537 12.8174 14.4768 12.8174 16.2253C12.8174 17.9746 14.2456 19.3983 15.9996 19.3983C17.7544 19.3983 19.1819 17.9746 19.1819 16.2253C19.1819 14.4768 17.7544 13.0537 15.9996 13.0537ZM15.9996 13.0537C14.2456 13.0537 12.8174 14.4768 12.8174 16.2253C12.8174 17.9746 14.2456 19.3983 15.9996 19.3983C17.7544 19.3983 19.1819 17.9746 19.1819 16.2253C19.1819 14.4768 17.7544 13.0537 15.9996 13.0537ZM21.301 7.88159H10.699C9.00674 7.88159 7.62978 9.25425 7.62978 10.9412V21.5102C7.62978 23.1971 9.00674 24.5698 10.699 24.5698H21.301C22.9933 24.5698 24.3702 23.1971 24.3702 21.5102V10.9412C24.3702 9.25425 22.9933 7.88159 21.301 7.88159ZM15.9996 21.7194C12.9614 21.7194 10.489 19.2548 10.489 16.2253C10.489 13.1965 12.9614 10.7319 15.9996 10.7319C19.0386 10.7319 21.511 13.1965 21.511 16.2253C21.511 19.2548 19.0386 21.7194 15.9996 21.7194ZM21.6879 11.868C20.9689 11.868 20.384 11.2849 20.384 10.5681C20.384 9.85133 20.9689 9.26825 21.6879 9.26825C22.4069 9.26825 22.9919 9.85133 22.9919 10.5681C22.9919 11.2849 22.4069 11.868 21.6879 11.868ZM15.9996 13.0537C14.2456 13.0537 12.8174 14.4768 12.8174 16.2253C12.8174 17.9746 14.2456 19.3983 15.9996 19.3983C17.7544 19.3983 19.1819 17.9746 19.1819 16.2253C19.1819 14.4768 17.7544 13.0537 15.9996 13.0537ZM21.301 7.88159H10.699C9.00674 7.88159 7.62978 9.25425 7.62978 10.9412V21.5102C7.62978 23.1971 9.00674 24.5698 10.699 24.5698H21.301C22.9933 24.5698 24.3702 23.1971 24.3702 21.5102V10.9412C24.3702 9.25425 22.9933 7.88159 21.301 7.88159ZM15.9996 21.7194C12.9614 21.7194 10.489 19.2548 10.489 16.2253C10.489 13.1965 12.9614 10.7319 15.9996 10.7319C19.0386 10.7319 21.511 13.1965 21.511 16.2253C21.511 19.2548 19.0386 21.7194 15.9996 21.7194ZM21.6879 11.868C20.9689 11.868 20.384 11.2849 20.384 10.5681C20.384 9.85133 20.9689 9.26825 21.6879 9.26825C22.4069 9.26825 22.9919 9.85133 22.9919 10.5681C22.9919 11.2849 22.4069 11.868 21.6879 11.868ZM15.9996 13.0537C14.2456 13.0537 12.8174 14.4768 12.8174 16.2253C12.8174 17.9746 14.2456 19.3983 15.9996 19.3983C17.7544 19.3983 19.1819 17.9746 19.1819 16.2253C19.1819 14.4768 17.7544 13.0537 15.9996 13.0537ZM0 0.275635V32.1757H32V0.275635H0ZM26.6986 21.5102C26.6986 24.4774 24.2775 26.8909 21.301 26.8909H10.699C7.72247 26.8909 5.30138 24.4774 5.30138 21.5102V10.9412C5.30138 7.97399 7.72247 5.56047 10.699 5.56047H21.301C24.2775 5.56047 26.6986 7.97399 26.6986 10.9412V21.5102ZM21.301 7.88159H10.699C9.00674 7.88159 7.62978 9.25425 7.62978 10.9412V21.5102C7.62978 23.1971 9.00674 24.5698 10.699 24.5698H21.301C22.9933 24.5698 24.3702 23.1971 24.3702 21.5102V10.9412C24.3702 9.25425 22.9933 7.88159 21.301 7.88159ZM15.9996 21.7194C12.9614 21.7194 10.489 19.2548 10.489 16.2253C10.489 13.1965 12.9614 10.7319 15.9996 10.7319C19.0386 10.7319 21.511 13.1965 21.511 16.2253C21.511 19.2548 19.0386 21.7194 15.9996 21.7194ZM21.6879 11.868C20.9689 11.868 20.384 11.2849 20.384 10.5681C20.384 9.85133 20.9689 9.26825 21.6879 9.26825C22.4069 9.26825 22.9919 9.85133 22.9919 10.5681C22.9919 11.2849 22.4069 11.868 21.6879 11.868ZM15.9996 13.0537C14.2456 13.0537 12.8174 14.4768 12.8174 16.2253C12.8174 17.9746 14.2456 19.3983 15.9996 19.3983C17.7544 19.3983 19.1819 17.9746 19.1819 16.2253C19.1819 14.4768 17.7544 13.0537 15.9996 13.0537ZM15.9996 13.0537C14.2456 13.0537 12.8174 14.4768 12.8174 16.2253C12.8174 17.9746 14.2456 19.3983 15.9996 19.3983C17.7544 19.3983 19.1819 17.9746 19.1819 16.2253C19.1819 14.4768 17.7544 13.0537 15.9996 13.0537ZM15.9996 13.0537C14.2456 13.0537 12.8174 14.4768 12.8174 16.2253C12.8174 17.9746 14.2456 19.3983 15.9996 19.3983C17.7544 19.3983 19.1819 17.9746 19.1819 16.2253C19.1819 14.4768 17.7544 13.0537 15.9996 13.0537ZM21.301 7.88159H10.699C9.00674 7.88159 7.62978 9.25425 7.62978 10.9412V21.5102C7.62978 23.1971 9.00674 24.5698 10.699 24.5698H21.301C22.9933 24.5698 24.3702 23.1971 24.3702 21.5102V10.9412C24.3702 9.25425 22.9933 7.88159 21.301 7.88159ZM15.9996 21.7194C12.9614 21.7194 10.489 19.2548 10.489 16.2253C10.489 13.1965 12.9614 10.7319 15.9996 10.7319C19.0386 10.7319 21.511 13.1965 21.511 16.2253C21.511 19.2548 19.0386 21.7194 15.9996 21.7194ZM21.6879 11.868C20.9689 11.868 20.384 11.2849 20.384 10.5681C20.384 9.85133 20.9689 9.26825 21.6879 9.26825C22.4069 9.26825 22.9919 9.85133 22.9919 10.5681C22.9919 11.2849 22.4069 11.868 21.6879 11.868ZM15.9996 13.0537C14.2456 13.0537 12.8174 14.4768 12.8174 16.2253C12.8174 17.9746 14.2456 19.3983 15.9996 19.3983C17.7544 19.3983 19.1819 17.9746 19.1819 16.2253C19.1819 14.4768 17.7544 13.0537 15.9996 13.0537ZM15.9996 13.0537C14.2456 13.0537 12.8174 14.4768 12.8174 16.2253C12.8174 17.9746 14.2456 19.3983 15.9996 19.3983C17.7544 19.3983 19.1819 17.9746 19.1819 16.2253C19.1819 14.4768 17.7544 13.0537 15.9996 13.0537ZM15.9996 13.0537C14.2456 13.0537 12.8174 14.4768 12.8174 16.2253C12.8174 17.9746 14.2456 19.3983 15.9996 19.3983C17.7544 19.3983 19.1819 17.9746 19.1819 16.2253C19.1819 14.4768 17.7544 13.0537 15.9996 13.0537ZM21.301 7.88159H10.699C9.00674 7.88159 7.62978 9.25425 7.62978 10.9412V21.5102C7.62978 23.1971 9.00674 24.5698 10.699 24.5698H21.301C22.9933 24.5698 24.3702 23.1971 24.3702 21.5102V10.9412C24.3702 9.25425 22.9933 7.88159 21.301 7.88159ZM15.9996 21.7194C12.9614 21.7194 10.489 19.2548 10.489 16.2253C10.489 13.1965 12.9614 10.7319 15.9996 10.7319C19.0386 10.7319 21.511 13.1965 21.511 16.2253C21.511 19.2548 19.0386 21.7194 15.9996 21.7194ZM21.6879 11.868C20.9689 11.868 20.384 11.2849 20.384 10.5681C20.384 9.85133 20.9689 9.26825 21.6879 9.26825C22.4069 9.26825 22.9919 9.85133 22.9919 10.5681C22.9919 11.2849 22.4069 11.868 21.6879 11.868ZM15.9996 13.0537C14.2456 13.0537 12.8174 14.4768 12.8174 16.2253C12.8174 17.9746 14.2456 19.3983 15.9996 19.3983C17.7544 19.3983 19.1819 17.9746 19.1819 16.2253C19.1819 14.4768 17.7544 13.0537 15.9996 13.0537Z" fill="#F0F8F7"/>
</g>
<defs>
<clipPath id="clip0_903:5396">
<rect width="32" height="31.9001" fill="white" transform="translate(0 0.275635)"/>
</clipPath>
</defs>
</svg>
