<svg width="21" height="21" viewBox="0 0 21 21" fill="none" xmlns="http://www.w3.org/2000/svg">
<g clip-path="url(#clip0)">
<path d="M12.3457 10.4999C12.3457 11.5192 11.5193 12.3456 10.5 12.3456C9.4807 12.3456 8.6543 11.5192 8.6543 10.4999C8.6543 9.48058 9.4807 8.65417 10.5 8.65417C11.5193 8.65417 12.3457 9.48058 12.3457 10.4999Z" fill="white"/>
<path d="M13.6172 4.92175H7.38281C6.02577 4.92175 4.92188 6.02565 4.92188 7.38269V13.6171C4.92188 14.9741 6.02577 16.078 7.38281 16.078H13.6172C14.9742 16.078 16.0781 14.9741 16.0781 13.6171V7.38269C16.0781 6.02565 14.9742 4.92175 13.6172 4.92175ZM10.5 13.576C8.80378 13.576 7.42383 12.1961 7.42383 10.4999C7.42383 8.80366 8.80378 7.42371 10.5 7.42371C12.1962 7.42371 13.5762 8.80366 13.5762 10.4999C13.5762 12.1961 12.1962 13.576 10.5 13.576ZM14.0273 7.58777C13.6875 7.58777 13.4121 7.31236 13.4121 6.97253C13.4121 6.63271 13.6875 6.3573 14.0273 6.3573C14.3672 6.3573 14.6426 6.63271 14.6426 6.97253C14.6426 7.31236 14.3672 7.58777 14.0273 7.58777Z" fill="white"/>
<path d="M15.4629 -0.00012207H5.53711C2.48401 -0.00012207 0 2.48389 0 5.53699V15.4628C0 18.5159 2.48401 20.9999 5.53711 20.9999H15.4629C18.516 20.9999 21 18.5159 21 15.4628V5.53699C21 2.48389 18.516 -0.00012207 15.4629 -0.00012207ZM17.3086 13.6171C17.3086 15.6525 15.6526 17.3085 13.6172 17.3085H7.38281C5.34741 17.3085 3.69141 15.6525 3.69141 13.6171V7.38269C3.69141 5.34729 5.34741 3.69128 7.38281 3.69128H13.6172C15.6526 3.69128 17.3086 5.34729 17.3086 7.38269V13.6171Z" fill="white"/>
</g>
<defs>
<clipPath id="clip0">
<rect width="21" height="21" fill="white" transform="translate(0 -0.00012207)"/>
</clipPath>
</defs>
</svg>
