<svg width="22" height="18" viewBox="0 0 22 18" fill="none" xmlns="http://www.w3.org/2000/svg">
<path d="M20.0664 0.734375H1.93359C0.868742 0.734375 0 1.61471 0 2.69591V15.7728C0 16.8504 0.864875 17.7344 1.93359 17.7344H20.0664C21.1286 17.7344 22 16.857 22 15.7728V2.69591C22 1.61838 21.1351 0.734375 20.0664 0.734375ZM19.7994 2.04207L11.041 10.9271L2.20683 2.04207H19.7994ZM1.28906 15.5021V2.96046L7.49714 9.20426L1.28906 15.5021ZM2.20056 16.4267L8.41255 10.1249L10.5892 12.3141C10.8412 12.5675 11.2478 12.5667 11.4987 12.3121L13.6211 10.159L19.7994 16.4267H2.20056ZM20.7109 15.502L14.5326 9.23438L20.7109 2.96669V15.502Z" fill="#F96B30"/>
</svg>
