<svg width="17" height="17" viewBox="0 0 17 17" fill="none" xmlns="http://www.w3.org/2000/svg">
<g opacity="0.8">
<path d="M16.7415 15.4842L12.5507 11.2761C13.6283 10.0394 14.2186 8.48346 14.2186 6.86362C14.2186 3.07901 11.0293 -0.00012207 7.10932 -0.00012207C3.1893 -0.00012207 0 3.07901 0 6.86362C0 10.6482 3.1893 13.7274 7.10932 13.7274C8.58095 13.7274 9.98334 13.2988 11.1823 12.4853L15.405 16.7253C15.5815 16.9023 15.8189 16.9999 16.0732 16.9999C16.314 16.9999 16.5425 16.9112 16.7159 16.7501C17.0843 16.4078 17.0961 15.8402 16.7415 15.4842ZM7.10932 1.79042C10.0068 1.79042 12.364 4.0662 12.364 6.86362C12.364 9.66104 10.0068 11.9368 7.10932 11.9368C4.21181 11.9368 1.85461 9.66104 1.85461 6.86362C1.85461 4.0662 4.21181 1.79042 7.10932 1.79042Z" fill="#0B327D"/>
</g>
</svg>
