<svg width="66" height="47" viewBox="0 0 66 47" fill="none" xmlns="http://www.w3.org/2000/svg">
<path d="M20.8091 16.5615H10.9192L9.14844 18.777H20.8091V16.5615Z" fill="#E98C00"/>
<path d="M43.7835 3.62207H35.337V6.87431C35.3371 7.0134 35.2959 7.14936 35.2188 7.26502C35.1417 7.38068 35.0321 7.47084 34.9038 7.52411L31.6319 8.8835C31.5252 8.92781 31.4093 8.94508 31.2944 8.93377C31.1795 8.92246 31.0691 8.88294 30.9731 8.81869C30.877 8.75444 30.7983 8.66746 30.7438 8.56544C30.6894 8.46342 30.6609 8.34953 30.6609 8.23384V3.62207H22.2148V18.7132H43.7835V3.62207ZM24.0789 10.3373H27.7267C27.9129 10.3373 28.0915 10.4114 28.2232 10.5433C28.3548 10.6752 28.4288 10.8541 28.4288 11.0407C28.4288 11.2272 28.3548 11.4062 28.2232 11.5381C28.0915 11.67 27.9129 11.7441 27.7267 11.7441H24.0789C23.8926 11.7441 23.714 11.67 23.5824 11.5381C23.4507 11.4062 23.3767 11.2272 23.3767 11.0407C23.3767 10.8541 23.4507 10.6752 23.5824 10.5433C23.714 10.4114 23.8926 10.3373 24.0789 10.3373ZM31.5807 17.2587H24.0789C23.8926 17.2587 23.714 17.1846 23.5824 17.0527C23.4507 16.9208 23.3767 16.7419 23.3767 16.5553C23.3767 16.3688 23.4507 16.1899 23.5824 16.058C23.714 15.9261 23.8926 15.8519 24.0789 15.8519H31.5805C31.7667 15.8519 31.9453 15.9261 32.077 16.058C32.2087 16.1899 32.2827 16.3688 32.2827 16.5553C32.2827 16.7419 32.2087 16.9208 32.077 17.0527C31.9453 17.1846 31.7667 17.2587 31.5805 17.2587H31.5807ZM31.5807 14.5014H24.0789C23.8926 14.5014 23.714 14.4273 23.5824 14.2954C23.4507 14.1635 23.3767 13.9846 23.3767 13.798C23.3767 13.6115 23.4507 13.4326 23.5824 13.3006C23.714 13.1687 23.8926 13.0946 24.0789 13.0946H31.5805C31.7667 13.0946 31.9453 13.1687 32.077 13.3006C32.2087 13.4326 32.2827 13.6115 32.2827 13.798C32.2827 13.9846 32.2087 14.1635 32.077 14.2954C31.9453 14.4273 31.7667 14.5014 31.5805 14.5014H31.5807Z" fill="#E98C00"/>
<path d="M31.3633 20.1201H34.6362V35.3552H31.3633V20.1201Z" fill="#E98C00"/>
<path d="M33.9343 6.40528V3.62207H32.0664V7.18127L33.9343 6.40528Z" fill="#E98C00"/>
<path d="M0 36.7622H66V40.3533H0V36.7622Z" fill="#E98C00"/>
<path d="M47.7587 22.9664V20.1833H45.8906V23.7426L47.7587 22.9664Z" fill="#E98C00"/>
<path d="M41.2542 0H24.7475L22.9766 2.21529H43.0251L41.2542 0Z" fill="#E98C00"/>
<path d="M36.043 20.1833V35.2745H57.6109V20.1833H49.1653V23.4363C49.1653 23.5754 49.1241 23.7113 49.047 23.8269C48.9699 23.9426 48.8603 24.0327 48.7321 24.086L45.4602 25.4455C45.3535 25.4898 45.2376 25.5071 45.1226 25.4957C45.0077 25.4844 44.8973 25.4449 44.8013 25.3806C44.7052 25.3164 44.6265 25.2294 44.5721 25.1273C44.5176 25.0253 44.4891 24.9114 44.4891 24.7957V20.1833H36.043ZM37.907 26.8986H41.5542C41.7405 26.8986 41.9191 26.9727 42.0507 27.1046C42.1824 27.2365 42.2564 27.4154 42.2564 27.602C42.2564 27.7885 42.1824 27.9674 42.0507 28.0993C41.9191 28.2313 41.7405 28.3054 41.5542 28.3054H37.907C37.7208 28.3054 37.5422 28.2313 37.4105 28.0993C37.2788 27.9674 37.2048 27.7885 37.2048 27.602C37.2048 27.4154 37.2788 27.2365 37.4105 27.1046C37.5422 26.9727 37.7208 26.8986 37.907 26.8986ZM45.4089 33.82H37.907C37.7208 33.82 37.5422 33.7459 37.4105 33.614C37.2788 33.4821 37.2048 33.3032 37.2048 33.1166C37.2048 32.9301 37.2788 32.7512 37.4105 32.6192C37.5422 32.4873 37.7208 32.4132 37.907 32.4132H45.4089C45.5951 32.4132 45.7737 32.4873 45.9054 32.6192C46.0371 32.7512 46.1111 32.9301 46.1111 33.1166C46.1111 33.3032 46.0371 33.4821 45.9054 33.614C45.7737 33.7459 45.5951 33.82 45.4089 33.82ZM45.4089 29.6559C45.5951 29.6559 45.7737 29.73 45.9054 29.8619C46.0371 29.9938 46.1111 30.1727 46.1111 30.3593C46.1111 30.5459 46.0371 30.7248 45.9054 30.8567C45.7737 30.9886 45.5951 31.0627 45.4089 31.0627H37.907C37.7208 31.0627 37.5422 30.9886 37.4105 30.8567C37.2788 30.7248 37.2048 30.5459 37.2048 30.3593C37.2048 30.1727 37.2788 29.9938 37.4105 29.8619C37.5422 29.73 37.7208 29.6559 37.907 29.6559H45.4089Z" fill="#E98C00"/>
<path d="M29.9586 20.1833H21.5124V23.4363C21.5124 23.5754 21.4712 23.7113 21.3941 23.8269C21.317 23.9426 21.2074 24.0327 21.0792 24.086L17.8073 25.4455C17.7006 25.4898 17.5847 25.5071 17.4697 25.4957C17.3548 25.4844 17.2444 25.4449 17.1484 25.3806C17.0523 25.3164 16.9736 25.2294 16.9192 25.1273C16.8647 25.0253 16.8362 24.9114 16.8362 24.7957V20.1833H8.39062V35.2745H29.9586V20.1833ZM10.2545 26.8986H13.9025C14.0887 26.8986 14.2673 26.9727 14.3989 27.1046C14.5306 27.2365 14.6046 27.4154 14.6046 27.602C14.6046 27.7885 14.5306 27.9674 14.3989 28.0993C14.2673 28.2313 14.0887 28.3054 13.9025 28.3054H10.2545C10.0683 28.3054 9.88969 28.2313 9.75801 28.0993C9.62634 27.9674 9.55236 27.7885 9.55236 27.602C9.55236 27.4154 9.62634 27.2365 9.75801 27.1046C9.88969 26.9727 10.0683 26.8986 10.2545 26.8986ZM17.7563 33.82H10.2545C10.0683 33.82 9.88969 33.7459 9.75801 33.614C9.62634 33.4821 9.55236 33.3032 9.55236 33.1166C9.55236 32.9301 9.62634 32.7512 9.75801 32.6192C9.88969 32.4873 10.0683 32.4132 10.2545 32.4132H17.7563C17.9425 32.4132 18.1211 32.4873 18.2528 32.6192C18.3845 32.7512 18.4584 32.9301 18.4584 33.1166C18.4584 33.3032 18.3845 33.4821 18.2528 33.614C18.1211 33.7459 17.9425 33.82 17.7563 33.82ZM17.7563 31.0627H10.2545C10.0683 31.0627 9.88969 30.9886 9.75801 30.8567C9.62634 30.7248 9.55236 30.5459 9.55236 30.3593C9.55236 30.1727 9.62634 29.9938 9.75801 29.8619C9.88969 29.73 10.0683 29.6559 10.2545 29.6559H17.7563C17.9425 29.6559 18.1211 29.73 18.2528 29.8619C18.3845 29.9938 18.4584 30.1727 18.4584 30.3593C18.4584 30.5459 18.3845 30.7248 18.2528 30.8567C18.1211 30.9886 17.9425 31.0627 17.7563 31.0627Z" fill="#E98C00"/>
<path d="M55.0774 16.5615H45.1875V18.777H56.8482L55.0774 16.5615Z" fill="#E98C00"/>
<path d="M6.97656 41.76H11.9353V46.6398H6.97656V41.76Z" fill="#E98C00"/>
<path d="M54.0625 41.76H59.0212V46.6398H54.0625V41.76Z" fill="#E98C00"/>
<path d="M20.1103 22.9664V20.1833H18.2422V23.7426L20.1103 22.9664Z" fill="#E98C00"/>
<rect width="3.02094" height="47.328" transform="matrix(0.702206 -0.711973 0.702206 0.711973 6 12.29)" fill="#F0F8F7"/>
<rect width="3.02094" height="57.5416" transform="matrix(0.702206 0.711973 -0.702206 0.711973 45.4062 3.8811)" fill="#F0F8F7"/>
</svg>
