<svg width="12" height="12" viewBox="0 0 12 12" fill="none" xmlns="http://www.w3.org/2000/svg">
<path d="M11.0371 7.8765C10.3024 7.8765 9.58106 7.7616 8.89747 7.53569C8.5625 7.42144 8.15072 7.52625 7.94628 7.73622L6.597 8.75478C5.03222 7.9195 4.06834 6.95594 3.24447 5.40291L4.23306 4.08878C4.48991 3.83228 4.58203 3.4576 4.47166 3.10603C4.24478 2.41885 4.12953 1.69782 4.12953 0.962815C4.12956 0.431847 3.69759 -0.00012207 3.16666 -0.00012207H0.962906C0.431969 -0.00012207 0 0.431847 0 0.962784C0 7.04872 4.95119 11.9999 11.0371 11.9999C11.5681 11.9999 12 11.5679 12 11.037V8.83938C12 8.30847 11.568 7.8765 11.0371 7.8765Z" fill="#F0F8F7"/>
</svg>
