<svg width="51" height="51" viewBox="0 0 51 51" fill="none" xmlns="http://www.w3.org/2000/svg">
<path d="M45.1475 31.8585V8.36066C45.1475 6.05576 43.2721 4.18033 40.9672 4.18033H39.2951V2.5082C39.2951 1.12509 38.17 0 36.7869 0C35.4038 0 34.2787 1.12509 34.2787 2.5082V4.18033H30.0984V2.5082C30.0984 1.12509 28.9733 0 27.5902 0C26.2071 0 25.082 1.12509 25.082 2.5082V4.18033H20.0656V2.5082C20.0656 1.12509 18.9405 0 17.5574 0C16.1743 0 15.0492 1.12509 15.0492 2.5082V4.18033H10.8689V2.5082C10.8689 1.12509 9.74376 0 8.36066 0C6.97755 0 5.85246 1.12509 5.85246 2.5082V4.18033H4.18033C1.87543 4.18033 0 6.05576 0 8.36066V41.8033C0 44.1082 1.87543 45.9836 4.18033 45.9836H32.2918C34.0297 48.9774 37.2631 51 40.9672 51C46.4996 51 51 46.4996 51 40.9672C51 36.9278 48.5958 33.4476 45.1475 31.8585ZM35.9508 2.5082C35.9508 2.04689 36.3256 1.67213 36.7869 1.67213C37.2482 1.67213 37.623 2.04689 37.623 2.5082V7.52459C37.623 7.9859 37.2482 8.36066 36.7869 8.36066C36.3256 8.36066 35.9508 7.9859 35.9508 7.52459V2.5082ZM26.7541 2.5082C26.7541 2.04689 27.1289 1.67213 27.5902 1.67213C28.0515 1.67213 28.4262 2.04689 28.4262 2.5082V7.52459C28.4262 7.9859 28.0515 8.36066 27.5902 8.36066C27.1289 8.36066 26.7541 7.9859 26.7541 7.52459V2.5082ZM16.7213 2.5082C16.7213 2.04689 17.0961 1.67213 17.5574 1.67213C18.0187 1.67213 18.3934 2.04689 18.3934 2.5082V7.52459C18.3934 7.9859 18.0187 8.36066 17.5574 8.36066C17.0961 8.36066 16.7213 7.9859 16.7213 7.52459V2.5082ZM7.52459 2.5082C7.52459 2.04689 7.89935 1.67213 8.36066 1.67213C8.82196 1.67213 9.19672 2.04689 9.19672 2.5082V7.52459C9.19672 7.9859 8.82196 8.36066 8.36066 8.36066C7.89935 8.36066 7.52459 7.9859 7.52459 7.52459V2.5082ZM4.18033 5.85246H5.85246V7.52459C5.85246 8.90769 6.97755 10.0328 8.36066 10.0328C9.74376 10.0328 10.8689 8.90769 10.8689 7.52459V5.85246H15.0492V7.52459C15.0492 8.90769 16.1743 10.0328 17.5574 10.0328C18.9405 10.0328 20.0656 8.90769 20.0656 7.52459V5.85246H25.082V7.52459C25.082 8.90769 26.2071 10.0328 27.5902 10.0328C28.9733 10.0328 30.0984 8.90769 30.0984 7.52459V5.85246H34.2787V7.52459C34.2787 8.90769 35.4038 10.0328 36.7869 10.0328C38.17 10.0328 39.2951 8.90769 39.2951 7.52459V5.85246H40.9672C42.3503 5.85246 43.4754 6.97755 43.4754 8.36066V12.541H1.67213V8.36066C1.67213 6.97755 2.79722 5.85246 4.18033 5.85246ZM4.18033 44.3115C2.79722 44.3115 1.67213 43.1864 1.67213 41.8033V14.2131H43.4754V31.2645C42.6721 31.0566 41.8347 30.9344 40.9672 30.9344C40.3963 30.9344 39.8401 30.9934 39.2951 31.0854V26.7541C39.2951 26.292 38.9211 25.918 38.459 25.918H33.4426C32.9805 25.918 32.6066 26.292 32.6066 26.7541V31.7705C32.6066 32.2326 32.9805 32.6066 33.4426 32.6066H35.4332C32.725 34.405 30.9344 37.4795 30.9344 40.9672C30.9344 42.1411 31.1476 43.2636 31.5197 44.3115H4.18033ZM37.623 30.9344H34.2787V27.5902H37.623V30.9344ZM40.9672 49.3279C36.3574 49.3279 32.6066 45.577 32.6066 40.9672C32.6066 36.3574 36.3574 32.6066 40.9672 32.6066C45.577 32.6066 49.3279 36.3574 49.3279 40.9672C49.3279 45.577 45.577 49.3279 40.9672 49.3279Z" fill="#F0F8F7"/>
<path d="M41.8046 39.5269V34.2786H40.1324V39.5269C39.6347 39.8165 39.2964 40.3497 39.2964 40.9671C39.2964 41.0517 39.3091 41.1329 39.3213 41.2142L36.2656 43.6582L37.3107 44.9645L40.3637 42.5221C40.5517 42.5953 40.7546 42.6392 40.9685 42.6392C41.892 42.6392 42.6406 41.8906 42.6406 40.9671C42.6406 40.3497 42.3023 39.8165 41.8046 39.5269Z" fill="#E98C00"/>
<path d="M10.872 16.7214H5.8556C5.39348 16.7214 5.01953 17.0954 5.01953 17.5575V22.5739C5.01953 23.036 5.39348 23.41 5.8556 23.41H10.872C11.3341 23.41 11.7081 23.036 11.7081 22.5739V17.5575C11.7081 17.0954 11.3341 16.7214 10.872 16.7214ZM10.0359 21.7378H6.69166V18.3936H10.0359V21.7378Z" fill="#E98C00"/>
<path d="M20.0673 16.7214H15.0509C14.5888 16.7214 14.2148 17.0954 14.2148 17.5575V22.5739C14.2148 23.036 14.5888 23.41 15.0509 23.41H20.0673C20.5294 23.41 20.9034 23.036 20.9034 22.5739V17.5575C20.9034 17.0954 20.5294 16.7214 20.0673 16.7214ZM19.2312 21.7378H15.887V18.3936H19.2312V21.7378Z" fill="#E98C00"/>
<path d="M29.2626 16.7214H24.2462C23.7841 16.7214 23.4102 17.0954 23.4102 17.5575V22.5739C23.4102 23.036 23.7841 23.41 24.2462 23.41H29.2626C29.7247 23.41 30.0987 23.036 30.0987 22.5739V17.5575C30.0987 17.0954 29.7247 16.7214 29.2626 16.7214ZM28.4265 21.7378H25.0823V18.3936H28.4265V21.7378Z" fill="#E98C00"/>
<path d="M33.4415 23.41H38.4579C38.92 23.41 39.294 23.036 39.294 22.5739V17.5575C39.294 17.0954 38.92 16.7214 38.4579 16.7214H33.4415C32.9794 16.7214 32.6055 17.0954 32.6055 17.5575V22.5739C32.6055 23.036 32.9794 23.41 33.4415 23.41ZM34.2776 18.3936H37.6219V21.7378H34.2776V18.3936Z" fill="#E98C00"/>
<path d="M10.872 25.918H5.8556C5.39348 25.918 5.01953 26.2919 5.01953 26.754V31.7704C5.01953 32.2325 5.39348 32.6065 5.8556 32.6065H10.872C11.3341 32.6065 11.7081 32.2325 11.7081 31.7704V26.754C11.7081 26.2919 11.3341 25.918 10.872 25.918ZM10.0359 30.9344H6.69166V27.5901H10.0359V30.9344Z" fill="#E98C00"/>
<path d="M20.0673 25.918H15.0509C14.5888 25.918 14.2148 26.2919 14.2148 26.754V31.7704C14.2148 32.2325 14.5888 32.6065 15.0509 32.6065H20.0673C20.5294 32.6065 20.9034 32.2325 20.9034 31.7704V26.754C20.9034 26.2919 20.5294 25.918 20.0673 25.918ZM19.2312 30.9344H15.887V27.5901H19.2312V30.9344Z" fill="#E98C00"/>
<path d="M29.2626 25.918H24.2462C23.7841 25.918 23.4102 26.2919 23.4102 26.754V31.7704C23.4102 32.2325 23.7841 32.6065 24.2462 32.6065H29.2626C29.7247 32.6065 30.0987 32.2325 30.0987 31.7704V26.754C30.0987 26.2919 29.7247 25.918 29.2626 25.918ZM28.4265 30.9344H25.0823V27.5901H28.4265V30.9344Z" fill="#E98C00"/>
<path d="M10.872 35.1147H5.8556C5.39348 35.1147 5.01953 35.4887 5.01953 35.9508V40.9672C5.01953 41.4293 5.39348 41.8033 5.8556 41.8033H10.872C11.3341 41.8033 11.7081 41.4293 11.7081 40.9672V35.9508C11.7081 35.4887 11.3341 35.1147 10.872 35.1147ZM10.0359 40.1311H6.69166V36.7869H10.0359V40.1311Z" fill="#F0F8F7"/>
<path d="M20.0673 35.1147H15.0509C14.5888 35.1147 14.2148 35.4887 14.2148 35.9508V40.9672C14.2148 41.4293 14.5888 41.8033 15.0509 41.8033H20.0673C20.5294 41.8033 20.9034 41.4293 20.9034 40.9672V35.9508C20.9034 35.4887 20.5294 35.1147 20.0673 35.1147ZM19.2312 40.1311H15.887V36.7869H19.2312V40.1311Z" fill="#F0F8F7"/>
<path d="M29.2626 35.1147H24.2462C23.7841 35.1147 23.4102 35.4887 23.4102 35.9508V40.9672C23.4102 41.4293 23.7841 41.8033 24.2462 41.8033H29.2626C29.7247 41.8033 30.0987 41.4293 30.0987 40.9672V35.9508C30.0987 35.4887 29.7247 35.1147 29.2626 35.1147ZM28.4265 40.1311H25.0823V36.7869H28.4265V40.1311Z" fill="#F0F8F7"/>
</svg>
