<svg width="21" height="21" viewBox="0 0 21 21" fill="none" xmlns="http://www.w3.org/2000/svg">
<path d="M19.8448 1.15504C19.0749 0.384981 18.1474 -0.00012207 17.0628 -0.00012207H3.93753C2.85298 -0.00012207 1.9254 0.384981 1.15518 1.15504C0.385109 1.92525 0 2.85276 0 3.93735V17.0623C0 18.1468 0.385109 19.0744 1.15518 19.8446C1.9254 20.6148 2.85298 20.9999 3.93753 20.9999H17.0627C18.1472 20.9999 19.0748 20.6148 19.8447 19.8446C20.6149 19.0744 21 18.1468 21 17.0623V3.93735C21 2.85276 20.6148 1.92511 19.8448 1.15504ZM16.0646 8.08001C16.0738 8.16204 16.0784 8.28487 16.0784 8.44921C16.0784 9.21487 15.9667 9.98278 15.7435 10.7527C15.5203 11.5231 15.1784 12.2614 14.7179 12.9677C14.2579 13.674 13.7087 14.2985 13.0708 14.8408C12.4327 15.3828 11.6672 15.816 10.7737 16.1393C9.88072 16.4631 8.9235 16.625 7.90274 16.625C6.3169 16.625 4.84945 16.1963 3.50041 15.3399C3.71916 15.3671 3.94716 15.3809 4.18401 15.3809C5.50569 15.3809 6.69517 14.9707 7.75252 14.1502C7.13281 14.1413 6.57899 13.9501 6.0914 13.576C5.60367 13.2023 5.26425 12.7284 5.07279 12.1542C5.30969 12.1906 5.4874 12.2086 5.60587 12.2086C5.80638 12.2086 6.03887 12.1722 6.30311 12.0995C5.63777 11.9717 5.07729 11.6416 4.62155 11.1084C4.16571 10.5751 3.93787 9.96678 3.93787 9.28325V9.25591C4.42081 9.48361 4.87655 9.60208 5.305 9.61132C4.47554 9.05521 4.06084 8.25781 4.06084 7.21877C4.06084 6.7083 4.19291 6.22527 4.45725 5.76953C5.17724 6.65371 6.05242 7.35999 7.08224 7.8886C8.11215 8.41718 9.21514 8.71354 10.3909 8.77728C10.3454 8.60412 10.3225 8.38528 10.3225 8.12105C10.3225 7.32795 10.6028 6.65131 11.1634 6.09071C11.7239 5.53015 12.4007 5.24977 13.1936 5.24977C14.0323 5.24977 14.7297 5.55064 15.2857 6.15224C15.9146 6.03377 16.5256 5.80123 17.1178 5.45501C16.89 6.15664 16.4659 6.68991 15.8464 7.05452C16.4387 6.97234 16.99 6.81748 17.5003 6.58963C17.1175 7.17294 16.6389 7.66967 16.0646 8.08001Z" fill="white"/>
</svg>
